<svg width="59" height="64" viewBox="0 0 59 64" fill="none" xmlns="http://www.w3.org/2000/svg">
<path d="M57.6554 14.7338C41.6611 14.2358 33.1629 4.72969 30.4027 0.51147C29.9569 -0.170492 28.9501 -0.170492 28.5042 0.51147C25.744 4.73029 17.2447 14.237 1.24794 14.7338C0.664858 14.7518 0.184845 15.1916 0.136305 15.7723C-0.345503 21.5672 -1.1593 50.5698 28.9825 63.9016C29.2797 64.0328 29.6267 64.0328 29.9245 63.9016C60.0603 50.5722 59.2531 21.5798 58.7707 15.7759C58.7221 15.1928 58.2403 14.7518 57.6554 14.7338Z" fill="black"/>
<path d="M29.453 60.6499C29.4038 60.6499 29.3565 60.6397 29.3139 60.6199C16.854 54.8442 8.69567 45.5628 5.06533 33.0334C3.2993 26.9377 3.04581 21.5108 3.14349 18.0309C3.14829 17.8769 3.27113 17.7552 3.43653 17.7414C17.3676 16.6244 25.5625 9.14739 29.2073 4.79015C29.293 4.68827 29.3978 4.67269 29.453 4.67269C29.5087 4.67269 29.6142 4.68827 29.6993 4.79015C33.3434 9.14619 41.5359 16.6214 55.4616 17.7408C55.6288 17.7546 55.7534 17.8781 55.7582 18.0351C55.8547 21.5725 55.5922 27.075 53.7921 33.2018C50.1353 45.6467 41.9938 54.8712 29.592 60.6199C29.5494 60.6397 29.5015 60.6499 29.453 60.6499Z" fill="black"/>
<path d="M29.4536 3.83832C29.127 3.83832 28.7998 3.97675 28.5679 4.25481C24.4474 9.18016 16.2297 15.8787 3.36949 16.9101C2.78641 16.9568 2.32677 17.4224 2.30999 18.0073C2.21771 21.2673 2.42445 26.9154 4.26419 33.2658C7.96644 46.0439 16.2722 55.4942 28.9634 61.3772C29.1175 61.4485 29.2852 61.4839 29.453 61.4839C29.6208 61.4839 29.7886 61.4485 29.9426 61.3772C42.5745 55.5212 50.8635 46.1284 54.5927 33.4366C56.4696 27.0484 56.6824 21.3123 56.5919 18.0115C56.5757 17.4242 56.1143 16.9562 55.5282 16.9095C42.6746 15.8757 34.4587 9.17896 30.3394 4.25481C30.1074 3.97675 29.7802 3.83832 29.4536 3.83832ZM29.4536 5.78773C33.3171 10.2409 41.4611 17.3068 54.9343 18.5329C54.9931 22.0176 54.682 27.212 52.9921 32.9661C49.4265 45.0994 41.5084 54.1147 29.453 59.764C17.3413 54.0884 9.40647 45.0173 5.86662 32.8013C4.20966 27.082 3.90703 21.9619 3.96696 18.5335C17.4426 17.308 25.5896 10.2415 29.4536 5.78773" fill="#FED038"/>
<path d="M32.6962 18.1663V48.1714H26.5184V25.9483L22.507 28.796L19.9805 23.7418L28.1634 18.1663H32.6962Z" fill="#FED038"/>
</svg>
