<svg width="61" height="63" viewBox="0 0 61 63" fill="none" xmlns="http://www.w3.org/2000/svg">
<path d="M29.0567 57.3039C37.3972 57.3039 43.0555 58.0751 50.0555 58.4604C59.2674 58.4604 58.0209 56.9263 58.5159 53.2253C58.6327 51.1213 58.5243 47.0421 58.5243 41.7787C58.5243 38.8585 58.3613 36.3416 56.1206 34.5031C53.2477 32.5004 52.2488 28.8904 46.3916 21.5578C44.7358 19.57 42.6306 19.5131 35.7373 19.3747C35.2722 19.3657 32.2807 19.3597 29.285 19.3597C26.2893 19.3597 23.2984 19.3657 22.8327 19.3747C15.9394 19.5131 13.8348 19.57 12.179 21.5578C6.32181 28.8904 5.32224 32.5004 2.44997 34.5031C0.209325 36.3416 0.0463245 38.8585 0.0463245 41.7787C0.0463245 47.0421 -0.0627415 51.1213 0.0547142 53.2253C0.549706 56.9263 -0.696762 58.4604 8.51512 58.4604C15.3623 58.0751 19.1341 57.3039 29.0567 57.3039Z" fill="black"/>
<path d="M1.59822 31.7131L4.9553 31.8701C5.18242 31.5531 5.41313 31.2175 5.65284 30.8562C5.22017 30.7729 5.15126 30.4882 5.14167 30.2689C5.13987 30.2215 5.13987 30.1772 5.13987 30.1394L5.29448 28.5154C5.33223 28.1391 5.0368 27.8125 4.65866 27.8125H0.901879C0.573482 27.8125 0.29842 28.0612 0.26606 28.3884L0.0221594 29.8506C-0.140241 30.8256 0.610636 31.7131 1.59822 31.7131Z" fill="black"/>
<path d="M56.9719 31.7131L53.6148 31.8701C53.3877 31.5531 53.1569 31.2175 52.9172 30.8562C53.3499 30.7729 53.4188 30.4882 53.4284 30.2689C53.4302 30.2215 53.4302 30.1772 53.4302 30.1394L53.2756 28.5154C53.2378 28.1391 53.5333 27.8125 53.9114 27.8125H57.6682C57.9966 27.8125 58.2717 28.0612 58.304 28.3884L58.5479 29.8506C58.7103 30.8256 57.9594 31.7131 56.9719 31.7131Z" fill="black"/>
<path d="M8.51519 58.4608C3.96198 58.4608 1.96583 58.085 1.04956 57.2592V61.0706C1.04956 61.5883 1.46904 62.0078 1.98621 62.0078H7.58034C8.0975 62.0078 8.51639 61.5883 8.51639 61.0706V58.4608H8.51519Z" fill="black"/>
<path d="M50.0552 58.4608H50.054V61.0706C50.054 61.5883 50.4728 62.0078 50.99 62.0078H56.5841C57.1013 62.0078 57.5208 61.5883 57.5208 61.0706V57.2592C56.6045 58.085 54.6084 58.4608 50.0552 58.4608Z" fill="black"/>
<path d="M1.979 45.3234C1.979 45.6087 2.16058 45.8598 2.43265 45.9449C4.39104 46.5561 12.3738 48.3635 13.7725 48.7159C14.0284 48.7806 14.2441 48.5259 14.1423 48.2826C13.9439 47.8116 13.5028 46.8162 13.0822 45.8742C12.4697 44.5024 11.0111 44.0518 9.57707 43.6089L3.66653 41.7818C2.82816 41.5223 1.979 42.1497 1.979 43.0277V45.3234Z" fill="#FED038"/>
<path d="M56.1876 45.3234C56.1876 45.6087 56.006 45.8598 55.7339 45.9449C53.7755 46.5561 45.7928 48.3635 44.3941 48.7159C44.1382 48.7806 43.9225 48.5259 44.0243 48.2826C44.2227 47.8116 44.6637 46.8162 45.0844 45.8742C45.6969 44.5024 47.1555 44.0518 48.5895 43.6089L54.5001 41.7818C55.3384 41.5223 56.1876 42.1497 56.1876 43.0277V45.3234Z" fill="#FED038"/>
<path d="M29.2851 20.9004C29.2851 20.9004 40.5998 20.9004 42.7619 21.408C43.4001 21.5584 44.0066 21.8287 44.4674 22.2961C45.2453 23.0841 49.4725 29.0821 50.0526 30.3406C50.1496 30.5509 49.9914 30.79 49.7595 30.79H29.2851H8.81065C8.57873 30.79 8.42053 30.5509 8.51761 30.3406C9.0977 29.0821 13.3249 23.0841 14.1027 22.2961C14.5636 21.8287 15.17 21.5584 15.8082 21.408C17.9704 20.9004 29.2851 20.9004 29.2851 20.9004Z" fill="#FED038"/>
<path d="M59.0385 53.5793L45.2992 38.3269C44.6652 37.6197 43.5781 37.5616 42.8716 38.1962L41.422 39.4996L39.6805 37.5574C47.0742 29.3673 47.287 16.6623 39.8423 8.23364C35.883 3.75115 30.5088 1.32653 25.0195 1.03109C19.5309 0.735055 13.9272 2.5682 9.51058 6.59945C0.676837 14.6613 -0.0650507 28.4654 7.85302 37.4304C11.8118 41.9129 17.1866 44.3369 22.6752 44.6323C27.757 44.9062 32.9346 43.3523 37.1804 39.9215L38.8637 41.799L37.4135 43.1018C36.707 43.737 36.6488 44.8247 37.2829 45.5318L51.0222 60.7843C51.6562 61.4914 52.7433 61.5501 53.4498 60.9149L58.9079 56.0093C59.6144 55.3741 59.6725 54.2864 59.0385 53.5793Z" fill="black"/>
<path d="M37.2519 39.0256L39.7838 41.8487L37.8488 43.5872C37.6367 43.7777 37.5114 44.0402 37.4964 44.3249C37.4809 44.6101 37.5773 44.8834 37.7679 45.0961L51.5066 60.348C51.9009 60.7866 52.5757 60.822 53.0144 60.4295L58.4731 55.5239C58.9105 55.1302 58.9471 54.453 58.554 54.0149L44.8152 38.7631C44.4203 38.3238 43.7444 38.2879 43.3075 38.6816L41.3725 40.4207L38.804 37.5562L39.1971 37.1199C46.4842 29.0478 46.5519 16.8145 39.3542 8.66507C35.6411 4.46124 30.5372 1.98089 24.9844 1.68246C19.4286 1.37683 14.0916 3.30047 9.94949 7.08062C1.3914 14.892 0.669892 28.3131 8.34107 36.9983C12.0541 41.2021 17.1574 43.6824 22.7102 43.9809C27.7944 44.2661 32.7868 42.6331 36.7707 39.4139L37.2519 39.0256ZM52.3042 62.0073C52.2611 62.0073 52.2179 62.0061 52.1736 62.0037C51.542 61.9702 50.9607 61.6915 50.5376 61.2199L36.7989 45.968C36.3752 45.4964 36.1607 44.8882 36.1948 44.2547C36.229 43.6225 36.5071 43.04 36.9781 42.6164L37.9435 41.7492L37.1021 40.8114C32.951 43.9791 27.8387 45.5611 22.6401 45.2843C16.7355 44.9655 11.311 42.3299 7.36486 37.8618C-0.774934 28.6463 -0.00907484 14.4054 9.07157 6.11641C13.4738 2.09834 19.1488 0.0680391 25.0545 0.379057C30.9585 0.697865 36.3842 3.33343 40.3304 7.80154C47.8373 16.3015 47.8961 28.9879 40.5521 37.5532L41.472 38.5785L42.4368 37.7108C43.4082 36.8371 44.9099 36.9174 45.7843 37.8912L59.5236 53.1436C60.3961 54.1168 60.3164 55.6198 59.3432 56.4941L53.8845 61.3997C53.4464 61.794 52.8891 62.0073 52.3042 62.0073" fill="#FED038"/>
<path d="M24.6075 4.66622C29.3824 4.9233 33.7702 7.05548 36.9619 10.6696C43.5514 18.1299 42.9311 29.6579 35.58 36.3673C32.0192 39.6171 27.4282 41.2656 22.6533 41.008C17.8783 40.7509 13.4905 38.6187 10.2988 35.0051C3.70994 27.5443 4.32958 16.0169 11.6807 9.30751C15.2416 6.05711 19.8325 4.40913 24.6075 4.66622Z" fill="#FED038"/>
<path d="M16.1082 11.5044V24.5474H13.4252V14.8872L11.6838 16.1253L10.5859 13.9278L14.1402 11.5044H16.1082Z" fill="black"/>
<path d="M26.2294 11.5044V13.6659L21.1428 24.5474H18.1986L23.2858 13.8757H17.6587V11.5044H26.2294Z" fill="black"/>
<path d="M35.8802 20.3976C35.8802 23.0302 34.2076 24.7393 31.5259 24.7393C28.8952 24.7393 27.3622 23.2399 27.2927 20.9381L29.9756 20.7811C30.0266 21.7399 30.5497 22.35 31.5427 22.35C32.6232 22.35 33.1799 21.5656 33.1799 20.4671C33.1799 19.3333 32.5872 18.619 31.5769 18.619C31.0201 18.619 30.5497 18.8107 30.1488 19.1068H27.7278V11.5045H35.3756V13.8758H30.4101V16.5959C30.811 16.4035 31.2988 16.2992 31.8741 16.2992C34.1561 16.2992 35.8802 17.6949 35.8802 20.3976Z" fill="black"/>
<path d="M15.3973 26.8722V28.1061H16.2824C16.6359 28.1061 16.896 27.8939 16.896 27.4924C16.896 27.0903 16.6359 26.8722 16.2824 26.8722H15.3973ZM16.4004 26.0692C17.2376 26.0692 17.8219 26.5827 17.8219 27.4924C17.8219 28.4015 17.2376 28.9151 16.4004 28.9151H15.4032V30.4863H14.4888V26.0692H16.4004Z" fill="black"/>
<path d="M19.0203 28.2777C19.0203 29.1867 19.5807 29.7423 20.3885 29.7423C21.1909 29.7423 21.7512 29.1867 21.7512 28.2777C21.7512 27.3626 21.1909 26.8137 20.3885 26.8137C19.5807 26.8137 19.0203 27.3626 19.0203 28.2777ZM22.6771 28.2777C22.6771 29.6656 21.7098 30.5513 20.3885 30.5513C19.0671 30.5513 18.0945 29.6656 18.0945 28.2777C18.0945 26.8904 19.0671 26.0047 20.3885 26.0047C21.7098 26.0047 22.6771 26.8904 22.6771 28.2777Z" fill="black"/>
<path d="M24.1476 30.4863H23.2332V26.0692H24.1476V30.4863Z" fill="black"/>
<path d="M28.5006 26.0692V30.4863H27.7276L25.7931 27.7519V30.4863H24.8787V26.0692H25.6517L27.5921 28.809V26.0692H28.5006Z" fill="black"/>
<path d="M32.785 26.0692V26.8722H31.3102V30.4863H30.3951V26.8722H28.9209V26.0692H32.785Z" fill="black"/>
<path d="M37.0389 54.604H21.1279C20.9295 54.604 20.7695 54.4434 20.7695 54.2456V50.7513C20.7695 50.553 20.9295 50.3924 21.1279 50.3924H37.0389C37.2367 50.3924 37.3973 54.2456 37.3973 54.2456C37.3973 54.4434 37.2367 54.604 37.0389 54.604Z" fill="#FED038"/>
<path d="M17.3612 33.2274L16.4257 33.3083C16.3101 32.6959 15.8774 32.3723 15.2829 32.3723C14.5201 32.3723 14.0179 32.9272 14.0179 33.8057C14.0179 34.7417 14.5722 35.2391 15.2829 35.2391C15.8714 35.2391 16.3101 34.9209 16.4257 34.3199L17.3612 34.4008C17.194 35.4123 16.3562 36.0308 15.3111 36.0308C14.0467 36.0308 13.1118 35.1984 13.1118 33.8057C13.1118 32.4064 14.0413 31.58 15.3111 31.58C16.3562 31.58 17.2054 32.2045 17.3612 33.2274Z" fill="black"/>
<path d="M21.5312 31.6441V35.9678H20.6419V34.1472H18.8926V35.9678H17.9973V31.6441H18.8926V33.355H20.6419V31.6441H21.5312Z" fill="black"/>
<path d="M25.1354 31.6441V32.4303H23.2591V33.367H24.8873V34.1352H23.2591V35.1755H25.1414V35.9678H22.3638V31.6441H25.1354Z" fill="black"/>
<path d="M29.8478 33.2274L28.9123 33.3083C28.7967 32.6959 28.364 32.3723 27.7689 32.3723C27.0067 32.3723 26.5045 32.9272 26.5045 33.8057C26.5045 34.7417 27.0588 35.2391 27.7689 35.2391C28.358 35.2391 28.7967 34.9209 28.9123 34.3199L29.8478 34.4008C29.6806 35.4123 28.8428 36.0308 27.7977 36.0308C26.5332 36.0308 25.5984 35.1984 25.5984 33.8057C25.5984 32.4064 26.5278 31.58 27.7977 31.58C28.8428 31.58 29.692 32.2045 29.8478 33.2274Z" fill="black"/>
<path d="M33.9886 31.6441L32.5048 33.4185L34.1618 35.9678H33.0993L31.9104 34.1292L31.3788 34.771V35.9678H30.4841V31.6441H31.3788V33.4305L32.8458 31.6441H33.9886Z" fill="black"/>
</svg>
