<svg width="68" height="60" viewBox="0 0 68 60" fill="none" xmlns="http://www.w3.org/2000/svg">
<path d="M41.4774 27.882C41.4774 32.5934 38.4822 35.6509 33.6773 35.6509C28.9659 35.6509 26.2201 32.9674 26.0955 28.8492L30.9004 28.5688C30.9938 30.2845 31.9299 31.3769 33.7085 31.3769C35.6429 31.3769 36.6413 29.9729 36.6413 28.0067C36.6413 25.9788 35.5806 24.6993 33.7708 24.6993C32.7725 24.6993 31.9299 25.0427 31.212 25.5731H26.8751V11.9692H40.5725V16.2126H31.68V21.0804C32.3979 20.737 33.2716 20.5494 34.3012 20.5494C38.3882 20.5494 41.4774 23.046 41.4774 27.882Z" fill="black"/>
<path d="M21.6478 39.5455V44.6764H23.291C24.6687 44.6764 25.5909 43.8183 25.5909 42.111C25.5909 40.4043 24.6794 39.5455 23.291 39.5455H21.6478ZM23.2802 38.1468C25.5382 38.1468 27.2131 39.6204 27.2131 42.111C27.2131 44.6021 25.5274 46.0757 23.27 46.0757H20.0154V38.1468H23.2802Z" fill="black"/>
<path d="M30.9636 40.5738L29.8718 43.2136H32.0555L30.9636 40.5738ZM31.642 38.1462L35.0554 46.0757H33.2642L32.6278 44.5494H29.2887L28.6529 46.0757H26.8611L30.2637 38.1462H31.642Z" fill="black"/>
<path d="M41.1384 38.1467L38.1385 43.0229V46.0762H36.5055V43.0229L33.4954 38.1467H35.3926L37.3115 41.4007L39.2303 38.1467H41.1384Z" fill="black"/>
<path d="M46.7442 40.4682L45.0801 40.5527C45.0585 39.8845 44.5923 39.4507 43.8396 39.4507C43.0869 39.4507 42.6626 39.8426 42.6626 40.4041C42.6626 41.0088 43.1295 41.1466 44.2213 41.4007C45.8328 41.804 46.9138 42.3547 46.9138 43.7654C46.9138 45.4505 45.5889 46.1924 43.9876 46.1924C42.1647 46.1924 40.8397 45.2917 40.8181 43.6485L42.4829 43.5634C42.5038 44.2843 43.1397 44.7721 43.9876 44.7721C44.7301 44.7721 45.2389 44.5067 45.2389 43.8606C45.2389 43.256 44.6768 43.0756 43.6065 42.8107C42.1754 42.45 40.9985 41.9945 40.9985 40.4574C40.9985 39.1534 41.9208 38.0298 43.8078 38.0298C45.5355 38.0298 46.7125 38.9419 46.7442 40.4682" fill="black"/>
<path d="M58.6651 14.9823C53.6936 6.43975 43.9657 0.696407 33.3701 0.696407C19.2155 0.696407 6.99355 11.4232 4.64024 24.9043L0.771994 24.438C0.206888 24.3769 -0.189223 24.9834 0.0936298 25.4766L6.17915 36.0871C6.41466 36.4976 6.98217 36.5587 7.29978 36.2076L15.4989 27.1299C15.88 26.708 15.6217 26.0321 15.056 25.9715L12.1598 25.6096C14.1482 13.8772 23.7454 5.4234 35.8835 5.4234C44.5764 5.4234 52.0546 9.37075 56.4208 16.2779C56.7426 16.7872 57.6948 16.8603 58.2168 16.5589C58.7298 16.2623 58.879 15.3502 58.6651 14.9823Z" fill="black"/>
<path d="M8.3909 45.3562C13.3624 53.8987 23.0902 59.6421 33.6858 59.6421C47.8404 59.6421 60.0624 48.9153 62.4157 35.4342L66.284 35.9005C66.8491 35.9616 67.2452 35.3551 66.9623 34.8625L60.8768 24.2514C60.6413 23.8409 60.0738 23.7798 59.7562 24.1309L51.557 33.2086C51.1759 33.6305 51.4342 34.3064 51.9999 34.3669L54.8961 34.7289C52.9078 46.4613 43.3106 54.9151 31.1725 54.9151C22.4796 54.9151 15.0014 50.9683 10.6351 44.0606C10.3133 43.5513 9.3611 43.4782 8.83914 43.7796C8.32618 44.0762 8.17696 44.9883 8.3909 45.3562Z" fill="black"/>
</svg>
