<svg width="22" height="16" viewBox="0 0 22 16" fill="none" xmlns="http://www.w3.org/2000/svg">
<path d="M20.6012 5H19.7402C19.6289 4.55129 19.4399 4.12237 19.1805 3.73L19.7832 3.17C19.9595 2.9787 20.0517 2.73262 20.0412 2.48095C20.0308 2.22927 19.9185 1.99053 19.7268 1.81244C19.5351 1.63434 19.2781 1.53001 19.0072 1.52029C18.7363 1.51057 18.4715 1.59617 18.2656 1.76L17.6628 2.32C17.2405 2.07901 16.7788 1.90339 16.2959 1.8V1C16.2959 0.734783 16.1825 0.48043 15.9806 0.292893C15.7788 0.105357 15.505 0 15.2196 0C14.9341 0 14.6603 0.105357 14.4585 0.292893C14.2566 0.48043 14.1432 0.734783 14.1432 1V1.8C13.6631 1.90181 13.2047 2.07758 12.787 2.32L12.1735 1.76C11.9676 1.59617 11.7028 1.51057 11.4319 1.52029C11.161 1.53001 10.904 1.63434 10.7123 1.81244C10.5206 1.99053 10.4083 2.22927 10.3979 2.48095C10.3874 2.73262 10.4796 2.9787 10.6559 3.17L11.2586 3.74C11.1618 3.89 11.0864 4.06 11.0003 4.22C10.4469 4.07486 9.87473 4.00084 9.2997 4C7.74855 3.99918 6.2489 4.5171 5.07495 5.45906C3.901 6.40102 3.13119 7.70409 2.90627 9.13C2.03034 9.35821 1.27288 9.8732 0.773792 10.5799C0.274706 11.2865 0.0677102 12.1371 0.191035 12.9745C0.31436 13.8119 0.759675 14.5795 1.44473 15.1356C2.12979 15.6918 3.00831 15.9988 3.91802 16H13.788C15.0241 16 16.2095 15.5438 17.0835 14.7318C17.9575 13.9197 18.4486 12.8184 18.4486 11.67C18.4476 11.139 18.338 10.613 18.1257 10.12L18.2656 10.24C18.4661 10.4247 18.7367 10.5289 19.019 10.53C19.1607 10.5308 19.3011 10.5055 19.4322 10.4558C19.5634 10.406 19.6826 10.3327 19.7832 10.24C19.9837 10.0526 20.0962 9.79918 20.0962 9.535C20.0962 9.27081 19.9837 9.01736 19.7832 8.83L19.1805 8.27C19.4399 7.87763 19.6289 7.44871 19.7402 7H20.6012C20.8867 7 21.1605 6.89464 21.3623 6.70711C21.5642 6.51957 21.6776 6.26522 21.6776 6C21.6776 5.73478 21.5642 5.48043 21.3623 5.29289C21.1605 5.10536 20.8867 5 20.6012 5ZM13.788 14H3.91802C3.48983 14 3.07918 13.842 2.7764 13.5607C2.47362 13.2794 2.30352 12.8978 2.30352 12.5C2.30352 12.1022 2.47362 11.7206 2.7764 11.4393C3.07918 11.158 3.48983 11 3.91802 11C4.20349 11 4.47726 10.8946 4.67911 10.7071C4.88096 10.5196 4.99436 10.2652 4.99436 10C4.99898 9.05569 5.36303 8.14336 6.02209 7.42447C6.68114 6.70558 7.5927 6.22651 8.59541 6.07204C9.59812 5.91757 10.6273 6.09767 11.5008 6.58047C12.3743 7.06326 13.0358 7.81761 13.3683 8.71C13.4298 8.88184 13.5404 9.03493 13.6882 9.15293C13.8361 9.27093 14.0157 9.34942 14.2078 9.38C14.8187 9.48612 15.3655 9.79923 15.742 10.2586C16.1186 10.718 16.2982 11.2909 16.2459 11.8663C16.1936 12.4417 15.9132 12.9785 15.4591 13.3728C15.005 13.767 14.4095 13.9905 13.788 14ZM17.017 7.65C16.8273 7.81586 16.609 7.95106 16.3712 8.05C16.0133 7.83346 15.626 7.66197 15.2196 7.54C14.725 6.53676 13.9478 5.67641 12.97 5.05C13.0876 4.79349 13.2555 4.55951 13.4651 4.36C13.9467 3.94532 14.5791 3.71493 15.2357 3.71493C15.8923 3.71493 16.5247 3.94532 17.0063 4.36C17.4679 4.80219 17.726 5.394 17.726 6.01C17.726 6.626 17.4679 7.2178 17.0063 7.66L17.017 7.65Z" fill="#2E2E2E"/>
</svg>
