<svg width="147" height="139" viewBox="0 0 147 139" fill="none" xmlns="http://www.w3.org/2000/svg">
<g filter="url(#filter0_dd_7_8281)">
<rect x="32.5742" y="10.5195" width="44.9864" height="44.9864" rx="6.42663" fill="white"/>
</g>
<g filter="url(#filter1_dd_7_8281)">
<rect x="67.1172" y="43.7842" width="51.4131" height="51.4131" rx="6.42663" fill="white"/>
</g>
<path d="M101.148 63.0127C101.148 63.0127 101.763 62.5075 101.912 62.4711C102.061 62.4347 102.181 62.4048 102.181 62.5131C102.181 62.6214 101.923 63.0247 101.957 63.1749C101.992 63.3256 101.148 63.0127 101.148 63.0127Z" fill="#B2B2B2"/>
<path d="M114.078 72.1422C114.078 72.1422 113.958 72.487 113.979 72.5801C114 72.6732 114.23 72.8156 114.23 72.9741C114.23 73.1327 113.979 73.6309 113.723 73.6636C113.723 73.6636 113.64 74.1015 113.358 74.1015C113.076 74.1015 111.223 74.1619 111.223 74.1619C111.223 74.1619 113.228 71.8579 114.078 72.1422Z" fill="#333439"/>
<path d="M82.957 66.8131C82.957 66.8131 83.9393 65.9005 84.8986 65.4327C85.8584 64.9649 89.1661 63.0752 90.4117 62.8618C91.6573 62.6484 91.3376 63.8887 91.3376 63.9237C91.3376 63.9588 83.2472 68.7669 82.957 66.8131Z" fill="#4A4E59"/>
<path d="M111.332 67.1926H113.199L113.344 67.2866C113.344 67.2866 113.992 67.7927 113.49 68.9394C112.987 70.0861 110.503 68.8367 111.332 67.1926Z" fill="#F2F6FF"/>
<path d="M102.42 63.3961L103.291 63.3611C103.291 63.3611 107.517 64.4138 110.176 65.8642C112.835 67.3151 108.58 66.6947 108.58 66.6947C108.58 66.6947 102.041 64.1796 102.42 63.3961Z" fill="#F2F6FF"/>
<path d="M82.5664 66.3948C82.5664 66.3948 83.1371 66.2113 83.349 66.3948C83.561 66.5782 83.4941 66.8124 83.4941 66.8124L82.5664 66.3948Z" fill="#4A4E59"/>
<path d="M74.9592 74.781C74.9592 74.781 71.1323 74.5205 71.0769 73.76C71.0769 73.76 71.0536 73.5968 71.2656 73.4913C71.2656 73.4913 71.131 71.0351 71.4546 70.2747C71.7782 69.5142 71.7558 68.5786 73.4072 67.9352C75.0586 67.2917 79.0091 66.5313 82.6584 66.3912C82.6584 66.3912 83.5399 66.7069 84.0086 66.6953C84.0086 66.6953 89.2535 63.3732 90.5369 63.2912C90.5369 63.2912 90.1799 63.034 90.2692 62.9169C90.3584 62.7998 93.4049 62.25 97.2551 62.5076C101.105 62.7648 103.292 63.3617 103.292 63.3617C103.292 63.3617 102.723 63.6544 102.801 63.7009C102.879 63.7475 108.738 65.7832 108.738 65.7832C108.738 65.7832 109.597 65.9704 110.066 65.7597C110.066 65.7597 111.104 66.0524 111.394 66.0754C111.684 66.0989 113.157 66.0404 113.179 66.2275C113.202 66.4147 113.157 66.7539 113.235 66.8239C113.313 66.894 113.715 67.5494 113.592 67.7715L113.347 67.2802C113.347 67.2802 111.294 67.3858 111.26 67.6545C111.227 67.9236 111.439 68.6256 111.55 68.7542C111.662 68.8828 113.559 68.8012 113.559 68.8012C113.559 68.8012 113.693 69.7488 113.872 69.8774C114.05 70.006 114.586 70.1115 114.575 70.4507C114.564 70.79 114.608 72.1938 114.073 72.2874C114.073 72.2874 113.448 72.2054 113.035 72.7202C112.622 73.235 112.154 73.96 111.305 74.1706C110.457 74.3813 108.962 74.4863 108.962 74.4863C108.962 74.4863 109.341 69.4077 105.324 69.2906C101.307 69.1736 101.474 74.4476 101.474 74.4476H82.2148C82.2148 74.4476 83.1288 69.6707 78.587 69.4835C73.9285 69.6278 74.9592 74.781 74.9592 74.781Z" fill="#4A4E59"/>
<path d="M100.449 63.6536C98.9796 63.284 94.1594 62.8526 91.852 63.3609C89.545 63.8693 87.1787 64.7782 84.9746 66.7038L85.4024 66.6946C85.9204 66.2549 87.231 65.2511 89.2658 64.4238C91.9553 63.33 93.7334 63.2374 95.8346 63.3609C97.9362 63.4844 99.964 63.5457 101.287 64.2237C102.609 64.9017 104.064 65.9185 103.961 66.0263C103.871 66.1208 97.9661 66.3936 96.5293 66.4591L103.829 66.3042C103.829 66.3042 104.284 66.2881 104.284 66.0881C104.284 65.888 101.918 64.0232 100.449 63.6536Z" fill="white"/>
<path d="M101.285 64.2254C99.962 63.5474 97.9338 63.4861 95.8326 63.3626C93.7309 63.2395 91.9529 63.3317 89.2638 64.4254C87.2294 65.2532 85.9183 66.2565 85.4004 66.6962L96.5277 66.4603C97.9645 66.3953 103.869 66.1224 103.96 66.0275C104.062 65.9196 102.607 64.9029 101.285 64.2254Z" fill="#F2F6FF"/>
<path d="M87.6054 66.3042C87.6054 66.3042 90.2655 64.409 92.3372 64.0393C94.409 63.6697 96.8193 63.8697 96.8193 63.8697C96.8193 63.8697 96.3343 66.3807 96.1285 66.4885C95.9228 66.5964 87.168 66.6577 87.168 66.6577L87.6054 66.3042Z" fill="#F2F6FF"/>
<path d="M98.1114 63.9613L97.8027 66.2257L102.491 66.0561C102.491 66.0561 102.976 66.0713 102.976 65.8865C102.976 65.7021 100.815 63.8073 98.1114 63.9613Z" fill="#F2F6FF"/>
<path d="M88.4063 66.0567C88.4187 65.9769 88.4165 65.8894 88.3931 65.7949C88.281 65.3381 88.0155 64.8901 87.3806 65.1206C86.7457 65.351 86.6543 65.7124 86.5716 66.0645C86.5716 66.0645 86.2274 65.9645 86.1984 66.1253C86.1808 66.2221 86.2414 66.3572 86.3298 66.4572C86.9827 66.5669 87.8726 66.2719 88.4063 66.0567Z" fill="#F2F6FF"/>
<path d="M86.3301 66.4572C86.389 66.5235 86.4607 66.5742 86.5306 66.5867C86.7047 66.6171 87.016 66.6825 87.1281 66.63C87.2402 66.5775 87.7837 66.6461 87.9578 66.5968C88.0958 66.5576 88.3592 66.3636 88.4067 66.0571C87.8725 66.2719 86.9826 66.5669 86.3301 66.4572Z" fill="#F2F6FF"/>
<path d="M72.4522 68.8151C72.4522 68.8151 71.9708 68.9815 71.7461 69.7332C71.5219 70.4849 71.7953 70.307 71.8996 70.2725C72.0033 70.2379 73.503 70.0775 73.733 70.0485C73.9629 70.0199 73.9357 69.8134 74.0012 69.7042C74.0667 69.595 74.691 68.8608 74.5213 68.6713C74.3516 68.4824 72.7314 68.6773 72.4522 68.8151Z" fill="#ECECEC"/>
<path d="M71.4007 71.833C71.4007 71.833 71.4227 72.9631 71.5154 73.1295C71.6086 73.2959 71.8381 73.4622 72.1886 73.5083C72.539 73.5544 73.2011 73.6116 73.2557 73.1355C73.3106 72.6594 73.4034 71.7643 73.4034 71.7643C73.4034 71.7643 71.3734 71.7298 71.4007 71.833Z" fill="#F2F6FF"/>
<path d="M82.2075 73.6384L82.207 73.5863C82.2382 73.5858 83.1497 73.5761 84.445 73.5623C84.1293 73.0581 84.1601 71.975 84.1614 71.928C84.1605 71.898 84.0765 68.745 84.2801 67.8449C84.4859 66.9369 85.1823 66.5535 85.1893 66.5498C85.2096 66.5369 87.3802 65.1491 88.0019 64.7942C89.4823 63.9489 90.9139 63.4221 92.032 63.3101C93.6456 63.1488 97.1098 63.218 97.1445 63.2189C97.2742 63.2318 100.287 63.5341 100.869 63.7913C101.449 64.0476 103.473 65.3431 103.493 65.3565C103.522 65.3722 104.259 65.7635 104.3 66.0409C104.308 66.0921 104.293 66.1368 104.257 66.1737C104.08 66.3539 103.565 66.347 102.913 66.3382C102.635 66.3345 102.349 66.3308 102.062 66.3414C101.162 66.3751 97.064 66.4756 96.7136 66.4843C96.7132 66.5493 96.7233 66.7383 96.8394 66.9042C96.8596 66.9332 96.8816 66.9627 96.904 66.9932C97.0478 67.1872 97.2267 67.4287 97.1933 67.7887C97.1867 67.8619 97.1792 68.0039 97.1687 68.2007C97.1225 69.0769 97.0262 70.8993 96.7246 71.6395C96.3456 72.5691 96.135 72.9207 95.636 73.1729C95.1308 73.4277 94.2176 73.5476 93.577 73.5342C92.9628 73.5208 82.3152 73.637 82.2075 73.6384ZM95.4144 63.2557C94.2998 63.2557 92.9017 63.276 92.0373 63.3622C90.9253 63.4733 89.5008 63.9983 88.0261 64.8403C87.4053 65.1947 85.2359 66.5816 85.214 66.5954C85.2056 66.6 84.5289 66.9733 84.3289 67.8569C84.1266 68.7501 84.2106 71.8962 84.2115 71.928C84.2111 71.9413 84.179 73.0857 84.5052 73.5614C87.7003 73.5277 93.1439 73.4724 93.5787 73.4817C94.2132 73.495 95.1167 73.377 95.6153 73.1254C96.1003 72.8806 96.3065 72.5345 96.6798 71.6182C96.9779 70.8868 97.0737 69.0704 97.1199 68.1975C97.1304 68.0002 97.1379 67.8578 97.1445 67.7836C97.1757 67.4444 97.0108 67.2218 96.8653 67.025C96.8424 66.9941 96.8205 66.9641 96.7998 66.9351C96.6459 66.7157 96.6644 66.4673 96.6653 66.4567L96.667 66.4336L96.6894 66.4332C96.7338 66.4318 101.125 66.3244 102.061 66.2898C102.348 66.2792 102.636 66.2829 102.913 66.2866C103.529 66.2949 104.061 66.3018 104.222 66.1368C104.247 66.1119 104.256 66.0829 104.251 66.0492C104.221 65.8409 103.676 65.5118 103.469 65.4026C103.447 65.3883 101.427 64.0946 100.851 63.8402C100.275 63.5862 97.1735 63.2751 97.1423 63.2719C97.1269 63.271 96.376 63.2557 95.4144 63.2557Z" fill="#B2B2B2"/>
<path d="M108.405 73.3437C108.405 75.1102 106.973 76.5421 105.206 76.5421C103.44 76.5421 102.008 75.1102 102.008 73.3437C102.008 71.5772 103.44 70.1453 105.206 70.1453C106.973 70.1453 108.405 71.5772 108.405 73.3437Z" fill="#27262C"/>
<path d="M102.967 73.3446C102.967 74.5813 103.969 75.5835 105.206 75.5835C106.442 75.5835 107.445 74.5813 107.445 73.3446C107.445 72.1079 106.442 71.1057 105.206 71.1057C103.969 71.1057 102.967 72.1079 102.967 73.3446Z" fill="#F2F6FF"/>
<path d="M81.8051 73.3437C81.8051 75.1102 80.3732 76.5421 78.6066 76.5421C76.8401 76.5421 75.4082 75.1102 75.4082 73.3437C75.4082 71.5772 76.8401 70.1453 78.6066 70.1453C80.3732 70.1453 81.8051 71.5772 81.8051 73.3437Z" fill="#27262C"/>
<path d="M76.3672 73.3446C76.3672 74.5813 77.3697 75.5835 78.6063 75.5835C79.8429 75.5835 80.845 74.5813 80.845 73.3446C80.845 72.1079 79.8429 71.1057 78.6063 71.1057C77.3697 71.1057 76.3672 72.1079 76.3672 73.3446Z" fill="#F2F6FF"/>
<path d="M55.7656 26.8803C55.7656 26.8803 70.3287 26.4489 70.9124 26.826C71.496 27.2031 70.2309 27.2603 70.7154 28.5683L55.7656 26.8803Z" fill="#EBEBEB"/>
<path d="M39.3622 33.8463L39.1895 33.3666C39.1895 33.3666 40.1541 31.682 41.9264 31.8713C43.6987 32.0608 39.3622 33.8463 39.3622 33.8463Z" fill="#494E54"/>
<path d="M68.5781 27.3691L70.5804 31.5307H71.5047C71.2807 30.4995 70.6043 28.8135 68.5781 27.3691Z" fill="#F2F6FF"/>
<path d="M70.5801 31.5306L71.0203 32.4452L71.3844 32.5009C71.3844 32.5009 71.5391 32.5038 71.5636 32.4818C71.6008 32.4483 71.6321 32.1155 71.5047 31.5303H70.5801V31.5306Z" fill="#F2F6FF"/>
<path d="M44.5625 31.1086L44.7406 30.8062C44.7406 30.8062 50.6445 27.1334 53.0441 27.2006C55.444 27.2681 45.2042 32.262 44.5625 31.1086Z" fill="#494E54"/>
<path d="M71.633 35.0001C71.633 35.0001 71.5775 34.766 71.6122 34.203C70.7811 34.203 69.4422 34.203 69.179 34.203C68.7921 34.203 68.3223 33.9163 68.3223 33.6598C68.3223 33.4033 68.4686 33.4425 68.4686 33.4425H71.4552V32.4816L71.3067 32.4647C71.3067 32.4647 71.3292 31.8881 71.1043 30.896C70.8795 29.9039 70.6529 28.6542 70.0952 27.8825C69.5375 27.1109 68.4147 27.1821 66.9485 26.9785C65.4822 26.775 59.1609 26.8247 59.1609 26.8247C59.1609 26.8247 55.3171 26.8004 53.527 27.0463C51.7369 27.2922 49.8928 28.2248 49.2452 28.5556C48.5976 28.8864 46.0373 30.7138 46.0373 30.7138C45.906 30.7913 44.9338 30.7138 44.9338 30.7138C43.6989 30.795 41.0651 31.9318 41.0651 31.9318C41.1431 31.9241 41.5323 32.0053 41.5323 32.0053C41.844 32.1871 41.3429 32.4965 41.1665 32.624C40.9901 32.7515 40.0866 33.2427 39.7789 33.3393C39.4712 33.4359 39.1899 33.3665 39.1899 33.3665C39.0792 33.4903 38.9064 34.0701 38.9064 34.0701C38.9064 34.0701 38.659 34.1833 38.5234 34.4051L41.7984 34.3654C41.7984 34.3654 42.1041 34.3477 42.0728 34.4829C42.0416 34.6181 41.8234 35.0238 41.4117 35.0533C41.0625 35.0782 39.111 35.0862 38.5268 35.0882C38.6069 35.2543 38.7111 35.3555 38.7111 35.3555V36.3573C38.5671 36.508 38.5961 36.707 38.5961 36.707C38.7658 37.6659 42.0328 37.1281 42.0328 37.1281C41.7473 35.2883 42.3273 33.592 44.8461 33.592C47.122 33.592 47.5986 35.634 47.6693 36.2844L63.5422 36.2175C63.6927 35.256 64.2786 33.6861 66.4984 33.6684C69.7009 33.6429 69.2634 36.5449 69.2634 36.5449C69.2634 36.5449 70.7938 36.4834 71.3518 36.2038C71.9095 35.9244 71.633 35.0001 71.633 35.0001Z" fill="#494E54"/>
<path d="M42.0733 34.484C42.1046 34.3488 41.7988 34.3665 41.7988 34.3665L38.5239 34.4062C38.4771 34.4828 38.4436 34.572 38.4385 34.6741C38.4303 34.8348 38.4732 34.9769 38.527 35.0892C39.1112 35.0872 41.0627 35.0792 41.4119 35.0544C41.8236 35.0249 42.042 34.6192 42.0733 34.484Z" fill="#494E54"/>
<path d="M47.6806 36.4418C47.6806 36.7895 47.8784 37.2981 47.8784 37.2981L63.4946 36.9504C63.4946 36.9504 63.4788 36.6874 63.5293 36.3103L47.6777 36.3772C47.6797 36.4026 47.6806 36.4252 47.6806 36.4418Z" fill="#EBEBEB"/>
<path d="M47.6778 36.3775L63.5294 36.3106C63.5336 36.2806 63.5381 36.2497 63.5429 36.2183L47.6699 36.2852C47.6736 36.3206 47.6761 36.3509 47.6778 36.3775Z" fill="#808080"/>
<path d="M54.8767 32.2208C54.8767 32.3681 54.5041 32.3838 54.0448 32.3838C53.5854 32.3838 53.2129 32.3924 53.2129 32.2208C53.2129 32.0579 53.5854 32.0579 54.0448 32.0579C54.5041 32.0579 54.8767 32.0739 54.8767 32.2208Z" fill="#494E54"/>
<path d="M63.5857 32.2206C63.5857 32.3678 63.2131 32.3835 62.7538 32.3835C62.2944 32.3835 61.9219 32.3921 61.9219 32.2206C61.9219 32.0576 62.2944 32.0576 62.7538 32.0576C63.2131 32.0576 63.5857 32.0736 63.5857 32.2206Z" fill="#494E54"/>
<path d="M68.2598 33.6457C68.2598 33.9018 68.7929 34.2366 69.1799 34.2366C69.4428 34.2366 70.782 34.2366 71.613 34.2366C71.6144 34.1689 71.6161 34.1866 71.6178 34.1603C71.6629 33.5413 71.4558 33.4227 71.4558 33.4227H68.4691C68.4691 33.4227 68.2598 33.3895 68.2598 33.6457Z" fill="#F2F6FF"/>
<path d="M46.0039 31.5312L55.6077 31.0117L68.1536 30.5308C68.1536 30.5308 69.4026 30.5474 69.4908 30.1826C69.5787 29.8178 68.9571 28.3088 68.5817 27.9439C68.2066 27.5791 68.2768 27.546 68.0482 27.4796C67.8197 27.4133 63.4212 27.1314 61.5917 27.1148C59.7619 27.0982 54.1147 26.9987 52.3906 27.5625C50.6659 28.1261 47.6223 29.6957 46.0039 31.5312Z" fill="#494E54"/>
<path d="M46.5098 31.2799C46.5098 31.2799 48.9342 29.2543 49.6942 28.9976L49.4505 31.1069L46.5098 31.2799Z" fill="#F2F6FF"/>
<path d="M49.9742 28.7748L49.7949 31.0666L54.916 30.7962L55.4469 27.3145C55.4469 27.3147 52.0398 27.3013 49.9742 28.7748Z" fill="#F2F6FF"/>
<path d="M56.773 27.3141L56.5938 30.7284L62.7476 30.5322L62.2097 27.2532C62.2097 27.2532 58.0352 27.1383 56.773 27.3141Z" fill="#F2F6FF"/>
<path d="M63.498 27.2925L64.0104 30.3348H68.4154C68.4154 30.3348 68.9522 30.2942 69.103 30.1186C69.2535 29.9428 69.2033 29.5145 69.0455 29.224C68.8877 28.9333 68.3711 27.6839 67.9552 27.6161C67.5392 27.5484 63.498 27.2925 63.498 27.2925Z" fill="#F2F6FF"/>
<path d="M55.6298 31.0145C55.6253 31.1031 55.3899 35.6984 55.4722 36.2496L55.4223 36.2562C55.3392 35.6978 55.5697 31.2023 55.5796 31.011L55.5799 31.009" fill="#B2B2B2"/>
<path d="M63.5658 30.6992C63.6117 30.761 64.0643 31.3874 64.04 32.0515C64.0158 32.72 63.7193 35.3586 63.0506 36.2331L63.0098 36.2054C63.6717 35.3397 63.9656 32.7154 63.9896 32.0501C64.0144 31.3705 63.526 30.729 63.5212 30.7227L63.5176 30.7178L63.5167 30.7121" fill="#B2B2B2"/>
<path d="M41.6265 32.2186L41.6172 32.1717C41.6482 32.1662 44.7343 31.6156 45.9991 31.5078L46.0036 31.5553C44.7413 31.6628 41.6575 32.2129 41.6265 32.2186Z" fill="#B2B2B2"/>
<path d="M69.0218 36.7956C69.0218 38.2086 67.8761 39.3543 66.4631 39.3543C65.05 39.3543 63.9043 38.2089 63.9043 36.7956C63.9043 35.3822 65.0497 34.2368 66.4631 34.2368C67.8761 34.2368 69.0218 35.3822 69.0218 36.7956Z" fill="#494E54"/>
<path d="M64.8633 36.7961C64.8633 37.6795 65.5793 38.3955 66.4626 38.3955C67.346 38.3955 68.0617 37.6795 68.0617 36.7961C68.0617 35.9128 67.3457 35.1968 66.4626 35.1968C65.5793 35.1968 64.8633 35.9128 64.8633 36.7961Z" fill="#F2F6FF"/>
<path d="M47.3988 36.7101C47.3988 38.1232 46.2531 39.2689 44.84 39.2689C43.4269 39.2689 42.2812 38.1235 42.2812 36.7101C42.2812 35.2968 43.4266 34.1514 44.84 34.1514C46.2531 34.1514 47.3988 35.2968 47.3988 36.7101Z" fill="#494E54"/>
<path d="M43.2422 36.7102C43.2422 37.5935 43.9582 38.3095 44.8415 38.3095C45.7249 38.3095 46.4406 37.5935 46.4406 36.7102C46.4406 35.8269 45.7246 35.1108 44.8415 35.1108C43.9582 35.1108 43.2422 35.8269 43.2422 36.7102Z" fill="#F2F6FF"/>
<path d="M39.1193 35.4928C39.1193 35.4928 39.1334 36.1939 39.1929 36.2971C39.2526 36.4003 39.3997 36.5035 39.6243 36.5321C39.8489 36.5607 40.2733 36.5961 40.3083 36.3008C40.3435 36.0055 40.403 35.4502 40.403 35.4502C40.403 35.4502 39.1018 35.4288 39.1193 35.4928Z" fill="#27262C"/>
<path d="M62.1108 34.8398C62.113 34.957 59.3333 35.0071 55.9042 35.0728C52.4751 35.1386 49.6953 35.1957 49.6934 35.0785C49.6911 34.9613 52.4805 34.8544 55.9095 34.7886C59.3383 34.7226 62.1085 34.7226 62.1108 34.8398Z" fill="#494E54"/>
<g filter="url(#filter2_dd_7_8281)">
<rect x="19.7812" y="70.6506" width="38.5598" height="38.5598" rx="6.42663" fill="white"/>
</g>
<rect x="118.412" y="92.1768" width="2.38063" height="7.14188" transform="rotate(-51.6559 118.412 92.1768)" fill="#58AEFF"/>
<rect x="122.537" y="98.4749" width="7.14188" height="23.8063" rx="1.19031" transform="rotate(-51.6559 122.537 98.4749)" fill="#1F8AEF"/>
<path d="M123.471 99.2133C122.955 98.8055 122.868 98.0569 123.276 97.5413L126.229 93.807C126.637 93.2915 127.386 93.2041 127.901 93.6119L130.702 95.8273L126.271 101.429L123.471 99.2133Z" fill="#6AAEFF"/>
<circle cx="104.382" cy="78.7649" r="19.4532" transform="rotate(-6.6559 104.382 78.7649)" fill="white" fill-opacity="0.4" stroke="#499CFF" stroke-width="3.53695"/>
<mask id="path-54-inside-1_7_8281" fill="white">
<path fill-rule="evenodd" clip-rule="evenodd" d="M93.2703 68.6417C90.4444 71.746 88.9267 76.0108 89.4515 80.5079C90.2803 87.6098 95.9323 92.975 102.753 93.7124C96.9621 90.9131 92.6824 85.3043 91.8818 78.4429C91.4783 74.9858 92.0076 71.6348 93.2703 68.6417Z"/>
</mask>
<path fill-rule="evenodd" clip-rule="evenodd" d="M93.2703 68.6417C90.4444 71.746 88.9267 76.0108 89.4515 80.5079C90.2803 87.6098 95.9323 92.975 102.753 93.7124C96.9621 90.9131 92.6824 85.3043 91.8818 78.4429C91.4783 74.9858 92.0076 71.6348 93.2703 68.6417Z" fill="#D0E2FF"/>
<path d="M93.2703 68.6417L95.7145 69.6728L91.3087 66.8559L93.2703 68.6417ZM102.753 93.7124L102.467 96.3497L103.907 91.3241L102.753 93.7124ZM92.0864 80.2005C91.6542 76.4974 92.9007 72.9884 95.232 70.4274L91.3087 66.8559C87.9881 70.5037 86.1992 75.5242 86.8167 80.8154L92.0864 80.2005ZM103.038 91.075C97.4214 90.4678 92.7685 86.0457 92.0864 80.2005L86.8167 80.8154C87.7921 89.1739 94.4431 95.4822 102.467 96.3497L103.038 91.075ZM103.907 91.3241C98.899 88.903 95.2078 84.0584 94.5166 78.1354L89.2469 78.7503C90.1571 86.5503 95.0252 92.9232 101.598 96.1007L103.907 91.3241ZM94.5166 78.1354C94.1677 75.1453 94.6251 72.2548 95.7145 69.6728L90.8262 67.6105C89.39 71.0148 88.789 74.8263 89.2469 78.7503L94.5166 78.1354Z" fill="#499CFF" mask="url(#path-54-inside-1_7_8281)"/>
<path d="M7.50644 70.7482C7.68638 72.0916 8.20365 73.3675 9.01 74.4569C9.81634 75.5463 10.8855 76.4138 12.1177 76.9783C13.3499 77.5429 14.705 77.7861 16.0566 77.6853C17.4083 77.5846 18.7124 77.1431 19.8472 76.4021L22.9393 77.4533C23.0325 77.484 23.1327 77.4874 23.2278 77.463C23.3229 77.4387 23.4091 77.3876 23.4761 77.3158C23.5431 77.244 23.5882 77.1545 23.6059 77.0579C23.6237 76.9613 23.6134 76.8617 23.5763 76.7707L22.3363 73.8129C22.9958 72.7143 23.3825 71.4736 23.4641 70.1948C23.5457 68.916 23.3198 67.6363 22.8053 66.4628C22.2907 65.2892 21.5026 64.256 20.5068 63.4495C19.511 62.6431 18.3365 62.087 17.0816 61.8276C15.8267 61.5683 14.528 61.6133 13.2941 61.959C12.0602 62.3046 10.927 62.9408 9.98944 63.8143C9.05188 64.6877 8.33719 65.7731 7.9052 66.9795C7.4732 68.1858 7.33647 69.4781 7.50644 70.7482V70.7482Z" fill="#FDCF33"/>
<path d="M15.248 73.7896C16.1192 73.7896 16.7397 73.1929 16.7397 72.3575C16.7397 71.5222 16.1192 70.9255 15.248 70.9255C14.3888 70.9255 13.7563 71.5222 13.7563 72.3575C13.7563 73.1929 14.3888 73.7896 15.248 73.7896ZM16.4414 70.6868C16.4414 69.8992 16.8949 69.6128 17.5154 69.3264C18.3388 68.9445 18.9474 68.1689 18.9474 67.2142C18.9474 65.7106 17.4677 64.6604 15.4628 64.6604C13.3148 64.6604 11.7992 65.8657 11.668 67.5483L14.4127 68.0495C14.4843 67.3932 14.8304 66.9278 15.3196 66.9278C15.6896 66.9278 15.964 67.1784 15.964 67.5245C15.964 67.9302 15.5583 68.1808 15.2361 68.3717C14.3769 68.9326 14.0547 69.5532 14.0547 70.6868H16.4414Z" fill="white"/>
<path d="M37.335 85.0811C37.335 85.0811 35.7224 85.5322 32.3247 87.8898L32.1523 88.8188L35.4107 88.4958C35.4107 88.4958 37.8261 85.8904 37.8261 85.85C37.8261 85.8094 37.335 85.0811 37.335 85.0811Z" fill="#494E54"/>
<path d="M31.4932 87.9916L31.9776 87.8906C31.9776 87.8906 32.2496 87.5808 32.3758 87.6079C32.5018 87.6347 32.6545 87.655 32.5816 87.7357C32.5085 87.8163 32.4356 88.2003 32.1834 88.3146C31.9312 88.4291 31.3275 88.3349 31.4932 87.9916Z" fill="#494E54"/>
<path d="M54.5013 90.4071C54.5544 90.1176 54.1428 89.9763 54.1428 89.9763C54.1428 89.9763 54.1892 89.7946 54.1428 89.5184C54.0964 89.2425 53.9834 88.3738 53.8575 88.1314C53.7315 87.8891 53.6367 87.8617 53.6367 87.8617L53.6119 88.0104C53.3638 87.8827 52.3606 87.741 52.1679 87.7074C51.9755 87.6739 51.7137 87.4719 51.1167 86.8323C50.5193 86.1927 50.2671 85.4857 50.2671 85.4857L50.6653 85.1759C50.7515 84.9875 49.7032 84.92 49.7032 84.92C49.3383 84.8797 44.7197 84.4825 42.0186 84.4621C39.3179 84.4418 37.2208 85.0882 37.1079 85.1624C36.995 85.2363 37.0615 85.4586 37.0615 85.4586C36.4909 85.5596 32.8674 88.0911 32.6419 88.1515C32.4164 88.2121 31.8391 88.2389 31.6066 88.1379C31.3744 88.0369 31.8852 87.9091 31.8852 87.9091C31.8852 87.9091 30.6043 87.8956 27.3794 88.6832C24.1542 89.4709 23.8091 90.3193 23.7627 90.501C23.7162 90.6826 23.6497 90.9656 23.6497 90.9656C23.6033 91.208 23.63 91.9957 23.6176 92.0831C23.6052 92.1706 23.6233 92.238 23.6233 92.238C23.6195 92.2703 23.6179 92.3013 23.6179 92.3316C23.7178 92.3413 23.8555 92.3526 23.9576 92.3526C24.137 92.3526 24.5852 92.4306 24.5636 92.6859C24.5423 92.9415 24.6447 93.1967 24.2817 93.2706C23.9656 93.3348 23.805 93.3497 23.6984 93.229C23.6879 93.2429 23.6784 93.2577 23.6704 93.2745C23.6173 93.389 23.7709 93.4462 23.7709 93.4462C24.2884 93.8069 26.8852 94.1206 26.8852 94.1206C26.5706 93.2629 26.5626 90.3803 29.3562 90.3599C32.1498 90.3396 32.1966 94.2042 32.1966 94.2042L45.9197 94.1206C45.7537 93.6062 45.4153 90.4948 48.541 90.5013C51.6666 90.5081 51.4303 93.9583 51.4303 93.9583H51.4675C51.826 93.9583 52.5359 93.7411 52.7748 93.7008C53.0136 93.6604 53.7967 93.2212 54.0754 93.0596C54.354 92.8979 54.2812 91.9689 54.2812 91.8479C54.2812 91.7265 54.1418 91.3025 54.1682 91.1344C54.1959 90.966 54.4481 90.6965 54.5013 90.4071Z" fill="#494E54"/>
<path d="M24.283 93.2711C24.6459 93.1975 24.5435 92.9419 24.5648 92.6863C24.5861 92.4308 24.1379 92.353 23.9589 92.353C23.8567 92.353 23.719 92.3417 23.6191 92.332C23.6182 92.6702 23.8316 92.8945 23.844 93.0058C23.8555 93.1094 23.7607 93.1488 23.6999 93.2294C23.8062 93.3498 23.9665 93.3353 24.283 93.2711Z" fill="#F2F6FF"/>
<path d="M50.5609 85.1106C50.5609 85.1106 50.6729 85.1706 50.844 85.2777C51.0151 85.3846 53.346 87.2752 53.7082 87.9832C54.0705 88.6912 52.9446 88.2636 52.9446 88.2636L49.7578 86.3197C49.7578 86.3194 49.8564 85.331 50.5609 85.1106Z" fill="#494E54"/>
<path d="M33.1504 88.5816C33.1504 88.5816 35.4338 86.4267 37.1772 85.7442C38.9205 85.0617 40.2748 84.9997 43.3722 85.0801C46.4699 85.1604 47.7972 85.4747 48.3548 85.9417C48.9123 86.4086 49.1779 86.6994 49.1423 86.9491C49.107 87.1989 48.8856 87.8004 48.6467 87.8362C48.4079 87.872 42.2923 88.1863 42.1683 88.1953C42.0449 88.2047 33.1504 88.5816 33.1504 88.5816Z" fill="#F2F6FF"/>
<path d="M35.1612 87.217L35.0371 88.2944L41.8785 88.043L42.7281 85.2776C42.7281 85.2776 39.1084 85.1069 37.8781 85.6635C36.6481 86.2202 36.2057 86.3818 35.1612 87.217Z" fill="#F2F6FF"/>
<path d="M44.0024 85.4165L43.4824 87.3939C43.4824 87.3939 43.3902 87.6679 43.4824 87.7211C43.5746 87.7747 46.4124 87.6544 46.4124 87.6544C46.4124 87.6544 48.4404 87.6143 48.513 87.5475C48.5855 87.4807 48.9344 87.0674 48.7566 86.7731C48.5788 86.4788 48.0982 85.9512 47.1039 85.7372C46.1096 85.5233 44.2264 85.3765 44.0024 85.4165Z" fill="#F2F6FF"/>
<path d="M40.4916 93.4319C40.3746 93.4319 40.2957 93.428 40.2826 93.4274L32.9874 93.3567L32.981 93.3331C32.5341 91.6781 32.6413 89.8952 32.7603 89.1837C32.8678 88.5418 33.2024 88.5302 33.2167 88.5302C33.2342 88.5293 33.2485 88.5444 33.2488 88.5622C33.2492 88.5799 33.2352 88.5944 33.2177 88.5948C33.2053 88.5951 32.9209 88.6106 32.8229 89.1946C32.7053 89.8978 32.5993 91.6552 33.036 93.2928L40.2846 93.3632C40.2992 93.3638 41.6217 93.4277 41.8189 93.0056C42.0257 92.5629 42.789 89.3363 42.5922 88.0785L42.5912 88.0723L42.5925 88.0662L43.2642 85.0716C43.2681 85.0542 43.2852 85.0436 43.3024 85.0474C43.3196 85.0513 43.3304 85.0687 43.3263 85.0861L42.6561 88.0746C42.8511 89.3473 42.0845 92.5881 41.8765 93.0334C41.7105 93.3883 40.886 93.4319 40.4916 93.4319Z" fill="#494E54"/>
<path d="M23.8789 90.8578C23.8789 90.8578 23.9021 90.5225 24.2886 90.3034C24.6941 90.074 24.9117 90.0524 25.0526 90.1389C25.1935 90.2253 25.3897 90.4896 25.4024 90.6413C25.4152 90.7929 25.4622 91.1089 25.1251 91.1176C24.7879 91.1263 23.9342 91.2909 23.8789 90.8578Z" fill="#F2F6FF"/>
<path d="M51.2657 88.8425C51.2657 88.8425 51.6321 88.4043 52.3407 88.4105C53.0494 88.4166 53.7934 88.6009 53.7816 89.0842C53.7702 89.5676 52.7456 89.4166 52.7456 89.4166C52.7456 89.4166 51.0007 89.2685 51.2657 88.8425Z" fill="#F2F6FF"/>
<path d="M49.5982 90.7922C49.5836 90.7922 49.5702 90.7818 49.5671 90.7667C49.5636 90.7493 49.5744 90.7322 49.5916 90.7283L51.6466 90.2878C52.2764 90.2178 53.945 89.9861 54.1387 89.7534C54.1501 89.7399 54.1702 89.738 54.1835 89.7496C54.1969 89.7612 54.1985 89.7815 54.1873 89.7951C53.9376 90.0952 51.7497 90.3414 51.6568 90.3517L49.6049 90.7915C49.6024 90.7922 49.6005 90.7922 49.5982 90.7922Z" fill="#F2F6FF"/>
<path d="M34.5452 88.1681C34.5452 88.1681 34.3088 87.7834 34.8947 87.4639C35.4806 87.1445 35.4806 87.6337 35.4854 87.7386C35.4901 87.8434 35.5149 88.2229 35.3279 88.2578C35.1409 88.2926 34.5916 88.333 34.5452 88.1681Z" fill="#F2F6FF"/>
<path d="M31.3398 89.8331C31.3398 89.8331 31.3933 89.969 31.4826 90.0142C31.5717 90.0593 31.7145 90.0503 31.8929 90.0413C32.0714 90.0322 32.3834 90.0096 32.3344 89.8693C32.2851 89.7292 31.4601 89.7473 31.3398 89.8331Z" fill="#F2F6FF"/>
<path d="M50.8306 93.0981C50.8306 94.3692 49.815 95.3999 48.5618 95.3999C47.3089 95.3999 46.293 94.3695 46.293 93.0981C46.293 91.8271 47.3086 90.7964 48.5618 90.7964C49.815 90.7964 50.8306 91.8271 50.8306 93.0981Z" fill="#494E54"/>
<path d="M47.0898 93.0985C47.0898 93.9111 47.7483 94.5696 48.5611 94.5696C49.3732 94.5696 50.032 93.9111 50.032 93.0985C50.032 92.286 49.3735 91.6274 48.5611 91.6274C47.7486 91.6274 47.0898 92.286 47.0898 93.0985Z" fill="#ECECEC"/>
<path d="M31.5864 93.0981C31.5864 94.3692 30.5708 95.3999 29.3176 95.3999C28.0647 95.3999 27.0488 94.3695 27.0488 93.0981C27.0488 91.8271 28.0644 90.7964 29.3176 90.7964C30.5708 90.7964 31.5864 91.8271 31.5864 93.0981Z" fill="#494E54"/>
<path d="M30.7879 93.0973C30.7879 93.9097 30.1294 94.5684 29.3168 94.5684C28.5044 94.5684 27.8457 93.9099 27.8457 93.0973C27.8457 92.2849 28.5042 91.6262 29.3168 91.6262C30.1294 91.6262 30.7879 92.2849 30.7879 93.0973Z" fill="#ECECEC"/>
<defs>
<filter id="filter0_dd_7_8281" x="13.2943" y="0.879582" width="83.5461" height="83.5461" filterUnits="userSpaceOnUse" color-interpolation-filters="sRGB">
<feFlood flood-opacity="0" result="BackgroundImageFix"/>
<feColorMatrix in="SourceAlpha" type="matrix" values="0 0 0 0 0 0 0 0 0 0 0 0 0 0 0 0 0 0 127 0" result="hardAlpha"/>
<feOffset dy="9.63995"/>
<feGaussianBlur stdDeviation="9.63995"/>
<feComposite in2="hardAlpha" operator="out"/>
<feColorMatrix type="matrix" values="0 0 0 0 0.702778 0 0 0 0 0.730159 0 0 0 0 0.766667 0 0 0 0.25 0"/>
<feBlend mode="multiply" in2="BackgroundImageFix" result="effect1_dropShadow_7_8281"/>
<feColorMatrix in="SourceAlpha" type="matrix" values="0 0 0 0 0 0 0 0 0 0 0 0 0 0 0 0 0 0 127 0" result="hardAlpha"/>
<feOffset/>
<feGaussianBlur stdDeviation="1.60666"/>
<feComposite in2="hardAlpha" operator="out"/>
<feColorMatrix type="matrix" values="0 0 0 0 0.411765 0 0 0 0 0.423529 0 0 0 0 0.443137 0 0 0 0.15 0"/>
<feBlend mode="multiply" in2="effect1_dropShadow_7_8281" result="effect2_dropShadow_7_8281"/>
<feBlend mode="normal" in="SourceGraphic" in2="effect2_dropShadow_7_8281" result="shape"/>
</filter>
<filter id="filter1_dd_7_8281" x="60.6906" y="40.5709" width="64.2654" height="64.2664" filterUnits="userSpaceOnUse" color-interpolation-filters="sRGB">
<feFlood flood-opacity="0" result="BackgroundImageFix"/>
<feColorMatrix in="SourceAlpha" type="matrix" values="0 0 0 0 0 0 0 0 0 0 0 0 0 0 0 0 0 0 127 0" result="hardAlpha"/>
<feOffset dy="3.21332"/>
<feGaussianBlur stdDeviation="3.21332"/>
<feComposite in2="hardAlpha" operator="out"/>
<feColorMatrix type="matrix" values="0 0 0 0 0.701961 0 0 0 0 0.729412 0 0 0 0 0.764706 0 0 0 0.25 0"/>
<feBlend mode="multiply" in2="BackgroundImageFix" result="effect1_dropShadow_7_8281"/>
<feColorMatrix in="SourceAlpha" type="matrix" values="0 0 0 0 0 0 0 0 0 0 0 0 0 0 0 0 0 0 127 0" result="hardAlpha"/>
<feOffset/>
<feGaussianBlur stdDeviation="1.60666"/>
<feComposite in2="hardAlpha" operator="out"/>
<feColorMatrix type="matrix" values="0 0 0 0 0.411765 0 0 0 0 0.423529 0 0 0 0 0.443137 0 0 0 0.15 0"/>
<feBlend mode="multiply" in2="effect1_dropShadow_7_8281" result="effect2_dropShadow_7_8281"/>
<feBlend mode="normal" in="SourceGraphic" in2="effect2_dropShadow_7_8281" result="shape"/>
</filter>
<filter id="filter2_dd_7_8281" x="0.501352" y="61.0107" width="77.1203" height="77.1196" filterUnits="userSpaceOnUse" color-interpolation-filters="sRGB">
<feFlood flood-opacity="0" result="BackgroundImageFix"/>
<feColorMatrix in="SourceAlpha" type="matrix" values="0 0 0 0 0 0 0 0 0 0 0 0 0 0 0 0 0 0 127 0" result="hardAlpha"/>
<feOffset dy="9.63995"/>
<feGaussianBlur stdDeviation="9.63995"/>
<feComposite in2="hardAlpha" operator="out"/>
<feColorMatrix type="matrix" values="0 0 0 0 0.702778 0 0 0 0 0.730159 0 0 0 0 0.766667 0 0 0 0.25 0"/>
<feBlend mode="multiply" in2="BackgroundImageFix" result="effect1_dropShadow_7_8281"/>
<feColorMatrix in="SourceAlpha" type="matrix" values="0 0 0 0 0 0 0 0 0 0 0 0 0 0 0 0 0 0 127 0" result="hardAlpha"/>
<feOffset/>
<feGaussianBlur stdDeviation="1.60666"/>
<feComposite in2="hardAlpha" operator="out"/>
<feColorMatrix type="matrix" values="0 0 0 0 0.411765 0 0 0 0 0.423529 0 0 0 0 0.443137 0 0 0 0.15 0"/>
<feBlend mode="multiply" in2="effect1_dropShadow_7_8281" result="effect2_dropShadow_7_8281"/>
<feBlend mode="normal" in="SourceGraphic" in2="effect2_dropShadow_7_8281" result="shape"/>
</filter>
</defs>
</svg>
