<svg width="24" height="24" viewBox="0 0 24 24" fill="none" xmlns="http://www.w3.org/2000/svg">
<path d="M21.9987 9.66732H20.7987L18.833 4.75302C18.7835 4.62932 18.6981 4.52329 18.5878 4.4486C18.4774 4.37391 18.3473 4.33399 18.214 4.33398H5.78336C5.65013 4.33399 5.51996 4.37391 5.40963 4.4486C5.29931 4.52329 5.21389 4.62932 5.1644 4.75302L3.1987 9.66732H1.9987C1.82189 9.66732 1.65232 9.73755 1.52729 9.86258C1.40227 9.9876 1.33203 10.1572 1.33203 10.334V11.0007C1.33203 11.1775 1.40227 11.347 1.52729 11.4721C1.65232 11.5971 1.82189 11.6673 1.9987 11.6673H2.66536V16.334C2.66536 16.5108 2.7356 16.6804 2.86063 16.8054C2.98565 16.9304 3.15522 17.0006 3.33203 17.0006H20.6654C20.8422 17.0006 21.0117 16.9304 21.1368 16.8054C21.2618 16.6804 21.332 16.5108 21.332 16.334V11.6673H21.9987C22.1755 11.6673 22.3451 11.5971 22.4701 11.4721C22.5951 11.347 22.6654 11.1775 22.6654 11.0007V10.334C22.6654 10.1572 22.5951 9.9876 22.4701 9.86258C22.3451 9.73755 22.1755 9.66732 21.9987 9.66732ZM6.23477 5.66732H17.7626L19.332 9.66732H4.66536L6.23477 5.66732ZM7.33203 13.3525H4.03573V11.7044L7.33203 12.2538V13.3525ZM15.332 15.6673H8.66536V13.6673H15.332V15.6673ZM20.0357 13.3895H16.6654V12.2661L20.0357 11.7044V13.3895Z" fill="white"/>
<path d="M3.33203 18.9993C3.33203 19.1762 3.40227 19.3457 3.52729 19.4708C3.65232 19.5958 3.82189 19.666 3.9987 19.666H5.33203C5.50885 19.666 5.67842 19.5958 5.80344 19.4708C5.92846 19.3457 5.9987 19.1762 5.9987 18.9993V17.666H3.33203V18.9993Z" fill="white"/>
<path d="M18 18.9993C18 19.1762 18.0702 19.3457 18.1953 19.4708C18.3203 19.5958 18.4899 19.666 18.6667 19.666H20C20.1768 19.666 20.3464 19.5958 20.4714 19.4708C20.5964 19.3457 20.6667 19.1762 20.6667 18.9993V17.666H18V18.9993Z" fill="white"/>
</svg>
