<svg width="32" height="30" viewBox="0 0 32 30" fill="none" xmlns="http://www.w3.org/2000/svg">
<path d="M15.4665 0.92041L11.1998 2.62708C9.83451 7.74708 13.7598 11.0182 15.8932 12.0137C21.3545 9.96574 21.0132 4.90263 20.1598 2.62708L15.4665 0.92041Z" fill="#FDCF33"/>
<path d="M30.3999 27.4184H1.38654C1.16022 27.4184 0.94317 27.3285 0.783139 27.1684C0.623108 27.0084 0.533203 26.7913 0.533203 26.565V23.2976C0.535093 22.7058 0.72868 22.1305 1.08497 21.6579C1.44125 21.1853 1.94106 20.8409 2.50952 20.6762L7.52968 19.2426L11.967 15.5459C12.7933 14.8582 13.8343 14.4814 14.9093 14.481H22.1379C22.4961 14.4798 22.851 14.5497 23.1819 14.6869C23.5128 14.824 23.8132 15.0255 24.0656 15.2797L27.0104 18.2237H28.5294C29.2515 18.2255 29.9435 18.5133 30.454 19.0241C30.9645 19.5349 31.2519 20.2271 31.2532 20.9492V26.565C31.2532 26.7913 31.1633 27.0084 31.0033 27.1684C30.8432 27.3285 30.6262 27.4184 30.3999 27.4184ZM2.23987 25.7117H29.5465V20.9492C29.5465 20.6792 29.4393 20.4201 29.2484 20.2291C29.0575 20.038 28.7986 19.9306 28.5285 19.9304H26.6563C26.43 19.9303 26.213 19.8404 26.053 19.6803L22.8573 16.4855C22.7628 16.3907 22.6506 16.3156 22.527 16.2644C22.4033 16.2133 22.2708 16.1872 22.137 16.1876H14.9085C14.2328 16.1877 13.5785 16.4244 13.0593 16.8567L8.48371 20.6693C8.39212 20.7448 8.28615 20.8008 8.17224 20.834L2.97886 22.318C2.7664 22.3796 2.57959 22.5083 2.44637 22.6849C2.31316 22.8614 2.24071 23.0764 2.23987 23.2976V25.7117Z" fill="#3D82C3"/>
<path d="M24.3178 29.1254C25.7317 29.1254 26.8778 27.9792 26.8778 26.5654C26.8778 25.1515 25.7317 24.0054 24.3178 24.0054C22.904 24.0054 21.7578 25.1515 21.7578 26.5654C21.7578 27.9792 22.904 29.1254 24.3178 29.1254Z" fill="#FDCF33"/>
<path d="M24.3176 29.978C23.6425 29.978 22.9826 29.7778 22.4213 29.4028C21.86 29.0277 21.4225 28.4946 21.1641 27.8709C20.9058 27.2472 20.8382 26.5609 20.9699 25.8988C21.1016 25.2367 21.4267 24.6285 21.904 24.1511C22.3814 23.6737 22.9896 23.3487 23.6517 23.217C24.3138 23.0853 25.0002 23.1528 25.6239 23.4112C26.2476 23.6695 26.7807 24.107 27.1557 24.6684C27.5308 25.2297 27.731 25.8896 27.731 26.5647C27.731 27.47 27.3713 28.3382 26.7312 28.9783C26.0911 29.6184 25.2229 29.978 24.3176 29.978ZM24.3176 24.858C23.9801 24.858 23.6501 24.9581 23.3695 25.1457C23.0888 25.3332 22.8701 25.5997 22.7409 25.9116C22.6117 26.2234 22.5779 26.5666 22.6438 26.8977C22.7096 27.2287 22.8722 27.5328 23.1108 27.7715C23.3495 28.0102 23.6536 28.1727 23.9847 28.2386C24.3157 28.3044 24.6589 28.2706 24.9707 28.1415C25.2826 28.0123 25.5491 27.7935 25.7367 27.5129C25.9242 27.2322 26.0243 26.9022 26.0243 26.5647C26.0243 26.1121 25.8445 25.678 25.5244 25.3579C25.2044 25.0378 24.7703 24.858 24.3176 24.858Z" fill="#3D82C3"/>
<path d="M7.36078 29.1254C8.77463 29.1254 9.92078 27.9792 9.92078 26.5654C9.92078 25.1515 8.77463 24.0054 7.36078 24.0054C5.94693 24.0054 4.80078 25.1515 4.80078 26.5654C4.80078 27.9792 5.94693 29.1254 7.36078 29.1254Z" fill="#FDCF33"/>
<path d="M7.3606 29.978C6.68551 29.978 6.02557 29.7778 5.46425 29.4028C4.90293 29.0277 4.46544 28.4946 4.20709 27.8709C3.94874 27.2472 3.88115 26.5609 4.01285 25.8988C4.14456 25.2367 4.46965 24.6285 4.94701 24.1511C5.42437 23.6737 6.03257 23.3487 6.69469 23.217C7.35682 23.0853 8.04312 23.1528 8.66683 23.4112C9.29053 23.6695 9.82362 24.107 10.1987 24.6684C10.5737 25.2297 10.7739 25.8896 10.7739 26.5647C10.7739 27.47 10.4143 28.3382 9.77419 28.9783C9.13407 29.6184 8.26588 29.978 7.3606 29.978ZM7.3606 24.858C7.02306 24.858 6.69309 24.9581 6.41243 25.1457C6.13177 25.3332 5.91302 25.5997 5.78385 25.9116C5.65467 26.2234 5.62088 26.5666 5.68673 26.8977C5.75258 27.2287 5.91512 27.5328 6.15381 27.7715C6.39249 28.0102 6.69659 28.1727 7.02765 28.2386C7.35871 28.3044 7.70186 28.2706 8.01372 28.1415C8.32557 28.0123 8.59211 27.7935 8.77964 27.5129C8.96718 27.2322 9.06727 26.9022 9.06727 26.5647C9.06727 26.1121 8.88746 25.678 8.5674 25.3579C8.24734 25.0378 7.81324 24.858 7.3606 24.858Z" fill="#3D82C3"/>
<path d="M4.26917 13.7205C4.10042 13.7205 3.93547 13.6704 3.79518 13.5766C3.65488 13.4829 3.54553 13.3496 3.48096 13.1937C3.41639 13.0378 3.39949 12.8662 3.4324 12.7007C3.46531 12.5352 3.54656 12.3832 3.66586 12.2639L6.6824 9.24733C6.76111 9.16583 6.85527 9.10082 6.95938 9.0561C7.06349 9.01137 7.17547 8.98783 7.28877 8.98685C7.40208 8.98586 7.51445 9.00746 7.61932 9.05036C7.72419 9.09327 7.81947 9.15663 7.89959 9.23675C7.97971 9.31687 8.04307 9.41215 8.08598 9.51702C8.12888 9.62189 8.15048 9.73426 8.14949 9.84756C8.14851 9.96087 8.12497 10.0728 8.08024 10.177C8.03552 10.2811 7.97051 10.3752 7.88901 10.4539L4.87247 13.4705C4.71248 13.6305 4.49547 13.7205 4.26917 13.7205Z" fill="#3D82C3"/>
<path d="M8.38971 13.014C8.1634 13.014 7.94635 12.9241 7.78632 12.7641C7.62629 12.6041 7.53638 12.387 7.53638 12.1607V9.60071H4.97638C4.75006 9.60071 4.53301 9.51081 4.37298 9.35077C4.21295 9.19074 4.12305 8.97369 4.12305 8.74738C4.12305 8.52106 4.21295 8.30401 4.37298 8.14398C4.53301 7.98395 4.75006 7.89404 4.97638 7.89404H8.38971C8.61603 7.89404 8.83308 7.98395 8.99311 8.14398C9.15314 8.30401 9.24305 8.52106 9.24305 8.74738V12.1607C9.24305 12.387 9.15314 12.6041 8.99311 12.7641C8.83308 12.9241 8.61603 13.014 8.38971 13.014Z" fill="#3D82C3"/>
<path d="M27.5151 13.7205C27.2888 13.7205 27.0718 13.6305 26.9118 13.4705L23.8953 10.4539C23.8138 10.3752 23.7488 10.2811 23.704 10.177C23.6593 10.0728 23.6358 9.96087 23.6348 9.84756C23.6338 9.73426 23.6554 9.62189 23.6983 9.51702C23.7412 9.41215 23.8046 9.31687 23.8847 9.23675C23.9648 9.15663 24.0601 9.09327 24.165 9.05036C24.2698 9.00746 24.3822 8.98586 24.4955 8.98685C24.6088 8.98783 24.7208 9.01137 24.8249 9.0561C24.929 9.10082 25.0232 9.16583 25.1019 9.24733L28.1184 12.2639C28.2377 12.3832 28.319 12.5352 28.3519 12.7007C28.3848 12.8662 28.3679 13.0378 28.3033 13.1937C28.2387 13.3496 28.1294 13.4829 27.9891 13.5766C27.8488 13.6704 27.6839 13.7205 27.5151 13.7205Z" fill="#3D82C3"/>
<path d="M23.3963 13.014C23.17 13.014 22.9529 12.9241 22.7929 12.7641C22.6329 12.6041 22.543 12.387 22.543 12.1607V8.74738C22.543 8.52106 22.6329 8.30401 22.7929 8.14398C22.9529 7.98395 23.17 7.89404 23.3963 7.89404H26.8096C27.036 7.89404 27.253 7.98395 27.413 8.14398C27.5731 8.30401 27.663 8.52106 27.663 8.74738C27.663 8.97369 27.5731 9.19074 27.413 9.35077C27.253 9.51081 27.036 9.60071 26.8096 9.60071H24.2496V12.1607C24.2496 12.387 24.1597 12.6041 23.9997 12.7641C23.8397 12.9241 23.6226 13.014 23.3963 13.014Z" fill="#3D82C3"/>
<path d="M15.8932 12.7921C15.7928 12.7923 15.6931 12.7746 15.5988 12.7401C13.5695 11.9847 11.9052 10.4829 10.9458 8.54171C9.98648 6.60047 9.80448 4.3662 10.437 2.29529C10.49 2.12033 10.5978 1.96702 10.7445 1.85794C10.8913 1.74887 11.0691 1.68979 11.2519 1.68942C12.7455 1.68937 14.1948 1.1821 15.3625 0.250701C15.5131 0.131653 15.6995 0.0668945 15.8915 0.0668945C16.0835 0.0668945 16.2699 0.131653 16.4206 0.250701C17.5891 1.18282 19.0398 1.68987 20.5345 1.68857C20.7173 1.68894 20.8952 1.74801 21.0419 1.85709C21.1886 1.96616 21.2964 2.11947 21.3494 2.29444C21.9821 4.36545 21.8001 6.5999 20.8406 8.54121C19.881 10.4825 18.2164 11.9841 16.1868 12.7392C16.0928 12.7741 15.9934 12.792 15.8932 12.7921ZM11.9218 3.36878C11.5947 4.90706 11.8119 6.51117 12.5363 7.90709C13.2606 9.30301 14.4472 10.4041 15.8932 11.0223C17.3394 10.4043 18.526 9.30317 19.2504 7.90721C19.9748 6.51125 20.1919 4.90707 19.8646 3.36878C18.4425 3.25643 17.074 2.77654 15.8932 1.97614C14.7121 2.77595 13.3438 3.25578 11.9218 3.36878Z" fill="#3D82C3"/>
<path d="M14.0861 8.20989C14.0795 8.2464 14.0835 8.28405 14.0977 8.31832C14.112 8.35259 14.1358 8.38203 14.1663 8.40311C14.1969 8.42419 14.2328 8.43601 14.2699 8.43715C14.307 8.4383 14.3436 8.42873 14.3754 8.40957C14.8635 8.11688 15.6895 7.62365 15.8636 7.53405C16.0556 7.63304 16.8552 8.13139 17.3314 8.42579C17.3628 8.44548 17.3992 8.45568 17.4363 8.45518C17.4734 8.45468 17.5096 8.44349 17.5405 8.42295C17.5714 8.40242 17.5957 8.37341 17.6105 8.3394C17.6253 8.3054 17.63 8.26784 17.624 8.23123C17.5344 7.67571 17.3834 6.74472 17.3484 6.54248C17.5387 6.36072 18.1164 5.85981 18.4876 5.53555C18.5168 5.51114 18.5382 5.47866 18.5491 5.44217C18.56 5.40567 18.5598 5.36679 18.5487 5.33037C18.5376 5.29395 18.516 5.26161 18.4866 5.23739C18.4573 5.21318 18.4214 5.19816 18.3835 5.19421C17.8826 5.13704 17.0975 5.04573 16.8279 5.00819C16.7306 4.81363 16.2843 3.95176 16.0343 3.47219C16.0179 3.44109 15.9934 3.41506 15.9633 3.3969C15.9332 3.37874 15.8988 3.36914 15.8636 3.36914C15.8285 3.36914 15.794 3.37874 15.7639 3.3969C15.7339 3.41506 15.7093 3.44109 15.693 3.47219C15.4438 3.95517 14.9975 4.81704 14.8994 5.00819C14.6954 5.0372 13.8651 5.13363 13.3429 5.19336C13.3048 5.19692 13.2686 5.21173 13.239 5.2359C13.2093 5.26008 13.1875 5.29252 13.1764 5.32912C13.1652 5.36571 13.1652 5.40479 13.1763 5.4414C13.1874 5.47801 13.2091 5.51048 13.2388 5.53469C13.6287 5.87603 14.2397 6.40509 14.3839 6.54248C14.343 6.77032 14.186 7.66973 14.0861 8.20989Z" fill="#3D82C3"/>
</svg>
