<svg width="32" height="31" viewBox="0 0 32 31" fill="none" xmlns="http://www.w3.org/2000/svg">
<path fill-rule="evenodd" clip-rule="evenodd" d="M21.2489 9.58698C21.5778 8.85437 21.7607 8.04204 21.7607 7.18698C21.7607 3.94691 19.1341 1.32031 15.894 1.32031C12.6539 1.32031 10.0273 3.94691 10.0273 7.18698C10.0273 8.04204 10.2103 8.85437 10.5391 9.58698C10.2103 10.3196 10.0273 11.1319 10.0273 11.987C10.0273 15.227 12.6539 17.8536 15.894 17.8536C19.1341 17.8536 21.7607 15.227 21.7607 11.987C21.7607 11.1319 21.5778 10.3196 21.2489 9.58698Z" fill="#FDCF33"/>
<path d="M16.7168 30.9686C16.4667 30.9688 16.2174 30.9427 15.9727 30.891L5.67383 28.5622V20.0212L6.12268 19.7797C7.3694 19.1005 8.76871 18.7504 10.1884 18.7625C11.6081 18.7746 13.0012 19.1485 14.2362 19.8488L20.4809 20.5665C20.9587 20.6237 21.413 20.8058 21.798 21.0945C22.183 21.3832 22.4851 21.7682 22.6739 22.2109L27.485 20.2021C28.1509 19.924 28.8999 19.9217 29.5674 20.1958C30.2349 20.47 30.7661 20.998 31.0443 21.6639C31.3224 22.3297 31.3247 23.0787 31.0505 23.7462C30.7764 24.4137 30.2483 24.945 29.5825 25.2231L18.269 30.6187C17.7841 30.8493 17.2538 30.9688 16.7168 30.9686ZM7.38049 27.1986L16.3405 29.2235C16.7438 29.3076 17.1636 29.2566 17.5352 29.0785L28.8845 23.6658C29.0121 23.6171 29.1287 23.5434 29.2274 23.449C29.3261 23.3547 29.4049 23.2415 29.4593 23.1162C29.5136 22.9908 29.5423 22.8559 29.5436 22.7194C29.545 22.5828 29.5191 22.4473 29.4673 22.3209C29.416 22.1981 29.341 22.0866 29.2465 21.9928C29.1521 21.8991 29.0401 21.8248 28.9169 21.7743C28.7938 21.7238 28.6619 21.6981 28.5288 21.6986C28.3957 21.6992 28.264 21.7259 28.1412 21.7774L22.7857 24.0139C22.6072 24.6333 22.2154 25.1695 21.6796 25.5278C21.1438 25.8861 20.4985 26.0432 19.8579 25.9715L13.4272 25.2325C13.3135 25.2227 13.2029 25.1902 13.1019 25.1369C13.001 25.0836 12.9118 25.0106 12.8396 24.9223C12.7673 24.8339 12.7136 24.7319 12.6815 24.6224C12.6494 24.5128 12.6396 24.398 12.6526 24.2846C12.6657 24.1712 12.7014 24.0616 12.7576 23.9622C12.8138 23.8628 12.8893 23.7758 12.9798 23.7061C13.0702 23.6365 13.1737 23.5857 13.2841 23.5568C13.3946 23.5279 13.5097 23.5214 13.6226 23.5378L20.0533 24.2759C20.3202 24.3052 20.5878 24.228 20.7979 24.061C21.0081 23.894 21.1438 23.6507 21.1755 23.3842C21.1816 23.3344 21.1839 23.2842 21.1823 23.234C21.172 22.9917 21.076 22.7609 20.9114 22.5828C20.7469 22.4046 20.5245 22.2907 20.2837 22.2612L13.6499 21.4992L13.4793 21.3865C12.5632 20.8467 11.5306 20.5353 10.4688 20.4785C9.40704 20.4218 8.34719 20.6214 7.37879 21.0606L7.38049 27.1986Z" fill="#3D82C3"/>
<path d="M15.8516 19.1339C14.4339 19.1339 13.048 18.7135 11.8693 17.9258C10.6905 17.1382 9.77176 16.0187 9.22923 14.7089C8.6867 13.3991 8.54475 11.9579 8.82133 10.5674C9.09791 9.17699 9.78059 7.89978 10.7831 6.89731C11.7855 5.89485 13.0627 5.21216 14.4532 4.93559C15.8436 4.65901 17.2849 4.80096 18.5947 5.34349C19.9045 5.88602 21.0239 6.80476 21.8116 7.98353C22.5992 9.1623 23.0196 10.5482 23.0196 11.9659C23.018 13.8664 22.2623 15.6887 20.9184 17.0326C19.5745 18.3766 17.7522 19.1323 15.8516 19.1339ZM15.8516 6.50964C14.7714 6.50964 13.7156 6.82994 12.8174 7.43004C11.9193 8.03014 11.2193 8.88308 10.806 9.88101C10.3926 10.8789 10.2845 11.977 10.4952 13.0364C10.7059 14.0958 11.2261 15.0689 11.9899 15.8327C12.7536 16.5965 13.7267 17.1166 14.7861 17.3274C15.8455 17.5381 16.9436 17.4299 17.9416 17.0166C18.9395 16.6032 19.7924 15.9032 20.3925 15.0051C20.9926 14.107 21.3129 13.0511 21.3129 11.971C21.3129 11.2538 21.1717 10.5436 20.8972 9.88101C20.6228 9.21841 20.2205 8.61636 19.7133 8.10923C19.2062 7.6021 18.6042 7.19982 17.9416 6.92536C17.279 6.6509 16.5688 6.50964 15.8516 6.50964Z" fill="#3D82C3"/>
<path d="M16.2543 15.421H14.6458C14.4195 15.421 14.2024 15.3311 14.0424 15.1711C13.8823 15.011 13.7924 14.794 13.7924 14.5677C13.7924 14.3413 13.8823 14.1243 14.0424 13.9643C14.2024 13.8042 14.4195 13.7143 14.6458 13.7143H16.2543C16.3097 13.7169 16.3651 13.7081 16.417 13.6887C16.469 13.6692 16.5165 13.6394 16.5566 13.6011C16.5967 13.5628 16.6286 13.5167 16.6504 13.4657C16.6722 13.4147 16.6835 13.3598 16.6835 13.3043C16.6835 13.2488 16.6722 13.1939 16.6504 13.1429C16.6286 13.0919 16.5967 13.0458 16.5566 13.0075C16.5165 12.9692 16.469 12.9394 16.417 12.9199C16.3651 12.9005 16.3097 12.8917 16.2543 12.8943H15.4496C14.8956 12.8831 14.368 12.6553 13.9801 12.2595C13.5923 11.8638 13.375 11.3317 13.375 10.7776C13.375 10.2234 13.5923 9.6914 13.9801 9.29566C14.368 8.89991 14.8956 8.67201 15.4496 8.66089H16.943C17.1693 8.66089 17.3863 8.75079 17.5463 8.91082C17.7064 9.07086 17.7963 9.2879 17.7963 9.51422C17.7963 9.74054 17.7064 9.95759 17.5463 10.1176C17.3863 10.2777 17.1693 10.3676 16.943 10.3676H15.4496C15.3441 10.3724 15.2445 10.4177 15.1716 10.494C15.0986 10.5704 15.0579 10.672 15.0579 10.7776C15.0579 10.8832 15.0986 10.9848 15.1716 11.0611C15.2445 11.1375 15.3441 11.1828 15.4496 11.1876H16.2543C16.5359 11.182 16.8157 11.2325 17.0775 11.3364C17.3392 11.4402 17.5776 11.5952 17.7787 11.7923C17.9798 11.9894 18.1396 12.2247 18.2487 12.4843C18.3578 12.7439 18.4139 13.0227 18.4139 13.3043C18.4139 13.5859 18.3578 13.8647 18.2487 14.1243C18.1396 14.3839 17.9798 14.6192 17.7787 14.8163C17.5776 15.0134 17.3392 15.1684 17.0775 15.2722C16.8157 15.3761 16.5359 15.4266 16.2543 15.421Z" fill="#3D82C3"/>
<path d="M15.8514 10.0159C15.6251 10.0159 15.408 9.926 15.248 9.76597C15.088 9.60594 14.998 9.38889 14.998 9.16257V8.11041C14.998 7.8841 15.088 7.66705 15.248 7.50702C15.408 7.34698 15.6251 7.25708 15.8514 7.25708C16.0777 7.25708 16.2947 7.34698 16.4548 7.50702C16.6148 7.66705 16.7047 7.8841 16.7047 8.11041V9.16257C16.7047 9.38889 16.6148 9.60594 16.4548 9.76597C16.2947 9.926 16.0777 10.0159 15.8514 10.0159Z" fill="#3D82C3"/>
<path d="M15.8514 16.6789C15.6251 16.6789 15.408 16.589 15.248 16.4289C15.088 16.2689 14.998 16.0519 14.998 15.8255V14.7742C14.998 14.5479 15.088 14.3309 15.248 14.1708C15.408 14.0108 15.6251 13.9209 15.8514 13.9209C16.0777 13.9209 16.2947 14.0108 16.4548 14.1708C16.6148 14.3309 16.7047 14.5479 16.7047 14.7742V15.8255C16.7047 16.0519 16.6148 16.2689 16.4548 16.4289C16.2947 16.589 16.0777 16.6789 15.8514 16.6789Z" fill="#3D82C3"/>
<path d="M6.50653 30.227H1.38654C1.16022 30.227 0.94317 30.1371 0.783139 29.9771C0.623108 29.817 0.533203 29.6 0.533203 29.3737V18.2803C0.533203 18.054 0.623108 17.837 0.783139 17.6769C0.94317 17.5169 1.16022 17.427 1.38654 17.427H6.50653C6.73285 17.427 6.9499 17.5169 7.10993 17.6769C7.26996 17.837 7.35987 18.054 7.35987 18.2803V29.3737C7.35987 29.6 7.26996 29.817 7.10993 29.9771C6.9499 30.1371 6.73285 30.227 6.50653 30.227ZM2.23987 28.5203H5.6532V19.1337H2.23987V28.5203Z" fill="#3D82C3"/>
<path d="M9.57748 10.6004C9.39944 10.6006 9.2258 10.5451 9.08089 10.4416C8.93598 10.3382 8.82706 10.192 8.76937 10.0236C8.43219 9.0389 8.3135 7.9926 8.42153 6.95741C8.52957 5.92222 8.86174 4.92298 9.39497 4.02914C9.9282 3.1353 10.6497 2.3683 11.5093 1.78146C12.3689 1.19462 13.346 0.802018 14.3726 0.630941C15.3993 0.459863 16.4509 0.514416 17.4543 0.790806C18.4577 1.0672 19.389 1.55879 20.1832 2.23143C20.9775 2.90406 21.6157 3.7416 22.0536 4.68582C22.4915 5.63004 22.7185 6.65829 22.7188 7.6991C22.7189 8.15293 22.6763 8.60576 22.5917 9.05163C22.5706 9.16173 22.528 9.2666 22.4665 9.36026C22.4049 9.45392 22.3254 9.53453 22.2327 9.59748C22.1399 9.66044 22.0357 9.70451 21.9259 9.72718C21.8161 9.74985 21.7029 9.75067 21.5928 9.7296C21.4827 9.70854 21.3779 9.66599 21.2842 9.60439C21.1905 9.5428 21.1099 9.46335 21.047 9.3706C20.984 9.27785 20.94 9.17361 20.9173 9.06383C20.8946 8.95405 20.8938 8.84088 20.9149 8.73078C20.9794 8.39067 21.0119 8.04527 21.0121 7.6991C21.0136 6.90518 20.8419 6.12051 20.5091 5.39972C20.1762 4.67894 19.6903 4.0394 19.085 3.52563C18.4797 3.01187 17.7697 2.63625 17.0045 2.42493C16.2392 2.21362 15.437 2.17169 14.6539 2.30208C13.8708 2.43247 13.1255 2.73203 12.4699 3.17989C11.8144 3.62776 11.2644 4.21316 10.8583 4.89532C10.4521 5.57748 10.1996 6.33999 10.1182 7.12972C10.0369 7.91946 10.1287 8.71744 10.3873 9.46806C10.4236 9.57412 10.4386 9.6863 10.4315 9.79817C10.4244 9.91004 10.3954 10.0194 10.346 10.1201C10.2966 10.2207 10.2279 10.3106 10.1438 10.3847C10.0597 10.4588 9.96175 10.5156 9.85567 10.5518C9.76623 10.5831 9.67225 10.5996 9.57748 10.6004Z" fill="#3D82C3"/>
</svg>
