<svg width="60" height="60" viewBox="0 0 60 60" fill="none" xmlns="http://www.w3.org/2000/svg">
<path d="M40.5498 37.9109H20.2773V48.7514H40.5498V37.9109Z" fill="#FDCF33"/>
<path d="M13.3335 20.8635H11.358V13.248L9 13.98V12.3735L13.122 10.896H13.3335V20.8635Z" fill="#3D82C3"/>
<path d="M23.0551 13.5554C23.063 14.0103 22.9367 14.4574 22.6921 14.8409C22.4437 15.2227 22.0998 15.5329 21.6946 15.7409C22.1552 15.9546 22.5515 16.2857 22.8436 16.7009C23.1304 17.1249 23.2782 17.6277 23.2666 18.1394C23.286 18.5348 23.215 18.9295 23.0591 19.2933C22.9031 19.6572 22.6663 19.9808 22.3666 20.2394C21.6664 20.7815 20.7936 21.0516 19.9096 20.9999C19.0232 21.0477 18.1495 20.7733 17.4496 20.2274C17.1491 19.9706 16.9111 19.6487 16.7536 19.2861C16.5961 18.9235 16.5232 18.5298 16.5406 18.1349C16.5292 17.6223 16.677 17.1187 16.9636 16.6934C17.252 16.2784 17.6461 15.948 18.1051 15.7364C17.7005 15.5288 17.3575 15.2184 17.1106 14.8364C16.8688 14.4518 16.7442 14.0052 16.7521 13.5509C16.7354 13.1716 16.8028 12.7932 16.9493 12.4429C17.0958 12.0926 17.3178 11.779 17.5996 11.5244C18.2465 10.9946 19.0688 10.727 19.9036 10.7744C20.7366 10.7305 21.5562 10.9978 22.2031 11.5244C22.4869 11.7786 22.7105 12.0927 22.8579 12.4439C23.0052 12.7952 23.0726 13.1749 23.0551 13.5554V13.5554ZM21.2836 17.9999C21.293 17.8105 21.2647 17.621 21.2004 17.4426C21.136 17.2641 21.0368 17.1002 20.9086 16.9604C20.6325 16.7096 20.2729 16.5706 19.8998 16.5706C19.5268 16.5706 19.1672 16.7096 18.8911 16.9604C18.6506 17.2512 18.519 17.6166 18.519 17.9939C18.519 18.3712 18.6506 18.7367 18.8911 19.0274C19.1707 19.276 19.5311 19.4146 19.9053 19.4174C20.2794 19.4201 20.6418 19.2869 20.9251 19.0424C21.0506 18.9009 21.1469 18.7359 21.2084 18.557C21.2699 18.3781 21.2955 18.1887 21.2836 17.9999V17.9999ZM21.0796 13.6499C21.0959 13.3116 20.9863 12.9793 20.7721 12.7169C20.5408 12.4952 20.2333 12.3707 19.9129 12.369C19.5925 12.3673 19.2837 12.4886 19.0501 12.7079C18.8323 12.9724 18.7225 13.3094 18.7426 13.6514C18.7256 13.9972 18.8349 14.3373 19.0501 14.6084C19.1634 14.723 19.2983 14.814 19.447 14.8761C19.5957 14.9382 19.7552 14.9702 19.9163 14.9702C20.0775 14.9702 20.237 14.9382 20.3857 14.8761C20.5344 14.814 20.6693 14.723 20.7826 14.6084C20.9932 14.3348 21.0986 13.9947 21.0796 13.6499V13.6499Z" fill="#3D82C3"/>
<path d="M41.5352 10.8765V12.498H41.3447C40.5683 12.475 39.8083 12.7232 39.1952 13.2C38.639 13.6744 38.2884 14.3459 38.2172 15.0735C38.4764 14.8089 38.7877 14.6009 39.1313 14.4625C39.4749 14.3242 39.8434 14.2584 40.2137 14.2695C40.6049 14.2539 40.9943 14.3296 41.3512 14.4905C41.7081 14.6514 42.0227 14.8931 42.2702 15.1965C42.8059 15.8932 43.0765 16.7576 43.0337 17.6355C43.0421 18.2447 42.8983 18.8464 42.6152 19.386C42.3456 19.8985 41.9336 20.322 41.4287 20.6055C40.8998 20.9013 40.3021 21.0519 39.6962 21.042C39.2197 21.059 38.7454 20.9701 38.3075 20.7815C37.8696 20.5929 37.4791 20.3094 37.1642 19.9515C36.4907 19.1364 36.1467 18.0989 36.1997 17.043V16.3335C36.1803 15.3491 36.3893 14.3736 36.8102 13.4835C37.1915 12.6867 37.8007 12.0211 38.5607 11.571C39.3645 11.1063 40.2798 10.8693 41.2082 10.8855L41.5352 10.8765ZM39.6137 15.849C39.3071 15.8462 39.0064 15.9327 38.7482 16.098C38.4968 16.2548 38.2978 16.483 38.1767 16.7535V17.3535C38.1442 17.8966 38.2798 18.4366 38.5652 18.9C38.6843 19.0775 38.847 19.2216 39.0376 19.3185C39.2282 19.4154 39.4405 19.4618 39.6542 19.4535C39.8527 19.4587 40.0496 19.416 40.2282 19.329C40.4068 19.2421 40.5618 19.1134 40.6802 18.954C40.9542 18.5796 41.0923 18.1229 41.0717 17.6595C41.0938 17.1916 40.9545 16.7304 40.6772 16.353C40.5527 16.1905 40.3913 16.0601 40.2063 15.9725C40.0214 15.8848 39.8182 15.8425 39.6137 15.849Z" fill="#3D82C3"/>
<path d="M50.8756 16.7999C50.9504 17.9155 50.6505 19.0241 50.0236 19.9499C49.7067 20.2921 49.3229 20.5654 48.896 20.753C48.4691 20.9406 48.0082 21.0384 47.5419 21.0403C47.0756 21.0423 46.6138 20.9484 46.1853 20.7644C45.7569 20.5805 45.3708 20.3104 45.0511 19.9709C44.4225 19.0765 44.1129 17.9966 44.1721 16.9049V15.0719C44.0945 13.9548 44.398 12.8443 45.0331 11.9219C45.3511 11.583 45.7351 11.3126 46.1614 11.1274C46.5877 10.9422 47.0474 10.8461 47.5122 10.845C47.977 10.8439 48.4372 10.9377 48.8644 11.1209C49.2916 11.304 49.6769 11.5725 49.9966 11.9099C50.6255 12.8031 50.9351 13.8822 50.8756 14.9729V16.7999ZM48.9001 14.7899C48.9426 14.1711 48.827 13.5517 48.5641 12.9899C48.4577 12.8087 48.3034 12.6603 48.1181 12.5611C47.9329 12.4619 47.7239 12.4156 47.5141 12.4274C47.3105 12.4149 47.1074 12.4581 46.9266 12.5525C46.7458 12.6468 46.5941 12.7888 46.4881 12.9629C46.2307 13.483 46.1109 14.0604 46.1401 14.6399V17.0519C46.1025 17.67 46.2163 18.2878 46.4716 18.8519C46.573 19.0414 46.7267 19.1977 46.9145 19.3022C47.1022 19.4067 47.3161 19.4551 47.5306 19.4414C47.7401 19.4561 47.9495 19.4107 48.1342 19.3106C48.3189 19.2104 48.4711 19.0596 48.5731 18.8759C48.8212 18.3334 48.9354 17.7393 48.9061 17.1434L48.9001 14.7899Z" fill="#3D82C3"/>
<path d="M33.6781 14.472C33.7123 15.213 33.4874 15.9427 33.0421 16.536C32.8507 16.7884 32.6021 16.9919 32.3169 17.1298C32.0317 17.2677 31.7179 17.3361 31.4011 17.3295C31.0778 17.3327 30.7575 17.2662 30.4621 17.1345C30.0895 16.9458 29.7509 16.6964 29.4601 16.3965C29.192 16.0885 28.8165 15.8943 28.4101 15.8535C28.2828 15.8519 28.1571 15.8824 28.0447 15.9422C27.9322 16.002 27.8366 16.0891 27.7666 16.1955C27.594 16.4535 27.5078 16.7598 27.5206 17.07L26.0506 17.0565C26.015 16.3239 26.2338 15.6016 26.6701 15.012C26.8644 14.7618 27.1153 14.5614 27.4021 14.4271C27.689 14.2928 28.0036 14.2285 28.3201 14.2395C28.6549 14.2352 28.9864 14.3054 29.2906 14.445C29.6586 14.6364 29.9941 14.8845 30.2851 15.18C30.545 15.4779 30.9076 15.667 31.3006 15.7095C31.4324 15.7101 31.5622 15.677 31.6777 15.6135C31.7932 15.55 31.8905 15.4581 31.9606 15.3465C32.1371 15.0875 32.2269 14.7792 32.2171 14.466L33.6781 14.472Z" fill="#3D82C3"/>
<path d="M52.5 57H7.5C6.30653 57 5.16193 56.5259 4.31802 55.682C3.47411 54.8381 3 53.6935 3 52.5V6.75C3 5.55653 3.47411 4.41193 4.31802 3.56802C5.16193 2.72411 6.30653 2.25 7.5 2.25H52.5C53.6935 2.25 54.8381 2.72411 55.682 3.56802C56.5259 4.41193 57 5.55653 57 6.75V52.5C57 53.6935 56.5259 54.8381 55.682 55.682C54.8381 56.5259 53.6935 57 52.5 57ZM7.5 5.25C7.10218 5.25 6.72064 5.40804 6.43934 5.68934C6.15804 5.97064 6 6.35218 6 6.75V52.5C6 52.8978 6.15804 53.2794 6.43934 53.5607C6.72064 53.842 7.10218 54 7.5 54H52.5C52.8978 54 53.2794 53.842 53.5607 53.5607C53.842 53.2794 54 52.8978 54 52.5V6.75C54 6.35218 53.842 5.97064 53.5607 5.68934C53.2794 5.40804 52.8978 5.25 52.5 5.25H7.5Z" fill="#3D82C3"/>
<path d="M42 51H18V41.0685C18.0016 39.7247 18.5361 38.4365 19.4863 37.4863C20.4365 36.5361 21.7247 36.0016 23.0685 36H37.5C38.6935 36 39.8381 36.4741 40.682 37.318C41.5259 38.1619 42 39.3065 42 40.5V51ZM21 48H39V40.5C39 40.1022 38.842 39.7206 38.5607 39.4393C38.2794 39.158 37.8978 39 37.5 39H23.0685C22.52 39.0004 21.9941 39.2185 21.6063 39.6063C21.2185 39.9941 21.0004 40.52 21 41.0685V48Z" fill="#3D82C3"/>
<path d="M45 51H15C14.6022 51 14.2206 50.842 13.9393 50.5607C13.658 50.2794 13.5 49.8978 13.5 49.5C13.5 49.1022 13.658 48.7206 13.9393 48.4393C14.2206 48.158 14.6022 48 15 48H45C45.3978 48 45.7794 48.158 46.0607 48.4393C46.342 48.7206 46.5 49.1022 46.5 49.5C46.5 49.8978 46.342 50.2794 46.0607 50.5607C45.7794 50.842 45.3978 51 45 51Z" fill="#3D82C3"/>
<path d="M30 39C29.6022 39 29.2206 38.842 28.9393 38.5607C28.658 38.2794 28.5 37.8978 28.5 37.5V31.5C28.5 31.1022 28.658 30.7206 28.9393 30.4393C29.2206 30.158 29.6022 30 30 30C30.3978 30 30.7794 30.158 31.0607 30.4393C31.342 30.7206 31.5 31.1022 31.5 31.5V37.5C31.5 37.8978 31.342 38.2794 31.0607 38.5607C30.7794 38.842 30.3978 39 30 39Z" fill="#3D82C3"/>
<path d="M30 28.5C29.6022 28.5 29.2206 28.342 28.9393 28.0607C28.658 27.7794 28.5 27.3978 28.5 27V25.5C28.5 25.1022 28.658 24.7206 28.9393 24.4393C29.2206 24.158 29.6022 24 30 24C30.3978 24 30.7794 24.158 31.0607 24.4393C31.342 24.7206 31.5 25.1022 31.5 25.5V27C31.5 27.3978 31.342 27.7794 31.0607 28.0607C30.7794 28.342 30.3978 28.5 30 28.5Z" fill="#3D82C3"/>
<path d="M24.6149 46.3396C22.5237 46.3664 20.4657 45.8157 18.6674 44.7481C18.3378 44.5274 18.1091 44.1852 18.0312 43.7963C17.9533 43.4074 18.0326 43.0035 18.2517 42.6729C18.4708 42.3424 18.812 42.112 19.2005 42.0323C19.589 41.9526 19.9933 42.03 20.3249 42.2476C21.7101 42.9955 23.2624 43.3796 24.8365 43.3639C26.4106 43.3481 27.955 42.9331 29.3249 42.1576C31.1652 41.1426 33.2357 40.6181 35.3373 40.6347C37.4389 40.6512 39.5008 41.2082 41.3249 42.2521C41.4888 42.3614 41.6296 42.502 41.7391 42.6657C41.8487 42.8294 41.925 43.0131 41.9635 43.2063C42.0021 43.3995 42.0023 43.5984 41.964 43.7916C41.9257 43.9849 41.8497 44.1687 41.7404 44.3326C41.6311 44.4965 41.4906 44.6372 41.3268 44.7468C41.1631 44.8564 40.9794 44.9327 40.7862 44.9712C40.593 45.0098 40.3941 45.01 40.2009 44.9717C40.0076 44.9334 39.8238 44.8574 39.6599 44.7481C38.2747 43.9998 36.722 43.6158 35.1477 43.6324C33.5734 43.6489 32.0291 44.0653 30.6599 44.8426C28.7898 45.8078 26.7193 46.3205 24.6149 46.3396Z" fill="#3D82C3"/>
</svg>
