<svg width="31" height="32" viewBox="0 0 31 32" fill="none" xmlns="http://www.w3.org/2000/svg">
<rect x="1" y="4.16064" width="28.2667" height="4.8" fill="#FDCF33"/>
<path d="M28.201 31.2538H2.60102C1.92206 31.2538 1.27092 30.984 0.790822 30.5039C0.310729 30.0239 0.0410156 29.3727 0.0410156 28.6938V5.65375C0.0410156 4.9748 0.310729 4.32365 0.790822 3.84356C1.27092 3.36346 1.92206 3.09375 2.60102 3.09375H28.201C28.88 3.09375 29.5311 3.36346 30.0112 3.84356C30.4913 4.32365 30.761 4.9748 30.761 5.65375V28.6938C30.761 29.3727 30.4913 30.0239 30.0112 30.5039C29.5311 30.984 28.88 31.2538 28.201 31.2538ZM2.60102 4.80042C2.3747 4.80042 2.15765 4.89032 1.99762 5.05035C1.83759 5.21038 1.74768 5.42743 1.74768 5.65375V28.6938C1.74768 28.9201 1.83759 29.1371 1.99762 29.2972C2.15765 29.4572 2.3747 29.5471 2.60102 29.5471H28.201C28.4273 29.5471 28.6444 29.4572 28.8044 29.2972C28.9644 29.1371 29.0543 28.9201 29.0543 28.6938V5.65375C29.0543 5.42743 28.9644 5.21038 28.8044 5.05035C28.6444 4.89032 28.4273 4.80042 28.201 4.80042H2.60102Z" fill="#3D82C3"/>
<path d="M29.9077 9.9198H0.894349C0.668031 9.9198 0.450982 9.8299 0.290951 9.66986C0.13092 9.50983 0.0410156 9.29279 0.0410156 9.06647C0.0410156 8.84015 0.13092 8.6231 0.290951 8.46307C0.450982 8.30304 0.668031 8.21313 0.894349 8.21313H29.9077C30.134 8.21313 30.3511 8.30304 30.5111 8.46307C30.6711 8.6231 30.761 8.84015 30.761 9.06647C30.761 9.29279 30.6711 9.50983 30.5111 9.66986C30.3511 9.8299 30.134 9.9198 29.9077 9.9198Z" fill="#3D82C3"/>
<path d="M6.44123 7.36011C6.21491 7.36011 5.99786 7.2702 5.83783 7.11017C5.6778 6.95014 5.58789 6.73309 5.58789 6.50678V1.38678C5.58789 1.16046 5.6778 0.943414 5.83783 0.783383C5.99786 0.623352 6.21491 0.533447 6.44123 0.533447C6.66754 0.533447 6.88459 0.623352 7.04462 0.783383C7.20465 0.943414 7.29456 1.16046 7.29456 1.38678V6.50678C7.29456 6.73309 7.20465 6.95014 7.04462 7.11017C6.88459 7.2702 6.66754 7.36011 6.44123 7.36011Z" fill="#3D82C3"/>
<path d="M24.3611 7.36011C24.1348 7.36011 23.9178 7.2702 23.7577 7.11017C23.5977 6.95014 23.5078 6.73309 23.5078 6.50678V1.38678C23.5078 1.16046 23.5977 0.943414 23.7577 0.783383C23.9178 0.623352 24.1348 0.533447 24.3611 0.533447C24.5875 0.533447 24.8045 0.623352 24.9645 0.783383C25.1246 0.943414 25.2145 1.16046 25.2145 1.38678V6.50678C25.2145 6.73309 25.1246 6.95014 24.9645 7.11017C24.8045 7.2702 24.5875 7.36011 24.3611 7.36011Z" fill="#3D82C3"/>
<path d="M8.77981 24.2935H6.86066V16.8968L4.57031 17.6076V16.0469L8.5733 14.6133H8.77895L8.77981 24.2935Z" fill="#3D82C3"/>
<path d="M18.4283 20.2967C18.5004 21.3831 18.2085 22.4624 17.5989 23.3645C17.3074 23.722 16.9349 24.0049 16.5123 24.1896C16.0896 24.3744 15.629 24.4557 15.1686 24.4269C14.7128 24.454 14.257 24.3738 13.8379 24.1927C13.4188 24.0116 13.048 23.7346 12.7554 23.3841C12.1448 22.5121 11.8443 21.4604 11.9021 20.3974V18.6165C11.827 17.527 12.1233 16.4441 12.7426 15.5445C13.0352 15.1918 13.4068 14.913 13.8272 14.7306C14.2477 14.5482 14.7052 14.4675 15.1626 14.4949C15.6188 14.4671 16.0751 14.5466 16.495 14.7271C16.9148 14.9076 17.2865 15.1841 17.5801 15.5343C18.1919 16.4058 18.4925 17.4578 18.4335 18.521L18.4283 20.2967ZM16.5101 18.34C16.5518 17.7379 16.4387 17.1351 16.1815 16.589C16.0782 16.4118 15.9279 16.2668 15.7471 16.1699C15.5663 16.073 15.3622 16.0282 15.1575 16.0403C14.9592 16.0282 14.7613 16.0704 14.5852 16.1624C14.4091 16.2544 14.2615 16.3928 14.1583 16.5626C13.9071 17.0684 13.7896 17.6301 13.8169 18.1941V20.5468C13.7797 21.1502 13.8904 21.7537 14.1395 22.3046C14.2385 22.4892 14.3885 22.6416 14.5715 22.7435C14.7545 22.8455 14.9629 22.8928 15.172 22.8798C15.3763 22.8939 15.5803 22.8494 15.7602 22.7516C15.9401 22.6539 16.0883 22.5068 16.1875 22.3277C16.4299 21.7993 16.5414 21.2204 16.5126 20.6398L16.5101 18.34Z" fill="#3D82C3"/>
<path d="M26.0254 17.1961C26.0334 17.6378 25.9112 18.072 25.6738 18.4446C25.4314 18.8141 25.0967 19.1138 24.7028 19.3141C25.1506 19.521 25.5359 19.8425 25.8198 20.2459C26.099 20.6577 26.2428 21.1463 26.2311 21.6437C26.2487 22.0272 26.1789 22.4096 26.0271 22.7622C25.8753 23.1147 25.6454 23.4282 25.3547 23.6789C24.6769 24.2083 23.8301 24.4742 22.9713 24.4273C22.1105 24.4736 21.2619 24.2072 20.582 23.6772C20.2904 23.4277 20.0595 23.115 19.9066 22.763C19.7537 22.411 19.683 22.0288 19.6997 21.6454C19.6883 21.147 19.832 20.6574 20.111 20.2442C20.3915 19.8411 20.7744 19.52 21.2203 19.3141C20.8277 19.1139 20.4945 18.8141 20.2543 18.4446C20.0192 18.0712 19.8982 17.6373 19.9062 17.1961C19.8899 16.8276 19.9552 16.46 20.0976 16.1196C20.2399 15.7793 20.4558 15.4747 20.7296 15.2275C21.3571 14.7111 22.1557 14.4492 22.9671 14.4936C23.7762 14.4499 24.5726 14.7091 25.2011 15.2207C25.4764 15.4682 25.6932 15.7739 25.8358 16.1155C25.9783 16.4572 26.0431 16.8263 26.0254 17.1961ZM24.306 21.5055C24.3148 21.3214 24.2871 21.1374 24.2245 20.9641C24.1618 20.7908 24.0653 20.6317 23.9407 20.496C23.6719 20.2525 23.3221 20.1176 22.9594 20.1176C22.5967 20.1176 22.2469 20.2525 21.9781 20.496C21.7432 20.7775 21.614 21.1322 21.6129 21.4988C21.6119 21.8655 21.7389 22.221 21.9721 22.5039C22.2436 22.7455 22.5938 22.8801 22.9573 22.8826C23.3207 22.8851 23.6727 22.7554 23.9476 22.5175C24.0715 22.3811 24.167 22.2213 24.2285 22.0475C24.2901 21.8738 24.3164 21.6895 24.306 21.5055ZM24.1054 17.2891C24.1218 16.9604 24.0154 16.6374 23.8068 16.3829C23.5821 16.1652 23.282 16.0426 22.9691 16.0407C22.6563 16.0387 22.3547 16.1577 22.1274 16.3727C21.9156 16.6295 21.8086 16.9568 21.8279 17.2891C21.8116 17.625 21.9181 17.9553 22.1274 18.2184C22.2372 18.3301 22.3682 18.4188 22.5126 18.4793C22.6571 18.5398 22.8122 18.571 22.9688 18.571C23.1254 18.571 23.2805 18.5398 23.4249 18.4793C23.5694 18.4188 23.7003 18.3301 23.8102 18.2184C24.017 17.9542 24.1218 17.6243 24.1054 17.2891Z" fill="#3D82C3"/>
</svg>
