<svg width="31" height="31" viewBox="0 0 31 31" fill="none" xmlns="http://www.w3.org/2000/svg">
<path d="M28.2129 25.1625H2.28789C2.08566 25.1625 1.89172 25.0822 1.74872 24.9392C1.60573 24.7962 1.52539 24.6023 1.52539 24.4V16.775C1.52539 16.1684 1.76639 15.5865 2.19538 15.1575C2.62437 14.7286 3.20621 14.4875 3.81289 14.4875H26.6879C27.2946 14.4875 27.8764 14.7286 28.3054 15.1575C28.7344 15.5865 28.9754 16.1684 28.9754 16.775V24.4C28.9754 24.6023 28.8951 24.7962 28.7521 24.9392C28.6091 25.0822 28.4151 25.1625 28.2129 25.1625ZM3.05039 23.6375H27.4504V16.775C27.4504 16.5728 27.3701 16.3789 27.2271 16.2359C27.0841 16.0929 26.8901 16.0125 26.6879 16.0125H3.81289C3.61066 16.0125 3.41672 16.0929 3.27372 16.2359C3.13073 16.3789 3.05039 16.5728 3.05039 16.775V23.6375Z" fill="#3D82C3"/>
<path d="M27.4496 16.0124H3.04957C2.92822 16.0123 2.80863 15.9834 2.70073 15.9279C2.59283 15.8723 2.49975 15.7919 2.4292 15.6931C2.35866 15.5944 2.3127 15.4803 2.29514 15.3602C2.27758 15.2401 2.28893 15.1176 2.32824 15.0028L5.19829 6.6153C5.24984 6.4648 5.34717 6.33418 5.47665 6.24175C5.60614 6.14932 5.76129 6.0997 5.92038 6.09985H24.5788C24.7378 6.0997 24.893 6.14932 25.0225 6.24175C25.152 6.33418 25.2493 6.4648 25.3008 6.6153L28.1709 15.0028C28.2102 15.1176 28.2216 15.2401 28.204 15.3602C28.1864 15.4803 28.1405 15.5944 28.0699 15.6931C27.9994 15.7919 27.9063 15.8723 27.7984 15.9279C27.6905 15.9834 27.5709 16.0123 27.4496 16.0124ZM4.11707 14.4874H26.3821L24.0336 7.62485H6.4648L4.11707 14.4874Z" fill="#3D82C3"/>
<path d="M6.86289 28.975H2.28789C2.08566 28.975 1.89172 28.8946 1.74872 28.7516C1.60573 28.6086 1.52539 28.4147 1.52539 28.2125V24.4C1.52539 24.1977 1.60573 24.0038 1.74872 23.8608C1.89172 23.7178 2.08566 23.6375 2.28789 23.6375H6.86289C7.06512 23.6375 7.25906 23.7178 7.40206 23.8608C7.54506 24.0038 7.62539 24.1977 7.62539 24.4V28.2125C7.62539 28.4147 7.54506 28.6086 7.40206 28.7516C7.25906 28.8946 7.06512 28.975 6.86289 28.975ZM3.05039 27.45H6.10039V25.1625H3.05039V27.45Z" fill="#3D82C3"/>
<path d="M28.2125 28.975H23.6375C23.4353 28.975 23.2413 28.8946 23.0983 28.7516C22.9553 28.6086 22.875 28.4147 22.875 28.2125V24.4C22.875 24.1977 22.9553 24.0038 23.0983 23.8608C23.2413 23.7178 23.4353 23.6375 23.6375 23.6375H28.2125C28.4147 23.6375 28.6087 23.7178 28.7517 23.8608C28.8947 24.0038 28.975 24.1977 28.975 24.4V28.2125C28.975 28.4147 28.8947 28.6086 28.7517 28.7516C28.6087 28.8946 28.4147 28.975 28.2125 28.975ZM24.4 27.45H27.45V25.1625H24.4V27.45Z" fill="#3D82C3"/>
<path d="M7.62539 22.1126C7.17297 22.1126 6.7307 21.9784 6.35452 21.7271C5.97835 21.4757 5.68515 21.1185 5.51202 20.7005C5.33888 20.2825 5.29358 19.8226 5.38185 19.3788C5.47011 18.9351 5.68797 18.5275 6.00788 18.2076C6.3278 17.8877 6.73539 17.6698 7.17912 17.5816C7.62285 17.4933 8.08279 17.5386 8.50078 17.7117C8.91877 17.8849 9.27602 18.1781 9.52738 18.5542C9.77873 18.9304 9.91289 19.3727 9.91289 19.8251C9.91289 20.4318 9.67189 21.0136 9.2429 21.4426C8.81391 21.8716 8.23207 22.1126 7.62539 22.1126ZM7.62539 19.0626C7.47458 19.0626 7.32716 19.1073 7.20177 19.1911C7.07638 19.2749 6.97865 19.394 6.92093 19.5333C6.86322 19.6726 6.84812 19.8259 6.87754 19.9739C6.90696 20.1218 6.97959 20.2576 7.08622 20.3643C7.19286 20.4709 7.32872 20.5435 7.47664 20.5729C7.62455 20.6024 7.77786 20.5873 7.91719 20.5296C8.05652 20.4718 8.1756 20.3741 8.25939 20.2487C8.34317 20.1233 8.38789 19.9759 8.38789 19.8251C8.38789 19.6229 8.30756 19.4289 8.16456 19.2859C8.02156 19.1429 7.82762 19.0626 7.62539 19.0626Z" fill="#3D82C3"/>
<path d="M22.8754 22.1126C22.423 22.1126 21.9807 21.9784 21.6045 21.7271C21.2283 21.4757 20.9352 21.1185 20.762 20.7005C20.5889 20.2825 20.5436 19.8226 20.6318 19.3788C20.7201 18.9351 20.938 18.5275 21.2579 18.2076C21.5778 17.8877 21.9854 17.6698 22.4291 17.5816C22.8729 17.4933 23.3328 17.5386 23.7508 17.7117C24.1688 17.8849 24.526 18.1781 24.7774 18.5542C25.0287 18.9304 25.1629 19.3727 25.1629 19.8251C25.1629 20.4318 24.9219 21.0136 24.4929 21.4426C24.0639 21.8716 23.4821 22.1126 22.8754 22.1126ZM22.8754 19.0626C22.7246 19.0626 22.5772 19.1073 22.4518 19.1911C22.3264 19.2749 22.2286 19.394 22.1709 19.5333C22.1132 19.6726 22.0981 19.8259 22.1275 19.9739C22.157 20.1218 22.2296 20.2576 22.3362 20.3643C22.4429 20.4709 22.5787 20.5435 22.7266 20.5729C22.8745 20.6024 23.0279 20.5873 23.1672 20.5296C23.3065 20.4718 23.4256 20.3741 23.5094 20.2487C23.5932 20.1233 23.6379 19.9759 23.6379 19.8251C23.6379 19.6229 23.5576 19.4289 23.4146 19.2859C23.2716 19.1429 23.0776 19.0626 22.8754 19.0626Z" fill="#3D82C3"/>
<path d="M22.8746 12.9626C25.8224 12.9626 28.2121 10.5729 28.2121 7.6251C28.2121 4.67728 25.8224 2.2876 22.8746 2.2876C19.9268 2.2876 17.5371 4.67728 17.5371 7.6251C17.5371 10.5729 19.9268 12.9626 22.8746 12.9626Z" fill="#3D82C3"/>
<path d="M22.8754 13.7249C21.6689 13.7249 20.4896 13.3671 19.4864 12.6969C18.4833 12.0266 17.7014 11.0739 17.2397 9.95927C16.778 8.84464 16.6572 7.61814 16.8926 6.43485C17.128 5.25157 17.7089 4.16465 18.562 3.31155C19.4151 2.45845 20.5021 1.87748 21.6853 1.64211C22.8686 1.40675 24.0951 1.52755 25.2098 1.98924C26.3244 2.45093 27.2771 3.23279 27.9474 4.23593C28.6176 5.23907 28.9754 6.41844 28.9754 7.6249C28.9736 9.24217 28.3303 10.7927 27.1867 11.9362C26.0432 13.0798 24.4927 13.7231 22.8754 13.7249ZM22.8754 3.0499C21.9705 3.0499 21.086 3.31822 20.3337 3.82093C19.5813 4.32364 18.9949 5.03816 18.6486 5.87413C18.3024 6.7101 18.2118 7.62998 18.3883 8.51744C18.5648 9.40491 19.0006 10.2201 19.6404 10.8599C20.2802 11.4997 21.0954 11.9355 21.9829 12.112C22.8703 12.2885 23.7902 12.1979 24.6262 11.8517C25.4621 11.5054 26.1767 10.919 26.6794 10.1666C27.1821 9.41428 27.4504 8.52975 27.4504 7.6249C27.4492 6.41191 26.9668 5.24895 26.1091 4.39123C25.2514 3.53351 24.0884 3.05112 22.8754 3.0499Z" fill="#3D82C3"/>
<path d="M25.7212 5.57535C24.6815 5.57413 23.6728 5.22159 22.8588 4.57495C22.0451 5.22078 21.0374 5.57325 19.9986 5.57535C19.6478 6.72396 19.7485 7.96315 20.2802 9.04005C20.8118 10.117 21.7343 10.9504 22.8595 11.3704C23.9848 10.9506 24.9075 10.1172 25.4393 9.04025C25.9711 7.96333 26.0719 6.72406 25.7212 5.57535ZM24.4714 7.42136C24.2427 7.62038 23.8858 7.92995 23.7684 8.04204C23.7905 8.16709 23.8836 8.74125 23.9385 9.08361C23.9421 9.1062 23.9392 9.12936 23.93 9.15032C23.9208 9.17127 23.9058 9.18914 23.8867 9.20178C23.8677 9.21441 23.8453 9.22128 23.8225 9.22155C23.7996 9.22183 23.7771 9.2155 23.7577 9.20333C23.4642 9.02033 22.9708 8.71456 22.8527 8.65356C22.7459 8.70923 22.2358 9.0127 21.9377 9.19341C21.9181 9.20519 21.8955 9.21108 21.8727 9.21038C21.8499 9.20968 21.8277 9.20243 21.8089 9.18948C21.7901 9.17653 21.7754 9.15844 21.7666 9.13737C21.7578 9.1163 21.7552 9.09314 21.7592 9.07065C21.8187 8.73744 21.9178 8.1831 21.943 8.04128C21.8538 7.95664 21.4763 7.62876 21.2362 7.4206C21.2187 7.40535 21.2061 7.38537 21.1998 7.3631C21.1935 7.34082 21.1938 7.3172 21.2007 7.29509C21.2076 7.27298 21.2207 7.25333 21.2385 7.23853C21.2563 7.22373 21.278 7.2144 21.301 7.21168C21.6227 7.17508 22.1351 7.11484 22.261 7.0973C22.3212 6.97759 22.5965 6.44536 22.7505 6.14799C22.7604 6.12861 22.7755 6.11234 22.794 6.10099C22.8126 6.08963 22.8339 6.08362 22.8557 6.08362C22.8775 6.08362 22.8988 6.08963 22.9174 6.10099C22.936 6.11234 22.951 6.12861 22.9609 6.14799C23.1134 6.44536 23.3902 6.97759 23.4505 7.0973C23.6174 7.12094 24.1009 7.17355 24.4097 7.21244C24.4326 7.21534 24.4542 7.22486 24.4718 7.23983C24.4894 7.25479 24.5023 7.27457 24.5088 7.29673C24.5154 7.31889 24.5153 7.34247 24.5087 7.36461C24.502 7.38674 24.4891 7.40646 24.4714 7.42136Z" fill="#F6CE56"/>
</svg>
