<svg width="25" height="25" viewBox="0 0 25 25" fill="none" xmlns="http://www.w3.org/2000/svg">
<mask id="mask0_10138_264603" style="mask-type:alpha" maskUnits="userSpaceOnUse" x="0" y="0" width="25" height="25">
<rect x="0.71875" y="0.728516" width="24" height="24" fill="#D9D9D9"/>
</mask>
<g mask="url(#mask0_10138_264603)">
<path d="M10.7437 14.7285H18.6938C18.9104 14.7285 19.0647 14.6368 19.1567 14.4535C19.2481 14.2702 19.2271 14.0952 19.0938 13.9285L16.6687 10.7535C16.5687 10.6202 16.4354 10.5535 16.2688 10.5535C16.1021 10.5535 15.9687 10.6202 15.8687 10.7535L13.9688 13.2285L12.8188 11.7285C12.7188 11.5952 12.5854 11.5285 12.4187 11.5285C12.2521 11.5285 12.1188 11.5952 12.0188 11.7285L10.3438 13.9285C10.2104 14.0952 10.1894 14.2702 10.2808 14.4535C10.3728 14.6368 10.5271 14.7285 10.7437 14.7285ZM8.71875 18.7285C8.16875 18.7285 7.69808 18.5328 7.30675 18.1415C6.91475 17.7495 6.71875 17.2785 6.71875 16.7285V4.72852C6.71875 4.17852 6.91475 3.70752 7.30675 3.31552C7.69808 2.92418 8.16875 2.72852 8.71875 2.72852H20.7188C21.2688 2.72852 21.7398 2.92418 22.1318 3.31552C22.5231 3.70752 22.7188 4.17852 22.7188 4.72852V16.7285C22.7188 17.2785 22.5231 17.7495 22.1318 18.1415C21.7398 18.5328 21.2688 18.7285 20.7188 18.7285H8.71875ZM4.71875 22.7285C4.16875 22.7285 3.69808 22.5328 3.30675 22.1415C2.91475 21.7495 2.71875 21.2785 2.71875 20.7285V7.72852C2.71875 7.44518 2.81475 7.20752 3.00675 7.01552C3.19808 6.82418 3.43542 6.72852 3.71875 6.72852C4.00208 6.72852 4.23975 6.82418 4.43175 7.01552C4.62308 7.20752 4.71875 7.44518 4.71875 7.72852V20.7285H17.7188C18.0021 20.7285 18.2394 20.8245 18.4307 21.0165C18.6227 21.2078 18.7188 21.4452 18.7188 21.7285C18.7188 22.0118 18.6227 22.2492 18.4307 22.4405C18.2394 22.6325 18.0021 22.7285 17.7188 22.7285H4.71875Z" fill="white"/>
</g>
</svg>
