<svg width="40" height="40" viewBox="0 0 40 40" fill="none" xmlns="http://www.w3.org/2000/svg">
<path fill-rule="evenodd" clip-rule="evenodd" d="M35.8428 16.4918L30.6128 14.996L25.9932 11.1498C25.1062 10.4067 23.9859 9.99959 22.8287 10H7.78971C7.46157 10.0019 7.14496 10.1213 6.89718 10.3364C6.6494 10.5515 6.48682 10.8483 6.43886 11.1729C6.3909 11.4975 6.46074 11.8286 6.63573 12.1062C6.81073 12.3838 7.07931 12.5895 7.39288 12.6863L7.99322 12.8592L7.73884 13.3477H5.21538C4.94551 13.3477 4.6867 13.4549 4.49588 13.6457C4.30505 13.8365 4.19785 14.0953 4.19785 14.3652C4.19785 14.635 4.30505 14.8939 4.49588 15.0847C4.6867 15.2755 4.94551 15.3827 5.21538 15.3827H6.65008L6.65003 15.3828H9.5806C9.85047 15.3828 10.1093 15.49 10.3001 15.6808C10.4909 15.8717 10.5981 16.1305 10.5981 16.4003C10.5981 16.6702 10.4909 16.929 10.3001 17.1198C10.1093 17.3107 9.85047 17.4179 9.5806 17.4179H4.66596L4.65108 17.4178H3.01752C2.74766 17.4178 2.48885 17.525 2.29803 17.7158C2.1072 17.9066 2 18.1654 2 18.4353C2 18.7051 2.1072 18.964 2.29803 19.1548C2.48885 19.3456 2.74766 19.4528 3.01752 19.4528H4.61504L4.60966 19.4727H13.4468C13.7167 19.4727 13.9755 19.5799 14.1663 19.7707C14.3571 19.9615 14.4643 20.2203 14.4643 20.4902C14.4643 20.76 14.3571 21.0189 14.1663 21.2097C13.9755 21.4005 13.7167 21.5077 13.4468 21.5077H4.50311V21.5184H3.01752C2.74766 21.5184 2.48885 21.6256 2.29803 21.8164C2.1072 22.0072 2 22.266 2 22.5359C2 22.8058 2.1072 23.0646 2.29803 23.2554C2.48885 23.4462 2.74766 23.5534 3.01752 23.5534H4.50311V24.0724C4.50571 24.5673 4.70209 25.0415 5.05016 25.3934C5.39823 25.7453 5.8703 25.9468 6.36518 25.9548H8.98021C9.17694 26.856 9.67393 27.6636 10.3898 28.2453C11.1056 28.8271 11.9978 29.1484 12.9201 29.1567C13.8425 29.1649 14.7403 28.8597 15.4665 28.2909C16.1926 27.7221 16.704 26.9235 16.9169 26.026L26.6851 26.1176C26.9115 26.982 27.4161 27.7479 28.121 28.2971C28.8259 28.8463 29.692 29.1483 30.5855 29.1564C31.4791 29.1645 32.3505 28.8783 33.0653 28.342C33.78 27.8056 34.2984 27.049 34.5404 26.1888H35.8428C36.4131 26.1887 36.9607 25.966 37.3691 25.5681C37.5691 25.3695 37.7277 25.1333 37.836 24.8731C37.9443 24.6129 38 24.3338 38 24.052V19.3816C37.9939 18.7332 37.7816 18.1037 37.3937 17.5841C37.0059 17.0645 36.4627 16.682 35.8428 16.4918ZM13.3347 16.2368H27.3257C27.3931 16.227 27.4563 16.1981 27.5078 16.1535C27.5593 16.1089 27.5969 16.0505 27.6162 15.9852C27.6354 15.9198 27.6356 15.8503 27.6165 15.7849C27.5975 15.7195 27.5601 15.6609 27.5088 15.6161L24.4563 13.2555C23.9319 12.8576 23.2931 12.6399 22.6349 12.6348H15.5122C15.2913 12.634 15.0743 12.6933 14.8843 12.8062C14.6944 12.9191 14.5386 13.0814 14.4337 13.2758L12.9888 15.8807C12.9887 15.9734 13.0249 16.0625 13.0895 16.129C13.1541 16.1955 13.2421 16.2342 13.3347 16.2368Z" fill="#3D82C3"/>
<path d="M12.9482 27.2674C14.0722 27.2674 14.9833 26.3562 14.9833 25.2323C14.9833 24.1084 14.0722 23.1973 12.9482 23.1973C11.8243 23.1973 10.9132 24.1084 10.9132 25.2323C10.9132 26.3562 11.8243 27.2674 12.9482 27.2674Z" fill="#FDCF33"/>
<path d="M30.6229 27.2771C31.7469 27.2771 32.658 26.366 32.658 25.2421C32.658 24.1182 31.7469 23.207 30.6229 23.207C29.499 23.207 28.5879 24.1182 28.5879 25.2421C28.5879 26.366 29.499 27.2771 30.6229 27.2771Z" fill="#FDCF33"/>
</svg>
