<svg width="40" height="40" viewBox="0 0 40 40" fill="none" xmlns="http://www.w3.org/2000/svg">
<path d="M33.8398 11.7658V9.41174V8.88862C33.8428 8.50942 33.7705 8.13338 33.6271 7.78231C33.4838 7.43124 33.2721 7.11212 33.0045 6.84344C32.7369 6.57476 32.4186 6.36187 32.0681 6.2171C31.7176 6.07234 31.3419 5.99857 30.9626 6.00009H7.89985C7.51968 5.99706 7.14271 6.06971 6.79089 6.2138C6.43907 6.35789 6.11943 6.57054 5.8506 6.83937C5.58177 7.1082 5.36912 7.42784 5.22503 7.77966C5.08094 8.13148 5.00829 8.50845 5.01132 8.88862V11.7658H33.8398Z" fill="#3D82C3"/>
<path d="M5.00002 15.8486V26.1973C4.99849 26.5775 5.07262 26.9542 5.21809 27.3054C5.36356 27.6567 5.57747 27.9755 5.84736 28.2433C6.11725 28.511 6.43773 28.7224 6.79012 28.8651C7.14251 29.0078 7.51977 29.079 7.89993 29.0745H20.4093C20.4037 29.0216 20.4037 28.9682 20.4093 28.9153C20.4085 28.6182 20.4314 28.3216 20.4776 28.0282V28.0282C20.4891 27.8751 20.512 27.7231 20.5458 27.5733C20.5458 27.3232 20.6254 27.0843 20.6823 26.8455C20.9655 25.6965 21.479 24.6169 22.1917 23.6721C22.9044 22.7273 23.8015 21.937 24.8285 21.349C25.8556 20.7611 26.9913 20.3877 28.1669 20.2515C29.3425 20.1153 30.5335 20.2191 31.6678 20.5567V20.5567C32.1898 20.7239 32.6959 20.937 33.1803 21.1936L33.4646 21.3528L33.8285 21.5461V15.86L5.00002 15.8486ZM7.44504 26.3679V24.7189H14.9166V26.3679H7.44504ZM7.44504 23.0586V21.3869H19.2721V23.0586H7.44504Z" fill="#3D82C3"/>
<path d="M29.1773 21.8301C27.7756 21.8278 26.4047 22.2414 25.2381 23.0186C24.0715 23.7957 23.1616 24.9014 22.6236 26.1958C22.0856 27.4902 21.9437 28.9151 22.2158 30.2902C22.4879 31.6652 23.1618 32.9287 24.1521 33.9207C25.1425 34.9127 26.4049 35.5885 27.7795 35.8628C29.1542 36.1371 30.5793 35.9975 31.8746 35.4616C33.1698 34.9257 34.277 34.0176 35.056 32.8523C35.835 31.6869 36.2508 30.3167 36.2508 28.915C36.2478 27.0388 35.502 25.2402 34.1764 23.9125C32.8508 22.5848 31.0534 21.8361 29.1773 21.8301V21.8301Z" fill="#FDCF33"/>
<path d="M27.5395 32.6448C27.2749 32.6422 27.0218 32.5361 26.8344 32.3492L24.651 30.1657C24.4625 29.9742 24.3578 29.7156 24.3599 29.4469C24.362 29.1782 24.4708 28.9213 24.6623 28.7328C24.8539 28.5443 25.1124 28.4396 25.3811 28.4417C25.6499 28.4439 25.9067 28.5526 26.0952 28.7442L27.5509 30.1998L32.2703 25.4804C32.3644 25.3863 32.4761 25.3116 32.599 25.2607C32.722 25.2098 32.8537 25.1836 32.9868 25.1836C33.1198 25.1836 33.2516 25.2098 33.3745 25.2607C33.4974 25.3116 33.6091 25.3863 33.7032 25.4804C33.7973 25.5744 33.8719 25.6861 33.9229 25.8091C33.9738 25.932 34 26.0637 34 26.1968C34 26.3299 33.9738 26.4616 33.9229 26.5845C33.8719 26.7075 33.7973 26.8192 33.7032 26.9132L28.256 32.3492C28.1618 32.4431 28.0501 32.5176 27.9272 32.5683C27.8042 32.619 27.6725 32.645 27.5395 32.6448V32.6448Z" fill="white"/>
</svg>
