<svg width="48" height="61" viewBox="0 0 48 61" fill="none" xmlns="http://www.w3.org/2000/svg">
<path d="M43.7019 10.4682C39.3391 3.76854 32.137 0 24.0346 0C16.0015 0 8.79938 3.76854 4.29806 10.4682C-0.203268 17.0282 -1.24204 25.4027 1.52801 32.7305C2.28977 34.6845 3.46704 36.7084 4.99057 38.5228L22.5111 59.3196C22.9266 59.7383 23.3421 60.0175 23.9654 60.0175C24.5886 60.0175 25.0041 59.7383 25.4197 59.3196L43.0094 38.5228C44.533 36.7084 45.7795 34.7543 46.472 32.7305C49.242 25.4027 48.2033 17.0282 43.7019 10.4682Z" fill="#FDCF33"/>
<path d="M40.0005 23.9996C40.0005 27.164 39.0621 30.2574 37.3041 32.8885C35.5461 35.5196 33.0473 37.5703 30.1238 38.7813C27.2002 39.9923 23.9833 40.3092 20.8797 39.6919C17.776 39.0746 14.9252 37.5508 12.6876 35.3132C10.45 33.0757 8.92611 30.2249 8.30871 27.1213C7.69131 24.0177 8.00809 20.8007 9.219 17.8771C10.4299 14.9536 12.4806 12.4548 15.1116 10.6966C17.7427 8.93852 20.836 8.00009 24.0004 8C26.1015 8 28.1821 8.41384 30.1232 9.2179C32.0644 10.022 33.8282 11.2005 35.3139 12.6862C36.7996 14.1719 37.9781 15.9357 38.7822 17.8768C39.5862 19.818 40.0001 21.8985 40.0001 23.9996" fill="#FDCF33"/>
<path d="M30.0858 13.0667C29.2676 12.7175 28.4212 12.4384 27.5557 12.2324C26.688 12.0437 25.8025 11.9487 24.9145 11.9489C22.6113 11.9513 20.3585 12.6224 18.4294 13.8806C16.5004 15.1389 14.9783 16.9303 14.0479 19.0371C13.3927 20.5346 13.0631 22.1542 13.0809 23.7886C13.0809 25.5104 13.4114 27.3439 14.0625 28.7957C14.6882 30.2115 15.574 31.4974 16.6738 32.5867C18.8617 34.7434 21.8111 35.9515 24.8833 35.9492C25.6546 35.9437 26.4237 35.8655 27.1804 35.7155C28.0392 35.543 28.8839 35.3064 29.7073 35.0077L30.0853 34.8759V28.8501C28.6382 30.1541 27.0132 30.8156 25.2518 30.8156C24.3595 30.8223 23.4753 30.6451 22.6546 30.295C21.8667 29.9595 21.1529 29.4714 20.5544 28.8588C19.956 28.2463 19.4846 27.5214 19.1675 26.7259C18.8342 25.9106 18.6652 24.7839 18.6652 23.8196C18.6585 22.9113 18.8291 22.0105 19.1675 21.1676C19.4797 20.375 19.9482 19.6532 20.5451 19.0453C21.142 18.4375 21.855 17.9559 22.6418 17.6292C23.8893 17.1134 25.2613 16.9776 26.5856 17.2389C27.9099 17.5001 29.1276 18.1467 30.0858 19.0975V13.0667Z" fill="#1D1D1B"/>
</svg>
