<svg width="80" height="80" viewBox="0 0 80 80" fill="none" xmlns="http://www.w3.org/2000/svg">
<path fill-rule="evenodd" clip-rule="evenodd" d="M80 40C80 62.0914 62.0914 80 40 80C17.9086 80 0 62.0914 0 40C0 17.9086 17.9086 0 40 0C62.0914 0 80 17.9086 80 40ZM18.7053 55.4656L18.7749 59.0134C18.7749 59.0134 18.7488 59.0308 18.7488 59.6395C18.7488 60.2482 18.5836 60.8656 17.5227 60.9004C17.5227 60.9004 14.1053 60.8656 12.8793 60.8656C11.737 60.8656 11.4174 59.477 11.1892 58.4855C11.1725 58.4127 11.1562 58.3421 11.1401 58.2743C10.8967 57.283 10.5575 53.4917 10.4532 51.0656C10.3575 48.6395 10.6619 43.0047 10.6619 43.0047C10.6619 43.0047 10.314 40.6482 10.488 38.2221C10.6619 35.796 11.9923 34.0917 13.3227 32.5178C14.6532 30.9439 15.6445 29.9525 15.6445 29.9525C15.6445 29.9525 15.6445 28.996 15.6097 29.1004C15.5749 29.196 15.0619 29.196 13.7314 28.9612C12.401 28.7178 11.7488 27.4917 11.7488 26.9786C11.7488 26.4656 12.5314 25.6134 13.6271 25.2047C14.7227 24.796 16.088 25.1699 16.601 26.0917C17.114 27.0134 16.7749 27.9352 16.7749 27.9352L16.8793 28.5525C16.8793 28.5525 17.4271 28.0395 17.5314 28.0047C17.5801 27.9885 17.9567 26.9753 18.4276 25.7085C18.9654 24.2619 19.6261 22.4844 20.0619 21.483C20.8793 19.6047 22.8967 16.396 22.8967 16.396C24.5401 14.3091 32.1488 14.1091 40.2793 13.9352C48.4097 13.7612 54.1749 14.7526 55.2358 15.2308C56.2966 15.7091 56.601 16.1178 56.6706 16.2221C56.7401 16.3178 58.5836 19.4308 60.0184 22.1612C61.4532 24.9004 62.3401 28.0047 62.3401 28.0047L62.9227 28.4134L63.0271 27.796C63.0271 27.796 62.8532 26.6656 63.0271 26.1525C63.201 25.6482 64.0271 24.9612 65.0445 24.9612C66.0619 24.9612 66.888 25.2656 67.6706 26.3265C68.4532 27.3873 67.0532 28.3091 66.1314 28.7178C65.2097 29.1265 64.288 28.8221 64.288 28.8221L64.2184 29.3004C64.2184 29.3004 67.2271 32.6134 67.9749 33.6047C68.7314 34.5873 69.3749 36.4656 69.514 39.5091C69.6532 42.5525 69.2097 44.2221 69.2097 44.2221C69.2097 44.2221 69.514 48.3178 69.5836 50.8134C69.6532 53.3091 69.2793 57.3699 69.1053 58.7699C68.9314 60.1699 67.8097 60.3091 67.7053 60.3091C67.601 60.3091 63.5749 60.3438 62.5836 60.3786C61.5923 60.4134 61.6619 59.6308 61.6619 59.6308V58.3699L61.688 55.4656H18.7053ZM23.0706 17.196C22.9401 17.7265 18.4966 27.8047 18.4966 27.8047C18.4966 27.8047 17.6619 28.8569 18.9575 28.7352C19.841 28.6523 21.1162 28.5026 22.6305 28.3249C27.1527 27.7942 33.8064 27.0134 38.5227 27.0134C43.3662 27.0134 60.8706 28.3439 60.8706 28.3439C60.8706 28.3439 62.0619 28.9352 61.5314 27.5439C61.001 26.1525 56.1575 16.9352 56.1575 16.9352C56.1575 16.9352 55.8966 16.4656 54.7662 16.3352C53.6445 16.2047 42.0358 16.0047 38.7227 16.0047C37.2619 16.0047 25.8532 16.4917 24.4619 16.7352C24.4619 16.7352 23.201 16.6656 23.0706 17.196ZM15.514 49.2308C15.514 50.3612 16.4271 51.283 17.5662 51.283C18.7053 51.283 19.6271 50.3612 19.6184 49.2308C19.6184 48.1004 18.7053 47.1786 17.5662 47.1786C16.4358 47.1786 15.514 48.0917 15.514 49.2308ZM12.5923 36.0917C11.7314 40.2743 16.0184 40.8656 17.7662 40.7352C20.3488 40.5352 25.5227 36.0308 20.0184 32.3091C18.5923 31.3526 13.4532 31.9091 12.5923 36.0917ZM51.314 42.6569C53.5053 41.7265 54.5662 40.8656 55.2966 39.4743C56.001 38.1352 56.6184 36.5525 54.2358 36.2917C49.9227 35.8221 39.714 35.6917 39.714 35.6917C37.1314 35.7612 25.0619 36.2917 25.0619 36.2917C25.0619 36.2917 22.801 36.483 23.7314 38.3439C24.5836 40.0482 25.8532 42.4569 29.0358 42.8569C32.2184 43.2482 38.1749 43.5699 40.7053 43.5178C41.2017 43.5079 41.7592 43.503 42.3543 43.4979C45.4186 43.4713 49.4791 43.436 51.314 42.6569ZM60.8706 49.0308C60.8706 50.1612 61.7836 51.083 62.9227 51.083C64.0619 51.083 64.9836 50.1612 64.9749 49.0308C64.9749 47.9004 64.0619 46.9786 62.9227 46.9786C61.7923 46.9786 60.8706 47.8917 60.8706 49.0308ZM59.5488 32.4569C54.0445 36.1699 59.2184 40.6743 61.801 40.8743C63.5488 41.0047 67.8358 40.4047 66.9749 36.2395C66.114 32.0569 60.9749 31.4917 59.5488 32.4569Z" fill="white"/>
</svg>
