<svg width="379" height="61" viewBox="0 0 379 61" fill="none" xmlns="http://www.w3.org/2000/svg">
<path d="M42.79 2.90997C40.17 1.84997 38.2 1.19998 36.42 0.809982C34.25 0.339982 32.02 0.0999756 29.78 0.0999756C26 0.0999756 22.19 0.879973 18.45 2.40997C14.86 3.87997 11.67 5.94998 8.96 8.55998C6.25 11.17 4.05 14.33 2.43 17.94C0.82 21.54 0 25.57 0 29.9C0 34.23 0.830001 38.85 2.47 42.5C4.12 46.17 6.33 49.38 9.04 52.04C11.78 54.73 14.96 56.84 18.49 58.29C22.05 59.76 25.82 60.5 29.7 60.5C31.5 60.5 33.45 60.3 35.48 59.91C37.44 59.53 39.57 58.93 41.84 58.13L42.79 57.8V42.64C39.15 45.92 35.06 47.59 30.63 47.59C28.3 47.59 26.1 47.15 24.1 46.28C22.1 45.42 20.33 44.21 18.83 42.69C17.34 41.17 16.16 39.36 15.32 37.3C14.48 35.25 14.06 32.41 14.06 29.99C14.06 27.62 14.49 25.37 15.32 23.32C16.16 21.27 17.32 19.47 18.79 17.97C20.26 16.47 22.03 15.28 24.06 14.41C26.1 13.54 28.33 13.1 30.7 13.1C35.35 13.1 39.41 14.78 42.79 18.1V2.90997Z" fill="#FFCD00"/>
<path d="M140.58 25.7699C138.83 27.1199 136.33 27.8099 133.16 27.8099H129.41V11.6599H133.16C136.34 11.6599 138.83 12.3499 140.58 13.6999C142.4 15.1099 143.32 17.1399 143.32 19.7399C143.32 22.3399 142.4 24.3599 140.58 25.7699ZM162.46 59.4299L143.73 34.7099L145.08 34.3899C149.03 33.4599 152.04 31.6899 154.04 29.1099C156.04 26.5299 157.06 23.0899 157.06 18.8799C157.06 16.3299 156.62 13.5599 155.92 11.6499C155.17 9.60993 154.04 7.78993 152.56 6.23993C151.09 4.69993 149.18 3.45993 146.89 2.54993C144.58 1.63993 141.83 1.17993 138.72 1.17993H116.05V59.4199H129.41V33.9899L145.81 59.4199H162.46V59.4299Z" fill="#FFCD00"/>
<path d="M201.8 9.87006L194.67 14.0901C193.34 11.7801 192.07 10.2701 190.86 9.56006C189.6 8.76006 187.98 8.35005 185.99 8.35005C183.55 8.35005 181.53 9.04005 179.92 10.4301C178.31 11.7901 177.51 13.5001 177.51 15.5601C177.51 18.4001 179.62 20.6901 183.85 22.4301L189.66 24.8101C194.39 26.7201 197.84 29.0501 200.03 31.8101C202.22 34.5601 203.31 37.9401 203.31 41.9401C203.31 47.3001 201.52 51.7201 197.95 55.2201C194.35 58.7401 189.89 60.5001 184.56 60.5001C179.5 60.5001 175.33 59 172.04 56.01C168.8 53.02 166.77 48.8101 165.97 43.3701L174.87 41.4101C175.27 44.8301 175.98 47.2001 176.98 48.5001C178.79 51.0101 181.43 52.2701 184.9 52.2701C187.64 52.2701 189.92 51.3501 191.73 49.5201C193.54 47.68 194.45 45.3601 194.45 42.5401C194.45 41.4101 194.29 40.3701 193.98 39.4301C193.66 38.4901 193.17 37.62 192.51 36.83C191.84 36.04 190.98 35.3001 189.93 34.6001C188.87 33.9101 187.62 33.2501 186.16 32.6201L180.54 30.2801C172.57 26.9101 168.58 21.9801 168.58 15.4901C168.58 11.1101 170.25 7.46006 173.6 4.51006C176.94 1.54006 181.11 0.0600586 186.08 0.0600586C192.79 0.0600586 198.03 3.33006 201.8 9.87006Z" fill="#FFCD00"/>
<path d="M218.32 30.07C218.32 36.51 220.48 41.8 224.81 45.95C229.11 50.1 234.08 52.17 239.71 52.17C245.82 52.17 250.97 50.06 255.17 45.83C259.37 41.55 261.47 36.35 261.47 30.21C261.47 24 259.4 18.79 255.25 14.59C251.13 10.36 246.02 8.25 239.94 8.25C233.88 8.25 228.76 10.36 224.59 14.59C220.41 18.78 218.32 23.93 218.32 30.07ZM209.46 29.95C209.46 21.75 212.46 14.71 218.47 8.82999C224.46 2.94999 231.65 0 240.05 0C248.35 0 255.46 2.96999 261.4 8.89999C267.36 14.84 270.34 21.96 270.34 30.29C270.34 38.66 267.35 45.77 261.36 51.6C255.35 57.46 248.1 60.39 239.6 60.39C232.08 60.39 225.33 57.79 219.34 52.58C212.75 46.83 209.46 39.28 209.46 29.95Z" fill="#FFCD00"/>
<path d="M378.89 9.44995H355.54V23.4399H378.21V31.7099H355.54V51.1699H378.89V59.4299H346.75V1.18994H378.89V9.44995Z" fill="#FFCD00"/>
<path d="M93.2 59.4299H108.3L86.13 1.18994H71.5L49.33 59.4299H64.43L78.82 17.1899L93.2 59.4299Z" fill="#FFCD00"/>
<path d="M328.93 1.23999H319.34L306.5 47.48L293.66 1.23999H284.07L273.7 59.38H282.39L289.42 14.51L302.47 59.95H310.53L323.58 14.51L330.61 59.38H339.29L328.93 1.23999Z" fill="#FFCD00"/>
</svg>
