<svg width="190" height="23" viewBox="0 0 190 23" fill="none" xmlns="http://www.w3.org/2000/svg">
<path d="M12.3996 0.911167C11.8032 0.655939 11.1861 0.452179 10.555 0.302113C9.92222 0.164803 9.27655 0.0956057 8.62902 0.0957032C6.94959 0.0973695 5.30678 0.58673 3.90019 1.50433C2.4936 2.42193 1.38376 3.72828 0.705511 5.26467C0.227569 6.35625 -0.0127437 7.53701 0.000520671 8.72857C0.000520671 9.98447 0.241816 11.3218 0.71714 12.38C1.17295 13.4119 1.81893 14.3488 2.62134 15.1418C4.21583 16.7154 6.36697 17.5962 8.60722 17.5926C9.16951 17.5888 9.73019 17.5319 10.2818 17.4225C10.9082 17.2971 11.5244 17.1246 12.1249 16.9065L12.3996 16.8105V12.4192C11.3385 13.3728 10.1596 13.8525 8.87468 13.8525C8.23873 13.8569 7.60838 13.7335 7.02108 13.4895C6.43377 13.2455 5.90148 12.886 5.45584 12.4323C5.01832 11.9831 4.67269 11.4528 4.43833 10.8712C4.18976 10.1925 4.0652 9.4746 4.07057 8.75183C4.06638 8.08916 4.19129 7.43201 4.43833 6.8171C4.67049 6.24018 5.01262 5.7139 5.44566 5.26757C5.88324 4.82654 6.40399 4.47673 6.97775 4.23843C7.88646 3.86337 8.88566 3.76481 9.85014 3.95513C10.8146 4.14544 11.7015 4.61614 12.3996 5.30827V0.911167Z" fill="black"/>
<path d="M47.0794 17.2973L41.6517 10.1253L42.0428 10.0337C43.1853 9.76482 44.0603 9.25025 44.6389 8.50311C45.2174 7.75596 45.511 6.7588 45.511 5.53924C45.516 4.8276 45.404 4.11998 45.1796 3.44462C44.9657 2.86067 44.6342 2.32685 44.2057 1.8762C43.7423 1.40496 43.1818 1.04037 42.5631 0.807808C41.8052 0.530378 41.0022 0.396307 40.1953 0.412432H33.6294V17.2973H37.5032V9.9189L42.2521 17.2973H47.0794ZM40.7374 7.53502C40.2301 7.92749 39.5063 8.12517 38.5876 8.12517H37.5032V3.44462H38.5905C39.5092 3.44462 40.233 3.64376 40.7403 4.03623C41.2476 4.4287 41.534 5.03339 41.534 5.78054C41.534 6.52768 41.268 7.1222 40.7403 7.52484" fill="black"/>
<path d="M58.4811 2.9277L56.4156 4.15163C56.0279 3.48201 55.6597 3.04593 55.3108 2.8434C54.884 2.59441 54.3946 2.47332 53.9009 2.49454C53.2604 2.47231 52.634 2.68593 52.1406 3.09487C51.9184 3.27302 51.7399 3.49963 51.6187 3.75736C51.4975 4.0151 51.4369 4.29713 51.4414 4.58189C51.4414 5.40559 52.0533 6.06891 53.2773 6.57185L54.962 7.26085C56.3313 7.81418 57.3328 8.48962 57.9666 9.28715C58.6003 10.0847 58.9172 11.0634 58.9172 12.2234C58.9172 13.7739 58.4002 15.0564 57.3662 16.0711C56.3322 17.0857 55.041 17.5944 53.4924 17.5973C52.0291 17.5973 50.8178 17.1612 49.8584 16.2891C48.8991 15.4169 48.3118 14.1988 48.0967 12.6348L50.6768 12.065C50.7931 13.0544 50.9966 13.739 51.2873 14.1189C51.8135 14.8486 52.5791 15.2134 53.584 15.2134C53.951 15.2236 54.3162 15.1578 54.6566 15.0203C54.9971 14.8827 55.3054 14.6763 55.5623 14.414C55.8231 14.1475 56.0272 13.8309 56.1624 13.4834C56.2975 13.1359 56.3609 12.7647 56.3487 12.392C56.3524 12.0862 56.3062 11.7818 56.2121 11.4908C56.1193 11.2146 55.9748 10.9585 55.7862 10.7364C55.5694 10.4859 55.3172 10.2685 55.0376 10.091C54.6903 9.86656 54.3246 9.67205 53.9445 9.50955L52.315 8.8409C50.0057 7.86506 48.8506 6.43667 48.8496 4.55572C48.8404 3.95089 48.966 3.3516 49.2175 2.80143C49.4689 2.25127 49.8398 1.76407 50.3032 1.37527C51.2733 0.514748 52.4817 0.0849701 53.9285 0.0859391C55.8734 0.0859391 57.3929 1.03319 58.4869 2.9277" fill="black"/>
<path d="M60.6997 8.74773C60.6997 6.37257 61.5719 4.33222 63.3162 2.62667C64.1314 1.80049 65.1055 1.1479 66.1797 0.708226C67.2539 0.268551 68.406 0.0508897 69.5666 0.0683567C71.9718 0.0683567 74.0345 0.928396 75.7545 2.64848C77.4746 4.36856 78.3395 6.43459 78.3492 8.84658C78.3686 10.0004 78.1472 11.1455 77.6992 12.209C77.2512 13.2724 76.5864 14.2308 75.7473 15.0229C74.003 16.7207 71.9006 17.5696 69.4401 17.5696C67.2607 17.5696 65.3042 16.8156 63.5705 15.3078C61.6605 13.6391 60.706 11.4524 60.707 8.74773H60.6997ZM63.2755 8.78117C63.2755 10.6466 63.902 12.1806 65.155 13.3832C66.408 14.5858 67.8475 15.1871 69.4736 15.1871C71.244 15.1871 72.7378 14.5747 73.955 13.3498C74.5486 12.7576 75.0163 12.0515 75.3298 11.2738C75.6433 10.4961 75.7962 9.66308 75.7792 8.82477C75.7792 7.02523 75.1784 5.51689 73.9768 4.29975C72.7752 3.08261 71.2935 2.47017 69.5317 2.46242C68.7035 2.4457 67.8808 2.60027 67.1151 2.91644C66.3495 3.23261 65.6574 3.70355 65.0823 4.29975C63.8729 5.50914 63.2682 7.00294 63.2682 8.78117" fill="black"/>
<path d="M109.798 2.80715H103.031V6.86266H109.601V9.25672H103.031V14.8966H109.798V17.2907H100.484V0.413086H109.798V2.80715Z" fill="black"/>
<path d="M27.008 17.2907H31.3833L24.9599 0.413086H20.7198L14.2949 17.2907H18.6702L22.8391 5.05003L27.008 17.2907Z" fill="black"/>
<path d="M95.3195 0.427734H92.5417L88.8205 13.8269L85.0993 0.427734H82.3215L79.3169 17.2748H81.8331L83.871 4.27248L87.6532 17.442H89.9877L93.77 4.27248L95.8079 17.2748H98.324L95.3195 0.427734Z" fill="black"/>
<path d="M134.674 6.4353L132.61 6.63008C132.195 3.80431 130.001 2.19664 127.197 2.19664C123.718 2.19664 121.283 4.6314 121.283 8.76105C121.283 13.0215 123.9 15.3269 127.218 15.3269C130.022 15.3269 132.132 13.8268 132.61 11.1304L134.696 11.3048C134.066 14.9141 131.11 17.109 127.282 17.109C122.718 17.109 119.288 14.0434 119.288 8.76105C119.288 3.4787 122.653 0.413086 127.262 0.413086C131.066 0.413086 134.175 2.69522 134.674 6.4353Z" fill="black"/>
<path d="M145.479 9.91347V16.8907H143.589V15.5825C143.189 16.0696 142.684 16.4596 142.112 16.7232C141.539 16.9869 140.915 17.1172 140.285 17.1044C138.132 17.1044 136.651 15.9735 136.651 13.9515C136.651 11.6476 138.395 10.7784 140.721 10.6475L143.59 10.4746V9.95126C143.59 8.27818 142.852 7.25631 141.265 7.25631C139.612 7.25631 138.852 8.3872 138.852 9.56024L136.962 9.47448C136.962 7.56011 138.548 5.60358 141.244 5.60358C143.978 5.60794 145.479 7.17345 145.479 9.91347ZM143.615 11.9776L140.962 12.152C139.528 12.2392 138.549 12.6956 138.549 13.9137C138.549 15.0868 139.397 15.5214 140.571 15.5214C142.246 15.5214 143.615 14.6493 143.615 12.4354V11.9776Z" fill="black"/>
<path d="M149.044 22.4342V5.80366H150.827V7.62936C151.457 6.47812 152.848 5.60742 154.761 5.60742C157.805 5.60742 160.109 7.7878 160.109 11.3476C160.109 14.9075 157.805 17.1082 154.761 17.1082C152.892 17.1082 151.545 16.3044 150.914 15.2389V22.4342H149.044ZM158.202 11.368C158.202 8.69484 156.594 7.23835 154.485 7.23835C152.463 7.23835 150.941 8.52187 150.941 11.0424V11.6951C150.941 14.1952 152.463 15.4744 154.485 15.4744C156.589 15.4773 158.196 14.0208 158.196 11.368H158.202Z" fill="black"/>
<path d="M165.217 1.80398C165.212 2.12926 165.08 2.43972 164.848 2.66784C164.616 2.89595 164.303 3.02327 163.978 3.02209C163.817 3.02459 163.656 2.99495 163.506 2.9349C163.356 2.87484 163.219 2.78556 163.104 2.67223C162.988 2.55891 162.897 2.4238 162.834 2.27475C162.771 2.12571 162.739 1.96568 162.738 1.80398C162.764 1.49422 162.906 1.20554 163.135 0.995135C163.363 0.784736 163.663 0.667969 163.974 0.667969C164.285 0.667969 164.584 0.784736 164.813 0.995135C165.042 1.20554 165.183 1.49422 165.209 1.80398H165.217ZM164.891 5.80426V16.8908H163.022V5.80426H164.891Z" fill="black"/>
<path d="M173.913 15.2396V16.9127C173.418 17.004 172.915 17.0478 172.412 17.0435C170.391 17.0435 168.977 15.9998 169 13.5651L169.022 7.43529H166.957V5.80436H169.022L169.042 1.97852H170.932L170.912 5.80436H173.889V7.43529H170.913L170.87 13.1959C170.87 14.8035 171.742 15.3472 172.826 15.3472C173.191 15.3431 173.555 15.3071 173.913 15.2396Z" fill="black"/>
<path d="M184.565 9.91295V16.8902H182.676V15.5819C182.277 16.0696 181.772 16.4603 181.2 16.7246C180.628 16.989 180.003 17.1202 179.373 17.1082C177.22 17.1082 175.739 15.9773 175.739 13.9554C175.739 11.6514 177.484 10.7822 179.809 10.6514L182.679 10.4784V9.95511C182.679 8.28202 181.94 7.26015 180.353 7.26015C178.7 7.26015 177.94 8.39104 177.94 9.56409L176.05 9.47833C176.05 7.56395 177.638 5.60742 180.334 5.60742C183.065 5.60742 184.565 7.17294 184.565 9.91295ZM182.696 11.977L180.043 12.1515C178.609 12.2387 177.63 12.6951 177.63 13.9132C177.63 15.0863 178.478 15.5209 179.652 15.5209C181.327 15.5209 182.696 14.6487 182.696 12.4349V11.977Z" fill="black"/>
<path d="M190.001 0V16.8907H188.131V0H190.001Z" fill="black"/>
</svg>
