<svg width="111" height="16" viewBox="0 0 111 16" fill="none" xmlns="http://www.w3.org/2000/svg">
<rect x="0.195312" width="110.519" height="16" rx="8" fill="#3081D2"/>
<path d="M22.1585 4.04132C19.8273 4.04132 18.1213 5.54686 18.1213 8.09471C18.1213 10.632 19.8379 12.1481 22.1585 12.1481C24.0763 12.1481 25.6128 11.0216 25.9201 9.17912L24.2035 9.03173C23.9916 10.1267 23.1863 10.7057 22.1055 10.7057C20.8022 10.7057 19.7849 9.80029 19.7849 8.09471C19.7849 6.49441 20.7068 5.48369 22.1055 5.48369C23.1969 5.48369 23.9916 6.07328 24.2035 7.18928L25.9201 7.04188C25.634 5.17837 24.0763 4.04132 22.1585 4.04132Z" fill="white"/>
<path d="M29.1398 4.15713L25.7384 12.0323H27.5292L28.1649 10.5162H31.5027L32.1385 12.0323H33.9292L30.5173 4.15713H29.1398ZM30.9305 9.18965H28.7477L29.8391 6.56811L30.9305 9.18965Z" fill="white"/>
<path d="M39.3167 8.93697C40.1008 8.55796 40.5882 7.77886 40.5882 6.68392C40.5882 5.06256 39.5392 4.15713 38.0345 4.15713H34.6438V12.0323H36.2862V9.20018H37.6107L39.1577 12.0323H41.0015L39.3167 8.93697ZM36.2756 5.58898H37.8332C38.469 5.58898 38.9246 5.96799 38.9246 6.68392C38.9246 7.37879 38.469 7.7578 37.8332 7.7578H36.2756V5.58898Z" fill="white"/>
<path d="M44.5781 4.04132C42.692 4.04132 41.7702 5.15732 41.7702 6.4523C41.7702 7.9789 42.9463 8.43162 44.3768 8.78958C45.447 9.05278 46.0086 9.23177 46.0086 9.83188C46.0086 10.4741 45.5 10.7373 44.7583 10.7373C43.9106 10.7373 43.2748 10.253 43.2536 9.53709L41.59 9.62131C41.6112 11.2532 42.9357 12.1481 44.7583 12.1481C46.3583 12.1481 47.6828 11.4111 47.6828 9.73712C47.6828 8.33686 46.602 7.78939 44.9914 7.38931C43.9 7.13664 43.4338 6.99977 43.4338 6.39965C43.4338 5.84165 43.8576 5.45211 44.6099 5.45211C45.3622 5.45211 45.8285 5.88377 45.8497 6.54705L47.5133 6.46282C47.4815 4.94675 46.3053 4.04132 44.5781 4.04132Z" fill="white"/>
<path d="M52.676 4.04132C50.3024 4.04132 48.5541 5.62056 48.5541 8.09471C48.5541 10.5689 50.3024 12.1481 52.676 12.1481C55.0495 12.1481 56.7872 10.5689 56.7872 8.09471C56.7872 5.62056 55.0495 4.04132 52.676 4.04132ZM52.676 5.48369C54.117 5.48369 55.1236 6.46282 55.1236 8.09471C55.1236 9.71607 54.117 10.7057 52.676 10.7057C51.2243 10.7057 50.2177 9.71607 50.2177 8.09471C50.2177 6.46282 51.2243 5.48369 52.676 5.48369Z" fill="white"/>
<path d="M65.0663 4.15713L62.2689 9.63184L59.4503 4.15713H57.9987V12.0323H59.6411V7.67358L61.7285 11.9481H62.8093L64.8861 7.67358V12.0323H66.5073V4.15713H65.0663Z" fill="white"/>
<path d="M68.036 4.15713V12.0323H73.1327V10.5899H69.6784V8.69482H72.6665V7.29456H69.6784V5.58898H73.1221V4.15713H68.036Z" fill="white"/>
<path d="M82.3435 4.15713L80.1078 9.52656L77.8614 4.15713H76.0812L79.419 12.0323H80.7965L84.1343 4.15713H82.3435Z" fill="white"/>
<path d="M86.194 6.48388C84.7847 6.48388 83.9052 7.47354 83.9052 8.43162L85.4522 8.49479C85.4522 8.13682 85.6854 7.77886 86.2152 7.77886C86.692 7.77886 86.9251 8.07365 86.9251 8.62112V8.83169L85.9503 8.88433C84.7847 8.93697 83.7569 9.32652 83.7569 10.5373C83.7569 11.5901 84.4774 12.1481 85.5794 12.1481C86.2046 12.1481 86.6708 11.906 86.9781 11.5901V12.0323H88.4721V8.67377C88.4721 7.24192 87.6668 6.48388 86.194 6.48388ZM86.9251 10.074C86.9251 10.6531 86.5013 10.9584 85.9397 10.9584C85.5688 10.9584 85.3039 10.8215 85.3039 10.4636C85.3039 10.074 85.6324 9.91611 86.0986 9.89505L86.9251 9.84241V10.074Z" fill="white"/>
<path d="M89.8897 3.85181V12.0323H91.4367V3.85181H89.8897Z" fill="white"/>
<path d="M96.2172 6.58916V9.66343C96.2172 10.2741 95.8781 10.7163 95.2848 10.7163C94.6808 10.7163 94.4053 10.3478 94.4053 9.68448V6.58916H92.8582V10.0109C92.8582 11.3374 93.6212 12.1481 94.8821 12.1481C95.6556 12.1481 96.0901 11.8217 96.302 11.4848V12.0323H97.7642V6.58916H96.2172Z" fill="white"/>
<path d="M104.331 9.18965C104.331 7.4946 103.292 6.48388 101.713 6.48388C100.082 6.48388 98.9267 7.55777 98.9267 9.31599C98.9267 11.0637 100.082 12.1481 101.756 12.1481C103.038 12.1481 104.087 11.4111 104.278 10.3793L102.72 10.3057C102.604 10.6847 102.254 10.9058 101.713 10.9058C101.014 10.9058 100.601 10.4741 100.569 9.80029H104.331V9.18965ZM101.703 7.68411C102.402 7.68411 102.741 8.11577 102.773 8.77905H100.569C100.611 8.08418 101.046 7.68411 101.703 7.68411Z" fill="white"/>
<path d="M5.14653 10.8813L5.13468 10.2769H12.4576L12.4532 10.7717V10.9865C12.4532 10.9865 12.4413 11.1198 12.6102 11.1139C12.7791 11.108 13.4651 11.1021 13.4828 11.1021C13.5006 11.1021 13.6917 11.0784 13.7213 10.8398C13.751 10.6013 13.8147 9.90947 13.8028 9.48428C13.791 9.0591 13.7391 8.36132 13.7391 8.36132C13.7391 8.36132 13.8147 8.07688 13.791 7.55836C13.7673 7.03984 13.6576 6.71984 13.5288 6.55243C13.4013 6.38354 12.8888 5.8191 12.8888 5.8191L12.9006 5.73762C12.9006 5.73762 13.0576 5.78947 13.2147 5.71984C13.3717 5.65021 13.6102 5.49317 13.4769 5.31243C13.3436 5.13169 13.2028 5.07984 13.0295 5.07984C12.8562 5.07984 12.7154 5.19688 12.6858 5.2828C12.6562 5.37021 12.6858 5.5628 12.6858 5.5628L12.668 5.66799L12.5688 5.59836C12.5688 5.59836 12.4176 5.06947 12.1732 4.6028C11.9288 4.13762 11.6147 3.60725 11.6028 3.59095C11.591 3.57317 11.5391 3.50354 11.3584 3.42206C11.1776 3.34058 10.1954 3.17169 8.81024 3.20132C7.42505 3.23095 6.12875 3.26503 5.84875 3.62058C5.84875 3.62058 5.50505 4.16725 5.36579 4.48725C5.22653 4.80725 4.95246 5.59243 4.93468 5.59836C4.9169 5.60429 4.82357 5.69169 4.82357 5.69169L4.80579 5.58651C4.80579 5.58651 4.86357 5.42947 4.77616 5.27243C4.68876 5.1154 4.45616 5.05169 4.2695 5.12132C4.08283 5.19095 3.9495 5.33614 3.9495 5.42354C3.9495 5.51095 4.06061 5.71984 4.28727 5.76132C4.51394 5.80132 4.60135 5.80132 4.60727 5.78503C4.6132 5.76725 4.6132 5.93021 4.6132 5.93021C4.6132 5.93021 4.44431 6.0991 4.21764 6.36725C3.99098 6.6354 3.76431 6.92577 3.73468 7.3391C3.70505 7.75243 3.76431 8.15391 3.76431 8.15391C3.76431 8.15391 3.71246 9.11391 3.72876 9.52725C3.74653 9.94058 3.80431 10.5865 3.84579 10.7554C3.88579 10.9243 3.9332 11.1969 4.14209 11.1969C4.35098 11.1969 4.9332 11.2028 4.9332 11.2028C5.11394 11.1969 5.14209 11.0917 5.14209 10.988C5.14209 10.8843 5.14653 10.8813 5.14653 10.8813ZM5.09913 5.56429C5.09913 5.56429 5.85616 3.84725 5.87838 3.75688C5.90061 3.66651 6.11542 3.67836 6.11542 3.67836C6.35246 3.63688 8.29616 3.55391 8.54505 3.55391C9.1095 3.55391 11.0873 3.58799 11.2784 3.61021C11.471 3.63243 11.5154 3.71243 11.5154 3.71243C11.5154 3.71243 12.3406 5.2828 12.431 5.51984C12.5213 5.75688 12.3184 5.65614 12.3184 5.65614C12.3184 5.65614 9.33616 5.42947 8.51098 5.42947C7.43839 5.42947 5.77764 5.66651 5.17764 5.7228C4.9569 5.74354 5.09913 5.56429 5.09913 5.56429ZM4.94061 9.56428C4.74653 9.56428 4.59098 9.40725 4.59098 9.21465C4.59098 9.02058 4.74801 8.86503 4.94061 8.86503C5.13468 8.86503 5.29024 9.02206 5.29024 9.21465C5.29172 9.40725 5.13468 9.56428 4.94061 9.56428ZM4.97468 7.76725C4.6769 7.78947 3.94653 7.68873 4.0932 6.97614C4.23987 6.26354 5.11542 6.16873 5.35838 6.33169C6.29616 6.96577 5.41468 7.73317 4.97468 7.76725ZM11.3688 7.55243C11.2443 7.78947 11.0636 7.93614 10.6902 8.09466C10.3169 8.25317 9.40283 8.23095 8.88283 8.24132C8.45172 8.25021 7.4369 8.1954 6.89468 8.12873C6.35246 8.06058 6.13616 7.65021 5.99098 7.35984C5.83246 7.0428 6.21764 7.01021 6.21764 7.01021C6.21764 7.01021 8.27394 6.91984 8.71394 6.90799C8.71394 6.90799 10.4532 6.93021 11.188 7.01021C11.5939 7.05466 11.4888 7.32428 11.3688 7.55243ZM12.668 9.53021C12.4739 9.53021 12.3184 9.37317 12.3184 9.18058C12.3184 8.98651 12.4754 8.83095 12.668 8.83095C12.8621 8.83095 13.0176 8.98799 13.0176 9.18058C13.0191 9.37317 12.8621 9.53021 12.668 9.53021ZM12.4769 7.79095C12.0369 7.75688 11.1554 6.98947 12.0932 6.35688C12.3362 6.19243 13.2117 6.28873 13.3584 7.00132C13.5051 7.71095 12.7747 7.81317 12.4769 7.79095Z" fill="#3081D2"/>
<path fill-rule="evenodd" clip-rule="evenodd" d="M15.4546 8C15.4546 11.7637 12.4035 14.8148 8.63977 14.8148C4.87605 14.8148 1.82495 11.7637 1.82495 8C1.82495 4.23628 4.87605 1.18518 8.63977 1.18518C12.4035 1.18518 15.4546 4.23628 15.4546 8ZM5.01182 10.6346L5.02368 11.239C5.02368 11.239 5.01923 11.242 5.01923 11.3457C5.01923 11.4494 4.99108 11.5546 4.81034 11.5605C4.81034 11.5605 4.22812 11.5546 4.01923 11.5546C3.82463 11.5546 3.77018 11.318 3.7313 11.1491C3.72844 11.1367 3.72567 11.1246 3.72294 11.1131C3.68145 10.9442 3.62368 10.2983 3.6059 9.88492C3.5896 9.47159 3.64145 8.51159 3.64145 8.51159C3.64145 8.51159 3.58219 8.11011 3.61182 7.69677C3.64145 7.28344 3.86812 6.99307 4.09479 6.72492C4.32145 6.45677 4.49034 6.28789 4.49034 6.28789C4.49034 6.28789 4.49034 6.12492 4.48442 6.1427C4.47849 6.159 4.39108 6.159 4.16442 6.119C3.93775 6.07752 3.82664 5.86863 3.82664 5.78122C3.82664 5.69381 3.95997 5.54863 4.14664 5.479C4.33331 5.40937 4.5659 5.47307 4.65331 5.63011C4.74071 5.78715 4.68294 5.94418 4.68294 5.94418L4.70071 6.04937C4.70071 6.04937 4.79405 5.96196 4.81182 5.95603C4.82012 5.95327 4.88429 5.78066 4.96451 5.56483C5.05613 5.31836 5.16869 5.01553 5.24294 4.84492C5.38219 4.52492 5.7259 3.97826 5.7259 3.97826C6.0059 3.6227 7.30219 3.58863 8.68738 3.559C10.0726 3.52937 11.0548 3.69826 11.2355 3.77974C11.4163 3.86122 11.4681 3.93085 11.48 3.94863C11.4918 3.96492 11.8059 4.49529 12.0503 4.96048C12.2948 5.42715 12.4459 5.95603 12.4459 5.95603L12.5452 6.02566L12.5629 5.92048C12.5629 5.92048 12.5333 5.72789 12.5629 5.64048C12.5926 5.55455 12.7333 5.43752 12.9066 5.43752C13.08 5.43752 13.2207 5.48937 13.354 5.67011C13.4874 5.85085 13.2489 6.00789 13.0918 6.07752C12.9348 6.14715 12.7778 6.09529 12.7778 6.09529L12.7659 6.17677C12.7659 6.17677 13.2785 6.74122 13.4059 6.91011C13.5348 7.07752 13.6444 7.39752 13.6681 7.91603C13.6918 8.43455 13.6163 8.719 13.6163 8.719C13.6163 8.719 13.6681 9.41677 13.68 9.84196C13.6918 10.2671 13.6281 10.959 13.5985 11.1975C13.5689 11.436 13.3778 11.4597 13.36 11.4597C13.3422 11.4597 12.6563 11.4657 12.4874 11.4716C12.3185 11.4775 12.3303 11.3442 12.3303 11.3442V11.1294L12.3348 10.6346H5.01182ZM5.75553 4.11455C5.73331 4.20492 4.97627 5.92196 4.97627 5.92196C4.97627 5.92196 4.83405 6.10122 5.05479 6.08048C5.2053 6.06636 5.42257 6.04086 5.68056 6.01058C6.45099 5.92017 7.5846 5.78715 8.38812 5.78715C9.21331 5.78715 12.1955 6.01381 12.1955 6.01381C12.1955 6.01381 12.3985 6.11455 12.3081 5.87752C12.2177 5.64048 11.3926 4.07011 11.3926 4.07011C11.3926 4.07011 11.3481 3.99011 11.1555 3.96789C10.9644 3.94566 8.98664 3.91159 8.42219 3.91159C8.17331 3.91159 6.2296 3.99455 5.99256 4.03603C5.99256 4.03603 5.77775 4.02418 5.75553 4.11455ZM4.46812 9.57233C4.46812 9.76492 4.62368 9.92196 4.81775 9.92196C5.01182 9.92196 5.16886 9.76492 5.16738 9.57233C5.16738 9.37974 5.01182 9.2227 4.81775 9.2227C4.62516 9.2227 4.46812 9.37826 4.46812 9.57233ZM3.97034 7.33381C3.82368 8.0464 4.55405 8.14715 4.85182 8.12492C5.29182 8.09085 6.17331 7.32344 5.23553 6.68937C4.99256 6.5264 4.11701 6.62122 3.97034 7.33381ZM10.5674 8.45233C10.9407 8.29381 11.1215 8.14715 11.2459 7.91011C11.3659 7.68196 11.4711 7.41233 11.0652 7.36789C10.3303 7.28789 8.59108 7.26566 8.59108 7.26566C8.15108 7.27752 6.09479 7.36789 6.09479 7.36789C6.09479 7.36789 5.7096 7.40048 5.86812 7.71752C6.01331 8.00789 6.2296 8.41826 6.77182 8.4864C7.31405 8.55307 8.32886 8.60789 8.75997 8.599C8.84454 8.59731 8.93953 8.59649 9.04091 8.59561C9.56297 8.59107 10.2548 8.58507 10.5674 8.45233ZM12.1955 9.53826C12.1955 9.73085 12.3511 9.88789 12.5452 9.88789C12.7392 9.88789 12.8963 9.73085 12.8948 9.53826C12.8948 9.34566 12.7392 9.18863 12.5452 9.18863C12.3526 9.18863 12.1955 9.34418 12.1955 9.53826ZM11.9703 6.71455C11.0326 7.34715 11.914 8.11455 12.354 8.14863C12.6518 8.17085 13.3822 8.06863 13.2355 7.359C13.0889 6.6464 12.2133 6.55011 11.9703 6.71455Z" fill="white"/>
</svg>
