<svg width="153" height="18" viewBox="0 0 153 18" fill="none" xmlns="http://www.w3.org/2000/svg">
<path d="M9.94858 0.731418C9.47009 0.526642 8.97496 0.363159 8.4686 0.242757C7.96089 0.132589 7.44284 0.0770702 6.92331 0.0771485C5.57586 0.0784854 4.25779 0.471114 3.12924 1.20733C2.00069 1.94355 1.11023 2.99167 0.566052 4.22436C0.182586 5.10017 -0.0102247 6.04752 0.000417749 7.00355C0.000417749 8.01119 0.194016 9.08415 0.575382 9.93318C0.941088 10.7611 1.45938 11.5129 2.10318 12.1491C3.38248 13.4116 5.1084 14.1183 6.90582 14.1154C7.35696 14.1124 7.80681 14.0667 8.24935 13.9789C8.752 13.8783 9.24634 13.7399 9.72816 13.5649L9.94858 13.4879V9.96467C9.09722 10.7297 8.15138 11.1146 7.12041 11.1146C6.61017 11.1181 6.10443 11.0191 5.63321 10.8234C5.162 10.6276 4.73493 10.3392 4.37738 9.97517C4.02634 9.61475 3.74903 9.18927 3.561 8.72261C3.36157 8.17806 3.26163 7.60211 3.26593 7.02221C3.26258 6.49053 3.3628 5.96328 3.561 5.46992C3.74727 5.00704 4.02177 4.58479 4.36921 4.22669C4.72029 3.87284 5.13811 3.59218 5.59845 3.40098C6.32754 3.10005 7.12922 3.02098 7.90305 3.17367C8.67688 3.32637 9.38844 3.70403 9.94858 4.25934V0.731418Z" fill="black"/>
<path d="M37.7728 13.8784L33.418 8.12405L33.7317 8.05057C34.6484 7.83481 35.3505 7.42196 35.8147 6.8225C36.2788 6.22305 36.5144 5.423 36.5144 4.44451C36.5184 3.87354 36.4286 3.30579 36.2485 2.76393C36.0769 2.29542 35.811 1.86711 35.4671 1.50554C35.0953 1.12745 34.6456 0.834932 34.1493 0.648343C33.5411 0.425752 32.8969 0.318183 32.2494 0.331121H26.9814V13.8784H30.0895V7.95844L33.8997 13.8784H37.7728ZM32.6844 6.04578C32.2774 6.36067 31.6966 6.51928 30.9595 6.51928H30.0895V2.76393H30.9619C31.699 2.76393 32.2797 2.92371 32.6868 3.2386C33.0938 3.55349 33.3235 4.03865 33.3235 4.63811C33.3235 5.23756 33.1101 5.71456 32.6868 6.03761" fill="black"/>
<path d="M46.9216 2.34839L45.2643 3.33038C44.9533 2.79312 44.6579 2.44325 44.378 2.28075C44.0355 2.08098 43.6428 1.98382 43.2467 2.00085C42.7328 1.98302 42.2303 2.15441 41.8344 2.48251C41.6561 2.62545 41.5129 2.80727 41.4156 3.01405C41.3184 3.22084 41.2698 3.44712 41.2734 3.67559C41.2734 4.33647 41.7644 4.86867 42.7464 5.2722L44.0981 5.825C45.1967 6.26896 46.0002 6.81088 46.5087 7.45076C47.0172 8.09065 47.2715 8.87593 47.2715 9.8066C47.2715 11.0506 46.8567 12.0796 46.0271 12.8937C45.1975 13.7077 44.1614 14.1159 42.919 14.1182C41.745 14.1182 40.7731 13.7684 40.0033 13.0686C39.2336 12.3689 38.7624 11.3915 38.5898 10.1367L40.66 9.67948C40.7533 10.4733 40.9165 11.0226 41.1498 11.3274C41.572 11.9129 42.1862 12.2056 42.9925 12.2056C43.287 12.2137 43.5799 12.161 43.8531 12.0506C44.1262 11.9402 44.3736 11.7746 44.5797 11.5641C44.789 11.3503 44.9527 11.0964 45.0612 10.8176C45.1696 10.5388 45.2205 10.2409 45.2107 9.94189C45.2136 9.69651 45.1766 9.45229 45.1011 9.21881C45.0266 8.99717 44.9107 8.79175 44.7593 8.61352C44.5854 8.41258 44.3831 8.23813 44.1587 8.0957C43.8801 7.91564 43.5867 7.75958 43.2817 7.6292L41.9743 7.09272C40.1215 6.30978 39.1947 5.16373 39.194 3.6546C39.1865 3.16932 39.2873 2.68849 39.4891 2.24708C39.6908 1.80567 39.9884 1.41477 40.3602 1.10283C41.1385 0.412406 42.1081 0.0675832 43.2689 0.0683607C44.8293 0.0683607 46.0485 0.828371 46.9263 2.34839" fill="black"/>
<path d="M48.7012 7.01918C48.7012 5.11352 49.4009 3.47649 50.8004 2.10808C51.4545 1.44521 52.2361 0.921619 53.0979 0.568855C53.9598 0.216091 54.8842 0.0414546 55.8153 0.0554689C57.7451 0.0554689 59.4 0.745504 60.7801 2.12557C62.1602 3.50564 62.8541 5.16328 62.8619 7.09849C62.8774 8.02421 62.6998 8.94301 62.3404 9.79624C61.9809 10.6495 61.4475 11.4184 60.7743 12.0539C59.3748 13.4161 57.688 14.0972 55.7139 14.0972C53.9653 14.0972 52.3955 13.4923 51.0045 12.2825C49.4721 10.9436 48.7062 9.1892 48.707 7.01918H48.7012ZM50.7678 7.04601C50.7678 8.5427 51.2704 9.77349 52.2758 10.7384C53.2811 11.7033 54.436 12.1857 55.7407 12.1857C57.1612 12.1857 58.3597 11.6943 59.3363 10.7116C59.8126 10.2364 60.1878 9.66987 60.4393 9.04593C60.6908 8.42199 60.8135 7.75359 60.7999 7.081C60.7999 5.63717 60.3179 4.42699 59.3538 3.45044C58.3897 2.4739 57.2009 1.98251 55.7873 1.97629C55.1229 1.96288 54.4628 2.08689 53.8485 2.34057C53.2341 2.59424 52.6789 2.97209 52.2174 3.45044C51.2471 4.42077 50.7619 5.61929 50.7619 7.04601" fill="black"/>
<path d="M88.0933 2.25188H82.6644V5.50573H87.9358V7.42656H82.6644V11.9516H88.0933V13.8725H80.6211V0.331055H88.0933V2.25188Z" fill="black"/>
<path d="M21.6688 13.8725H25.1793L20.0256 0.331055H16.6236L11.4688 13.8725H14.9792L18.324 4.05141L21.6688 13.8725Z" fill="black"/>
<path d="M76.478 0.342773H74.2493L71.2637 11.0933L68.278 0.342773H66.0493L63.6387 13.8597H65.6575L67.2926 3.42752L70.3272 13.9938H72.2002L75.2348 3.42752L76.8699 13.8597H78.8887L76.478 0.342773Z" fill="black"/>
<path d="M108.053 5.16286L106.397 5.31913C106.064 3.05193 104.303 1.76205 102.054 1.76205C99.2628 1.76205 97.3093 3.71553 97.3093 7.02887C97.3093 10.4472 99.4085 12.2968 102.071 12.2968C104.321 12.2968 106.013 11.0933 106.397 8.92986L108.07 9.06981C107.565 11.9656 105.193 13.7267 102.122 13.7267C98.4604 13.7267 95.708 11.267 95.708 7.02887C95.708 2.79069 98.4079 0.331055 102.106 0.331055C105.158 0.331055 107.653 2.16208 108.053 5.16286Z" fill="black"/>
<path d="M116.721 7.95404V13.5521H115.205V12.5024C114.885 12.8933 114.479 13.2062 114.02 13.4177C113.561 13.6292 113.06 13.7338 112.554 13.7235C110.827 13.7235 109.639 12.8162 109.639 11.1939C109.639 9.34539 111.038 8.64797 112.904 8.543L115.206 8.40422V7.98437C115.206 6.64201 114.614 5.82213 113.34 5.82213C112.014 5.82213 111.404 6.72947 111.404 7.67064L109.888 7.60183C109.888 6.06588 111.161 4.49609 113.324 4.49609C115.518 4.49959 116.721 5.75565 116.721 7.95404ZM115.226 9.61013L113.098 9.75008C111.947 9.82005 111.162 10.1863 111.162 11.1636C111.162 12.1048 111.842 12.4535 112.784 12.4535C114.128 12.4535 115.226 11.7537 115.226 9.9775V9.61013Z" fill="black"/>
<path d="M119.583 18.0006V4.65744H121.013V6.12226C121.519 5.19859 122.635 4.5 124.17 4.5C126.612 4.5 128.461 6.24938 128.461 9.10555C128.461 11.9617 126.612 13.7274 124.17 13.7274C122.67 13.7274 121.589 13.0825 121.083 12.2276V18.0006H119.583ZM126.93 9.12187C126.93 6.97713 125.641 5.80854 123.948 5.80854C122.326 5.80854 121.105 6.83834 121.105 8.86063V9.38428C121.105 11.3902 122.326 12.4165 123.948 12.4165C125.636 12.4189 126.926 11.2503 126.926 9.12187H126.93Z" fill="black"/>
<path d="M132.558 1.44661C132.554 1.70759 132.448 1.95669 132.262 2.13971C132.076 2.32273 131.825 2.42488 131.564 2.42394C131.434 2.42594 131.306 2.40216 131.185 2.35398C131.065 2.30579 130.955 2.23416 130.862 2.14324C130.77 2.05231 130.696 1.94391 130.646 1.82433C130.596 1.70474 130.57 1.57635 130.569 1.44661C130.59 1.19808 130.704 0.966461 130.887 0.797652C131.071 0.628842 131.311 0.535156 131.561 0.535156C131.81 0.535156 132.05 0.628842 132.234 0.797652C132.418 0.966461 132.531 1.19808 132.552 1.44661H132.558ZM132.297 4.65615V13.5512H130.797V4.65615H132.297Z" fill="black"/>
<path d="M139.536 12.2267V13.569C139.138 13.6423 138.735 13.6774 138.331 13.674C136.71 13.674 135.575 12.8366 135.594 10.8831L135.611 5.96504H133.954V4.6565H135.611L135.628 1.58691H137.144L137.127 4.6565H139.516V5.96504H137.129L137.094 10.5869C137.094 11.8768 137.793 12.313 138.663 12.313C138.956 12.3097 139.248 12.2808 139.536 12.2267Z" fill="black"/>
<path d="M148.082 7.95445V13.5525H146.566V12.5029C146.246 12.8941 145.841 13.2076 145.382 13.4197C144.923 13.6318 144.422 13.737 143.917 13.7274C142.189 13.7274 141.001 12.8201 141.001 11.1978C141.001 9.34929 142.4 8.65187 144.266 8.54691L146.569 8.40812V7.98827C146.569 6.64591 145.976 5.82603 144.703 5.82603C143.377 5.82603 142.767 6.73338 142.767 7.67455L141.251 7.60574C141.251 6.06978 142.524 4.5 144.688 4.5C146.879 4.5 148.082 5.75606 148.082 7.95445ZM146.583 9.61054L144.454 9.75049C143.303 9.82046 142.518 10.1867 142.518 11.164C142.518 12.1052 143.198 12.4539 144.141 12.4539C145.484 12.4539 146.583 11.7541 146.583 9.97791V9.61054Z" fill="black"/>
<path d="M152.443 0V13.5519H150.943V0H152.443Z" fill="black"/>
</svg>
