<svg width="112" height="14" viewBox="0 0 112 14" fill="none" xmlns="http://www.w3.org/2000/svg">
<rect width="111.87" height="14" rx="7" fill="#FDCF33"/>
<path d="M19.5812 3.58978C17.5562 3.58978 16.0742 4.89718 16.0742 7.1097C16.0742 9.31308 17.5654 10.6296 19.5812 10.6296C21.2473 10.6296 22.582 9.65136 22.8489 8.05139L21.3578 7.9234C21.1737 8.87423 20.4741 9.37708 19.5352 9.37708C18.403 9.37708 17.5194 8.59081 17.5194 7.1097C17.5194 5.72002 18.3202 4.84233 19.5352 4.84233C20.4833 4.84233 21.1737 5.35432 21.3578 6.32344L22.8489 6.19544C22.6004 4.57719 21.2473 3.58978 19.5812 3.58978Z" fill="black"/>
<path d="M25.6459 3.69035L22.6912 10.5291H24.2468L24.799 9.21251H27.6986L28.2508 10.5291H29.8064L26.8425 3.69035H25.6459ZM27.2015 8.06054H25.3053L26.2534 5.78402L27.2015 8.06054Z" fill="black"/>
<path d="M34.4865 7.84111C35.1676 7.51198 35.5911 6.83542 35.5911 5.88459C35.5911 4.47662 34.6798 3.69035 33.3727 3.69035H30.4272V10.5291H31.8539V8.06968H33.0045L34.3484 10.5291H35.9501L34.4865 7.84111ZM31.8447 4.93375H33.1978C33.7501 4.93375 34.1459 5.26289 34.1459 5.88459C34.1459 6.488 33.7501 6.81714 33.1978 6.81714H31.8447V4.93375Z" fill="black"/>
<path d="M39.0571 3.58978C37.4186 3.58978 36.6178 4.55891 36.6178 5.68345C36.6178 7.00913 37.6396 7.40227 38.8822 7.71312C39.8119 7.94168 40.2997 8.09711 40.2997 8.61824C40.2997 9.17594 39.8579 9.40451 39.2136 9.40451C38.4772 9.40451 37.9249 8.98394 37.9065 8.36224L36.4613 8.43539C36.4798 9.8525 37.6304 10.6296 39.2136 10.6296C40.6035 10.6296 41.7541 9.98964 41.7541 8.53596C41.7541 7.31998 40.8152 6.84457 39.4161 6.49715C38.468 6.27772 38.063 6.15887 38.063 5.63774C38.063 5.15318 38.4312 4.8149 39.0847 4.8149C39.7383 4.8149 40.1433 5.18975 40.1617 5.76573L41.6068 5.69259C41.5792 4.37605 40.5575 3.58978 39.0571 3.58978Z" fill="black"/>
<path d="M46.0916 3.58978C44.0298 3.58978 42.511 4.96118 42.511 7.1097C42.511 9.25822 44.0298 10.6296 46.0916 10.6296C48.1535 10.6296 49.6631 9.25822 49.6631 7.1097C49.6631 4.96118 48.1535 3.58978 46.0916 3.58978ZM46.0916 4.84233C47.3435 4.84233 48.2179 5.69259 48.2179 7.1097C48.2179 8.51767 47.3435 9.37708 46.0916 9.37708C44.8306 9.37708 43.9561 8.51767 43.9561 7.1097C43.9561 5.69259 44.8306 4.84233 46.0916 4.84233Z" fill="black"/>
<path d="M56.855 3.69035L54.425 8.44453L51.9765 3.69035H50.7154V10.5291H52.1422V6.744L53.9555 10.4559H54.8944L56.6985 6.744V10.5291H58.1069V3.69035H56.855Z" fill="black"/>
<path d="M59.4348 3.69035V10.5291H63.8623V9.27651H60.8615V7.63083H63.4573V6.41486H60.8615V4.93375H63.8531V3.69035H59.4348Z" fill="black"/>
<path d="M70.2344 3.58978C68.2094 3.58978 66.7274 4.89718 66.7274 7.1097C66.7274 9.31308 68.2186 10.6296 70.2344 10.6296C71.9005 10.6296 73.2352 9.65136 73.5021 8.05139L72.011 7.9234C71.8269 8.87423 71.1273 9.37708 70.1884 9.37708C69.0562 9.37708 68.1726 8.59081 68.1726 7.1097C68.1726 5.72002 68.9734 4.84233 70.1884 4.84233C71.1365 4.84233 71.8269 5.35432 72.011 6.32344L73.5021 6.19544C73.2536 4.57719 71.9005 3.58978 70.2344 3.58978Z" fill="black"/>
<path d="M78.9635 8.06054C78.9635 6.58857 78.0614 5.71088 76.6899 5.71088C75.2723 5.71088 74.269 6.64343 74.269 8.17025C74.269 9.68793 75.2723 10.6296 76.7267 10.6296C77.8405 10.6296 78.7517 9.98964 78.9174 9.09366L77.5643 9.02966C77.4631 9.35879 77.1593 9.55079 76.6899 9.55079C76.0824 9.55079 75.7234 9.17594 75.6958 8.59081H78.9635V8.06054ZM76.6807 6.75314C77.2882 6.75314 77.5827 7.12799 77.6104 7.70397H75.6958C75.7326 7.10056 76.11 6.75314 76.6807 6.75314Z" fill="black"/>
<path d="M82.6711 5.75659C81.9439 5.75659 81.5021 6.04001 81.272 6.34172V5.8023H79.9741V10.5291H81.318V8.13368C81.318 7.48455 81.8979 7.0457 82.6711 7.0457V5.75659Z" fill="black"/>
<path d="M86.4033 5.8023H85.2895L85.2987 4.23891H83.9548L83.9456 5.8023H83.0712V6.95428H83.9364L83.9272 9.02966C83.918 10.1268 84.6268 10.6205 85.6577 10.6205C86.0259 10.6205 86.21 10.5931 86.4033 10.5656V9.37708C86.302 9.39536 86.1824 9.42279 85.9891 9.42279C85.6117 9.42279 85.2711 9.2308 85.2711 8.70967L85.2803 6.95428H86.4033V5.8023Z" fill="black"/>
<path d="M88.071 3.45265C87.6384 3.45265 87.2702 3.80921 87.2702 4.2572C87.2702 4.69605 87.62 5.05261 88.071 5.05261C88.522 5.05261 88.881 4.69605 88.881 4.2572C88.881 3.80921 88.522 3.45265 88.071 3.45265ZM87.3991 5.8023V10.5291H88.7429V5.8023H87.3991Z" fill="black"/>
<path d="M92.3526 3.37036C91.156 3.37036 90.3644 4.1292 90.3644 5.31774V5.8023H89.5084V6.95428H90.3644V10.5291H91.7083V6.95428H92.8129V5.8023H91.7083V5.28117C91.7083 4.83318 92.0397 4.53148 92.4999 4.53148C92.638 4.53148 92.73 4.54062 92.8221 4.54976V3.39779C92.684 3.3795 92.5552 3.37036 92.3526 3.37036ZM94.2304 3.45265C93.7978 3.45265 93.4296 3.80921 93.4296 4.2572C93.4296 4.69605 93.7794 5.05261 94.2304 5.05261C94.6815 5.05261 95.0404 4.69605 95.0404 4.2572C95.0404 3.80921 94.6815 3.45265 94.2304 3.45265ZM93.5585 5.8023V10.5291H94.9024V5.8023H93.5585Z" fill="black"/>
<path d="M100.618 8.06054C100.618 6.58857 99.716 5.71088 98.3445 5.71088C96.9269 5.71088 95.9236 6.64343 95.9236 8.17025C95.9236 9.68793 96.9269 10.6296 98.3813 10.6296C99.4951 10.6296 100.406 9.98964 100.572 9.09366L99.2189 9.02966C99.1177 9.35879 98.8139 9.55079 98.3445 9.55079C97.7369 9.55079 97.378 9.17594 97.3503 8.59081H100.618V8.06054ZM98.3352 6.75314C98.9428 6.75314 99.2373 7.12799 99.2649 7.70397H97.3503C97.3872 7.10056 97.7645 6.75314 98.3352 6.75314Z" fill="black"/>
<path d="M103.663 10.6296C104.335 10.6296 104.832 10.3645 105.08 10.0445V10.5291H106.342V3.42522H105.007V6.21372C104.758 5.9303 104.28 5.71088 103.663 5.71088C102.319 5.71088 101.371 6.68 101.371 8.17025C101.371 9.65136 102.319 10.6296 103.663 10.6296ZM103.884 9.47765C103.212 9.47765 102.733 9.01137 102.733 8.17025C102.733 7.32913 103.212 6.85371 103.884 6.85371C104.547 6.85371 105.007 7.3017 105.007 8.06054V8.27082C105.007 9.0388 104.547 9.47765 103.884 9.47765Z" fill="black"/>
<path d="M7.38874 12.963C10.682 12.963 13.3517 10.2933 13.3517 7.00007C13.3517 3.70682 10.682 1.03711 7.38874 1.03711C4.09549 1.03711 1.42578 3.70682 1.42578 7.00007C1.42578 10.2933 4.09549 12.963 7.38874 12.963Z" fill="white"/>
<path d="M4.22477 9.83422L4.2144 9.30533H10.622L10.6181 9.7383V9.92626C10.6181 9.92626 10.6077 10.0429 10.7555 10.0377C10.9033 10.0326 11.5035 10.0274 11.519 10.0274C11.5346 10.0274 11.7018 10.0066 11.7277 9.79792C11.7537 9.58922 11.8094 8.98385 11.799 8.61181C11.7887 8.23978 11.7433 7.62922 11.7433 7.62922C11.7433 7.62922 11.8094 7.38033 11.7887 6.92663C11.7679 6.47293 11.672 6.19292 11.5592 6.04644C11.4477 5.89867 10.9992 5.40478 10.9992 5.40478L11.0096 5.33348C11.0096 5.33348 11.147 5.37885 11.2844 5.31793C11.4218 5.257 11.6305 5.11959 11.5138 4.96144C11.3972 4.8033 11.274 4.75793 11.1224 4.75793C10.9707 4.75793 10.8476 4.86033 10.8216 4.93552C10.7957 5.012 10.8216 5.18052 10.8216 5.18052L10.8061 5.27255L10.7192 5.21163C10.7192 5.21163 10.587 4.74885 10.3731 4.34052C10.1592 3.93348 9.8844 3.46941 9.87403 3.45515C9.86366 3.43959 9.81829 3.37867 9.66014 3.30737C9.502 3.23607 8.64255 3.0883 7.43052 3.11422C6.21848 3.14015 5.08422 3.16996 4.83922 3.48107C4.83922 3.48107 4.53848 3.95941 4.41663 4.23941C4.29477 4.51941 4.05496 5.20644 4.0394 5.21163C4.02385 5.21681 3.94218 5.2933 3.94218 5.2933L3.92663 5.20126C3.92663 5.20126 3.97718 5.06385 3.9007 4.92644C3.82422 4.78904 3.6207 4.7333 3.45737 4.79422C3.29403 4.85515 3.17737 4.98218 3.17737 5.05867C3.17737 5.13515 3.27459 5.31792 3.47292 5.35422C3.67126 5.38922 3.74774 5.38922 3.75292 5.37496C3.75811 5.35941 3.75811 5.502 3.75811 5.502C3.75811 5.502 3.61033 5.64978 3.412 5.88441C3.21366 6.11904 3.01533 6.37311 2.9894 6.73478C2.96348 7.09644 3.01533 7.44774 3.01533 7.44774C3.01533 7.44774 2.96996 8.28774 2.98422 8.64941C2.99977 9.01107 3.05033 9.57626 3.08663 9.72404C3.12163 9.87181 3.16311 10.1103 3.34589 10.1103C3.52866 10.1103 4.03811 10.1155 4.03811 10.1155C4.19626 10.1103 4.22088 10.0183 4.22088 9.92755C4.22088 9.83681 4.22477 9.83422 4.22477 9.83422ZM4.18329 5.18181C4.18329 5.18181 4.8457 3.67941 4.86514 3.60033C4.88459 3.52126 5.07255 3.53163 5.07255 3.53163C5.27996 3.49533 6.9807 3.42274 7.19848 3.42274C7.69237 3.42274 9.42292 3.45255 9.59014 3.472C9.75866 3.49144 9.79755 3.56144 9.79755 3.56144C9.79755 3.56144 10.5196 4.93552 10.5987 5.14293C10.6777 5.35033 10.5001 5.26218 10.5001 5.26218C10.5001 5.26218 7.8907 5.06385 7.16866 5.06385C6.23014 5.06385 4.777 5.27126 4.252 5.32052C4.05885 5.33867 4.18329 5.18181 4.18329 5.18181ZM4.04459 8.68181C3.87477 8.68181 3.73866 8.54441 3.73866 8.37589C3.73866 8.20607 3.87607 8.06996 4.04459 8.06996C4.2144 8.06996 4.35051 8.20737 4.35051 8.37589C4.35181 8.54441 4.2144 8.68181 4.04459 8.68181ZM4.0744 7.10941C3.81385 7.12885 3.17477 7.0407 3.30311 6.41718C3.43144 5.79367 4.19755 5.7107 4.41014 5.8533C5.2307 6.40811 4.4594 7.07959 4.0744 7.10941ZM9.66922 6.92144C9.56033 7.12885 9.40218 7.25718 9.07551 7.39589C8.74885 7.53459 7.94903 7.51515 7.49403 7.52422C7.11681 7.532 6.22885 7.48404 5.7544 7.4257C5.27996 7.36607 5.0907 7.007 4.96366 6.75293C4.82496 6.47552 5.162 6.447 5.162 6.447C5.162 6.447 6.96126 6.36793 7.34626 6.35755C7.34626 6.35755 8.86811 6.377 9.51107 6.447C9.86626 6.48589 9.77422 6.72181 9.66922 6.92144ZM10.8061 8.652C10.6363 8.652 10.5001 8.51459 10.5001 8.34607C10.5001 8.17626 10.6376 8.04015 10.8061 8.04015C10.9759 8.04015 11.112 8.17755 11.112 8.34607C11.1133 8.51459 10.9759 8.652 10.8061 8.652ZM10.6388 7.13015C10.2538 7.10033 9.48255 6.42885 10.3031 5.87533C10.5157 5.73144 11.2818 5.8157 11.4101 6.43922C11.5385 7.06015 10.8994 7.14959 10.6388 7.13015Z" fill="black"/>
</svg>
