<svg width="19" height="19" viewBox="0 0 19 19" fill="none" xmlns="http://www.w3.org/2000/svg">
<g clip-path="url(#clip0_9265_15092)">
<path d="M9.01002 1.50586C4.8653 1.50586 1.50146 4.87854 1.50146 9.03416C1.50146 13.1898 4.8653 16.5625 9.01002 16.5625C13.1547 16.5625 16.5186 13.1898 16.5186 9.03416C16.5186 4.87854 13.1547 1.50586 9.01002 1.50586ZM9.01002 15.0568C5.69875 15.0568 3.00318 12.3541 3.00318 9.03416C3.00318 5.71418 5.69875 3.01152 9.01002 3.01152C12.3213 3.01152 15.0169 5.71418 15.0169 9.03416C15.0169 12.3541 12.3213 15.0568 9.01002 15.0568ZM11.9233 6.24116L7.50831 10.6678L6.0967 9.25248C5.80387 8.95888 5.33083 8.95888 5.03799 9.25248C4.74516 9.54609 4.74516 10.0204 5.03799 10.314L6.98271 12.2638C7.27554 12.5574 7.74858 12.5574 8.04142 12.2638L12.9896 7.30265C13.2824 7.00905 13.2824 6.53477 12.9896 6.24116C12.6967 5.94756 12.2162 5.94756 11.9233 6.24116Z" fill="#44BC8A"/>
</g>
<defs>
<clipPath id="clip0_9265_15092">
<rect width="18.0205" height="18.0679" fill="white"/>
</clipPath>
</defs>
</svg>
