<svg width="201" height="160" viewBox="0 0 201 160" fill="none" xmlns="http://www.w3.org/2000/svg">
<g clip-path="url(#clip0_978_96556)">
<rect width="200.988" height="160" fill="white"/>
<path fill-rule="evenodd" clip-rule="evenodd" d="M100.492 122.222C155.974 122.222 200.952 133.553 200.952 147.531C200.952 161.508 155.974 172.839 100.492 172.839C45.0094 172.839 0.03125 161.508 0.03125 147.531C0.03125 133.553 45.0094 122.222 100.492 122.222Z" fill="url(#paint0_linear_978_96556)"/>
<path fill-rule="evenodd" clip-rule="evenodd" d="M81.1003 132.981C98.5508 131.076 112.878 130.874 113.099 132.534C113.32 134.194 99.353 137.082 81.9004 138.988C64.4499 140.893 50.1226 141.095 49.9015 139.435C49.6826 137.775 63.6498 134.885 81.1003 132.981Z" fill="#E6F1FF"/>
<path fill-rule="evenodd" clip-rule="evenodd" d="M141.285 137.147C155.327 137.147 166.711 138.655 166.711 140.512C166.711 142.369 155.329 143.877 141.285 143.877C127.244 143.877 115.859 142.369 115.859 140.512C115.859 138.655 127.244 137.147 141.285 137.147Z" fill="#E6F1FF"/>
<path fill-rule="evenodd" clip-rule="evenodd" d="M73.1964 151.83C72.6211 150.657 71.3618 149.904 69.9668 149.904C69.1668 149.904 68.4285 150.16 67.826 150.595C67.031 148.79 65.2334 147.531 63.1421 147.531C60.6655 147.531 58.71 149.318 58.1248 151.639C57.7544 153.109 58.0013 153.457 59.7519 153.457C62.9717 153.457 69.626 153.459 72.3569 153.459C73.4779 153.462 73.7248 152.911 73.1964 151.83Z" fill="#EAF4FF"/>
<path fill-rule="evenodd" clip-rule="evenodd" d="M28.0024 136.297C27.316 135.463 26.2938 134.909 25.1308 134.909C24.3308 134.909 23.5925 135.166 22.9876 135.601C22.1925 133.796 20.395 132.537 18.3037 132.537C16.0197 132.537 14.1111 134.045 13.4271 136.107C12.7827 138.048 13.3703 138.463 14.6666 138.463C17.8074 138.463 24.3358 138.463 27.2592 138.463C28.4716 138.465 29.1999 137.754 28.0024 136.297Z" fill="#EAF4FF"/>
<path fill-rule="evenodd" clip-rule="evenodd" d="M173.091 138.92C173.553 137.337 175.264 135.693 177.301 135.693C178.31 135.693 179.243 136.068 180.006 136.705C181.009 134.068 183.278 132.226 185.917 132.226C189.241 132.226 191.98 135.145 192.339 138.898C192.298 138.475 192.932 140.89 190.997 140.89C187.407 140.89 177.422 140.89 173.907 140.89C173.138 140.893 172.654 140.419 173.091 138.92Z" fill="#EAF4FF"/>
<path d="M110.36 67.6618C110.402 67.6179 110.444 67.5746 110.485 67.5323C110.546 67.6951 110.627 67.8671 110.733 68.0401C110.833 68.2014 110.937 68.3505 111.038 68.4845L109.378 68.6938C109.635 68.4165 110.014 68.02 110.36 67.6618ZM109.107 69.0302C109.107 69.0303 109.107 69.0275 109.109 69.0216C109.108 69.0272 109.107 69.0302 109.107 69.0302Z" stroke="black"/>
<path d="M100.681 80.5448L107.563 68.6787L109.473 70.068L101.086 85.2124L92.0665 77.9971L93.6669 76.041L99.9507 80.6957L100.4 81.0287L100.681 80.5448Z" stroke="black"/>
<path d="M74.5593 18.7702C75.3226 17.2923 76.3782 16.407 77.4958 16.2665L77.4959 16.2665C78.5979 16.1282 79.7069 16.7225 80.6054 17.9687C81.5012 19.2111 82.1335 21.0419 82.2503 23.1707L82.2504 23.171C82.3683 25.2972 81.9458 27.2707 81.1887 28.737C80.4254 30.2151 79.3693 31.1003 78.2507 31.2397L78.2503 31.2398C77.1482 31.3781 76.0392 30.7838 75.1407 29.5376C74.2449 28.2952 73.6126 26.4644 73.4958 24.3356L73.4958 24.3356C73.379 22.2093 73.8021 20.2363 74.5593 18.7702Z" stroke="black"/>
<path d="M77.582 17.7653L77.5819 17.7653C76.7314 17.8715 75.9094 18.5455 75.307 19.7073C74.7107 20.8577 74.3753 22.4119 74.4685 24.0909M77.582 17.7653L81.2726 23.1685C81.3645 24.8476 81.0292 26.4018 80.4331 27.5521C79.831 28.714 79.0096 29.3879 78.1592 29.494C77.3252 29.5982 76.4703 29.1531 75.7651 28.1788C75.0625 27.2081 74.5618 25.77 74.4685 24.0909M77.582 17.7653C78.4146 17.6612 79.2695 18.1062 79.9751 19.0806M77.582 17.7653L79.9751 19.0806M74.4685 24.0909L73.9693 24.1186M74.4685 24.0909L73.9693 24.1186M73.9693 24.1186C74.1644 27.6297 76.0656 30.2593 78.2212 29.9902C80.3767 29.721 81.9644 26.6544 81.7718 23.1408L77.5199 17.2692C75.3644 17.5383 73.7743 20.605 73.9693 24.1186ZM79.9751 19.0806C80.678 20.0514 81.1792 21.4893 81.2725 23.1682L79.9751 19.0806Z" stroke="black"/>
<path d="M78.8893 29.4025L78.8893 29.4025C78.0566 29.5066 77.2017 29.0617 76.4961 28.0872C75.7932 27.1164 75.292 25.6784 75.1987 23.9995C75.1066 22.3203 75.442 20.7661 76.0381 19.6157C76.6402 18.4538 77.4616 17.78 78.312 17.6738C79.1461 17.5696 80.0009 18.0147 80.7061 18.989C81.4087 19.9597 81.9094 21.3978 82.0027 23.077C82.0959 24.756 81.7606 26.3101 81.1642 27.4605C80.5618 28.6223 79.7398 29.2963 78.8893 29.4025Z" stroke="black"/>
<g filter="url(#filter0_i_978_96556)">
<path fill-rule="evenodd" clip-rule="evenodd" d="M77.4335 15.7704C80.1274 15.4322 82.5076 18.7334 82.7496 23.1433C82.994 27.5507 81.0064 31.4001 78.3126 31.7359C75.6187 32.0741 73.2385 28.7729 72.9965 24.363C72.7545 19.9556 74.7422 16.1087 77.4335 15.7704Z" fill="#D3E4FF"/>
</g>
<g filter="url(#filter1_ii_978_96556)">
<path fill-rule="evenodd" clip-rule="evenodd" d="M82.94 15.574C85.7746 15.7666 88.1005 18.3617 88.3425 21.732C88.656 26.1147 87.1622 30.5765 85.1326 30.8678C84.4412 30.9666 79.098 31.6184 78.2634 31.7246C77.903 31.7691 82.7474 28.1691 82.8363 25.6259C83.219 14.7567 76.1696 15.9098 77.8709 15.6975C78.7301 15.5913 81.4264 15.4703 82.94 15.574Z" fill="#D3E4FF"/>
</g>
<g filter="url(#filter2_i_978_96556)">
<path fill-rule="evenodd" clip-rule="evenodd" d="M75.0218 20.3407L79.7552 20.0468C79.7552 20.0468 78.0178 19.9029 78.9314 20.098C80.6487 18.939 78.8267 17.1312 77.5836 17.2752C74.5564 17.6258 75.0218 20.3407 75.0218 20.3407Z" fill="#D3E4FF"/>
</g>
<path d="M83.7687 29.2085C83.1383 29.3372 82.3494 29.4985 81.5571 29.6611C80.6704 29.8431 79.7789 30.0268 79.1005 30.1682C78.7614 30.239 78.4746 30.2993 78.2681 30.3437C78.1964 30.3591 78.1338 30.3727 78.0816 30.3842C78.0044 30.3463 77.8996 30.2931 77.7742 30.2251C77.4883 30.0701 77.0978 29.8398 76.6814 29.5397C75.836 28.9304 74.942 28.0754 74.543 27.0293C73.9777 25.546 73.799 23.8841 73.7645 22.6041C73.7474 21.9677 73.766 21.434 73.788 21.0759C73.791 21.027 73.7941 20.9816 73.7971 20.9397C73.9417 20.92 74.1291 20.8993 74.3515 20.8779C74.9225 20.8232 75.6873 20.768 76.4571 20.7187C77.2257 20.6695 77.9945 20.6264 78.5714 20.5955C78.6866 20.5894 78.794 20.5837 78.8923 20.5786C78.8666 20.7494 78.8418 20.9501 78.8226 21.1778C78.757 21.9574 78.7575 23.055 79.0178 24.3434L83.7687 29.2085ZM83.7687 29.2085C83.3239 28.9416 82.7937 28.6042 82.2521 28.2154C81.5598 27.7184 80.8363 27.1286 80.2475 26.4862C79.6653 25.8511 79.175 25.1217 79.0178 24.3434L83.7687 29.2085ZM73.6479 20.9203C73.5829 20.9632 73.4192 21.0118 73.2906 21.0187C73.3075 20.7531 73.3258 20.5843 73.3326 20.5412L73.8344 20.567C73.8328 20.5974 73.8285 20.6258 73.8224 20.6522C73.8231 20.6464 73.8237 20.6411 73.8243 20.6365L73.826 20.6229C73.8264 20.6194 73.8266 20.6181 73.8266 20.6186L73.8259 20.6224L73.8236 20.6347L73.8236 20.6347C73.8228 20.6386 73.8197 20.6534 73.8142 20.6724C73.8116 20.6809 73.8052 20.7022 73.794 20.7283C73.788 20.7415 73.7719 20.7732 73.7613 20.7913C73.7435 20.8184 73.688 20.8844 73.6479 20.9203ZM73.54 20.9844C73.5399 20.9844 73.5409 20.9841 73.5429 20.9835C73.541 20.9841 73.54 20.9844 73.54 20.9844Z" stroke="black"/>
<path d="M113.43 71.3213L117.433 84.2392L109.428 70.2297L113.43 71.3213Z" stroke="black"/>
<g filter="url(#filter3_i_978_96556)">
<path fill-rule="evenodd" clip-rule="evenodd" d="M45.4318 109.43L39.9766 112.96L117.037 99.3062L121.481 95.6025L45.4318 109.43Z" fill="#D3E4FF"/>
</g>
<path fill-rule="evenodd" clip-rule="evenodd" d="M43.7658 110.726L119.692 97.3308L118.704 98.0716L42.5312 111.467L43.7658 110.726Z" fill="#94B2EC" fill-opacity="0.4"/>
<mask id="path-19-inside-1_978_96556" fill="white">
<path fill-rule="evenodd" clip-rule="evenodd" d="M26.9141 24.9854L28.1486 29.6767L28.7733 32.3829L38.7659 31.8989L28.3955 32.8866L26.9141 24.9854Z"/>
</mask>
<path d="M26.9141 24.9854L27.8811 24.7309L25.9312 25.1696L26.9141 24.9854ZM28.1486 29.6767L29.123 29.4518L29.1196 29.4369L29.1157 29.4222L28.1486 29.6767ZM28.7733 32.3829L27.7989 32.6078L27.9869 33.4221L28.8217 33.3817L28.7733 32.3829ZM38.7659 31.8989L38.8607 32.8944L38.7175 30.9001L38.7659 31.8989ZM28.3955 32.8866L27.4127 33.0709L27.581 33.9687L28.4904 33.8821L28.3955 32.8866ZM25.947 25.2398L27.1816 29.9312L29.1157 29.4222L27.8811 24.7309L25.947 25.2398ZM27.1743 29.9016L27.7989 32.6078L29.7477 32.158L29.123 29.4518L27.1743 29.9016ZM28.8217 33.3817L38.8143 32.8978L38.7175 30.9001L28.7249 31.3841L28.8217 33.3817ZM38.6711 30.9034L28.3007 31.8911L28.4904 33.8821L38.8607 32.8944L38.6711 30.9034ZM29.3784 32.7023L27.8969 24.8011L25.9312 25.1696L27.4127 33.0709L29.3784 32.7023Z" fill="black" mask="url(#path-19-inside-1_978_96556)"/>
<g filter="url(#filter4_i_978_96556)">
<path fill-rule="evenodd" clip-rule="evenodd" d="M39.9691 112.963C39.9691 112.963 36.3135 95.3824 32.3456 77.5774C28.3901 59.8317 24.0469 37.1996 24.0469 37.1996L28.395 33.3799C28.395 33.3799 33.9037 56.8861 37.5308 75.1083C41.0148 92.612 45.2931 109.645 45.2931 109.645L39.9691 112.963Z" fill="#D3E4FF"/>
</g>
<path fill-rule="evenodd" clip-rule="evenodd" d="M27.6548 35.1084L43.8276 110.494L42.9789 111.065L26.9141 35.6022L27.6548 35.1084Z" fill="#94B2EC"/>
<path fill-rule="evenodd" clip-rule="evenodd" d="M25.9282 36.8369L41.9622 111.729L41.1713 112.207L25.1875 37.3307L25.9282 36.8369Z" fill="#94B2EC"/>
<path fill-rule="evenodd" clip-rule="evenodd" d="M45.1409 109.438L41.4141 112.084L45.5576 109.6L45.1409 109.438Z" fill="#E9F0FF"/>
<path fill-rule="evenodd" clip-rule="evenodd" d="M28.3878 33.4265V32.894L23.3359 36.8814L24.0248 37.4444L24.2001 37.0839L28.3878 33.4265Z" fill="#94B2EC"/>
<g filter="url(#filter5_i_978_96556)">
<path fill-rule="evenodd" clip-rule="evenodd" d="M22.0703 30.6791L26.7518 24.6914L28.4117 32.871L23.3098 37.1284L22.0703 30.6791Z" fill="#BFD4FE"/>
</g>
<g filter="url(#filter6_i_978_96556)">
<path fill-rule="evenodd" clip-rule="evenodd" d="M28.3867 33.4226V32.8786L66.9969 29.2295L66.703 29.6962L28.3867 33.4226Z" fill="#D3E4FF"/>
</g>
<g filter="url(#filter7_i_978_96556)">
<path fill-rule="evenodd" clip-rule="evenodd" d="M26.7578 24.7135L28.3936 32.8863L103.455 25.9728L101.574 18.0715C101.574 18.0715 31.9393 24.2691 26.9467 24.7135C26.7615 24.7308 26.7578 24.7135 26.7578 24.7135Z" fill="#E4F0FF"/>
</g>
<path d="M40.2431 87.1001L30.8379 39.5916L117.226 92.7908L120.361 95.7773L45.5622 109.102L40.2431 87.1001Z" fill="#D3E4FF" stroke="#E9F0FF"/>
<path d="M93.8359 100.205L93.9308 100.696L93.8359 100.205C83.3354 102.235 72.4723 103.12 64.2289 103.498C60.1085 103.686 56.6454 103.748 54.2132 103.763C52.9971 103.77 52.0389 103.765 51.3852 103.759C51.085 103.756 50.849 103.753 50.6818 103.75C50.6099 103.608 50.5103 103.41 50.3856 103.159C50.1067 102.598 49.7023 101.771 49.2014 100.712C48.1996 98.5934 46.8123 95.546 45.2719 91.8334C42.1901 84.406 38.4997 74.3266 36.0551 63.7027L35.5678 63.8148L36.0551 63.7027C34.2032 55.6558 32.4656 48.1021 31.1909 42.5602L29.6697 35.9458L29.2512 34.1262L29.235 34.0556L104.418 28.4876C104.436 28.5879 104.457 28.7046 104.48 28.8368C104.573 29.3532 104.708 30.1078 104.883 31.061C105.232 32.9675 105.735 35.6688 106.353 38.8488C107.589 45.2079 109.284 53.4855 111.121 61.1511C112.855 68.3899 115.327 77.1036 117.364 84.003C118.383 87.4537 119.294 90.4525 119.949 92.5886C120.277 93.6567 120.542 94.5092 120.724 95.0948C120.765 95.2258 120.802 95.3434 120.834 95.4471C120.818 95.4497 120.801 95.4524 120.784 95.4551C120.379 95.5203 119.785 95.6164 119.03 95.74C117.519 95.9872 115.361 96.3444 112.774 96.7846C107.601 97.6648 100.709 98.8773 93.8359 100.205Z" fill="#F1F7FF"/>
<path d="M93.8359 100.205L93.9308 100.696L93.8359 100.205C83.3354 102.235 72.4723 103.12 64.2289 103.498C60.1085 103.686 56.6454 103.748 54.2132 103.763C52.9971 103.77 52.0389 103.765 51.3852 103.759C51.085 103.756 50.849 103.753 50.6818 103.75C50.6099 103.608 50.5103 103.41 50.3856 103.159C50.1067 102.598 49.7023 101.771 49.2014 100.712C48.1996 98.5934 46.8123 95.546 45.2719 91.8334C42.1901 84.406 38.4997 74.3266 36.0551 63.7027L35.5678 63.8148L36.0551 63.7027C34.2032 55.6558 32.4656 48.1021 31.1909 42.5602L29.6697 35.9458L29.2512 34.1262L29.235 34.0556L104.418 28.4876C104.436 28.5879 104.457 28.7046 104.48 28.8368C104.573 29.3532 104.708 30.1078 104.883 31.061C105.232 32.9675 105.735 35.6688 106.353 38.8488C107.589 45.2079 109.284 53.4855 111.121 61.1511C112.855 68.3899 115.327 77.1036 117.364 84.003C118.383 87.4537 119.294 90.4525 119.949 92.5886C120.277 93.6567 120.542 94.5092 120.724 95.0948C120.765 95.2258 120.802 95.3434 120.834 95.4471C120.818 95.4497 120.801 95.4524 120.784 95.4551C120.379 95.5203 119.785 95.6164 119.03 95.74C117.519 95.9872 115.361 96.3444 112.774 96.7846C107.601 97.6648 100.709 98.8773 93.8359 100.205Z" fill="url(#paint1_linear_978_96556)"/>
<path d="M93.8359 100.205L93.9308 100.696L93.8359 100.205C83.3354 102.235 72.4723 103.12 64.2289 103.498C60.1085 103.686 56.6454 103.748 54.2132 103.763C52.9971 103.77 52.0389 103.765 51.3852 103.759C51.085 103.756 50.849 103.753 50.6818 103.75C50.6099 103.608 50.5103 103.41 50.3856 103.159C50.1067 102.598 49.7023 101.771 49.2014 100.712C48.1996 98.5934 46.8123 95.546 45.2719 91.8334C42.1901 84.406 38.4997 74.3266 36.0551 63.7027L35.5678 63.8148L36.0551 63.7027C34.2032 55.6558 32.4656 48.1021 31.1909 42.5602L29.6697 35.9458L29.2512 34.1262L29.235 34.0556L104.418 28.4876C104.436 28.5879 104.457 28.7046 104.48 28.8368C104.573 29.3532 104.708 30.1078 104.883 31.061C105.232 32.9675 105.735 35.6688 106.353 38.8488C107.589 45.2079 109.284 53.4855 111.121 61.1511C112.855 68.3899 115.327 77.1036 117.364 84.003C118.383 87.4537 119.294 90.4525 119.949 92.5886C120.277 93.6567 120.542 94.5092 120.724 95.0948C120.765 95.2258 120.802 95.3434 120.834 95.4471C120.818 95.4497 120.801 95.4524 120.784 95.4551C120.379 95.5203 119.785 95.6164 119.03 95.74C117.519 95.9872 115.361 96.3444 112.774 96.7846C107.601 97.6648 100.709 98.8773 93.8359 100.205Z" stroke="white"/>
<mask id="mask0_978_96556" style="mask-type:alpha" maskUnits="userSpaceOnUse" x="28" y="27" width="94" height="78">
<path d="M93.8373 100.205L93.9322 100.696L93.8373 100.205C83.3368 102.235 72.4737 103.12 64.2303 103.498C60.1099 103.686 56.6469 103.748 54.2146 103.763C52.9986 103.77 52.0403 103.765 51.3866 103.759C51.0864 103.756 50.8504 103.753 50.6832 103.75C50.6113 103.608 50.5117 103.41 50.387 103.159C50.1081 102.598 49.7037 101.771 49.2028 100.712C48.2011 98.5934 46.8138 95.546 45.2733 91.8334C42.1916 84.406 38.5012 74.3266 36.0565 63.7027L35.5692 63.8148L36.0565 63.7027C34.2043 55.6545 32.4192 48.0563 31.0971 42.4703C30.4361 39.6773 29.8908 37.3873 29.5107 35.7954C29.3207 34.9995 29.172 34.3781 29.0708 33.9557L29.0534 33.8832L104.419 28.4865C104.437 28.5871 104.458 28.7041 104.482 28.8368C104.574 29.3532 104.71 30.1078 104.884 31.061C105.233 32.9675 105.736 35.6688 106.354 38.8488C107.59 45.2079 109.286 53.4855 111.122 61.1511C112.856 68.3899 115.329 77.1036 117.366 84.003C118.384 87.4537 119.295 90.4525 119.951 92.5886C120.279 93.6567 120.543 94.5092 120.725 95.0948C120.766 95.2258 120.803 95.3434 120.835 95.4471C120.819 95.4497 120.802 95.4524 120.785 95.4551C120.38 95.5203 119.786 95.6164 119.031 95.74C117.52 95.9872 115.363 96.3444 112.776 96.7846C107.602 97.6648 100.71 98.8773 93.8373 100.205Z" fill="#F1F7FF" stroke="white"/>
</mask>
<g mask="url(#mask0_978_96556)">
<g filter="url(#filter8_f_978_96556)">
<path fill-rule="evenodd" clip-rule="evenodd" d="M26.3008 29.0528L27.314 35.4267C27.314 35.4267 28.0223 42.1964 38.8908 42.0158C66.936 41.5505 110.372 35.4267 110.372 35.4267L103.4 20.8096L26.3008 29.0528Z" fill="#BFD4FE" fill-opacity="0.6"/>
</g>
</g>
<g filter="url(#filter9_iii_978_96556)">
<path fill-rule="evenodd" clip-rule="evenodd" d="M28.4141 33.411C28.4141 33.411 40.253 38.0369 49.6332 37.5777C60.8283 37.0295 69.9739 29.2715 69.9739 29.2715L28.4141 33.411Z" fill="#E4F0FF"/>
</g>
<g filter="url(#filter10_di_978_96556)">
<path fill-rule="evenodd" clip-rule="evenodd" d="M46.9141 37.5778C46.9141 37.5778 58.8523 37.6469 64.4992 31.963C70.1462 26.279 71.3585 18.8123 71.3585 18.8123L131.359 15.1086C131.359 15.1086 128.66 18.9235 121.976 24.4914C114.882 30.4025 107.902 32.8864 107.902 32.8864C107.902 32.8864 57.9733 38.8099 46.9141 37.5778Z" fill="#E4F0FF"/>
</g>
<path fill-rule="evenodd" clip-rule="evenodd" d="M46.4271 32.9158L54.7827 31.8837C55.5284 31.8096 56.195 32.3528 56.2691 33.101C56.3432 33.8467 55.8 34.5133 55.0518 34.5874L46.6963 35.6195C45.9506 35.6936 45.2839 35.1504 45.2099 34.4022C45.1358 33.6541 45.6815 32.9899 46.4271 32.9158Z" fill="#94B2EC"/>
<mask id="mask1_978_96556" style="mask-type:alpha" maskUnits="userSpaceOnUse" x="171" y="71" width="70" height="77">
<path d="M171.516 94.5334L173.237 72.9839C180.494 72.4256 195.316 71.2834 196.553 71.1804C198.099 71.0516 222.574 74.4008 223.604 74.6584C224.429 74.8645 229.444 87.1966 231.849 93.3368L240.222 142.416L202.994 147.053L193.562 141.127L191.938 136.252C191.938 136.252 195.469 136.424 199.328 132.033C203.188 127.643 203.859 125.006 203.859 125.006L182.188 127.002C182.188 127.002 178.637 121.924 177.656 111.01C176.675 100.096 177.656 94.0022 177.656 94.0022L171.516 94.5334Z" fill="#C4C4C4"/>
</mask>
<g mask="url(#mask1_978_96556)">
</g>
<g filter="url(#filter11_i_978_96556)">
<path d="M48.9517 22.7861L42.9795 23.3031C42.9795 23.3031 42.4507 24.241 42.6708 26.9605C42.8909 29.68 44.2873 31.4146 44.2873 31.4146C44.353 31.3895 46.3194 31.2487 47.686 31.1028C48.4261 31.0679 50.3358 30.8648 50.3358 30.8648L50.0474 30.0006C50.0474 30.0006 49.2797 28.2722 48.9517 26.1426C48.6238 24.013 48.9517 22.7861 48.9517 22.7861Z" fill="#E3EFFF"/>
</g>
<g filter="url(#filter12_i_978_96556)">
<path fill-rule="evenodd" clip-rule="evenodd" d="M46.5039 47.2811L46.1395 47.3261L39.4491 51.0222L40.4013 54.2262L43.9438 52.529L47.9463 65.996L51.92 65.5042L46.5039 47.2811Z" fill="#DAE9FE"/>
<path fill-rule="evenodd" clip-rule="evenodd" d="M77.1565 59.236L70.4198 60.07L71.8228 57.0805C72.6265 55.6833 73.182 54.5787 73.489 53.7664C73.7961 52.9543 73.9739 52.1925 74.0228 51.4814C74.0716 50.7703 73.9893 50.0562 73.7759 49.3385C73.27 47.6362 72.3823 46.3924 71.1127 45.6066C69.843 44.8208 68.2833 44.5424 66.4336 44.7714C65.2814 44.9139 64.3184 45.3102 63.5444 45.9594C62.7704 46.6089 62.2615 47.4398 62.018 48.4518C61.7742 49.4637 61.8187 50.5288 62.1508 51.6469L66.1246 51.155C65.8816 50.3374 65.867 49.6319 66.0809 49.0389C66.2948 48.4459 66.7031 48.1117 67.3068 48.0371C67.9182 47.9613 68.4452 48.1081 68.8882 48.4771C69.3309 48.8462 69.6691 49.4229 69.902 50.2072C70.1898 51.1752 69.8997 52.5649 69.0323 54.3765L65.3605 61.2152L66.1788 63.9688L78.1236 62.4901L77.1565 59.236Z" fill="#DAE9FE"/>
<path fill-rule="evenodd" clip-rule="evenodd" d="M55.0474 73.8834L51.1005 74.373L51.1134 74.4105L48.3691 86.9689L49.5003 89.5116L56.0944 88.6936L57.44 92.5515L61.3869 92.0616L60.0416 88.2038L61.7749 87.9888L60.6429 84.7426L58.9095 84.9576L55.0474 73.8834ZM52.914 80.309L53.0119 79.8541L54.9624 85.4474L51.8937 85.8281L52.914 80.309Z" fill="#DAE9FE"/>
<path fill-rule="evenodd" clip-rule="evenodd" d="M76.0448 81.4083C76.2773 80.7209 76.8544 80.32 77.7759 80.2058C79.3999 80.0042 80.5495 80.8712 81.2244 82.8063C81.9545 84.8997 81.6557 86.0285 80.3283 86.1933C79.7427 86.2658 79.2022 86.1295 78.7069 85.7834C78.2116 85.4378 77.8284 84.9349 77.5577 84.2754L73.599 84.7665C73.9507 85.7986 74.535 86.6915 75.3518 87.4448C76.1684 88.1981 77.1271 88.7517 78.2279 89.1052C79.3287 89.4587 80.4141 89.5691 81.4837 89.4366C82.6861 89.2873 83.6401 88.9043 84.3454 88.2868C85.0508 87.6698 85.4825 86.8586 85.6411 85.8533C85.7997 84.8482 85.6758 83.7627 85.2694 82.5975C84.596 80.6666 83.618 79.2227 82.3352 78.266C81.0528 77.3092 79.5641 76.9359 77.8698 77.1461C77.4324 77.2003 77.0087 77.3227 76.5987 77.5133C76.1886 77.7037 75.8735 77.904 75.6537 78.1144L74.7808 74.4555L81.5389 73.617L80.3982 70.3458L70.4309 71.5825L72.6312 81.0106L76.0448 81.4083Z" fill="#DAE9FE"/>
<path fill-rule="evenodd" clip-rule="evenodd" d="M90.6216 52.111L92.5498 51.8725C93.3099 51.7784 93.9628 51.8967 94.508 52.227C95.053 52.5574 95.4621 53.1816 95.7348 54.0994C95.9258 54.742 95.8749 55.2953 95.5822 55.7598C95.2895 56.2241 94.7945 56.4997 94.0969 56.586C93.4776 56.6627 92.8959 56.5227 92.3511 56.1661C91.8064 55.81 91.4508 55.3521 91.2846 54.793L87.2991 55.2864C87.6043 56.3126 88.1232 57.1978 88.8562 57.9418C89.5895 58.686 90.5036 59.226 91.5988 59.5617C92.6941 59.8976 93.8021 59.9963 94.9229 59.8574C96.8354 59.6209 98.2344 58.9415 99.1198 57.8196C100.005 56.6981 100.207 55.3235 99.7228 53.6966C99.4104 52.6453 98.8895 51.7948 98.1601 51.1456C97.4308 50.4961 96.5595 50.0524 95.5461 49.8146C96.2794 49.2742 96.7678 48.6276 97.0115 47.875C97.255 47.1226 97.2604 46.354 97.0272 45.5698C96.546 43.9511 95.6231 42.7461 94.2584 41.9548C92.8937 41.1634 91.2591 40.8857 89.3544 41.1213C88.2884 41.2534 87.3733 41.5851 86.6091 42.1165C85.8445 42.6481 85.3233 43.3204 85.0449 44.1333C84.7663 44.9465 84.7698 45.8328 85.0549 46.7922L89.0169 46.3017C88.8731 45.8179 88.9468 45.3892 89.238 45.0157C89.5295 44.6422 89.9374 44.423 90.4628 44.358C91.1054 44.2785 91.6596 44.4068 92.125 44.7427C92.5907 45.0789 92.9127 45.5471 93.0912 46.1478C93.55 47.6915 93.0387 48.5549 91.5574 48.7382L89.6879 48.9697L90.6216 52.111Z" fill="#DAE9FE"/>
</g>
<path fill-rule="evenodd" clip-rule="evenodd" d="M131.237 72.7307C130.835 73.1628 124.197 63.457 124.197 63.457L120.309 64.6299L124.934 75.8691C126.676 80.1023 132.559 82.8168 135.264 79.1239C135.783 78.4157 134.624 70.9884 133.41 69.534C132.546 70.7686 131.638 72.2986 131.237 72.7307Z" fill="#F19885"/>
<path fill-rule="evenodd" clip-rule="evenodd" d="M104.816 68.9627C104.816 68.9627 105.802 67.5966 107.004 65.9305C108.877 63.3364 111.097 60.1364 111.097 60.1364L115.743 67.0822L104.816 68.9627Z" fill="#D2E1FF"/>
<path fill-rule="evenodd" clip-rule="evenodd" d="M104.818 68.9627C104.818 68.9627 105.019 68.6251 106.222 66.9591C107.094 65.7505 107.431 65.3438 107.431 65.3438C107.431 65.3438 107.331 66.1205 107.691 67.0545C108.05 67.9884 108.704 68.2517 108.704 68.2517L104.818 68.9627Z" fill="#7393D0"/>
<path fill-rule="evenodd" clip-rule="evenodd" d="M113.372 64.0382L111.178 60.0338L161.165 28.6312L167.011 37.9089L115.921 67.243L113.372 64.0382Z" fill="#BFD4FE"/>
<path fill-rule="evenodd" clip-rule="evenodd" d="M111.413 59.8984C112.253 59.4291 113.88 60.6819 115.046 62.697C116.213 64.7098 116.476 66.7214 115.636 67.1907C114.795 67.66 113.169 66.4072 112.002 64.3921C110.836 62.3793 110.573 60.3677 111.413 59.8984Z" fill="#BFD4FE"/>
<path fill-rule="evenodd" clip-rule="evenodd" d="M110.977 61.58L161.087 30.0281L161.287 31.4967L111.267 62.7633L110.977 61.58Z" fill="#94B2EC"/>
<path fill-rule="evenodd" clip-rule="evenodd" d="M111.919 64.2368L161.342 33.6187L162.096 35.5089L112.574 65.3937L111.919 64.2368Z" fill="#94B2EC"/>
<path fill-rule="evenodd" clip-rule="evenodd" d="M114.451 66.4975L164.217 36.5781L165.36 37.6687L115.285 67.1321L114.451 66.4975Z" fill="#94B2EC"/>
<path fill-rule="evenodd" clip-rule="evenodd" d="M161.764 28.4163C162.844 27.8009 164.943 29.4556 166.451 32.1121C167.959 34.7686 168.304 37.4201 167.223 38.0355C166.143 38.6509 164.044 36.9962 162.536 34.3397C161.028 31.6832 160.683 29.0317 161.764 28.4163Z" fill="#E4F0FF"/>
<path fill-rule="evenodd" clip-rule="evenodd" d="M163.92 31.8169C164.191 31.6618 164.715 32.0804 165.092 32.7545C165.468 33.4285 165.555 34.1031 165.284 34.2583C165.013 34.4135 164.488 33.9948 164.112 33.3208C163.735 32.6467 163.648 31.9721 163.92 31.8169Z" fill="#94B2EC"/>
<path fill-rule="evenodd" clip-rule="evenodd" d="M152.156 129.035L156.623 134.761L160.099 133.487L155.332 125.504" fill="#F5AE9F"/>
<path fill-rule="evenodd" clip-rule="evenodd" d="M131.686 66.8973C131.686 66.8973 132.597 67.8307 135.81 70.2218C137.489 71.4694 141.935 73.7977 141.935 73.7977C141.935 73.7977 151.07 61.5467 143.839 55.5836C138.674 51.081 131.686 66.8973 131.686 66.8973Z" fill="url(#paint2_linear_978_96556)"/>
<path fill-rule="evenodd" clip-rule="evenodd" d="M129.455 125.78L128.961 128.99L129.959 136.644H133.899L133.539 126.994L129.455 125.78Z" fill="#F5AE9F"/>
<path fill-rule="evenodd" clip-rule="evenodd" d="M131.494 81.5381C131.494 81.5381 126.378 94.4261 125.229 102.188C123.641 112.917 128.428 131.708 128.428 131.708L133.86 131.214C133.86 131.214 137.226 111.65 136.609 108.07C138.757 100.189 145.604 84.7682 146.222 82.7164C145.434 82.6596 131.494 81.5381 131.494 81.5381Z" fill="#D8E8FE"/>
<path fill-rule="evenodd" clip-rule="evenodd" d="M131.494 81.5381C131.494 81.5381 126.378 94.4261 125.229 102.188C123.641 112.917 128.428 131.708 128.428 131.708L133.86 131.214C133.86 131.214 137.226 111.65 136.609 108.07C138.757 100.189 145.604 84.7682 146.222 82.7164C145.434 82.6596 131.494 81.5381 131.494 81.5381Z" fill="url(#paint3_linear_978_96556)"/>
<path fill-rule="evenodd" clip-rule="evenodd" d="M151.049 141.504C151.049 141.504 153.733 141.25 156.234 141.257C160.152 141.27 163.226 136.284 163.226 136.284L159.841 132.791C159.841 132.791 158.402 134.037 157.315 134.507C156.37 134.914 155.755 134.553 155.755 134.553C155.755 134.553 156.155 136.731 154.505 138.047C153.641 138.737 153.128 139.015 150.802 139.652C150.209 139.815 150.061 141.504 151.049 141.504Z" fill="#7D89A1"/>
<path fill-rule="evenodd" clip-rule="evenodd" d="M121.646 139.799C121.646 139.799 122.95 138.251 125.844 137.33C127.708 136.737 129.548 135.602 129.548 135.602C129.548 135.602 130 136.152 131.029 136.095C132.212 136.029 134.148 135.29 134.148 135.29L135.011 139.799L122.14 140.293C122.14 140.293 120.935 140.478 121.646 139.799Z" fill="#7D89A1"/>
<path fill-rule="evenodd" clip-rule="evenodd" d="M133.092 82.5927C133.092 82.5927 131.647 100.332 135.845 109.221C138.561 116.875 151.61 130.247 151.61 130.247L157.289 126.914C157.289 126.914 150.292 112.23 150.129 104.615C150.023 99.698 150.044 97.7719 150.129 93.3654C153.043 87.8672 150.129 82.0493 150.129 82.0493L133.092 82.5927Z" fill="#E1EEFE"/>
<path fill-rule="evenodd" clip-rule="evenodd" d="M133.092 82.5927C133.092 82.5927 131.647 100.332 135.845 109.221C138.561 116.875 151.61 130.247 151.61 130.247L157.289 126.914C157.289 126.914 150.292 112.23 150.129 104.615C150.023 99.698 150.044 97.7719 150.129 93.3654C153.043 87.8672 150.129 82.0493 150.129 82.0493L133.092 82.5927Z" fill="url(#paint4_linear_978_96556)"/>
<path fill-rule="evenodd" clip-rule="evenodd" d="M138.388 55.3089C138.388 55.3089 138.014 55.3089 140.001 55.3089C141.019 54.6607 141.472 55.4447 142.779 54.136C144.021 52.8916 146.325 52.1289 146.325 52.1289C146.325 52.1289 150.366 52.741 151.112 59.2595C152.201 68.7854 150.371 82.099 150.371 82.099C150.371 82.099 146.186 83.9163 140.742 83.5805C133.754 83.1508 131.109 82.099 131.109 82.099C132.964 60.0002 135.988 57.2225 138.388 55.3089Z" fill="url(#paint5_linear_978_96556)"/>
<path fill-rule="evenodd" clip-rule="evenodd" d="M120.635 53.3176C120.635 53.3176 120.131 52.6877 120.21 52.0377C120.295 51.3443 121.436 51.2631 121.684 51.7065C121.869 52.039 122.663 52.8604 122.663 52.8604L121.081 53.7966L120.635 53.3176Z" fill="#DA8C7F"/>
<path fill-rule="evenodd" clip-rule="evenodd" d="M120.766 54.1338C120.766 54.1338 120.221 53.044 119.458 53.0439C117.998 53.0505 115.971 54.3518 115.862 55.0057C115.753 55.6596 115.753 57.2943 116.298 56.9674C117.934 55.9233 120.766 54.1338 120.766 54.1338Z" fill="#DA8C7F"/>
<path fill-rule="evenodd" clip-rule="evenodd" d="M139.263 54.0755L137.767 55.1582L137.528 55.1635L137.29 55.1688L139.152 52.9779L139.263 54.0755Z" fill="#38669D"/>
<path fill-rule="evenodd" clip-rule="evenodd" d="M138.699 50.8799C138.699 50.8799 139.376 52.9933 139.287 55.8831C139.267 56.5691 145.254 52.6682 145.254 52.6682L143.053 46.5347L138.699 50.8799Z" fill="#F19885"/>
<path fill-rule="evenodd" clip-rule="evenodd" d="M137.801 56.8729C137.785 56.589 137.758 54.9193 137.758 54.9193L138.984 56.3255C138.984 56.3255 137.809 56.9922 137.801 56.8729Z" fill="#244F83"/>
<path fill-rule="evenodd" clip-rule="evenodd" d="M138.895 51.6027L139.222 53.6993C139.222 53.6993 140.487 52.9254 140.833 52.581C141.85 51.5649 143.016 49.1598 143.016 49.1598L143.321 47.6712C143.321 47.6712 142.36 46.0528 141.434 47.4611C140.504 48.8694 138.895 51.6027 138.895 51.6027Z" fill="#E98772"/>
<path fill-rule="evenodd" clip-rule="evenodd" d="M135.139 42.0674C135.139 42.0674 135.004 43.7931 135.301 45.0817C135.834 47.3549 135.735 48.795 136.098 50.345C136.462 51.895 136.762 52.3697 138.133 52.0483C140.016 51.6068 142.127 50.022 142.577 49.1534C142.797 48.731 142.945 46.429 142.418 44.2856C141.86 42.0216 140.685 39.9276 135.139 42.0674Z" fill="#F5AE9F"/>
<path fill-rule="evenodd" clip-rule="evenodd" d="M136.972 46.1487L136.982 46.1463C137.154 46.107 137.325 46.2136 137.364 46.3845L137.417 46.6133C137.456 46.784 137.348 46.9545 137.176 46.9937L137.166 46.9961C136.994 47.0354 136.823 46.9288 136.784 46.758L136.732 46.5292C136.693 46.3584 136.8 46.188 136.972 46.1487Z" fill="#363E52"/>
<path fill-rule="evenodd" clip-rule="evenodd" d="M135.988 45.2651L136.298 45.6382C136.298 45.6382 136.71 45.5539 137.15 45.4433C137.589 45.3325 138.002 45.2484 138.002 45.2484C138.002 45.2484 137.496 44.9663 137.053 45.0213C136.61 45.0764 135.988 45.2651 135.988 45.2651Z" fill="#363E52"/>
<path fill-rule="evenodd" clip-rule="evenodd" d="M142.131 39.3388C140.341 39.2559 137.686 39.9104 137.074 40.0881C136.462 40.2658 136.047 39.8927 135.847 39.5036C135.647 39.1145 134.132 40.5595 134.144 41.5379C134.155 42.5163 134.325 43.2396 135.065 43.611C135.892 43.4172 137.959 42.9328 138.944 42.484C139.928 42.0351 140.098 42.7584 139.958 43.5543C139.817 44.3503 140.09 45.0494 140.187 45.4627C140.328 45.7443 140.556 45.7313 140.825 45.8583C141.428 46.1434 141.968 45.1544 142.082 46.1085C142.179 46.4646 142.227 46.3916 142.458 46.7834C142.628 47.5066 142.883 47.6648 143.004 48.1815C143.135 48.7379 143.842 48.9661 143.842 48.9661C143.842 48.9661 144.933 46.7437 144.921 45.6612C144.898 43.7043 145.687 39.5037 142.131 39.3388Z" fill="#363E52"/>
<path fill-rule="evenodd" clip-rule="evenodd" d="M141.506 45.2562C142.104 44.9848 142.638 45.2196 142.909 45.813C143.18 46.4063 143.091 47.2921 142.493 47.5635C141.895 47.8349 141.187 47.4167 140.915 46.8233C140.642 46.23 140.906 45.5277 141.506 45.2562Z" fill="#F5AE9F"/>
<path fill-rule="evenodd" clip-rule="evenodd" d="M141.48 46.1074C141.48 46.1074 141.536 46.073 141.62 46.0261C141.915 45.8656 142.701 45.8797 142.469 46.5434C142.17 47.3981 141.627 47.0106 141.852 46.6669C142.076 46.3231 141.48 46.1074 141.48 46.1074Z" fill="#CD7162"/>
<path d="M137.206 50.4129C137.206 50.4129 138.04 50.2537 138.322 49.5626" stroke="#CD7162" stroke-width="2" stroke-linecap="round"/>
<path fill-rule="evenodd" clip-rule="evenodd" d="M135.866 46.5736C135.726 47.3696 135.537 47.9588 135.244 48.5724C135.04 49.0008 135.422 49.1849 136.042 49.0395" fill="#F5AE9F"/>
<path d="M135.866 46.5736C135.726 47.3696 135.537 47.9588 135.244 48.5724C135.04 49.0008 135.422 49.1849 136.042 49.0395" stroke="#CD7162" stroke-width="2" stroke-linecap="round"/>
<path fill-rule="evenodd" clip-rule="evenodd" d="M137.072 56.1288L137.29 55.1686L137.767 55.158L137.072 56.1288Z" fill="#244F82"/>
<path fill-rule="evenodd" clip-rule="evenodd" d="M146.778 52.3317C146.778 52.3317 145.489 49.8725 145.401 49.9604C145.312 50.0484 137.758 54.9194 137.758 54.9194L138.76 57.0471L146.778 52.3317Z" fill="#38669D"/>
<path fill-rule="evenodd" clip-rule="evenodd" d="M134.136 70.3088L132.222 73.3952C132.222 73.3952 128.212 71.1696 125.37 68.6421C122.284 66.5434 119.2 63.9246 118.354 63.748C115.093 62.6612 111.393 62.4353 110.494 63.0094C109.955 63.3534 111.448 66.8955 112.052 67.0217C113.14 67.2487 117.555 67.6746 117.555 67.6746C117.555 67.6746 130.057 84.1555 133.457 84.136C135.444 84.1245 142.099 77.0372 142.099 77.0372L134.136 70.3088Z" fill="#F5AE9F"/>
<path fill-rule="evenodd" clip-rule="evenodd" d="M132.625 71.9166C132.625 71.9166 133.464 72.2936 136.229 75.1913C137.674 76.7036 140.891 79.4433 140.891 79.4433C140.891 79.4433 147.656 71.0371 148.882 65.5698C149.426 63.1457 145.401 59.1598 142.425 60.1356C138.525 61.4142 132.625 71.9166 132.625 71.9166Z" fill="url(#paint6_linear_978_96556)"/>
<path fill-rule="evenodd" clip-rule="evenodd" d="M117.054 64.0382C117.054 64.0382 115.881 62.0934 116.108 61.3185C116.335 60.5437 114.855 60.7618 114.698 62.0331C114.541 63.3044 115.019 64.1181 115.019 64.1181L117.054 64.0382Z" fill="#F5AE9F"/>
</g>
<defs>
<filter id="filter0_i_978_96556" x="72.9766" y="15.7466" width="9.79297" height="20.0132" filterUnits="userSpaceOnUse" color-interpolation-filters="sRGB">
<feFlood flood-opacity="0" result="BackgroundImageFix"/>
<feBlend mode="normal" in="SourceGraphic" in2="BackgroundImageFix" result="shape"/>
<feColorMatrix in="SourceAlpha" type="matrix" values="0 0 0 0 0 0 0 0 0 0 0 0 0 0 0 0 0 0 127 0" result="hardAlpha"/>
<feOffset dy="4"/>
<feGaussianBlur stdDeviation="14.5"/>
<feComposite in2="hardAlpha" operator="arithmetic" k2="-1" k3="1"/>
<feColorMatrix type="matrix" values="0 0 0 0 0.580392 0 0 0 0 0.698039 0 0 0 0 0.92549 0 0 0 1 0"/>
<feBlend mode="normal" in2="shape" result="effect1_innerShadow_978_96556"/>
</filter>
<filter id="filter1_ii_978_96556" x="77.6055" y="12.5344" width="13.7773" height="22.1907" filterUnits="userSpaceOnUse" color-interpolation-filters="sRGB">
<feFlood flood-opacity="0" result="BackgroundImageFix"/>
<feBlend mode="normal" in="SourceGraphic" in2="BackgroundImageFix" result="shape"/>
<feColorMatrix in="SourceAlpha" type="matrix" values="0 0 0 0 0 0 0 0 0 0 0 0 0 0 0 0 0 0 127 0" result="hardAlpha"/>
<feOffset dx="4" dy="3"/>
<feGaussianBlur stdDeviation="1.5"/>
<feComposite in2="hardAlpha" operator="arithmetic" k2="-1" k3="1"/>
<feColorMatrix type="matrix" values="0 0 0 0 0.74902 0 0 0 0 0.831373 0 0 0 0 0.996078 0 0 0 1 0"/>
<feBlend mode="normal" in2="shape" result="effect1_innerShadow_978_96556"/>
<feColorMatrix in="SourceAlpha" type="matrix" values="0 0 0 0 0 0 0 0 0 0 0 0 0 0 0 0 0 0 127 0" result="hardAlpha"/>
<feOffset dx="1" dy="-6"/>
<feGaussianBlur stdDeviation="1.5"/>
<feComposite in2="hardAlpha" operator="arithmetic" k2="-1" k3="1"/>
<feColorMatrix type="matrix" values="0 0 0 0 0.74902 0 0 0 0 0.831373 0 0 0 0 0.996078 0 0 0 1 0"/>
<feBlend mode="normal" in2="effect1_innerShadow_978_96556" result="effect2_innerShadow_978_96556"/>
</filter>
<filter id="filter2_i_978_96556" x="74.9961" y="17.2671" width="4.75781" height="7.07349" filterUnits="userSpaceOnUse" color-interpolation-filters="sRGB">
<feFlood flood-opacity="0" result="BackgroundImageFix"/>
<feBlend mode="normal" in="SourceGraphic" in2="BackgroundImageFix" result="shape"/>
<feColorMatrix in="SourceAlpha" type="matrix" values="0 0 0 0 0 0 0 0 0 0 0 0 0 0 0 0 0 0 127 0" result="hardAlpha"/>
<feOffset dy="4"/>
<feGaussianBlur stdDeviation="2"/>
<feComposite in2="hardAlpha" operator="arithmetic" k2="-1" k3="1"/>
<feColorMatrix type="matrix" values="0 0 0 0 0.74902 0 0 0 0 0.831373 0 0 0 0 0.996078 0 0 0 1 0"/>
<feBlend mode="normal" in2="shape" result="effect1_innerShadow_978_96556"/>
</filter>
<filter id="filter3_i_978_96556" x="39.9766" y="95.6025" width="81.5039" height="21.3572" filterUnits="userSpaceOnUse" color-interpolation-filters="sRGB">
<feFlood flood-opacity="0" result="BackgroundImageFix"/>
<feBlend mode="normal" in="SourceGraphic" in2="BackgroundImageFix" result="shape"/>
<feColorMatrix in="SourceAlpha" type="matrix" values="0 0 0 0 0 0 0 0 0 0 0 0 0 0 0 0 0 0 127 0" result="hardAlpha"/>
<feOffset dy="4"/>
<feGaussianBlur stdDeviation="6"/>
<feComposite in2="hardAlpha" operator="arithmetic" k2="-1" k3="1"/>
<feColorMatrix type="matrix" values="0 0 0 0 0.682353 0 0 0 0 0.780392 0 0 0 0 0.956863 0 0 0 1 0"/>
<feBlend mode="normal" in2="shape" result="effect1_innerShadow_978_96556"/>
</filter>
<filter id="filter4_i_978_96556" x="24.0469" y="33.3799" width="21.2461" height="83.5833" filterUnits="userSpaceOnUse" color-interpolation-filters="sRGB">
<feFlood flood-opacity="0" result="BackgroundImageFix"/>
<feBlend mode="normal" in="SourceGraphic" in2="BackgroundImageFix" result="shape"/>
<feColorMatrix in="SourceAlpha" type="matrix" values="0 0 0 0 0 0 0 0 0 0 0 0 0 0 0 0 0 0 127 0" result="hardAlpha"/>
<feOffset dy="4"/>
<feGaussianBlur stdDeviation="21.5"/>
<feComposite in2="hardAlpha" operator="arithmetic" k2="-1" k3="1"/>
<feColorMatrix type="matrix" values="0 0 0 0 0.580392 0 0 0 0 0.698039 0 0 0 0 0.92549 0 0 0 1 0"/>
<feBlend mode="normal" in2="shape" result="effect1_innerShadow_978_96556"/>
</filter>
<filter id="filter5_i_978_96556" x="22.0703" y="24.6914" width="6.33984" height="16.437" filterUnits="userSpaceOnUse" color-interpolation-filters="sRGB">
<feFlood flood-opacity="0" result="BackgroundImageFix"/>
<feBlend mode="normal" in="SourceGraphic" in2="BackgroundImageFix" result="shape"/>
<feColorMatrix in="SourceAlpha" type="matrix" values="0 0 0 0 0 0 0 0 0 0 0 0 0 0 0 0 0 0 127 0" result="hardAlpha"/>
<feOffset dy="4"/>
<feGaussianBlur stdDeviation="9"/>
<feComposite in2="hardAlpha" operator="arithmetic" k2="-1" k3="1"/>
<feColorMatrix type="matrix" values="0 0 0 0 0.580392 0 0 0 0 0.698039 0 0 0 0 0.92549 0 0 0 1 0"/>
<feBlend mode="normal" in2="shape" result="effect1_innerShadow_978_96556"/>
</filter>
<filter id="filter6_i_978_96556" x="28.3867" y="29.2295" width="38.6094" height="8.19312" filterUnits="userSpaceOnUse" color-interpolation-filters="sRGB">
<feFlood flood-opacity="0" result="BackgroundImageFix"/>
<feBlend mode="normal" in="SourceGraphic" in2="BackgroundImageFix" result="shape"/>
<feColorMatrix in="SourceAlpha" type="matrix" values="0 0 0 0 0 0 0 0 0 0 0 0 0 0 0 0 0 0 127 0" result="hardAlpha"/>
<feOffset dy="4"/>
<feGaussianBlur stdDeviation="8.5"/>
<feComposite in2="hardAlpha" operator="arithmetic" k2="-1" k3="1"/>
<feColorMatrix type="matrix" values="0 0 0 0 0.580392 0 0 0 0 0.698039 0 0 0 0 0.92549 0 0 0 1 0"/>
<feBlend mode="normal" in2="shape" result="effect1_innerShadow_978_96556"/>
</filter>
<filter id="filter7_i_978_96556" x="26.7578" y="18.0715" width="76.6992" height="18.8147" filterUnits="userSpaceOnUse" color-interpolation-filters="sRGB">
<feFlood flood-opacity="0" result="BackgroundImageFix"/>
<feBlend mode="normal" in="SourceGraphic" in2="BackgroundImageFix" result="shape"/>
<feColorMatrix in="SourceAlpha" type="matrix" values="0 0 0 0 0 0 0 0 0 0 0 0 0 0 0 0 0 0 127 0" result="hardAlpha"/>
<feOffset dy="4"/>
<feGaussianBlur stdDeviation="10"/>
<feComposite in2="hardAlpha" operator="arithmetic" k2="-1" k3="1"/>
<feColorMatrix type="matrix" values="0 0 0 0 0.74902 0 0 0 0 0.831373 0 0 0 0 0.996078 0 0 0 1 0"/>
<feBlend mode="normal" in2="shape" result="effect1_innerShadow_978_96556"/>
</filter>
<filter id="filter8_f_978_96556" x="6.30078" y="0.80957" width="124.07" height="61.2097" filterUnits="userSpaceOnUse" color-interpolation-filters="sRGB">
<feFlood flood-opacity="0" result="BackgroundImageFix"/>
<feBlend mode="normal" in="SourceGraphic" in2="BackgroundImageFix" result="shape"/>
<feGaussianBlur stdDeviation="10" result="effect1_foregroundBlur_978_96556"/>
</filter>
<filter id="filter9_iii_978_96556" x="28.4141" y="29.2715" width="41.5586" height="15.3381" filterUnits="userSpaceOnUse" color-interpolation-filters="sRGB">
<feFlood flood-opacity="0" result="BackgroundImageFix"/>
<feBlend mode="normal" in="SourceGraphic" in2="BackgroundImageFix" result="shape"/>
<feColorMatrix in="SourceAlpha" type="matrix" values="0 0 0 0 0 0 0 0 0 0 0 0 0 0 0 0 0 0 127 0" result="hardAlpha"/>
<feOffset dy="4"/>
<feGaussianBlur stdDeviation="24"/>
<feComposite in2="hardAlpha" operator="arithmetic" k2="-1" k3="1"/>
<feColorMatrix type="matrix" values="0 0 0 0 0.74902 0 0 0 0 0.831373 0 0 0 0 0.996078 0 0 0 1 0"/>
<feBlend mode="normal" in2="shape" result="effect1_innerShadow_978_96556"/>
<feColorMatrix in="SourceAlpha" type="matrix" values="0 0 0 0 0 0 0 0 0 0 0 0 0 0 0 0 0 0 127 0" result="hardAlpha"/>
<feOffset dy="7"/>
<feGaussianBlur stdDeviation="12.5"/>
<feComposite in2="hardAlpha" operator="arithmetic" k2="-1" k3="1"/>
<feColorMatrix type="matrix" values="0 0 0 0 0.580392 0 0 0 0 0.698039 0 0 0 0 0.92549 0 0 0 0.74 0"/>
<feBlend mode="normal" in2="effect1_innerShadow_978_96556" result="effect2_innerShadow_978_96556"/>
<feColorMatrix in="SourceAlpha" type="matrix" values="0 0 0 0 0 0 0 0 0 0 0 0 0 0 0 0 0 0 127 0" result="hardAlpha"/>
<feOffset dy="-1"/>
<feComposite in2="hardAlpha" operator="arithmetic" k2="-1" k3="1"/>
<feColorMatrix type="matrix" values="0 0 0 0 0.886275 0 0 0 0 0.933333 0 0 0 0 1 0 0 0 1 0"/>
<feBlend mode="normal" in2="effect2_innerShadow_978_96556" result="effect3_innerShadow_978_96556"/>
</filter>
<filter id="filter10_di_978_96556" x="45.9141" y="-11.8914" width="117.445" height="49.6377" filterUnits="userSpaceOnUse" color-interpolation-filters="sRGB">
<feFlood flood-opacity="0" result="BackgroundImageFix"/>
<feColorMatrix in="SourceAlpha" type="matrix" values="0 0 0 0 0 0 0 0 0 0 0 0 0 0 0 0 0 0 127 0" result="hardAlpha"/>
<feOffset dx="-1" dy="-1"/>
<feColorMatrix type="matrix" values="0 0 0 0 0.952941 0 0 0 0 0.968627 0 0 0 0 1 0 0 0 1 0"/>
<feBlend mode="normal" in2="BackgroundImageFix" result="effect1_dropShadow_978_96556"/>
<feBlend mode="normal" in="SourceGraphic" in2="effect1_dropShadow_978_96556" result="shape"/>
<feColorMatrix in="SourceAlpha" type="matrix" values="0 0 0 0 0 0 0 0 0 0 0 0 0 0 0 0 0 0 127 0" result="hardAlpha"/>
<feOffset dx="46" dy="-27"/>
<feGaussianBlur stdDeviation="16"/>
<feComposite in2="hardAlpha" operator="arithmetic" k2="-1" k3="1"/>
<feColorMatrix type="matrix" values="0 0 0 0 0.74902 0 0 0 0 0.831373 0 0 0 0 0.996078 0 0 0 0.89 0"/>
<feBlend mode="normal" in2="shape" result="effect2_innerShadow_978_96556"/>
</filter>
<filter id="filter11_i_978_96556" x="42.6172" y="22.7861" width="7.71875" height="12.6284" filterUnits="userSpaceOnUse" color-interpolation-filters="sRGB">
<feFlood flood-opacity="0" result="BackgroundImageFix"/>
<feBlend mode="normal" in="SourceGraphic" in2="BackgroundImageFix" result="shape"/>
<feColorMatrix in="SourceAlpha" type="matrix" values="0 0 0 0 0 0 0 0 0 0 0 0 0 0 0 0 0 0 127 0" result="hardAlpha"/>
<feOffset dy="4"/>
<feGaussianBlur stdDeviation="55"/>
<feComposite in2="hardAlpha" operator="arithmetic" k2="-1" k3="1"/>
<feColorMatrix type="matrix" values="0 0 0 0 0.694118 0 0 0 0 0.788235 0 0 0 0 0.964706 0 0 0 0.6 0"/>
<feBlend mode="normal" in2="shape" result="effect1_innerShadow_978_96556"/>
</filter>
<filter id="filter12_i_978_96556" x="39.4492" y="41.0403" width="399.035" height="346.888" filterUnits="userSpaceOnUse" color-interpolation-filters="sRGB">
<feFlood flood-opacity="0" result="BackgroundImageFix"/>
<feBlend mode="normal" in="SourceGraphic" in2="BackgroundImageFix" result="shape"/>
<feColorMatrix in="SourceAlpha" type="matrix" values="0 0 0 0 0 0 0 0 0 0 0 0 0 0 0 0 0 0 127 0" result="hardAlpha"/>
<feOffset dy="4"/>
<feGaussianBlur stdDeviation="10"/>
<feComposite in2="hardAlpha" operator="arithmetic" k2="-1" k3="1"/>
<feColorMatrix type="matrix" values="0 0 0 0 0.580392 0 0 0 0 0.698039 0 0 0 0 0.92549 0 0 0 1 0"/>
<feBlend mode="normal" in2="shape" result="effect1_innerShadow_978_96556"/>
</filter>
<linearGradient id="paint0_linear_978_96556" x1="100.492" y1="122.222" x2="100.498" y2="152.31" gradientUnits="userSpaceOnUse">
<stop stop-color="#F1F6FE"/>
<stop offset="1" stop-color="#FEFFFF"/>
</linearGradient>
<linearGradient id="paint1_linear_978_96556" x1="75.0505" y1="27.9556" x2="73.3749" y2="44.8655" gradientUnits="userSpaceOnUse">
<stop stop-color="#DCEAFF"/>
<stop offset="1" stop-color="#F2F6FF"/>
</linearGradient>
<linearGradient id="paint2_linear_978_96556" x1="141.203" y1="56.7223" x2="147.645" y2="69.2936" gradientUnits="userSpaceOnUse">
<stop stop-color="#1D406A"/>
<stop offset="1" stop-color="#193A62"/>
</linearGradient>
<linearGradient id="paint3_linear_978_96556" x1="135.72" y1="100.031" x2="129.109" y2="128.918" gradientUnits="userSpaceOnUse">
<stop stop-color="#D9E9FF"/>
<stop offset="1" stop-color="#C4DAF8"/>
</linearGradient>
<linearGradient id="paint4_linear_978_96556" x1="150.15" y1="95.7669" x2="143.918" y2="129.573" gradientUnits="userSpaceOnUse">
<stop stop-color="#D8E8FE"/>
<stop offset="1" stop-color="white" stop-opacity="0"/>
</linearGradient>
<linearGradient id="paint5_linear_978_96556" x1="142.26" y1="57.0008" x2="153.94" y2="76.5265" gradientUnits="userSpaceOnUse">
<stop stop-color="#254A84"/>
<stop offset="1" stop-color="#2F5F98"/>
</linearGradient>
<linearGradient id="paint6_linear_978_96556" x1="145.302" y1="63.2044" x2="139.267" y2="76.6011" gradientUnits="userSpaceOnUse">
<stop stop-color="#285891"/>
<stop offset="1" stop-color="#3B70AF"/>
</linearGradient>
<clipPath id="clip0_978_96556">
<rect width="200.988" height="160" fill="white"/>
</clipPath>
</defs>
</svg>
