<svg width="36" height="36" viewBox="0 0 36 36" fill="none" xmlns="http://www.w3.org/2000/svg">
<path d="M18.0008 28.7999C21.9772 28.7999 25.2008 25.5764 25.2008 21.5999C25.2008 17.6235 21.9772 14.3999 18.0008 14.3999C14.0243 14.3999 10.8008 17.6235 10.8008 21.5999C10.8008 25.5764 14.0243 28.7999 18.0008 28.7999Z" fill="#FDCF33"/>
<path d="M18.0004 29.7C16.3984 29.7 14.8323 29.2249 13.5003 28.3349C12.1682 27.4449 11.13 26.1798 10.517 24.6997C9.9039 23.2197 9.74349 21.591 10.056 20.0198C10.3686 18.4485 11.14 17.0052 12.2728 15.8724C13.4056 14.7396 14.8489 13.9682 16.4202 13.6556C17.9914 13.3431 19.62 13.5035 21.1001 14.1166C22.5802 14.7296 23.8453 15.7678 24.7353 17.0999C25.6253 18.4319 26.1004 19.998 26.1004 21.6C26.098 23.7475 25.2439 25.8064 23.7253 27.3249C22.2068 28.8435 20.1479 29.6976 18.0004 29.7ZM18.0004 15.3C16.7544 15.3 15.5363 15.6695 14.5003 16.3617C13.4643 17.054 12.6568 18.0379 12.18 19.1891C11.7031 20.3403 11.5784 21.607 11.8214 22.8291C12.0645 24.0512 12.6646 25.1737 13.5456 26.0548C14.4267 26.9358 15.5492 27.5359 16.7713 27.779C17.9934 28.022 19.2601 27.8973 20.4113 27.4204C21.5625 26.9436 22.5464 26.1361 23.2387 25.1001C23.9309 24.0641 24.3004 22.846 24.3004 21.6C24.2985 19.9297 23.6341 18.3284 22.4531 17.1473C21.272 15.9663 19.6707 15.3019 18.0004 15.3Z" fill="#3D82C3"/>
<path d="M18.423 24.9139H16.9065C16.6678 24.9139 16.4389 24.8191 16.2701 24.6503C16.1014 24.4815 16.0065 24.2526 16.0065 24.0139C16.0065 23.7752 16.1014 23.5463 16.2701 23.3775C16.4389 23.2087 16.6678 23.1139 16.9065 23.1139H18.423C18.4628 23.1161 18.5025 23.1102 18.5399 23.0965C18.5772 23.0828 18.6114 23.0617 18.6403 23.0343C18.6692 23.007 18.6922 22.9741 18.7079 22.9375C18.7236 22.901 18.7318 22.8616 18.7318 22.8219C18.7318 22.7821 18.7236 22.7427 18.7079 22.7062C18.6922 22.6696 18.6692 22.6367 18.6403 22.6094C18.6114 22.582 18.5772 22.5609 18.5399 22.5472C18.5025 22.5335 18.4628 22.5276 18.423 22.5298H17.6643C17.117 22.5185 16.5959 22.293 16.2128 21.902C15.8298 21.5109 15.6152 20.9852 15.6152 20.4378C15.6152 19.8903 15.8298 19.3647 16.2128 18.9736C16.5959 18.5825 17.117 18.3571 17.6643 18.3457H19.0737C19.3124 18.3457 19.5414 18.4405 19.7101 18.6093C19.8789 18.7781 19.9737 19.007 19.9737 19.2457C19.9737 19.4844 19.8789 19.7133 19.7101 19.8821C19.5414 20.0509 19.3124 20.1457 19.0737 20.1457H17.6643C17.5897 20.1498 17.5195 20.1824 17.4681 20.2367C17.4167 20.2911 17.3881 20.363 17.3881 20.4378C17.3881 20.5125 17.4167 20.5844 17.4681 20.6388C17.5195 20.6931 17.5897 20.7257 17.6643 20.7298H18.423C18.7014 20.724 18.9782 20.7739 19.237 20.8764C19.4959 20.979 19.7317 21.1321 19.9306 21.327C20.1296 21.5218 20.2876 21.7544 20.3955 22.0111C20.5034 22.2678 20.5589 22.5434 20.5589 22.8219C20.5589 23.1003 20.5034 23.3759 20.3955 23.6326C20.2876 23.8893 20.1296 24.1219 19.9306 24.3167C19.7317 24.5116 19.4959 24.6648 19.237 24.7673C18.9782 24.8698 18.7014 24.9197 18.423 24.9139Z" fill="#3D82C3"/>
<path d="M18.0426 19.8154C17.8039 19.8154 17.575 19.7206 17.4062 19.5518C17.2374 19.383 17.1426 19.1541 17.1426 18.9154V17.9254C17.1426 17.6867 17.2374 17.4578 17.4062 17.289C17.575 17.1202 17.8039 17.0254 18.0426 17.0254C18.2813 17.0254 18.5102 17.1202 18.679 17.289C18.8478 17.4578 18.9426 17.6867 18.9426 17.9254V18.9154C18.9426 19.1541 18.8478 19.383 18.679 19.5518C18.5102 19.7206 18.2813 19.8154 18.0426 19.8154Z" fill="#3D82C3"/>
<path d="M18.0426 26.1001C17.8039 26.1001 17.575 26.0052 17.4062 25.8365C17.2374 25.6677 17.1426 25.4388 17.1426 25.2001V24.2101C17.1426 23.9714 17.2374 23.7424 17.4062 23.5737C17.575 23.4049 17.8039 23.3101 18.0426 23.3101C18.2813 23.3101 18.5102 23.4049 18.679 23.5737C18.8478 23.7424 18.9426 23.9714 18.9426 24.2101V25.2001C18.9426 25.4388 18.8478 25.6677 18.679 25.8365C18.5102 26.0052 18.2813 26.1001 18.0426 26.1001Z" fill="#3D82C3"/>
<path d="M31.5008 34.2H4.50078C3.7847 34.2 3.09794 33.9155 2.59159 33.4092C2.08524 32.9028 1.80078 32.2161 1.80078 31.5V7.2C1.80078 6.48392 2.08524 5.79716 2.59159 5.29081C3.09794 4.78446 3.7847 4.5 4.50078 4.5H31.5008C32.2169 4.5 32.9036 4.78446 33.41 5.29081C33.9163 5.79716 34.2008 6.48392 34.2008 7.2V31.5C34.2008 32.2161 33.9163 32.9028 33.41 33.4092C32.9036 33.9155 32.2169 34.2 31.5008 34.2ZM4.50078 6.3C4.26209 6.3 4.03317 6.39482 3.86439 6.5636C3.6956 6.73239 3.60078 6.96131 3.60078 7.2V31.5C3.60078 31.7387 3.6956 31.9676 3.86439 32.1364C4.03317 32.3052 4.26209 32.4 4.50078 32.4H31.5008C31.7395 32.4 31.9684 32.3052 32.1372 32.1364C32.306 31.9676 32.4008 31.7387 32.4008 31.5V7.2C32.4008 6.96131 32.306 6.73239 32.1372 6.5636C31.9684 6.39482 31.7395 6.3 31.5008 6.3H4.50078Z" fill="#3D82C3"/>
<path d="M33.3008 11.6999H2.70078C2.46209 11.6999 2.23317 11.6051 2.06439 11.4363C1.8956 11.2675 1.80078 11.0386 1.80078 10.7999C1.80078 10.5612 1.8956 10.3323 2.06439 10.1635C2.23317 9.99472 2.46209 9.8999 2.70078 9.8999H33.3008C33.5395 9.8999 33.7684 9.99472 33.9372 10.1635C34.106 10.3323 34.2008 10.5612 34.2008 10.7999C34.2008 11.0386 34.106 11.2675 33.9372 11.4363C33.7684 11.6051 33.5395 11.6999 33.3008 11.6999Z" fill="#3D82C3"/>
<path d="M8.55039 8.99981C8.3117 8.99981 8.08278 8.90498 7.91399 8.7362C7.74521 8.56742 7.65039 8.3385 7.65039 8.09981V2.6998C7.65039 2.46111 7.74521 2.23219 7.91399 2.06341C8.08278 1.89463 8.3117 1.7998 8.55039 1.7998C8.78908 1.7998 9.018 1.89463 9.18679 2.06341C9.35557 2.23219 9.45039 2.46111 9.45039 2.6998V8.09981C9.45039 8.3385 9.35557 8.56742 9.18679 8.7362C9.018 8.90498 8.78908 8.99981 8.55039 8.99981Z" fill="#3D82C3"/>
<path d="M27.4508 8.99981C27.2121 8.99981 26.9832 8.90498 26.8144 8.7362C26.6456 8.56742 26.5508 8.3385 26.5508 8.09981V2.6998C26.5508 2.46111 26.6456 2.23219 26.8144 2.06341C26.9832 1.89463 27.2121 1.7998 27.4508 1.7998C27.6895 1.7998 27.9184 1.89463 28.0872 2.06341C28.256 2.23219 28.3508 2.46111 28.3508 2.6998V8.09981C28.3508 8.3385 28.256 8.56742 28.0872 8.7362C27.9184 8.90498 27.6895 8.99981 27.4508 8.99981Z" fill="#3D82C3"/>
</svg>
