<svg width="21" height="17" viewBox="0 0 21 17" fill="none" xmlns="http://www.w3.org/2000/svg">
<path d="M9.17 9.02C8.95 9.01 8.73 9 8.5 9C6.08 9 3.82 9.67 1.89 10.82C1.01 11.34 0.5 12.32 0.5 13.35V15C0.5 15.55 0.95 16 1.5 16H9.76C8.97 14.87 8.5 13.49 8.5 12C8.5 10.93 8.75 9.93 9.17 9.02Z" fill="#3D82C3"/>
<path d="M8.5 8C10.7091 8 12.5 6.20914 12.5 4C12.5 1.79086 10.7091 0 8.5 0C6.29086 0 4.5 1.79086 4.5 4C4.5 6.20914 6.29086 8 8.5 8Z" fill="#3D82C3"/>
<path d="M19.2499 11.9998C19.2499 11.7798 19.2199 11.5798 19.1899 11.3698L20.0299 10.6398C20.2099 10.4798 20.2499 10.2198 20.1299 10.0098L19.5399 8.98977C19.4199 8.77977 19.1699 8.68977 18.9499 8.76977L17.8899 9.12977C17.5699 8.85977 17.2099 8.64977 16.8099 8.49977L16.5899 7.40977C16.5399 7.17977 16.3399 7.00977 16.0999 7.00977H14.9199C14.6799 7.00977 14.4799 7.17977 14.4299 7.40977L14.2099 8.49977C13.8099 8.64977 13.4499 8.85977 13.1299 9.12977L12.0699 8.76977C11.8399 8.68977 11.5999 8.78977 11.4799 8.98977L10.8899 10.0098C10.7699 10.2198 10.8099 10.4798 10.9899 10.6398L11.8299 11.3698C11.7999 11.5798 11.7699 11.7798 11.7699 11.9998C11.7699 12.2198 11.7999 12.4198 11.8299 12.6298L10.9899 13.3598C10.8099 13.5198 10.7699 13.7798 10.8899 13.9898L11.4799 15.0098C11.5999 15.2198 11.8499 15.3098 12.0699 15.2298L13.1299 14.8698C13.4499 15.1398 13.8099 15.3498 14.2099 15.4998L14.4299 16.5898C14.4799 16.8198 14.6799 16.9898 14.9199 16.9898H16.0999C16.3399 16.9898 16.5399 16.8198 16.5899 16.5898L16.8099 15.4998C17.2099 15.3498 17.5699 15.1398 17.8899 14.8698L18.9499 15.2298C19.1799 15.3098 19.4199 15.2098 19.5399 15.0098L20.1299 13.9898C20.2499 13.7798 20.2099 13.5198 20.0299 13.3598L19.1899 12.6298C19.2199 12.4198 19.2499 12.2198 19.2499 11.9998ZM15.4999 13.9998C14.3999 13.9998 13.4999 13.0998 13.4999 11.9998C13.4999 10.8998 14.3999 9.99977 15.4999 9.99977C16.5999 9.99977 17.4999 10.8998 17.4999 11.9998C17.4999 13.0998 16.5999 13.9998 15.4999 13.9998Z" fill="#3D82C3"/>
</svg>
