<svg width="36" height="36" viewBox="0 0 36 36" fill="none" xmlns="http://www.w3.org/2000/svg">
<path d="M9.89922 33.2999C13.8757 33.2999 17.0992 30.0764 17.0992 26.0999C17.0992 22.1235 13.8757 18.8999 9.89922 18.8999C5.92277 18.8999 2.69922 22.1235 2.69922 26.0999C2.69922 30.0764 5.92277 33.2999 9.89922 33.2999Z" fill="#FDCF33"/>
<path d="M9.90079 34.2C8.29876 34.2 6.7327 33.7249 5.40067 32.8349C4.06863 31.9449 3.03043 30.6798 2.41736 29.1997C1.80429 27.7197 1.64388 26.091 1.95642 24.5198C2.26896 22.9485 3.04041 21.5052 4.17322 20.3724C5.30603 19.2396 6.74931 18.4682 8.32055 18.1556C9.8918 17.8431 11.5204 18.0035 13.0005 18.6166C14.4806 19.2296 15.7457 20.2678 16.6357 21.5999C17.5257 22.9319 18.0008 24.498 18.0008 26.1C17.9984 28.2475 17.1442 30.3064 15.6257 31.8249C14.1072 33.3435 12.0483 34.1976 9.90079 34.2ZM9.90079 19.8C8.65476 19.8 7.43672 20.1695 6.40069 20.8617C5.36466 21.554 4.55718 22.5379 4.08034 23.6891C3.60351 24.8403 3.47875 26.107 3.72184 27.3291C3.96492 28.5512 4.56494 29.6737 5.44601 30.5548C6.32708 31.4358 7.44964 32.0359 8.67172 32.2789C9.8938 32.522 11.1605 32.3973 12.3117 31.9204C13.4629 31.4436 14.4468 30.6361 15.139 29.6001C15.8313 28.5641 16.2008 27.346 16.2008 26.1C16.1986 24.4298 15.5342 22.8286 14.3532 21.6476C13.1722 20.4666 11.571 19.8021 9.90079 19.8Z" fill="#3D82C3"/>
<path d="M7.0209 29.88C6.84293 29.88 6.66896 29.8272 6.52099 29.7283C6.37302 29.6294 6.25769 29.4888 6.18959 29.3244C6.12149 29.1599 6.10367 28.979 6.13838 28.8045C6.17309 28.6299 6.25877 28.4696 6.3846 28.3437L12.1446 22.5837C12.3143 22.4198 12.5417 22.329 12.7777 22.3311C13.0136 22.3331 13.2394 22.4278 13.4062 22.5947C13.5731 22.7615 13.6678 22.9873 13.6698 23.2232C13.6719 23.4592 13.5811 23.6866 13.4172 23.8563L7.6572 29.6163C7.57386 29.7002 7.4747 29.7666 7.36548 29.8119C7.25625 29.8572 7.13913 29.8803 7.0209 29.88Z" fill="#3D82C3"/>
<path d="M7.3793 24.93C8.12488 24.93 8.7293 24.3256 8.7293 23.58C8.7293 22.8344 8.12488 22.23 7.3793 22.23C6.63371 22.23 6.0293 22.8344 6.0293 23.58C6.0293 24.3256 6.63371 24.93 7.3793 24.93Z" fill="#3D82C3"/>
<path d="M12.4203 29.97C13.1659 29.97 13.7703 29.3656 13.7703 28.62C13.7703 27.8744 13.1659 27.27 12.4203 27.27C11.6747 27.27 11.0703 27.8744 11.0703 28.62C11.0703 29.3656 11.6747 29.97 12.4203 29.97Z" fill="#3D82C3"/>
<path d="M28.8008 32.4001H15.3008C15.0621 32.4001 14.8332 32.3053 14.6644 32.1365C14.4956 31.9677 14.4008 31.7388 14.4008 31.5001C14.4008 31.2614 14.4956 31.0325 14.6644 30.8637C14.8332 30.6949 15.0621 30.6001 15.3008 30.6001H27.9008V5.4001H8.10078V18.9001C8.10078 19.1388 8.00596 19.3677 7.83718 19.5365C7.66839 19.7053 7.43948 19.8001 7.20078 19.8001C6.96209 19.8001 6.73317 19.7053 6.56439 19.5365C6.3956 19.3677 6.30078 19.1388 6.30078 18.9001V4.5001C6.30078 4.2614 6.3956 4.03248 6.56439 3.8637C6.73317 3.69492 6.96209 3.6001 7.20078 3.6001H28.8008C29.0395 3.6001 29.2684 3.69492 29.4372 3.8637C29.606 4.03248 29.7008 4.2614 29.7008 4.5001V31.5001C29.7008 31.7388 29.606 31.9677 29.4372 32.1365C29.2684 32.3053 29.0395 32.4001 28.8008 32.4001Z" fill="#3D82C3"/>
<path d="M17.9996 18.4402C17.7609 18.4402 17.532 18.3454 17.3632 18.1766C17.1944 18.0078 17.0996 17.7789 17.0996 17.5402V9.0001C17.0996 8.7614 17.1944 8.53248 17.3632 8.3637C17.532 8.19492 17.7609 8.1001 17.9996 8.1001C18.2383 8.1001 18.4672 8.19492 18.636 8.3637C18.8048 8.53248 18.8996 8.7614 18.8996 9.0001V17.5402C18.8996 17.7789 18.8048 18.0078 18.636 18.1766C18.4672 18.3454 18.2383 18.4402 17.9996 18.4402Z" fill="#3D82C3"/>
<path d="M18.0006 19.5373C17.7619 19.5372 17.533 19.4424 17.3643 19.2736L14.0271 15.9364C13.8583 15.7675 13.7636 15.5385 13.7637 15.2998C13.7638 15.061 13.8587 14.8321 14.0276 14.6633C14.1964 14.4946 14.4254 14.3998 14.6642 14.3999C14.9029 14.4 15.1318 14.4949 15.3006 14.6638L18.0006 17.3638L20.7006 14.6638C20.8703 14.4998 21.0977 14.4091 21.3337 14.4112C21.5696 14.4132 21.7954 14.5079 21.9622 14.6747C22.1291 14.8416 22.2238 15.0673 22.2258 15.3033C22.2279 15.5393 22.1371 15.7666 21.9732 15.9364L18.636 19.2736C18.4675 19.4422 18.239 19.537 18.0006 19.5373Z" fill="#3D82C3"/>
</svg>
