<svg width="36" height="36" viewBox="0 0 36 36" fill="none" xmlns="http://www.w3.org/2000/svg">
<path d="M29.176 32.4001H5.92539C5.6867 32.4001 5.45778 32.3053 5.28899 32.1365C5.12021 31.9677 5.02539 31.7388 5.02539 31.5001V28.882C5.02716 28.3608 5.1977 27.8542 5.51148 27.4381C5.82526 27.0219 6.26539 26.7186 6.76599 26.5735L10.7449 25.4377L14.2657 22.5001C14.9671 21.9175 15.8505 21.5991 16.7623 21.6001H22.5547C23.1907 21.602 23.8002 21.8546 24.2512 22.303L26.5507 24.5998H27.6757C28.3121 24.6005 28.9222 24.8536 29.3722 25.3036C29.8222 25.7536 30.0753 26.3637 30.076 27.0001V31.5001C30.076 31.7388 29.9812 31.9677 29.8124 32.1365C29.6436 32.3053 29.4147 32.4001 29.176 32.4001ZM6.82539 30.6001H28.276V27.0001C28.276 26.9213 28.2605 26.8432 28.2303 26.7704C28.2001 26.6975 28.1559 26.6314 28.1002 26.5756C28.0444 26.5199 27.9782 26.4757 27.9054 26.4455C27.8326 26.4153 27.7545 26.3998 27.6757 26.3998H26.1754C25.9367 26.3997 25.7078 26.3049 25.5391 26.1361L22.9786 23.5801C22.8666 23.4665 22.7142 23.4018 22.5547 23.4001H16.7623C16.271 23.4003 15.7952 23.5726 15.4177 23.887L11.752 26.9425C11.6551 27.0221 11.543 27.0812 11.4226 27.1162L7.26099 28.3051C7.13596 28.3414 7.02605 28.4173 6.9477 28.5213C6.86934 28.6252 6.82675 28.7518 6.82629 28.882L6.82539 30.6001Z" fill="#3D82C3"/>
<path d="M24.2996 34.1998C25.7908 34.1998 26.9996 32.991 26.9996 31.4998C26.9996 30.0086 25.7908 28.7998 24.2996 28.7998C22.8084 28.7998 21.5996 30.0086 21.5996 31.4998C21.5996 32.991 22.8084 34.1998 24.2996 34.1998Z" fill="#3D82C3"/>
<path d="M11.7 34.1998C13.1912 34.1998 14.4 32.991 14.4 31.4998C14.4 30.0086 13.1912 28.7998 11.7 28.7998C10.2088 28.7998 9 30.0086 9 31.4998C9 32.991 10.2088 34.1998 11.7 34.1998Z" fill="#3D82C3"/>
<path d="M26.1004 17.1002C30.0768 17.1002 33.3004 13.8766 33.3004 9.9002C33.3004 5.92374 30.0768 2.7002 26.1004 2.7002C22.1239 2.7002 18.9004 5.92374 18.9004 9.9002C18.9004 13.8766 22.1239 17.1002 26.1004 17.1002Z" fill="#FDCF33"/>
<path d="M26.1 17.9998C24.498 17.9998 22.9319 17.5248 21.5999 16.6347C20.2678 15.7447 19.2296 14.4796 18.6166 12.9995C18.0035 11.5195 17.8431 9.89082 18.1556 8.31958C18.4682 6.74833 19.2396 5.30505 20.3724 4.17224C21.5052 3.03944 22.9485 2.26799 24.5198 1.95545C26.091 1.64291 27.7197 1.80331 29.1997 2.41638C30.6798 3.02945 31.9449 4.06765 32.8349 5.39969C33.7249 6.73173 34.2 8.29778 34.2 9.89981C34.1976 12.0473 33.3435 14.1062 31.8249 15.6247C30.3064 17.1433 28.2475 17.9974 26.1 17.9998ZM26.1 3.59981C24.854 3.59981 23.6359 3.9693 22.5999 4.66155C21.5639 5.3538 20.7564 6.33773 20.2796 7.4889C19.8027 8.64008 19.678 9.9068 19.9211 11.1289C20.1641 12.351 20.7642 13.4735 21.6452 14.3546C22.5263 15.2357 23.6489 15.8357 24.8709 16.0788C26.093 16.3218 27.3597 16.1971 28.5109 15.7203C29.6621 15.2434 30.646 14.4359 31.3383 13.3999C32.0305 12.3639 32.4 11.1458 32.4 9.89981C32.3981 8.22953 31.7337 6.62821 30.5527 5.44714C29.3716 4.26607 27.7703 3.60171 26.1 3.59981Z" fill="#3D82C3"/>
<path d="M2.73855 23.3794H2.68455C2.56635 23.3775 2.44968 23.3524 2.34121 23.3054C2.23273 23.2584 2.13457 23.1905 2.05233 23.1056C1.97009 23.0207 1.90539 22.9204 1.86191 22.8105C1.81844 22.7006 1.79704 22.5832 1.79895 22.465C1.79826 22.3462 1.82161 22.2285 1.86757 22.119C1.91354 22.0094 1.98118 21.9103 2.06642 21.8276C2.15167 21.7449 2.25276 21.6802 2.36363 21.6376C2.47449 21.5949 2.59283 21.5751 2.71155 21.5794H2.71695C5.29901 21.4157 7.81682 20.7053 10.1036 19.495C12.3903 18.2848 14.3937 16.6024 15.9811 14.5594C16.0551 14.4672 16.1466 14.3905 16.2502 14.3336C16.3538 14.2768 16.4676 14.2409 16.5851 14.228C16.7026 14.2151 16.8215 14.2255 16.935 14.2586C17.0485 14.2917 17.1544 14.3468 17.2465 14.4208C17.3387 14.4948 17.4154 14.5862 17.4723 14.6898C17.5292 14.7935 17.565 14.9073 17.5779 15.0248C17.5908 15.1423 17.5804 15.2612 17.5473 15.3747C17.5142 15.4881 17.4591 15.594 17.3851 15.6862C15.6445 17.9505 13.4338 19.8107 10.9054 21.1387C8.37693 22.4668 5.59072 23.2312 2.73855 23.3794Z" fill="#3D82C3"/>
<path d="M17.4199 18.9801C17.1812 18.9801 16.9523 18.8853 16.7835 18.7165C16.6148 18.5477 16.5199 18.3188 16.5199 18.0801V15.3H13.7398C13.5011 15.3 13.2722 15.2052 13.1034 15.0364C12.9347 14.8676 12.8398 14.6387 12.8398 14.4C12.8398 14.1613 12.9347 13.9324 13.1034 13.7636C13.2722 13.5948 13.5011 13.5 13.7398 13.5H17.4199C17.6586 13.5 17.8876 13.5948 18.0563 13.7636C18.2251 13.9324 18.3199 14.1613 18.3199 14.4V18.0801C18.3199 18.3188 18.2251 18.5477 18.0563 18.7165C17.8876 18.8853 17.6586 18.9801 17.4199 18.9801Z" fill="#3D82C3"/>
<path d="M26.567 13.5422H24.8705C24.6318 13.5422 24.4029 13.4474 24.2341 13.2786C24.0653 13.1099 23.9705 12.8809 23.9705 12.6422C23.9705 12.4036 24.0653 12.1746 24.2341 12.0058C24.4029 11.8371 24.6318 11.7422 24.8705 11.7422H26.567C26.6818 11.7422 26.7919 11.6966 26.8731 11.6155C26.9543 11.5343 26.9999 11.4242 26.9999 11.3093C26.9999 11.1945 26.9543 11.0844 26.8731 11.0032C26.7919 10.9221 26.6818 10.8764 26.567 10.8764H25.7192C25.127 10.8764 24.5591 10.6412 24.1403 10.2224C23.7216 9.80369 23.4863 9.23575 23.4863 8.64354C23.4863 8.05134 23.7216 7.4834 24.1403 7.06465C24.5591 6.6459 25.127 6.41064 25.7192 6.41064H27.2942C27.5329 6.41064 27.7618 6.50547 27.9306 6.67425C28.0994 6.84303 28.1942 7.07195 28.1942 7.31064C28.1942 7.54934 28.0994 7.77826 27.9306 7.94704C27.7618 8.11582 27.5329 8.21064 27.2942 8.21064H25.7192C25.6044 8.21064 25.4943 8.25625 25.4131 8.33744C25.3319 8.41862 25.2863 8.52873 25.2863 8.64354C25.2863 8.75836 25.3319 8.86847 25.4131 8.94965C25.4943 9.03084 25.6044 9.07644 25.7192 9.07644H26.567C27.1592 9.07644 27.7272 9.3117 28.1459 9.73045C28.5647 10.1492 28.7999 10.7171 28.7999 11.3093C28.7999 11.9015 28.5647 12.4695 28.1459 12.8882C27.7272 13.307 27.1592 13.5422 26.567 13.5422Z" fill="#3D82C3"/>
<path d="M26.1422 7.84085C25.9035 7.84085 25.6746 7.74603 25.5058 7.57725C25.337 7.40847 25.2422 7.17955 25.2422 6.94085V5.83115C25.2422 5.59246 25.337 5.36354 25.5058 5.19476C25.6746 5.02597 25.9035 4.93115 26.1422 4.93115C26.3809 4.93115 26.6098 5.02597 26.7786 5.19476C26.9474 5.36354 27.0422 5.59246 27.0422 5.83115V6.94085C27.0422 7.17955 26.9474 7.40847 26.7786 7.57725C26.6098 7.74603 26.3809 7.84085 26.1422 7.84085Z" fill="#3D82C3"/>
<path d="M26.1422 14.8692C25.9035 14.8692 25.6746 14.7744 25.5058 14.6056C25.337 14.4368 25.2422 14.2079 25.2422 13.9692V12.8595C25.2422 12.6208 25.337 12.3919 25.5058 12.2231C25.6746 12.0543 25.9035 11.9595 26.1422 11.9595C26.3809 11.9595 26.6098 12.0543 26.7786 12.2231C26.9474 12.3919 27.0422 12.6208 27.0422 12.8595V13.9692C27.0422 14.2079 26.9474 14.4368 26.7786 14.6056C26.6098 14.7744 26.3809 14.8692 26.1422 14.8692Z" fill="#3D82C3"/>
</svg>
