<svg width="36" height="36" viewBox="0 0 36 36" fill="none" xmlns="http://www.w3.org/2000/svg">
<rect x="5.0625" y="4.5" width="25.875" height="3.375" fill="#FDCF33"/>
<path d="M18.3805 18.1898H16.684C16.4453 18.1898 16.2164 18.095 16.0476 17.9262C15.8788 17.7574 15.784 17.5285 15.784 17.2898C15.784 17.0511 15.8788 16.8222 16.0476 16.6534C16.2164 16.4846 16.4453 16.3898 16.684 16.3898H18.3805C18.4953 16.3898 18.6054 16.3442 18.6866 16.263C18.7678 16.1818 18.8134 16.0717 18.8134 15.9569C18.8134 15.8421 18.7678 15.732 18.6866 15.6508C18.6054 15.5696 18.4953 15.524 18.3805 15.524H17.5318C16.9475 15.5122 16.3911 15.2719 15.982 14.8545C15.5729 14.4371 15.3438 13.876 15.3438 13.2915C15.3438 12.7071 15.5729 12.146 15.982 11.7286C16.3911 11.3112 16.9475 11.0708 17.5318 11.0591H19.1068C19.3455 11.0591 19.5744 11.1539 19.7432 11.3227C19.912 11.4915 20.0068 11.7204 20.0068 11.9591C20.0068 12.1978 19.912 12.4267 19.7432 12.5955C19.5744 12.7643 19.3455 12.8591 19.1068 12.8591H17.5318C17.4205 12.8642 17.3155 12.9119 17.2386 12.9925C17.1616 13.073 17.1187 13.1801 17.1187 13.2915C17.1187 13.4029 17.1616 13.51 17.2386 13.5906C17.3155 13.6711 17.4205 13.7189 17.5318 13.724H18.3805C18.6738 13.724 18.9641 13.7817 19.235 13.894C19.5059 14.0062 19.7521 14.1706 19.9594 14.378C20.1668 14.5853 20.3312 14.8315 20.4435 15.1024C20.5557 15.3733 20.6134 15.6637 20.6134 15.9569C20.6134 16.2501 20.5557 16.5405 20.4435 16.8114C20.3312 17.0823 20.1668 17.3284 19.9594 17.5358C19.7521 17.7431 19.5059 17.9076 19.235 18.0198C18.9641 18.132 18.6738 18.1898 18.3805 18.1898Z" fill="#3D82C3"/>
<path d="M17.9566 12.4893C17.7179 12.4893 17.489 12.3945 17.3202 12.2257C17.1515 12.0569 17.0566 11.828 17.0566 11.5893V10.4796C17.0566 10.2409 17.1515 10.012 17.3202 9.84319C17.489 9.67441 17.7179 9.57959 17.9566 9.57959C18.1953 9.57959 18.4243 9.67441 18.593 9.84319C18.7618 10.012 18.8566 10.2409 18.8566 10.4796V11.5893C18.8566 11.828 18.7618 12.0569 18.593 12.2257C18.4243 12.3945 18.1953 12.4893 17.9566 12.4893Z" fill="#3D82C3"/>
<path d="M17.9566 19.5166C17.7179 19.5166 17.489 19.4218 17.3202 19.253C17.1515 19.0842 17.0566 18.8553 17.0566 18.6166V17.5069C17.0566 17.2682 17.1515 17.0393 17.3202 16.8705C17.489 16.7018 17.7179 16.6069 17.9566 16.6069C18.1953 16.6069 18.4243 16.7018 18.593 16.8705C18.7618 17.0393 18.8566 17.2682 18.8566 17.5069V18.6166C18.8566 18.8553 18.7618 19.0842 18.593 19.253C18.4243 19.4218 18.1953 19.5166 17.9566 19.5166Z" fill="#3D82C3"/>
<path d="M32.3992 23.0794H3.59922C3.36052 23.0794 3.13161 22.9846 2.96282 22.8158C2.79404 22.647 2.69922 22.4181 2.69922 22.1794V7.77939C2.69922 7.5407 2.79404 7.31178 2.96282 7.143C3.13161 6.97422 3.36052 6.87939 3.59922 6.87939H32.3992C32.6379 6.87939 32.8668 6.97422 33.0356 7.143C33.2044 7.31178 33.2992 7.5407 33.2992 7.77939V22.1794C33.2992 22.4181 33.2044 22.647 33.0356 22.8158C32.8668 22.9846 32.6379 23.0794 32.3992 23.0794ZM4.49922 21.2794H31.4992V8.67939H4.49922V21.2794Z" fill="#3D82C3"/>
<path d="M30.6 8.67978C30.3613 8.67978 30.1324 8.58496 29.9636 8.41618C29.7948 8.2474 29.7 8.01848 29.7 7.77978V5.07978H6.3V7.77978C6.3 8.01848 6.20518 8.2474 6.0364 8.41618C5.86761 8.58496 5.63869 8.67978 5.4 8.67978C5.16131 8.67978 4.93239 8.58496 4.7636 8.41618C4.59482 8.2474 4.5 8.01848 4.5 7.77978V4.17979C4.5 3.94109 4.59482 3.71217 4.7636 3.54339C4.93239 3.37461 5.16131 3.27979 5.4 3.27979H30.6C30.8387 3.27979 31.0676 3.37461 31.2364 3.54339C31.4052 3.71217 31.5 3.94109 31.5 4.17979V7.77978C31.5 8.01848 31.4052 8.2474 31.2364 8.41618C31.0676 8.58496 30.8387 8.67978 30.6 8.67978Z" fill="#3D82C3"/>
<path d="M3.59922 13.1794C3.36052 13.1794 3.13161 13.0846 2.96282 12.9158C2.79404 12.747 2.69922 12.5181 2.69922 12.2794C2.69922 12.0407 2.79404 11.8118 2.96282 11.643C3.13161 11.4742 3.36052 11.3794 3.59922 11.3794C4.554 11.3794 5.46967 11.0001 6.1448 10.325C6.81993 9.64985 7.19922 8.73417 7.19922 7.77939C7.19922 7.5407 7.29404 7.31178 7.46282 7.143C7.63161 6.97422 7.86052 6.87939 8.09922 6.87939C8.33791 6.87939 8.56683 6.97422 8.73561 7.143C8.9044 7.31178 8.99922 7.5407 8.99922 7.77939C8.99755 9.21105 8.42809 10.5836 7.41575 11.5959C6.40342 12.6083 5.03088 13.1777 3.59922 13.1794Z" fill="#3D82C3"/>
<path d="M32.4 13.1794C30.9683 13.1777 29.5958 12.6083 28.5835 11.5959C27.5711 10.5836 27.0017 9.21105 27 7.77939C27 7.5407 27.0948 7.31178 27.2636 7.143C27.4324 6.97422 27.6613 6.87939 27.9 6.87939C28.1387 6.87939 28.3676 6.97422 28.5364 7.143C28.7052 7.31178 28.8 7.5407 28.8 7.77939C28.8 8.73417 29.1793 9.64985 29.8544 10.325C30.5295 11.0001 31.4452 11.3794 32.4 11.3794C32.6387 11.3794 32.8676 11.4742 33.0364 11.643C33.2052 11.8118 33.3 12.0407 33.3 12.2794C33.3 12.5181 33.2052 12.747 33.0364 12.9158C32.8676 13.0846 32.6387 13.1794 32.4 13.1794Z" fill="#3D82C3"/>
<path d="M3.59922 13.1794C3.36052 13.1794 3.13161 13.0846 2.96282 12.9158C2.79404 12.747 2.69922 12.5181 2.69922 12.2794C2.69922 12.0407 2.79404 11.8118 2.96282 11.643C3.13161 11.4742 3.36052 11.3794 3.59922 11.3794C4.554 11.3794 5.46967 11.0001 6.1448 10.325C6.81993 9.64985 7.19922 8.73417 7.19922 7.77939C7.19922 7.5407 7.29404 7.31178 7.46282 7.143C7.63161 6.97422 7.86052 6.87939 8.09922 6.87939C8.33791 6.87939 8.56683 6.97422 8.73561 7.143C8.9044 7.31178 8.99922 7.5407 8.99922 7.77939C8.99755 9.21105 8.42809 10.5836 7.41575 11.5959C6.40342 12.6083 5.03088 13.1777 3.59922 13.1794Z" fill="#3D82C3"/>
<path d="M32.4 13.1794C30.9683 13.1777 29.5958 12.6083 28.5835 11.5959C27.5711 10.5836 27.0017 9.21105 27 7.77939C27 7.5407 27.0948 7.31178 27.2636 7.143C27.4324 6.97422 27.6613 6.87939 27.9 6.87939C28.1387 6.87939 28.3676 6.97422 28.5364 7.143C28.7052 7.31178 28.8 7.5407 28.8 7.77939C28.8 8.73417 29.1793 9.64985 29.8544 10.325C30.5295 11.0001 31.4452 11.3794 32.4 11.3794C32.6387 11.3794 32.8676 11.4742 33.0364 11.643C33.2052 11.8118 33.3 12.0407 33.3 12.2794C33.3 12.5181 33.2052 12.747 33.0364 12.9158C32.8676 13.0846 32.6387 13.1794 32.4 13.1794Z" fill="#3D82C3"/>
<path d="M27.9 23.0798C27.6613 23.0798 27.4324 22.985 27.2636 22.8162C27.0948 22.6474 27 22.4185 27 22.1798C27.0014 20.7481 27.5708 19.3754 28.5832 18.363C29.5956 17.3506 30.9683 16.7812 32.4 16.7798C32.6387 16.7798 32.8676 16.8746 33.0364 17.0434C33.2052 17.2122 33.3 17.4411 33.3 17.6798C33.3 17.9185 33.2052 18.1474 33.0364 18.3162C32.8676 18.485 32.6387 18.5798 32.4 18.5798C31.4452 18.5798 30.5295 18.9591 29.8544 19.6342C29.1793 20.3093 28.8 21.225 28.8 22.1798C28.8 22.4185 28.7052 22.6474 28.5364 22.8162C28.3676 22.985 28.1387 23.0798 27.9 23.0798Z" fill="#3D82C3"/>
<path d="M8.09922 23.0798C7.86052 23.0798 7.63161 22.985 7.46282 22.8162C7.29404 22.6474 7.19922 22.4185 7.19922 22.1798C7.19922 21.225 6.81993 20.3093 6.1448 19.6342C5.46967 18.9591 4.554 18.5798 3.59922 18.5798C3.36052 18.5798 3.13161 18.485 2.96282 18.3162C2.79404 18.1474 2.69922 17.9185 2.69922 17.6798C2.69922 17.4411 2.79404 17.2122 2.96282 17.0434C3.13161 16.8746 3.36052 16.7798 3.59922 16.7798C5.03095 16.7812 6.40363 17.3506 7.41602 18.363C8.4284 19.3754 8.99779 20.7481 8.99922 22.1798C8.99922 22.4185 8.9044 22.6474 8.73561 22.8162C8.56683 22.985 8.33791 23.0798 8.09922 23.0798Z" fill="#3D82C3"/>
<path d="M11.0621 33.1018C10.8234 33.1018 10.5945 33.007 10.4257 32.8382C10.2569 32.6694 10.1621 32.4405 10.1621 32.2018V25.1998C10.1621 24.9611 10.2569 24.7322 10.4257 24.5634C10.5945 24.3946 10.8234 24.2998 11.0621 24.2998C11.3008 24.2998 11.5297 24.3946 11.6985 24.5634C11.8673 24.7322 11.9621 24.9611 11.9621 25.1998V32.2018C11.9621 32.4405 11.8673 32.6694 11.6985 32.8382C11.5297 33.007 11.3008 33.1018 11.0621 33.1018Z" fill="#3D82C3"/>
<path d="M11.0625 34.1999C10.8238 34.1998 10.5949 34.105 10.4262 33.9362L7.0881 30.5999C6.91922 30.4311 6.8243 30.2022 6.82422 29.9635C6.82413 29.7247 6.91889 29.4957 7.08765 29.3268C7.25641 29.158 7.48534 29.0631 7.72408 29.063C7.96283 29.0629 8.19182 29.1576 8.3607 29.3264L11.0607 32.0264L13.7607 29.3264C13.9296 29.1573 14.1587 29.0622 14.3977 29.062C14.6367 29.0618 14.866 29.1566 15.0351 29.3255C15.2042 29.4944 15.2993 29.7235 15.2995 29.9625C15.2997 30.2015 15.2049 30.4308 15.036 30.5999L11.6997 33.9362C11.616 34.0199 11.5167 34.0862 11.4074 34.1315C11.298 34.1767 11.1808 34.2 11.0625 34.1999Z" fill="#3D82C3"/>
<path d="M24.9371 34.2004C24.6984 34.2004 24.4695 34.1055 24.3007 33.9368C24.1319 33.768 24.0371 33.5391 24.0371 33.3004V25.6603C24.0371 25.4216 24.1319 25.1926 24.3007 25.0239C24.4695 24.8551 24.6984 24.7603 24.9371 24.7603C25.1758 24.7603 25.4047 24.8551 25.5735 25.0239C25.7423 25.1926 25.8371 25.4216 25.8371 25.6603V33.3004C25.8371 33.5391 25.7423 33.768 25.5735 33.9368C25.4047 34.1055 25.1758 34.2004 24.9371 34.2004Z" fill="#3D82C3"/>
<path d="M28.2764 28.8001C28.0377 28.8 27.8088 28.7052 27.6401 28.5364L24.9401 25.8364L22.2401 28.5364C22.0703 28.7003 21.843 28.7911 21.607 28.789C21.371 28.7869 21.1453 28.6923 20.9784 28.5254C20.8116 28.3586 20.7169 28.1328 20.7149 27.8969C20.7128 27.6609 20.8035 27.4335 20.9675 27.2638L24.3011 23.9266C24.4699 23.7579 24.6987 23.6631 24.9374 23.6631C25.176 23.6631 25.4049 23.7579 25.5737 23.9266L28.9118 27.2638C29.0376 27.3896 29.1232 27.5499 29.158 27.7243C29.1927 27.8988 29.175 28.0797 29.107 28.2441C29.039 28.4085 28.9238 28.549 28.776 28.648C28.6281 28.7469 28.4543 28.7999 28.2764 28.8001Z" fill="#3D82C3"/>
</svg>
