<svg width="40" height="40" viewBox="0 0 40 40" fill="none" xmlns="http://www.w3.org/2000/svg">
<path d="M31.2689 3H16.9798L8 12.0359V34.7212C8.00296 35.1628 8.18048 35.5853 8.49382 35.8966C8.80715 36.2078 9.23085 36.3825 9.67249 36.3824H31.2689C31.7106 36.3825 32.1343 36.2078 32.4476 35.8966C32.7609 35.5853 32.9385 35.1628 32.9414 34.7212V4.67249C32.9414 4.22892 32.7652 3.80351 32.4516 3.48986C32.1379 3.17621 31.7125 3 31.2689 3V3ZM17.9227 12.9564H10.5929L17.9227 5.61537V12.9564Z" fill="#3D82C3"/>
<path d="M21.3012 22.0823H19.7522C19.5586 22.0592 19.3801 21.9659 19.2506 21.8201C19.1212 21.6743 19.0497 21.486 19.0497 21.291C19.0497 21.096 19.1212 20.9077 19.2506 20.7619C19.3801 20.6161 19.5586 20.5228 19.7522 20.4996H23.7146C23.9419 20.5184 24.1707 20.4899 24.3865 20.4158C24.6023 20.3417 24.8003 20.2236 24.9682 20.0691C25.136 19.9146 25.27 19.7269 25.3616 19.518C25.4533 19.309 25.5006 19.0834 25.5006 18.8552C25.5006 18.6271 25.4533 18.4014 25.3616 18.1925C25.27 17.9835 25.136 17.7959 24.9682 17.6413C24.8003 17.4868 24.6023 17.3688 24.3865 17.2947C24.1707 17.2205 23.9419 17.192 23.7146 17.2108H22.1431V16.1557C22.109 15.743 21.9209 15.3582 21.6163 15.0778C21.3117 14.7973 20.9127 14.6416 20.4987 14.6416C20.0846 14.6416 19.6856 14.7973 19.381 15.0778C19.0764 15.3582 18.8884 15.743 18.8542 16.1557V17.2781C17.88 17.499 17.0208 18.0702 16.44 18.883C15.8592 19.6958 15.5972 20.6937 15.7039 21.6869C15.8106 22.6802 16.2784 23.5997 17.0186 24.2707C17.7587 24.9416 18.7196 25.3173 19.7185 25.3263H21.2676C21.3794 25.313 21.4928 25.3235 21.6003 25.3571C21.7077 25.3908 21.8068 25.4469 21.8911 25.5217C21.9753 25.5964 22.0427 25.6882 22.0889 25.7909C22.1351 25.8937 22.1589 26.005 22.1589 26.1176C22.1589 26.2303 22.1351 26.3416 22.0889 26.4443C22.0427 26.5471 21.9753 26.6388 21.8911 26.7136C21.8068 26.7884 21.7077 26.8445 21.6003 26.8781C21.4928 26.9118 21.3794 26.9223 21.2676 26.909H17.0919C16.8767 26.909 16.6636 26.9514 16.4648 27.0337C16.266 27.1161 16.0853 27.2368 15.9331 27.389C15.7809 27.5412 15.6602 27.7218 15.5779 27.9207C15.4955 28.1195 15.4531 28.3326 15.4531 28.5478C15.4531 28.763 15.4955 28.9761 15.5779 29.175C15.6602 29.3738 15.7809 29.5544 15.9331 29.7066C16.0853 29.8588 16.266 29.9795 16.4648 30.0619C16.6636 30.1442 16.8767 30.1866 17.0919 30.1866H18.8879V31.0622C18.922 31.4748 19.1101 31.8596 19.4147 32.1401C19.7193 32.4205 20.1183 32.5762 20.5323 32.5762C20.9464 32.5762 21.3454 32.4205 21.65 32.1401C21.9546 31.8596 22.1426 31.4748 22.1768 31.0622V30.1866C23.2515 30.0705 24.236 29.5322 24.9138 28.6902C25.5917 27.8482 25.9072 26.7714 25.7911 25.6967C25.675 24.622 25.1368 23.6375 24.2947 22.9596C23.4527 22.2818 22.3759 21.9662 21.3012 22.0823V22.0823Z" fill="#FDCF33"/>
</svg>
