<svg width="24" height="24" viewBox="0 0 24 24" fill="none" xmlns="http://www.w3.org/2000/svg">
<path d="M14.8617 4.98438H8.21354C7.84535 4.98438 7.54688 5.28285 7.54688 5.65104C7.54688 6.01923 7.84535 6.31771 8.21354 6.31771H14.8617C15.2299 6.31771 15.5284 6.01923 15.5284 5.65104C15.5284 5.28285 15.2299 4.98438 14.8617 4.98438Z" fill="white"/>
<path d="M17.331 8.76306L16.5283 7.87106C16.4657 7.8016 16.3893 7.74606 16.3039 7.70804C16.2186 7.67003 16.1262 7.65038 16.0327 7.65039H7.02655C6.93309 7.65038 6.84068 7.67003 6.75531 7.70804C6.66994 7.74606 6.59351 7.8016 6.53099 7.87106L5.72825 8.76306C5.66573 8.83252 5.5893 8.88806 5.50393 8.92607C5.41856 8.96409 5.32615 8.98373 5.2327 8.98372H4.88151C4.7047 8.98372 4.53513 9.05396 4.41011 9.17899C4.28508 9.30401 4.21484 9.47358 4.21484 9.65039V16.3171C4.21484 16.4939 4.28508 16.6634 4.41011 16.7885C4.53513 16.9135 4.7047 16.9837 4.88151 16.9837H7.17284C7.28259 16.9837 7.39064 17.0108 7.4874 17.0626C7.58416 17.1144 7.66664 17.1893 7.72751 17.2806L8.66507 18.6868C8.72594 18.7782 8.80842 18.853 8.90518 18.9048C9.00194 18.9566 9.10998 18.9837 9.21973 18.9837H18.1963C18.3731 18.9837 18.5427 18.9135 18.6677 18.7885C18.7928 18.6634 18.863 18.4939 18.863 18.3171V9.65039C18.863 9.47358 18.7928 9.30401 18.6677 9.17899C18.5427 9.05396 18.3731 8.98372 18.1963 8.98372H17.8265C17.7331 8.98373 17.6407 8.96409 17.5553 8.92607C17.4699 8.88806 17.3935 8.83252 17.331 8.76306Z" fill="white"/>
<path d="M12.207 7.65104V4.98438H10.8737V7.65104H12.207Z" fill="white"/>
<path d="M1.53906 9.65104L1.53906 16.3177C1.53906 16.6859 1.83754 16.9844 2.20573 16.9844C2.57392 16.9844 2.8724 16.6859 2.8724 16.3177L2.8724 9.65104C2.8724 9.28285 2.57392 8.98438 2.20573 8.98438C1.83754 8.98438 1.53906 9.28285 1.53906 9.65104Z" fill="white"/>
<path d="M22.1966 16.9844C22.1966 16.9844 22.8633 16.3177 22.8633 12.9844C22.8633 9.65104 22.1966 8.98438 22.1966 8.98438H20.8633V16.9844H22.1966Z" fill="white"/>
<path d="M4.20573 12.3184H1.53906V13.6517H4.20573V12.3184Z" fill="white"/>
<path d="M20.862 11.6504H18.1953V14.3171H20.862V11.6504Z" fill="white"/>
</svg>
