<svg width="33" height="33" viewBox="0 0 33 33" fill="none" xmlns="http://www.w3.org/2000/svg">
<path d="M0.152344 0.523438H26.9092C29.8439 0.523438 32.223 2.90252 32.223 5.83727V32.5941L0.152344 0.523438Z" fill="#E9280D"/>
<path d="M20.3555 6.8071L15.7114 11.4512L14.9108 10.6506L16.1548 5.24098L12.8279 8.5678L12.0273 7.76719L16.6715 3.12305L17.4721 3.92365L16.2281 9.34607L19.5613 6.01288L20.3555 6.8071Z" fill="white"/>
<path d="M20.3396 14.81L19.7049 15.4447L17.2392 12.9791L17.874 12.3444L20.3396 14.81ZM22.1099 8.56142L17.4657 13.2056L16.6651 12.405L21.3093 7.76081L22.1099 8.56142ZM22.0875 12.4177L21.4624 13.0429L19.3189 10.8994L19.9441 10.2743L22.0875 12.4177ZM24.3331 10.7846L23.6951 11.4225L21.2455 8.97288L21.8834 8.33495L24.3331 10.7846Z" fill="white"/>
<path d="M22.566 16.2198L27.0921 13.5437L27.5769 14.0285L26.5945 14.9025L21.8898 17.6296L21.3858 17.1257L22.566 16.2198ZM25.475 11.9265L22.6521 16.2485L21.6474 17.3872L21.1115 16.8513L24.6807 11.1323L25.475 11.9265ZM25.0635 18.6407L29.3663 15.8179L30.1638 16.6153L24.4447 20.1845L23.9088 19.6487L25.0635 18.6407ZM27.7651 14.2167L25.0699 18.7428L24.1704 19.9102L23.6664 19.4063L26.4095 14.7175L27.2867 13.7382L27.7651 14.2167Z" fill="white"/>
</svg>
