<svg width="29" height="29" viewBox="0 0 29 29" fill="none" xmlns="http://www.w3.org/2000/svg">
<path d="M28.1904 0.339844H4.76731C2.19821 0.339844 0.115549 2.42251 0.115549 4.99161V28.4147L28.1904 0.339844Z" fill="#E9280D"/>
<path d="M5.59427 11.1493L9.80761 15.3627L9.08127 16.089L4.17342 14.9604L7.19163 17.9787L6.46529 18.705L2.25195 14.4917L2.97829 13.7653L7.89771 14.8939L4.87372 11.8699L5.59427 11.1493Z" fill="white"/>
<path d="M12.8548 11.1638L13.4306 11.7397L11.1937 13.9766L10.6179 13.4007L12.8548 11.1638ZM7.18584 9.55776L11.3992 13.7711L10.6728 14.4974L6.45951 10.2841L7.18584 9.55776ZM10.6844 9.57802L11.2516 10.1452L9.30698 12.0898L8.7398 11.5226L10.6844 9.57802ZM9.20281 7.5408L9.78156 8.11956L7.55914 10.342L6.98038 9.76322L9.20281 7.5408Z" fill="white"/>
<path d="M14.1338 9.14395L11.7059 5.03768L12.1458 4.59783L12.9387 5.48911L15.4129 9.75743L14.9556 10.2147L14.1338 9.14395ZM10.2388 6.50483L14.1598 9.06582L15.1929 9.97736L14.7068 10.4635L9.51823 7.22538L10.2388 6.50483ZM16.3302 6.87813L13.7692 2.97442L14.4926 2.25098L17.7308 7.43952L17.2446 7.92567L16.3302 6.87813ZM12.3165 4.4271L16.4228 6.87234L17.4819 7.68838L17.0247 8.1456L12.7708 5.65695L11.8824 4.86116L12.3165 4.4271Z" fill="white"/>
</svg>
