<svg fill="none" height="180" viewBox="0 0 240 180" width="240" xmlns="http://www.w3.org/2000/svg" xmlns:xlink="http://www.w3.org/1999/xlink"><filter id="a" color-interpolation-filters="sRGB" filterUnits="userSpaceOnUse" height="70.9812" width="46.4923" x="40.5997" y="24.4465"><feFlood flood-opacity="0" result="BackgroundImageFix"/><feBlend in="SourceGraphic" in2="BackgroundImageFix" mode="normal" result="shape"/><feColorMatrix in="SourceAlpha" result="hardAlpha" type="matrix" values="0 0 0 0 0 0 0 0 0 0 0 0 0 0 0 0 0 0 127 0"/><feOffset dx="-3.54244" dy="-.295203"/><feGaussianBlur stdDeviation="6.34686"/><feComposite in2="hardAlpha" k2="-1" k3="1" operator="arithmetic"/><feColorMatrix type="matrix" values="0 0 0 0 0.765104 0 0 0 0 0.82835 0 0 0 0 0.941667 0 0 0 1 0"/><feBlend in2="shape" mode="multiply" result="effect1_innerShadow_2404_50017"/></filter><filter id="b" color-interpolation-filters="sRGB" filterUnits="userSpaceOnUse" height="69.1395" width="51.6886" x="101.952" y="31.1044"><feFlood flood-opacity="0" result="BackgroundImageFix"/><feColorMatrix in="SourceAlpha" result="hardAlpha" type="matrix" values="0 0 0 0 0 0 0 0 0 0 0 0 0 0 0 0 0 0 127 0"/><feOffset dx="1.18081" dy="-.590406"/><feComposite in2="hardAlpha" operator="out"/><feColorMatrix type="matrix" values="0 0 0 0 0.6 0 0 0 0 0.737255 0 0 0 0 1 0 0 0 0.36 0"/><feBlend in2="BackgroundImageFix" mode="normal" result="effect1_dropShadow_2404_50017"/><feBlend in="SourceGraphic" in2="effect1_dropShadow_2404_50017" mode="normal" result="shape"/><feColorMatrix in="SourceAlpha" result="hardAlpha" type="matrix" values="0 0 0 0 0 0 0 0 0 0 0 0 0 0 0 0 0 0 127 0"/><feOffset dx="-11.8081" dy="10.0369"/><feGaussianBlur stdDeviation="6.93727"/><feComposite in2="hardAlpha" k2="-1" k3="1" operator="arithmetic"/><feColorMatrix type="matrix" values="0 0 0 0 0.994857 0 0 0 0 0.996571 0 0 0 0 1 0 0 0 1 0"/><feBlend in2="shape" mode="normal" result="effect2_innerShadow_2404_50017"/></filter><filter id="c" color-interpolation-filters="sRGB" filterUnits="userSpaceOnUse" height="51.9635" width="34.1185" x="116.557" y="35.1699"><feFlood flood-opacity="0" result="BackgroundImageFix"/><feBlend in="SourceGraphic" in2="BackgroundImageFix" mode="normal" result="shape"/><feColorMatrix in="SourceAlpha" result="hardAlpha" type="matrix" values="0 0 0 0 0 0 0 0 0 0 0 0 0 0 0 0 0 0 127 0"/><feOffset dy=".590406"/><feGaussianBlur stdDeviation="1.18081"/><feComposite in2="hardAlpha" k2="-1" k3="1" operator="arithmetic"/><feColorMatrix type="matrix" values="0 0 0 0 0.662745 0 0 0 0 0.780392 0 0 0 0 1 0 0 0 1 0"/><feBlend in2="shape" mode="darken" result="effect1_innerShadow_2404_50017"/></filter><filter id="d" color-interpolation-filters="sRGB" filterUnits="userSpaceOnUse" height="70.9812" width="46.4923" x="155.867" y="24.4465"><feFlood flood-opacity="0" result="BackgroundImageFix"/><feBlend in="SourceGraphic" in2="BackgroundImageFix" mode="normal" result="shape"/><feColorMatrix in="SourceAlpha" result="hardAlpha" type="matrix" values="0 0 0 0 0 0 0 0 0 0 0 0 0 0 0 0 0 0 127 0"/><feOffset dx="-3.54244" dy="-.295203"/><feGaussianBlur stdDeviation="6.34686"/><feComposite in2="hardAlpha" k2="-1" k3="1" operator="arithmetic"/><feColorMatrix type="matrix" values="0 0 0 0 0.765104 0 0 0 0 0.82835 0 0 0 0 0.941667 0 0 0 1 0"/><feBlend in2="shape" mode="multiply" result="effect1_innerShadow_2404_50017"/></filter><filter id="e" color-interpolation-filters="sRGB" filterUnits="userSpaceOnUse" height="5.66846" width="20.098" x="75.5332" y="128.867"><feFlood flood-opacity="0" result="BackgroundImageFix"/><feBlend in="SourceGraphic" in2="BackgroundImageFix" mode="normal" result="shape"/><feColorMatrix in="SourceAlpha" result="hardAlpha" type="matrix" values="0 0 0 0 0 0 0 0 0 0 0 0 0 0 0 0 0 0 127 0"/><feOffset dy="-1.71581"/><feComposite in2="hardAlpha" k2="-1" k3="1" operator="arithmetic"/><feColorMatrix type="matrix" values="0 0 0 0 0.576476 0 0 0 0 0.756034 0 0 0 0 0.954167 0 0 0 0.37 0"/><feBlend in2="shape" mode="multiply" result="effect1_innerShadow_2404_50017"/></filter><filter id="f" color-interpolation-filters="sRGB" filterUnits="userSpaceOnUse" height=".586809" width="14.0651" x="81.5385" y="133.653"><feFlood flood-opacity="0" result="BackgroundImageFix"/><feBlend in="SourceGraphic" in2="BackgroundImageFix" mode="normal" result="shape"/><feColorMatrix in="SourceAlpha" result="hardAlpha" type="matrix" values="0 0 0 0 0 0 0 0 0 0 0 0 0 0 0 0 0 0 127 0"/><feOffset dy="-.361223"/><feGaussianBlur stdDeviation=".203188"/><feComposite in2="hardAlpha" k2="-1" k3="1" operator="arithmetic"/><feColorMatrix type="matrix" values="0 0 0 0 0.682353 0 0 0 0 0.803922 0 0 0 0 0.984314 0 0 0 0.14 0"/><feBlend in2="shape" mode="multiply" result="effect1_innerShadow_2404_50017"/></filter><filter id="g" color-interpolation-filters="sRGB" filterUnits="userSpaceOnUse" height="2.26732" width="15.1353" x="78.6564" y="132.312"><feFlood flood-opacity="0" result="BackgroundImageFix"/><feBlend in="SourceGraphic" in2="BackgroundImageFix" mode="normal" result="shape"/><feColorMatrix in="SourceAlpha" result="hardAlpha" type="matrix" values="0 0 0 0 0 0 0 0 0 0 0 0 0 0 0 0 0 0 127 0"/><feOffset dx="-.090306" dy=".045153"/><feGaussianBlur stdDeviation=".361223"/><feComposite in2="hardAlpha" k2="-1" k3="1" operator="arithmetic"/><feColorMatrix type="matrix" values="0 0 0 0 0.682353 0 0 0 0 0.803922 0 0 0 0 0.984314 0 0 0 0.58 0"/><feBlend in2="shape" mode="multiply" result="effect1_innerShadow_2404_50017"/></filter><filter id="h" color-interpolation-filters="sRGB" filterUnits="userSpaceOnUse" height="1.94141" width="8.75171" x="80.5983" y="129.048"><feFlood flood-opacity="0" result="BackgroundImageFix"/><feBlend in="SourceGraphic" in2="BackgroundImageFix" mode="normal" result="shape"/><feColorMatrix in="SourceAlpha" result="hardAlpha" type="matrix" values="0 0 0 0 0 0 0 0 0 0 0 0 0 0 0 0 0 0 127 0"/><feOffset dx=".090306" dy="-.090306"/><feComposite in2="hardAlpha" k2="-1" k3="1" operator="arithmetic"/><feColorMatrix type="matrix" values="0 0 0 0 1 0 0 0 0 1 0 0 0 0 1 0 0 0 1 0"/><feBlend in2="shape" mode="normal" result="effect1_innerShadow_2404_50017"/><feColorMatrix in="SourceAlpha" result="hardAlpha" type="matrix" values="0 0 0 0 0 0 0 0 0 0 0 0 0 0 0 0 0 0 127 0"/><feOffset dy=".135458"/><feComposite in2="hardAlpha" k2="-1" k3="1" operator="arithmetic"/><feColorMatrix type="matrix" values="0 0 0 0 1 0 0 0 0 1 0 0 0 0 1 0 0 0 1 0"/><feBlend in2="effect1_innerShadow_2404_50017" mode="normal" result="effect2_innerShadow_2404_50017"/></filter><filter id="i" color-interpolation-filters="sRGB" filterUnits="userSpaceOnUse" height="1.58057" width="8.42566" x="80.7789" y="129.229"><feFlood flood-opacity="0" result="BackgroundImageFix"/><feBlend in="SourceGraphic" in2="BackgroundImageFix" mode="normal" result="shape"/><feColorMatrix in="SourceAlpha" result="hardAlpha" type="matrix" values="0 0 0 0 0 0 0 0 0 0 0 0 0 0 0 0 0 0 127 0"/><feOffset dx=".090306" dy="-.090306"/><feComposite in2="hardAlpha" k2="-1" k3="1" operator="arithmetic"/><feColorMatrix type="matrix" values="0 0 0 0 1 0 0 0 0 1 0 0 0 0 1 0 0 0 1 0"/><feBlend in2="shape" mode="normal" result="effect1_innerShadow_2404_50017"/><feColorMatrix in="SourceAlpha" result="hardAlpha" type="matrix" values="0 0 0 0 0 0 0 0 0 0 0 0 0 0 0 0 0 0 127 0"/><feOffset dy=".135458"/><feComposite in2="hardAlpha" k2="-1" k3="1" operator="arithmetic"/><feColorMatrix type="matrix" values="0 0 0 0 1 0 0 0 0 1 0 0 0 0 1 0 0 0 1 0"/><feBlend in2="effect1_innerShadow_2404_50017" mode="normal" result="effect2_innerShadow_2404_50017"/></filter><filter id="j" color-interpolation-filters="sRGB" filterUnits="userSpaceOnUse" height=".953844" width="1.41792" x="75.5782" y="130.448"><feFlood flood-opacity="0" result="BackgroundImageFix"/><feBlend in="SourceGraphic" in2="BackgroundImageFix" mode="normal" result="shape"/><feColorMatrix in="SourceAlpha" result="hardAlpha" type="matrix" values="0 0 0 0 0 0 0 0 0 0 0 0 0 0 0 0 0 0 127 0"/><feOffset dx=".225764" dy="-.045153"/><feGaussianBlur stdDeviation=".0903057"/><feComposite in2="hardAlpha" k2="-1" k3="1" operator="arithmetic"/><feColorMatrix type="matrix" values="0 0 0 0 0.866667 0 0 0 0 0.918367 0 0 0 0 1 0 0 0 1 0"/><feBlend in2="shape" mode="multiply" result="effect1_innerShadow_2404_50017"/></filter><filter id="k" color-interpolation-filters="sRGB" filterUnits="userSpaceOnUse" height="2.03171" width="2.077" x="79.3261" y="133.067"><feFlood flood-opacity="0" result="BackgroundImageFix"/><feColorMatrix in="SourceAlpha" result="hardAlpha" type="matrix" values="0 0 0 0 0 0 0 0 0 0 0 0 0 0 0 0 0 0 127 0"/><feOffset dx="-.090306" dy=".090306"/><feColorMatrix type="matrix" values="0 0 0 0 0.651319 0 0 0 0 0.768212 0 0 0 0 0.941667 0 0 0 0.27 0"/><feBlend in2="BackgroundImageFix" mode="multiply" result="effect1_dropShadow_2404_50017"/><feBlend in="SourceGraphic" in2="effect1_dropShadow_2404_50017" mode="normal" result="shape"/><feColorMatrix in="SourceAlpha" result="hardAlpha" type="matrix" values="0 0 0 0 0 0 0 0 0 0 0 0 0 0 0 0 0 0 127 0"/><feOffset dy=".090306"/><feComposite in2="hardAlpha" k2="-1" k3="1" operator="arithmetic"/><feColorMatrix type="matrix" values="0 0 0 0 1 0 0 0 0 1 0 0 0 0 1 0 0 0 1 0"/><feBlend in2="shape" mode="normal" result="effect2_innerShadow_2404_50017"/><feColorMatrix in="SourceAlpha" result="hardAlpha" type="matrix" values="0 0 0 0 0 0 0 0 0 0 0 0 0 0 0 0 0 0 127 0"/><feOffset dy="-.090306"/><feComposite in2="hardAlpha" k2="-1" k3="1" operator="arithmetic"/><feColorMatrix type="matrix" values="0 0 0 0 0.611765 0 0 0 0 0.752941 0 0 0 0 0.976471 0 0 0 0.34 0"/><feBlend in2="effect2_innerShadow_2404_50017" mode="multiply" result="effect3_innerShadow_2404_50017"/></filter><filter id="l" color-interpolation-filters="sRGB" filterUnits="userSpaceOnUse" height="1.94141" width="1.89636" x="91.1112" y="133.067"><feFlood flood-opacity="0" result="BackgroundImageFix"/><feBlend in="SourceGraphic" in2="BackgroundImageFix" mode="normal" result="shape"/><feColorMatrix in="SourceAlpha" result="hardAlpha" type="matrix" values="0 0 0 0 0 0 0 0 0 0 0 0 0 0 0 0 0 0 127 0"/><feOffset dy=".090306"/><feComposite in2="hardAlpha" k2="-1" k3="1" operator="arithmetic"/><feColorMatrix type="matrix" values="0 0 0 0 1 0 0 0 0 1 0 0 0 0 1 0 0 0 1 0"/><feBlend in2="shape" mode="normal" result="effect1_innerShadow_2404_50017"/><feColorMatrix in="SourceAlpha" result="hardAlpha" type="matrix" values="0 0 0 0 0 0 0 0 0 0 0 0 0 0 0 0 0 0 127 0"/><feOffset dy="-.090306"/><feComposite in2="hardAlpha" k2="-1" k3="1" operator="arithmetic"/><feColorMatrix type="matrix" values="0 0 0 0 0.611765 0 0 0 0 0.752941 0 0 0 0 0.976471 0 0 0 0.34 0"/><feBlend in2="effect1_innerShadow_2404_50017" mode="multiply" result="effect2_innerShadow_2404_50017"/></filter><filter id="m" color-interpolation-filters="sRGB" filterUnits="userSpaceOnUse" height=".406481" width="1.12888" x="83.8412" y="131.351"><feFlood flood-opacity="0" result="BackgroundImageFix"/><feColorMatrix in="SourceAlpha" result="hardAlpha" type="matrix" values="0 0 0 0 0 0 0 0 0 0 0 0 0 0 0 0 0 0 127 0"/><feOffset dx="-.090306" dy=".045153"/><feColorMatrix type="matrix" values="0 0 0 0 0.752941 0 0 0 0 0.847059 0 0 0 0 0.992157 0 0 0 1 0"/><feBlend in2="BackgroundImageFix" mode="normal" result="effect1_dropShadow_2404_50017"/><feBlend in="SourceGraphic" in2="effect1_dropShadow_2404_50017" mode="normal" result="shape"/><feColorMatrix in="SourceAlpha" result="hardAlpha" type="matrix" values="0 0 0 0 0 0 0 0 0 0 0 0 0 0 0 0 0 0 127 0"/><feOffset dy="-.090306"/><feComposite in2="hardAlpha" k2="-1" k3="1" operator="arithmetic"/><feColorMatrix type="matrix" values="0 0 0 0 1 0 0 0 0 1 0 0 0 0 1 0 0 0 1 0"/><feBlend in2="shape" mode="normal" result="effect2_innerShadow_2404_50017"/></filter><filter id="n" color-interpolation-filters="sRGB" filterUnits="userSpaceOnUse" height=".406481" width="1.12888" x="85.4215" y="131.351"><feFlood flood-opacity="0" result="BackgroundImageFix"/><feColorMatrix in="SourceAlpha" result="hardAlpha" type="matrix" values="0 0 0 0 0 0 0 0 0 0 0 0 0 0 0 0 0 0 127 0"/><feOffset dx="-.090306" dy=".045153"/><feColorMatrix type="matrix" values="0 0 0 0 0.752941 0 0 0 0 0.847059 0 0 0 0 0.992157 0 0 0 1 0"/><feBlend in2="BackgroundImageFix" mode="normal" result="effect1_dropShadow_2404_50017"/><feBlend in="SourceGraphic" in2="effect1_dropShadow_2404_50017" mode="normal" result="shape"/><feColorMatrix in="SourceAlpha" result="hardAlpha" type="matrix" values="0 0 0 0 0 0 0 0 0 0 0 0 0 0 0 0 0 0 127 0"/><feOffset dy="-.090306"/><feComposite in2="hardAlpha" k2="-1" k3="1" operator="arithmetic"/><feColorMatrix type="matrix" values="0 0 0 0 1 0 0 0 0 1 0 0 0 0 1 0 0 0 1 0"/><feBlend in2="shape" mode="normal" result="effect2_innerShadow_2404_50017"/></filter><filter id="o" color-interpolation-filters="sRGB" filterUnits="userSpaceOnUse" height=".677246" width="1.08386" x="87.2177" y="130.131"><feFlood flood-opacity="0" result="BackgroundImageFix"/><feBlend in="SourceGraphic" in2="BackgroundImageFix" mode="normal" result="shape"/><feColorMatrix in="SourceAlpha" result="hardAlpha" type="matrix" values="0 0 0 0 0 0 0 0 0 0 0 0 0 0 0 0 0 0 127 0"/><feOffset dx="-.045153" dy=".045153"/><feComposite in2="hardAlpha" k2="-1" k3="1" operator="arithmetic"/><feColorMatrix type="matrix" values="0 0 0 0 0.858333 0 0 0 0 0.914141 0 0 0 0 1 0 0 0 1 0"/><feBlend in2="shape" mode="normal" result="effect1_innerShadow_2404_50017"/></filter><linearGradient id="p" gradientUnits="userSpaceOnUse" x1="120.024" x2="120.023" y1="136.203" y2="175.292"><stop offset="0" stop-color="#ddeaff"/><stop offset="1" stop-color="#feffff" stop-opacity="0"/></linearGradient><linearGradient id="q"><stop offset=".0885417" stop-color="#cdf"/><stop offset="1" stop-color="#f2f6ff"/></linearGradient><linearGradient id="r" gradientUnits="userSpaceOnUse" x1="78.3622" x2="76.0984" xlink:href="#q" y1="24.7417" y2="93.3084"/><linearGradient id="s"><stop offset="0" stop-color="#e4f0ff"/><stop offset="1" stop-color="#9cbdff"/></linearGradient><linearGradient id="t" gradientUnits="userSpaceOnUse" x1="78.5391" x2="78.5391" xlink:href="#s" y1="105.287" y2="30.3463"/><linearGradient id="u" gradientUnits="userSpaceOnUse" x1="82.5445" x2="47.2864" y1="52.0757" y2="84.3356"><stop offset="0" stop-color="#eaf1ff"/><stop offset="1" stop-color="#dee9ff"/></linearGradient><linearGradient id="v" gradientUnits="userSpaceOnUse" x1="108.517" x2="131.219" y1="27.5961" y2="96.5313"><stop offset="0" stop-color="#93b8ff"/><stop offset="1" stop-color="#e6efff"/></linearGradient><linearGradient id="w"><stop offset="0" stop-color="#81acff"/><stop offset="1" stop-color="#d7e6ff"/></linearGradient><linearGradient id="x" gradientUnits="userSpaceOnUse" x1="122.836" x2="122.836" xlink:href="#w" y1="25.1421" y2="96.5301"/><linearGradient id="y" gradientUnits="userSpaceOnUse" x1="126.849" x2="126.849" xlink:href="#w" y1="25.2568" y2="96.6448"/><linearGradient id="z" gradientUnits="userSpaceOnUse" x1="121.444" x2="145.722" y1="25.1421" y2="92.5474"><stop offset="0" stop-color="#b9d0ff"/><stop offset="1" stop-color="#f1f6ff"/></linearGradient><linearGradient id="A" gradientUnits="userSpaceOnUse" x1="156.331" x2="111.268" y1="37.8863" y2="81.2835"><stop offset=".132917" stop-color="#e8f0ff"/><stop offset="1" stop-color="#eaf1fe"/></linearGradient><linearGradient id="B" gradientUnits="userSpaceOnUse" x1="133.623" x2="131.534" y1="34.8467" y2="86.8129"><stop offset="0" stop-color="#a0c1ff"/><stop offset="1" stop-color="#dbe7ff"/></linearGradient><linearGradient id="C" gradientUnits="userSpaceOnUse" x1="139.259" x2="130.767" y1="58.6721" y2="63.714"><stop offset="0" stop-color="#c5d9ff"/><stop offset="1" stop-color="#dfeaff"/></linearGradient><linearGradient id="D" gradientUnits="userSpaceOnUse" x1="132.523" x2="137.084" y1="62.9344" y2="56.86"><stop offset="0" stop-color="#c2d7ff"/><stop offset="1" stop-color="#93b8ff"/></linearGradient><linearGradient id="E" gradientUnits="userSpaceOnUse" x1="193.957" x2="191.693" xlink:href="#q" y1="24.7417" y2="93.3084"/><linearGradient id="F" gradientUnits="userSpaceOnUse" x1="193.807" x2="193.807" xlink:href="#s" y1="105.287" y2="30.3463"/><linearGradient id="G" gradientUnits="userSpaceOnUse" x1="180.446" x2="180.446" y1="24.7417" y2="95.4279"><stop offset="0" stop-color="#c8daff"/><stop offset="1" stop-color="#fff"/></linearGradient><linearGradient id="H" gradientUnits="userSpaceOnUse" x1="48.7468" x2="53.7289" y1="128.223" y2="147.417"><stop offset="0" stop-color="#254a84"/><stop offset="1" stop-color="#2f5f98"/></linearGradient><linearGradient id="I" gradientUnits="userSpaceOnUse" x1="80.9516" x2="89.0339" y1="130.561" y2="130.199"><stop offset="0" stop-color="#758eb6"/><stop offset="1" stop-color="#758eb6"/></linearGradient><linearGradient id="J" gradientUnits="userSpaceOnUse" x1="80.2065" x2="79.3938" y1="135.596" y2="132.661"><stop offset="0" stop-color="#d8e7ff"/><stop offset="1" stop-color="#7ba3e9"/></linearGradient><linearGradient id="K" gradientUnits="userSpaceOnUse" x1="80.4647" x2="80.4647" y1="132.485" y2="135.593"><stop offset="0" stop-color="#7495ca"/><stop offset="1" stop-color="#85a5d7"/></linearGradient><linearGradient id="L" gradientUnits="userSpaceOnUse" x1="91.7939" x2="90.9812" y1="135.596" y2="132.661"><stop offset="0" stop-color="#7e94b7"/><stop offset="1" stop-color="#62779c"/></linearGradient><linearGradient id="M" gradientUnits="userSpaceOnUse" x1="92.0328" x2="92.0328" y1="132.505" y2="135.613"><stop offset="0" stop-color="#6381b3"/><stop offset="1" stop-color="#738cb1"/></linearGradient><linearGradient id="N" gradientUnits="userSpaceOnUse" x1="45.5341" x2="56.9788" y1="126.816" y2="132.82"><stop offset=".0979697" stop-color="#264b85"/><stop offset="1" stop-color="#3b70af"/></linearGradient><clipPath id="O"><path d="m0 0h240v180h-240z"/></clipPath><mask id="P" height="81" maskUnits="userSpaceOnUse" width="41" x="87" y="20"><path d="m126.799 22.5507-2.869-2.094c-.247-.1802-.549-.2583-.852-.2167-7.418 1.0182-21.515 2.934-22.078 2.934-.72 0-12.5926 20.9869-13.3122 22.0662-.5665.8498 1.763 28.4056 3.0563 42.7301.0386.4276.2998.788.6927.961 9.7102 4.2733 28.2242 12.1837 29.3502 11.7147 1.151-.48 1.12-8.1951.96-11.9927l4.119-62.1191c.012-.1791.064-.3531.154-.5088l1.108-1.934c.299-.5222.157-1.1859-.329-1.5407z" fill="#c4c4c4"/></mask><mask id="Q" height="3" maskUnits="userSpaceOnUse" width="8" x="83" y="128"><path d="m90.0954 130.696h-1.0837c-.602-.294-1.7835-.858-2.2351-1.129-.4515-.271-2.8672.06-3.2961.068l.1666-.765c.2935.022 2.2265-.048 3.2876.268.74.22 2.4307 1.091 3.1607 1.558z" fill="#bcd6fe"/></mask><mask id="R" fill="#000" height="3" maskUnits="userSpaceOnUse" width="10" x="79.6707" y="128.229"><path d="m79.6707 128.229h10v3h-10z" fill="#fff"/><path d="m82.0033 130.702-1.1612-.366c-.0708-.022-.0859-.116-.0257-.159l.6925-.5c.3105-.225.6763-.36 1.0585-.384.5099-.032 1.1777-.064 1.7137-.064.6285 0 1.4381.089 1.962.161.2228.03.4373.102.6367.206l1.0118.528 1.2778.662v.023h-6.4736c-.235 0-.4685-.036-.6925-.107z" fill="#000"/></mask><g clip-path="url(#O)"><circle fill="#eaf2ff" r="9.76336" transform="matrix(-.485417 .874282 .874282 .485417 27.1508 18.4544)"/><path clip-rule="evenodd" d="m28.6705 21.539c3.5047-1.6529 6.5404-3.4496 8.5252-5.1589.9948-.8567 1.691-1.6623 2.0629-2.3858.3658-.7114.3944-1.2882.1638-1.7771-.24-.5089-.7506-.9272-1.5879-1.2008-.839-.274-1.9521-.3822-3.2805-.3011-.4723.0288-.9678.0813-1.483.1574-.2204-.1657-.4448-.3288-.6684-.4898 3.795-.66807 6.7292-.166 7.5538 1.5825 1.3272 2.8141-3.9836 6.7824-11.0341 10.1076-7.0505 3.3253-13.1707 4.7484-14.4979 1.9343-.7827-1.6595.5097-4.0712 3.1479-6.4527-.0507.3094-.0842.6102-.1017.9034-.2017.1958-.3933.3911-.5745.5855-.9075.9734-1.532 1.9012-1.8542 2.7228-.3216.8202-.3235 1.4802-.0835 1.9892.2362.5008.6921.8501 1.4384 1.0305.7624.1842 1.784.1775 3.0355-.0263 2.4978-.4067 5.7329-1.5674 9.2382-3.2207z" fill="#d3e4ff" fill-rule="evenodd"/><path clip-rule="evenodd" d="m120.024 136.203c66.333 0 120.108 13.53 120.108 30.219 0 16.69-53.775 30.22-120.108 30.22-66.3328 0-120.1074961-13.53-120.1074961-30.22 0-16.689 53.7746961-30.219 120.1074961-30.219z" fill="url(#p)" fill-rule="evenodd"/><ellipse cx="39.0175" cy="149.423" fill="#eaf4ff" rx="7.74262" ry="2.58087" transform="matrix(.99069715 -.13608509 .13608509 .99069715 -19.971268 6.699759)"/><path clip-rule="evenodd" d="m201.665 159.41c-4.725-.913-8.728-2.753-8.94-4.109s3.447-1.716 8.172-.803 8.728 2.753 8.94 4.109c.212 1.357-3.446 1.716-8.172.803z" fill="#e6f1ff" fill-opacity=".5" fill-rule="evenodd"/><circle cx="30.7007" cy="126.92" fill="#e6f0ff" r="2.36162"/><circle cx="220.516" cy="131.053" fill="#e6f0ff" r="6.49446"/><path clip-rule="evenodd" d="m123.859 146.672c28.97 0 52.46 1.407 52.46 3.141s-23.485 3.141-52.46 3.141c-28.9695 0-52.4591-1.407-52.4591-3.141s23.4896-3.141 52.4591-3.141z" fill="#e7f2ff" fill-rule="evenodd"/><path clip-rule="evenodd" d="m58.6937 158.231c25.1337 0 45.5133 1.797 45.5133 4.01 0 2.214-20.3749 4.01-45.5133 4.01-25.1338 0-45.513-1.796-45.513-4.01 0-2.213 20.3792-4.01 45.513-4.01z" fill="#e7f2ff" fill-rule="evenodd"/><path d="m48.7526 86.2747v-13.6865l19.1786-47.8465h11.5454l2.0803 3.6405-16.8903 42.5418h8.3553v-12.637h14.5954v13.2324h4.0851v14.7553h-4.0851v9.1532h-14.5954v-9.1532z" fill="url(#r)"/><g filter="url(#a)"><path d="m44.1421 86.2747v-13.6865l19.1787-47.8465h11.5454l2.0802 3.6405-16.8903 42.5418h8.3553v-12.637h14.5954v13.2324h4.0851v14.7553h-4.0851v9.1532h-14.5954v-9.1532z" fill="url(#t)" fill-opacity=".8"/></g><path d="m68.6328 70.924v-12.4156h14.1526v13.011.2214h.2214 3.8637v14.3124h-3.8637-.2214v.2215 8.9318h-14.1526v-8.9318-.2215h-.2214-24.0479v-13.4222l19.107-47.6679h11.2672l1.9637 3.4364-16.8511 42.4428-.1203.3031h.3261 8.3553.2214z" stroke="url(#u)" stroke-width=".442804"/><path clip-rule="evenodd" d="m133.406 25.1421h-17.132v.0602c-12.771 1.0695-22.9025 16.615-22.9025 35.6353 0 19.0202 10.1315 34.5658 22.9025 35.6353v.0572h1.181c.075.001.15.0015.225.0015s.15-.0005.225-.0015h15.501v-8.473c5.25-6.5473 8.582-16.312 8.582-27.2195s-3.332-20.6723-8.582-27.2196z" fill="url(#v)" fill-rule="evenodd"/><g mask="url(#P)"><path d="m148.872 60.8361c0 9.7917-2.933 18.6432-7.659 25.0387-4.726 6.3956-11.227 10.3175-18.377 10.3175-7.151 0-13.652-3.9219-18.378-10.3175-4.7256-6.3955-7.6586-15.247-7.6586-25.0387 0-9.7918 2.933-18.6432 7.6586-25.0387 4.726-6.3957 11.227-10.3175 18.378-10.3175 7.15 0 13.651 3.9218 18.377 10.3175 4.726 6.3955 7.659 15.2469 7.659 25.0387z" stroke="url(#x)" stroke-width=".675618"/></g><path d="m150.819 60.9508c0 9.7978-2.705 18.653-7.061 25.0493-4.357 6.3981-10.342 10.3069-16.909 10.3069-6.568 0-12.553-3.9088-16.91-10.3069-4.356-6.3963-7.061-15.2515-7.061-25.0493 0-9.7977 2.705-18.653 7.061-25.0493 4.357-6.398 10.342-10.3069 16.91-10.3069 6.567 0 12.552 3.9089 16.909 10.3069 4.356 6.3963 7.061 15.2516 7.061 25.0493z" stroke="url(#y)" stroke-width=".675618"/><ellipse cx="132.641" cy="60.8361" fill="url(#z)" rx="24.3084" ry="35.694"/><g filter="url(#b)"><ellipse cx="133.11" cy="60.951" fill="url(#A)" rx="19.3499" ry="29.2562"/></g><g fill="url(#B)" filter="url(#c)"><path d="m130.774 36.1428c0-.6587-.62-1.1424-1.239-.9171-1.928.7019-3.732 1.8894-5.35 3.4723-.289.2822-.366.7138-.209 1.0856l4.857 11.5023c.43 1.0183 1.948.7107 1.947-.3946z"/><path d="m120.404 47.1604c-.431-.6702-1.425-.5997-1.719.1412-.994 2.5091-1.721 5.2896-2.119 8.2507-.06.4475.193.8763.61 1.0498l9.708 4.0414c.918.382 1.78-.6481 1.242-1.4841z"/><path d="m117.586 65.4423c-.592.0211-1.04.5434-.954 1.1294.435 2.9603 1.199 5.733 2.232 8.2253.27.651 1.112.7947 1.606.2925l8.16-8.2903c.642-.6532.157-1.7563-.759-1.7237z"/><path d="m124.193 81.8635c-.252.3943-.202.9114.135 1.2346 1.629 1.5589 3.44 2.7201 5.375 3.3934.568.1979 1.151-.1983 1.234-.7947l1.913-13.828c.149-1.078-1.275-1.6012-1.859-.6832z"/><path d="m136.836 85.3517c-.017.6812.631 1.1834 1.263.9293 1.866-.7498 3.609-1.957 5.173-3.5373.266-.2683.346-.6666.22-1.0224l-4.3-12.1083c-.376-1.0591-1.94-.8099-1.968.3137z"/><path d="m146.931 74.1906c.417.7019 1.441.643 1.735-.119.932-2.4188 1.616-5.0826 2.001-7.9121.059-.4343-.178-.8532-.576-1.0368l-8.815-4.0637c-.904-.4166-1.804.5827-1.296 1.4381z"/><path d="m149.599 56.3183c.619.022 1.114-.5116 1.025-1.1245-.411-2.8531-1.128-5.5333-2.095-7.9583-.262-.6562-1.105-.8101-1.606-.3113l-7.352 7.3306c-.628.6257-.207 1.6989.679 1.7304z"/><path d="m143.191 38.8322c.331.3306.37.8493.11 1.2386l-6.514 9.7594c-.595.8923-1.987.3686-1.847-.6949l1.718-13.0387c.08-.6116.686-1.0122 1.261-.7908 1.902.7311 3.678 1.9358 5.272 3.5264z"/></g><ellipse cx="134.413" cy="60.0856" fill="url(#C)" rx="4.84577" ry="7.11543"/><ellipse cx="134.593" cy="60.0852" fill="url(#D)" rx="3.29608" ry="5.10521"/><path d="m164.347 86.2747v-13.6865l19.179-47.8465h11.545l2.08 3.6405-16.89 42.5418h8.355v-12.637h14.596v13.2324h4.085v14.7553h-4.085v9.1532h-14.596v-9.1532z" fill="url(#E)"/><g filter="url(#d)"><path d="m159.41 86.2747v-13.6865l19.178-47.8465h11.546l2.08 3.6405-16.89 42.5418h8.355v-12.637h14.595v13.2324h4.085v14.7553h-4.085v9.1532h-14.595v-9.1532z" fill="url(#F)"/></g><path d="m183.868 70.924v-12.4481h14.217v13.0435.1889h.189 3.897v14.3774h-3.897-.189v.189 8.9643h-14.217v-8.9643-.189h-.189-24.08v-13.461l19.117-47.6941h11.308l1.981 3.4664-16.857 42.4573-.103.2586h.279 8.355.189z" stroke="url(#G)" stroke-width=".377814"/><path d="m69.3684 159.243-1.9004-6.597 5.177.61 1.3945 5.987z" fill="#f5ae9f"/><path d="m68.1245 162.526.5923-3.976s2.1388.473 2.7844.473c.6455 0 2.6836-.473 2.6836-.473 2.2092.746 7.1594 2.087 8.0545 2.087.8952 0 1.1841 1.316 1.2128 1.889z" fill="#646f86"/><path d="m57.6301 132.976c-1.2757 1.093-2.5567 2.851-3.6959 4.704-2.9637 4.821-6.4621 9.391-11.1645 12.54l-.336.225 1.4074 10.971s4.7773-2.933 9.6656-10.102c4.8883-7.17 7.6063-10.646 7.6063-10.646s2.1823 3.982 1.8565 6.209c-.3259 2.227 5.2043 10.031 5.2043 10.031l5.54-.706s-5.6664-18.494-6.97-21.753c-1.3035-3.259-5.3117-4.732-9.1137-1.473z" fill="#b8d5fb"/><g clip-rule="evenodd" fill-rule="evenodd"><path d="m52.5844 121.112s-1.4383 1.429-1.6915 3.404c-.0103.41-.6094 1.514-2.3239.346-1.4757-1.005-3.3773-2.877-3.3773-2.877l1.8063-5.464z" fill="#f19885"/><path d="m52.2123 121.503-2.0959 2.16s-.3947-.656-.7577-1.059c-1.0663-1.191-1.7834-3.7-1.7834-3.7l.2388-1.651s.6792-1.758 1.6218-.137c.9451 1.62 2.7764 4.387 2.7764 4.387z" fill="#e98772"/><path d="m56.7022 111.472s.0443 1.924-.3642 3.336c-.731 2.492-.71 4.096-1.2084 5.795-.4984 1.698-.8606 2.207-2.3632 1.766-2.0636-.606-4.3099-2.495-4.7567-3.487-.2173-.482-.0149-2.98.7024-5.328.7577-2.479 1.9644-4.798 7.9901-2.082z" fill="#f5ae9f"/><path d="m54.2995 116.009-.0111-.004c-.1884-.054-.3848.054-.4387.241l-.072.251c-.0542.187.0549.383.2433.437l.0109.004c.1886.054.385-.054.4389-.241l.0723-.251c.0539-.187-.0552-.383-.2436-.437z" fill="#363e52"/><path d="m55.4457 115.088-.3663.396s-.4531-.119-.9342-.269c-.481-.15-.9339-.269-.9339-.269s.5787-.282 1.067-.194c.4888.089 1.1674.336 1.1674.336z" fill="#363e52"/><path d="m49.1606 108.055c1.9783-.228 4.8995.908 5.5682 1.142.6686.235 1.1515-.154 1.3977-.573.2463-.42 1.8388 1.277 1.7663 2.363-.0725 1.085-.3052 1.878-1.1505 2.245-.9058-.266-3.1705-.931-4.2363-1.489-1.0659-.559-1.2986.233-1.1915 1.126.1072.892-.2387 1.651-.3716 2.104-.1742.304-.4264.276-.7324.4-.6874.28-1.2256-.851-1.4112.201-.1296.389-.1781.305-.4592.726-.2328.793-.2992 1.019-.4654 1.585-.1789.61-1.436.48-1.436.48s-1.0235-2.65-.9433-3.851c.145-2.171.483-6.092 3.6652-6.459z" fill="#363e52"/><path d="m49.4904 114.664c-.6473-.338-1.2538-.111-1.5914.532-.3376.642-.2928 1.631.3546 1.969s1.4591-.083 1.7967-.725c.3402-.642.0901-1.438-.5599-1.776z" fill="#f5ae9f"/><path d="m49.4654 115.609s-.0602-.041-.1508-.099c-.3177-.196-1.0135-.556-.7969.195.279.967.9313.764.7031.369-.2283-.396.2446-.465.2446-.465z" fill="#cd7162"/></g><path d="m54.0414 120.617c.1299.028.2586-.054.2873-.183.0288-.13-.0532-.259-.1831-.288zm-1.0543-1.219c-.0734-.111-.2229-.142-.3339-.068-.1111.073-.1417.222-.0683.333zm1.1064.983c.0521-.235.0521-.235.0522-.235h.0001.0002.0001c-.0001 0-.0003 0-.0008 0-.0008 0-.0025 0-.005-.001-.0048-.001-.0127-.003-.0233-.006-.0212-.006-.0531-.015-.0933-.028-.0805-.025-.1927-.066-.3172-.126-.2526-.121-.5361-.309-.7194-.587l-.4022.265c.2506.38.6209.617.9135.757.1482.071.2815.119.3783.15.0485.016.0882.027.1165.035.0141.003.0254.006.0335.008.0041.001.0074.002.0098.003h.0031c.0004 0 .0007 0 .001.001h.0004.0002c.0001 0 .0002 0 .0523-.236z" fill="#cd7162"/><path clip-rule="evenodd" d="m55.7664 116.05c.1071.892.2804 1.558.5674 2.257.2003.488-.2345.669-.914.47" fill="#f5ae9f" fill-rule="evenodd"/><path d="m55.5271 116.079c-.0158-.132.0784-.252.2106-.268.1321-.016.2521.078.2679.21zm.8067 2.228-.223.092zm-.9818.701c-.1277-.037-.2009-.171-.1634-.299s.1714-.201.2991-.163zm.6536-2.987c.1048.873.2731 1.518.5511 2.195l-.4459.183c-.2959-.721-.4742-1.408-.5837-2.32zm.5511 2.195c.0624.152.089.312.0463.464-.0448.159-.1554.271-.2916.337-.2511.121-.603.096-.9594-.009l.1357-.462c.323.094.5282.078.6143.037.0324-.016.0355-.028.0371-.034.0037-.013.0095-.058-.0283-.15z" fill="#cd7162"/><path d="m53.5185 122.33c-.2924 0-1.2456-.392-1.6856-.588-.3717-.16.4938.97.9389 1.129s1.1121-.541.7467-.541z" fill="#363e52"/><path d="m50.2295 153.275c0 5.31-4.3047 9.614-9.6147 9.614-5.3101 0-9.6148-4.304-9.6148-9.614 1.1863-7.462 3.5394-10.336 8.8495-10.336s10.38 5.025 10.38 10.336z" fill="#cadffa"/><path d="m39.3126 124.364c1.9223-3.219 6.1085-4.241 9.2976-2.269l1.3397.828c4.3943 4.524 6.0958 11.021 4.4835 17.118l-3.292 12.449s-4.1371-.595-9.5584-2.089c-5.4213-1.493-8.8624-3.798-8.8624-3.798l3.5108-14.67c.6377-2.665 1.6766-5.217 3.0812-7.569z" fill="url(#H)"/><path d="m44.788 118.983-1.9103 2.417s2.4626 1.878 4.1657 2.907c1.7031 1.028 4.6834 2.214 4.6834 2.214l1.3713-2.214s-2.5565-.997-4.3516-2.378c-1.7952-1.381-3.9585-2.946-3.9585-2.946z" fill="#3c71b0"/><path d="m52.6995 126.676-.587-.794.9782-1.559z" fill="#133974"/><path d="m78.9753 160.439-3.8488-5.865 4.6167-1.032 3.4143 5.865z" fill="#f5ae9f"/><path d="m77.9519 163.217-.2371-4.287s2.765.474 3.4105.474c.6456 0 2.1948-.474 2.1948-.474 2.2092.746 7.8674 2.238 8.7626 2.238.8951 0 1.3674 1.475 1.3961 2.049z" fill="#7d89a1"/><path d="m57.2621 135.646c-1.3418 1.15-2.5828 2.574-3.627 3.935-2.3066 3.007-4.6873 6.003-7.6405 8.378l-3.2938 2.649-1.8467 12.275h3.3216c2.869 0 5.6493-1.015 7.7671-2.95 2.5202-2.304 5.8484-5.498 7.6496-7.858 3.1502-4.128 3.3772-7.713 3.3772-7.713s2.0253 3.528 4.5109 6.246c2.4855 2.718 9.0036 6.681 9.0036 6.681l5.8116-1.195s-5.8857-10.413-11.4091-18.146c-5.5235-7.733-9.8225-5.561-13.6245-2.302z" fill="#cadffa"/><path d="m84.039 129.483-.2204 1.323" stroke="#e1e5eb" stroke-width=".418674"/><g filter="url(#e)"><path d="m76.9674 133.507.9364.239 1.7559.79h15.0999.4891c.12 0 .2257-.079.2597-.194l.0857-.29c.0437-.147.0489-.303.0153-.453l-.1075-.48-.1138-.508c-.1261-.563-.5412-1.017-1.0907-1.193l-1.536-.491c-1.1538-.186-2.0745-.232-2.6555-.232-.7263-.436-2.4404-1.377-3.4863-1.656-1.3074-.349-4.7065-.087-5.4038.087-.6973.175-2.0046 1.22-2.8762 1.308-.8716.087-1.9174.261-2.1789.348s-.1743.349-.2615.697c-.0872.349-.2615.436-.3486.523-.0697.07.0871.669.1743.959.3813.249.8011.434 1.2425.546z" fill="#758eb6"/></g><g mask="url(#Q)"><path d="m90.1179 130.718-.9708.068c-.602-.293-1.9189-.948-2.3705-1.219-.4515-.271-2.8672-.301-3.2961-.294l.2935-.948c.2935.023 2.4924.556 3.251.7.7585.145 2.363 1.227 3.0929 1.693z" fill="#758eb6"/></g><g filter="url(#f)"><path d="m81.5385 134.015h14.0651l-.0678.225h-13.9973z" fill="#758eb6"/></g><g filter="url(#g)"><path clip-rule="evenodd" d="m90.3687 134.534h2.3228 1.034c.0431-.152.0662-.312.0662-.478 0-.963-.7811-1.744-1.7446-1.744s-1.7446.781-1.7446 1.744c0 .166.0231.326.0662.478zm-8.3821 0c.0672-.179.104-.372.104-.573 0-.91-.7486-1.648-1.672-1.648-.9233 0-1.6719.738-1.6719 1.648 0 .119.013.236.0376.349l.4291.175 2.348.049z" fill="#455d83" fill-rule="evenodd"/></g><g filter="url(#h)"><path d="m82.0033 130.702-1.1612-.366c-.0708-.022-.0859-.116-.0257-.159l.6925-.5c.3105-.225.6763-.36 1.0585-.384.5099-.032 1.1777-.064 1.7137-.064.6285 0 1.4381.089 1.962.161.2228.03.4373.102.6367.206l1.0118.528 1.2778.662v.023h-6.4736c-.235 0-.4685-.036-.6925-.107z" fill="#e7f2ff"/></g><path d="m80.8421 130.336.0543-.172zm1.1612.366.0543-.172zm7.1661.107v.18h.1806v-.18zm-2.9263-1.419.0245-.179zm-3.6757-.097.0113.18zm-1.0585.384.1058.146zm-.6925.5.1058.146zm7.0752-.053-.0835.16h.0004zm-1.0118-.528.0836-.16zm2.2896 1.19h.1806v-.11l-.0975-.05zm-8.3816-.278 1.1612.367.1086-.345-1.1612-.366zm1.908.481h6.4736v-.361h-6.4736zm3.5718-1.778c-.5259-.072-1.3453-.163-1.9865-.163v.361c.6159 0 1.4156.088 1.9375.16zm-1.9865-.163c-.5417 0-1.2139.033-1.725.065l.0226.36c.5087-.032 1.1721-.064 1.7024-.064zm-2.8779.482-.6925.5.2115.293.6925-.5zm6.572.434-1.0118-.528-.1671.32 1.0118.528zm1.3748.845v-.023h-.3612v.023zm-.0975-.183-1.2778-.662-.1662.32 1.2778.663zm-3.0339-1.057c.2004.027.395.092.5777.187l.1671-.32c-.2162-.113-.4505-.192-.6958-.225zm-4.2696 1.306c.2416.076.4934.114.7468.114v-.361c-.2165 0-.4318-.033-.6382-.098zm.6071-1.762c-.4177.026-.816.174-1.1529.417l.2115.293c.284-.205.6172-.328.964-.35zm-1.6597 1.051c.0709.022.086.116.0258.159l-.2115-.293c-.1807.131-.1354.411.0771.478z" fill="url(#I)" mask="url(#R)"/><g filter="url(#i)"><path d="m82.0033 130.702-1.1612-.366c-.0708-.022-.0859-.116-.0257-.159l.6925-.5c.3105-.225.6763-.36 1.0585-.384.5099-.032 1.1777-.064 1.7137-.064.6285 0 1.4381.089 1.962.161.2228.03.4373.102.6367.206l2.3247 1.213h-6.5087c-.235 0-.4685-.036-.6925-.107z" fill="#e7f2ff"/></g><g filter="url(#j)"><path d="m76.0311 130.588c.2092.139.6101.174.7844.174 0 0-.1903.315-.3656.465-.3161.271-.5059.145-.5059.145-.0872-.203-.2789-.558-.3487-.697-.0871-.174.1744-.262.4358-.087z" fill="#758eb6"/></g><circle cx="80.3552" cy="134.06" fill="url(#J)" r="1.55394"/><circle cx="80.4647" cy="134.039" fill="url(#K)" r="1.55394"/><g filter="url(#k)"><ellipse cx="80.4097" cy="134.038" fill="#f0f7ff" rx=".993362" ry=".970786"/></g><circle cx="91.9426" cy="134.06" fill="url(#L)" r="1.55394"/><circle cx="92.0328" cy="134.059" fill="url(#M)" r="1.55394"/><g filter="url(#l)"><ellipse cx="92.0594" cy="134.038" fill="#dfe7ef" rx=".94821" ry=".970786"/></g><g filter="url(#m)"><rect fill="#edf5ff" height=".361223" rx=".180611" width="1.03852" x="83.9315" y="131.351"/></g><g filter="url(#n)"><rect fill="#edf5ff" height=".361223" rx=".180611" width="1.03852" x="85.5118" y="131.351"/></g><g filter="url(#o)"><path d="m87.2177 130.131h.7451c.1871 0 .3387.152.3387.339s-.1516.339-.3387.339h-.7451z" fill="#6381b3"/></g><path d="m61.5331 136.053-4.0259-3.133-3.8885 9.637 6.7482 4.487c.6873.457 1.5933.395 2.2001-.165 2.0027-1.846 6.435-6.063 8.9583-9.466 2.3143-3.121 3.6238-5.201 4.2078-6.18.2258-.379.673-.575 1.101-.469l1.7979.445 1.384 1.169c.1198.101.2814.138.4331.098l2.5806-.676c.5159-.135.7128-.764.3664-1.169l-1.4781-1.731-3.164-1.57c-.3637-.181-.7708-.255-1.1748-.216l-2.722.266z" fill="#f5ae9f"/><path d="m80.063 128.607c-.0612-.037-.1411-.018-.1784.043-.0373.062-.0179.141.0434.179zm1.7276 1.538-.0929.09zm-1.8626-1.316c.5215.317 1.1756.799 1.7697 1.406l.1857-.181c-.6115-.626-1.2834-1.12-1.8204-1.447zm1.7697 1.406c.7923.811.979 1.382 1.075 1.656l.2451-.086c-.1034-.295-.3064-.904-1.1344-1.751z" fill="#cd7162"/><path d="m79.5673 129.498c-.0649-.031-.1422-.003-.1727.062-.0304.065-.0024.142.0625.173zm-.1102.235c.1882.088.3417.152.5404.284s.4448.336.8027.702l.1856-.182c-.3652-.374-.6254-.59-.8443-.736s-.3943-.219-.5742-.303zm1.3431.986c.7159.732.9486 1.173 1.029 1.402l.245-.086c-.0977-.278-.358-.751-1.0884-1.498z" fill="#cd7162"/><path d="m78.8522 130.177c-.0709-.011-.1368.038-.1472.109-.0103.071.0388.137.1097.148zm-.0375.257c.2581.037.6196.147 1.2492.79l.1857-.181c-.6589-.674-1.0697-.819-1.3974-.866zm1.2492.79c.3157.323.4803.561.5754.741.0963.183.1219.303.1659.429l.2451-.086c-.0354-.101-.0731-.259-.1814-.464-.1094-.207-.2907-.465-.6193-.801z" fill="#cd7162"/><path d="m58.6051 144.344c-.0737-.81 1.1354-6.444 1.7492-9.16l-.5524-.828-4.0045 9.62 3.314 2.025c-.138-.215-.4326-.847-.5063-1.657z" fill="#f19885"/><path d="m42.4531 133.755c-2.3974-2.137-2.5728-5.826-.3889-8.18 2.1497-2.317 5.7693-2.458 8.0919-.314l10.9186 10.078s-.5747 1.661-2.3027 4.794c-1.7279 3.132-3.5034 5.042-3.5034 5.042z" fill="url(#N)"/><path d="m55.636 140.911c-.0323.023-.0625.048-.0904.076-.0275.028-.052.059-.0729.093-.036.058-.0603.122-.0716.19-.0115.066-.0105.134.0031.199.0142.067.041.13.0789.186.0408.06.0939.11.1557.148.0642.041.1361.069.2114.082.0679.009.1372.007.2041-.009.0654-.016.1271-.044.1818-.083.0553-.039.1022-.089.1382-.146.018-.029.0331-.06.0453-.092.0139-.036.0249-.074.0331-.112l.004-.017-.2271-.143c.0162.079.0018.16-.0401.228-.0208.034-.0484.063-.081.086-.031.021-.066.036-.1029.044-.0373.009-.0758.009-.1133.002-.043-.009-.084-.025-.1211-.049-.0343-.021-.0641-.049-.0878-.082-.0223-.03-.0384-.065-.0474-.102-.0085-.036-.0098-.074-.0036-.112.0065-.039.021-.077.0427-.111.0207-.034.0481-.063.0803-.086.0323-.023.0688-.039.1074-.047z" fill="#fdcf33"/><path d="m57.6025 139.654-.5445.048.0079-.023c.023-.059.0248-.123.0051-.183-.0192-.055-.0615-.102-.125-.142-.0364-.023-.0762-.04-.1181-.05-.0369-.008-.0751-.008-.1121-.001-.0393.009-.0763.026-.1082.051-.0392.03-.0723.067-.0976.109l-.2126.339.8699.546.1252-.199-.3802-.239.534-.007zm-.7079.011c.0039.039-.0091.083-.0389.13l-.0352.056-.2415-.151.0351-.056c.0299-.048.0636-.079.1003-.092.0192-.007.0397-.009.0599-.006s.0394.01.056.022c.0178.01.0329.024.0441.041s.0181.036.0202.056z" fill="#fdcf33"/><path d="m57.2312 138.602-.0038.146c-.0351-.004-.0706.001-.1033.014-.0266.014-.0487.036-.0637.062-.0219.032-.0313.071-.0263.11.002.017.0079.033.0173.048.0093.015.0219.027.0368.036.0425.027.0964.016.1618-.03l.0901-.065c.0728-.053.1401-.082.2017-.089.0642-.006.1286.01.1821.046.0375.022.07.051.0955.087.0254.035.0433.075.0525.117.0093.043.0101.087.0022.129-.008.043-.0244.084-.0485.12-.0406.07-.1066.122-.1845.145-.075.02-.1569.011-.2457-.028l.0542-.151c.0549.026.0968.038.1259.035.0269-.002.053-.01.0758-.025.0228-.014.0416-.034.0547-.058.0124-.019.0209-.04.0248-.061.004-.022.0033-.045-.0019-.067-.0053-.022-.015-.043-.0286-.061-.0135-.018-.0306-.033-.0502-.045-.0156-.01-.0326-.017-.0505-.022-.0176-.004-.0358-.005-.0537-.002-.0199.003-.0392.009-.0575.018-.0227.01-.0444.023-.065.038l-.0875.062c-.1252.087-.2362.1-.3329.039-.0315-.019-.0584-.044-.0786-.075-.0203-.031-.0334-.066-.0384-.102-.0125-.08.0055-.162.0506-.229.0634-.1.1616-.147.2946-.142z" fill="#fdcf33"/><path d="m57.6025 138.676c-.0594-.037-.1106-.085-.1504-.142-.0397-.058-.0672-.122-.0805-.191-.0162-.069-.0182-.14-.0061-.21.0121-.069.0382-.135.0766-.195.0365-.06.0849-.111.1422-.152.0573-.04.1223-.069.191-.083.0682-.017.1391-.02.2085-.008.0693.011.1355.037.1945.075.0602.036.1121.085.1524.142.0403.058.0682.123.0819.192.0158.069.0175.141.005.211s-.0389.137-.0777.196c-.0701.112-.1795.194-.3067.23-.1476.044-.2911.022-.4307-.065zm.085-.131c.0432.029.0921.048.1434.057.0514.009.104.007.1545-.005.0478-.011.093-.031.133-.059s.0739-.064.0999-.105c.0278-.043.0466-.09.0553-.14s.007-.102-.005-.151c-.0111-.05-.0323-.097-.0622-.138-.0299-.042-.0679-.077-.1117-.103-.0425-.028-.0902-.048-.1404-.057-.0501-.009-.1016-.008-.1513.003-.0493.011-.096.031-.1371.06s-.0756.067-.1014.11c-.0278.042-.0466.09-.0552.14-.0086.049-.0067.101.0054.15.0111.049.0321.096.0618.136.0297.041.0675.076.111.102z" fill="#fdcf33"/><path d="m58.8856 135.953-.219.349.2087.131.2126-.338.1227.077-.2126.338.2914.183.2189-.348.1235.077-.3014.48-.8697-.546.3014-.48z" fill="#fdcf33"/><path d="m56.9527 140.688.1416-.225-1.0777-.215-.1372.218.662.878.1416-.226-.4959-.611z" fill="#fdcf33"/><path d="m58.2945 136.622-.0899.144.57.625-.8108-.242-.0899.143.7716.701.0814-.13-.6049-.526.801.231.0755-.12-.5562-.621.737.316.0815-.13z" fill="#fdcf33"/></g></svg>