<svg width="64" height="64" viewBox="0 0 64 64" fill="none" xmlns="http://www.w3.org/2000/svg">
<path d="M50.4004 6.3999H13.6004C11.8331 6.3999 10.4004 7.83259 10.4004 9.5999V54.3999C10.4004 56.1672 11.8331 57.5999 13.6004 57.5999H50.4004C52.1677 57.5999 53.6004 56.1672 53.6004 54.3999V9.5999C53.6004 7.83259 52.1677 6.3999 50.4004 6.3999Z" fill="white"/>
<path d="M50.3998 59.2001H13.5998C12.3268 59.2001 11.1059 58.6943 10.2057 57.7942C9.30552 56.894 8.7998 55.6731 8.7998 54.4001V9.60005C8.7998 8.32701 9.30552 7.10611 10.2057 6.20594C11.1059 5.30576 12.3268 4.80005 13.5998 4.80005H50.3998C51.6728 4.80005 52.8937 5.30576 53.7939 6.20594C54.6941 7.10611 55.1998 8.32701 55.1998 9.60005V54.4001C55.1998 55.6731 54.6941 56.894 53.7939 57.7942C52.8937 58.6943 51.6728 59.2001 50.3998 59.2001ZM13.5998 8.00005C13.1755 8.00005 12.7685 8.16862 12.4684 8.46868C12.1684 8.76874 11.9998 9.1757 11.9998 9.60005V54.4001C11.9998 54.8244 12.1684 55.2314 12.4684 55.5314C12.7685 55.8315 13.1755 56 13.5998 56H50.3998C50.8242 56 51.2311 55.8315 51.5312 55.5314C51.8312 55.2314 51.9998 54.8244 51.9998 54.4001V9.60005C51.9998 9.1757 51.8312 8.76874 51.5312 8.46868C51.2311 8.16862 50.8242 8.00005 50.3998 8.00005H13.5998Z" fill="#173559"/>
<path d="M48 12.8H16V30.4H48V12.8Z" fill="#D7E7FF"/>
<path d="M48.0004 32H16.0004C15.576 32 15.1691 31.8314 14.869 31.5313C14.569 31.2313 14.4004 30.8243 14.4004 30.4V12.8C14.4004 12.3756 14.569 11.9686 14.869 11.6686C15.1691 11.3685 15.576 11.2 16.0004 11.2H48.0004C48.4247 11.2 48.8317 11.3685 49.1318 11.6686C49.4318 11.9686 49.6004 12.3756 49.6004 12.8V30.4C49.6004 30.8243 49.4318 31.2313 49.1318 31.5313C48.8317 31.8314 48.4247 32 48.0004 32ZM17.6004 28.7999H46.4004V14.4H17.6004V28.7999Z" fill="#173559"/>
<path d="M38.4 38.4H17.6C17.1757 38.4 16.7687 38.2314 16.4686 37.9313C16.1686 37.6313 16 37.2243 16 36.8C16 36.3756 16.1686 35.9686 16.4686 35.6686C16.7687 35.3685 17.1757 35.2 17.6 35.2H38.4C38.8243 35.2 39.2313 35.3685 39.5314 35.6686C39.8314 35.9686 40 36.3756 40 36.8C40 37.2243 39.8314 37.6313 39.5314 37.9313C39.2313 38.2314 38.8243 38.4 38.4 38.4Z" fill="#FDCF33"/>
<path d="M38.4 44.8001H17.6C17.1757 44.8001 16.7687 44.6315 16.4686 44.3315C16.1686 44.0314 16 43.6244 16 43.2001C16 42.7758 16.1686 42.3688 16.4686 42.0687C16.7687 41.7687 17.1757 41.6001 17.6 41.6001H38.4C38.8243 41.6001 39.2313 41.7687 39.5314 42.0687C39.8314 42.3688 40 42.7758 40 43.2001C40 43.6244 39.8314 44.0314 39.5314 44.3315C39.2313 44.6315 38.8243 44.8001 38.4 44.8001Z" fill="#FDCF33"/>
<path d="M38.4 51.2H17.6C17.1757 51.2 16.7687 51.0314 16.4686 50.7314C16.1686 50.4313 16 50.0243 16 49.6C16 49.1757 16.1686 48.7687 16.4686 48.4686C16.7687 48.1686 17.1757 48 17.6 48H38.4C38.8243 48 39.2313 48.1686 39.5314 48.4686C39.8314 48.7687 40 49.1757 40 49.6C40 50.0243 39.8314 50.4313 39.5314 50.7314C39.2313 51.0314 38.8243 51.2 38.4 51.2Z" fill="#FDCF33"/>
<path d="M43.3617 47.5648L37.7041 48.6959L38.8353 43.0384L54.6753 27.2L59.2001 31.7247L43.3617 47.5648Z" fill="#FDCF33"/>
<path d="M37.7038 50.2958C37.4666 50.2959 37.2322 50.2431 37.0178 50.1414C36.8034 50.0398 36.6144 49.8917 36.4643 49.7079C36.3142 49.5241 36.2068 49.3092 36.15 49.0788C36.0932 48.8484 36.0884 48.6083 36.1358 48.3758L37.267 42.7198C37.3297 42.4105 37.4815 42.1262 37.7038 41.9022L53.5438 26.0622C53.8439 25.7623 54.2508 25.5938 54.675 25.5938C55.0993 25.5938 55.5062 25.7623 55.8062 26.0622L60.331 30.587C60.631 30.8871 60.7995 31.2939 60.7995 31.7182C60.7995 32.1425 60.631 32.5494 60.331 32.8494L44.491 48.6894C44.267 48.9117 43.9828 49.0636 43.6734 49.1262L38.0174 50.2574C37.9144 50.2804 37.8094 50.2933 37.7038 50.2958ZM40.307 43.8286L39.7438 46.6558L42.571 46.091L56.9374 31.7246L54.675 29.4622L40.307 43.8286Z" fill="#173559"/>
</svg>
