<svg width="64" height="64" viewBox="0 0 64 64" fill="none" xmlns="http://www.w3.org/2000/svg">
<path d="M11.2002 6.3999V33.5999C11.2002 51.1999 32.0002 57.5999 32.0002 57.5999C32.0002 57.5999 52.8002 51.1999 52.8002 33.5999V6.3999H11.2002Z" fill="#D7E7FF"/>
<path d="M31.9996 59.2001C31.8402 59.1997 31.6817 59.176 31.5292 59.1297C27.6392 57.8098 23.9711 55.9094 20.6492 53.4928C13.4236 48.2064 9.59961 41.328 9.59961 33.6V6.40005C9.59961 5.9757 9.76818 5.56874 10.0682 5.26868C10.3683 4.96862 10.7753 4.80005 11.1996 4.80005H52.7996C53.224 4.80005 53.6309 4.96862 53.931 5.26868C54.231 5.56874 54.3996 5.9757 54.3996 6.40005V33.6C54.3996 41.328 50.5756 48.2064 43.3436 53.4928C40.0218 55.9094 36.3536 57.8098 32.4636 59.1297C32.3132 59.1754 32.1569 59.1991 31.9996 59.2001ZM12.7996 8.00005V33.6C12.7996 48.368 29.0028 54.84 31.9996 55.9089C34.9964 54.84 51.1996 48.368 51.1996 33.6V8.00005H12.7996Z" fill="#173559"/>
<path d="M32.0002 41.6C39.0694 41.6 44.8002 35.8692 44.8002 28.8C44.8002 21.7308 39.0694 16 32.0002 16C24.9309 16 19.2002 21.7308 19.2002 28.8C19.2002 35.8692 24.9309 41.6 32.0002 41.6Z" fill="#FDCF33"/>
<path d="M31.9996 43.1999C29.1516 43.1999 26.3675 42.3554 23.9994 40.7731C21.6313 39.1908 19.7857 36.9418 18.6958 34.3105C17.6058 31.6793 17.3207 28.7839 17.8763 25.9906C18.4319 23.1973 19.8034 20.6314 21.8173 18.6176C23.8312 16.6037 26.397 15.2322 29.1903 14.6766C31.9836 14.121 34.879 14.4061 37.5103 15.496C40.1415 16.5859 42.3905 18.4316 43.9728 20.7997C45.5551 23.1678 46.3996 25.9519 46.3996 28.7999C46.3954 32.6177 44.8769 36.278 42.1773 38.9776C39.4777 41.6772 35.8174 43.1957 31.9996 43.1999ZM31.9996 17.5999C29.7845 17.5999 27.6191 18.2568 25.7772 19.4874C23.9354 20.7181 22.4999 22.4673 21.6522 24.5139C20.8045 26.5604 20.5827 28.8123 21.0148 30.9849C21.447 33.1575 22.5137 35.1532 24.08 36.7195C25.6464 38.2859 27.642 39.3525 29.8146 39.7847C31.9872 40.2169 34.2391 39.9951 36.2857 39.1474C38.3322 38.2997 40.0814 36.8641 41.3121 35.0223C42.5427 33.1805 43.1996 31.0151 43.1996 28.7999C43.1962 25.8305 42.0151 22.9837 39.9155 20.8841C37.8158 18.7844 34.969 17.6033 31.9996 17.5999Z" fill="white"/>
<path d="M29.7973 35.2C29.373 35.2 28.9661 35.0313 28.6661 34.7312L25.2245 31.2912C24.9331 30.9895 24.7718 30.5853 24.7755 30.1658C24.7791 29.7463 24.9474 29.345 25.244 29.0483C25.5407 28.7517 25.942 28.5834 26.3615 28.5798C26.781 28.5761 27.1852 28.7374 27.4869 29.0288L29.7973 31.3376L37.2693 23.8656C37.5711 23.5742 37.9753 23.4129 38.3948 23.4166C38.8143 23.4202 39.2156 23.5885 39.5122 23.8851C39.8089 24.1818 39.9772 24.5831 39.9808 25.0026C39.9845 25.4221 39.8232 25.8263 39.5317 26.128L30.9285 34.7312C30.6285 35.0313 30.2216 35.2 29.7973 35.2Z" fill="#173559"/>
</svg>
