<svg width="64" height="64" viewBox="0 0 64 64" fill="none" xmlns="http://www.w3.org/2000/svg">
<path d="M31.9993 30.8992C38.5357 30.8992 43.8345 25.6004 43.8345 19.064C43.8345 12.5276 38.5357 7.22876 31.9993 7.22876C25.4629 7.22876 20.1641 12.5276 20.1641 19.064C20.1641 25.6004 25.4629 30.8992 31.9993 30.8992Z" fill="#FDCF33"/>
<path d="M31.9996 32.4991C29.3414 32.4991 26.7429 31.7109 24.5327 30.2341C22.3225 28.7573 20.5999 26.6583 19.5826 24.2024C18.5654 21.7466 18.2992 19.0442 18.8178 16.4371C19.3364 13.83 20.6164 11.4352 22.4961 9.55563C24.3757 7.67601 26.7705 6.39598 29.3776 5.87739C31.9847 5.35881 34.687 5.62496 37.1428 6.64221C39.5987 7.65945 41.6977 9.38209 43.1745 11.5923C44.6513 13.8025 45.4396 16.401 45.4396 19.0591C45.437 22.6229 44.0202 26.0399 41.5003 28.5599C38.9803 31.0798 35.5633 32.4966 31.9996 32.4991ZM31.9996 8.82875C29.9743 8.82875 27.9945 9.42931 26.3105 10.5545C24.6266 11.6797 23.3141 13.279 22.539 15.1501C21.764 17.0212 21.5612 19.0801 21.9563 21.0665C22.3514 23.0528 23.3267 24.8774 24.7588 26.3095C26.1909 27.7416 28.0155 28.7169 30.0019 29.112C31.9882 29.5071 34.0471 29.3043 35.9183 28.5293C37.7894 27.7542 39.3886 26.4417 40.5138 24.7578C41.639 23.0738 42.2396 21.094 42.2396 19.0687C42.2396 16.3529 41.1607 13.7483 39.2403 11.828C37.32 9.9076 34.7154 8.82875 31.9996 8.82875Z" fill="#173559"/>
<path d="M32.7532 25.5392H29.7372C29.3128 25.5392 28.9059 25.3707 28.6058 25.0706C28.3057 24.7706 28.1372 24.3636 28.1372 23.9392C28.1372 23.5149 28.3057 23.1079 28.6058 22.8079C28.9059 22.5078 29.3128 22.3392 29.7372 22.3392H32.7532C32.9573 22.3392 33.153 22.2582 33.2974 22.1138C33.4417 21.9695 33.5228 21.7738 33.5228 21.5696C33.5228 21.3655 33.4417 21.1698 33.2974 21.0255C33.153 20.8811 32.9573 20.8 32.7532 20.8H31.246C30.7247 20.8 30.2085 20.6974 29.7269 20.4979C29.2453 20.2984 28.8076 20.006 28.439 19.6374C28.0704 19.2688 27.778 18.8312 27.5785 18.3495C27.379 17.8679 27.2764 17.3517 27.2764 16.8304C27.2764 16.3091 27.379 15.793 27.5785 15.3113C27.778 14.8297 28.0704 14.3921 28.439 14.0235C28.8076 13.6549 29.2453 13.3625 29.7269 13.163C30.2085 12.9635 30.7247 12.8608 31.246 12.8608H34.046C34.4703 12.8608 34.8773 13.0294 35.1773 13.3295C35.4774 13.6295 35.646 14.0365 35.646 14.4608C35.646 14.8852 35.4774 15.2922 35.1773 15.5922C34.8773 15.8923 34.4703 16.0608 34.046 16.0608H31.246C31.0419 16.0608 30.8461 16.1419 30.7018 16.2863C30.5574 16.4306 30.4764 16.6263 30.4764 16.8304C30.4764 17.0346 30.5574 17.2303 30.7018 17.3746C30.8461 17.519 31.0419 17.6 31.246 17.6H32.7532C33.806 17.6 34.8157 18.0183 35.5601 18.7627C36.3045 19.5072 36.7228 20.5168 36.7228 21.5696C36.7228 22.6224 36.3045 23.6321 35.5601 24.3766C34.8157 25.121 33.806 25.5392 32.7532 25.5392Z" fill="#173559"/>
<path d="M32.0004 15.4032C31.576 15.4032 31.1691 15.2346 30.869 14.9346C30.569 14.6345 30.4004 14.2275 30.4004 13.8032V11.84C30.4004 11.4156 30.569 11.0087 30.869 10.7086C31.1691 10.4086 31.576 10.24 32.0004 10.24C32.4247 10.24 32.8317 10.4086 33.1318 10.7086C33.4318 11.0087 33.6004 11.4156 33.6004 11.84V13.8032C33.6004 14.2275 33.4318 14.6345 33.1318 14.9346C32.8317 15.2346 32.4247 15.4032 32.0004 15.4032Z" fill="#173559"/>
<path d="M32.0004 27.8976C31.576 27.8976 31.1691 27.729 30.869 27.4289C30.569 27.1289 30.4004 26.7219 30.4004 26.2976V24.32C30.4004 23.8956 30.569 23.4887 30.869 23.1886C31.1691 22.8885 31.576 22.72 32.0004 22.72C32.4247 22.72 32.8317 22.8885 33.1318 23.1886C33.4318 23.4887 33.6004 23.8956 33.6004 24.32V26.2944C33.6008 26.5048 33.5597 26.7132 33.4795 26.9076C33.3993 27.1021 33.2815 27.2789 33.1329 27.4278C32.9843 27.5767 32.8078 27.6949 32.6134 27.7755C32.4191 27.8561 32.2108 27.8976 32.0004 27.8976Z" fill="#173559"/>
<path d="M45.739 39.4L51.643 34.712C52.0933 34.3523 52.383 33.8291 52.449 33.2566C52.5149 32.6841 52.3517 32.1087 51.995 31.656C51.6343 31.2071 51.1112 30.9185 50.539 30.8529C49.9669 30.7873 49.3919 30.95 48.939 31.3056L43.0398 36C43.0398 36 36.7998 37.2432 36.7998 41.9968V54.8432L46.3678 54.2032V48.5712L52.8766 44.464C53.4657 44.0806 53.9122 43.5138 54.147 42.8512L59.0382 29.0432C59.2554 28.5094 59.2526 27.9114 59.0305 27.3797C58.8084 26.8479 58.3849 26.4256 57.8526 26.2048C57.3188 25.9877 56.7208 25.9904 56.189 26.2126C55.6573 26.4347 55.2349 26.8581 55.0142 27.3904L52.6478 33.1504L52.355 33.8656" fill="#D7E7FF"/>
<path d="M35.2002 56.5471V41.9871C35.2002 36.7295 40.7442 34.9231 42.3202 34.5151L47.9442 30.0495C48.5564 29.5687 49.3013 29.2875 50.0785 29.2437C50.8556 29.1999 51.6275 29.3957 52.2898 29.8047L53.5346 26.7727C53.9169 25.8496 54.6497 25.1157 55.5723 24.732C56.4949 24.3483 57.5319 24.3461 58.4561 24.7258C59.3803 25.1055 60.1163 25.8362 60.5026 26.7577C60.8889 27.6792 60.8941 28.7162 60.517 29.6415L55.6562 43.3743C55.3021 44.3685 54.6316 45.219 53.7474 45.7951L47.9682 49.4399V55.6799L35.2002 56.5471ZM50.269 32.4431C50.1474 32.4424 50.0293 32.4837 49.9346 32.5599L43.7282 37.4879L43.3474 37.5631C43.3026 37.5631 38.4002 38.6191 38.4002 41.9903V53.1199L44.7682 52.6959V47.6799L52.0226 43.1007C52.3105 42.9088 52.5274 42.6278 52.6402 42.3007L57.5298 28.4959C57.5689 28.4168 57.5912 28.3305 57.5953 28.2424C57.5994 28.1543 57.5853 28.0663 57.5538 27.9839C57.5263 27.9124 57.4846 27.8472 57.4313 27.7922C57.378 27.7372 57.314 27.6936 57.2434 27.6639C57.1745 27.6338 57.1002 27.6183 57.025 27.6183C56.9498 27.6183 56.8755 27.6338 56.8066 27.6639C56.7369 27.6921 56.6735 27.7339 56.6202 27.7869C56.5668 27.84 56.5247 27.9031 56.4962 27.9727L53.8338 34.4495C53.7643 34.6265 53.6629 34.7892 53.5346 34.9295C53.3006 35.3229 52.997 35.6704 52.6386 35.9551L46.733 40.6415C46.3996 40.8925 45.9814 41.0034 45.5675 40.9505C45.1536 40.8975 44.7767 40.685 44.5173 40.3581C44.2579 40.0313 44.1364 39.616 44.1788 39.2009C44.2212 38.7857 44.4241 38.4036 44.7442 38.1359L50.6498 33.4479C50.7671 33.3512 50.8422 33.2127 50.8593 33.0616C50.8763 32.9105 50.8339 32.7587 50.741 32.6383C50.6149 32.5145 50.4457 32.4446 50.269 32.4431Z" fill="#173559"/>
<path d="M35.0156 53.2368V59.2H47.9356V53.2368H35.0156Z" fill="white"/>
<path d="M47.936 60.8001H35.016C34.5917 60.8001 34.1847 60.6315 33.8846 60.3314C33.5846 60.0314 33.416 59.6244 33.416 59.2001V53.2353C33.416 52.8109 33.5846 52.4039 33.8846 52.1039C34.1847 51.8038 34.5917 51.6353 35.016 51.6353H47.936C48.3604 51.6353 48.7673 51.8038 49.0674 52.1039C49.3674 52.4039 49.536 52.8109 49.536 53.2353V59.2001C49.536 59.6244 49.3674 60.0314 49.0674 60.3314C48.7673 60.6315 48.3604 60.8001 47.936 60.8001ZM36.616 57.6001H46.336V54.8353H36.616V57.6001Z" fill="#173559"/>
<path d="M18.2605 39.4001L12.3565 34.7201C11.9062 34.3604 11.6165 33.8372 11.5505 33.2647C11.4846 32.6921 11.6478 32.1167 12.0045 31.6641C12.3652 31.2151 12.8884 30.9265 13.4605 30.8609C14.0327 30.7953 14.6076 30.958 15.0605 31.3137L20.9597 36.0001C20.9597 36.0001 27.1997 37.2433 27.1997 41.9969V54.8433L17.6317 54.2033V48.5713L11.1229 44.4577C10.5338 44.0742 10.0874 43.5074 9.85252 42.8449L4.95972 29.0369C4.74255 28.5031 4.74533 27.9051 4.96744 27.3733C5.18956 26.8415 5.61299 26.4192 6.14532 26.1985C6.67912 25.9813 7.27715 25.9841 7.80891 26.2062C8.34067 26.4283 8.76299 26.8518 8.98372 27.3841L11.3501 33.1441L11.6429 33.8593" fill="#D7E7FF"/>
<path d="M28.7999 56.5471L16.0319 55.6943V49.4399L10.2719 45.8031C9.383 45.2252 8.70844 44.3713 8.35194 43.3727L3.46234 29.5647C3.10388 28.6587 3.11768 27.6478 3.50074 26.7519C3.78836 26.0634 4.27362 25.4756 4.89521 25.0627C5.5168 24.6498 6.24681 24.4305 6.99301 24.4324C7.73921 24.4343 8.46811 24.6573 9.08761 25.0733C9.7071 25.4893 10.1894 26.0796 10.4735 26.7695L11.7183 29.8015C12.3804 29.3919 13.1524 29.1956 13.9297 29.2394C14.707 29.2832 15.4521 29.5649 16.0639 30.0463L21.6879 34.5119C23.2639 34.9199 28.8079 36.7263 28.8079 41.9839L28.7999 56.5471ZM19.2319 52.7071L25.5999 53.1199V41.9903C25.5999 38.5871 20.7007 37.5727 20.6527 37.5631L20.2719 37.4879L14.0671 32.5599C13.9583 32.4759 13.8233 32.4328 13.6859 32.438C13.5485 32.4433 13.4173 32.4966 13.3151 32.5887C13.2583 32.6471 13.2139 32.7165 13.1848 32.7927C13.1556 32.8688 13.1423 32.9501 13.1456 33.0315C13.1488 33.113 13.1687 33.1929 13.2039 33.2664C13.2391 33.3399 13.2889 33.4055 13.3503 33.4591L19.2559 38.1471C19.5761 38.4148 19.779 38.797 19.8213 39.2121C19.8637 39.6272 19.7423 40.0425 19.4828 40.3693C19.2234 40.6962 18.8465 40.9087 18.4326 40.9617C18.0187 41.0146 17.6005 40.9038 17.2671 40.6527L11.3599 35.9663C11.0016 35.6816 10.6979 35.3341 10.4639 34.9407C10.336 34.8002 10.2346 34.6375 10.1647 34.4607L7.50554 27.9999C7.47852 27.9289 7.43756 27.864 7.38508 27.8091C7.3326 27.7541 7.26965 27.7102 7.19994 27.6799C7.13116 27.6495 7.05676 27.6337 6.98154 27.6337C6.90631 27.6337 6.83192 27.6495 6.76314 27.6799C6.69249 27.7096 6.62857 27.7532 6.57523 27.8082C6.52189 27.8632 6.48022 27.9284 6.45274 27.9999C6.42382 28.0697 6.40894 28.1444 6.40894 28.2199C6.40894 28.2954 6.42382 28.3702 6.45274 28.4399L11.3599 42.3087C11.4798 42.6383 11.7047 42.9194 11.9999 43.1087L19.2319 47.6799V52.7071Z" fill="#173559"/>
<path d="M16.0645 53.2367V59.2H28.9845V53.2367H16.0645Z" fill="white"/>
<path d="M28.9839 60.8001H16.0639C15.6395 60.8001 15.2326 60.6315 14.9325 60.3314C14.6324 60.0314 14.4639 59.6244 14.4639 59.2001V53.2353C14.4639 52.8109 14.6324 52.4039 14.9325 52.1039C15.2326 51.8038 15.6395 51.6353 16.0639 51.6353H28.9839C29.4082 51.6353 29.8152 51.8038 30.1152 52.1039C30.4153 52.4039 30.5839 52.8109 30.5839 53.2353V59.2001C30.5839 59.6244 30.4153 60.0314 30.1152 60.3314C29.8152 60.6315 29.4082 60.8001 28.9839 60.8001ZM17.6639 57.6001H27.3839V54.8353H17.6639V57.6001Z" fill="#173559"/>
</svg>
