<svg width="59" height="62" viewBox="0 0 59 62" fill="none" xmlns="http://www.w3.org/2000/svg">
<path d="M43.6709 21.6242C43.6709 33.3746 34.1456 42.8999 22.3953 42.8999C10.6449 42.8999 1.11963 33.3746 1.11963 21.6242C1.11963 9.87389 10.6449 0.348593 22.3953 0.348593C34.1456 0.348593 43.6709 9.87389 43.6709 21.6242Z" fill="black"/>
<path d="M38.5728 21.5935C38.5728 30.5453 31.3163 37.8018 22.3645 37.8018C13.4133 37.8018 6.15625 30.5453 6.15625 21.5935C6.15625 12.6417 13.4133 5.38519 22.3645 5.38519C31.3163 5.38519 38.5728 12.6417 38.5728 21.5935Z" fill="#FED038"/>
<path d="M15.7843 48.0276C15.435 48.326 14.9502 48.6185 14.7075 48.6772C14.4642 48.7359 13.8302 48.0708 13.5904 47.6788L9.8043 41.4813C9.57957 41.1127 9.17927 40.8886 8.7478 40.8886H1.24022C0.273611 40.8886 -0.320859 41.9469 0.183721 42.7727L11.535 61.3558C11.9443 62.0252 12.8647 62.1505 13.4376 61.6153L58.3099 19.6842C58.6269 19.3882 58.8073 18.9741 58.8073 18.5402V12.535C58.8073 12.0406 58.2278 11.7734 57.8514 12.0946L15.7843 48.0276Z" fill="black"/>
<path d="M12.6391 20.8678H15.0427C16.0231 20.8678 16.7261 20.2799 16.7261 19.2007C16.7261 18.0884 16.0231 17.5 15.0427 17.5H12.6391V20.8678ZM19.9309 27.5059H17.0862L14.6994 23.1079H12.6553V27.5059H10.1216V15.2767H15.3532C17.6747 15.2767 19.2933 16.6826 19.2933 19.2007C19.2933 20.9008 18.5412 22.1107 17.3313 22.6992L19.9309 27.5059Z" fill="black"/>
<path d="M34.3851 15.2767V27.5059H31.8838V20.7372L28.6796 27.3752H27.0118L23.7908 20.7372V27.5059H21.2571V15.2767H23.4965L27.8454 23.7784L32.1619 15.2767H34.3851Z" fill="black"/>
</svg>
