<svg width="200" height="33" viewBox="0 0 200 33" fill="none" xmlns="http://www.w3.org/2000/svg">
<path d="M22.5736 2.36936C21.4863 1.91263 20.3618 1.54991 19.2126 1.28518C18.0602 1.03559 16.8844 0.910192 15.7053 0.911138C13.6575 0.923656 11.6319 1.33614 9.7423 2.12542C7.8828 2.88463 6.1834 3.98814 4.73338 5.37796C3.2778 6.79379 2.10738 8.47578 1.28566 10.3327C0.415199 12.3212 -0.0227232 14.472 0.000907902 16.6426C-0.0199407 18.9255 0.424599 21.1887 1.30737 23.2941C2.13826 25.1752 3.31511 26.8835 4.77673 28.3301C6.20906 29.7425 7.9031 30.862 9.76397 31.626C11.6392 32.4015 13.649 32.7994 15.6782 32.7969C16.7031 32.7883 17.725 32.683 18.7301 32.4825C19.8709 32.2558 20.9927 31.9423 22.0857 31.5447L22.5899 31.3712V23.3429C20.8609 24.999 18.5655 25.9334 16.1715 25.9557C14.985 25.9646 13.8094 25.7284 12.7184 25.2619C11.6783 24.8165 10.7354 24.172 9.94287 23.3646C9.14295 22.5498 8.51279 21.5842 8.08893 20.524C7.63616 19.288 7.41026 17.9805 7.42213 16.6643C7.41151 15.4574 7.63808 14.2602 8.08893 13.1407C8.50861 12.0883 9.13115 11.1286 9.92116 10.3164C10.7158 9.51447 11.6608 8.8771 12.7021 8.44079C13.8118 7.97306 15.0053 7.73694 16.2094 7.74691C17.393 7.73799 18.5663 7.96709 19.6596 8.42061C20.7529 8.87412 21.7438 9.5428 22.5736 10.3869V2.36936Z" fill="#FDCF33"/>
<path d="M85.7488 32.2163L75.8664 19.1736L76.5766 19.0055C78.429 18.6564 80.101 17.6707 81.3036 16.2192C82.3878 14.8585 82.8974 13.0425 82.8974 10.7983C82.9047 9.50905 82.7015 8.2273 82.2956 7.00362C81.907 5.94143 81.3036 4.97077 80.523 4.15223C79.6807 3.29144 78.659 2.62696 77.5307 2.20612C76.1437 1.69331 74.6723 1.44685 73.1939 1.47971H61.23V32.2271H68.2772V18.7887L76.9506 32.2163H85.7488ZM74.1968 14.4465C73.2752 15.1621 71.958 15.5307 70.2775 15.5307H68.2989V6.99278H70.2775C71.958 6.99278 73.2752 7.35598 74.1968 8.07696C74.6763 8.45302 75.0581 8.93901 75.31 9.49383C75.562 10.0486 75.6766 10.656 75.6442 11.2645C75.6757 11.872 75.5606 12.4783 75.3087 13.0321C75.0568 13.5859 74.6755 14.071 74.1968 14.4465Z" fill="#FDCF33"/>
<path d="M106.522 6.04981L102.754 8.28322C102.292 7.33238 101.601 6.511 100.743 5.8926C99.9673 5.43825 99.0773 5.21623 98.179 5.25294C97.0127 5.20958 95.8709 5.59531 94.9698 6.33712C94.5646 6.66162 94.2391 7.07462 94.0183 7.54447C93.7974 8.01431 93.6872 8.5285 93.6959 9.04757C93.6959 10.551 94.8108 11.758 97.0406 12.6687L100.109 13.9264C102.602 14.9347 104.428 16.1652 105.584 17.618C106.763 19.147 107.375 21.0384 107.313 22.9685C107.354 24.2679 107.124 25.5616 106.638 26.7674C106.151 27.9732 105.42 29.0646 104.489 29.9723C103.562 30.8867 102.46 31.6051 101.249 32.0847C100.039 32.5644 98.7437 32.7954 97.4418 32.764C95.0152 32.8509 92.6478 32.0029 90.8283 30.3951C89.1225 28.8122 88.0546 26.5878 87.6245 23.722L92.3244 22.6866C92.5341 24.4935 92.9063 25.7422 93.4412 26.4324C93.9148 27.0882 94.546 27.6141 95.2764 27.9618C96.0068 28.3095 96.813 28.4677 97.6207 28.4219C98.2893 28.4416 98.9547 28.3227 99.5751 28.0727C100.196 27.8227 100.757 27.4469 101.226 26.9691C101.7 26.483 102.072 25.9058 102.318 25.2723C102.564 24.6388 102.679 23.9621 102.657 23.2829C102.662 22.7309 102.578 22.1817 102.407 21.6566C102.237 21.142 101.967 20.6665 101.61 20.258C101.216 19.8027 100.757 19.4065 100.25 19.0817C99.6156 18.6771 98.9483 18.3271 98.2549 18.0354L95.2897 16.8049C91.0831 15.0196 88.9797 12.4176 88.9797 8.99879C88.9605 7.89671 89.1881 6.80429 89.6459 5.80158C90.1036 4.79887 90.7799 3.91127 91.6251 3.20383C93.4467 1.61571 95.8015 0.775268 98.217 0.851162C101.762 0.865618 104.531 2.5985 106.522 6.04981Z" fill="#FDCF33"/>
<path d="M110.56 16.6529C110.537 14.5659 110.949 12.4968 111.768 10.5772C112.587 8.65757 113.797 6.92929 115.32 5.50213C116.805 3.99788 118.579 2.80983 120.536 2.00954C122.492 1.20926 124.59 0.813318 126.704 0.845574C128.804 0.817659 130.887 1.22028 132.826 2.02862C134.764 2.83696 136.516 4.03386 137.974 5.54549C139.491 7.00349 140.693 8.7576 141.504 10.699C142.315 12.6405 142.719 14.7279 142.69 16.8318C142.727 18.934 142.324 21.0207 141.508 22.9585C140.693 24.8963 139.481 26.6426 137.952 28.0856C136.447 29.5891 134.655 30.7746 132.683 31.5717C130.71 32.3689 128.598 32.7614 126.471 32.7259C122.516 32.7312 118.702 31.2601 115.775 28.6006C112.299 25.5685 110.56 21.586 110.56 16.6529ZM115.239 16.718C115.19 18.2771 115.47 19.829 116.06 21.2729C116.65 22.7168 117.538 24.0203 118.665 25.0987C119.691 26.1433 120.915 26.9725 122.266 27.5376C123.616 28.1026 125.066 28.3922 126.53 28.3892C128.048 28.4208 129.555 28.1403 130.96 27.5649C132.364 26.9895 133.635 26.1316 134.694 25.0445C135.781 23.9669 136.638 22.6802 137.212 21.262C137.787 19.8439 138.069 18.3238 138.039 16.7939C138.078 15.2687 137.807 13.7516 137.242 12.3343C136.678 10.917 135.831 9.62911 134.754 8.54868C133.711 7.45832 132.452 6.59764 131.058 6.02171C129.663 5.44577 128.164 5.16726 126.655 5.20399C125.142 5.16969 123.639 5.44918 122.239 6.02483C120.84 6.60049 119.575 7.45983 118.524 8.54868C117.448 9.61417 116.601 10.8886 116.036 12.2936C115.471 13.6985 115.2 15.2042 115.239 16.718Z" fill="#FDCF33"/>
<path d="M200 5.83284H187.673V13.2107H199.642V17.5474H187.673V27.8471H200V32.211H183.033V1.46899H200V5.83284Z" fill="#FDCF33"/>
<path d="M49.1903 32.2164H57.1591L45.4607 1.46899H37.7359L26.0322 32.2164H34.0064L41.5956 9.92019L49.1903 32.2164Z" fill="#FDCF33"/>
<path d="M173.627 1.50171H168.57L161.788 25.9067L155.012 1.50171H149.949L144.474 32.2166H149.054L152.773 8.5001L159.663 32.4876H163.913L170.803 8.5001L174.522 32.2166H179.108L173.627 1.50171Z" fill="#FDCF33"/>
</svg>
