<svg width="32" height="32" viewBox="0 0 32 32" fill="none" xmlns="http://www.w3.org/2000/svg">
<path d="M16 0C7.17949 0 0 7.17949 0 16C0 24.8205 7.17949 32 16 32C24.8205 32 32 24.8291 32 16C32 7.17094 24.8291 0 16 0ZM16 30.7179C7.88889 30.7179 1.28205 24.1197 1.28205 16C1.28205 7.88034 7.88889 1.28205 16 1.28205C24.1111 1.28205 30.7179 7.88889 30.7179 16C30.7179 24.1111 24.1197 30.7179 16 30.7179Z" fill="white"/>
<path d="M14.8724 20.1962C13.7527 20.0936 12.6416 19.9825 11.5219 19.88C10.804 19.8116 10.0861 19.7774 9.3681 19.7005C8.61597 19.615 8.15443 19.068 8.20571 18.3415C8.24845 17.6577 8.74417 17.1877 9.47921 17.1962C12.0348 17.1962 14.5903 17.1962 17.1459 17.2389C17.5476 17.2389 18.0604 17.427 18.3168 17.7176C19.4963 18.9996 20.6074 20.35 21.7955 21.7518L17.6929 25.2133C17.3852 24.8629 17.1801 24.5124 16.8724 24.2988C16.3681 23.9483 15.8382 23.5466 15.257 23.4184C13.4194 23.0253 11.5476 22.7774 9.70144 22.4013C9.25699 22.3073 8.75272 22.0253 8.47067 21.6748C7.11169 19.9911 5.81255 18.256 4.50486 16.5295C3.88092 15.7005 3.95785 14.8116 4.66725 14.2304C5.35956 13.6663 6.29118 13.7688 6.95785 14.521C7.58178 15.2218 8.17152 15.9569 8.804 16.6919C8.5305 16.9483 8.25699 17.1449 8.06041 17.3928C7.2399 18.4612 7.83819 20.0167 9.21426 20.1877C10.9749 20.4013 12.7527 20.4868 14.5219 20.6065C14.6416 20.6065 14.7613 20.5381 14.8809 20.4953V20.2047L14.8724 20.1962Z" fill="white"/>
<path d="M19.1377 28.189C18.6933 27.6676 18.1634 27.2061 17.8642 26.6249C17.7446 26.3856 18.0266 25.7788 18.3001 25.5309C19.5309 24.4112 20.8215 23.3514 22.1035 22.283C22.8215 21.6847 23.1292 21.7531 23.8813 22.6335C24.5651 23.4369 24.5822 23.8129 23.9069 24.3941C22.6163 25.4967 21.3257 26.5907 20.0181 27.6676C19.8129 27.8386 19.5565 27.9411 19.1292 28.189H19.1377Z" fill="white"/>
<path d="M18.6418 10.983C18.5819 11.1966 18.5306 11.4103 18.4708 11.6325C18.4366 11.7607 18.4024 11.8975 18.3683 12.0257C18.3084 12.2137 18.1717 12.2736 18.0007 12.171C17.9409 12.1283 17.8811 12.077 17.8298 12.0257C17.6161 11.8291 17.4024 11.624 17.1717 11.4103C17.0435 11.5471 16.8982 11.718 16.7443 11.8548C16.5477 12.0342 16.4366 12.2223 16.4623 12.4958C16.4794 12.6924 16.4623 12.8975 16.4623 13.1112H15.1204C15.1204 13.3077 15.1204 13.4958 15.1204 13.6838C15.1204 13.8035 15.1033 13.9317 15.1204 14.0513C15.1375 14.2308 15.0606 14.3419 14.9495 14.4701C14.7785 14.6582 14.599 14.7522 14.3426 14.7351C14.0862 14.718 13.8298 14.7351 13.5734 14.7351C13.4794 14.7351 13.4537 14.7693 13.4452 14.8548C13.4366 15.0684 13.4195 15.2821 13.3939 15.4958C13.3939 15.53 13.3683 15.5642 13.3512 15.5898C13.3512 15.5983 13.3341 15.6069 13.3255 15.6154C13.1546 15.7693 13.0178 15.983 12.8212 16.0599C12.6247 16.1368 12.3768 16.0941 12.146 16.1026C11.9836 16.1026 11.8127 16.1026 11.6503 16.1026C11.8127 15.9402 11.9665 15.7693 12.1375 15.6069C13.8298 13.9402 15.5221 12.2821 17.2059 10.6154C17.2486 10.5727 17.2913 10.5214 17.317 10.4616C17.4452 10.2137 17.5734 9.95732 17.7016 9.70946C17.7101 9.68382 17.7187 9.65817 17.7101 9.61544C17.5392 9.78638 17.3683 9.95732 17.1888 10.1197C15.1888 12.0941 13.1802 14.077 11.1888 16.0513C11.1033 16.1368 11.0093 16.1454 10.9067 16.1454C10.8725 16.1454 10.8383 16.0941 10.8212 16.0599C10.7101 15.7864 10.7272 15.5043 10.8042 15.2308C10.8469 15.077 10.8896 14.9317 10.9409 14.7864C10.9665 14.718 11.0093 14.6411 11.0691 14.5898C12.599 13.0513 14.1375 11.5214 15.6759 9.99151C15.7101 9.95732 15.7529 9.94023 15.7956 9.90604C15.6161 9.70946 15.4708 9.53852 15.317 9.37612C15.2144 9.27356 15.1375 9.16245 15.2059 9.0086C15.2742 8.85476 15.3939 8.79493 15.5563 8.77783C15.8212 8.75219 16.0862 8.72655 16.3426 8.70091C16.3683 8.70091 16.4024 8.69236 16.4366 8.68382C16.3853 8.48723 16.3255 8.29065 16.2828 8.10262C15.8554 6.11117 17.0093 4.23937 19.0862 3.87185C20.4281 3.64108 21.5648 4.09407 22.505 5.04279C23.1204 5.66672 23.4965 6.41886 23.6076 7.29065C23.8383 9.08553 22.7016 10.8804 20.8042 11.1966C20.1118 11.3163 19.4366 11.2394 18.7871 11.0001C18.7529 10.9915 18.7272 10.9744 18.693 10.9659C18.693 10.9659 18.6759 10.9659 18.6503 10.9659L18.6418 10.983ZM20.9665 5.47014C20.4879 5.47014 20.1289 5.82912 20.1289 6.30775C20.1289 6.76074 20.505 7.13681 20.9665 7.13681C21.4195 7.13681 21.7956 6.76074 21.7956 6.2992C21.7956 5.84621 21.411 5.46159 20.958 5.46159L20.9665 5.47014Z" fill="white"/>
</svg>
