<svg width="32" height="32" viewBox="0 0 32 32" fill="none" xmlns="http://www.w3.org/2000/svg">
<path d="M6.23273 10.6936C6.90274 11.2623 7.49484 11.7687 8.08695 12.2751C8.75695 12.8438 9.31789 12.7893 9.9022 12.1193C10.1905 11.7843 10.4787 11.4415 10.767 11.0987C11.289 10.4676 11.2422 9.88331 10.619 9.35354C10.0191 8.83934 9.40359 8.34073 8.77254 7.81875C10.393 6.98513 12.6679 7.63956 13.7742 9.22109C14.3975 10.117 14.678 11.1065 14.5066 12.1972C14.4598 12.5088 14.5377 12.6802 14.7715 12.875C18.1916 15.7576 21.5962 18.648 25.0086 21.5306C25.5539 21.9902 25.8889 22.5356 25.8344 23.2601C25.7721 24.0392 25.3825 24.6079 24.658 24.9196C23.9101 25.239 23.2245 25.0988 22.6168 24.5846C21.0586 23.2757 19.5083 21.9513 17.9579 20.6346C16.0647 19.0297 14.1638 17.4326 12.2862 15.8199C12.0525 15.6251 11.8655 15.5784 11.5694 15.6641C8.83486 16.4354 6.29506 14.5968 6.16262 11.7765C6.14703 11.4493 6.20936 11.1221 6.24052 10.6936H6.23273ZM25.2111 23.0342C25.1488 22.2863 24.5255 21.7643 23.7776 21.8344C23.0531 21.9045 22.5389 22.52 22.6012 23.2445C22.6635 23.9925 23.2946 24.5222 24.0425 24.4443C24.7671 24.3742 25.2813 23.7587 25.2189 23.0264L25.2111 23.0342Z" fill="white"/>
<path d="M8.54384 27.9823L26.7587 8.20918L23.8606 5.47461L6.05078 24.8114L8.54384 27.9823Z" fill="#212121"/>
<path d="M6.08984 26.1283L25.076 5.56055L26.4238 7.36022L8.16999 26.9853L6.08984 26.1283Z" fill="white"/>
<path fill-rule="evenodd" clip-rule="evenodd" d="M16.0008 2.49747C8.5431 2.49747 2.49747 8.5431 2.49747 16.0008C2.49747 23.4584 8.5431 29.5041 16.0008 29.5041C23.4584 29.5041 29.5041 23.4584 29.5041 16.0008C29.5041 8.5431 23.4584 2.49747 16.0008 2.49747ZM1.50391 16.0008C1.50391 7.99437 7.99437 1.50391 16.0008 1.50391C24.0072 1.50391 30.4976 7.99437 30.4976 16.0008C30.4976 24.0072 24.0072 30.4976 16.0008 30.4976C7.99437 30.4976 1.50391 24.0072 1.50391 16.0008Z" fill="white"/>
</svg>
