<svg width="32" height="32" viewBox="0 0 32 32" fill="none" xmlns="http://www.w3.org/2000/svg">
<path d="M16 32C7.17949 32 0 24.8205 0 16C0 7.17949 7.17949 0 16 0C24.8205 0 32 7.17949 32 16C32 24.8205 24.8205 32 16 32ZM16 1.28205C7.88889 1.28205 1.28205 7.88889 1.28205 16C1.28205 24.1111 7.88889 30.7179 16 30.7179C24.1111 30.7179 30.7179 24.1111 30.7179 16C30.7179 7.88889 24.1197 1.28205 16 1.28205Z" fill="white"/>
<path d="M22.3059 13.9139C20.1691 13.2814 17.9811 13.0763 15.7674 13.1019C13.5537 13.1276 11.3742 13.3925 9.21184 13.8712C9.15201 13.6404 9.08363 13.4182 9.0238 13.1959C8.83577 12.4951 8.43406 11.8968 8.08363 11.2814C7.98962 11.119 7.8956 10.9566 7.80158 10.8028C7.61355 10.4694 7.65628 10.2985 8.00671 10.1276C8.63064 9.81987 9.25457 9.49508 9.88705 9.19594C11.605 8.39252 13.3229 7.5891 15.0494 6.79423C15.1435 6.75149 15.246 6.72585 15.34 6.67457C15.9212 6.35833 16.4853 6.42671 17.0665 6.70021C19.3144 7.76859 21.5623 8.81987 23.8101 9.8797C24.0153 9.97372 24.2118 10.0763 24.4084 10.1788C24.6734 10.3156 24.6905 10.3925 24.4939 10.6318C24.152 11.0335 23.8101 11.4438 23.4682 11.837C22.9383 12.4438 22.4939 13.1019 22.3144 13.9224L22.3059 13.9139ZM17.7161 9.37543H14.5794C14.5794 9.89679 14.5879 10.3925 14.5794 10.8882C14.5708 11.2216 14.6905 11.478 14.9127 11.7088C15.2289 12.0421 15.6221 12.2729 16.0494 12.4438C16.1093 12.4694 16.2033 12.4694 16.2546 12.4438C16.5965 12.2301 16.964 12.0506 17.2546 11.7771C17.4682 11.5806 17.6648 11.2814 17.7076 11.0079C17.7759 10.478 17.7247 9.92243 17.7247 9.36688L17.7161 9.37543Z" fill="white"/>
<path d="M9.9654 14.6911C12.5808 13.7338 15.2475 13.5714 17.9654 13.8022C19.4184 13.9304 20.8714 14.127 22.3158 14.674C21.9654 14.8962 22.0765 15.1355 22.162 15.3748C22.162 15.3919 22.1705 15.4176 22.1791 15.4432C22.2816 15.9902 22.4953 16.4176 22.9398 16.8193C23.9312 17.7167 24.35 19.6056 22.6406 20.9646C22.3415 21.2039 21.9996 21.3919 21.6834 21.6142C21.6064 21.6654 21.5381 21.7424 21.5039 21.8193C20.5979 24.0928 18.9398 25.4518 16.521 25.862C15.8457 25.9731 15.2218 25.7766 14.6064 25.5543C12.7346 24.8962 11.4697 23.6056 10.7603 21.7595C10.7261 21.6654 10.6235 21.5714 10.5295 21.5201C9.93976 21.2381 9.42694 20.8706 9.02523 20.3492C8.57224 19.7595 8.47822 19.0757 8.50387 18.3577C8.53805 17.4689 8.89703 16.7851 9.74318 16.4005C9.79446 16.3748 9.8372 16.2979 9.86284 16.2381C9.97395 15.9133 10.0594 15.58 10.1876 15.2723C10.2645 15.0928 10.2902 14.9817 10.1193 14.8535C10.068 14.8193 10.0338 14.7509 9.95686 14.674L9.9654 14.6911ZM11.3586 15.9646C11.3415 16.0415 11.3158 16.1184 11.3073 16.1868C11.2731 16.6654 11.2475 17.1526 11.2218 17.6313C11.1962 18.2124 10.7774 18.4945 10.2389 18.3065C10.162 18.2808 10.0851 18.2381 10.0081 18.2124C9.75173 18.862 9.87139 19.4432 10.4013 19.8535C10.709 20.0928 11.1022 20.2295 11.4526 20.4176C11.5381 20.4603 11.6235 20.5287 11.6663 20.6056C11.9312 21.1099 12.1449 21.6483 12.444 22.1355C13.0423 23.1013 13.8543 23.8535 14.9227 24.2808C15.3928 24.4689 15.8714 24.6398 16.3928 24.5629C17.0594 24.4518 17.6577 24.1954 18.2047 23.7936C19.2389 23.0244 19.9227 21.9902 20.4184 20.8193C20.4697 20.6911 20.5381 20.6227 20.6748 20.58C21.2047 20.409 21.6919 20.1612 22.0594 19.7167C22.4269 19.2637 22.5039 18.6227 22.2475 18.1526C22.1791 18.1868 22.1193 18.2295 22.0509 18.2637C21.5637 18.4689 20.9312 18.2381 21.0081 17.58C21.0252 17.4005 21.0252 17.221 21.0081 17.0415C20.974 16.6911 20.9141 16.3407 20.8714 15.9817C17.6748 17.9133 14.5295 17.8962 11.3671 15.9731L11.3586 15.9646Z" fill="white"/>
<path d="M8.5 28L27.8039 7.45313L24.6244 4.45312L5.08594 25.6668L8.5 28Z" fill="#2B2B2B"/>
<path d="M5.12891 27.111L25.958 4.54688L27.4366 6.52123L7.41096 28.0511L5.12891 27.111Z" fill="white"/>
</svg>
