<svg width="32" height="32" viewBox="0 0 32 32" fill="none" xmlns="http://www.w3.org/2000/svg">
<path d="M9.24922 19.7943C9.21503 19.914 9.19793 20.0422 9.13811 20.1447C8.93298 20.4268 8.7193 20.7088 8.49708 20.9738C8.33469 21.1704 8.11246 21.2217 7.8646 21.1362C7.50563 21.0165 7.26631 20.7687 7.1552 20.4011C7.10392 20.2302 7.11246 20.0422 7.22358 19.8883C7.42016 19.6148 7.61674 19.3413 7.81332 19.0764C8.0099 18.8114 8.2834 18.7858 8.574 18.8798C8.96717 19.008 9.22358 19.367 9.24922 19.7943Z" fill="#2E2E2E"/>
<path d="M9.49766 10.7781C9.15578 11.4106 8.8139 12.0431 8.46348 12.667C7.52331 14.3251 6.57459 15.9832 5.62587 17.6414C5.58314 17.7183 5.52331 17.7952 5.47202 17.8721C5.44638 17.8978 5.42074 17.9149 5.38655 17.9405C5.33527 17.9149 5.29254 17.9063 5.2498 17.8807C4.70279 17.5559 4.14724 17.2226 3.60023 16.8892C3.40365 16.7696 3.40365 16.7439 3.52331 16.5388C4.77117 14.2909 6.02758 12.0516 7.28399 9.8123C7.34382 9.70974 7.41219 9.62427 7.47202 9.5217C7.53185 9.42768 7.60023 9.40204 7.70279 9.46187C8.28399 9.82939 8.86519 10.1884 9.45493 10.5473C9.55749 10.6157 9.54895 10.6841 9.49766 10.7781Z" fill="#2E2E2E"/>
<path d="M15.7637 14.0782L11.5329 18.6679C11.2765 18.5483 10.9774 18.5055 10.6697 18.5654C10.3962 18.6252 10.1911 18.779 10.0201 18.9927C9.92611 19.1124 9.83209 19.2406 9.72098 19.3859C9.50731 18.8987 9.19961 18.5312 8.69534 18.3773C8.17397 18.2149 7.73808 18.3944 7.34491 18.7449C7.11414 18.4628 6.89192 18.1893 6.6697 17.9158C6.64406 17.8902 6.62696 17.8645 6.60132 17.8303C6.42469 17.6252 6.40189 17.403 6.53295 17.1637C7.50731 15.4372 8.48167 13.7107 9.46457 11.9842C9.49021 11.9414 9.51585 11.8902 9.56714 11.8047C10.3193 12.403 11.2253 12.4799 12.1312 12.6423C12.08 12.7278 12.0458 12.7961 12.003 12.856C11.6782 13.3517 11.3364 13.8389 11.0201 14.3346C10.7723 14.7107 10.6099 15.1124 10.6355 15.5739C10.6526 15.9073 10.8834 16.1893 11.2167 16.2491C11.8834 16.3517 12.4902 16.1722 13.0629 15.856C13.6782 15.5141 14.174 15.0269 14.5928 14.4628C14.6953 14.3346 14.7979 14.2491 14.9603 14.2235C15.0885 14.1978 15.2167 14.1551 15.3364 14.1038C15.4902 14.044 15.6184 14.0355 15.7637 14.0782Z" fill="#2E2E2E"/>
<path d="M18.207 11.4193L16.1301 13.6758C15.8224 13.5219 15.5403 13.4535 15.2241 13.6074C15.1899 13.6245 15.1471 13.633 15.1044 13.6416C14.6429 13.7441 14.2924 13.9578 14.0018 14.3595C13.5574 14.9749 12.9677 15.4364 12.2241 15.6587C12.0018 15.727 11.754 15.7527 11.5147 15.7698C11.2497 15.7783 11.1728 15.6843 11.1728 15.4279C11.1642 15.1886 11.2155 14.9749 11.3437 14.7869C11.9677 13.898 12.583 13.0091 13.1984 12.1202C13.3095 11.9578 13.4634 11.8382 13.6514 11.7954C14.207 11.6843 14.754 11.5476 15.3095 11.4792C15.8736 11.4023 16.4377 11.3937 17.0018 11.3595C17.4121 11.351 17.8138 11.3681 18.207 11.4193Z" fill="#2E2E2E"/>
<path d="M14.3164 22.1027L19.6497 16.3164C20.9489 17.1711 22.1882 18.1113 23.4019 19.1027C23.5301 19.1967 23.6412 19.3079 23.7438 19.419C24.0429 19.7523 24.0429 20.2651 23.7438 20.5985C23.607 20.7438 23.4446 20.8121 23.2566 20.8292C23.1027 20.8292 22.9403 20.8463 22.7865 20.8463C22.7181 20.8378 22.6497 20.8036 22.5899 20.7694C21.4617 20.1027 20.342 19.4275 19.2138 18.7694C19.0344 18.6583 18.8378 18.5728 18.6497 18.4873C18.5472 18.4361 18.4361 18.4104 18.3677 18.5472C18.2993 18.6839 18.342 18.7779 18.4617 18.8549C19.2908 19.3677 20.1198 19.8805 20.9489 20.3933C21.3164 20.6156 21.6925 20.8378 22.06 21.06C22.154 21.1113 22.1797 21.1711 22.1882 21.2737C22.2224 21.6497 22.1626 21.9916 21.8121 22.2053C21.4959 22.3933 21.1369 22.4532 20.8036 22.2908C20.2224 21.9916 19.6583 21.6583 19.0856 21.342C18.5985 21.0685 18.1113 20.795 17.6241 20.513C17.5215 20.4532 17.4361 20.4703 17.3506 20.5386C17.2053 20.6668 17.2053 20.795 17.3677 20.9061C17.5814 21.0514 17.8036 21.1797 18.0258 21.3164C18.6839 21.701 19.342 22.0856 20.0002 22.4703C20.0429 22.4959 20.0856 22.513 20.1198 22.5472C20.2908 22.6839 20.5728 22.7438 20.513 23.0514C20.419 23.5044 20.1711 23.7523 19.8121 23.8207C19.4703 23.8805 19.1626 23.8121 18.8634 23.6754C18.1882 23.3591 17.5215 23.0429 16.8463 22.7267L16.4873 22.5728C16.342 22.5301 16.2309 22.5728 16.1797 22.7096C16.1284 22.8463 16.1711 22.9403 16.2993 23.0002C17.0258 23.3677 17.7523 23.7352 18.4703 24.1027C18.5557 24.1369 18.6241 24.1882 18.7267 24.2395C18.4019 24.6412 18.0771 24.9831 17.5386 25.0087C16.6925 25.06 15.8891 24.8463 15.1113 24.5472C15.0942 24.5472 15.0856 24.5301 15.0514 24.513C15.0942 24.4275 15.1198 24.342 15.1711 24.2651C15.7267 23.4873 15.2651 22.3848 14.3164 22.1027Z" fill="#2E2E2E"/>
<path d="M23.6955 18.6492C22.4989 17.6919 21.2852 16.7774 20.0117 15.9227L22.9775 12.709C23.8322 14.2218 24.6869 15.7432 25.5416 17.256C25.5673 17.2987 25.5758 17.4013 25.5502 17.4269C25.1057 17.8799 24.6698 18.3415 24.1228 18.6748C23.969 18.766 23.8265 18.7574 23.6955 18.6492Z" fill="#2E2E2E"/>
<path d="M26.4712 17.7957C25.437 15.9667 24.3943 14.1291 23.3516 12.3L25.061 10.4453C25.1892 10.6504 25.3088 10.8556 25.4285 11.0692C26.4114 12.8214 27.3858 14.565 28.3601 16.3171C28.3858 16.3598 28.4028 16.4026 28.4285 16.4453C28.608 16.8214 28.6678 16.7359 28.2917 16.9838C27.7875 17.3 27.2746 17.5821 26.7618 17.8812C26.6251 17.9667 26.5481 17.9325 26.4712 17.7957Z" fill="#2E2E2E"/>
<path d="M15.7637 14.0782L11.5329 18.6679C11.2765 18.5483 10.9774 18.5055 10.6697 18.5654C10.3962 18.6252 10.1911 18.779 10.0201 18.9927C9.92611 19.1124 9.83209 19.2406 9.72098 19.3859C9.50731 18.8987 9.19961 18.5312 8.69534 18.3773C8.17397 18.2149 7.73808 18.3944 7.34491 18.7449C7.11414 18.4628 6.89192 18.1893 6.6697 17.9158C6.64406 17.8902 6.62696 17.8645 6.60132 17.8303C6.42469 17.6252 6.40189 17.403 6.53295 17.1637C7.50731 15.4372 8.48167 13.7107 9.46457 11.9842C9.49021 11.9414 9.51585 11.8902 9.56714 11.8047C10.3193 12.403 11.2253 12.4799 12.1312 12.6423C12.08 12.7278 12.0458 12.7961 12.003 12.856C11.6782 13.3517 11.3364 13.8389 11.0201 14.3346C10.7723 14.7107 10.6099 15.1124 10.6355 15.5739C10.6526 15.9073 10.8834 16.1893 11.2167 16.2491C11.8834 16.3517 12.4902 16.1722 13.0629 15.856C13.6782 15.5141 14.174 15.0269 14.5928 14.4628C14.6953 14.3346 14.7979 14.2491 14.9603 14.2235C15.0885 14.1978 15.2167 14.1551 15.3364 14.1038C15.4902 14.044 15.6184 14.0355 15.7637 14.0782Z" fill="#F4F6F8"/>
<path d="M23.7477 20.6004C23.6109 20.7457 23.4485 20.8141 23.2605 20.8312C23.1066 20.8312 22.9442 20.8483 22.7904 20.8483C22.722 20.8397 22.6536 20.8055 22.5938 20.7713C21.4656 20.1047 20.346 19.4295 19.2177 18.7713C19.0383 18.6602 18.8417 18.5748 18.6536 18.4893C18.5511 18.438 18.44 18.4124 18.3716 18.5491C18.3032 18.6859 18.346 18.7799 18.4656 18.8568C19.2947 19.3696 20.1237 19.8825 20.9528 20.3953C21.3203 20.6175 21.6964 20.8397 22.0639 21.0619C22.1579 21.1132 22.1836 21.1731 22.1921 21.2756C22.2263 21.6517 22.1665 21.9936 21.816 22.2072C21.4998 22.3953 21.1408 22.4551 20.8075 22.2927C20.2263 21.9936 19.6622 21.6602 19.0895 21.344C18.6024 21.0705 18.1152 20.797 17.628 20.5149C17.5254 20.4551 17.44 20.4722 17.3545 20.5406C17.2092 20.6688 17.2092 20.797 17.3716 20.9081C17.5853 21.0534 17.8075 21.1816 18.0297 21.3184C18.6878 21.703 19.346 22.0876 20.0041 22.4722C20.0468 22.4978 20.0895 22.5149 20.1237 22.5491C20.2947 22.6859 20.5767 22.7457 20.5169 23.0534C20.4229 23.5064 20.175 23.7543 19.816 23.8226C19.4742 23.8825 19.1665 23.8141 18.8673 23.6773C18.1921 23.3611 17.5254 23.0449 16.8502 22.7286L16.4913 22.5748C16.346 22.532 16.2348 22.5748 16.1836 22.7115C16.1323 22.8483 16.175 22.9423 16.3032 23.0021C17.0297 23.3696 17.7562 23.7372 18.4742 24.1047C18.5596 24.1389 18.628 24.1902 18.7306 24.2414C18.4058 24.6431 18.081 24.985 17.5425 25.0107C16.6964 25.0619 15.893 24.8483 15.1152 24.5491C15.0981 24.5491 15.0895 24.532 15.0554 24.5149C15.0981 24.4295 15.1237 24.344 15.175 24.2671C15.7306 23.4893 15.269 22.3867 14.3203 22.1047L19.6536 16.3184C20.9528 17.1731 22.1921 18.1132 23.4058 19.1047C23.534 19.1987 23.6451 19.3098 23.7477 19.4209C24.0468 19.7543 24.0468 20.2671 23.7477 20.6004Z" fill="#F4F6F8"/>
<path d="M18.207 11.4193L16.1301 13.6758C15.8224 13.5219 15.5403 13.4535 15.2241 13.6074C15.1899 13.6245 15.1471 13.633 15.1044 13.6416C14.6429 13.7441 14.2924 13.9578 14.0018 14.3595C13.5574 14.9749 12.9677 15.4364 12.2241 15.6587C12.0018 15.727 11.754 15.7527 11.5147 15.7698C11.2497 15.7783 11.1728 15.6843 11.1728 15.4279C11.1642 15.1886 11.2155 14.9749 11.3437 14.7869C11.9677 13.898 12.583 13.0091 13.1984 12.1202C13.3095 11.9578 13.4634 11.8382 13.6514 11.7954C14.207 11.6843 14.754 11.5476 15.3095 11.4792C15.8736 11.4023 16.4377 11.3937 17.0018 11.3595C17.4121 11.351 17.8138 11.3681 18.207 11.4193Z" fill="#F4F6F8"/>
<path d="M25.5502 17.4269C25.1057 17.8799 24.6698 18.3415 24.1228 18.6748C23.969 18.766 23.8265 18.7574 23.6955 18.6492C22.4989 17.6919 21.2852 16.7774 20.0117 15.9227L22.9775 12.709C23.8322 14.2218 24.6869 15.7432 25.5416 17.256C25.5673 17.2987 25.5758 17.4013 25.5502 17.4269Z" fill="#F4F6F8"/>
<path d="M9.49766 10.7781C9.15578 11.4106 8.8139 12.0431 8.46348 12.667C7.52331 14.3251 6.57459 15.9832 5.62587 17.6414C5.58314 17.7183 5.52331 17.7952 5.47202 17.8721C5.44638 17.8978 5.42074 17.9149 5.38655 17.9405C5.33527 17.9149 5.29254 17.9063 5.2498 17.8807C4.70279 17.5559 4.14724 17.2226 3.60023 16.8892C3.40365 16.7696 3.40365 16.7439 3.52331 16.5388C4.77117 14.2909 6.02758 12.0516 7.28399 9.8123C7.34382 9.70974 7.41219 9.62427 7.47202 9.5217C7.53185 9.42768 7.60023 9.40204 7.70279 9.46187C8.28399 9.82939 8.86519 10.1884 9.45493 10.5473C9.55749 10.6157 9.54895 10.6841 9.49766 10.7781Z" fill="#F4F6F8"/>
<path d="M28.2917 16.9838C27.7875 17.3 27.2746 17.5821 26.7618 17.8812C26.6251 17.9667 26.5481 17.9325 26.4712 17.7957C25.437 15.9667 24.3943 14.1291 23.3516 12.3L25.061 10.4453C25.1892 10.6504 25.3088 10.8556 25.4285 11.0692C26.4114 12.8214 27.3858 14.565 28.3601 16.3171C28.3858 16.3598 28.4028 16.4026 28.4285 16.4453C28.608 16.8214 28.6678 16.7359 28.2917 16.9838Z" fill="#F4F6F8"/>
<path d="M9.24922 19.7943C9.21503 19.914 9.19793 20.0422 9.13811 20.1447C8.93298 20.4268 8.7193 20.7088 8.49708 20.9738C8.33469 21.1704 8.11246 21.2217 7.8646 21.1362C7.50563 21.0165 7.26631 20.7687 7.1552 20.4011C7.10392 20.2302 7.11246 20.0422 7.22358 19.8883C7.42016 19.6148 7.61674 19.3413 7.81332 19.0764C8.0099 18.8114 8.2834 18.7858 8.574 18.8798C8.96717 19.008 9.22358 19.367 9.24922 19.7943Z" fill="#F4F6F8"/>
<path d="M16 0C7.17949 0 0 7.17949 0 16C0 24.8205 7.17949 32 16 32C24.8205 32 32 24.8291 32 16C32 7.17094 24.8291 0 16 0ZM5.70085 26.4957C2.97436 23.8291 1.28205 20.1111 1.28205 16C1.28205 7.88889 7.88889 1.28205 16 1.28205C19.6838 1.28205 23.0598 2.64103 25.641 4.88889L25.3846 5.17094L19.4274 11.6239L17.0769 14.1624L16.7179 14.5556L12.2564 19.3932L11.8547 19.8291L9.12821 22.7778L5.71795 26.4701L5.70085 26.4957ZM16 30.7179C13.2051 30.7179 10.5897 29.9316 8.35897 28.5727C8.05128 28.3846 7.76068 28.1966 7.47009 27.9829L11.094 24.0855L13.3419 21.6667L13.7692 21.2137L18.8205 15.7863L19.1795 15.3932L22.4701 11.8547L22.8718 11.4274L24.5641 9.61539L27.1453 6.83761L27.3419 6.62393C29.453 9.17094 30.7179 12.4359 30.7179 16C30.7179 24.1197 24.1197 30.7179 16 30.7179Z" fill="#F4F6F8"/>
<path d="M14.9324 23.5217C14.8897 23.6243 14.8726 23.7354 14.8128 23.8209C14.5051 24.2568 14.1889 24.6927 13.847 25.1115C13.676 25.3251 13.394 25.3679 13.1205 25.2397C12.7786 25.0858 12.5564 24.8209 12.4965 24.4448C12.4794 24.3251 12.5136 24.1627 12.582 24.0602C12.6504 23.9576 12.7273 23.8551 12.7957 23.7525C13.0265 23.4106 13.2743 23.0858 13.5222 22.7525C13.6077 22.6243 13.7359 22.5815 13.8812 22.573C13.9153 22.5645 13.9581 22.5645 13.9923 22.5645C14.4453 22.5815 14.8983 23.0602 14.9239 23.5217H14.9324Z" fill="#F4F6F8"/>
</svg>
