<svg width="32" height="32" viewBox="0 0 32 32" fill="none" xmlns="http://www.w3.org/2000/svg">
<g clip-path="url(#clip0_3154_161962)">
<path d="M15.9958 0C7.17139 0 0 7.17139 0 15.9958C0 24.8201 7.17139 32 15.9958 32C24.8201 32 31.9915 24.8201 31.9915 15.9958C31.9915 7.17139 24.8201 0 15.9958 0ZM15.9958 30.4742C8.01907 30.4742 1.52583 23.9809 1.52583 15.9958C1.52583 8.0106 8.01907 1.52583 15.9958 1.52583C23.9725 1.52583 30.4657 8.01907 30.4657 15.9958C30.4657 23.9725 23.9725 30.4742 15.9958 30.4742Z" fill="white"/>
<path d="M6.7213 15.3352L5.36501 16.0472L6.7213 16.7508V18.3444L2.60156 16.0472L6.7213 13.75V15.3352Z" fill="white"/>
<path d="M11.2733 17.1917C11.2733 18.3699 10.4765 19.1328 9.24737 19.1328C8.01823 19.1328 7.22141 18.4208 7.1875 17.234V17.1069L8.64551 17.0221V17.1493C8.67094 17.5901 8.86591 17.8105 9.23889 17.8105C9.70512 17.8105 9.80684 17.4544 9.80684 17.1662C9.80684 16.6661 9.45929 16.5644 9.1626 16.5644H8.43359V15.2759H9.15412C9.4932 15.2759 9.70512 15.064 9.70512 14.7249C9.70512 14.3858 9.55253 14.1993 9.23889 14.1993C8.832 14.1993 8.73028 14.5299 8.7218 14.8012V14.9368L7.26379 14.8605V14.7334C7.2977 13.5721 8.02671 12.877 9.23889 12.877C10.4511 12.877 11.1716 13.5805 11.1716 14.7079C11.1716 15.2166 11.0021 15.598 10.6545 15.8947C11.036 16.1405 11.2733 16.6237 11.2733 17.1917Z" fill="white"/>
<path d="M14.1287 12.877C12.6791 12.877 11.7891 14.0722 11.7891 16.0049C11.7891 17.9376 12.6791 19.1328 14.1287 19.1328C15.5782 19.1328 16.4598 17.9376 16.4598 16.0049C16.4598 14.0722 15.5612 12.877 14.1287 12.877ZM14.1287 17.8105C13.9167 17.8105 13.264 17.8105 13.264 16.0049C13.264 14.1993 13.9167 14.1993 14.1287 14.1993C14.3406 14.1993 14.9763 14.1993 14.9763 16.0049C14.9763 17.8105 14.3321 17.8105 14.1287 17.8105Z" fill="white"/>
<path d="M19.3357 12.877C17.8946 12.877 16.9961 14.0722 16.9961 16.0049C16.9961 17.9376 17.8946 19.1328 19.3357 19.1328C20.7768 19.1328 21.6668 17.9376 21.6668 16.0049C21.6668 14.0722 20.7768 12.877 19.3357 12.877ZM19.3357 17.8105C19.1238 17.8105 18.4795 17.8105 18.4795 16.0049C18.4795 14.1993 19.1238 14.1993 19.3357 14.1993C19.5476 14.1993 20.1919 14.1993 20.1919 16.0049C20.1919 17.8105 19.5476 17.8105 19.3357 17.8105Z" fill="white"/>
<path d="M23.0381 15.2832V17.2244L23.7586 16.4106H24.5215L23.6739 17.3685L24.5809 18.6485H23.818L23.2331 17.8347L23.0381 18.0551V18.6485H22.4023V15.2832H23.0381Z" fill="white"/>
<path d="M28.7189 17.2762V18.6494H28.0832V17.4033C28.0832 17.1151 27.956 16.954 27.7102 16.954C27.4813 16.954 27.3457 17.0981 27.3203 17.327V18.6494H26.6845V17.4033C26.6845 17.1151 26.5489 16.954 26.32 16.954C26.0657 16.954 25.9131 17.1321 25.9131 17.4033V18.6494H25.2773V16.4115H25.8792V16.6404C25.9809 16.4878 26.1589 16.3691 26.4726 16.3691C26.7862 16.3691 27.0236 16.4963 27.1762 16.7252C27.3033 16.5217 27.5237 16.3691 27.8628 16.3691C28.3714 16.3691 28.7105 16.7082 28.7105 17.2762H28.7189Z" fill="white"/>
</g>
<defs>
<clipPath id="clip0_3154_161962">
<rect width="31.9915" height="32" fill="white"/>
</clipPath>
</defs>
</svg>
