<svg width="40" height="40" viewBox="0 0 40 40" fill="none" xmlns="http://www.w3.org/2000/svg">
<path d="M15.4753 3H15.874C17.1415 3.48187 18.4106 3.9604 19.6756 4.45059C19.7759 4.49303 19.8837 4.5149 19.9927 4.5149C20.1016 4.5149 20.2094 4.49303 20.3097 4.45059C21.5739 3.9604 22.843 3.48187 24.1105 3H24.5091C24.8845 3.14731 25.1325 3.43776 25.3763 3.74236C26.0945 4.64034 26.8244 5.52917 27.5443 6.42633C27.5916 6.49236 27.6521 6.548 27.7218 6.58979C27.7915 6.63159 27.869 6.65866 27.9496 6.66934C29.1838 6.85576 30.4154 7.05883 31.648 7.25191C32.3137 7.35677 32.6391 7.68217 32.744 8.34713C32.9371 9.56886 33.1401 10.7898 33.3266 12.0131C33.3378 12.1046 33.3678 12.1927 33.4148 12.2719C33.4618 12.3511 33.5247 12.4197 33.5995 12.4734C34.4883 13.1858 35.3672 13.909 36.2568 14.6214C36.5606 14.8644 36.8519 15.1116 36.9992 15.4869V15.8856C36.514 17.163 36.0321 18.4422 35.5403 19.718C35.5022 19.8087 35.4826 19.906 35.4826 20.0043C35.4826 20.1026 35.5022 20.1999 35.5403 20.2906C36.033 21.5656 36.5148 22.8439 37 24.1189V24.5175C36.8535 24.8929 36.5606 25.14 36.256 25.3831C35.358 26.1029 34.4684 26.8328 33.5712 27.5535C33.5056 27.6016 33.4505 27.6625 33.4093 27.7327C33.368 27.8028 33.3416 27.8806 33.3316 27.9613C33.146 29.1856 32.9412 30.4065 32.749 31.6298C32.6391 32.3331 32.3221 32.6452 31.6097 32.7567C30.3971 32.9448 29.1862 33.1478 27.9737 33.3318C27.8876 33.3423 27.8046 33.3703 27.7297 33.4141C27.6549 33.4579 27.5898 33.5165 27.5384 33.5864C26.7844 34.5277 26.023 35.464 25.264 36.4002C24.7463 37.0394 24.4018 37.1334 23.6461 36.8438C22.5426 36.4194 21.4357 36.0016 20.3364 35.5663C20.226 35.5197 20.1073 35.4961 19.9875 35.4971C19.8677 35.4981 19.7494 35.5237 19.6398 35.5722C18.5379 36.0107 17.4319 36.4327 16.3267 36.8488C15.596 37.1284 15.2323 37.0269 14.733 36.4111C13.9665 35.4656 13.1976 34.5219 12.4361 33.5731C12.3875 33.5077 12.326 33.4529 12.2554 33.4121C12.1849 33.3713 12.1067 33.3454 12.0258 33.3359C10.8132 33.1503 9.60318 32.9481 8.39063 32.7592C7.65494 32.6452 7.35118 32.3431 7.23799 31.6099C7.04991 30.3973 6.84602 29.1872 6.66209 27.9738C6.65086 27.8878 6.62218 27.805 6.57782 27.7304C6.53346 27.6559 6.47435 27.5911 6.4041 27.5402C5.45426 26.7812 4.50774 26.0175 3.56456 25.2491C2.97284 24.768 2.87131 24.3877 3.14345 23.677C3.57121 22.5626 3.99482 21.4466 4.4334 20.3364C4.47879 20.2312 4.5022 20.118 4.5022 20.0035C4.5022 19.889 4.47879 19.7757 4.4334 19.6706C3.99981 18.5704 3.58037 17.4643 3.15677 16.3599C2.86965 15.6109 2.96952 15.2481 3.59868 14.7379C4.53576 13.9789 5.47118 13.2174 6.41243 12.4642C6.48254 12.413 6.54139 12.348 6.58534 12.2731C6.62929 12.1982 6.65739 12.1151 6.66792 12.029C6.85184 10.8156 7.0549 9.60548 7.24299 8.39291C7.35534 7.66719 7.66326 7.36426 8.40228 7.24941C9.61483 7.06049 10.8249 6.85659 12.0383 6.67267C12.119 6.66221 12.1968 6.63533 12.2668 6.59368C12.3368 6.55203 12.3975 6.49649 12.4452 6.43049C13.1659 5.53333 13.8966 4.6445 14.6157 3.74652C14.8545 3.44109 15.1017 3.14897 15.4753 3Z" fill="#3D82C3"/>
<path d="M9.57722 16V23.6548H8V16H9.57722ZM12.6265 19.2701V20.5003H9.14611V19.2701H12.6265ZM12.9945 16V17.2355H9.14611V16H12.9945Z" fill="#FDCF33"/>
<path d="M13.9093 16H16.7641C17.3494 16 17.8524 16.0876 18.2729 16.2629C18.697 16.4381 19.023 16.6975 19.2508 17.041C19.4786 17.3844 19.5926 17.8068 19.5926 18.308C19.5926 18.7181 19.5225 19.0703 19.3823 19.3647C19.2456 19.6556 19.051 19.8992 18.7987 20.0955C18.5498 20.2883 18.2572 20.4425 17.9207 20.5582L17.4212 20.821H14.9398L14.9292 19.5908H16.7746C17.0515 19.5908 17.2811 19.5417 17.4633 19.4436C17.6456 19.3455 17.7823 19.2088 17.8734 19.0335C17.968 18.8583 18.0153 18.655 18.0153 18.4237C18.0153 18.1783 17.9698 17.9663 17.8786 17.7875C17.7875 17.6088 17.6491 17.4721 17.4633 17.3774C17.2775 17.2828 17.0445 17.2355 16.7641 17.2355H15.4865V23.6548H13.9093V16ZM18.1888 23.6548L16.4434 20.2427L18.11 20.2322L19.8765 23.5812V23.6548H18.1888Z" fill="#FDCF33"/>
<path d="M25.9435 22.4245V23.6548H21.869V22.4245H25.9435ZM22.3842 16V23.6548H20.807V16H22.3842ZM25.4125 19.1176V20.3163H21.869V19.1176H25.4125ZM25.9382 16V17.2355H21.869V16H25.9382Z" fill="#FDCF33"/>
<path d="M32 22.4245V23.6548H27.9255V22.4245H32ZM28.4407 16V23.6548H26.8635V16H28.4407ZM31.469 19.1176V20.3163H27.9255V19.1176H31.469ZM31.9947 16V17.2355H27.9255V16H31.9947Z" fill="#FDCF33"/>
</svg>
