<svg fill="none" height="36" viewBox="0 0 36 36" width="36" xmlns="http://www.w3.org/2000/svg"><path d="m33.7508 18.3499c0-1.295-.1072-2.24-.3393-3.22h-15.0892v5.8449h8.857c-.1785 1.4526-1.1428 3.6401-3.2857 5.11l-.03.1957 4.771 3.622.3305.0324c3.0357-2.7476 4.7857-6.7901 4.7857-11.585z" fill="#4285f4"/><path d="m18.322 33.7501c4.3392 0 7.982-1.4001 10.6428-3.815l-5.0715-3.8501c-1.3571.9275-3.1785 1.575-5.5713 1.575-4.25 0-7.8571-2.7475-9.14292-6.545l-.18847.0157-4.96089 3.7625-.06488.1768c2.64282 5.145 8.07136 8.6801 14.35716 8.6801z" fill="#34a853"/><path d="m9.18045 21.115c-.33928-.98-.53563-2.0301-.53563-3.1151s.19635-2.135.51778-3.115l-.00899-.2087-5.02307-3.8229-.16434.0766c-1.08924 2.135-1.71425 4.5326-1.71425 7.07 0 2.5375.62501 4.935 1.71425 7.07z" fill="#fbbc05"/><path d="m18.3221 8.33996c3.0178 0 5.0534 1.27749 6.2142 2.34504l4.5357-4.34c-2.7856-2.53749-6.4107-4.095-10.7499-4.095-6.2858 0-11.71442 3.53497-14.35726 8.6799l5.19642 3.9551c1.30374-3.7975 4.91084-6.54504 9.16084-6.54504z" fill="#eb4335"/></svg>