<svg width="29" height="19" viewBox="0 0 29 19" fill="none" xmlns="http://www.w3.org/2000/svg">
<rect x="21.715" y="12.5293" width="0.315119" height="1.57559" transform="rotate(-45 21.715 12.5293)" fill="#173559" stroke="#173559" stroke-width="0.315119"/>
<rect x="22.7555" y="14.312" width="1.3637" height="5.77537" rx="0.263504" transform="rotate(-45 22.7555 14.312)" fill="#173559" stroke="#173559" stroke-width="0.527007"/>
<mask id="path-3-inside-1_43_3226" fill="white">
<path d="M22.7555 14.6847C22.5497 14.4789 22.5497 14.1452 22.7555 13.9394L23.3471 13.3477C23.5529 13.1419 23.8866 13.1419 24.0924 13.3477L24.611 13.8664L23.2741 15.2033L22.7555 14.6847Z"/>
</mask>
<path d="M22.7555 14.6847C22.5497 14.4789 22.5497 14.1452 22.7555 13.9394L23.3471 13.3477C23.5529 13.1419 23.8866 13.1419 24.0924 13.3477L24.611 13.8664L23.2741 15.2033L22.7555 14.6847Z" fill="#173559"/>
<path d="M24.611 13.8664L24.9837 14.239L25.3563 13.8664L24.9837 13.4937L24.611 13.8664ZM23.2741 15.2033L22.9015 15.576L23.2741 15.9486L23.6468 15.576L23.2741 15.2033ZM23.1281 14.312L23.7197 13.7204L22.9744 12.9751L22.3828 13.5667L23.1281 14.312ZM23.7197 13.7204L24.2384 14.239L24.9837 13.4937L24.465 12.9751L23.7197 13.7204ZM24.2384 13.4937L22.9015 14.8307L23.6468 15.576L24.9837 14.239L24.2384 13.4937ZM23.6468 14.8307L23.1281 14.312L22.3828 15.0573L22.9015 15.576L23.6468 14.8307ZM23.7197 13.7204L23.7197 13.7204L24.465 12.9751C24.0534 12.5635 23.3861 12.5635 22.9744 12.9751L23.7197 13.7204ZM22.3828 13.5667C21.9712 13.9783 21.9712 14.6457 22.3828 15.0573L23.1281 14.312L23.1281 14.312L22.3828 13.5667Z" fill="#173559" mask="url(#path-3-inside-1_43_3226)"/>
<circle cx="17.3079" cy="7.60375" r="6.17088" fill="white" fill-opacity="0.2" stroke="#173559" stroke-width="1.99857"/>
<mask id="mask0_43_3226" style="mask-type:alpha" maskUnits="userSpaceOnUse" x="0" y="1" width="23" height="13">
<path d="M0.603925 8.45981C0.603925 5.11434 13.1048 1.32886 16.4503 1.32886C19.7958 1.32886 22.5078 4.0409 22.5078 7.38637C22.5078 10.7318 19.7958 13.4439 16.4503 13.4439C13.1048 13.4439 0.603926 13.8236 0.603925 8.45981Z" fill="white"/>
</mask>
<g mask="url(#mask0_43_3226)">
<path d="M9.2002 7.02281C9.2002 7.02281 9.75191 6.51022 10.2908 6.24745C10.8299 5.98469 12.6878 4.92327 13.3874 4.80341C14.087 4.68354 13.9075 5.3802 13.9075 5.39987C13.9075 5.41955 9.36319 8.12021 9.2002 7.02281Z" fill="#173559"/>
<path d="M20.1359 5.10464L20.6249 5.08496C20.6249 5.08496 22.9989 5.67624 24.4923 6.49094C25.9856 7.30589 23.5961 6.95744 23.5961 6.95744C23.5961 6.95744 19.9228 5.54473 20.1359 5.10464Z" fill="#F2F6FF"/>
<path d="M8.98242 6.78896C8.98242 6.78896 9.30298 6.68592 9.42202 6.78896C9.54106 6.892 9.50352 7.02352 9.50352 7.02352L8.98242 6.78896Z" fill="#173559"/>
<path d="M4.71131 11.4989C4.71131 11.4989 2.56182 11.3525 2.5307 10.9254C2.5307 10.9254 2.51761 10.8337 2.63665 10.7744C2.63665 10.7744 2.56108 9.39487 2.74284 8.96771C2.9246 8.54056 2.91201 8.01503 3.83959 7.65363C4.76717 7.29224 6.98611 6.86508 9.03589 6.78638C9.03589 6.78638 9.53104 6.96372 9.7943 6.95725C9.7943 6.95725 12.7403 5.09123 13.4612 5.04515C13.4612 5.04515 13.2606 4.9007 13.3108 4.83494C13.3609 4.76919 15.0721 4.46034 17.2347 4.60505C19.3971 4.74951 20.6257 5.08476 20.6257 5.08476C20.6257 5.08476 20.3062 5.24915 20.3499 5.2753C20.3938 5.30145 23.6846 6.44492 23.6846 6.44492C23.6846 6.44492 24.1671 6.55003 24.4304 6.43172C24.4304 6.43172 25.0132 6.59611 25.1762 6.60905C25.3392 6.62226 26.1665 6.58937 26.1791 6.69448C26.1917 6.79959 26.1665 6.99013 26.2105 7.02948C26.2545 7.06883 26.4799 7.43695 26.411 7.56173L26.2732 7.28577C26.2732 7.28577 25.1199 7.34505 25.1012 7.49597C25.0824 7.64716 25.2014 8.04144 25.2641 8.11367C25.3269 8.18589 26.3925 8.14007 26.3925 8.14007C26.3925 8.14007 26.4678 8.67233 26.5681 8.74456C26.6684 8.81679 26.9692 8.87607 26.963 9.06661C26.9568 9.25714 26.9818 10.0457 26.681 10.0982C26.681 10.0982 26.33 10.0522 26.0981 10.3413C25.8662 10.6305 25.603 11.0377 25.1266 11.156C24.6502 11.2743 23.8103 11.3334 23.8103 11.3334C23.8103 11.3334 24.0234 8.48076 21.7669 8.415C19.5105 8.34924 19.6046 11.3116 19.6046 11.3116H8.78671C8.78671 11.3116 9.30011 8.62845 6.74901 8.52335C4.13242 8.60439 4.71131 11.4989 4.71131 11.4989Z" fill="#173559"/>
<path d="M19.0277 5.24944C18.2024 5.04182 15.495 4.7995 14.1989 5.08505C12.9031 5.3706 11.574 5.88111 10.3359 6.96272L10.5762 6.95754C10.8672 6.71057 11.6033 6.14672 12.7463 5.68203C14.2569 5.06771 15.2556 5.01567 16.4359 5.08505C17.6164 5.15443 18.7553 5.18886 19.4982 5.56967C20.2411 5.95049 21.0582 6.52158 21.0005 6.58216C20.9498 6.63523 17.6331 6.78849 16.8261 6.82525L20.9261 6.73827C20.9261 6.73827 21.182 6.7292 21.182 6.61685C21.182 6.50449 19.8531 5.45706 19.0277 5.24944Z" fill="white"/>
<path d="M19.4981 5.56961C18.7553 5.1888 17.616 5.15437 16.4358 5.08499C15.2553 5.01587 14.2566 5.06765 12.7462 5.68197C11.6035 6.14692 10.8671 6.7105 10.5762 6.95747L16.8263 6.82492C17.6333 6.78842 20.9498 6.63516 21.0006 6.58184C21.0582 6.52126 20.241 5.95017 19.4981 5.56961Z" fill="#F2F6FF"/>
<path d="M11.8141 6.73808C11.8141 6.73808 13.3082 5.67357 14.4719 5.46595C15.6355 5.25833 16.9894 5.37069 16.9894 5.37069C16.9894 5.37069 16.717 6.78106 16.6014 6.84164C16.4858 6.90221 11.5684 6.93664 11.5684 6.93664L11.8141 6.73808Z" fill="#F2F6FF"/>
<path d="M17.7144 5.4215L17.541 6.69339L20.1741 6.59812C20.1741 6.59812 20.4465 6.60667 20.4465 6.50285C20.4465 6.3993 19.2332 5.33503 17.7144 5.4215Z" fill="#F2F6FF"/>
<path d="M12.2624 6.59946C12.2693 6.55467 12.2681 6.50549 12.255 6.45242C12.192 6.19587 12.0429 5.94423 11.6863 6.07367C11.3297 6.20311 11.2783 6.40607 11.2319 6.60386C11.2319 6.60386 11.0385 6.54768 11.0222 6.63803C11.0123 6.6924 11.0464 6.76825 11.0961 6.82442C11.4628 6.88604 11.9626 6.72036 12.2624 6.59946Z" fill="#F2F6FF"/>
<path d="M11.0986 6.8248C11.1317 6.86208 11.172 6.89055 11.2112 6.89754C11.309 6.91463 11.4839 6.95139 11.5469 6.92188C11.6098 6.89237 11.9151 6.93094 12.0129 6.90324C12.0904 6.88123 12.2384 6.77225 12.265 6.6001C11.965 6.72073 11.4651 6.88641 11.0986 6.8248Z" fill="#F2F6FF"/>
<path d="M3.29841 8.1482C3.29841 8.1482 3.02799 8.24165 2.90179 8.66388C2.77584 9.0861 2.92945 8.98617 2.98798 8.96676C3.04626 8.94734 3.88864 8.85726 4.0178 8.84095C4.14696 8.8249 4.13165 8.70892 4.16845 8.64757C4.20524 8.58622 4.55593 8.17383 4.4606 8.06743C4.36528 7.96129 3.45523 8.0708 3.29841 8.1482Z" fill="#F2F6FF"/>
<path d="M2.71109 9.84296C2.71109 9.84296 2.72344 10.4777 2.77555 10.5712C2.82791 10.6646 2.95681 10.7581 3.15364 10.784C3.35047 10.8099 3.72239 10.842 3.75302 10.5745C3.78389 10.3071 3.836 9.80439 3.836 9.80439C3.836 9.80439 2.69578 9.78498 2.71109 9.84296Z" fill="#F2F6FF"/>
<path d="M8.7815 10.8573L8.78125 10.8281C8.79878 10.8278 9.31073 10.8224 10.0383 10.8146C9.86096 10.5314 9.87825 9.92302 9.87899 9.89661C9.87849 9.87978 9.83132 8.10878 9.94566 7.60319C10.0612 7.09319 10.4524 6.8778 10.4564 6.87573C10.4677 6.86848 11.687 6.089 12.0362 5.88966C12.8677 5.41487 13.6718 5.11897 14.2998 5.05606C15.2062 4.96545 17.152 5.00429 17.1715 5.0048C17.2443 5.01205 18.9367 5.18188 19.2637 5.32634C19.5895 5.47027 20.726 6.19799 20.7373 6.20549C20.7539 6.2143 21.1678 6.43408 21.1907 6.58993C21.1949 6.61866 21.1868 6.64378 21.1663 6.66449C21.0673 6.76571 20.7778 6.76183 20.4113 6.75691C20.2555 6.75484 20.0947 6.75276 19.9335 6.75872C19.4282 6.77762 17.1263 6.83405 16.9294 6.83897C16.9292 6.87547 16.9349 6.98162 17.0001 7.07482C17.0114 7.09112 17.0238 7.10769 17.0364 7.12478C17.1171 7.23377 17.2177 7.36942 17.1989 7.5716C17.1952 7.61277 17.191 7.6925 17.1851 7.80304C17.1591 8.29517 17.105 9.31879 16.9356 9.73455C16.7227 10.2567 16.6044 10.4542 16.3241 10.5958C16.0404 10.739 15.5275 10.8063 15.1676 10.7988C14.8226 10.7913 8.842 10.8565 8.7815 10.8573ZM16.1997 5.02551C15.5736 5.02551 14.7883 5.03691 14.3028 5.08532C13.6782 5.14771 12.8781 5.44257 12.0498 5.91555C11.7011 6.11463 10.4826 6.89359 10.4702 6.90136C10.4655 6.90395 10.0854 7.11365 9.97308 7.60992C9.85948 8.11163 9.90665 9.87875 9.90714 9.89661C9.9069 9.90412 9.88887 10.5469 10.0721 10.8141C11.8668 10.7952 14.9244 10.7641 15.1686 10.7693C15.525 10.7768 16.0325 10.7105 16.3125 10.5692C16.5849 10.4317 16.7008 10.2373 16.9104 9.72264C17.0779 9.31179 17.1317 8.29155 17.1576 7.80123C17.1636 7.69043 17.1678 7.61043 17.1715 7.56875C17.189 7.37822 17.0964 7.25318 17.0146 7.14264C17.0018 7.12529 16.9895 7.10847 16.9779 7.09216C16.8914 6.96893 16.9018 6.82939 16.9023 6.82344L16.9033 6.81049L16.9159 6.81023C16.9408 6.80946 19.4074 6.74914 19.9327 6.72973C20.0945 6.72377 20.2558 6.72584 20.4118 6.72791C20.7576 6.73257 21.0562 6.73645 21.147 6.64378C21.1609 6.6298 21.166 6.61349 21.1633 6.59459C21.146 6.47758 20.8403 6.29274 20.724 6.23138C20.7116 6.22336 19.5769 5.49668 19.2531 5.35377C18.9301 5.21113 17.1878 5.03639 17.1702 5.03458C17.1616 5.03406 16.7398 5.02551 16.1997 5.02551Z" fill="#F2F6FF"/>
<path d="M23.4964 10.6925C23.4964 11.6848 22.6921 12.4891 21.6998 12.4891C20.7076 12.4891 19.9033 11.6848 19.9033 10.6925C19.9033 9.70028 20.7076 8.896 21.6998 8.896C22.6921 8.896 23.4964 9.70028 23.4964 10.6925Z" fill="#173559"/>
<path d="M20.4404 10.6921C20.4404 11.3868 21.0036 11.9497 21.6981 11.9497C22.3927 11.9497 22.9556 11.3868 22.9556 10.6921C22.9556 9.9975 22.3927 9.43457 21.6981 9.43457C21.0036 9.43457 20.4404 9.9975 20.4404 10.6921Z" fill="#F2F6FF"/>
<path d="M8.55302 10.6925C8.55302 11.6848 7.74873 12.4891 6.75649 12.4891C5.76424 12.4891 4.95996 11.6848 4.95996 10.6925C4.95996 9.70028 5.76424 8.896 6.75649 8.896C7.74873 8.896 8.55302 9.70028 8.55302 10.6925Z" fill="#173559"/>
<path d="M5.49902 10.6921C5.49902 11.3868 6.06215 11.9497 6.75671 11.9497C7.45128 11.9497 8.01416 11.3868 8.01416 10.6921C8.01416 9.9975 7.45128 9.43457 6.75671 9.43457C6.06215 9.43457 5.49902 9.9975 5.49902 10.6921Z" fill="#F2F6FF"/>
</g>
</svg>
