<svg width="42" height="29" viewBox="0 0 42 29" fill="none" xmlns="http://www.w3.org/2000/svg">
<rect x="31.9266" y="18.8359" width="0.481824" height="2.40912" transform="rotate(-45 31.9266 18.8359)" fill="#FDCF33" stroke="#FDCF33" stroke-width="0.481824"/>
<rect x="33.288" y="21.562" width="2.40912" height="9.15466" rx="0.240912" transform="rotate(-45 33.288 21.562)" fill="#FDCF33" stroke="#FDCF33" stroke-width="0.481824"/>
<mask id="path-3-inside-1_43_3356" fill="white">
<path d="M33.288 21.9027C33.0998 21.7145 33.0998 21.4095 33.288 21.2213L34.6508 19.8585C34.8389 19.6703 35.144 19.6703 35.3322 19.8585L36.3543 20.8806L34.3101 22.9248L33.288 21.9027Z"/>
</mask>
<path d="M33.288 21.9027C33.0998 21.7145 33.0998 21.4095 33.288 21.2213L34.6508 19.8585C34.8389 19.6703 35.144 19.6703 35.3322 19.8585L36.3543 20.8806L34.3101 22.9248L33.288 21.9027Z" fill="#FDCF33"/>
<path d="M36.3543 20.8806L36.695 21.2213L37.0357 20.8806L36.695 20.5399L36.3543 20.8806ZM34.3101 22.9248L33.9694 23.2655L34.3101 23.6062L34.6508 23.2655L34.3101 22.9248ZM33.6287 21.562L34.9915 20.1992L34.3101 19.5178L32.9473 20.8806L33.6287 21.562ZM34.9915 20.1992L36.0136 21.2213L36.695 20.5399L35.6729 19.5178L34.9915 20.1992ZM36.0136 20.5399L33.9694 22.5841L34.6508 23.2655L36.695 21.2213L36.0136 20.5399ZM34.6508 22.5841L33.6287 21.562L32.9473 22.2434L33.9694 23.2655L34.6508 22.5841ZM34.9915 20.1992L34.9915 20.1992L35.6729 19.5178C35.2965 19.1415 34.6864 19.1415 34.3101 19.5178L34.9915 20.1992ZM32.9473 20.8806C32.5709 21.2569 32.5709 21.8671 32.9473 22.2434L33.6287 21.562L33.6287 21.562L32.9473 20.8806Z" fill="#FDCF33" mask="url(#path-3-inside-1_43_3356)"/>
<circle cx="25.188" cy="11.3042" r="10.0497" fill="#FDCF33" fill-opacity="0.2" stroke="#FDCF33" stroke-width="1.82723"/>
<mask id="mask0_43_3356" style="mask-type:alpha" maskUnits="userSpaceOnUse" x="0" y="1" width="35" height="20">
<path d="M0.873641 12.8597C0.873641 7.74441 19.9879 1.95632 25.1032 1.95631C30.2185 1.95631 34.3652 6.10309 34.3652 11.2184C34.3652 16.3337 30.2185 20.4805 25.1032 20.4805C19.9879 20.4805 0.873642 20.4805 0.873641 12.8597Z" fill="white"/>
</mask>
<g mask="url(#mask0_43_3356)">
<path d="M13.9277 10.4162C13.9277 10.4162 14.7713 9.6324 15.5953 9.23063C16.4196 8.82886 19.2603 7.20592 20.3301 7.02265C21.3998 6.83938 21.1253 7.90458 21.1253 7.93466C21.1253 7.96474 14.177 12.0941 13.9277 10.4162Z" fill="#173559"/>
<path d="M30.6474 7.48321L31.3951 7.45312C31.3951 7.45312 35.0251 8.35721 37.3085 9.6029C39.5919 10.849 35.9381 10.3162 35.9381 10.3162C35.9381 10.3162 30.3216 8.15613 30.6474 7.48321Z" fill="#F2F6FF"/>
<path d="M13.5947 10.0588C13.5947 10.0588 14.0849 9.90124 14.2669 10.0588C14.4489 10.2163 14.3915 10.4174 14.3915 10.4174L13.5947 10.0588Z" fill="#173559"/>
<path d="M7.06435 17.2603C7.06435 17.2603 3.77772 17.0365 3.73014 16.3834C3.73014 16.3834 3.71013 16.2433 3.89214 16.1526C3.89214 16.1526 3.77659 14.0432 4.05451 13.3901C4.33243 12.737 4.31317 11.9334 5.73147 11.3808C7.14977 10.8283 10.5426 10.1751 13.6767 10.0548C13.6767 10.0548 14.4338 10.3259 14.8364 10.316C14.8364 10.316 19.3409 7.46286 20.4431 7.3924C20.4431 7.3924 20.1365 7.17153 20.2131 7.07099C20.2898 6.97044 22.9062 6.49821 26.213 6.71948C29.5193 6.94036 31.3979 7.45296 31.3979 7.45296C31.3979 7.45296 30.9093 7.70432 30.9761 7.7443C31.0433 7.78428 36.075 9.53268 36.075 9.53268C36.075 9.53268 36.8128 9.69339 37.2153 9.5125C37.2153 9.5125 38.1065 9.76385 38.3557 9.78365C38.6049 9.80383 39.8699 9.75356 39.8892 9.91426C39.9085 10.075 39.8699 10.3663 39.9371 10.4265C40.0044 10.4866 40.3491 11.0495 40.2438 11.2403L40.0331 10.8184C40.0331 10.8184 38.2696 10.909 38.2409 11.1398C38.2122 11.3709 38.3942 11.9738 38.4902 12.0842C38.5861 12.1947 40.2155 12.1246 40.2155 12.1246C40.2155 12.1246 40.3306 12.9385 40.4839 13.0489C40.6372 13.1593 41.0972 13.25 41.0877 13.5413C41.0783 13.8326 41.1164 15.0384 40.6565 15.1187C40.6565 15.1187 40.1199 15.0483 39.7653 15.4904C39.4108 15.9325 39.0082 16.5552 38.2798 16.7361C37.5514 16.917 36.2672 17.0072 36.2672 17.0072C36.2672 17.0072 36.593 12.6455 33.1428 12.545C29.6926 12.4444 29.8365 16.974 29.8365 16.974H13.2957C13.2957 16.974 14.0807 12.8714 10.18 12.7106C6.17921 12.8346 7.06435 17.2603 7.06435 17.2603Z" fill="#173559"/>
<path d="M28.954 7.70425C27.6921 7.38679 23.5523 7.01629 21.5706 7.45289C19.5893 7.8895 17.557 8.67009 15.6641 10.3239L16.0315 10.316C16.4763 9.93835 17.602 9.07622 19.3495 8.36569C21.6594 7.42638 23.1864 7.34681 24.991 7.45289C26.796 7.55898 28.5375 7.61162 29.6734 8.1939C30.8092 8.77617 32.0587 9.64939 31.9704 9.74202C31.893 9.82316 26.8217 10.0575 25.5876 10.1137L31.8567 9.98071C31.8567 9.98071 32.2479 9.96685 32.2479 9.79505C32.2479 9.62326 30.216 8.02171 28.954 7.70425Z" fill="white"/>
<path d="M29.6731 8.19436C28.5373 7.61209 26.7954 7.55944 24.9908 7.45336C23.1858 7.34767 21.6588 7.42684 19.3493 8.36616C17.6021 9.07707 16.4761 9.9388 16.0312 10.3164L25.5878 10.1138C26.8218 10.0579 31.8927 9.82362 31.9705 9.74207C32.0585 9.64945 30.809 8.77624 29.6731 8.19436Z" fill="#F2F6FF"/>
<path d="M17.9236 9.98046C17.9236 9.98046 20.2081 8.35279 21.9874 8.03534C23.7667 7.71788 25.8367 7.88967 25.8367 7.88967C25.8367 7.88967 25.4202 10.0462 25.2435 10.1388C25.0668 10.2314 17.5479 10.2841 17.5479 10.2841L17.9236 9.98046Z" fill="#F2F6FF"/>
<path d="M26.9467 7.96759L26.6816 9.91235L30.7077 9.76668C30.7077 9.76668 31.1242 9.77975 31.1242 9.62102C31.1242 9.46268 29.269 7.83538 26.9467 7.96759Z" fill="#F2F6FF"/>
<path d="M18.6099 9.76874C18.6204 9.70026 18.6185 9.62505 18.5985 9.54391C18.5022 9.15164 18.2742 8.76688 17.7289 8.9648C17.1837 9.16272 17.1051 9.47305 17.0341 9.77546C17.0341 9.77546 16.7385 9.68957 16.7135 9.82772C16.6984 9.91084 16.7506 10.0268 16.8265 10.1127C17.3872 10.2069 18.1514 9.95359 18.6099 9.76874Z" fill="#F2F6FF"/>
<path d="M16.8301 10.1131C16.8807 10.1701 16.9422 10.2136 17.0023 10.2243C17.1518 10.2505 17.4191 10.3067 17.5154 10.2615C17.6117 10.2164 18.0785 10.2754 18.228 10.233C18.3466 10.1994 18.5728 10.0328 18.6135 9.76953C18.1547 9.95399 17.3905 10.2073 16.8301 10.1131Z" fill="#F2F6FF"/>
<path d="M4.90388 12.1366C4.90388 12.1366 4.49041 12.2795 4.29745 12.925C4.10487 13.5706 4.33974 13.4178 4.42923 13.3882C4.51835 13.3585 5.80637 13.2207 6.00386 13.1958C6.20135 13.1713 6.17793 12.9939 6.23419 12.9001C6.29046 12.8063 6.82667 12.1758 6.68091 12.0131C6.53515 11.8508 5.14366 12.0182 4.90388 12.1366Z" fill="#F2F6FF"/>
<path d="M4.00512 14.7283C4.00512 14.7283 4.024 15.6989 4.10368 15.8417C4.18373 15.9846 4.38083 16.1275 4.68179 16.1671C4.98274 16.2067 5.55142 16.2558 5.59825 15.8469C5.64545 15.438 5.72513 14.6693 5.72513 14.6693C5.72513 14.6693 3.9817 14.6396 4.00512 14.7283Z" fill="#F2F6FF"/>
<path d="M13.2865 16.2793L13.2861 16.2346C13.3129 16.2342 14.0957 16.2259 15.2082 16.214C14.937 15.781 14.9635 14.8508 14.9646 14.8104C14.9638 14.7847 14.8917 12.0768 15.0666 11.3037C15.2433 10.5239 15.8414 10.1946 15.8475 10.1914C15.8648 10.1803 17.7291 8.98846 18.263 8.68367C19.5344 7.95771 20.7639 7.50526 21.7242 7.40907C23.11 7.27053 26.0852 7.32991 26.115 7.3307C26.2264 7.34178 28.8141 7.60146 29.3141 7.82233C29.8121 8.04242 31.5499 9.15511 31.5673 9.16658C31.5926 9.18004 32.2254 9.5161 32.2606 9.75439C32.267 9.79833 32.2545 9.83673 32.2232 9.8684C32.0718 10.0232 31.6292 10.0172 31.0688 10.0097C30.8306 10.0065 30.5847 10.0034 30.3382 10.0125C29.5656 10.0414 26.0459 10.1277 25.7449 10.1352C25.7446 10.191 25.7532 10.3533 25.8529 10.4958C25.8703 10.5207 25.8892 10.5461 25.9084 10.5722C26.0319 10.7388 26.1856 10.9463 26.1569 11.2554C26.1512 11.3183 26.1448 11.4403 26.1358 11.6093C26.0961 12.3618 26.0134 13.9269 25.7544 14.5626C25.4289 15.361 25.248 15.663 24.8194 15.8795C24.3855 16.0984 23.6013 16.2014 23.0511 16.1899C22.5236 16.1784 13.379 16.2781 13.2865 16.2793ZM24.6291 7.36237C23.6719 7.36237 22.4711 7.37979 21.7287 7.45381C20.7737 7.5492 19.5503 8.00006 18.2838 8.72325C17.7506 9.02765 15.8875 10.2187 15.8686 10.2306C15.8614 10.2345 15.2803 10.5552 15.1085 11.314C14.9348 12.0811 15.0069 14.7831 15.0077 14.8104C15.0073 14.8219 14.9797 15.8047 15.2599 16.2132C18.004 16.1843 22.6791 16.1368 23.0526 16.1448C23.5975 16.1562 24.3735 16.0549 24.8017 15.8388C25.2182 15.6286 25.3953 15.3313 25.7159 14.5444C25.9719 13.9162 26.0542 12.3562 26.0938 11.6065C26.1029 11.4371 26.1093 11.3148 26.115 11.251C26.1418 10.9597 26.0002 10.7685 25.8752 10.5995C25.8556 10.573 25.8367 10.5473 25.8189 10.5223C25.6868 10.3339 25.7026 10.1205 25.7034 10.1114L25.7049 10.0916L25.7242 10.0912C25.7623 10.0901 29.5339 9.99784 30.337 9.96815C30.5844 9.95905 30.8309 9.96221 31.0696 9.96538C31.5982 9.9725 32.0548 9.97844 32.1937 9.83673C32.2149 9.81535 32.2228 9.79042 32.2186 9.76153C32.1922 9.58261 31.7247 9.29998 31.5469 9.20617C31.528 9.1939 29.7929 8.08278 29.2978 7.86428C28.8039 7.64618 26.1399 7.379 26.1131 7.37623C26.0999 7.37543 25.4549 7.36237 24.6291 7.36237Z" fill="#F2F6FF"/>
<path d="M35.7859 16.0272C35.7859 17.5444 34.5561 18.7742 33.0389 18.7742C31.5218 18.7742 30.292 17.5444 30.292 16.0272C30.292 14.51 31.5218 13.2803 33.0389 13.2803C34.5561 13.2803 35.7859 14.51 35.7859 16.0272Z" fill="#173559"/>
<path d="M31.1143 16.0264C31.1143 17.0885 31.9753 17.9492 33.0373 17.9492C34.0993 17.9492 34.96 17.0885 34.96 16.0264C34.96 14.9643 34.0993 14.1035 33.0373 14.1035C31.9753 14.1035 31.1143 14.9643 31.1143 16.0264Z" fill="#F2F6FF"/>
<path d="M12.9382 16.0272C12.9382 17.5444 11.7084 18.7742 10.1913 18.7742C8.6741 18.7742 7.44434 17.5444 7.44434 16.0272C7.44434 14.51 8.6741 13.2803 10.1913 13.2803C11.7084 13.2803 12.9382 14.51 12.9382 16.0272Z" fill="#173559"/>
<path d="M8.26758 16.0264C8.26758 17.0885 9.12861 17.9492 10.1906 17.9492C11.2526 17.9492 12.1133 17.0885 12.1133 16.0264C12.1133 14.9643 11.2526 14.1035 10.1906 14.1035C9.12861 14.1035 8.26758 14.9643 8.26758 16.0264Z" fill="#F2F6FF"/>
</g>
</svg>
