<svg width="24" height="24" viewBox="0 0 24 24" fill="none" xmlns="http://www.w3.org/2000/svg">
<path d="M20 2H4C2.9 2 2 2.9 2 4V22L6 18H20C21.1 18 22 17.1 22 16V4C22 2.9 21.1 2 20 2Z" fill="#3D82C3"/>
<path d="M5.9991 12.7779C5.61986 12.7779 5.27855 12.7129 4.97517 12.5828C4.67178 12.4474 4.43341 12.2578 4.26004 12.014C4.08668 11.7702 4 11.4858 4 11.1607H4.99142C5.01309 11.4045 5.1079 11.605 5.27585 11.7621C5.44921 11.9192 5.69029 11.9977 5.9991 11.9977C6.31873 11.9977 6.56794 11.9219 6.74672 11.7702C6.92551 11.6131 7.0149 11.4126 7.0149 11.1688C7.0149 10.9792 6.95801 10.8248 6.84424 10.7056C6.73589 10.5865 6.59774 10.4944 6.4298 10.4293C6.26727 10.3643 6.03973 10.2939 5.74718 10.2181C5.37878 10.1205 5.0781 10.023 4.84515 9.92551C4.61761 9.82257 4.42257 9.66546 4.26004 9.45417C4.09752 9.24289 4.01625 8.96117 4.01625 8.60903C4.01625 8.28397 4.09752 7.99955 4.26004 7.75576C4.42257 7.51196 4.65011 7.32506 4.94266 7.19503C5.23521 7.06501 5.57381 7 5.95846 7C6.50564 7 6.95259 7.13815 7.29932 7.41445C7.65146 7.68533 7.8465 8.05914 7.88442 8.53589H6.86049C6.84424 8.33002 6.74672 8.15395 6.56794 8.00767C6.38916 7.8614 6.1535 7.78826 5.86095 7.78826C5.59548 7.78826 5.37878 7.85598 5.21083 7.99142C5.04289 8.12686 4.95892 8.3219 4.95892 8.57652C4.95892 8.74989 5.01038 8.89345 5.11332 9.00722C5.22167 9.11557 5.35711 9.20226 5.51964 9.26727C5.68217 9.33228 5.90429 9.40271 6.186 9.47855C6.55982 9.58149 6.8632 9.68442 7.09616 9.78736C7.33453 9.89029 7.53499 10.0501 7.69751 10.2668C7.86546 10.4781 7.94943 10.7625 7.94943 11.1201C7.94943 11.4072 7.87088 11.6781 7.71377 11.9327C7.56207 12.1874 7.33724 12.3932 7.03928 12.5503C6.74672 12.702 6.4 12.7779 5.9991 12.7779Z" fill="white"/>
<path d="M14.9911 7.07314V12.721H14.0647V8.85282L12.3419 12.721H11.6999L9.96897 8.85282V12.721H9.04256V7.07314H10.0421L12.025 11.502L13.9997 7.07314H14.9911Z" fill="white"/>
<path d="M18.0697 12.7779C17.6904 12.7779 17.3491 12.7129 17.0457 12.5828C16.7424 12.4474 16.504 12.2578 16.3306 12.014C16.1572 11.7702 16.0706 11.4858 16.0706 11.1607H17.062C17.0837 11.4045 17.1785 11.605 17.3464 11.7621C17.5198 11.9192 17.7609 11.9977 18.0697 11.9977C18.3893 11.9977 18.6385 11.9219 18.8173 11.7702C18.9961 11.6131 19.0855 11.4126 19.0855 11.1688C19.0855 10.9792 19.0286 10.8248 18.9148 10.7056C18.8065 10.5865 18.6683 10.4944 18.5004 10.4293C18.3378 10.3643 18.1103 10.2939 17.8177 10.2181C17.4493 10.1205 17.1487 10.023 16.9157 9.92551C16.6882 9.82257 16.4931 9.66546 16.3306 9.45417C16.1681 9.24289 16.0868 8.96117 16.0868 8.60903C16.0868 8.28397 16.1681 7.99955 16.3306 7.75576C16.4931 7.51196 16.7207 7.32506 17.0132 7.19503C17.3058 7.06501 17.6444 7 18.029 7C18.5762 7 19.0232 7.13815 19.3699 7.41445C19.722 7.68533 19.9171 8.05914 19.955 8.53589H18.9311C18.9148 8.33002 18.8173 8.15395 18.6385 8.00767C18.4597 7.8614 18.2241 7.78826 17.9315 7.78826C17.6661 7.78826 17.4493 7.85598 17.2814 7.99142C17.1135 8.12686 17.0295 8.3219 17.0295 8.57652C17.0295 8.74989 17.081 8.89345 17.1839 9.00722C17.2922 9.11557 17.4277 9.20226 17.5902 9.26727C17.7527 9.33228 17.9749 9.40271 18.2566 9.47855C18.6304 9.58149 18.9338 9.68442 19.1667 9.78736C19.4051 9.89029 19.6056 10.0501 19.7681 10.2668C19.936 10.4781 20.02 10.7625 20.02 11.1201C20.02 11.4072 19.9414 11.6781 19.7843 11.9327C19.6326 12.1874 19.4078 12.3932 19.1098 12.5503C18.8173 12.702 18.4706 12.7779 18.0697 12.7779Z" fill="white"/>
</svg>
