<svg width="80" height="80" viewBox="0 0 80 80" fill="none" xmlns="http://www.w3.org/2000/svg">
<path d="M64.2694 22.062H11.5234C9.86658 22.062 8.52344 23.4052 8.52344 25.062V65.79C8.52344 67.4469 9.86658 68.79 11.5234 68.79H64.2694C65.9263 68.79 67.2694 67.4469 67.2694 65.79V25.062C67.2694 23.4052 65.9263 22.062 64.2694 22.062Z" fill="#FDCF33"/>
<path d="M64.2694 70.8H11.5234C10.1974 70.8 8.92559 70.2732 7.9879 69.3355C7.05022 68.3979 6.52344 67.1261 6.52344 65.8V25.062C6.52344 23.7359 7.05022 22.4642 7.9879 21.5265C8.92559 20.5888 10.1974 20.062 11.5234 20.062H64.2694C65.5955 20.062 66.8673 20.5888 67.805 21.5265C68.7427 22.4642 69.2694 23.7359 69.2694 25.062V65.8C69.2694 67.1261 68.7427 68.3979 67.805 69.3355C66.8673 70.2732 65.5955 70.8 64.2694 70.8ZM11.5234 24.062C11.2582 24.062 11.0039 24.1674 10.8163 24.3549C10.6288 24.5424 10.5234 24.7968 10.5234 25.062V65.8C10.5234 66.0652 10.6288 66.3196 10.8163 66.5071C11.0039 66.6947 11.2582 66.8 11.5234 66.8H64.2694C64.5346 66.8 64.789 66.6947 64.9765 66.5071C65.1641 66.3196 65.2694 66.0652 65.2694 65.8V25.062C65.2694 24.7968 65.1641 24.5424 64.9765 24.3549C64.789 24.1674 64.5346 24.062 64.2694 24.062H11.5234Z" fill="#173559"/>
<path d="M51.857 22.0619V14.1299C51.8568 13.6713 51.7485 13.2192 51.5408 12.8102C51.3332 12.4013 51.0321 12.0471 50.6619 11.7763C50.2918 11.5055 49.8631 11.3258 49.4105 11.2517C48.9579 11.1776 48.4942 11.2112 48.057 11.3499L11.457 22.0619H51.857Z" fill="#ECF3F9"/>
<path d="M51.8574 24.062H11.4434C10.9618 24.0624 10.4962 23.8891 10.1321 23.5738C9.76808 23.2586 9.53 22.8225 9.46165 22.3458C9.39331 21.8691 9.49928 21.3837 9.7601 20.9788C10.0209 20.5739 10.4191 20.2768 10.8814 20.1419L47.4814 9.42995C48.2171 9.20305 48.9958 9.15197 49.7548 9.28082C50.5139 9.40967 51.2321 9.71486 51.8517 10.1718C52.4713 10.6288 52.975 11.2248 53.3223 11.9119C53.6697 12.599 53.8509 13.3581 53.8514 14.1279V22.062C53.8514 22.5913 53.6415 23.0991 53.2678 23.474C52.894 23.8489 52.3868 24.0604 51.8574 24.062ZM25.3974 20.0619H49.8574V14.1279C49.8591 13.9834 49.8257 13.8406 49.7603 13.7118C49.6948 13.5829 49.5991 13.4718 49.4814 13.3879C49.3647 13.3022 49.2294 13.2454 49.0865 13.2221C48.9436 13.1988 48.7973 13.2097 48.6594 13.2539L25.3974 20.0619Z" fill="#173559"/>
<path d="M67.9337 36.8262H38.0537C36.0975 36.8262 34.5117 38.412 34.5117 40.3682V50.4862C34.5117 52.4424 36.0975 54.0282 38.0537 54.0282H67.9337C69.8899 54.0282 71.4757 52.4424 71.4757 50.4862V40.3682C71.4757 38.412 69.8899 36.8262 67.9337 36.8262Z" fill="#ECF3F9"/>
<path d="M67.9324 56.3879H38.0524C36.4872 56.3858 34.9868 55.7631 33.88 54.6563C32.7733 53.5496 32.1506 52.0491 32.1484 50.4839V40.3679C32.1506 38.8025 32.7732 37.3019 33.8799 36.1948C34.9866 35.0877 36.4871 34.4646 38.0524 34.4619H67.9324C69.4976 34.4646 70.9979 35.0878 72.1043 36.1949C73.2107 37.302 73.8328 38.8027 73.8344 40.3679V50.4839C73.8328 52.0489 73.2106 53.5494 72.1041 54.6562C70.9977 55.763 69.4974 56.3858 67.9324 56.3879ZM38.0524 39.1879C37.8973 39.1879 37.7437 39.2185 37.6004 39.2779C37.4571 39.3373 37.3269 39.4244 37.2173 39.5342C37.1077 39.644 37.0209 39.7743 36.9617 39.9177C36.9025 40.0611 36.8722 40.2148 36.8724 40.3699V50.4859C36.8724 50.7991 36.9967 51.0994 37.2179 51.321C37.4392 51.5426 37.7393 51.6674 38.0524 51.6679H67.9324C68.2456 51.6674 68.5457 51.5426 68.7669 51.321C68.9882 51.0994 69.1124 50.7991 69.1124 50.4859V40.3679C69.1124 40.0548 68.9882 39.7544 68.7669 39.5328C68.5457 39.3112 68.2456 39.1864 67.9324 39.1859L38.0524 39.1879Z" fill="#173559"/>
<path d="M43.5748 49.5359C45.8447 49.5359 47.6848 47.6958 47.6848 45.4259C47.6848 43.156 45.8447 41.3159 43.5748 41.3159C41.305 41.3159 39.4648 43.156 39.4648 45.4259C39.4648 47.6958 41.305 49.5359 43.5748 49.5359Z" fill="#173559"/>
</svg>
