<svg width="24" height="22" viewBox="0 0 24 22" fill="none" xmlns="http://www.w3.org/2000/svg">
<path d="M4 19.3044V20.6377C4 21.0155 3.87244 21.3319 3.61733 21.587C3.36133 21.843 3.04444 21.971 2.66667 21.971H1.33333C0.955556 21.971 0.639111 21.843 0.384 21.587C0.128 21.3319 0 21.0155 0 20.6377V9.97103L2.8 1.97103C2.93333 1.57103 3.17244 1.24881 3.51733 1.00436C3.86133 0.759917 4.24444 0.637695 4.66667 0.637695H19.3333C19.7556 0.637695 20.1391 0.759917 20.484 1.00436C20.828 1.24881 21.0667 1.57103 21.2 1.97103L24 9.97103V20.6377C24 21.0155 23.872 21.3319 23.616 21.587C23.3609 21.843 23.0444 21.971 22.6667 21.971H21.3333C20.9556 21.971 20.6391 21.843 20.384 21.587C20.128 21.3319 20 21.0155 20 20.6377V19.3044H4ZM3.73333 7.30436H20.2667L18.8667 3.30436H5.13333L3.73333 7.30436ZM6 15.3044C6.55556 15.3044 7.02756 15.1097 7.416 14.7204C7.80533 14.3319 8 13.8599 8 13.3044C8 12.7488 7.80533 12.2768 7.416 11.8884C7.02756 11.499 6.55556 11.3044 6 11.3044C5.44444 11.3044 4.97245 11.499 4.584 11.8884C4.19467 12.2768 4 12.7488 4 13.3044C4 13.8599 4.19467 14.3319 4.584 14.7204C4.97245 15.1097 5.44444 15.3044 6 15.3044ZM18 15.3044C18.5556 15.3044 19.0276 15.1097 19.416 14.7204C19.8053 14.3319 20 13.8599 20 13.3044C20 12.7488 19.8053 12.2768 19.416 11.8884C19.0276 11.499 18.5556 11.3044 18 11.3044C17.4444 11.3044 16.9724 11.499 16.584 11.8884C16.1947 12.2768 16 12.7488 16 13.3044C16 13.8599 16.1947 14.3319 16.584 14.7204C16.9724 15.1097 17.4444 15.3044 18 15.3044Z" fill="#2E2E2E"/>
</svg>
