<svg width="24" height="24" viewBox="0 0 24 24" fill="none" xmlns="http://www.w3.org/2000/svg">
<path d="M19.332 6V4.66667C19.332 4.29848 19.0336 4 18.6654 4H14.6654C14.2972 4 13.9987 4.29848 13.9987 4.66667V6C13.9987 6.36819 14.2972 6.66666 14.6654 6.66666H18.6654C19.0336 6.66666 19.332 6.36819 19.332 6Z" fill="white"/>
<path d="M19.332 19.334V18.0007C19.332 17.6325 19.0336 17.334 18.6654 17.334H14.6654C14.2972 17.334 13.9987 17.6325 13.9987 18.0007V19.334C13.9987 19.7022 14.2972 20.0006 14.6654 20.0006H18.6654C19.0336 20.0006 19.332 19.7022 19.332 19.334Z" fill="white"/>
<path d="M10 6V4.66667C10 4.29848 9.70152 4 9.33333 4H5.33333C4.96514 4 4.66667 4.29848 4.66667 4.66667V6C4.66667 6.36819 4.96514 6.66666 5.33333 6.66666H9.33333C9.70152 6.66666 10 6.36819 10 6Z" fill="white"/>
<path d="M10 19.334V18.0007C10 17.6325 9.70152 17.334 9.33333 17.334H5.33333C4.96514 17.334 4.66667 17.6325 4.66667 18.0007V19.334C4.66667 19.7022 4.96514 20.0006 5.33333 20.0006H9.33333C9.70152 20.0006 10 19.7022 10 19.334Z" fill="white"/>
<path d="M21.332 5.33398H19.9987V6.00065C19.9987 6.35427 19.8582 6.69341 19.6082 6.94346C19.3581 7.19351 19.019 7.33398 18.6654 7.33398H14.6654C14.3117 7.33398 13.9726 7.19351 13.7226 6.94346C13.4725 6.69341 13.332 6.35427 13.332 6.00065V5.33398H10.6654V6.00065C10.6654 6.35427 10.5249 6.69341 10.2748 6.94346C10.0248 7.19351 9.68565 7.33398 9.33203 7.33398H5.33203C4.97841 7.33398 4.63927 7.19351 4.38922 6.94346C4.13917 6.69341 3.9987 6.35427 3.9987 6.00065V5.33398H2.66536C2.31174 5.33398 1.9726 5.47446 1.72256 5.72451C1.47251 5.97456 1.33203 6.3137 1.33203 6.66732V17.334C1.33203 17.6876 1.47251 18.0267 1.72256 18.2768C1.9726 18.5268 2.31174 18.6673 2.66536 18.6673H3.9987V18.0007C3.9987 17.647 4.13917 17.3079 4.38922 17.0578C4.63927 16.8078 4.97841 16.6673 5.33203 16.6673H9.33203C9.68565 16.6673 10.0248 16.8078 10.2748 17.0578C10.5249 17.3079 10.6654 17.647 10.6654 18.0007V18.6673H13.332V18.0007C13.332 17.647 13.4725 17.3079 13.7226 17.0578C13.9726 16.8078 14.3117 16.6673 14.6654 16.6673H18.6654C19.019 16.6673 19.3581 16.8078 19.6082 17.0578C19.8582 17.3079 19.9987 17.647 19.9987 18.0007V18.6673H21.332C21.6857 18.6673 22.0248 18.5268 22.2748 18.2768C22.5249 18.0267 22.6654 17.6876 22.6654 17.334V6.66732C22.6654 6.3137 22.5249 5.97456 22.2748 5.72451C22.0248 5.47446 21.6857 5.33398 21.332 5.33398ZM16.9617 15.0747H16.295V12.3216H13.9987V13.0007H9.9987V12.3216H7.7024V15.0747H7.03573V8.92658H7.7024V11.6549H9.9987V11.0007H13.9987V11.6549H16.295V8.92658H16.9617V15.0747Z" fill="white"/>
</svg>
