<svg width="32" height="32" viewBox="0 0 32 32" fill="none" xmlns="http://www.w3.org/2000/svg">
<path fill-rule="evenodd" clip-rule="evenodd" d="M12.8876 6.2628H18.7221C18.8534 6.2628 18.9831 6.23365 19.1018 6.17746C19.2205 6.12128 19.3253 6.03946 19.4086 5.9379C19.4918 5.83634 19.5515 5.71757 19.5833 5.59016C19.6151 5.46274 19.6183 5.32985 19.5925 5.20108L19.0587 2.53194C19.0185 2.33072 18.9097 2.14966 18.751 2.01957C18.5924 1.88947 18.3935 1.81837 18.1883 1.81836H13.4215C13.2163 1.81837 13.0174 1.88947 12.8587 2.01957C12.7 2.14966 12.5913 2.33072 12.5511 2.53194L12.0172 5.20108C11.9915 5.32985 11.9946 5.46274 12.0264 5.59016C12.0583 5.71757 12.1179 5.83634 12.2012 5.9379C12.2845 6.03946 12.3892 6.12128 12.5079 6.17746C12.6266 6.23365 12.7563 6.2628 12.8876 6.2628ZM11 7.81836H21V7.81948C21 7.81948 23.2318 7.70143 23.2318 9.88528C23.2318 10.5831 23.1081 11.2629 22.9793 11.9708C22.705 13.4784 22.4074 15.1136 23.2318 17.3223C24.4434 20.5682 24.5709 24.8184 21 24.8184H11C7.42908 24.8184 7.55658 20.5682 8.76816 17.3223C9.59261 15.1136 9.29504 13.4784 9.02069 11.9708C8.89187 11.2629 8.76816 10.5831 8.76816 9.88528C8.76816 7.70143 11 7.81948 11 7.81948V7.81836ZM21 26H11V31H21V26ZM8 31C7.73478 31 7.48043 30.8946 7.29289 30.7071C7.10536 30.5196 7 30.2652 7 30V27C7 26.7348 7.10536 26.4804 7.29289 26.2929C7.48043 26.1054 7.73478 26 8 26H10V31H8ZM24.7071 26.2929C24.5196 26.1054 24.2652 26 24 26H22V31H24C24.2652 31 24.5196 30.8946 24.7071 30.7071C24.8946 30.5196 25 30.2652 25 30V27C25 26.7348 24.8946 26.4804 24.7071 26.2929Z" fill="#2E2E2E"/>
</svg>
