<svg width="20" height="20" viewBox="0 0 20 20" fill="none" xmlns="http://www.w3.org/2000/svg">
<path d="M20 10C20 15.5228 15.5228 20 10 20C7.98766 20 6.11414 19.4056 4.54545 18.3828C3.63636 18.7062 0.454545 19.5455 0.454545 19.5455C0.454545 19.5455 1.71714 16.3636 1.93178 15.9091C0.717274 14.2536 0 12.2106 0 10C0 4.47715 4.47715 0 10 0C15.5228 0 20 4.47715 20 10Z" fill="#25D366"/>
<path d="M12.3856 14.3616C11.9541 14.3616 11.4701 14.28 10.9628 14.1226C9.74419 13.7435 8.54303 12.9505 7.58093 11.8893C6.14069 10.2975 5.45265 8.71147 5.58676 7.3004C5.62757 6.95054 5.73836 6.50739 6.26314 6.15171C6.66547 5.82518 7.12612 5.63859 7.48763 5.64442C7.86664 5.65025 7.99492 5.78436 8.38559 6.34996C8.98617 7.17795 9.02699 7.58611 9.00367 7.81935C8.96285 8.20419 8.75294 8.37328 8.56052 8.52489C8.51387 8.55987 8.46722 8.60069 8.42641 8.63567C8.19317 8.93305 7.90746 9.34704 9.13195 10.6123C10.1757 11.6153 10.7413 11.7377 10.9803 11.7202C11.1669 11.7086 11.2369 11.6094 11.2661 11.5744L11.2719 11.5686C11.6626 11.0205 11.7908 10.8864 12.164 10.8281C12.5255 10.7698 12.7121 10.8864 13.4818 11.3704C14.1757 11.8077 14.4964 12.0992 14.4264 12.5599C14.4031 13.0613 14.0182 13.7435 13.5868 14.0526C13.2894 14.2567 12.8754 14.3616 12.3856 14.3616Z" fill="white"/>
</svg>
