<svg width="24" height="24" viewBox="0 0 24 24" fill="none" xmlns="http://www.w3.org/2000/svg">
<path d="M19.3333 6V4.66667C19.3333 4.29848 19.0348 4 18.6667 4H14.6667C14.2985 4 14 4.29848 14 4.66667V6C14 6.36819 14.2985 6.66666 14.6667 6.66666H18.6667C19.0348 6.66666 19.3333 6.36819 19.3333 6Z" fill="#173559"/>
<path d="M19.3333 19.3333V18C19.3333 17.6318 19.0348 17.3333 18.6667 17.3333H14.6667C14.2985 17.3333 14 17.6318 14 18V19.3333C14 19.7015 14.2985 20 14.6667 20H18.6667C19.0348 20 19.3333 19.7015 19.3333 19.3333Z" fill="#173559"/>
<path d="M10 6V4.66667C10 4.29848 9.70153 4 9.33334 4H5.33334C4.96515 4 4.66667 4.29848 4.66667 4.66667V6C4.66667 6.36819 4.96515 6.66666 5.33334 6.66666H9.33334C9.70153 6.66666 10 6.36819 10 6Z" fill="#173559"/>
<path d="M10 19.3333V18C10 17.6318 9.70153 17.3333 9.33334 17.3333H5.33334C4.96515 17.3333 4.66667 17.6318 4.66667 18V19.3333C4.66667 19.7015 4.96515 20 5.33334 20H9.33334C9.70153 20 10 19.7015 10 19.3333Z" fill="#173559"/>
<path d="M21.3333 5.33334H20V6.00001C20 6.35363 19.8595 6.69277 19.6095 6.94282C19.3594 7.19287 19.0203 7.33334 18.6667 7.33334H14.6667C14.313 7.33334 13.9739 7.19287 13.7238 6.94282C13.4738 6.69277 13.3333 6.35363 13.3333 6.00001V5.33334H10.6667V6.00001C10.6667 6.35363 10.5262 6.69277 10.2761 6.94282C10.0261 7.19287 9.68694 7.33334 9.33332 7.33334H5.33332C4.9797 7.33334 4.64056 7.19287 4.39051 6.94282C4.14046 6.69277 3.99999 6.35363 3.99999 6.00001V5.33334H2.66665C2.31303 5.33334 1.97389 5.47382 1.72384 5.72387C1.4738 5.97392 1.33332 6.31305 1.33332 6.66668V17.3333C1.33332 17.687 1.4738 18.0261 1.72384 18.2762C1.97389 18.5262 2.31303 18.6667 2.66665 18.6667H3.99999V18C3.99999 17.6464 4.14046 17.3073 4.39051 17.0572C4.64056 16.8072 4.9797 16.6667 5.33332 16.6667H9.33332C9.68694 16.6667 10.0261 16.8072 10.2761 17.0572C10.5262 17.3073 10.6667 17.6464 10.6667 18V18.6667H13.3333V18C13.3333 17.6464 13.4738 17.3073 13.7238 17.0572C13.9739 16.8072 14.313 16.6667 14.6667 16.6667H18.6667C19.0203 16.6667 19.3594 16.8072 19.6095 17.0572C19.8595 17.3073 20 17.6464 20 18V18.6667H21.3333C21.6869 18.6667 22.0261 18.5262 22.2761 18.2762C22.5262 18.0261 22.6667 17.687 22.6667 17.3333V6.66668C22.6667 6.31305 22.5262 5.97392 22.2761 5.72387C22.0261 5.47382 21.6869 5.33334 21.3333 5.33334ZM16.963 15.0741H16.2963V12.321H14V13H9.99999V12.321H7.70369V15.0741H7.03702V8.92594H7.70369V11.6543H9.99999V11H14V11.6543H16.2963V8.92594H16.963V15.0741Z" fill="#173559"/>
</svg>
