<svg width="32" height="32" viewBox="0 0 32 32" fill="none" xmlns="http://www.w3.org/2000/svg">
<path d="M28.3474 14.7003L25.2179 17.4483V13.219L30.4945 8.58566C30.6396 8.46266 30.7553 8.31554 30.8348 8.15286C30.9144 7.99019 30.9563 7.81523 30.9581 7.63819C30.9598 7.46115 30.9214 7.28558 30.845 7.12172C30.7687 6.95786 30.6559 6.80899 30.5134 6.6838C30.3708 6.55861 30.2013 6.4596 30.0146 6.39256C29.828 6.32552 29.6281 6.29179 29.4265 6.29332C29.2248 6.29486 29.0256 6.33164 28.8403 6.40152C28.6551 6.4714 28.4875 6.57298 28.3474 6.70033L25.2179 9.44833V5.33366C25.2789 4.68643 25.0476 4.04409 24.5741 3.54521C24.1005 3.04634 23.4226 2.73092 22.6866 2.66699H12.5645C11.8285 2.73092 11.1506 3.04634 10.677 3.54521C10.2035 4.04409 9.97223 4.68643 10.0332 5.33366V9.44833L6.90365 6.70033C6.61726 6.45745 6.2337 6.32306 5.83556 6.32609C5.43742 6.32913 5.05657 6.46936 4.77504 6.71657C4.4935 6.96378 4.3338 7.29819 4.33034 7.64779C4.32688 7.99739 4.47994 8.33419 4.75654 8.58566L10.0332 13.219V17.4483L6.90365 14.7003C6.76358 14.573 6.59602 14.4714 6.41076 14.4015C6.2255 14.3316 6.02625 14.2949 5.82463 14.2933C5.62301 14.2918 5.42306 14.3255 5.23644 14.3926C5.04983 14.4596 4.88029 14.5586 4.73772 14.6838C4.59514 14.809 4.48239 14.9579 4.40604 15.1217C4.32969 15.2856 4.29127 15.4612 4.29303 15.6382C4.29478 15.8152 4.33667 15.9902 4.41625 16.1529C4.49583 16.3155 4.61151 16.4627 4.75654 16.5857L10.0332 21.219V21.3337C10.0575 21.3337 10.0772 21.323 10.1015 21.3217C10.1243 21.6163 10.1243 21.9123 10.1714 22.2043L10.9458 27.1057C10.9869 27.6787 11.262 28.2194 11.7205 28.6287C12.1791 29.038 12.7904 29.2883 13.4422 29.3337H21.8089C22.461 29.2886 23.0726 29.0384 23.5315 28.6291C23.9904 28.2198 24.2657 27.6789 24.3068 27.1057L25.0812 22.2043C25.1283 21.9123 25.1283 21.6163 25.1511 21.3217C25.1754 21.3217 25.1951 21.3337 25.2194 21.3337V21.219L30.4961 16.5857C30.6411 16.4627 30.7568 16.3155 30.8364 16.1529C30.9159 15.9902 30.9578 15.8152 30.9596 15.6382C30.9613 15.4612 30.9229 15.2856 30.8466 15.1217C30.7702 14.9579 30.6575 14.809 30.5149 14.6838C30.3723 14.5586 30.2028 14.4596 30.0162 14.3926C29.8295 14.3255 29.6296 14.2918 29.428 14.2933C29.2264 14.2949 29.0271 14.3316 28.8418 14.4015C28.6566 14.4714 28.489 14.573 28.349 14.7003H28.3474ZM21.7543 21.3337H13.4968C13.266 21.3337 13.0382 21.2874 12.8308 21.1985C12.6234 21.1096 12.4418 20.9804 12.2998 20.8206C12.1578 20.6608 12.0591 20.4747 12.0113 20.2764C11.9635 20.0782 11.9678 19.8729 12.0239 19.6763L12.7832 17.0097C12.8654 16.7213 13.055 16.4654 13.3219 16.2825C13.5888 16.0997 13.9176 16.0003 14.2561 16.0003H20.995C21.3335 16.0003 21.6623 16.0997 21.9292 16.2825C22.1961 16.4654 22.3857 16.7213 22.4679 17.0097L23.2272 19.6763C23.2833 19.8729 23.2876 20.0782 23.2398 20.2764C23.192 20.4747 23.0933 20.6608 22.9513 20.8206C22.8093 20.9804 22.6277 21.1096 22.4203 21.1985C22.2128 21.2874 21.9851 21.3337 21.7543 21.3337Z" fill="#2E2E2E"/>
</svg>
