<svg width="60" height="60" viewBox="0 0 60 60" fill="none" xmlns="http://www.w3.org/2000/svg">
<circle cx="30" cy="30" r="30" fill="#173559"/>
<path d="M42.6897 16H22.8277C20.9994 16 19.5173 17.5043 19.5173 19.36H37.1725C40.2146 19.36 42.6897 21.8723 42.6897 24.96V33.92C44.518 33.92 46.0001 32.4157 46.0001 30.56V19.36C46.0001 17.5043 44.518 16 42.6897 16Z" fill="white"/>
<path d="M17.3745 39.5201H18.4749V42.8801C18.4749 43.2935 18.6984 43.673 19.0563 43.8678C19.4092 44.0604 19.8445 44.0434 20.1857 43.812L26.5108 39.5201H37.1816C39.0019 39.5201 40.4827 38.0129 40.4827 36.1601V24.9601C40.4827 23.1073 39.0019 21.6001 37.1816 21.6001H17.3745C15.5542 21.6001 14 23.1073 14 24.9601V36.1601C14 38.0129 15.5542 39.5201 17.3745 39.5201ZM20.6757 27.2001H33.8804C34.4886 27.2001 34.9808 27.701 34.9808 28.3201C34.9808 28.9391 34.4886 29.4401 33.8804 29.4401H20.6757C20.0675 29.4401 19.5753 28.9391 19.5753 28.3201C19.5753 27.701 20.0675 27.2001 20.6757 27.2001ZM20.6757 31.6801H33.8804C34.4886 31.6801 34.9808 32.181 34.9808 32.8001C34.9808 33.4191 34.4886 33.9201 33.8804 33.9201H20.6757C20.0675 33.9201 19.5753 33.4191 19.5753 32.8001C19.5753 32.181 20.0675 31.6801 20.6757 31.6801Z" fill="#FDCF33"/>
</svg>
