<svg width="30" height="30" viewBox="0 0 30 30" fill="none" xmlns="http://www.w3.org/2000/svg">
<path d="M23.4375 3H6.5625C6 3 5.5625 3.4375 5.5625 4V26.625C5.5625 27.1875 6 27.625 6.5625 27.625H23.375C23.9375 27.625 24.375 27.1875 24.375 26.625V4.0625C24.4375 3.5 24 3 23.4375 3ZM14 19.75L10.625 23.125C10.5 23.25 10.375 23.3125 10.25 23.3125C10.125 23.3125 9.9375 23.25 9.875 23.125L8 21.25C7.875 21.125 7.8125 21 7.8125 20.875C7.8125 20.75 7.875 20.5625 8 20.5C8.125 20.4375 8.25 20.3125 8.375 20.3125C8.5 20.3125 8.6875 20.375 8.75 20.5L10.25 22L13.25 19C13.375 18.875 13.5 18.8125 13.625 18.8125C13.75 18.8125 13.9375 18.875 14 19C14.0625 19.125 14.1875 19.25 14.1875 19.375C14.1875 19.5 14.125 19.625 14 19.75ZM14 13.25L10.625 16.625C10.5 16.75 10.375 16.8125 10.25 16.8125C10.125 16.8125 9.9375 16.75 9.875 16.625L8 14.75C7.875 14.625 7.8125 14.5 7.8125 14.375C7.8125 14.25 7.875 14.0625 8 14C8.125 13.9375 8.25 13.8125 8.375 13.8125C8.5 13.8125 8.6875 13.875 8.75 14L10.25 15.5L13.25 12.5C13.375 12.375 13.5 12.3125 13.625 12.3125C13.75 12.3125 13.9375 12.375 14 12.5C14.0625 12.625 14.1875 12.75 14.1875 12.875C14.1875 13 14.125 13.125 14 13.25ZM14 7.25L10.625 10.625C10.5 10.75 10.375 10.8125 10.25 10.8125C10.125 10.8125 9.9375 10.75 9.875 10.625L8 8.75C7.875 8.625 7.8125 8.5 7.8125 8.375C7.8125 8.25 7.875 8.0625 8 8C8.125 7.9375 8.25 7.8125 8.375 7.8125C8.5 7.8125 8.6875 7.875 8.75 8L10.25 9.5L13.25 6.5C13.375 6.375 13.5 6.3125 13.625 6.3125C13.75 6.3125 13.9375 6.375 14 6.5C14.0625 6.625 14.1875 6.75 14.1875 6.875C14.1875 7 14.125 7.125 14 7.25ZM22.4375 21.875C22.3125 22 22.1875 22.0625 22.0625 22.0625H16.4375C16.25 22.0625 16.125 22 16.0625 21.875C16 21.75 15.875 21.625 15.875 21.5C15.875 21.3125 15.9375 21.1875 16.0625 21.125C16.1875 21.0625 16.3125 20.9375 16.4375 20.9375H22.0625C22.25 20.9375 22.375 21 22.4375 21.125C22.5625 21.25 22.625 21.375 22.625 21.5C22.625 21.6875 22.5625 21.8125 22.4375 21.875ZM22.4375 15.4375C22.3125 15.5625 22.1875 15.625 22.0625 15.625H16.4375C16.25 15.625 16.125 15.5625 16.0625 15.4375C16 15.3125 15.875 15.1875 15.875 15.0625C15.875 14.875 15.9375 14.75 16.0625 14.6875C16.1875 14.625 16.3125 14.5 16.4375 14.5H22.0625C22.25 14.5 22.375 14.5625 22.4375 14.6875C22.5625 14.8125 22.625 14.9375 22.625 15.0625C22.625 15.1875 22.5625 15.3125 22.4375 15.4375ZM22.4375 9.375C22.3125 9.5 22.1875 9.5625 22.0625 9.5625H16.4375C16.25 9.5625 16.125 9.5 16.0625 9.375C16 9.25 15.875 9.125 15.875 9C15.875 8.8125 15.9375 8.6875 16.0625 8.625C16.1875 8.5625 16.3125 8.4375 16.4375 8.4375H22.0625C22.25 8.4375 22.375 8.5 22.4375 8.625C22.5625 8.75 22.625 8.875 22.625 9C22.625 9.1875 22.5625 9.3125 22.4375 9.375Z" fill="#FDCF33"/>
</svg>
