<svg width="32" height="32" viewBox="0 0 32 32" fill="none" xmlns="http://www.w3.org/2000/svg">
<g clip-path="url(#clip0_9099_14442)">
<g clip-path="url(#clip1_9099_14442)">
<path d="M19.3992 14.0668H18.3326C17.7326 14.0668 17.1992 13.5335 17.1992 12.9335V9.4668H17.8659V12.9335C17.8659 13.2001 18.0659 13.4001 18.3326 13.4001H19.3992V14.0668Z" fill="white"/>
<path d="M16.866 22.5337H16.1993V13.5337C16.1993 13.2671 15.9993 13.0671 15.7327 13.0671H14.666V12.4004H15.7327C16.3327 12.4004 16.866 12.9337 16.866 13.5337V22.5337Z" fill="white"/>
<path d="M15.9327 22.5328H15.266V15.2661C15.266 14.9995 15.066 14.7995 14.7993 14.7995H9.66602V14.1328H14.7993C15.3993 14.1328 15.9327 14.6661 15.9327 15.2661V22.5328Z" fill="white"/>
<path d="M20.2664 14.9332C19.5997 14.9332 19.0664 14.3999 19.0664 13.7332C19.0664 13.0665 19.5997 12.5332 20.2664 12.5332C20.9331 12.5332 21.4664 13.0665 21.4664 13.7332C21.4664 14.3999 20.9331 14.9332 20.2664 14.9332ZM20.2664 13.1999C19.9997 13.1999 19.7331 13.4665 19.7331 13.7332C19.7331 13.9999 19.9997 14.2665 20.2664 14.2665C20.5331 14.2665 20.7997 13.9999 20.7997 13.7332C20.7997 13.4665 20.5331 13.1999 20.2664 13.1999Z" fill="white"/>
<path d="M13.866 13.9332C13.1993 13.9332 12.666 13.3999 12.666 12.7332C12.666 12.0665 13.1993 11.5332 13.866 11.5332C14.5327 11.5332 15.066 12.0665 15.066 12.7332C15.066 13.3999 14.5327 13.9332 13.866 13.9332ZM13.866 12.2665C13.5993 12.2665 13.3327 12.5332 13.3327 12.7999C13.3327 13.0665 13.5993 13.3332 13.866 13.3332C14.1327 13.3332 14.3993 13.0665 14.3993 12.7999C14.3993 12.5332 14.1327 12.2665 13.866 12.2665Z" fill="white"/>
<path d="M14.866 22.4007H14.1993V17.4673C14.1993 17.2007 13.9993 17.0007 13.7327 17.0007H12.666V16.334H13.7327C14.3327 16.334 14.866 16.8673 14.866 17.4673V22.4007Z" fill="white"/>
<path d="M11.866 17.8004C11.1993 17.8004 10.666 17.2671 10.666 16.6004C10.666 15.9337 11.1993 15.4004 11.866 15.4004C12.5327 15.4004 13.066 15.9337 13.066 16.6004C13.066 17.2671 12.5327 17.8004 11.866 17.8004ZM11.866 16.1337C11.5993 16.1337 11.3327 16.4004 11.3327 16.6671C11.3327 16.9337 11.5993 17.2004 11.866 17.2004C12.1327 17.2004 12.3993 16.9337 12.3993 16.6671C12.3993 16.4004 12.1327 16.1337 11.866 16.1337Z" fill="white"/>
<path d="M18.2663 22.4008H17.5996V17.9341C17.5996 17.3341 18.1329 16.8008 18.7329 16.8008H19.7996V17.4674H18.6663C18.3996 17.4674 18.1996 17.6674 18.1996 17.9341V22.4008H18.2663Z" fill="white"/>
<path d="M20.6004 18.3336C19.9337 18.3336 19.4004 17.8003 19.4004 17.1336C19.4004 16.4669 19.9337 15.9336 20.6004 15.9336C21.2671 15.9336 21.8004 16.4669 21.8004 17.1336C21.8004 17.8003 21.2671 18.3336 20.6004 18.3336ZM20.6004 16.6003C20.3337 16.6003 20.0671 16.8669 20.0671 17.1336C20.0671 17.4003 20.3337 17.6669 20.6004 17.6669C20.8671 17.6669 21.1337 17.4003 21.1337 17.1336C21.1337 16.8669 20.8671 16.6003 20.6004 16.6003Z" fill="white"/>
<path d="M18.2008 29.3327H13.8008C13.5341 29.3327 13.3341 29.266 13.1341 29.1327C12.9341 28.9993 12.8008 28.7993 12.8008 28.5327L12.2674 25.1993C11.8674 25.066 11.4008 24.866 10.9341 24.5327C10.4674 24.266 10.0674 23.9993 9.66743 23.7327L6.60076 25.1993C6.3341 25.3327 6.1341 25.3327 5.86743 25.266C5.60076 25.1993 5.40076 24.9993 5.3341 24.7993L3.1341 20.866C3.00076 20.666 3.00076 20.3993 3.00076 20.1993C3.06743 19.9327 3.20076 19.7327 3.40076 19.5993L6.26743 17.5327C6.20076 17.3327 6.20076 17.1327 6.20076 16.866C6.20076 16.5993 6.20076 16.3993 6.20076 16.1993C6.20076 15.9993 6.20076 15.7993 6.20076 15.5327C6.20076 15.266 6.26743 15.066 6.26743 14.866L3.40076 12.7327C3.20076 12.5993 3.06743 12.3993 3.00076 12.1327C2.9341 11.866 3.00076 11.666 3.1341 11.466L5.26743 7.33268C5.40076 7.06602 5.60076 6.93268 5.86743 6.86602C6.1341 6.79935 6.3341 6.79935 6.60076 6.93268L9.7341 8.39935C10.0674 8.13268 10.5341 7.86601 11.0008 7.59935C11.4674 7.33268 11.9341 7.13268 12.3341 6.99935L12.8674 3.59935C12.9341 3.33268 13.0008 3.13268 13.2008 2.99935C13.3341 2.73268 13.5341 2.66602 13.8008 2.66602H18.2008C18.4674 2.66602 18.6674 2.73268 18.8674 2.86602C19.0674 2.99935 19.2008 3.19935 19.2008 3.46602L19.7341 6.86602C20.1341 6.99935 20.6008 7.19935 21.0674 7.46602C21.5341 7.73268 21.9341 7.99935 22.2674 8.33268L25.4008 6.93268C25.6674 6.79935 25.8674 6.79935 26.1341 6.86602C26.4008 6.93268 26.6008 7.13268 26.6674 7.33268L28.8674 11.1993C29.0008 11.3993 29.0674 11.666 29.0008 11.9327C28.9341 12.1993 28.8008 12.3993 28.6008 12.5327L25.7341 14.5327C25.8008 14.7327 25.8008 14.9993 25.8008 15.266C25.8008 15.5327 25.8008 15.7327 25.8008 15.9993C25.8008 16.1993 25.8008 16.466 25.8008 16.666C25.8008 16.9327 25.7341 17.1327 25.7341 17.3327L28.6008 19.3993C28.8008 19.5327 28.9341 19.7327 29.0008 19.9993C29.0674 20.266 29.0674 20.466 28.8674 20.666L26.6674 24.666C26.5341 24.9327 26.3341 25.066 26.1341 25.1327C25.8674 25.1993 25.6674 25.1993 25.4008 25.066L22.2674 23.5993C21.9341 23.866 21.5341 24.1993 21.0674 24.466C20.6008 24.7327 20.1341 24.9327 19.7341 25.066L19.2008 28.3993C19.1341 28.666 19.0674 28.866 18.8674 28.9993C18.6674 29.266 18.4674 29.3327 18.2008 29.3327ZM16.0008 22.266C17.7341 22.266 19.2008 21.666 20.4008 20.466C21.6008 19.266 22.2008 17.7993 22.2008 16.066C22.2008 14.3327 21.6008 12.866 20.4008 11.666C19.2008 10.466 17.7341 9.86602 16.0008 9.86602C14.2674 9.86602 12.8008 10.466 11.6008 11.666C10.4008 12.866 9.80076 14.3327 9.80076 16.066C9.80076 17.7993 10.4008 19.266 11.6008 20.466C12.8008 21.5993 14.2674 22.266 16.0008 22.266Z" fill="#FDCF33"/>
</g>
</g>
<defs>
<clipPath id="clip0_9099_14442">
<rect width="32" height="32" fill="white"/>
</clipPath>
<clipPath id="clip1_9099_14442">
<rect width="32" height="32" fill="white"/>
</clipPath>
</defs>
</svg>
