<svg width="32" height="32" viewBox="0 0 32 32" fill="none" xmlns="http://www.w3.org/2000/svg">
<path d="M9.88614 24.4441L6.27557 23.7162C6.06204 23.6774 5.88248 23.5657 5.7369 23.3813C5.59131 23.1969 5.53793 22.9882 5.57675 22.7553L5.98439 19.2612L3.68411 16.5824C3.52882 16.4271 3.45117 16.233 3.45117 16C3.45117 15.7671 3.52882 15.573 3.68411 15.4177L5.98439 12.768L5.57675 9.27391C5.53793 9.04097 5.59131 8.83229 5.7369 8.64788C5.88248 8.46347 6.06204 8.35185 6.27557 8.31303L9.88614 7.58509L11.6914 4.46952C11.8079 4.2754 11.9729 4.13952 12.1864 4.06187C12.4 3.98423 12.6135 3.99393 12.827 4.09099L16.0008 5.57598L19.1746 4.09099C19.3881 3.99393 19.6065 3.97452 19.8298 4.03276C20.053 4.09099 20.2131 4.22687 20.3102 4.4404L22.1446 7.58509L25.7261 8.31303C25.9396 8.35185 26.1191 8.46347 26.2647 8.64788C26.4103 8.83229 26.4637 9.04097 26.4249 9.27391L26.0172 12.768L28.3175 15.4177C28.4728 15.573 28.5505 15.7671 28.5505 16C28.5505 16.233 28.4728 16.4271 28.3175 16.5824L26.0172 19.2612L26.4249 22.7553C26.4637 22.9882 26.4103 23.1969 26.2647 23.3813C26.1191 23.5657 25.9396 23.6774 25.7261 23.7162L22.1446 24.4441L20.3102 27.5597C20.2131 27.7732 20.053 27.9091 19.8298 27.9673C19.6065 28.0256 19.3881 28.0062 19.1746 27.9091L16.0008 26.4241L12.827 27.9091C12.6135 28.0062 12.4 28.0159 12.1864 27.9382C11.9729 27.8606 11.8079 27.7247 11.6914 27.5306L9.88614 24.4441Z" fill="#FDCF33"/>
<path d="M15.5679 11.7418C15.7608 11.4107 16.2392 11.4107 16.4321 11.7418L17.5055 13.5848C17.5762 13.7061 17.6946 13.7921 17.8318 13.8218L19.9163 14.2732C20.2908 14.3543 20.4386 14.8093 20.1833 15.0951L18.7622 16.6855C18.6687 16.7902 18.6235 16.9293 18.6376 17.069L18.8525 19.191C18.8911 19.5723 18.504 19.8534 18.1534 19.6989L16.2016 18.8388C16.0732 18.7822 15.9268 18.7822 15.7984 18.8388L13.8466 19.6989C13.496 19.8534 13.1089 19.5723 13.1475 19.191L13.3624 17.069C13.3765 16.9293 13.3313 16.7902 13.2378 16.6855L11.8167 15.0951C11.5614 14.8093 11.7092 14.3543 12.0837 14.2732L14.1682 13.8218C14.3054 13.7921 14.4238 13.7061 14.4945 13.5848L15.5679 11.7418Z" fill="white"/>
</svg>
