<svg width="32" height="32" viewBox="0 0 32 32" fill="none" xmlns="http://www.w3.org/2000/svg">
<path d="M20.3323 10.9326H20.599C20.7323 10.9326 20.8656 10.9992 20.999 11.0659C21.1323 11.1992 21.199 11.3326 21.199 11.4659C21.199 11.5992 21.1323 11.7326 20.999 11.8659C20.8656 11.9992 20.7323 12.0659 20.599 12.0659H20.3323C20.3323 12.4659 20.2656 12.8659 20.199 13.1992L21.799 11.5992C22.0656 11.7326 22.3323 11.7992 22.599 11.8659C22.8656 11.9326 23.2656 11.9326 23.599 11.9326C24.799 11.9326 25.799 11.5326 26.6656 10.6659C27.5323 9.79922 27.9323 8.79922 27.9323 7.59922C27.9323 7.26588 27.8656 6.99922 27.799 6.73255C27.7323 6.46589 27.599 6.26589 27.5323 6.06589L24.7323 8.86589L22.199 6.33255L24.999 3.53255C24.8656 3.46589 24.6656 3.33255 24.4656 3.26589C24.2656 3.19922 23.9323 3.19922 23.599 3.19922C22.399 3.19922 21.399 3.59922 20.5323 4.46589C19.6656 5.33255 19.2656 6.33255 19.2656 7.53255C19.2656 7.79922 19.2656 8.06589 19.3323 8.33255C19.4656 8.53255 19.599 8.66588 19.7323 8.93255C20.1323 9.46588 20.3323 10.1992 20.3323 10.9326Z" fill="white"/>
<path d="M15.9988 16.3988C15.1322 16.3988 14.3988 16.1988 13.7322 15.7988L5.19883 24.3322C4.93216 24.5988 4.79883 24.9322 4.79883 25.2655C4.79883 25.5988 4.93216 25.9322 5.19883 26.1988C5.46549 26.5322 5.79883 26.6655 6.13216 26.6655C6.46549 26.6655 6.79883 26.5322 7.0655 26.2655L17.1322 16.1988C16.7322 16.3322 16.3988 16.3988 15.9988 16.3988Z" fill="white"/>
<path d="M17.5329 15.4668L15.5996 17.3335L24.5329 26.2668C24.7996 26.5335 25.1329 26.6668 25.4663 26.6668C25.8663 26.6668 26.1329 26.5335 26.3996 26.2668C26.6663 26.0001 26.7996 25.6668 26.7996 25.3335C26.7996 25.0001 26.6663 24.6668 26.3996 24.4001L17.5329 15.4668Z" fill="white"/>
<path d="M11.3996 12.0656C11.2663 12.0656 11.1329 11.999 10.9996 11.8656C10.8663 11.7323 10.7996 11.599 10.7996 11.4656C10.7996 11.3323 10.8663 11.199 10.9996 11.0656C11.1329 10.9323 11.2663 10.9323 11.3996 10.9323H11.6663C11.6663 10.1323 11.8663 9.46562 12.2663 8.86562C12.2663 8.79896 12.3329 8.79896 12.3329 8.73229L11.5329 7.93229L15.0663 4.39896C14.6663 3.99896 14.2663 3.73229 13.8663 3.53229C13.4663 3.33229 12.9329 3.26562 12.3996 3.26562C11.8663 3.26562 11.3329 3.26562 10.9329 3.39896C10.4663 3.53229 10.0663 3.79896 9.73294 4.19896L5.99961 7.86563C5.79961 8.06563 5.66628 8.26562 5.66628 8.53229C5.66628 8.79896 5.79961 9.06562 5.99961 9.19896L6.86628 10.1323H4.06628L3.79961 10.399C3.66628 10.5323 3.59961 10.7323 3.59961 10.9323C3.59961 11.1323 3.66628 11.3323 3.79961 11.4656L6.79961 14.4656C6.93294 14.599 7.13294 14.6656 7.33294 14.6656C7.53294 14.6656 7.73294 14.599 7.86628 14.4656L8.13294 14.199V11.399L8.93294 12.199C9.13294 12.399 9.39961 12.4656 9.59961 12.4656C9.86628 12.4656 10.1329 12.399 10.2663 12.199L10.3329 12.1323L11.9996 13.799C11.7996 13.2656 11.7329 12.7323 11.7329 12.1323H11.3996V12.0656Z" fill="white"/>
<path d="M20.9988 11.1316C20.8655 10.9983 20.7322 10.9983 20.5988 10.9983H20.3322C20.3322 10.1983 20.1322 9.53164 19.7988 8.93164C19.6655 8.73164 19.5322 8.53164 19.3988 8.33164C19.1322 7.99831 18.7322 7.66497 18.3322 7.39831V8.53164C18.3322 8.66497 18.2655 8.73164 18.1988 8.79831C18.1322 8.86497 17.9988 8.93164 17.9322 8.93164C17.7988 8.93164 17.6655 8.86497 17.5988 8.79831C17.5322 8.73164 17.4655 8.59831 17.4655 8.53164V7.06497C17.3322 6.99831 17.1322 6.99831 16.8655 6.99831C16.5988 6.99831 16.3322 6.93164 16.0655 6.93164C15.7988 6.93164 15.5322 6.93164 15.2655 6.99831C14.9988 6.99831 14.7988 7.06497 14.6655 7.06497V8.53164C14.6655 8.66497 14.5988 8.73164 14.5322 8.79831C14.4655 8.86497 14.3322 8.93164 14.1988 8.93164C14.0655 8.93164 13.9988 8.86497 13.8655 8.79831C13.7322 8.73164 13.7322 8.59831 13.7322 8.53164V7.39831C13.1322 7.73164 12.6655 8.19831 12.3322 8.79831C12.3322 8.86497 12.2655 8.86497 12.2655 8.93164C11.8655 9.53164 11.6655 10.265 11.6655 10.9983H11.3988C11.2655 10.9983 11.1322 11.065 10.9988 11.1316C10.8655 11.265 10.7988 11.3983 10.7988 11.5316C10.7988 11.665 10.8655 11.7983 10.9988 11.9316C11.1322 12.065 11.2655 12.1316 11.3988 12.1316H11.6655C11.6655 12.7316 11.7322 13.265 11.9322 13.7983C12.1322 14.3316 12.4655 14.7983 12.8655 15.1983C13.1322 15.465 13.3988 15.665 13.7322 15.865C14.3988 16.265 15.1322 16.465 15.9988 16.465C16.3988 16.465 16.7322 16.3983 17.1322 16.3316C17.9322 16.1316 18.5322 15.7983 19.1322 15.1983C19.6655 14.665 19.9988 13.9983 20.1988 13.265C20.2655 12.9316 20.3322 12.5316 20.3322 12.1316H20.5988C20.7322 12.1316 20.8655 12.065 20.9988 11.9316C21.1322 11.7983 21.1988 11.665 21.1988 11.5316C21.1322 11.3316 21.1322 11.1983 20.9988 11.1316ZM15.9988 14.665C15.1988 14.665 14.5322 14.3983 14.1322 13.9316C13.6655 13.465 13.4655 12.7983 13.4655 12.065H14.1322H17.5322H18.5988C18.5988 12.7983 18.3988 13.465 17.9322 13.9316C17.4655 14.3983 16.7988 14.665 15.9988 14.665Z" fill="#FDCF33"/>
<path d="M24.6003 19.7333C24.3336 19.3333 23.8669 18.9333 23.3336 18.6667C22.3336 18.2 21.2003 17.7333 20.0003 17.4667C18.8003 17.1333 17.4669 17 16.0003 17C14.5336 17 13.2003 17.1333 12.0003 17.4667C10.8003 17.8 9.73359 18.2 8.66693 18.6667C8.13359 18.9333 7.66693 19.2667 7.40026 19.7333C7.06693 20.1333 6.93359 20.7333 6.93359 21.3333V24H25.0669V21.3333C25.0669 20.6667 24.9336 20.1333 24.6003 19.7333Z" fill="#FDCF33"/>
</svg>
