<svg width="32" height="25" viewBox="0 0 32 25" fill="none" xmlns="http://www.w3.org/2000/svg">
<path d="M7.33259 22.056V23.2782C7.33259 23.6245 7.21567 23.9145 6.98182 24.1484C6.74716 24.383 6.45669 24.5004 6.1104 24.5004H4.88821C4.54192 24.5004 4.25185 24.383 4.01801 24.1484C3.78335 23.9145 3.66602 23.6245 3.66602 23.2782V13.5007L6.23262 6.1675C6.35484 5.80085 6.57402 5.50548 6.89016 5.28141C7.20548 5.05735 7.55666 4.94531 7.94369 4.94531H21.3878C21.7748 4.94531 22.1264 5.05735 22.4425 5.28141C22.7579 5.50548 22.9766 5.80085 23.0989 6.1675L25.6655 13.5007V23.2782C25.6655 23.6245 25.5481 23.9145 25.3135 24.1484C25.0796 24.383 24.7896 24.5004 24.4433 24.5004H23.2211C22.8748 24.5004 22.5847 24.383 22.3509 24.1484C22.1162 23.9145 21.9989 23.6245 21.9989 23.2782V22.056H7.33259ZM7.08815 11.0563H22.2433L20.96 7.38969H8.37145L7.08815 11.0563ZM9.16588 18.3894C9.67512 18.3894 10.1078 18.211 10.4638 17.8541C10.8207 17.498 10.9992 17.0654 10.9992 16.5561C10.9992 16.0469 10.8207 15.6142 10.4638 15.2582C10.1078 14.9013 9.67512 14.7228 9.16588 14.7228C8.65663 14.7228 8.22397 14.9013 7.86791 15.2582C7.51103 15.6142 7.33259 16.0469 7.33259 16.5561C7.33259 17.0654 7.51103 17.498 7.86791 17.8541C8.22397 18.211 8.65663 18.3894 9.16588 18.3894ZM20.1656 18.3894C20.6748 18.3894 21.1075 18.211 21.4636 17.8541C21.8204 17.498 21.9989 17.0654 21.9989 16.5561C21.9989 16.0469 21.8204 15.6142 21.4636 15.2582C21.1075 14.9013 20.6748 14.7228 20.1656 14.7228C19.6564 14.7228 19.2237 14.9013 18.8676 15.2582C18.5107 15.6142 18.3323 16.0469 18.3323 16.5561C18.3323 17.0654 18.5107 17.498 18.8676 17.8541C19.2237 18.211 19.6564 18.3894 20.1656 18.3894Z" fill="#FDCF33"/>
<path d="M4.10266 0.988805C4.17853 0.850096 4.37774 0.850096 4.45361 0.988805L5.3303 2.59178C5.34865 2.62534 5.37625 2.65293 5.4098 2.67128L7.01278 3.54798C7.15148 3.62384 7.15148 3.82306 7.01278 3.89892L5.4098 4.77561C5.37625 4.79397 5.34865 4.82156 5.3303 4.85512L4.45361 6.45809C4.37774 6.5968 4.17853 6.5968 4.10266 6.45809L3.22597 4.85512C3.20761 4.82156 3.18002 4.79397 3.14647 4.77561L1.54349 3.89892C1.40478 3.82306 1.40478 3.62384 1.54349 3.54798L3.14647 2.67128C3.18002 2.65293 3.20761 2.62534 3.22597 2.59178L4.10266 0.988805Z" fill="white"/>
<path d="M1.65782 7.10013C1.73368 6.96142 1.9329 6.96142 2.00876 7.10013L2.45334 7.91302C2.4717 7.94658 2.49929 7.97417 2.53285 7.99253L3.34574 8.43711C3.48445 8.51297 3.48445 8.71219 3.34574 8.78805L2.53285 9.23264C2.49929 9.25099 2.4717 9.27858 2.45334 9.31214L2.00876 10.125C1.9329 10.2637 1.73368 10.2637 1.65782 10.125L1.21323 9.31214C1.19488 9.27858 1.16729 9.25099 1.13373 9.23264L0.320836 8.78805C0.182127 8.71219 0.182127 8.51298 0.320836 8.43711L1.13373 7.99253C1.16729 7.97417 1.19488 7.94658 1.21323 7.91302L1.65782 7.10013Z" fill="white"/>
<path d="M28.9905 13.3208C29.0664 13.1821 29.2656 13.1821 29.3415 13.3208L30.0218 14.5647C30.0401 14.5983 30.0677 14.6259 30.1013 14.6442L31.3452 15.3245C31.4839 15.4004 31.4839 15.5996 31.3452 15.6755L30.1013 16.3558C30.0677 16.3741 30.0401 16.4017 30.0218 16.4353L29.3415 17.6792C29.2656 17.8179 29.0664 17.8179 28.9905 17.6792L28.3102 16.4353C28.2919 16.4017 28.2643 16.3741 28.2307 16.3558L26.9869 15.6755C26.8481 15.5996 26.8481 15.4004 26.9869 15.3245L28.2307 14.6442C28.2643 14.6259 28.2919 14.5983 28.3102 14.5647L28.9905 13.3208Z" fill="white"/>
</svg>
