<svg width="60" height="60" viewBox="0 0 60 60" fill="none" xmlns="http://www.w3.org/2000/svg">
<circle cx="30" cy="30" r="30" fill="#173559"/>
<rect x="18" y="23" width="26" height="10" fill="white"/>
<path d="M30.8866 46.2458C29.213 47.1657 29.2843 45.8112 29.3563 45.394C29.399 45.1454 29.5938 43.9793 29.5938 43.9793C29.6492 43.5565 29.7078 42.9026 29.5408 42.4854C29.3547 42.0262 28.6177 41.7871 28.0762 41.6708C20.0883 40.6202 14.1753 35.0667 14.1753 28.4365C14.1753 21.0407 21.6328 15.0233 30.7963 15.0233C39.9599 15.0233 47.4166 21.0407 47.4166 28.4365C47.4166 36.7426 38.6069 42.0009 30.8866 46.2458ZM25.542 31.4606C25.542 31.0173 25.1787 30.6571 24.7322 30.6571H22.4712V25.3703C22.4712 24.927 22.1078 24.5668 21.6613 24.5668C21.214 24.5668 20.8514 24.927 20.8514 25.3703V31.4614C20.8514 31.9055 21.2148 32.2658 21.6613 32.2658H24.7322C25.1787 32.2665 25.542 31.9048 25.542 31.4606ZM27.9075 25.3703C27.9075 24.927 27.5442 24.5668 27.0977 24.5668C26.6504 24.5668 26.2878 24.927 26.2878 25.3703V31.4614C26.2878 31.9055 26.6512 32.2658 27.0977 32.2658C27.545 32.2658 27.9075 31.9048 27.9075 31.4614V25.3703ZM35.3017 25.3703C35.3017 24.927 34.9383 24.5668 34.4918 24.5668C34.0445 24.5668 33.6804 24.927 33.6804 25.3703V29.1395L30.5311 24.889C30.3791 24.6879 30.1361 24.5676 29.8835 24.5676C29.7965 24.5676 29.7102 24.5803 29.6263 24.6088C29.2945 24.7188 29.0721 25.0252 29.0721 25.3711V31.4622C29.0721 31.9063 29.4363 32.2665 29.8835 32.2665C30.3316 32.2665 30.695 31.9055 30.695 31.4622V27.6947L33.8427 31.9451C33.9947 32.1462 34.2369 32.2665 34.4903 32.2665C34.5765 32.2665 34.6636 32.2523 34.7475 32.2246C35.08 32.1161 35.3017 31.8098 35.3017 31.4622V25.3703ZM40.2718 27.6123H38.0108V26.1739H40.2718C40.7199 26.1739 41.0833 25.8137 41.0833 25.3703C41.0833 24.927 40.7191 24.5668 40.2718 24.5668H37.2009C36.7536 24.5668 36.391 24.927 36.391 25.3703C36.391 25.3711 36.391 25.3711 36.391 25.3727V28.4143V28.4151C36.391 28.4151 36.391 28.4151 36.391 28.4159V31.4598C36.391 31.904 36.7552 32.2642 37.2009 32.2642H40.2718C40.7191 32.2642 41.0833 31.9032 41.0833 31.4598C41.0833 31.0165 40.7191 30.6563 40.2718 30.6563H38.0108V29.2178H40.2718C40.7199 29.2178 41.0833 28.8576 41.0833 28.4143C41.0833 27.9702 40.7191 27.61 40.2718 27.61V27.6123Z" fill="#00B900"/>
</svg>
