<svg width="25" height="24" viewBox="0 0 25 24" fill="none" xmlns="http://www.w3.org/2000/svg">
<g clip-path="url(#clip0)">
<path d="M12.5654 23.5425C11.3571 24.2066 11.4086 23.2287 11.4606 22.9275C11.4915 22.748 11.6321 21.906 11.6321 21.906C11.6721 21.6008 11.7144 21.1287 11.5938 20.8275C11.4594 20.496 10.9273 20.3233 10.5363 20.2393C4.76912 19.4808 0.5 15.4712 0.5 10.6842C0.5 5.34457 5.88427 1 12.5003 1C19.1163 1 24.5 5.34457 24.5 10.6842C24.5 16.6812 18.1395 20.4777 12.5654 23.5425ZM8.70672 12.8677C8.70672 12.5476 8.44437 12.2875 8.122 12.2875H6.48957V8.47053C6.48957 8.15044 6.22721 7.89037 5.90484 7.89037C5.5819 7.89037 5.32012 8.15044 5.32012 8.47053V12.8682C5.32012 13.1889 5.58247 13.449 5.90484 13.449H8.122C8.44437 13.4495 8.70672 13.1883 8.70672 12.8677ZM10.4146 8.47053C10.4146 8.15044 10.1522 7.89037 9.82987 7.89037C9.50693 7.89037 9.24515 8.15044 9.24515 8.47053V12.8682C9.24515 13.1889 9.5075 13.449 9.82987 13.449C10.1528 13.449 10.4146 13.1883 10.4146 12.8682V8.47053ZM15.7531 8.47053C15.7531 8.15044 15.4908 7.89037 15.1684 7.89037C14.8455 7.89037 14.5825 8.15044 14.5825 8.47053V11.1918L12.3088 8.12301C12.1991 7.97783 12.0236 7.89095 11.8413 7.89095C11.7784 7.89095 11.7161 7.90009 11.6555 7.92067C11.416 8.00012 11.2554 8.22132 11.2554 8.4711V12.8688C11.2554 13.1895 11.5183 13.4495 11.8413 13.4495C12.1648 13.4495 12.4271 13.1889 12.4271 12.8688V10.1487L14.6997 13.2175C14.8095 13.3627 14.9844 13.4495 15.1673 13.4495C15.2296 13.4495 15.2924 13.4393 15.353 13.4193C15.5931 13.3409 15.7531 13.1197 15.7531 12.8688V8.47053ZM19.3415 10.0892H17.7091V9.05068H19.3415C19.665 9.05068 19.9274 8.79061 19.9274 8.47053C19.9274 8.15044 19.6644 7.89037 19.3415 7.89037H17.1244C16.8014 7.89037 16.5396 8.15044 16.5396 8.47053V8.47224V10.6682V10.6694V12.8671C16.5396 13.1878 16.8026 13.4478 17.1244 13.4478H19.3415C19.6644 13.4478 19.9274 13.1872 19.9274 12.8671C19.9274 12.547 19.6644 12.287 19.3415 12.287H17.7091V11.2484H19.3415C19.665 11.2484 19.9274 10.9883 19.9274 10.6682C19.9274 10.3476 19.6644 10.0875 19.3415 10.0875V10.0892Z" fill="white"/>
</g>
<defs>
<clipPath id="clip0">
<rect width="24" height="24" fill="white" transform="translate(0.5)"/>
</clipPath>
</defs>
</svg>
