<svg width="88" height="14" viewBox="0 0 88 14" fill="none" xmlns="http://www.w3.org/2000/svg">
<path d="M9.89046 0.668455C9.41407 0.468339 8.9214 0.309415 8.41787 0.193428C7.91296 0.0840712 7.39779 0.029129 6.88117 0.0295433C5.98394 0.035028 5.09644 0.215754 4.26852 0.561571C3.45379 0.894215 2.70921 1.37771 2.0739 1.98665C1.43614 2.60699 0.923334 3.34394 0.563303 4.15753C0.181917 5.02879 -0.00995599 5.97115 0.000397791 6.92218C-0.00873686 7.9224 0.186035 8.91401 0.572813 9.83647C0.936865 10.6607 1.45249 11.4092 2.09289 12.043C2.72046 12.6618 3.46269 13.1523 4.27802 13.487C5.09963 13.8268 5.9802 14.0011 6.86929 14.0001C7.31837 13.9963 7.76607 13.9502 8.20648 13.8623C8.70629 13.763 9.19779 13.6256 9.67669 13.4514L9.89759 13.3754V9.85785C9.14008 10.5835 8.13435 10.9929 7.08542 11.0027C6.56555 11.0065 6.05048 10.903 5.57247 10.6986C5.11677 10.5035 4.70366 10.2211 4.3564 9.86735C4.00592 9.51035 3.72982 9.08731 3.54411 8.62277C3.34573 8.08125 3.24675 7.50837 3.25196 6.93168C3.2473 6.4029 3.34657 5.87836 3.54411 5.38784C3.72799 4.92672 4.00075 4.50626 4.34689 4.1504C4.69506 3.79903 5.10911 3.51977 5.56533 3.32861C6.05152 3.12368 6.57446 3.02022 7.10205 3.02459C7.62063 3.02068 8.13471 3.12106 8.61372 3.31976C9.09274 3.51847 9.52691 3.81145 9.89046 4.18128V0.668455Z" fill="#2E2E2E"/>
<path d="M37.5699 13.7459L33.24 8.0313L33.5511 7.95767C34.3628 7.80469 35.0954 7.37285 35.6223 6.73685C36.0973 6.14069 36.3206 5.34502 36.3206 4.36171C36.3238 3.79686 36.2347 3.23527 36.0569 2.69912C35.8866 2.23373 35.6222 1.80844 35.2802 1.44981C34.9112 1.07265 34.4636 0.781519 33.9692 0.597133C33.3615 0.372448 32.7168 0.264463 32.0691 0.278859H26.8271V13.7506H29.9148V7.86266L33.715 13.7459H37.5699ZM32.5085 5.96018C32.1047 6.2737 31.5275 6.43521 30.7912 6.43521H29.9243V2.69437H30.7912C31.5275 2.69437 32.1047 2.85351 32.5085 3.1694C32.7185 3.33417 32.8858 3.5471 32.9962 3.79019C33.1066 4.03328 33.1568 4.29938 33.1426 4.56598C33.1564 4.83219 33.106 5.09781 32.9957 5.34046C32.8853 5.5831 32.7182 5.79565 32.5085 5.96018Z" fill="#2E2E2E"/>
<path d="M46.6713 2.2808L45.0206 3.25935C44.818 2.84275 44.5152 2.48287 44.1394 2.21192C43.7995 2.01285 43.4096 1.91557 43.016 1.93165C42.505 1.91266 42.0047 2.08166 41.6099 2.40668C41.4324 2.54886 41.2897 2.72981 41.193 2.93567C41.0962 3.14153 41.0479 3.36682 41.0518 3.59425C41.0518 4.25295 41.5402 4.78181 42.5172 5.18083L43.8615 5.73187C44.9541 6.17364 45.7537 6.7128 46.2604 7.34933C46.7772 8.01925 47.045 8.84795 47.0181 9.69359C47.0359 10.2629 46.9351 10.8298 46.7221 11.3581C46.5091 11.8864 46.1884 12.3646 45.7806 12.7623C45.3744 13.1629 44.8916 13.4777 44.3612 13.6878C43.8307 13.898 43.2634 13.9992 42.693 13.9855C41.6298 14.0235 40.5925 13.652 39.7953 12.9475C39.0479 12.254 38.58 11.2794 38.3916 10.0237L40.4508 9.57008C40.5427 10.3618 40.7058 10.9089 40.9401 11.2113C41.1477 11.4986 41.4242 11.7291 41.7442 11.8814C42.0643 12.0337 42.4175 12.103 42.7713 12.083C43.0643 12.0916 43.3559 12.0395 43.6277 11.93C43.8995 11.8204 44.1457 11.6558 44.3508 11.4464C44.5589 11.2335 44.7217 10.9806 44.8295 10.703C44.9372 10.4254 44.9877 10.1289 44.9778 9.83134C44.9801 9.58949 44.9432 9.34887 44.8686 9.1188C44.7941 8.89334 44.6754 8.68501 44.5194 8.50602C44.3465 8.30652 44.1457 8.13293 43.9233 7.99061C43.6454 7.81337 43.353 7.66002 43.0492 7.53221L41.75 6.99306C39.9069 6.21085 38.9854 5.07079 38.9854 3.57287C38.977 3.09 39.0767 2.61137 39.2772 2.17204C39.4778 1.73271 39.7741 1.34381 40.1445 1.03385C40.9426 0.338029 41.9743 -0.0302051 43.0326 0.0030474C44.586 0.00938109 45.7988 0.768631 46.6713 2.2808Z" fill="#2E2E2E"/>
<path d="M48.4408 6.92669C48.4307 6.01226 48.6109 5.10572 48.9699 4.26464C49.3289 3.42357 49.8589 2.66634 50.5262 2.04104C51.1769 1.38196 51.9542 0.861422 52.8114 0.510784C53.6686 0.160147 54.5879 -0.0133336 55.514 0.000799003C56.4341 -0.0114317 57.3469 0.164974 58.1961 0.519142C59.0454 0.873309 59.8131 1.39772 60.4519 2.06004C61.1166 2.69885 61.643 3.4674 61.9984 4.31803C62.3539 5.16866 62.5308 6.08324 62.5182 7.00506C62.5342 7.92613 62.3579 8.8404 62.0004 9.68943C61.643 10.5385 61.1123 11.3036 60.4424 11.9358C59.7829 12.5946 58.9978 13.114 58.1336 13.4632C57.2694 13.8125 56.3438 13.9845 55.4118 13.969C53.6792 13.9713 52.008 13.3267 50.7257 12.1615C49.2025 10.833 48.4408 9.08806 48.4408 6.92669ZM50.4906 6.95519C50.4692 7.6383 50.5918 8.31826 50.8504 8.95089C51.109 9.58351 51.4979 10.1546 51.9917 10.6271C52.4412 11.0848 52.9775 11.4481 53.5694 11.6957C54.1612 11.9433 54.7965 12.0701 55.438 12.0689C56.1028 12.0827 56.7634 11.9598 57.3787 11.7077C57.994 11.4556 58.5509 11.0797 59.0149 10.6034C59.491 10.1313 59.8663 9.56747 60.1182 8.94612C60.3701 8.32477 60.4933 7.65878 60.4804 6.98844C60.4975 6.32021 60.3787 5.65547 60.1313 5.0345C59.8839 4.41352 59.513 3.84925 59.0411 3.37586C58.5841 2.89813 58.0325 2.52103 57.4215 2.26869C56.8104 2.01634 56.1535 1.89432 55.4926 1.91041C54.8297 1.89538 54.171 2.01784 53.5578 2.27006C52.9446 2.52228 52.3903 2.89879 51.9299 3.37586C51.4585 3.8427 51.0876 4.40109 50.84 5.01665C50.5925 5.63222 50.4736 6.29194 50.4906 6.95519Z" fill="#2E2E2E"/>
<path d="M87.6285 2.18591H82.2274V5.41847H87.4717V7.31857H82.2274V11.8313H87.6285V13.7433H80.1943V0.273926H87.6285V2.18591Z" fill="#2E2E2E"/>
<path d="M21.5528 13.7457H25.0443L19.9187 0.273926H16.5342L11.4062 13.7457H14.9001L18.2252 3.97676L21.5528 13.7457Z" fill="#2E2E2E"/>
<path d="M76.0733 0.28833H73.8573L70.886 10.9812L67.917 0.28833H65.6987L63.2998 13.7458H65.3068L66.9361 3.35463L69.9549 13.8646H71.817L74.8358 3.35463L76.4652 13.7458H78.4745L76.0733 0.28833Z" fill="#2E2E2E"/>
</svg>
