<svg width="60" height="14" viewBox="0 0 60 14" fill="none" xmlns="http://www.w3.org/2000/svg">
<rect x="0.885742" width="59.1052" height="14" rx="2.8" fill="#FDCF33"/>
<path d="M23.0644 10H21.6537L18.9077 5.49534V10H17.497V3.15367H18.9077L21.6584 7.66773V3.15367H23.0644V10ZM26.5487 10.094C25.8026 10.094 25.1944 9.86521 24.7242 9.40753C24.2571 8.94985 24.0236 8.34014 24.0236 7.57839V7.44673C24.0236 6.93577 24.1223 6.47966 24.3198 6.07841C24.5173 5.67402 24.7963 5.36368 25.1568 5.14738C25.5205 4.92795 25.9342 4.81823 26.3982 4.81823C27.0941 4.81823 27.6411 5.03767 28.0392 5.47653C28.4405 5.9154 28.6411 6.53765 28.6411 7.34329V7.89814H25.4013C25.4452 8.23042 25.5769 8.49688 25.7963 8.6975C26.0189 8.89813 26.2994 8.99844 26.638 8.99844C27.1615 8.99844 27.5706 8.80879 27.8653 8.42948L28.533 9.17712C28.3292 9.46552 28.0533 9.69123 27.7054 9.85423C27.3574 10.0141 26.9719 10.094 26.5487 10.094ZM26.3935 5.91854C26.1239 5.91854 25.9045 6.00944 25.7352 6.19126C25.569 6.37308 25.4625 6.63326 25.4154 6.97182H27.3057V6.86367C27.2994 6.56273 27.2179 6.33076 27.0612 6.16775C26.9045 6.00161 26.6819 5.91854 26.3935 5.91854ZM33.8417 8.15206L34.5094 4.91228H35.8213L34.5235 10H33.3856L32.4216 6.79784L31.4577 10H30.3245L29.0267 4.91228H30.3386L31.0016 8.14735L31.9326 4.91228H32.9154L33.8417 8.15206ZM44.3604 7.71946C44.3071 8.45613 44.0344 9.03606 43.5422 9.45925C43.0532 9.88245 42.4074 10.094 41.6049 10.094C40.7272 10.094 40.036 9.79937 39.5313 9.21004C39.0297 8.61757 38.7789 7.80566 38.7789 6.77433V6.35583C38.7789 5.69753 38.8949 5.1176 39.1269 4.61604C39.3589 4.11448 39.6896 3.73047 40.1191 3.46401C40.5517 3.19442 41.0532 3.05963 41.6237 3.05963C42.4137 3.05963 43.0501 3.27123 43.5328 3.69442C44.0156 4.11761 44.2946 4.71165 44.3698 5.47653H42.9592C42.9247 5.03453 42.8009 4.71479 42.5877 4.51729C42.3777 4.31667 42.0563 4.21636 41.6237 4.21636C41.1535 4.21636 40.8009 4.38563 40.5658 4.72419C40.3338 5.05961 40.2147 5.58155 40.2084 6.29V6.80724C40.2084 7.54705 40.3197 8.08779 40.5423 8.42948C40.768 8.77117 41.1222 8.94202 41.6049 8.94202C42.0407 8.94202 42.3651 8.84327 42.5783 8.64578C42.7946 8.44516 42.9184 8.13638 42.9498 7.71946H44.3604ZM48.1456 10C48.0829 9.87774 48.0375 9.72571 48.0093 9.54389C47.6801 9.91066 47.2522 10.094 46.7256 10.094C46.2271 10.094 45.8134 9.94984 45.4842 9.66145C45.1582 9.37305 44.9952 9.00941 44.9952 8.57055C44.9952 8.03137 45.1942 7.61758 45.5924 7.32918C45.9936 7.04078 46.572 6.89501 47.3275 6.89188H47.9528V6.60035C47.9528 6.36524 47.8917 6.17715 47.7695 6.03609C47.6503 5.89502 47.4607 5.82449 47.2005 5.82449C46.9717 5.82449 46.7914 5.87935 46.6597 5.98907C46.5312 6.09878 46.467 6.24925 46.467 6.44047H45.108C45.108 6.14581 45.1989 5.87308 45.3808 5.6223C45.5626 5.37152 45.8196 5.1756 46.1519 5.03453C46.4842 4.89033 46.8572 4.81823 47.271 4.81823C47.898 4.81823 48.3948 4.97654 48.7616 5.29315C49.1315 5.60663 49.3165 6.04863 49.3165 6.61916V8.82446C49.3196 9.30722 49.387 9.67242 49.5187 9.92006V10H48.1456ZM47.0218 9.05487C47.2224 9.05487 47.4074 9.01098 47.5767 8.92321C47.7459 8.8323 47.8713 8.71161 47.9528 8.56114V7.68654H47.445C46.7648 7.68654 46.4027 7.92165 46.3588 8.39187L46.3541 8.4718C46.3541 8.64108 46.4137 8.78058 46.5328 8.89029C46.6519 9.00001 46.8149 9.05487 47.0218 9.05487ZM53.2192 6.18656C53.0343 6.16148 52.8713 6.14894 52.7302 6.14894C52.2161 6.14894 51.8791 6.32292 51.7193 6.67088V10H50.3603V4.91228H51.644L51.6816 5.51885C51.9544 5.05177 52.3321 4.81823 52.8149 4.81823C52.9653 4.81823 53.1064 4.83861 53.2381 4.87936L53.2192 6.18656Z" fill="#0066CC"/>
<path d="M12.7643 6.10614C12.5761 5.67305 12.3068 5.2894 11.9641 4.96706L11.6831 4.70305C11.6416 4.66547 11.576 4.68228 11.5576 4.73568L11.4321 5.1045C11.3539 5.33587 11.2101 5.5722 11.0064 5.80456C10.9929 5.81939 10.9775 5.82335 10.9668 5.82434C10.9562 5.82533 10.9398 5.82335 10.9253 5.80951C10.9118 5.79764 10.9051 5.77984 10.906 5.76204C10.9417 5.16679 10.768 4.4954 10.3876 3.76469C10.0729 3.15757 9.6356 2.68394 9.08921 2.35368L8.69051 2.1134C8.63838 2.08176 8.57177 2.12329 8.57467 2.18559L8.59591 2.66021C8.61039 2.98453 8.5737 3.27128 8.48682 3.50958C8.38063 3.80127 8.22811 4.0722 8.0331 4.31544C7.89602 4.48551 7.74253 4.63878 7.57456 4.77128C7.16814 5.09065 6.83316 5.50694 6.6063 5.97266C6.37751 6.44332 6.25684 6.97035 6.25684 7.49836C6.25684 7.96507 6.34661 8.41695 6.52424 8.84312C6.69608 9.25347 6.94128 9.62327 7.25309 9.93969C7.56587 10.2561 7.92884 10.5053 8.33333 10.6783C8.7523 10.8583 9.19636 10.9492 9.65491 10.9492C10.1135 10.9492 10.5575 10.8583 10.9765 10.6793C11.381 10.5063 11.7449 10.2581 12.0567 9.94067C12.3695 9.62426 12.6147 9.25445 12.7856 8.84411C12.9632 8.41794 13.053 7.96606 13.053 7.49935C13.053 7.01682 12.9564 6.54813 12.7643 6.10614Z" fill="#0066CC"/>
</svg>
