<svg fill="none" height="180" viewBox="0 0 240 180" width="240" xmlns="http://www.w3.org/2000/svg" xmlns:xlink="http://www.w3.org/1999/xlink"><filter id="a" color-interpolation-filters="sRGB" filterUnits="userSpaceOnUse" height="89.1852" width="121.778" x="42.667" y="16.5771"><feFlood flood-opacity="0" result="BackgroundImageFix"/><feBlend in="SourceGraphic" in2="BackgroundImageFix" mode="normal" result="shape"/><feColorMatrix in="SourceAlpha" result="hardAlpha" type="matrix" values="0 0 0 0 0 0 0 0 0 0 0 0 0 0 0 0 0 0 127 0"/><feOffset dy="1.18519"/><feGaussianBlur stdDeviation="1.48148"/><feComposite in2="hardAlpha" k2="-1" k3="1" operator="arithmetic"/><feColorMatrix type="matrix" values="0 0 0 0 0.658333 0 0 0 0 0.798106 0 0 0 0 1 0 0 0 1 0"/><feBlend in2="shape" mode="darken" result="effect1_innerShadow_2404_49884"/></filter><filter id="b" color-interpolation-filters="sRGB" filterUnits="userSpaceOnUse" height="80.2964" width="121.778" x="43.5562" y="23.0957"><feFlood flood-opacity="0" result="BackgroundImageFix"/><feBlend in="SourceGraphic" in2="BackgroundImageFix" mode="normal" result="shape"/><feColorMatrix in="SourceAlpha" result="hardAlpha" type="matrix" values="0 0 0 0 0 0 0 0 0 0 0 0 0 0 0 0 0 0 127 0"/><feOffset/><feGaussianBlur stdDeviation="24"/><feComposite in2="hardAlpha" k2="-1" k3="1" operator="arithmetic"/><feColorMatrix type="matrix" values="0 0 0 0 1 0 0 0 0 1 0 0 0 0 1 0 0 0 1 0"/><feBlend in2="shape" mode="normal" result="effect1_innerShadow_2404_49884"/></filter><filter id="c" color-interpolation-filters="sRGB" filterUnits="userSpaceOnUse" height="32.8888" width="47.1841" x="82.3708" y="45.9097"><feFlood flood-opacity="0" result="BackgroundImageFix"/><feBlend in="SourceGraphic" in2="BackgroundImageFix" mode="normal" result="shape"/><feColorMatrix in="SourceAlpha" result="hardAlpha" type="matrix" values="0 0 0 0 0 0 0 0 0 0 0 0 0 0 0 0 0 0 127 0"/><feOffset dy="1.18519"/><feGaussianBlur stdDeviation="5.77778"/><feComposite in2="hardAlpha" k2="-1" k3="1" operator="arithmetic"/><feColorMatrix type="matrix" values="0 0 0 0 0.286275 0 0 0 0 0.521569 0 0 0 0 0.901961 0 0 0 0.1 0"/><feBlend in2="shape" mode="normal" result="effect1_innerShadow_2404_49884"/></filter><filter id="d" color-interpolation-filters="sRGB" filterUnits="userSpaceOnUse" height="7.70361" width="121.778" x="43.5562" y="15.3916"><feFlood flood-opacity="0" result="BackgroundImageFix"/><feBlend in="SourceGraphic" in2="BackgroundImageFix" mode="normal" result="shape"/><feColorMatrix in="SourceAlpha" result="hardAlpha" type="matrix" values="0 0 0 0 0 0 0 0 0 0 0 0 0 0 0 0 0 0 127 0"/><feOffset/><feGaussianBlur stdDeviation="5.18518"/><feComposite in2="hardAlpha" k2="-1" k3="1" operator="arithmetic"/><feColorMatrix type="matrix" values="0 0 0 0 0.588235 0 0 0 0 0.721569 0 0 0 0 0.976471 0 0 0 0.1 0"/><feBlend in2="shape" mode="darken" result="effect1_innerShadow_2404_49884"/></filter><filter id="e" color-interpolation-filters="sRGB" filterUnits="userSpaceOnUse" height="19.0659" width="19.1296" x="98.697" y="38.0767"><feFlood flood-opacity="0" result="BackgroundImageFix"/><feBlend in="SourceGraphic" in2="BackgroundImageFix" mode="normal" result="shape"/><feColorMatrix in="SourceAlpha" result="hardAlpha" type="matrix" values="0 0 0 0 0 0 0 0 0 0 0 0 0 0 0 0 0 0 127 0"/><feOffset dx="-1.05491" dy="2.46147"/><feComposite in2="hardAlpha" k2="-1" k3="1" operator="arithmetic"/><feColorMatrix type="matrix" values="0 0 0 0 0.56 0 0 0 0 0.68718 0 0 0 0 0.933333 0 0 0 1 0"/><feBlend in2="shape" mode="normal" result="effect1_innerShadow_2404_49884"/></filter><filter id="f" color-interpolation-filters="sRGB" filterUnits="userSpaceOnUse" height="42.2472" width="42.3337" x="82.0583" y="31.688"><feFlood flood-opacity="0" result="BackgroundImageFix"/><feBlend in="SourceGraphic" in2="BackgroundImageFix" mode="normal" result="shape"/><feColorMatrix in="SourceAlpha" result="hardAlpha" type="matrix" values="0 0 0 0 0 0 0 0 0 0 0 0 0 0 0 0 0 0 127 0"/><feOffset dy="1.18519"/><feGaussianBlur stdDeviation="1.18519"/><feComposite in2="hardAlpha" k2="-1" k3="1" operator="arithmetic"/><feColorMatrix type="matrix" values="0 0 0 0 1 0 0 0 0 1 0 0 0 0 1 0 0 0 0.25 0"/><feBlend in2="shape" mode="normal" result="effect1_innerShadow_2404_49884"/></filter><linearGradient id="g" gradientUnits="userSpaceOnUse" x1="120.005" x2="120.003" y1="134.806" y2="174"><stop offset="0" stop-color="#ddeaff"/><stop offset="1" stop-color="#feffff" stop-opacity="0"/></linearGradient><linearGradient id="h"><stop offset="0" stop-color="#254a84"/><stop offset="1" stop-color="#2f5f98"/></linearGradient><linearGradient id="i" gradientUnits="userSpaceOnUse" x1="163.7" x2="170.743" xlink:href="#h" y1="58.6617" y2="74.2136"/><linearGradient id="j" gradientUnits="userSpaceOnUse" x1="171.173" x2="165.885" y1="110.095" y2="146.42"><stop offset="0" stop-color="#d9e9ff"/><stop offset="1" stop-color="#c4daf8"/></linearGradient><linearGradient id="k" gradientUnits="userSpaceOnUse" x1="160.373" x2="150.415" y1="101.82" y2="150.487"><stop offset="0" stop-color="#d8e8fe"/><stop offset="1" stop-color="#fff" stop-opacity="0"/></linearGradient><linearGradient id="l" gradientUnits="userSpaceOnUse" x1="157.18" x2="170.632" xlink:href="#h" y1="62.2964" y2="88.6777"/><linearGradient id="m" gradientUnits="userSpaceOnUse" x1="113.85" x2="97.205" y1="62.3053" y2="44.329"><stop offset="0" stop-color="#7695d4"/><stop offset="1" stop-color="#aacafc" stop-opacity=".35"/></linearGradient><linearGradient id="n" gradientUnits="userSpaceOnUse" x1="108.309" x2="108.309" y1="34.9912" y2="61.1005"><stop offset="0" stop-color="#cbdfff"/><stop offset=".703125" stop-color="#98b7e9"/><stop offset=".96875" stop-color="#98b9ee"/></linearGradient><linearGradient id="o" gradientUnits="userSpaceOnUse" x1="144.468" x2="144.291" y1="65.3397" y2="81.0509"><stop offset=".11644" stop-color="#254a84"/><stop offset="1" stop-color="#3b70af"/></linearGradient><clipPath id="p"><path d="m0 0h240v180h-240z"/></clipPath><g clip-path="url(#p)"><path clip-rule="evenodd" d="m120.005 134.806c66.3 0 120.048 13.566 120.048 30.3s-53.748 30.301-120.048 30.301c-66.3004 0-120.048457-13.567-120.048457-30.301s53.748057-30.3 120.048457-30.3z" fill="url(#g)" fill-rule="evenodd"/><path clip-rule="evenodd" d="m169.037 156.732c18.571 0 33.629 1.858 33.629 4.148s-15.054 4.148-33.629 4.148c-18.572 0-33.63-1.858-33.63-4.148s15.058-4.148 33.63-4.148z" fill="#e2efff" fill-rule="evenodd"/><path clip-rule="evenodd" d="m105.778 144.596c26.793 0 48.519 1.925 48.519 4.296 0 2.372-21.721 4.297-48.519 4.297-26.7938 0-48.519-1.925-48.519-4.297 0-2.371 21.7252-4.296 48.519-4.296z" fill="#e2efff" fill-rule="evenodd"/><path clip-rule="evenodd" d="m91.1689 166.63c-.6149-1.408-1.9609-2.311-3.452-2.311-.855 0-1.6441.308-2.2881.829-.8498-2.166-2.771-3.677-5.0063-3.677-2.6471 0-4.7372 2.145-5.3627 4.931-.3959 1.763-.132 2.18 1.7392 2.18 3.4414 0 10.5537.003 13.4726.003 1.1981.003 1.4647-.658.8973-1.955z" fill="#eaf4ff" fill-rule="evenodd"/><path clip-rule="evenodd" d="m43.4208 151.446c-.6413-1.07-1.821-1.644-3.0561-1.644-.8551 0-1.6442.308-2.2908.829-.8498-2.166-2.771-3.677-5.0063-3.677-3.0218 0-5.4287 2.522-5.4287 5.926 0 .323.1241.88.5278 1.185 0 0 .3642.297 1.3196.297 3.0904 0 9.7409-.294 13.0187-.294 1.0292 0 1.7312-1.268.9158-2.622z" fill="#cfe0fa" fill-rule="evenodd"/><path clip-rule="evenodd" d="m44.5588 151.76c-.7337-1.002-1.8263-1.666-3.0693-1.666-.8551 0-1.6442.309-2.2908.83-.8497-2.166-2.771-3.677-5.0063-3.677-2.4412 0-4.4812 1.81-5.2123 4.285-.6888 2.328-.0607 2.826 1.3249 2.826h13.4594c1.2958.003 2.0717-.85.7944-2.598z" fill="#eaf4ff" fill-rule="evenodd"/><path clip-rule="evenodd" d="m199.243 152.667c.366-1.21 1.724-2.468 3.34-2.468.8 0 1.54.287 2.144.774.796-2.016 2.595-3.425 4.691-3.425 2.637 0 4.81 2.232 5.095 5.102-.032-.323.47 1.524-1.065 1.524-2.848 0-10.769 0-13.558 0-.612.002-.994-.361-.647-1.507z" fill="#cedefc" fill-rule="evenodd"/><path clip-rule="evenodd" d="m200.083 152.666c.367-1.211 1.724-2.468 3.34-2.468.801 0 1.541.287 2.146.774.796-2.017 2.595-3.426 4.689-3.426 2.638 0 4.811 2.232 5.095 5.103-.032-.323.471 1.523-1.065 1.523-2.847 0-10.769 0-13.557 0-.613.002-.995-.36-.648-1.506z" fill="#e9f3ff" fill-rule="evenodd"/><path clip-rule="evenodd" d="m40.253 8.87305h114.161c1.611 0 2.919 1.32745 2.919 2.96295v85.037c0 1.6356-1.308 2.963-2.919 2.963h-114.161c-1.6117 0-2.9197-1.3274-2.9197-2.963v-85.037c0-1.6355 1.308-2.96295 2.9197-2.96295z" fill="#b6cdfb" fill-rule="evenodd"/><path clip-rule="evenodd" d="m40.253 8.87305h114.161c1.611 0 2.919 1.32745 2.919 2.96295v7.2593h-119.9997v-7.2593c0-1.6355 1.308-2.96295 2.9197-2.96295z" fill="#94b2ec" fill-rule="evenodd"/><g filter="url(#a)"><path clip-rule="evenodd" d="m45.63 16.5771h115.852c1.635 0 2.963 1.2842 2.963 2.8665v82.2674c0 1.582-1.328 2.866-2.963 2.866h-115.852c-1.6356 0-2.963-1.284-2.963-2.866v-82.2674c0-1.5823 1.3274-2.8665 2.963-2.8665z" fill="#e1edff" fill-rule="evenodd"/></g><g filter="url(#b)"><path clip-rule="evenodd" d="m43.5562 23.0957h121.7778v77.2493c0 1.682-1.327 3.047-2.963 3.047h-115.8519c-1.6355 0-2.9629-1.365-2.9629-3.047z" fill="#c0d9ff" fill-rule="evenodd"/></g><path clip-rule="evenodd" d="m57.1854 31.6885h86.2226c1.635 0 2.963 1.3899 2.963 3.1026v53.0541c0 1.7126-1.328 3.1025-2.963 3.1025h-86.2226c-1.6356 0-2.963-1.3899-2.963-3.1025v-53.0541c0-1.7127 1.3274-3.1026 2.963-3.1026z" fill="#f2f6ff" fill-rule="evenodd"/><path d="m129.854 80.7697c-12.563 1.4222-1.482 16.8449 5.629 23.7583h26.963v-23.7583c-5.629-.5926-20.029-1.4223-32.592 0z" fill="#b8d0ff" fill-opacity=".5"/><g filter="url(#c)"><path d="m83.9613 77.6134-1.3545-13.7653-.236-3.6458 5.3016-5.4572 6.0969-8.8354h24.3877l6.096 9.3552 5.302 4.9374-1.856 17.4111h-6.096v-2.5987h-31.8099v2.5987z" fill="#d9e7ff"/><path d="m91.8848 55.2178h27.9242" stroke="#f2f6ff" stroke-linecap="round" stroke-linejoin="round" stroke-width=".592593"/><g clip-rule="evenodd" fill-rule="evenodd"><path d="m118.341 63.242c0-.3273.265-.5926.592-.5926h5.893c.327 0 .592.2653.592.5926v1.0794c0 .3273-.265.5926-.592.5926h-5.893c-.327 0-.592-.2653-.592-.5926zm-20.8269 5.6785c0-.3273.2653-.5926.5926-.5926h12.9703c.327 0 .592.2653.592.5926v1.0794c0 .3272-.265.5926-.592.5926h-12.9703c-.3273 0-.5926-.2654-.5926-.5926zm-10.7655-6.2697c-.3273 0-.5926.2653-.5926.5926v1.0793c0 .3273.2653.5926.5926.5926h5.8924c.3273 0 .5926-.2653.5926-.5926v-1.0793c0-.3273-.2653-.5926-.5926-.5926z" fill="#f2f6ff"/><path d="m122.45 54.1237.723-2.2692c.34-1.0685 1.421-1.805 2.424-1.3035.907.4534 1.681 1.2259 1.558 2.4537-.209 2.0888-3.224 1.6163-4.705 1.119zm-33.3065.0003-.7229-2.2692c-.3405-1.0686-1.4211-1.805-2.4242-1.3035-.907.4534-1.6814 1.2258-1.5585 2.4537.2092 2.0888 3.2242 1.6163 4.7056 1.119z" fill="#e5efff"/></g></g><path clip-rule="evenodd" d="m60.4453 38.2069c0-.3273.2653-.5926.5925-.5926h17.7778c.3273 0 .5926.2653.5926.5926v3.5555c0 .3273-.2653.5926-.5926.5926h-17.7778c-.3272 0-.5925-.2653-.5925-.5926zm-.0007 43.2592c0-.3273.2653-.5926.5926-.5926h17.7778c.3272 0 .5925.2653.5925.5926v3.5555c0 .3273-.2653.5926-.5925.5926h-17.7778c-.3273 0-.5926-.2653-.5926-.5926zm.5926-35.5562c-.3273 0-.5926.2653-.5926.5926v3.5556c0 .3272.2653.5926.5926.5926h3.5555c.3273 0 .5926-.2654.5926-.5926v-3.5556c0-.3273-.2653-.5926-.5926-.5926z" fill="#e5efff" fill-rule="evenodd"/><g filter="url(#d)"><path clip-rule="evenodd" d="m46.5191 15.3916h115.8519c1.636 0 2.963 1.3274 2.963 2.963v4.7407h-121.7778v-4.7407c0-1.6356 1.3274-2.963 2.9629-2.963z" fill="#d6e6ff" fill-rule="evenodd"/></g><g clip-rule="evenodd" fill-rule="evenodd"><path d="m171.711 63.893s9.447 6.7703 9.858 9.6255c.411 2.8553-5.397 18.8216-5.397 18.8216.906.7011 1.436 1.7814 1.436 2.9267v3.1371c0 .4091.247 1.2436.522 2.0451.33.965-.335 2.008-1.354 2.059l-1.417.071c-.679.034-1.294-.398-1.491-1.049l-.322-1.057-.575-1.5574-1.5 2.2084c-.366.539-1.209.181-1.073-.456.63-2.9424 1.498-7.0307 1.497-7.1776-.01-.7749-1.315-16.8485-1.315-16.8485l-5.716-6.2552z" fill="#f19885"/><path d="m154.471 56.7143c2.542-2.5418 6.797-2.4084 9.507.3007l12.953 10.3071-8.925 8.8232-13.233-9.9294c-2.707-2.7062-2.844-6.9627-.302-9.5016z" fill="url(#i)"/><path d="m148.256 145.261 5.214-.665 2.128 11.922-5.214.664z" fill="#f5ae9f"/><path d="m176.923 143.334 5.094-2.939 4.531 8.039-3.874 3.596z" fill="#f5ae9f"/><path d="m147.645 87.9323s10.941 31.2057 12.869 36.0477c1.927 4.841 18.092 22.44 18.092 22.44l5.519-3.335-10.147-22.752s-2.125-9.56-.684-17.899c1.992-11.4924-.977-14.6986-.977-14.6986z" fill="#d8e8fe"/><path d="m147.645 87.9323s10.941 31.2057 12.869 36.0477c1.927 4.841 18.092 22.44 18.092 22.44l5.519-3.335-10.147-22.752s-2.125-9.56-.684-17.899c1.992-11.4924-.977-14.6986-.977-14.6986z" fill="url(#j)"/><path d="m148.181 87.3989s-9.153 27.2651-9.133 32.3731c.019 5.108 9.133 31.416 9.133 31.416l6.442-1.122-1.27-28.19 13.892-23.0016s1.598-10.2384-3.292-13.0799c-5.001-2.9032-15.772 1.6044-15.772 1.6044z" fill="#e1eefe"/><path d="m148.181 87.3989s-9.153 27.2651-9.133 32.3731c.019 5.108 9.133 31.416 9.133 31.416l6.442-1.122-1.27-28.19 13.892-23.0016s1.598-10.2384-3.292-13.0799c-5.001-2.9032-15.772 1.6044-15.772 1.6044z" fill="url(#k)"/><path d="m142.815 55.5018s1.252 3.8693 1.594 6.0562c.024.4554 2.552-.2011 4.421-1.5513 1.61-1.162 3.224-3.0812 3.224-3.0812l-3.921-7.0042z" fill="#f19885"/><path d="m143.097 56.3755.764 2.7864s1.723-1.3699 2.114-1.8295c1.148-1.3556 2.339-4.4376 2.339-4.4376l-.316-1.8282s-.809-1.9323-1.807-.1028c-1.001 1.8298-3.094 5.4117-3.094 5.4117z" fill="#e98772"/><path d="m137.886 44.9622s.01 2.1397.507 3.6968c.889 2.746.915 4.53 1.521 6.4023.606 1.8724 1.024 2.4265 2.68 1.8904 2.275-.7362 4.714-2.9042 5.18-4.0203.226-.5428-.075-3.313-.944-5.8995-.918-2.7321-2.33-5.2724-8.944-2.0697z" fill="#f5ae9f"/><path d="m140.938 49.7856.012-.0041c.208-.0659.43.048.495.2544l.088.2766c.066.2063-.049.4272-.257.4932l-.012.0039c-.208.066-.43-.0478-.495-.2543l-.088-.2764c-.066-.2065.049-.4274.257-.4933z" fill="#363e52"/><path d="m139.343 49.091.419.428s.793-.4387 1.323-.6198c.53-.1814 1.029-.3271 1.029-.3271s-.651-.2959-1.191-.1829c-.541.1132-1.58.7018-1.58.7018z" fill="#363e52"/><path d="m146.22 40.8872c-2.205-.1929-5.417 1.1583-6.153 1.4397-.736.2815-1.284-.1358-1.571-.5946-.286-.4589-2.004 1.476-1.89 2.6801.113 1.2041.396 2.0779 1.347 2.4596.998-.3232 3.495-1.131 4.662-1.7846 1.168-.6536 1.451.22 1.359 1.215-.092.9949.316 1.8282.477 2.3274.203.3326.483.2933.826.4222.773.2896 1.336-.9839 1.575.1798.156.4287.207.334.532.7929.283.8736.685 1.3769.887 2.0011.218.6721 1.194.328 1.194.328s.926-3.0984.8-4.4307c-.228-2.4084-.497-6.7256-4.045-7.0359z" fill="#363e52"/><path d="m146.055 48.2406c.709-.3955 1.39-.1607 1.785.5425.395.7033.375 1.8036-.334 2.1991s-1.624-.0474-2.018-.7507c-.398-.7029-.145-1.5951.567-1.9909z" fill="#f5ae9f"/><path d="m146.112 49.2911s.066-.0481.165-.1145c.347-.2278 1.109-.6495.891.1918-.28 1.0834-1.011.8777-.77.4313.242-.4464-.286-.5086-.286-.5086z" fill="#cd7162"/></g><path d="m141.128 54.5042c-.158.0438-.25.2072-.206.3648.044.1577.207.25.365.2061zm1.65-.7874c.049-.1561-.038-.3224-.194-.3713-.156-.049-.323.0379-.372.1941zm-1.571 1.0729c.08.2854.08.2854.08.2854v-.0001s.001-.0001.001-.0001c0-.0002.001-.0003.001-.0004.001-.0003.002-.0007.004-.0012.003-.0008.007-.002.012-.0035.01-.003.023-.0073.04-.0129.034-.0111.08-.0277.136-.0503.111-.045.263-.1152.424-.2166.32-.2007.706-.5403.873-1.0732l-.566-.1772c-.108.3472-.366.5883-.622.7484-.125.0789-.244.1341-.331.1693-.044.0175-.078.0298-.101.0375-.012.0038-.02.0065-.025.008-.003.0008-.005.0013-.005.0015-.001.0001-.001.0002-.001.0002 0-.0001 0-.0001 0-.0001s.001-.0001.001-.0001c0-.0001 0-.0001.079.2854z" fill="#cd7162"/><path clip-rule="evenodd" d="m139.062 50.2016c-.092.9949-.264 1.7401-.562 2.5258-.208.5486.281.7364 1.03.494" fill="#f5ae9f" fill-rule="evenodd"/><path d="m139.357 50.2288c.015-.163-.105-.3072-.268-.3223-.163-.015-.307.1049-.322.2679zm-.857 2.4986-.277-.1049zm1.121.7759c.156-.0504.242-.2174.191-.3731-.05-.1557-.217-.2411-.373-.1907zm-.854-3.3289c-.09.9708-.257 1.6896-.544 2.4481l.554.2098c.308-.813.486-1.5846.58-2.6035zm-.544 2.4481c-.066.1745-.092.3604-.038.5357.058.1846.191.3115.35.3832.293.1313.692.0897 1.086-.0381l-.182-.5638c-.354.1146-.574.1003-.661.0612-.017-.0077-.024-.0141-.025-.0154-.001-.0007-.001-.0008-.002-.0032-.002-.0066-.012-.0499.026-.1498z" fill="#cd7162"/><path d="m141.59 57.0485c.59-.0472 1.516-.5876 1.697-.5735.182.0141-.279.9758-.873 1.086-.594.1101-1.221-.4808-.824-.5125z" fill="#343d51"/><path clip-rule="evenodd" d="m142.688 58.2593 8.159-5.7466 3.448 2.9983-11.607 6.3897z" fill="#3b6eb4" fill-rule="evenodd"/><path clip-rule="evenodd" d="m146.163 94.5513-7.308-33.2568s9.101-4.2587 11.931-5.2403c7.586-3.1089 8.899-2.2099 12.481 4.5405 3.763 7.0981 9.217 27.2221 9.217 27.2221s-6.755 4.934-15.472 7.0009c-8.714 2.0669-10.849-.2664-10.849-.2664z" fill="url(#l)" fill-rule="evenodd"/><path clip-rule="evenodd" d="m149.426 155.676c.567-.026 1.964.421 3.507.281 1.132-.044 1.918-.704 2.33-1.063.054-.047.194-.059.194-.059l1.83 5.255c.134.385-.152.787-.56.787h-17.048c-.314 0-.342-.091-.194-.369.06-.115.133-.264.218-.459.125-.283.343-.515.626-.64 3.051-1.347 8.47-3.703 9.097-3.733z" fill="#7d89a1" fill-rule="evenodd"/><path clip-rule="evenodd" d="m186.705 147.859c-.118-.1-.292-.093-.402.016l-.104.104-.596 1.055c-.484.857-1.223 1.542-2.114 1.96l-1.69.792-2.02 2.111c-.383.4-.842.719-1.35.939l-3.597 1.554c-.258.112-.467.311-.592.562l-.023.047c-.184.37.058.784.472.779 1.768-.022 5.544-.204 7.313-.293.62-.032 1.212-.258 1.696-.647l6.411-5.149c.29-.233.297-.672.014-.913z" fill="#7d89a1" fill-rule="evenodd"/><path clip-rule="evenodd" d="m113.082 58.2841c.996-.5726 2.267-.2331 2.84.759l6.861 11.8444c.573.992.233 2.257-.762 2.8296-.996.5726-2.267.233-2.84-.759l-6.861-11.8444c-.573-.9921-.23-2.2604.762-2.8296z" fill="#7695d4" fill-rule="evenodd"/><path d="m97.79 54.8456c-3.0275-5.228-1.2322-11.9183 4.021-14.943zm4.021-14.9433c5.26-3.0263 11.981-1.2268 15.015 4.0068 3.031 5.2283 1.235 11.9213-4.02 14.9427v.0004c-5.26 3.0265-11.981 1.2274-15.0156-4.0059z" stroke="#7296e0" stroke-width="4.21966"/><path d="m97.79 54.8456c-3.0275-5.228-1.2322-11.9183 4.021-14.943zm4.021-14.9433c5.26-3.0263 11.981-1.2268 15.015 4.0068 3.031 5.2283 1.235 11.9213-4.02 14.9427v.0004c-5.26 3.0265-11.981 1.2274-15.0156-4.0059z" stroke="url(#m)" stroke-opacity=".3" stroke-width="4.21966"/><g filter="url(#e)"><path clip-rule="evenodd" d="m103.481 39.3554c4.574-2.6332 10.423-1.0686 13.063 3.4888 2.64 4.5573 1.075 10.3863-3.502 13.0195-4.574 2.6332-10.423 1.0686-13.063-3.4887-2.6399-4.5607-1.0719-10.3897 3.502-13.0196z" fill="#f0f7ff" fill-rule="evenodd"/></g><path d="m115.514 48.6567h-16.3117c-.3329 1.4426-.9987 4.5274-.9987 4.6606 0 .1331 3.8834 3.3844 5.8254 4.9934l8.988.6658 3.662-6.8244z" fill="#e1ecfa"/><g filter="url(#f)"><path d="m98.7893 53.5141c-3.0276-5.2281-1.2322-11.9183 4.0207-14.9431zm4.0207-14.9433c5.26-3.0263 11.981-1.2268 15.016 4.0068 3.031 5.2283 1.235 11.9213-4.02 14.9426l-.001.0004c-5.26 3.0266-11.981 1.2274-15.0153-4.0058z" stroke="#0a5ee4" stroke-width="4.21966"/><path d="m98.7893 53.5141c-3.0276-5.2281-1.2322-11.9183 4.0207-14.9431zm4.0207-14.9433c5.26-3.0263 11.981-1.2268 15.016 4.0068 3.031 5.2283 1.235 11.9213-4.02 14.9426l-.001.0004c-5.26 3.0266-11.981 1.2274-15.0153-4.0058z" stroke="url(#n)" stroke-width="4.21966"/><g clip-rule="evenodd" fill-rule="evenodd"><path d="m114.413 57.0389c.996-.5725 2.267-.233 2.84.759l6.861 11.8445c.573.992.233 2.257-.762 2.8296-.996.5725-2.267.233-2.84-.759l-6.861-11.8445c-.572-.9887-.233-2.257.762-2.8296z" fill="#98b7e9"/><path d="m90.4635 32.0074c-.8306.5692-1.0426 1.7041-.4733 2.5347l1.427 2.0825c.5693.8306 1.7041 1.0425 2.5347.4733s1.0426-1.704.4734-2.5347l-1.4271-2.0824c-.5692-.8307-1.704-1.0426-2.5347-.4734zm-8.3738 9.9298c-.1849.9899.4677 1.9421 1.4575 2.127l4.9978.9333c.9899.1849 1.9422-.4677 2.127-1.4575.1849-.9899-.4677-1.9422-1.4576-2.127l-4.9977-.9334c-.9899-.1848-1.9422.4678-2.127 1.4576z" fill="#a2bfee"/></g></g><path clip-rule="evenodd" d="m134.207 74.6092-1.761 6.4525-8.194-11.573-1.752-5.366s-.713-.8153-1.145-.8797c0 0-1.033.2713-1.095.6875l.05 1.5673c-2.196-.2015-5.397-1.7318-5.765-1.2847-.357.4347.165 3.083.524 4.6917.175.7785.747 1.4018 1.5 1.664l3.781 1.316s6.396 24.6343 16.256 23.1263c5.291.1666 8.364-20.3987 8.364-20.3987z" fill="#f5ae9f" fill-rule="evenodd"/><path clip-rule="evenodd" d="m142.428 60.8406c3.331.6548 5.464 4.0629 4.767 7.6121l-3.539 15.4149-11.363-3.6792 2.837-14.112c.698-3.5493 3.966-5.8934 7.298-5.2358z" fill="url(#o)" fill-rule="evenodd"/><path d="m135.599 78.4371c-.037-.029-.077-.0548-.119-.077-.042-.0216-.086-.0387-.132-.0509-.08-.0208-.163-.0259-.244-.0149-.08.0101-.157.0353-.228.0741-.071.0398-.134.0928-.185.1563-.055.0681-.094.1469-.116.2313-.024.0884-.03.1807-.018.2716.013.0815.04.16.082.2313.041.0696.095.1307.159.1796.065.0496.139.0859.217.1069.04.0103.081.0168.122.0195.047.0031.093.0026.14-.0015l.021-.0015.084-.3113c-.085.0462-.183.0586-.276.0346-.046-.012-.09-.0333-.127-.0628-.036-.0281-.066-.0628-.088-.1024-.023-.0399-.037-.0839-.042-.1294-.005-.0526 0-.1057.014-.1566.012-.0469.033-.091.062-.1297.028-.0365.062-.0672.101-.0905.039-.0228.082-.0377.127-.0438.048-.0066.097-.0034.143.0095.046.012.089.033.127.062.038.0289.069.0651.093.1065z" fill="#fdcf33"/><path d="m137.739 80.251-.247-.6085.029.0009c.075.0057.15-.0151.212-.0589.056-.0415.095-.1067.118-.1937.014-.0499.019-.1017.016-.1534-.004-.0452-.017-.0891-.039-.129-.023-.0421-.056-.0785-.096-.1065-.048-.0343-.103-.0592-.16-.0733l-.464-.1243-.32 1.1923.274.0733.139-.5212.197.6109zm-.263-.8091c-.043.0181-.098.0188-.163.0013l-.077-.0206.089-.3311.076.0206c.066.0175.113.0452.141.0828.015.0195.025.0424.029.0665s.002.0489-.006.0721c-.005.0239-.016.0462-.031.0651-.016.0188-.036.0337-.058.0433z" fill="#fdcf33"/><path d="m138.816 79.4523-.169.0475c-.008-.0417-.026-.0807-.053-.1136-.025-.0257-.058-.0435-.093-.0515-.045-.0138-.093-.0107-.136.0087-.019.0084-.036.021-.049.037-.013.0159-.023.0347-.028.0549-.016.0583.015.1167.092.1752l.106.0806c.086.065.144.1317.174.2001.03.0715.034.1512.011.2254-.012.0508-.034.0986-.065.1403-.032.0417-.071.0765-.117.102-.045.0258-.096.0422-.148.0482-.051.0061-.104.0016-.154-.0132-.095-.0218-.178-.0793-.232-.1606-.05-.0791-.068-.1764-.055-.292l.193.0087c-.011.0722-.009.1245.004.1568.012.0304.031.0573.056.0784.024.0211.054.0356.086.0422.026.0077.053.01.079.0068.027-.0033.053-.012.076-.0257.023-.0139.044-.0324.06-.0544s.027-.0471.033-.0737c.006-.0213.009-.0435.008-.0656-.002-.0217-.007-.043-.017-.0625-.01-.0218-.024-.0419-.04-.0598-.021-.0223-.043-.0428-.067-.0613l-.102-.0785c-.144-.113-.199-.2357-.163-.3683.01-.0429.03-.0829.059-.117.028-.0342.063-.0616.103-.0802.087-.0427.188-.0508.28-.0228.138.0374.227.1334.268.2879z" fill="#fdcf33"/><path d="m138.863 79.9055c.02-.0811.058-.1571.11-.223.051-.0659.116-.1204.19-.1599.073-.0429.154-.0705.239-.0813.084-.0107.169-.0042.251.019.082.0207.158.058.225.1095s.122.1161.163.1899c.044.0723.072.1528.083.2365.012.0837.006.1688-.017.2501-.021.0819-.058.1587-.11.2253-.052.0667-.117.1218-.191.1619-.074.0427-.156.07-.241.0804-.084.0104-.17.0037-.252-.0198-.154-.0408-.286-.1375-.372-.2711-.104-.1537-.13-.3262-.078-.5175zm.18.0512c-.018.0599-.023.123-.015.1851.008.0622.029.1219.061.1755.029.0511.068.096.114.132.047.0359.1.0622.157.0773.058.017.12.0218.18.014.061-.0077.119-.0277.171-.0589.054-.0305.1-.0715.137-.1205s.064-.105.079-.1647c.017-.0587.022-.1204.015-.1812s-.026-.1196-.057-.1726c-.029-.0532-.069-.0996-.117-.1364-.048-.0369-.103-.0632-.162-.0775-.059-.017-.12-.0218-.18-.014-.06.0077-.118.0279-.17.0592-.053.0302-.099.0708-.136.1194-.036.0486-.062.1042-.077.1633z" fill="#fdcf33"/><path d="m142.444 80.4153-.478-.128-.077.2861.464.1243-.045.1682-.464-.1244-.107.3994.478.1281-.045.1692-.658-.1763.319-1.1921.658.1763z" fill="#fdcf33"/><path d="m136.322 79.8709.309.0828-.134-1.3138-.3-.0803-.773 1.0707.309.0829.526-.7858z" fill="#fdcf33"/><path d="m141.466 79.9733-.196-.0525-.517.8759-.009-1.0168-.196-.0526-.532 1.1342.178.0476.391-.8811.018 1.0018.164.0442.517-.8586-.102.9583.177.0476z" fill="#fdcf33"/></g></svg>