<svg width="24" height="24" viewBox="0 0 24 24" fill="none" xmlns="http://www.w3.org/2000/svg">
<path d="M1.85478 0H22.1452C22.3889 0 22.6302 0.0479959 22.8553 0.141247C23.0804 0.234499 23.285 0.371179 23.4573 0.543486C23.6296 0.715792 23.7663 0.920349 23.8596 1.14548C23.9528 1.37061 24.0008 1.6119 24.0008 1.85558V22.1436C24.0008 22.636 23.8052 23.1081 23.4571 23.4563C23.1089 23.8044 22.6368 24 22.1444 24H1.85637C1.36403 24 0.891856 23.8044 0.543719 23.4563C0.195581 23.1081 0 22.636 0 22.1436V1.85478C0 1.36286 0.195414 0.891091 0.543253 0.543253C0.891091 0.195414 1.36286 0 1.85478 0Z" fill="#173559"/>
<path d="M3.74448 3.80029V8.37282C3.75505 8.56688 3.73547 8.7614 3.68641 8.94946C3.66308 9.025 3.61423 9.09009 3.54823 9.13361C3.48222 9.17713 3.40315 9.19638 3.32453 9.18806C3.18615 9.1943 3.04782 9.17489 2.91651 9.1308L2.79322 9.08069L2.55859 9.98979L2.6604 10.0248C2.87786 10.1024 3.10715 10.1417 3.33805 10.1409C3.55037 10.1619 3.76468 10.134 3.96456 10.0593C4.16444 9.98471 4.34459 9.86533 4.49122 9.71034C4.63784 9.55535 4.74705 9.36885 4.81049 9.16514C4.87392 8.96143 4.88989 8.74591 4.85719 8.53507V3.80029H3.74448Z" fill="white"/>
<path d="M7.66716 7.23554C7.61134 7.32174 7.53399 7.39187 7.44277 7.43902C7.35154 7.48617 7.24959 7.50869 7.14699 7.50437C7.045 7.50845 6.9436 7.48693 6.85205 7.44178C6.7605 7.39663 6.68171 7.32929 6.62285 7.24588C6.47708 7.02567 6.40623 6.76431 6.42083 6.50063C6.40731 6.24192 6.47308 5.98526 6.60933 5.76492C6.66646 5.68248 6.74375 5.61603 6.83382 5.5719C6.9239 5.52776 7.02377 5.50742 7.12393 5.51279C7.22619 5.50789 7.32805 5.5286 7.42028 5.57305C7.5125 5.6175 7.59217 5.68427 7.65205 5.76731C7.79395 5.98465 7.86329 6.2414 7.85009 6.50063C7.86377 6.75836 7.80006 7.0143 7.66716 7.23554ZM8.48002 5.11352C8.30538 4.93757 8.09585 4.8001 7.8649 4.70997C7.63395 4.61984 7.3867 4.57903 7.13904 4.59017C6.88938 4.58144 6.64077 4.62665 6.41018 4.72273C6.17958 4.81881 5.97243 4.9635 5.80283 5.14693C5.46469 5.52548 5.285 6.01954 5.30096 6.52688C5.28827 6.79211 5.33229 7.057 5.43008 7.30387C5.52787 7.55075 5.67718 7.77393 5.86805 7.95853C6.21312 8.27042 6.66627 8.43536 7.13109 8.41824C7.3808 8.42858 7.62983 8.3853 7.86141 8.29132C8.09299 8.19735 8.30176 8.05485 8.47365 7.87342C8.81328 7.49814 8.99405 7.00572 8.97791 6.49984C8.9897 6.24826 8.95179 5.99683 8.86636 5.75992C8.78093 5.523 8.64965 5.30524 8.48002 5.11909" fill="white"/>
<path d="M13.6541 4.66128C13.2163 4.67333 12.7956 4.83375 12.461 5.11623C12.3591 4.9644 12.2188 4.84229 12.0544 4.76237C11.8899 4.68245 11.7072 4.64757 11.5249 4.66128C11.1303 4.67315 10.7486 4.80462 10.4305 5.03828L10.3605 4.74082H9.41797V8.41141H10.5227V5.92591C10.7224 5.75504 10.9723 5.65371 11.2346 5.63719C11.3372 5.63719 11.6116 5.63719 11.6116 6.22576V8.413H12.7171V5.92591C12.915 5.75514 13.1633 5.65375 13.4242 5.63719C13.6008 5.63719 13.8052 5.70241 13.8052 6.21223V8.413H14.9028V5.96329C14.9286 5.791 14.9145 5.61509 14.8617 5.44907C14.8089 5.28305 14.7188 5.13135 14.5982 5.00562C14.4776 4.87989 14.3298 4.78347 14.1661 4.72378C14.0024 4.66409 13.8273 4.64271 13.6541 4.66128Z" fill="white"/>
<path d="M6.84094 12.0027H6.68186V10.5464H6.82503C7.04365 10.531 7.25966 10.6015 7.42712 10.7429C7.49536 10.8081 7.54883 10.8873 7.58395 10.9749C7.61907 11.0626 7.63502 11.1568 7.63073 11.2511C7.63073 11.7601 7.3794 11.9995 6.83537 11.9995L6.84094 12.0027ZM8.24157 9.99841C7.86368 9.69917 7.38996 9.54739 6.90854 9.5713H5.56836V14.594H6.68186V12.9237H6.80594C7.08435 12.9413 7.3633 12.899 7.62398 12.7997C7.88466 12.7004 8.12102 12.5463 8.31713 12.3479C8.60112 12.0464 8.75634 11.6461 8.7498 11.232C8.7626 11.0022 8.72382 10.7724 8.63629 10.5595C8.54876 10.3466 8.41471 10.156 8.24395 10.0016" fill="white"/>
<path d="M10.5273 12.4459L10.8828 11.4915C10.9091 11.4215 10.9321 11.3547 10.9536 11.2927C10.9759 11.3579 10.9997 11.4287 11.0268 11.5042L11.3576 12.4475L10.5273 12.4459ZM11.3608 9.55322H10.5655L8.61523 14.5974H9.72874L10.1718 13.398H11.7179L12.1952 14.5974H13.3826L11.3608 9.55322Z" fill="white"/>
<path d="M16.1463 9.57471L15.3589 11.0318C15.2642 11.2044 15.1775 11.3754 15.0948 11.5424C15.0232 11.4064 14.9302 11.2338 14.814 11.0239L14.0258 9.57471H12.7891L14.507 12.6074V14.5958H15.6205V12.6209L17.3393 9.57471H16.1463Z" fill="white"/>
<path d="M15.8168 4.64404V7.23533H18.2267V15.5802C18.2414 15.9791 18.1637 16.376 17.9998 16.7399C17.8359 17.1039 17.5902 17.425 17.2818 17.6784C16.6191 18.1588 15.8003 18.3733 14.9872 18.2797C14.1862 18.3607 13.383 18.1497 12.7252 17.6856C12.1984 17.2513 11.8372 16.6488 11.7024 15.9795C11.6769 15.8618 11.6157 15.6041 11.6157 15.6041H9.01562V15.6614C9.03269 16.1193 9.09827 16.5742 9.21128 17.0183C9.45717 17.959 9.99622 18.7969 10.7503 19.4107C11.2827 19.8998 11.9094 20.2748 12.5921 20.5127C13.2748 20.7506 13.9989 20.8462 14.7199 20.7938C16.3126 20.9182 17.8904 20.4121 19.1135 19.3845C19.6828 18.9315 20.1345 18.348 20.4305 17.6835C20.7265 17.0189 20.858 16.2929 20.814 15.5667V4.64404H15.8168Z" fill="white"/>
</svg>
