<svg width="22" height="20" viewBox="0 0 22 20" fill="none" xmlns="http://www.w3.org/2000/svg">
<path d="M4.07021 15L3.30601 15.71C3.10554 15.8974 2.99302 16.1508 2.99302 16.415C2.99302 16.6792 3.10554 16.9326 3.30601 17.12C3.50767 17.3063 3.78047 17.4108 4.06483 17.4108C4.34918 17.4108 4.62198 17.3063 4.82364 17.12L5.58784 16.41C5.76417 16.2187 5.85631 15.9726 5.84585 15.7209C5.83539 15.4693 5.72309 15.2305 5.5314 15.0524C5.33971 14.8743 5.08275 14.77 4.81186 14.7603C4.54097 14.7506 4.27611 14.8362 4.07021 15ZM3.38135 10C3.38135 9.73478 3.26795 9.48043 3.0661 9.29289C2.86425 9.10536 2.59048 9 2.30502 9H1.22868C0.943218 9 0.669447 9.10536 0.467595 9.29289C0.265743 9.48043 0.152344 9.73478 0.152344 10C0.152344 10.2652 0.265743 10.5196 0.467595 10.7071C0.669447 10.8946 0.943218 11 1.22868 11H2.30502C2.59048 11 2.86425 10.8946 3.0661 10.7071C3.26795 10.5196 3.38135 10.2652 3.38135 10ZM10.9157 3C11.2012 3 11.4749 2.89464 11.6768 2.70711C11.8786 2.51957 11.992 2.26522 11.992 2V1C11.992 0.734784 11.8786 0.48043 11.6768 0.292893C11.4749 0.105357 11.2012 0 10.9157 0C10.6302 0 10.3565 0.105357 10.1546 0.292893C9.95277 0.48043 9.83937 0.734784 9.83937 1V2C9.83937 2.26522 9.95277 2.51957 10.1546 2.70711C10.3565 2.89464 10.6302 3 10.9157 3ZM4.07021 5.05C4.27069 5.23474 4.54128 5.3389 4.82364 5.34C4.96529 5.34076 5.10572 5.31554 5.23685 5.26577C5.36799 5.21601 5.48727 5.14268 5.58784 5.05C5.78831 4.86264 5.90083 4.60919 5.90083 4.345C5.90083 4.08081 5.78831 3.82736 5.58784 3.64L4.82364 2.93C4.61774 2.76617 4.35288 2.68057 4.08199 2.69029C3.8111 2.70001 3.55414 2.80434 3.36245 2.98244C3.17076 3.16053 3.05846 3.39927 3.048 3.65095C3.03753 3.90262 3.12968 4.1487 3.30601 4.34L4.07021 5.05ZM16.9862 5.34C17.2686 5.3389 17.5392 5.23474 17.7397 5.05L18.5039 4.34C18.6165 4.25035 18.7081 4.14004 18.7727 4.01597C18.8373 3.89191 18.8736 3.75677 18.8793 3.61905C18.885 3.48133 18.86 3.344 18.8059 3.21568C18.7518 3.08735 18.6697 2.9708 18.5648 2.87335C18.46 2.77589 18.3345 2.69964 18.1964 2.64936C18.0583 2.59909 17.9104 2.57588 17.7622 2.5812C17.614 2.58652 17.4685 2.62025 17.335 2.68027C17.2015 2.7403 17.0827 2.82532 16.9862 2.93L16.2974 3.64C16.0969 3.82736 15.9844 4.08081 15.9844 4.345C15.9844 4.60919 16.0969 4.86264 16.2974 5.05C16.4871 5.22536 16.7404 5.32875 17.0078 5.34H16.9862ZM20.6027 9H19.5264C19.2409 9 18.9672 9.10536 18.7653 9.29289C18.5635 9.48043 18.4501 9.73478 18.4501 10C18.4501 10.2652 18.5635 10.5196 18.7653 10.7071C18.9672 10.8946 19.2409 11 19.5264 11H20.6027C20.8882 11 21.162 10.8946 21.3638 10.7071C21.5657 10.5196 21.6791 10.2652 21.6791 10C21.6791 9.73478 21.5657 9.48043 21.3638 9.29289C21.162 9.10536 20.8882 9 20.6027 9ZM10.9157 17C10.6302 17 10.3565 17.1054 10.1546 17.2929C9.95277 17.4804 9.83937 17.7348 9.83937 18V19C9.83937 19.2652 9.95277 19.5196 10.1546 19.7071C10.3565 19.8946 10.6302 20 10.9157 20C11.2012 20 11.4749 19.8946 11.6768 19.7071C11.8786 19.5196 11.992 19.2652 11.992 19V18C11.992 17.7348 11.8786 17.4804 11.6768 17.2929C11.4749 17.1054 11.2012 17 10.9157 17ZM17.7612 15C17.5567 14.8943 17.3207 14.8534 17.089 14.8835C16.8572 14.9136 16.6424 15.0131 16.4769 15.1668C16.3115 15.3205 16.2044 15.5202 16.172 15.7355C16.1396 15.9508 16.1836 16.17 16.2974 16.36L17.0616 17.07C17.2632 17.2563 17.536 17.3608 17.8204 17.3608C18.1048 17.3608 18.3776 17.2563 18.5792 17.07C18.7797 16.8826 18.8922 16.6292 18.8922 16.365C18.8922 16.1008 18.7797 15.8474 18.5792 15.66L17.7612 15ZM10.9157 4.5C9.74487 4.5 8.60033 4.82257 7.62681 5.42692C6.6533 6.03126 5.89454 6.89025 5.44648 7.89524C4.99842 8.90023 4.88119 10.0061 5.1096 11.073C5.33802 12.1399 5.90183 13.1199 6.72974 13.8891C7.55764 14.6583 8.61246 15.1821 9.7608 15.3943C10.9091 15.6065 12.0994 15.4976 13.1811 15.0813C14.2628 14.6651 15.1874 13.9601 15.8379 13.0556C16.4884 12.1512 16.8356 11.0878 16.8356 10C16.8327 8.54212 16.2081 7.14471 15.0985 6.11383C13.989 5.08295 12.4849 4.50264 10.9157 4.5ZM10.9157 13.5C10.1706 13.5 9.44228 13.2947 8.82277 12.9101C8.20326 12.5256 7.72041 11.9789 7.43529 11.3394C7.15016 10.6999 7.07555 9.99612 7.22091 9.31718C7.36627 8.63825 7.72506 8.01461 8.25191 7.52513C8.77876 7.03564 9.45 6.7023 10.1808 6.56725C10.9115 6.4322 11.669 6.50151 12.3573 6.76642C13.0457 7.03133 13.6341 7.47993 14.048 8.0555C14.4619 8.63108 14.6829 9.30777 14.6829 10C14.6829 10.9283 14.286 11.8185 13.5795 12.4749C12.873 13.1313 11.9148 13.5 10.9157 13.5Z" fill="#2E2E2E"/>
</svg>
