<svg width="106" height="106" viewBox="0 0 106 106" fill="none" xmlns="http://www.w3.org/2000/svg">
<mask id="mask0_33_624" style="mask-type:alpha" maskUnits="userSpaceOnUse" x="0" y="0" width="106" height="106">
<path d="M53 106C82.2711 106 106 82.2711 106 53C106 23.7289 82.2711 0 53 0C23.7289 0 0 23.7289 0 53C0 82.2711 23.7289 106 53 106Z" fill="#D5DBE4"/>
</mask>
<g mask="url(#mask0_33_624)">
<path d="M53 106C82.2711 106 106 82.2711 106 53C106 23.7289 82.2711 0 53 0C23.7289 0 0 23.7289 0 53C0 82.2711 23.7289 106 53 106Z" fill="#D5DBE4"/>
<path d="M77.3712 52.8674L75.079 60.5192L73.2969 107.696L83.6716 101.203C83.6716 101.203 80.3591 82.4347 77.3712 52.8674Z" fill="#243872"/>
<path d="M77.3714 52.867L63.1741 45.9372L58.1324 44.2611L52.0838 43.2475L43.0208 44.2611L28.1013 54.0065L42.6763 78.4726L32.2419 120.919L58.1324 124.284L79.3324 122.959L75.2978 100.766L76.3048 77.6312L77.3714 52.867Z" fill="#2A3F88"/>
<path d="M48.1286 42.0616L43.2923 44.2677L28.1012 54.0065C28.1012 54.0065 16.4346 79.1351 19.8332 92.7495L28.9161 112.426L37.5286 109.199L31.4336 94.3593C30.9699 92.9478 30.9699 91.4249 31.4336 90.0133L34.7461 74.279L37.2106 100.779L35.4284 122.562L56.6284 121.648" fill="#2A3F88"/>
<path d="M37.6276 48.6205L42.1326 45.0828L48.4793 40.4122L48.5588 40.3724L50.1091 39.7497C50.1745 39.7346 50.2424 39.7346 50.3078 39.7497L54.1768 40.4122C54.2119 40.4062 54.2477 40.4062 54.2828 40.4122L63.5578 46.3747C63.619 46.4139 63.6655 46.4721 63.6903 46.5403L69.8847 62.1819C69.903 62.2301 69.9106 62.2817 69.9067 62.3331C69.9029 62.3844 69.8878 62.4343 69.8625 62.4792C69.8372 62.5241 69.8023 62.5629 69.7604 62.5928C69.7184 62.6227 69.6704 62.643 69.6197 62.6523L66.7643 63.169C66.7134 63.1789 66.6653 63.2 66.6235 63.2306C66.5817 63.2613 66.5472 63.3009 66.5225 63.3465C66.4978 63.3921 66.4835 63.4426 66.4806 63.4944C66.4778 63.5462 66.4864 63.598 66.506 63.646L67.9635 67.1507C67.9815 67.1913 67.9909 67.2354 67.9909 67.2799C67.9909 67.3244 67.9815 67.3684 67.9635 67.409L58.8673 90.4773C58.8441 90.5386 58.8039 90.5921 58.7513 90.6313C58.6988 90.6706 58.6361 90.694 58.5707 90.6989C58.5053 90.7037 58.4399 90.6898 58.3821 90.6588C58.3243 90.6278 58.2766 90.5809 58.2446 90.5237L44.935 67.4753C44.8976 67.4182 44.8777 67.3514 44.8777 67.2832C44.8777 67.2149 44.8976 67.1482 44.935 67.091L47.4061 63.7785C47.4458 63.7277 47.4704 63.6666 47.4772 63.6024C47.4839 63.5382 47.4724 63.4734 47.4441 63.4154C47.4158 63.3574 47.3718 63.3085 47.317 63.2743C47.2623 63.2402 47.199 63.222 47.1344 63.222H43.3582C43.2877 63.2214 43.2191 63.1996 43.1612 63.1594C43.1033 63.1192 43.0588 63.0626 43.0336 62.9968L37.5149 49.0247C37.4888 48.954 37.4856 48.8769 37.5058 48.8044C37.526 48.7318 37.5686 48.6675 37.6276 48.6205Z" fill="#374D93"/>
<path d="M54.9058 81.7321C55.4424 66.1302 46.6113 50.8 42.1328 45.0826L44.4847 43.3999L48.1814 40.7101L52.8918 40.0476L57.5956 42.3995L62.6438 45.7584L63.9688 52.1515V109.312H57.2643L54.9058 81.7321Z" fill="#E0DEEC"/>
<path d="M47.3534 47.9317L46.3862 40.5315C46.3799 40.4827 46.3843 40.4331 46.3992 40.3862C46.4141 40.3393 46.439 40.2962 46.4723 40.2599L47.7973 38.7693C47.8428 38.7206 47.8997 38.6842 47.9629 38.6633L51.1628 37.7027C51.2067 37.6961 51.2514 37.6961 51.2953 37.7027L57.6421 38.3652C57.7276 38.3734 57.8069 38.4133 57.8645 38.4771C57.9221 38.5408 57.9538 38.6237 57.9535 38.7097V42.6515C57.9542 42.7272 57.9772 42.8009 58.0197 42.8635L58.9207 44.0097C58.952 44.0511 58.9745 44.0984 58.9869 44.1488L60.4246 51.37C60.4346 51.4219 60.4327 51.4754 60.4192 51.5265C60.4057 51.5775 60.3808 51.6249 60.3464 51.665C60.312 51.7051 60.269 51.737 60.2206 51.7582C60.1722 51.7794 60.1196 51.7894 60.0668 51.7874L53.8658 51.476C53.8156 51.4699 53.7665 51.4565 53.7201 51.4363L47.5588 48.19C47.505 48.1687 47.4577 48.1336 47.4217 48.0882C47.3856 48.0429 47.3621 47.9889 47.3534 47.9317Z" fill="#DFA692"/>
<path d="M56.7874 48.7797C56.7874 48.7797 47.5124 40.7104 46.6976 40.0347C45.3837 41.3267 44.4528 42.9569 44.0078 44.745L52.4149 53.4834L56.7874 48.7797Z" fill="#F8F7FD"/>
<path d="M58.1319 49.1172L57.7941 39.0273L62.1666 44.7447L62.8291 49.7863L59.8014 51.1113L58.1319 49.1172Z" fill="#F8F7FD"/>
<path d="M61.4514 48.4414H54.4753C54.4048 48.442 54.3362 48.4639 54.2783 48.504C54.2204 48.5442 54.1759 48.6009 54.1507 48.6667L53.3159 50.8927C53.2899 50.9629 53.2874 51.0397 53.309 51.1114C53.3305 51.1831 53.3748 51.2459 53.4352 51.2902L57.1187 54.0528C57.1618 54.0867 57.1967 54.13 57.2208 54.1793C57.2449 54.2286 57.2576 54.2828 57.2578 54.3377L56.5953 96.3335C56.5952 96.3925 56.6096 96.4505 56.6374 96.5025C56.6651 96.5546 56.7053 96.5989 56.7543 96.6317L61.0804 99.4075C61.1436 99.4497 61.2191 99.4694 61.2948 99.4634C61.3706 99.4574 61.4421 99.426 61.4978 99.3744L64.532 96.6449C64.5739 96.6083 64.6061 96.562 64.6257 96.51C64.6454 96.458 64.6519 96.4019 64.6447 96.3468L59.9608 53.5758C59.9473 53.5214 59.9473 53.4645 59.9608 53.4102L61.7562 48.9184C61.7776 48.8671 61.7863 48.8113 61.7815 48.7559C61.7767 48.7005 61.7585 48.6471 61.7286 48.6002C61.6986 48.5533 61.6578 48.5144 61.6095 48.4867C61.5612 48.4591 61.507 48.4435 61.4514 48.4414Z" fill="#497EF5"/>
<path d="M62.6508 30.7263C62.4056 24.7638 62.2996 22.4914 61.816 21.2989C61.816 17.0656 51.2889 18.1852 46.6911 21.2989C43.0143 23.7899 45.4788 29.2092 47.2013 31.6008C47.2194 31.9562 47.2592 32.3102 47.3205 32.6608L46.817 32.5416V40.3723C50.1295 43.0223 48.884 41.6973 52.647 43.6848C52.859 43.7974 58.2253 45.0098 58.2253 40.3723L60.6301 39.9019C63.0681 39.2394 62.8959 36.7683 62.6508 30.7263Z" fill="#DFA692"/>
<path d="M51.9447 39.2331C54.27 40.3593 58.3974 40.1871 60.1464 39.9486C59.3401 40.901 58.3424 41.6729 57.2181 42.2143C56.0927 42.7487 54.8664 43.0378 53.6208 43.0623C50.3083 43.0623 47.592 39.0476 46.7904 37.4509L46.9428 32.6611H47.274C47.9365 34.0987 49.6458 38.0803 51.9447 39.2331Z" fill="#CA8068"/>
<path d="M64.0284 19.3513C64.0284 19.3513 66.9302 20.5504 67.8974 22.0013H56.5355L57.7413 23.1872C57.7413 23.1872 52.905 21.9814 50.5134 21.9814C48.5259 21.9814 47.8237 21.7827 48.5259 24.9958C49.142 27.8445 50.6989 31.2299 48.7644 29.0503L46.9955 33.1247V37.1659C45.6705 33.33 44.2329 30.6005 43.4445 28.3017C42.8549 26.6653 40.9933 20.1993 42.6893 18.5497C44.3787 18.3045 43.1994 18.5497 44.1402 16.8669C45.3724 14.7005 53.8723 14.5482 60.4045 15.7473C63.1763 16.2456 65.9206 16.8869 68.6262 17.6685L64.0284 19.3513Z" fill="#2E2E2E"/>
<path d="M47.287 33.1247C47.7605 33.1208 48.2222 32.9768 48.614 32.7109C49.0057 32.445 49.31 32.0691 49.4885 31.6306C49.667 31.192 49.7116 30.7104 49.6169 30.2465C49.5221 29.7826 49.2921 29.3572 48.9559 29.0238C48.6198 28.6903 48.1924 28.4639 47.7278 28.373C47.2631 28.282 46.7819 28.3307 46.3448 28.5127C45.9078 28.6948 45.5344 29.0022 45.2717 29.3962C45.0091 29.7901 44.8689 30.253 44.8689 30.7265C44.8724 31.3649 45.1289 31.9759 45.5822 32.4254C46.0355 32.875 46.6486 33.1265 47.287 33.1247Z" fill="#DFA692"/>
<path d="M48.2612 30.7265C48.2612 29.958 46.8898 29.9315 46.3201 29.7659L47.0488 30.4747C46.8103 30.7132 46.6381 30.7861 47.0488 31.1969C47.2873 31.4685 48.2612 31.707 48.2612 30.7265Z" fill="#CA8068"/>
</g>
</svg>
