<svg width="106" height="106" viewBox="0 0 106 106" fill="none" xmlns="http://www.w3.org/2000/svg">
<path d="M53 106C82.2711 106 106 82.2711 106 53C106 23.7289 82.2711 0 53 0C23.7289 0 0 23.7289 0 53C0 82.2711 23.7289 106 53 106Z" fill="#D5DBE4"/>
<mask id="mask0_33_671" style="mask-type:alpha" maskUnits="userSpaceOnUse" x="0" y="0" width="106" height="106">
<path d="M53 106C82.2711 106 106 82.2711 106 53C106 23.7289 82.2711 0 53 0C23.7289 0 0 23.7289 0 53C0 82.2711 23.7289 106 53 106Z" fill="#D5DBE4"/>
</mask>
<g mask="url(#mask0_33_671)">
<path d="M65.5013 49.4027C65.5013 49.4027 67.4888 30.0842 65.0508 24.0223C65.0508 22.9093 66.4685 20.1864 62.5929 17.0727C58.7173 13.9589 46.7459 13.9125 43.7249 19.7624C40.7039 25.6123 38.6634 40.9624 38.4249 51.7479L65.5013 49.4027Z" fill="#2E2E2E"/>
<path d="M62.5266 47.097C62.5266 47.097 68.6746 55.1265 69.463 65.7861C70.2513 76.4457 65.1236 74.869 65.912 83.1569C66.7004 91.4447 65.912 107.239 65.912 107.239L71.8347 113.95L76.4722 103.853C76.4722 103.853 79.586 49.5814 62.5266 47.097Z" fill="#F9CF7B"/>
<path d="M69.2313 108.736C69.4168 103.694 66.4819 89.1393 65.9188 83.1569C65.1304 74.8691 70.2581 76.4458 69.4698 65.7862C68.8073 56.5907 64.1234 49.3562 62.8448 47.5409C62.5466 47.4482 62.2485 47.3554 61.9371 47.2892L50.0784 45.8516C45.2554 46.1696 36.6429 46.7658 35.0065 63.5138C34.4368 72.8749 35.1523 83.1569 34.8541 87.8143C35.4305 92.0543 33.7544 112.241 33.7544 112.241L69.2313 108.736Z" fill="#FFE3BD"/>
<path d="M47.7861 45.5006C47.7861 45.5006 47.3621 42.4133 50.2307 42.1881C53.0993 41.9628 60.4464 43.8311 61.4269 46.1631C62.4074 48.4951 61.8642 49.0516 62.0298 49.7737C62.1954 50.4958 58.1674 52.8079 52.5693 50.7277C46.9712 48.6474 47.7861 45.5006 47.7861 45.5006Z" fill="#F9CF7B"/>
<path d="M50.2572 43.5927C50.2572 43.5927 54.8948 46.3884 58.777 45.6663L58.8234 41.2342L50.9197 33.9467L49.1045 34.6092C50.3295 37.4347 50.7291 40.5494 50.2572 43.5927Z" fill="#DFA692"/>
<path d="M62.5267 47.097C63.1356 64.2263 58.9481 81.1852 50.436 96.0624L52.4235 97.2151C61.1222 82.0126 65.4165 64.6884 64.8255 47.1831C64.0703 47.1632 63.3018 47.1235 62.5267 47.097Z" fill="#145C6A"/>
<path d="M58.0482 19.0668C64.0107 18.5699 65.0905 22.5581 64.9911 30.8261C64.8918 39.0941 61.566 41.7375 58.2602 42.4C54.9543 43.0625 51.3569 38.425 50.7209 35.404C50.7209 35.404 49.8597 37.9016 47.4084 33.2575C46.3153 31.0448 48.7798 29.1566 50.6679 31.7205C50.6414 31.6874 48.2299 19.2854 58.0482 19.0668Z" fill="#F0BFAE"/>
<path d="M65.0512 24.0223C64.5835 23.6716 64.0432 23.4301 63.47 23.3154C62.8968 23.2008 62.3052 23.2159 61.7387 23.3598C61.5521 22.2181 61.1688 21.1175 60.6058 20.1069C60.6058 20.1069 61.6857 22.9822 60.8575 23.2273L59.3735 23.2869C59.2123 22.5482 58.9036 21.8497 58.4659 21.2332C58.4659 21.2332 59.1682 23.055 58.4659 23.4525L56.4387 23.9958C56.4387 23.9958 56.7169 21.8692 56.4387 21.4849C56.4387 21.4849 56.5579 24.3005 54.8354 24.7113C54.8354 24.7113 55.4383 22.0613 54.736 21.5247C54.736 21.5247 55.2462 23.9958 54.0735 25.1817C54.0735 25.1817 51.4766 26.5067 51.2381 28.037C50.9996 29.5674 50.5292 32.3565 50.5292 32.3565C50.5292 32.3565 49.8269 30.5413 48.5417 30.4618C47.2564 30.3823 47.2167 20.9947 47.2167 20.9947L54.6897 17.2383L59.7114 17.225L62.9577 18.4573L65.0512 24.0223Z" fill="#2E2E2E"/>
<path d="M56.763 93.1142L47.3621 112.545L42.241 112.333L23.8765 101.018L34.768 81.7987L56.763 93.1142Z" fill="#15525D"/>
<path opacity="0.2" d="M51.4429 90.3782L56.7627 93.1143L47.3619 112.545L42.4064 112.34L51.4429 90.3782Z" fill="#1C1918"/>
<path d="M51.443 90.3781L45.8714 103.582L26.1156 94.2869L33.5886 81.0501L51.443 90.3781Z" fill="#145C6A"/>
<path d="M38.2862 98.9577L37.5839 100.958L31.6744 98.3946L33.0193 96.4998L38.2862 98.9577Z" fill="white"/>
<path d="M40.644 49.4822C41.4167 49.2968 42.225 49.322 42.9847 49.555C43.7444 49.788 44.4277 50.2204 44.9635 50.8072C46.2885 52.2581 46.9047 54.2655 47.3353 56.1072C49.4818 65.4683 48.382 75.8431 47.693 85.297C47.5473 87.2845 47.3817 89.2719 47.2094 91.2594L45.6326 106.994L33.2174 106.331C33.2174 106.331 36.2185 92.3791 34.9465 83.8991C34.3859 79.4208 34.2749 74.8977 34.6153 70.3973C34.8736 65.3093 35.3639 60.1087 36.7817 55.1996C37.1459 53.8191 37.6683 52.4852 38.3385 51.2246C38.584 50.7925 38.9151 50.4151 39.3115 50.1155C39.708 49.8159 40.1614 49.6004 40.644 49.4822Z" fill="#F9CF7B"/>
</g>
</svg>
