<svg width="106" height="106" viewBox="0 0 106 106" fill="none" xmlns="http://www.w3.org/2000/svg">
<mask id="mask0_33_602" style="mask-type:alpha" maskUnits="userSpaceOnUse" x="0" y="0" width="106" height="106">
<path d="M53 106C82.2711 106 106 82.2711 106 53C106 23.7289 82.2711 0 53 0C23.7289 0 0 23.7289 0 53C0 82.2711 23.7289 106 53 106Z" fill="#D5DBE4"/>
</mask>
<g mask="url(#mask0_33_602)">
<path d="M53 106C82.2711 106 106 82.2711 106 53C106 23.7289 82.2711 0 53 0C23.7289 0 0 23.7289 0 53C0 82.2711 23.7289 106 53 106Z" fill="#D5DBE4"/>
<path d="M64.8918 28.2025C66.1837 22.9025 64.3088 20.3982 62.6128 19.0732C61.8111 17.0857 60.8969 15.7011 59.9628 15.1711C58.3593 14.358 56.5591 14.0136 54.7688 14.1773C55.085 13.9124 55.4635 13.7323 55.8685 13.654C54.9808 13.5215 52.9933 14.4026 52.9933 14.4026C40.6178 9.63921 38.6833 27.8248 38.9416 32.0715C39.2 36.3181 39.1669 41.2868 32.734 44.6126C20.4579 50.9726 36.8084 74.9352 36.8084 74.9352C36.497 71.5498 52.2711 53.4768 60.4928 48.0775C62.4803 45.1293 63.209 39.9221 63.262 39.5113C62.9175 43.6387 62.2086 45.9575 61.5793 47.2626C65.329 43.811 65.8855 35.5231 64.8918 28.2025Z" fill="#9D4B41"/>
<path d="M60.0089 48.3621C60.0486 48.3621 56.0339 50.4622 53.0195 49.6341C50.1774 48.8656 48.3224 45.1821 48.382 45.1755C49.5811 44.9303 49.9323 43.2807 49.9058 36.1787L50.449 36.2847L59.5915 38.1C59.5915 38.1 59.3795 40.9752 59.3729 43.6848C59.3464 45.944 59.4855 48.1037 60.0089 48.3621Z" fill="#F0BFAE"/>
<path d="M59.5721 38.0871C59.5721 38.0871 59.3601 40.9624 59.3534 43.672C54.2389 43.5262 51.5359 38.8622 50.4296 36.2719L59.5721 38.0871Z" fill="#DFA692"/>
<path d="M69.3435 82.2822C69.2706 96.2477 71.3972 102.237 71.3972 102.237C62.7328 106.084 52.9725 106.681 43.9035 103.919C43.7312 103.86 34.2972 101.342 34.2972 101.342C34.549 100.773 36.7684 91.3651 37.0135 90.8484C40.167 84.0776 39.8026 80.8512 40.1736 78.771C40.8127 74.9066 40.9352 70.9745 40.538 67.0779C39.9482 60.8488 38.7364 54.6944 36.9207 48.7067C40.9885 47.7792 44.7979 46.1561 49.0312 44.5661C50.0051 45.7785 53.0062 47.0505 55.5635 46.9909C58.5381 46.9246 59.5054 45.6659 59.3464 44.2614C62.5197 46.0236 65.0439 47.6931 65.0439 47.6931C67.7402 52.3704 73.1992 56.9151 73.5967 64.09C73.6961 65.8589 69.3501 81.8914 69.3435 82.2822Z" fill="#E8F0FB"/>
<path d="M61.2743 40.651C61.2743 40.651 49.1771 40.8498 49.1638 33.3105C49.1506 25.7713 47.5937 20.723 55.3185 20.2725C63.0432 19.822 64.5471 22.7039 65.1632 25.2214C65.7793 27.7389 64.4278 40.4125 61.2743 40.651Z" fill="#F0BFAE"/>
<path d="M60.8305 20.0867C60.8305 20.0867 57.518 28.931 52.43 30.2428C47.342 31.5545 45.1425 30.1898 45.1425 30.1898C45.1425 30.1898 45.9375 25.6384 46.7457 20.2523C46.7457 20.2258 58.3328 15.8997 60.8305 20.0867Z" fill="#9D4B41"/>
<path d="M60.0093 20.8089C60.0093 20.8089 62.4804 22.7964 63.0833 24.7044C63.6862 26.6124 63.9644 30.5741 65.1304 30.4747C65.1304 30.4747 67.628 24.4592 64.8257 21.0606C61.8179 17.4235 60.0093 20.8089 60.0093 20.8089Z" fill="#9D4B41"/>
<path d="M80.3213 91.9749L86.0387 109.399L82.7726 110.71L73.3253 95.3139L80.3213 91.9749Z" fill="#F0BFAE"/>
<path d="M81.7393 93.6706C81.7393 93.6706 80.8582 91.3916 79.6789 88.523C78.4997 85.6544 75.5516 57.677 73.5972 53.5099C71.6428 49.3427 64.9118 46.6662 64.9118 46.6662L59.3468 44.2614C59.3468 44.2614 66.3494 61.5592 66.5548 65.0639C66.7602 68.5685 67.3829 122.31 67.3829 122.31C67.3829 122.31 66.9656 124.782 71.7024 123.748C76.4393 122.715 77.6649 121.688 77.6649 121.688C77.6649 121.688 75.9424 109.1 74.9089 96.7446C78.3407 96.5326 81.7393 93.6706 81.7393 93.6706Z" fill="#C3ADA3"/>
<path d="M57.0808 66.0907C56.6701 61.7712 49.0447 44.6456 49.0314 44.6191C49.0314 44.6191 36.4903 45.5135 33.4693 52.2312L41.5319 66.7665C38.9747 77.3665 34.854 91.6566 31.4288 103.085C28.1495 114.042 25.5127 122.383 25.5127 122.383C25.5127 122.383 34.2974 126.087 40.4719 126.915C46.6464 127.743 48.4219 121.284 48.4219 121.284C48.4219 121.284 57.4982 70.4168 57.0808 66.0907Z" fill="#C3ADA3"/>
<path d="M45.3813 77.8502C45.1097 84.8528 45.9709 97.3542 31.2833 104.628L31.1641 104.681C35.1391 91.4315 38.2992 89.179 40.0681 63.8847C42.7644 67.9127 45.5337 73.9945 45.3813 77.8502Z" fill="#A48578"/>
<path d="M66.3917 89.2723L46.9236 74.3339L26.3228 101.181L45.7909 116.12L66.3917 89.2723Z" fill="#8C572F"/>
<path d="M65.8884 88.8861L46.4203 73.9477L25.8195 100.795L45.2876 115.734L65.8884 88.8861Z" fill="#8C604D"/>
<path d="M63.1419 89.7014L46.3439 76.8118L28.5702 99.9748L45.3683 112.864L63.1419 89.7014Z" fill="#E8F5FF"/>
<path d="M57.4583 86.6085L50.787 81.4873C50.6975 81.4029 50.6431 81.2879 50.6345 81.1651C50.6259 81.0424 50.6638 80.921 50.7406 80.8248L52.6618 78.3206C52.7362 78.2201 52.8457 78.1514 52.9685 78.1281C53.0912 78.1047 53.2183 78.1285 53.3243 78.1947L59.9957 83.3159C60.0865 83.3995 60.142 83.5147 60.1506 83.6379C60.1592 83.7611 60.1204 83.8829 60.0421 83.9784L58.1208 86.4826C58.0475 86.5844 57.9379 86.6541 57.8147 86.6775C57.6914 86.701 57.5639 86.6762 57.4583 86.6085Z" fill="#E29A58"/>
<path d="M41.8632 91.3253L52.0657 106.569L49.2766 108.709L36.0266 96.4266L41.8632 91.3253Z" fill="#F0BFAE"/>
<path d="M39.2925 102.853C29.1298 94.6048 26.6586 85.4027 26.6586 85.4027C24.1279 78.2079 29.3086 56.4117 33.5288 50.3763C37.7489 44.3409 48.4284 46.7193 48.4284 46.7193C47.2624 50.1466 46.0897 53.5696 44.9105 56.9881C42.976 62.5862 41.0481 68.1909 39.001 73.7493C38.6167 74.7894 38.2325 75.8296 37.8217 76.8564C37.0069 78.8439 36.8545 81.4939 38.1464 83.2959C39.7298 85.5087 46.845 96.9699 48.4217 99.1959L39.2925 102.853Z" fill="#C3ADA3"/>
</g>
</svg>
