<svg width="50" height="50" viewBox="0 0 50 50" fill="none" xmlns="http://www.w3.org/2000/svg">
<path d="M46.0429 12.2825C34.2747 11.9171 28.0004 4.91193 25.9627 1.80267C25.8864 1.68768 25.7829 1.59336 25.6613 1.52811C25.5397 1.46286 25.4039 1.42871 25.2659 1.42871C25.1279 1.42871 24.9921 1.46286 24.8705 1.52811C24.7489 1.59336 24.6454 1.68768 24.5691 1.80267C22.5313 4.89955 16.2756 11.9171 4.48892 12.2825C4.28267 12.2863 4.08509 12.3662 3.93417 12.5068C3.78325 12.6474 3.68964 12.8389 3.67134 13.0443C3.3183 17.3366 2.7175 38.6803 24.9221 48.4974C25.0312 48.5463 25.1494 48.5716 25.269 48.5716C25.3885 48.5716 25.5067 48.5463 25.6158 48.4974C47.8143 38.6803 47.2197 17.3366 46.8604 13.0505C46.8423 12.8445 46.7489 12.6523 46.5981 12.5106C46.4473 12.369 46.2497 12.2878 46.0429 12.2825Z" fill="black" stroke="white" stroke-width="0.63" stroke-miterlimit="10"/>
<path d="M25.6098 45.4811C25.5019 45.5302 25.3846 45.5556 25.266 45.5556C25.1475 45.5556 25.0302 45.5302 24.9223 45.4811C15.9537 41.3251 10.0882 34.6792 7.47447 25.6239C6.471 22.1264 6.00527 18.4967 6.09326 14.8591C6.09599 14.6577 6.17473 14.4647 6.3137 14.3189C6.45268 14.173 6.64162 14.085 6.8427 14.0725C10.2552 13.842 13.5874 12.9328 16.6441 11.3981C19.7007 9.86339 22.4203 7.73409 24.6436 5.13494C24.7191 5.04397 24.8138 4.97077 24.9209 4.92053C25.0279 4.87028 25.1447 4.84424 25.2629 4.84424C25.3812 4.84424 25.498 4.87028 25.605 4.92053C25.7121 4.97077 25.8068 5.04397 25.8823 5.13494C28.104 7.73594 30.8232 9.86652 33.8802 11.4014C36.9372 12.9363 40.2702 13.8444 43.6832 14.0725C43.8843 14.085 44.0732 14.173 44.2122 14.3189C44.3512 14.4647 44.4299 14.6577 44.4326 14.8591C44.5223 18.54 44.0439 22.2127 43.0143 25.7478C40.3881 34.7102 34.535 41.3437 25.6098 45.4811Z" fill="black" stroke="white" stroke-width="0.63" stroke-miterlimit="10"/>
<path d="M35.9344 22.7811L33.971 21.2017C34.7143 23.7968 32.4659 24.9922 29.5115 23.7968C28.0927 23.205 26.5707 22.9003 25.0334 22.9003C23.4961 22.9003 21.9741 23.205 20.5553 23.7968C17.5947 24.9922 15.3464 23.7968 16.0896 21.2017L14.1262 22.7811C14.1262 22.7811 13.5997 28.5165 15.4641 31.9974C17.3284 35.4783 21.2366 37.1011 20.3138 34.7598C19.459 32.592 22.6055 31.793 25.0334 31.6629C27.4552 31.7682 30.6078 32.5672 29.7469 34.7598C28.824 37.1011 32.7323 35.4845 34.5966 31.9974C36.4609 28.5103 35.9344 22.7811 35.9344 22.7811ZM15.5508 31.3161L14.2687 27.0733C14.6898 26.2124 16.8205 26.2124 17.2355 27.2654C18.8582 31.4709 17.2541 33.9732 15.5508 31.3161ZM34.5099 31.3161C32.8066 33.9732 31.2086 31.4709 32.8252 27.2654C33.2402 26.2124 35.3708 26.2124 35.792 27.0733L34.5099 31.3161Z" fill="#FED221"/>
<path d="M17.3967 27.0172C16.9818 25.9642 14.8511 25.9642 14.4299 26.8252C15.0493 26.2058 16.8517 26.2801 17.2295 27.234C18.0409 29.3336 18.0471 31.006 17.6383 31.8235C18.2019 31.167 18.2948 29.3584 17.3967 27.0172Z" fill="#FED221"/>
<path d="M29.908 34.5183C30.7566 32.3505 27.6163 31.5453 25.1884 31.4214C23.3302 31.5019 21.0881 31.9912 20.4873 33.168C21.2615 32.2018 23.3179 31.762 25.0521 31.6877C27.4739 31.793 30.6265 32.592 29.7656 34.7846C28.9046 36.9772 32.3669 35.6579 34.318 32.5239C32.3298 35.4535 29.0533 36.6799 29.908 34.5183Z" fill="#FED221"/>
<path d="M33.0049 26.9863C33.6243 26.2245 35.4143 26.2988 35.7921 27.073L34.5224 31.2662C34.5719 31.1981 34.6215 31.1423 34.671 31.068L35.9098 27.0111V26.7757C35.439 26.0077 33.4446 26.0077 33.0049 26.9863Z" fill="#FED221"/>
<path d="M15.6255 31.7555C14.9699 30.4346 14.5507 29.0092 14.3867 27.5438L14.2442 27.073C14.2639 27.0327 14.2889 26.9952 14.3186 26.9616C14.1788 25.533 14.156 24.0954 14.2504 22.6631L14.1018 22.7808C14.1018 22.7808 13.5753 28.5162 15.4396 31.9971C17.0438 34.9949 20.1531 36.6052 20.3946 35.5089C19.7257 36.0168 17.0686 34.4498 15.6255 31.7555Z" fill="#FED221"/>
<path d="M33.8784 23.1524C34.054 22.9022 34.176 22.6185 34.2368 22.319C34.2975 22.0195 34.2957 21.7107 34.2315 21.4119L33.9713 21.2075C34.1979 21.8427 34.1645 22.5417 33.8784 23.1524Z" fill="#FED221"/>
<path d="M17.7557 26.3857C17.3345 25.3328 15.2101 25.3266 14.7827 26.1875L14.9004 26.5778C15.6994 26.2866 16.932 26.491 17.2354 27.2653C17.8208 28.5627 18.0166 30.0022 17.7991 31.4089C18.5237 30.9629 18.7529 28.9871 17.7557 26.3857Z" fill="#FED221"/>
<path d="M33.3395 26.3856C33.2837 26.5281 33.2466 26.6643 33.197 26.8006C33.9527 26.2431 35.4454 26.367 35.7922 27.0731L34.6154 30.9628C34.7664 30.7948 34.9031 30.6146 35.0242 30.4239L35.7984 27.8659C35.8913 27.1536 35.947 26.4599 35.978 25.822C35.2348 25.3884 33.7235 25.4999 33.3395 26.3856Z" fill="#FED221"/>
<path d="M34.0334 22.7438C34.3311 22.457 34.5268 22.0807 34.5908 21.6723L33.9714 21.1768C34.1396 21.6828 34.1611 22.2261 34.0334 22.7438Z" fill="#FED221"/>
<path d="M30.2611 33.8801C31.1158 31.7123 27.9756 30.9071 25.5476 30.7832C23.516 30.8761 20.9828 31.4583 20.7227 32.9139C21.6208 32.0963 23.4727 31.737 25.0583 31.6751C27.4801 31.7804 30.6327 32.5794 29.7717 34.772C28.8489 37.1132 32.7571 35.4967 34.6215 32.0096C34.652 31.9578 34.6789 31.904 34.702 31.8485C32.7076 34.8092 29.3877 36.0541 30.2611 33.8801Z" fill="#FED221"/>
<path d="M16.8147 32.3935C16.4368 32.344 15.9971 32.0095 15.5759 31.3158L14.2938 27.0731C14.3999 26.8831 14.5652 26.733 14.7645 26.6457C14.603 25.2334 14.5595 23.8101 14.6345 22.3906L14.1513 22.7808C14.1513 22.7808 13.6249 28.5163 15.4892 31.9971C17.2978 35.3666 20.9955 36.9522 20.4009 34.9702C19.5523 34.9206 18.0286 33.9606 16.8147 32.3935Z" fill="#FED221"/>
<path d="M34.504 31.8608L35.7861 27.6181C35.7606 27.5572 35.7226 27.5023 35.6746 27.457L34.5101 31.3157C33.3519 33.1243 32.2432 32.5545 32.1627 30.653C32.0326 32.9571 33.2404 33.8304 34.504 31.8608Z" fill="#FED221"/>
<path d="M35.9287 23.3261C35.9287 23.3261 35.9968 24.0632 35.9968 25.1842C35.9968 23.7845 35.9349 22.7997 35.9349 22.7997L33.9714 21.2017C34.0302 21.4042 34.0717 21.6114 34.0953 21.821L35.9287 23.3261Z" fill="#FED221"/>
<path d="M29.8586 34.3882C29.8313 34.5148 29.794 34.639 29.7472 34.7598C29.6154 35.0136 29.5844 35.3079 29.6604 35.5836C29.6811 35.489 29.708 35.3959 29.741 35.3049C29.8639 35.016 29.9047 34.6987 29.8586 34.3882Z" fill="#FED221"/>
<path d="M20.5494 24.3417C21.9681 23.7498 23.4902 23.4451 25.0274 23.4451C26.5647 23.4451 28.0867 23.7498 29.5055 24.3417C32.175 25.4256 34.2623 24.5461 34.0951 22.4526C33.8845 24.1497 31.9397 24.769 29.5117 23.7966C28.0929 23.2048 26.5709 22.9001 25.0336 22.9001C23.4964 22.9001 21.9743 23.2048 20.5556 23.7966C18.078 24.7938 16.1332 24.1311 15.966 22.3906C15.7616 24.5275 17.8489 25.438 20.5494 24.3417Z" fill="#FED221"/>
<path d="M20.2026 34.3569C20.1465 34.6744 20.1831 35.0012 20.3078 35.2984C20.3445 35.3935 20.3756 35.4907 20.4008 35.5895C20.4834 35.3103 20.4522 35.0097 20.314 34.7533C20.261 34.6262 20.2236 34.4931 20.2026 34.3569Z" fill="#FED221"/>
<path d="M14.1263 23.3261L15.9844 21.8396C16.0064 21.6302 16.0458 21.423 16.1021 21.2202L14.1387 22.7996C14.1387 22.7996 14.0706 23.5615 14.0706 24.7011C14.0768 23.8526 14.1263 23.3261 14.1263 23.3261Z" fill="#FED221"/>
<path d="M15.5448 31.861C16.7836 33.8058 17.9851 32.9759 17.8922 30.7461C17.7808 32.5547 16.6907 33.0935 15.551 31.3159L14.3804 27.4448C14.3356 27.4986 14.2962 27.5567 14.2627 27.6182L15.5448 31.861Z" fill="#FED221"/>
<path d="M33.9465 23.5302C34.0779 23.1849 34.1287 22.8142 34.0952 22.4463C34.0797 22.5571 34.0569 22.6667 34.0271 22.7746C34.0392 23.0291 34.0121 23.284 33.9465 23.5302Z" fill="#FED221"/>
<path d="M20.4812 24.0134C21.9 23.4216 23.422 23.1168 24.9593 23.1168C26.4965 23.1168 28.0186 23.4216 29.4373 24.0134C31.7352 24.9425 33.5996 24.4222 33.9712 22.9357C33.4757 24.255 31.6919 24.6823 29.5117 23.7966C28.0929 23.2048 26.5709 22.9001 25.0336 22.9001C23.4963 22.9001 21.9743 23.2048 20.5555 23.7966C18.078 24.7938 16.1332 24.1311 15.9659 22.3906C15.9404 22.5963 15.9404 22.8043 15.9659 23.01C16.3809 24.4408 18.239 24.9239 20.4812 24.0134Z" fill="#FED221"/>
<path d="M15.9534 31.8361C15.8029 31.6759 15.6681 31.5017 15.5508 31.3159L15.4641 31.0186C14.8355 29.8502 14.448 28.5675 14.3244 27.2466L14.2687 27.0608L14.312 26.9926C14.312 26.7511 14.2749 26.5095 14.2749 26.2679C14.2758 24.718 14.6362 23.1894 15.3278 21.8022L14.1262 22.7685C14.1262 22.7685 13.5997 28.5039 15.4641 31.9848C17.0435 34.9392 20.0846 36.5434 20.4191 35.54C18.5988 34.7711 17.0455 33.4828 15.9534 31.8361Z" fill="#FED221"/>
<path d="M35.9342 22.7811L33.9708 21.2017C34.1847 21.822 34.1605 22.4997 33.9026 23.1031C34.2472 24.1271 34.423 25.2002 34.4229 26.2805C34.4229 26.3363 34.4229 26.392 34.4229 26.454C34.6873 26.4266 34.9542 26.4695 35.1967 26.5783C35.4392 26.687 35.6487 26.8578 35.8041 27.0733L34.522 31.3161C33.7602 32.4991 33.0231 32.6539 32.5834 32.0903C31.8205 33.1592 30.8596 34.0717 29.7528 34.7784C28.8547 37.0949 32.7506 35.4783 34.6087 31.9974C36.4669 28.5165 35.9342 22.7811 35.9342 22.7811Z" fill="#FED221"/>
<path d="M25.0525 13.2549C22.558 13.2488 20.1178 13.983 18.0409 15.3645C15.9639 16.746 14.3436 18.7128 13.385 21.0157C12.4264 23.3187 12.1728 25.8542 12.6561 28.3014C13.1395 30.7486 14.3381 32.9974 16.1002 34.763C17.8623 36.5286 20.1087 37.7316 22.555 38.2198C25.0012 38.7079 27.5373 38.4593 29.8421 37.5052C32.147 36.5512 34.1169 34.9348 35.5025 32.8605C36.8881 30.7863 37.6271 28.3475 37.6259 25.853C37.6259 22.5161 36.302 19.3155 33.9447 16.9536C31.5875 14.5917 28.3894 13.2615 25.0525 13.2549ZM25.0525 35.9179C23.0576 35.924 21.1057 35.3379 19.4442 34.2338C17.7827 33.1297 16.4862 31.5572 15.7191 29.7157C14.952 27.8741 14.7487 25.8463 15.1351 23.8892C15.5214 21.932 16.48 20.1335 17.8893 18.7216C19.2986 17.3097 21.0953 16.3478 23.0518 15.9578C25.0082 15.5679 27.0364 15.7674 28.8794 16.5311C30.7223 17.2948 32.2971 18.5883 33.4043 20.2478C34.5115 21.9073 35.1012 23.8581 35.0988 25.853C35.0955 28.5182 34.0366 31.0735 32.1538 32.9598C30.271 34.8461 27.7177 35.9097 25.0525 35.9179Z" fill="#FED221"/>
<path d="M35.1853 25.5495C35.1921 23.1146 34.316 20.7598 32.7194 18.9215C31.1227 17.0832 28.9137 15.886 26.5019 15.5518C24.09 15.2176 21.6388 15.7691 19.6025 17.104C17.5661 18.439 16.0828 20.4668 15.4272 22.8118C16.154 20.5192 17.6772 18.5622 19.7213 17.295C21.7655 16.0278 24.1957 15.534 26.5724 15.903C28.949 16.2719 31.1152 17.4791 32.679 19.3064C34.2429 21.1337 35.1012 23.4603 35.0986 25.8654C35.0948 26.7911 34.9656 27.712 34.7146 28.603C35.0263 27.6151 35.1851 26.5854 35.1853 25.5495Z" fill="#FED221"/>
<path d="M25.1141 38.1477C23.1947 38.1466 21.3009 37.7072 19.5771 36.863C17.8533 36.0187 16.3451 34.792 15.1676 33.2762C13.99 31.7605 13.1741 29.9958 12.7822 28.1168C12.3903 26.2378 12.4327 24.2942 12.9062 22.4341C12.4463 24.0411 12.3108 25.7235 12.5075 27.3834C12.7042 29.0433 13.2293 30.6474 14.0522 32.1024C14.875 33.5573 15.9792 34.834 17.3003 35.8579C18.6214 36.8819 20.1331 37.6328 21.7473 38.0667C23.3615 38.5007 25.0459 38.6091 26.7024 38.3856C28.3589 38.1621 29.9544 37.6112 31.3958 36.765C32.8373 35.9188 34.096 34.7942 35.0986 33.4568C36.1011 32.1193 36.8275 30.5957 37.2353 28.9747C36.4894 31.615 34.9019 33.9396 32.7141 35.5953C30.5263 37.251 27.8578 38.1471 25.1141 38.1477Z" fill="#FED221"/>
<path d="M35.6247 24.8558C35.615 22.5657 34.8247 20.3474 33.3841 18.5672C31.9436 16.7869 29.939 15.5512 27.7013 15.0639C25.4637 14.5767 23.1268 14.8671 21.0765 15.8873C19.0261 16.9074 17.385 18.5963 16.4241 20.675C17.7712 18.5196 19.884 16.9538 22.3381 16.2919C24.7922 15.63 27.4058 15.9212 29.654 17.1069C31.9023 18.2926 33.6187 20.285 34.4585 22.684C35.2983 25.083 35.1994 27.7109 34.1816 30.04C35.126 28.4757 35.625 26.683 35.6247 24.8558Z" fill="#FED221"/>
<path d="M25.5537 37.46C23.4326 37.4579 21.3462 36.9205 19.488 35.8976C17.6298 34.8747 16.0597 33.3994 14.9233 31.6083C13.7869 29.8173 13.1209 27.7684 12.987 25.6515C12.8531 23.5345 13.2556 21.418 14.1572 19.498C12.5966 22.4549 12.2746 25.9105 13.2619 29.1048C14.2493 32.2991 16.4651 34.9703 19.4219 36.5309C22.3787 38.0914 25.8344 38.4135 29.0287 37.4262C32.223 36.4388 34.8942 34.223 36.4547 31.2662C35.337 33.1608 33.7425 34.7296 31.8299 35.8163C29.9173 36.903 27.7534 37.4697 25.5537 37.46Z" fill="#FED221"/>
<path d="M14.7148 26.3114C14.7146 28.5822 15.4818 30.7864 16.8919 32.5663C18.302 34.3462 20.2722 35.5973 22.4828 36.1166C24.6934 36.6359 27.0146 36.3929 29.0697 35.427C31.1248 34.4611 32.7932 32.8291 33.804 30.7957C32.5425 33.1324 30.4087 34.8758 27.8675 35.6462C25.3263 36.4166 22.5836 36.1516 20.2369 34.9088C17.8903 33.666 16.1298 31.5462 15.3391 29.0112C14.5484 26.4763 14.7916 23.7315 16.0155 21.375C15.1629 22.8805 14.7147 24.5812 14.7148 26.3114Z" fill="#FED221"/>
<path d="M24.7862 13.713C26.9308 13.712 29.0401 14.2586 30.9145 15.3008C32.7888 16.3431 34.366 17.8466 35.4967 19.6689C36.6275 21.4912 37.2743 23.572 37.3759 25.7142C37.4775 27.8564 37.0305 29.9891 36.0774 31.9103C36.8713 30.4414 37.3653 28.8293 37.5306 27.1677C37.6959 25.5062 37.5293 23.8283 37.0404 22.2318C36.5515 20.6352 35.7501 19.1517 34.6828 17.8676C33.6155 16.5835 32.3036 15.5244 30.8233 14.7519C29.343 13.9793 27.724 13.5087 26.0602 13.3674C24.3964 13.2262 22.7212 13.4171 21.1319 13.929C19.5425 14.4409 18.0708 15.2637 16.8023 16.3495C15.5338 17.4352 14.4937 18.7623 13.7427 20.2536C14.8279 18.2734 16.4256 16.6214 18.3685 15.4706C20.3114 14.3199 22.528 13.7129 24.7862 13.713Z" fill="#FED221"/>
<path d="M27.4618 26.0078C27.3131 24.9362 26.4027 25.3884 25.4178 25.4751C25.0717 25.4441 24.7235 25.4441 24.3773 25.4751C23.3925 25.3698 22.482 24.9362 22.3334 26.0078C22.1413 27.3394 23.5721 28.8321 24.8109 28.8879H24.9595C26.1983 28.8197 27.6538 27.327 27.4618 26.0078Z" fill="#FED221"/>
<path d="M27.604 25.7167C27.4491 24.6452 26.5448 25.0974 25.5538 25.1841C25.2077 25.1531 24.8594 25.1531 24.5133 25.1841C23.5285 25.0788 22.6242 24.6452 22.4693 25.7167C22.2773 27.0484 23.7081 28.5411 24.9468 28.5968H25.0955C26.3404 28.5411 27.7898 27.0484 27.604 25.7167Z" fill="#FED221"/>
<path d="M25.1762 28.4419H25.0523C23.8136 28.3862 22.3704 26.8873 22.5748 25.5618C22.5804 25.4855 22.5971 25.4104 22.6244 25.3389C22.5633 25.4569 22.5235 25.5848 22.5067 25.7167C22.3147 27.0483 23.7454 28.541 24.9842 28.5968H25.1328C25.6631 28.516 26.1622 28.2956 26.5791 27.9581C26.996 27.6207 27.3156 27.1785 27.5051 26.6767C27.2982 27.1442 26.976 27.5514 26.5687 27.8602C26.1613 28.169 25.6822 28.3691 25.1762 28.4419Z" fill="#FED221"/>
<path d="M25.5043 27.6925H25.3556C24.7085 27.5954 24.1116 27.287 23.6579 26.8154C23.2042 26.3438 22.9192 25.7354 22.8472 25.085C22.7357 25.1464 22.6422 25.2358 22.576 25.3445C22.5097 25.4531 22.4729 25.5771 22.4693 25.7043C22.2773 27.036 23.7081 28.5287 24.9468 28.5844H25.0955C25.6838 28.4972 26.233 28.2377 26.6739 27.8387C27.1149 27.4397 27.4277 26.919 27.573 26.3423C27.348 26.705 27.0461 27.0139 26.6886 27.2472C26.3312 27.4805 25.9269 27.6325 25.5043 27.6925Z" fill="#FED221"/>
<path d="M24.2719 25.5497C24.6162 25.525 24.9619 25.525 25.3062 25.5497C26.2972 25.4506 27.2015 25.0171 27.3564 26.0886C27.4069 26.5654 27.2957 27.0453 27.0405 27.4512C27.2439 27.2134 27.3984 26.9378 27.4951 26.6402C27.5918 26.3426 27.6289 26.0289 27.6041 25.717C27.4493 24.6454 26.545 25.0976 25.554 25.1843C25.2078 25.1533 24.8596 25.1533 24.5134 25.1843C23.603 25.0852 22.7606 24.7136 22.519 25.5002C22.8969 25.2338 23.5596 25.4754 24.2719 25.5497Z" fill="#FED221"/>
<path d="M28.2728 26.0081C28.1434 25.6951 27.9255 25.4267 27.6458 25.2357C27.3661 25.0447 27.0367 24.9395 26.6981 24.9329C26.3595 24.9264 26.0264 25.0187 25.7395 25.1987C25.4526 25.3787 25.2244 25.6384 25.083 25.9462C24.9415 25.6384 24.7134 25.3787 24.4265 25.1987C24.1396 25.0187 23.8064 24.9264 23.4678 24.9329C23.1292 24.9395 22.7999 25.0447 22.5202 25.2357C22.2405 25.4267 22.0226 25.6951 21.8932 26.0081C21.7693 26.2497 21.4287 27.1663 22.4073 28.5228C23.2348 29.3929 24.1182 30.2081 25.052 30.9631V30.8888V30.9631C25.9964 30.198 26.8882 29.3703 27.7215 28.4856C28.7683 27.1354 28.3966 26.2187 28.2728 26.0081Z" fill="black"/>
</svg>
