<svg width="52" height="50" viewBox="0 0 52 50" fill="none" xmlns="http://www.w3.org/2000/svg">
<path d="M43.2641 23.8304C42.8338 23.8303 42.4046 23.873 41.9829 23.9579C42.4848 22.5131 42.504 20.9443 42.0375 19.4876C41.5711 18.0309 40.6441 16.7651 39.3962 15.8806C38.1483 14.9961 36.6469 14.5408 35.1179 14.5832C33.589 14.6256 32.1151 15.1633 30.9181 16.1155C29.945 15.9224 28.9586 15.8037 27.9675 15.7606C27.1211 13.6413 25.5138 11.9145 23.4607 10.9184C21.4076 9.9223 19.0565 9.72873 16.8681 10.3756C14.6796 11.0225 12.8116 12.4632 11.63 14.4155C10.4484 16.3677 10.0383 18.6909 10.4801 20.9297C9.16406 21.0181 7.8858 21.407 6.7435 22.0665C5.60121 22.726 4.62527 23.6385 3.89069 24.734C3.1561 25.8296 2.68241 27.0789 2.506 28.3861C2.32959 29.6932 2.45516 31.0234 2.87305 32.2745C3.29095 33.5255 3.99006 34.6641 4.91666 35.6029C5.84327 36.5416 6.97273 37.2554 8.21825 37.6895C9.46378 38.1236 10.7922 38.2664 12.1016 38.107C13.4109 37.9475 14.6663 37.4901 15.7712 36.7698C18.9911 39.3211 22.9947 40.6791 27.1022 40.6134C32.3324 40.6134 36.9635 38.5834 39.8143 35.4609C40.6404 35.9934 41.5792 36.3262 42.5563 36.4329C43.5334 36.5396 44.5219 36.4172 45.4434 36.0754C46.365 35.7337 47.1943 35.182 47.8655 34.464C48.5368 33.7461 49.0316 32.8816 49.3108 31.9392C49.5899 30.9968 49.6457 30.0023 49.4737 29.0346C49.3017 28.0669 48.9066 27.1525 48.3198 26.364C47.7331 25.5755 46.9707 24.9345 46.0931 24.4918C45.2155 24.0492 44.2469 23.817 43.2641 23.8137V23.8304Z" fill="black" stroke="black" stroke-width="3.51" stroke-miterlimit="10"/>
<path d="M43.2641 23.8304C42.8338 23.8303 42.4046 23.873 41.9829 23.9579C42.4848 22.5131 42.504 20.9443 42.0375 19.4876C41.5711 18.0309 40.6441 16.7651 39.3962 15.8806C38.1483 14.9961 36.6469 14.5408 35.1179 14.5832C33.589 14.6256 32.1151 15.1633 30.9181 16.1155C29.945 15.9224 28.9586 15.8037 27.9675 15.7606C27.1211 13.6413 25.5138 11.9145 23.4607 10.9184C21.4076 9.9223 19.0565 9.72873 16.8681 10.3756C14.6796 11.0225 12.8116 12.4632 11.63 14.4155C10.4484 16.3677 10.0383 18.6909 10.4801 20.9297C9.16406 21.0181 7.8858 21.407 6.7435 22.0665C5.60121 22.726 4.62527 23.6385 3.89069 24.734C3.1561 25.8296 2.68241 27.0789 2.506 28.3861C2.32959 29.6932 2.45516 31.0234 2.87305 32.2745C3.29095 33.5255 3.99006 34.6641 4.91666 35.6029C5.84327 36.5416 6.97273 37.2554 8.21825 37.6895C9.46378 38.1236 10.7922 38.2664 12.1016 38.107C13.4109 37.9475 14.6663 37.4901 15.7712 36.7698C18.9911 39.3211 22.9947 40.6791 27.1022 40.6134C32.3324 40.6134 36.9635 38.5834 39.8143 35.4609C40.6404 35.9934 41.5792 36.3262 42.5563 36.4329C43.5334 36.5396 44.5219 36.4172 45.4434 36.0754C46.365 35.7337 47.1943 35.182 47.8655 34.464C48.5368 33.7461 49.0316 32.8816 49.3108 31.9392C49.5899 30.9968 49.6457 30.0023 49.4737 29.0346C49.3017 28.0669 48.9066 27.1525 48.3198 26.364C47.7331 25.5755 46.9707 24.9345 46.0931 24.4918C45.2155 24.0492 44.2469 23.817 43.2641 23.8137V23.8304Z" fill="black" stroke="white" stroke-width="0.63" stroke-miterlimit="10"/>
<path d="M25.9988 32.671C29.8036 32.671 32.3826 33.0204 35.5772 33.2256C39.7757 33.2256 39.21 32.5268 39.4596 30.8407C39.5095 29.8812 39.4596 28.0232 39.4596 25.6217C39.4596 24.2906 39.3875 23.1425 38.3504 22.2939C37.0359 21.3843 36.5811 19.7371 33.9133 16.3982C33.1591 15.4886 32.1995 15.4665 29.0548 15.3999H23.1592C20.0144 15.4665 19.0549 15.4886 18.3006 16.3982C15.6273 19.726 15.1725 21.3899 13.8636 22.2939C12.8431 23.1314 12.7544 24.2795 12.7544 25.6217C12.7544 28.0232 12.7044 29.8812 12.7544 30.8407C12.9818 32.5046 12.416 33.2256 16.6367 33.2256C19.7371 33.0204 21.4731 32.671 25.9988 32.671Z" fill="white"/>
<path d="M13.4694 21.0073L15.0002 21.0794C15.1056 20.9352 15.211 20.7799 15.3219 20.6191C15.2552 20.6134 15.1933 20.5817 15.1498 20.5309C15.1062 20.48 15.0843 20.4141 15.0889 20.3473V20.2918L15.1555 19.5486C15.1594 19.5085 15.1548 19.468 15.1421 19.4297C15.1293 19.3915 15.1087 19.3563 15.0815 19.3265C15.0543 19.2967 15.0212 19.273 14.9843 19.2568C14.9473 19.2406 14.9074 19.2323 14.8671 19.2325H13.1533C13.081 19.2309 13.0109 19.257 12.9572 19.3054C12.9036 19.3539 12.8705 19.4211 12.8649 19.4932L12.754 20.1587C12.7362 20.2629 12.7414 20.3697 12.7692 20.4716C12.797 20.5736 12.8466 20.6683 12.9147 20.7491C12.9828 20.8299 13.0678 20.8948 13.1636 20.9394C13.2594 20.984 13.3638 21.0072 13.4694 21.0073Z" fill="white"/>
<path d="M38.7331 21.0074L37.2023 21.0795C37.0969 20.9353 36.9915 20.78 36.8806 20.6192C36.9473 20.6135 37.0092 20.5818 37.0527 20.531C37.0963 20.4801 37.1182 20.4142 37.1135 20.3474V20.2919L37.047 19.5765C37.0431 19.5363 37.0477 19.4958 37.0605 19.4576C37.0732 19.4193 37.0938 19.3841 37.121 19.3544C37.1482 19.3246 37.1813 19.3008 37.2182 19.2846C37.2552 19.2684 37.2951 19.2601 37.3354 19.2603H39.0492C39.1215 19.2587 39.1916 19.2848 39.2453 19.3333C39.2989 19.3817 39.332 19.4489 39.3376 19.521L39.4485 20.1866C39.4619 20.2886 39.4534 20.3924 39.4236 20.491C39.3939 20.5895 39.3435 20.6806 39.2758 20.7583C39.2082 20.8359 39.1248 20.8982 39.0312 20.9412C38.9377 20.9841 38.836 21.0067 38.7331 21.0074Z" fill="white"/>
<path d="M16.6249 33.1982C14.5506 33.1982 13.641 33.0262 13.2195 32.6436V34.3851C13.2195 34.4983 13.2645 34.607 13.3446 34.6871C13.4247 34.7671 13.5333 34.8121 13.6465 34.8121H16.1978C16.2541 34.8129 16.31 34.8024 16.3621 34.7812C16.4143 34.76 16.4617 34.7285 16.5015 34.6887C16.5413 34.6489 16.5727 34.6015 16.5939 34.5494C16.6151 34.4972 16.6256 34.4414 16.6249 34.3851V33.1982Z" fill="white"/>
<path d="M35.5769 33.198V34.3849C35.5762 34.4412 35.5867 34.4971 35.6079 34.5492C35.6291 34.6014 35.6606 34.6487 35.7004 34.6885C35.7402 34.7284 35.7875 34.7598 35.8397 34.781C35.8918 34.8022 35.9477 34.8127 36.004 34.812H38.5553C38.6685 34.812 38.7772 34.767 38.8573 34.6869C38.9374 34.6068 38.9824 34.4982 38.9824 34.3849V32.6489C38.5608 33.0261 37.6512 33.198 35.5769 33.198Z" fill="white"/>
<path d="M13.6356 27.2082C13.6341 27.2713 13.6534 27.3331 13.6905 27.3842C13.7275 27.4353 13.7803 27.4728 13.8408 27.491C14.7337 27.7739 18.3776 28.6003 19.0155 28.7556C19.0411 28.7615 19.0679 28.7603 19.093 28.7521C19.118 28.7439 19.1403 28.7289 19.1575 28.7089C19.1746 28.6889 19.186 28.6646 19.1902 28.6386C19.1945 28.6126 19.1916 28.5859 19.1818 28.5615C19.0931 28.3452 18.8879 27.8904 18.6993 27.4522C18.422 26.8255 17.7564 26.6203 17.102 26.4206L14.401 25.5831C14.3134 25.5566 14.2208 25.5507 14.1306 25.5658C14.0403 25.581 13.9548 25.6168 13.8807 25.6705C13.8065 25.7242 13.7459 25.7943 13.7033 25.8754C13.6608 25.9564 13.6376 26.0462 13.6356 26.1377V27.2082Z" fill="#FED221"/>
<path d="M38.3725 27.208C38.3739 27.2711 38.3547 27.3329 38.3176 27.384C38.2805 27.4351 38.2277 27.4726 38.1673 27.4908C37.2743 27.7737 33.6304 28.6001 32.9926 28.7554C32.9666 28.7637 32.9387 28.7642 32.9125 28.7568C32.8862 28.7494 32.8627 28.7343 32.8449 28.7136C32.8271 28.6929 32.8159 28.6674 32.8126 28.6403C32.8092 28.6131 32.814 28.5857 32.8262 28.5613C32.915 28.345 33.1146 27.8902 33.3087 27.452C33.586 26.8253 34.2516 26.6201 34.9061 26.4204L37.6015 25.5829C37.6894 25.5565 37.7822 25.5507 37.8728 25.5658C37.9633 25.581 38.0491 25.6168 38.1236 25.6704C38.1981 25.724 38.2593 25.794 38.3024 25.875C38.3456 25.956 38.3696 26.0458 38.3725 26.1375V27.208Z" fill="#FED221"/>
<path d="M26.1043 16.082C26.1043 16.082 31.2623 16.082 32.2495 16.3094C32.5399 16.3726 32.808 16.5124 33.026 16.7143C33.9549 17.8798 34.8071 19.1044 35.5773 20.3804C35.5876 20.4025 35.5922 20.427 35.5905 20.4514C35.5888 20.4758 35.5809 20.4994 35.5676 20.5199C35.5543 20.5404 35.536 20.5572 35.5144 20.5687C35.4928 20.5802 35.4686 20.586 35.4442 20.5856H16.7644C16.7395 20.587 16.7146 20.5819 16.6922 20.5708C16.6699 20.5597 16.6508 20.543 16.6368 20.5224C16.6228 20.5017 16.6144 20.4777 16.6125 20.4528C16.6106 20.4279 16.6151 20.403 16.6257 20.3804C17.3959 19.1044 18.2481 17.8798 19.177 16.7143C19.395 16.5124 19.6631 16.3726 19.9535 16.3094C20.9407 16.082 26.1043 16.082 26.1043 16.082Z" fill="black"/>
<path d="M29.4146 29.521H22.6038C22.3894 29.521 22.2156 29.6948 22.2156 29.9092V31.0518C22.2156 31.2662 22.3894 31.44 22.6038 31.44H29.4146C29.629 31.44 29.8029 31.2662 29.8029 31.0518V29.9092C29.8029 29.6948 29.629 29.521 29.4146 29.521Z" fill="black"/>
</svg>
