<svg width="50" height="50" viewBox="0 0 50 50" fill="none" xmlns="http://www.w3.org/2000/svg">
<path d="M37.7488 30.6272C25.9338 36.1832 25.0928 44.4137 24.7206 45.8544C24.3346 44.3861 23.5074 36.2038 11.6855 30.6272C15.0138 29.4273 17.9687 27.3748 20.255 24.6748C22.5413 21.9749 24.0788 18.722 24.7138 15.2416C24.717 15.228 24.717 15.2138 24.7138 15.2002C24.717 15.2138 24.717 15.228 24.7138 15.2416C25.35 18.7225 26.8887 21.9756 29.1762 24.6755C31.4636 27.3755 34.4197 29.4277 37.7488 30.6272Z" fill="white" stroke="black" stroke-width="1.5" stroke-linecap="round" stroke-linejoin="round"/>
<path d="M48.5716 21.8111C42.4711 24.6787 42.0368 28.9111 41.8438 29.6694C41.6508 28.9111 41.2165 24.6787 35.116 21.8111C36.8345 21.1925 38.3605 20.1334 39.5412 18.7398C40.7219 17.3462 41.5159 15.667 41.8438 13.8701C42.1736 15.6662 42.9683 17.3445 44.1487 18.7378C45.3291 20.131 46.8541 21.1907 48.5716 21.8111Z" fill="#FFCF33" stroke="black" stroke-width="1.5" stroke-linecap="round" stroke-linejoin="round"/>
<path d="M17.7447 19.0123C10.3483 22.4589 9.82443 27.6289 9.59006 28.5457C9.3488 27.6289 8.83179 22.4934 1.42847 19.0123C3.51602 18.2613 5.36919 16.9742 6.80181 15.2802C8.23442 13.5862 9.19605 11.5451 9.59006 9.36182C9.98478 11.5438 10.9458 13.5838 12.377 15.2775C13.8081 16.9711 15.6592 18.2591 17.7447 19.0123Z" fill="#FFCF33" stroke="black" stroke-width="1.5" stroke-linecap="round" stroke-linejoin="round"/>
<path d="M37.6174 10.3956C32.3716 12.8634 31.9994 16.503 31.834 17.1578C31.6685 16.503 31.2963 12.8634 26.0505 10.3956C27.5278 9.86436 28.8397 8.95435 29.8547 7.75668C30.8697 6.55901 31.5522 5.11571 31.834 3.57129C32.1157 5.11571 32.7983 6.55901 33.8133 7.75668C34.8283 8.95435 36.1401 9.86436 37.6174 10.3956Z" fill="white" stroke="black" stroke-width="1.5" stroke-linecap="round" stroke-linejoin="round"/>
</svg>
