<svg width="16" height="16" viewBox="0 0 16 16" fill="none" xmlns="http://www.w3.org/2000/svg">
<path d="M1.23218 3.01264C1.11313 2.85181 1.12975 2.62806 1.27124 2.48657L1.59701 2.1608C1.7385 2.01931 1.96225 2.00269 2.12308 2.12174L2.89273 2.69138L3.35144 3.34108C3.46488 3.50175 3.44615 3.72075 3.30708 3.85982L2.97026 4.19664C2.83119 4.33571 2.61219 4.35444 2.45152 4.241L1.80182 3.78229L1.23218 3.01264Z" fill="#6677A0"/>
<path fill-rule="evenodd" clip-rule="evenodd" d="M10.2973 8.7015L13.5948 11.9569C14.1235 12.4788 14.1262 13.3313 13.6009 13.8566L13.004 14.4536C12.4834 14.9741 11.6403 14.9768 11.1164 14.4596L7.80665 11.1921L8.90732 10.0915L11.8075 12.9835C11.9313 13.1069 12.1316 13.1067 12.2551 12.9832C12.3789 12.8593 12.3788 12.6586 12.2548 12.5349L9.35522 9.64356L10.2973 8.7015Z" fill="#6677A0"/>
<path d="M5.41748 5.23335L6.29275 6.10862L5.1792 7.22217L4.30393 6.3469C3.99643 6.0394 3.99643 5.54085 4.30393 5.23335C4.61143 4.92585 5.10998 4.92585 5.41748 5.23335Z" fill="#6677A0"/>
<path d="M7.37771 5.86633L7.58515 6.07378L5.146 8.51294L4.93855 8.30549C4.43363 7.80057 4.43363 6.98194 4.93855 6.47702L5.54923 5.86634C6.05415 5.36141 6.87279 5.36141 7.37771 5.86633Z" fill="#6677A0"/>
<rect x="2.66699" y="4.08154" width="0.74471" height="4.47887" transform="rotate(-45 2.66699 4.08154)" fill="#6677A0"/>
<path fill-rule="evenodd" clip-rule="evenodd" d="M9.96976 2.30636C10.7656 1.51055 11.9103 1.27631 12.9115 1.60366L10.9782 3.53694L12.9102 5.46884L14.7966 3.5824C15.0619 4.55049 14.8142 5.62974 14.0537 6.39029C13.2747 7.16932 12.1613 7.41021 11.1755 7.11296L3.8317 14.4567C3.28219 15.0063 2.39126 15.0063 1.84175 14.4567C1.29224 13.9072 1.29224 13.0163 1.84175 12.4668L9.21995 5.08859C8.96598 4.12714 9.21592 3.06021 9.96976 2.30636Z" fill="#6677A0"/>
</svg>
