<svg width="12" height="13" viewBox="0 0 12 13" fill="none" xmlns="http://www.w3.org/2000/svg">
<path d="M4.55008 12.8C3.40564 12.4777 2.4723 11.8473 1.75008 10.9086C1.02786 9.96951 0.666748 8.88884 0.666748 7.66662C0.666748 7.03328 0.772304 6.4304 0.983415 5.85795C1.19453 5.28595 1.49453 4.76106 1.88341 4.28328C2.00564 4.14995 2.15564 4.0804 2.33341 4.07462C2.51119 4.06928 2.6723 4.13884 2.81675 4.28328C2.93897 4.40551 3.00297 4.55551 3.00875 4.73328C3.01408 4.91106 2.95564 5.07773 2.83341 5.23328C2.56675 5.57773 2.36119 5.95551 2.21675 6.36662C2.0723 6.77773 2.00008 7.21106 2.00008 7.66662C2.00008 8.56662 2.26408 9.36951 2.79208 10.0753C3.31964 10.7806 4.00008 11.2611 4.83341 11.5166C4.97786 11.5611 5.09741 11.6444 5.19208 11.7666C5.2863 11.8888 5.33341 12.0222 5.33341 12.1666C5.33341 12.3888 5.25564 12.564 5.10008 12.692C4.94453 12.8195 4.76119 12.8555 4.55008 12.8ZM7.45008 12.8C7.23897 12.8555 7.05564 12.8166 6.90008 12.6833C6.74453 12.55 6.66675 12.3722 6.66675 12.15C6.66675 12.0166 6.71408 11.8888 6.80875 11.7666C6.90297 11.6444 7.0223 11.5611 7.16675 11.5166C8.00008 11.25 8.68053 10.7666 9.20808 10.0666C9.73608 9.36662 10.0001 8.56662 10.0001 7.66662C10.0001 6.55551 9.61119 5.61106 8.83341 4.83328C8.05564 4.05551 7.11119 3.66662 6.00008 3.66662H5.95008L6.21675 3.93328C6.33897 4.05551 6.40008 4.21106 6.40008 4.39995C6.40008 4.58884 6.33897 4.7444 6.21675 4.86662C6.09453 4.98884 5.93897 5.04995 5.75008 5.04995C5.56119 5.04995 5.40564 4.98884 5.28341 4.86662L3.88341 3.46662C3.81675 3.39995 3.76964 3.32773 3.74208 3.24995C3.71408 3.17217 3.70008 3.08884 3.70008 2.99995C3.70008 2.91106 3.71408 2.82773 3.74208 2.74995C3.76964 2.67217 3.81675 2.59995 3.88341 2.53328L5.28341 1.13328C5.40564 1.01106 5.56119 0.949951 5.75008 0.949951C5.93897 0.949951 6.09453 1.01106 6.21675 1.13328C6.33897 1.25551 6.40008 1.41106 6.40008 1.59995C6.40008 1.78884 6.33897 1.9444 6.21675 2.06662L5.95008 2.33328H6.00008C7.48897 2.33328 8.75008 2.84995 9.78341 3.88328C10.8167 4.91662 11.3334 6.17773 11.3334 7.66662C11.3334 8.87773 10.9723 9.95551 10.2501 10.9C9.52786 11.8444 8.59453 12.4777 7.45008 12.8Z" fill="#1E4B8C"/>
</svg>
