<svg width="267" height="200" viewBox="0 0 267 200" fill="none" xmlns="http://www.w3.org/2000/svg">
<g clip-path="url(#clip0_978_98230)">
<path fill-rule="evenodd" clip-rule="evenodd" d="M133.333 133.333C206.971 133.333 266.667 148.373 266.667 166.924C266.667 185.475 206.971 200.514 133.333 200.514C59.6961 200.514 0 185.475 0 166.924C0 148.373 59.6961 133.333 133.333 133.333Z" fill="url(#paint0_linear_978_98230)"/>
<path fill-rule="evenodd" clip-rule="evenodd" d="M141.447 142.319C168.157 141.487 189.951 142.609 190.123 144.827C190.294 147.046 168.781 149.516 142.068 150.35C115.359 151.181 93.5646 150.06 93.3931 147.841C93.2248 145.623 114.738 143.15 141.447 142.319Z" fill="#E6F1FF"/>
<path fill-rule="evenodd" clip-rule="evenodd" d="M97.1064 172.629C96.3428 171.073 94.6715 170.073 92.8199 170.073C91.7581 170.073 90.7783 170.414 89.9787 170.991C88.9235 168.595 86.5377 166.924 83.762 166.924C80.4751 166.924 77.8796 169.296 77.103 172.377C76.6114 174.327 76.9391 174.789 79.2626 174.789C83.5359 174.789 92.3677 174.792 95.9922 174.792C97.48 174.795 97.8077 174.065 97.1064 172.629Z" fill="#EAF4FF"/>
<path fill-rule="evenodd" clip-rule="evenodd" d="M37.1235 152.013C36.2125 150.906 34.8558 150.172 33.3123 150.172C32.2505 150.172 31.2706 150.513 30.4677 151.089C29.4125 148.694 27.0268 147.022 24.2511 147.022C21.2198 147.022 18.6866 149.025 17.7788 151.761C16.9235 154.337 17.7034 154.887 19.4239 154.887C23.5924 154.887 32.257 154.887 36.1371 154.887C37.7462 154.891 38.7129 153.947 37.1235 152.013Z" fill="#EAF4FF"/>
<path d="M143.724 68.3444L143.802 68.2638C143.81 68.3274 143.82 68.3981 143.833 68.4746C143.892 68.8043 144.019 69.2455 144.292 69.6893C144.559 70.1231 144.856 70.4884 145.086 70.7449C145.151 70.8179 145.211 70.8823 145.264 70.937L141.295 71.4376C141.291 71.4345 141.287 71.4311 141.283 71.4274C141.255 71.4031 141.225 71.3679 141.208 71.3205C141.179 71.2381 141.166 71.0499 141.468 70.7121C141.786 70.3572 142.427 69.6862 142.99 69.102C143.272 68.8103 143.533 68.5409 143.724 68.3444Z" stroke="black" stroke-width="0.293707"/>
<path d="M130.121 86.2282L139.504 70.052L142.857 72.4905L131.256 93.4369L118.454 83.1955L121.208 79.8289L129.907 86.2725L130.039 86.3703L130.121 86.2282Z" stroke="black" stroke-width="0.293707"/>
<path d="M106.719 10.6274L106.719 10.6275C106.88 13.5173 106.308 16.2189 105.26 18.2483C104.21 20.2812 102.697 21.6167 100.984 21.8303L100.983 21.8303C99.2751 22.0448 97.6454 21.1088 96.3926 19.3712C95.1405 17.6347 94.2809 15.1153 94.1222 12.2234L93.9756 12.2315L94.1222 12.2234C93.9636 9.33355 94.5364 6.63274 95.5844 4.60371C96.6341 2.5712 98.1467 1.2356 99.8582 1.02048C101.567 0.805969 103.196 1.742 104.449 3.47961C105.701 5.21608 106.561 7.73551 106.719 10.6274Z" stroke="black" stroke-width="0.293707"/>
<path d="M99.9668 3.00084L99.9668 3.00084C101.318 2.83194 102.612 3.56924 103.61 4.94784C104.607 6.32535 105.294 8.32585 105.422 10.6237C105.548 12.9228 105.091 15.0703 104.255 16.6824C103.418 18.2978 102.215 19.353 100.857 19.5225C99.5043 19.6914 98.2106 18.9541 97.2129 17.5755C96.2158 16.198 95.5301 14.1975 95.4024 11.8997C95.2748 9.60062 95.7318 7.45308 96.5675 5.84102C97.405 4.22559 98.609 3.17036 99.9668 3.00084Z" stroke="black" stroke-width="0.293707"/>
<path d="M100.935 2.88024C102.288 2.71132 103.582 3.44868 104.579 4.82721C105.576 6.2047 106.262 8.2052 106.39 10.5031C106.517 12.8021 106.06 14.9497 105.225 16.5617C104.387 18.1772 103.183 19.2324 101.825 19.4019C100.474 19.5708 99.1805 18.8335 98.1823 17.4549C97.1849 16.0774 96.4983 14.0769 96.3707 11.7791C96.2447 9.47998 96.7017 7.33244 97.537 5.72039C98.3741 4.10494 99.5773 3.04975 100.935 2.88024Z" stroke="black" stroke-width="0.293707"/>
<g filter="url(#filter0_i_978_98230)">
<path fill-rule="evenodd" clip-rule="evenodd" d="M99.8399 0.874772C103.4 0.427684 106.546 4.79087 106.866 10.6193C107.189 16.4445 104.562 21.5322 101.002 21.976C97.4413 22.4231 94.2954 18.0599 93.9756 12.2315C93.6558 6.40626 96.2828 1.32186 99.8399 0.874772Z" fill="#D3E4FF"/>
</g>
<g filter="url(#filter1_ii_978_98230)">
<path fill-rule="evenodd" clip-rule="evenodd" d="M107.117 0.615293C110.863 0.869839 113.937 4.29969 114.257 8.75425C114.672 14.5468 112.697 20.4438 110.015 20.8289C109.101 20.9594 102.039 21.821 100.936 21.9613C100.46 22.02 106.862 17.262 106.98 13.9007C107.486 -0.464895 98.1687 1.05912 100.417 0.778464C101.553 0.638137 105.116 0.47823 107.117 0.615293Z" fill="#D3E4FF"/>
</g>
<g filter="url(#filter2_i_978_98230)">
<path fill-rule="evenodd" clip-rule="evenodd" d="M96.6512 6.91483L102.907 6.52648C102.907 6.52648 100.611 6.33625 101.818 6.59406C104.088 5.06231 101.68 2.67291 100.037 2.86325C96.0361 3.32666 96.6512 6.91483 96.6512 6.91483Z" fill="#D3E4FF"/>
</g>
<path d="M94.4192 7.17908L94.5691 7.18677C94.5683 7.20185 94.5651 7.21501 94.5609 7.22624C94.5621 7.21678 94.5632 7.20935 94.564 7.20396C94.5645 7.20058 94.5648 7.19919 94.5648 7.19919C94.5648 7.19918 94.5647 7.19929 94.5647 7.19949L94.5647 7.1995C94.5647 7.19975 94.5639 7.20322 94.5625 7.2081C94.5619 7.21031 94.5601 7.21634 94.5568 7.22384C94.5551 7.22764 94.5504 7.23687 94.5473 7.24214C94.5422 7.25003 94.5259 7.26936 94.5141 7.27989C94.4941 7.29309 94.4423 7.30815 94.4038 7.30896L94.4192 7.17908Z" stroke="black" stroke-width="0.293707"/>
<path d="M147.825 73.8734L154.585 95.6888L141.065 72.0299L147.825 73.8734Z" stroke="black" stroke-width="0.293707"/>
<g filter="url(#filter3_i_978_98230)">
<path fill-rule="evenodd" clip-rule="evenodd" d="M57.546 124.662L50.3359 129.327L152.185 111.282L158.059 106.387L57.546 124.662Z" fill="#D3E4FF"/>
</g>
<path fill-rule="evenodd" clip-rule="evenodd" d="M55.3426 126.376L155.693 108.672L154.387 109.651L53.7109 127.355L55.3426 126.376Z" fill="#94B2EC" fill-opacity="0.4"/>
<path d="M35.3846 22.8634L35.4122 22.983L35.5348 22.9771L42.442 22.6426L35.148 23.3372L33.9663 17.0352L34.5594 19.2889L35.3846 22.8634Z" stroke="black" stroke-width="0.293707"/>
<g filter="url(#filter4_i_978_98230)">
<path fill-rule="evenodd" clip-rule="evenodd" d="M50.3253 129.333C50.3253 129.333 45.4939 106.097 40.2496 82.5645C35.0216 59.1104 29.2812 29.1979 29.2812 29.1979L35.0281 24.1494C35.0281 24.1494 42.3088 55.2171 47.1028 79.3011C51.7074 102.435 57.3621 124.948 57.3621 124.948L50.3253 129.333Z" fill="#D3E4FF"/>
</g>
<path fill-rule="evenodd" clip-rule="evenodd" d="M34.0493 26.4336L55.4247 126.07L54.3029 126.824L33.0703 27.0863L34.0493 26.4336Z" fill="#94B2EC"/>
<path fill-rule="evenodd" clip-rule="evenodd" d="M31.7642 28.7173L52.956 127.701L51.9107 128.333L30.7852 29.37L31.7642 28.7173Z" fill="#94B2EC"/>
<path fill-rule="evenodd" clip-rule="evenodd" d="M57.1601 124.673L52.2344 128.171L57.7108 124.888L57.1601 124.673Z" fill="#E9F0FF"/>
<path fill-rule="evenodd" clip-rule="evenodd" d="M35.0168 24.2105V23.5068L28.3398 28.7768L29.2503 29.5209L29.482 29.0444L35.0168 24.2105Z" fill="#94B2EC"/>
<g filter="url(#filter5_i_978_98230)">
<path fill-rule="evenodd" clip-rule="evenodd" d="M26.668 20.5788L32.8554 12.665L35.0493 23.4759L28.3062 29.1029L26.668 20.5788Z" fill="#BFD4FE"/>
</g>
<g filter="url(#filter6_i_978_98230)">
<path fill-rule="evenodd" clip-rule="evenodd" d="M35.0195 24.205V23.486L86.0499 18.6631L85.6615 19.2799L35.0195 24.205Z" fill="#D3E4FF"/>
</g>
<g filter="url(#filter7_i_978_98230)">
<path fill-rule="evenodd" clip-rule="evenodd" d="M32.8672 12.6946L35.0292 23.4965L134.237 14.3589L131.75 3.91602C131.75 3.91602 39.7155 12.1072 33.1168 12.6946C32.8721 12.7174 32.8672 12.6946 32.8672 12.6946Z" fill="#E4F0FF"/>
</g>
<path d="M50.1833 95.2607L37.5219 31.3043L152.747 102.262L157.666 106.947L57.3296 124.82L50.1833 95.2607Z" fill="#D3E4FF" stroke="#E9F0FF" stroke-width="0.293707"/>
<path d="M35.5128 24.6211L35.5018 24.573L135.93 17.1353L135.955 17.2732C135.986 17.4502 136.033 17.7125 136.093 18.0534C136.215 18.7352 136.395 19.7318 136.625 20.9909C137.086 23.5091 137.75 27.0775 138.567 31.2783C140.2 39.6797 142.439 50.612 144.864 60.7332C147.153 70.2873 150.417 81.7938 153.109 90.9104C154.455 95.469 155.658 99.4306 156.524 102.253C156.957 103.664 157.306 104.79 157.547 105.563C157.668 105.95 157.761 106.248 157.824 106.45L157.87 106.595L157.828 106.601C157.775 106.61 157.712 106.62 157.639 106.632C157.523 106.65 157.382 106.673 157.217 106.699C156.682 106.786 155.898 106.913 154.9 107.076C152.904 107.402 150.053 107.874 146.636 108.456C139.8 109.619 130.695 111.221 121.616 112.975C107.704 115.664 93.3195 116.836 82.4112 117.335C76.9574 117.585 72.3735 117.667 69.1532 117.686C67.5431 117.695 66.2739 117.689 65.4074 117.681C64.9741 117.677 64.6415 117.672 64.4173 117.668C64.3062 117.666 64.2217 117.665 64.1648 117.664C64.14 117.615 64.1038 117.544 64.0567 117.452C63.9595 117.26 63.816 116.976 63.6309 116.603C63.2609 115.858 62.725 114.763 62.0615 113.359C60.7345 110.553 58.8974 106.518 56.8578 101.602C52.7783 91.7702 47.8897 78.4197 44.6499 64.3406C42.2024 53.7052 39.9057 43.7216 38.221 36.3969L36.2104 27.6548L35.6574 25.2497L35.5128 24.6211Z" fill="#F1F7FF"/>
<path d="M35.5128 24.6211L35.5018 24.573L135.93 17.1353L135.955 17.2732C135.986 17.4502 136.033 17.7125 136.093 18.0534C136.215 18.7352 136.395 19.7318 136.625 20.9909C137.086 23.5091 137.75 27.0775 138.567 31.2783C140.2 39.6797 142.439 50.612 144.864 60.7332C147.153 70.2873 150.417 81.7938 153.109 90.9104C154.455 95.469 155.658 99.4306 156.524 102.253C156.957 103.664 157.306 104.79 157.547 105.563C157.668 105.95 157.761 106.248 157.824 106.45L157.87 106.595L157.828 106.601C157.775 106.61 157.712 106.62 157.639 106.632C157.523 106.65 157.382 106.673 157.217 106.699C156.682 106.786 155.898 106.913 154.9 107.076C152.904 107.402 150.053 107.874 146.636 108.456C139.8 109.619 130.695 111.221 121.616 112.975C107.704 115.664 93.3195 116.836 82.4112 117.335C76.9574 117.585 72.3735 117.667 69.1532 117.686C67.5431 117.695 66.2739 117.689 65.4074 117.681C64.9741 117.677 64.6415 117.672 64.4173 117.668C64.3062 117.666 64.2217 117.665 64.1648 117.664C64.14 117.615 64.1038 117.544 64.0567 117.452C63.9595 117.26 63.816 116.976 63.6309 116.603C63.2609 115.858 62.725 114.763 62.0615 113.359C60.7345 110.553 58.8974 106.518 56.8578 101.602C52.7783 91.7702 47.8897 78.4197 44.6499 64.3406C42.2024 53.7052 39.9057 43.7216 38.221 36.3969L36.2104 27.6548L35.6574 25.2497L35.5128 24.6211Z" fill="url(#paint1_linear_978_98230)"/>
<path d="M35.5128 24.6211L35.5018 24.573L135.93 17.1353L135.955 17.2732C135.986 17.4502 136.033 17.7125 136.093 18.0534C136.215 18.7352 136.395 19.7318 136.625 20.9909C137.086 23.5091 137.75 27.0775 138.567 31.2783C140.2 39.6797 142.439 50.612 144.864 60.7332C147.153 70.2873 150.417 81.7938 153.109 90.9104C154.455 95.469 155.658 99.4306 156.524 102.253C156.957 103.664 157.306 104.79 157.547 105.563C157.668 105.95 157.761 106.248 157.824 106.45L157.87 106.595L157.828 106.601C157.775 106.61 157.712 106.62 157.639 106.632C157.523 106.65 157.382 106.673 157.217 106.699C156.682 106.786 155.898 106.913 154.9 107.076C152.904 107.402 150.053 107.874 146.636 108.456C139.8 109.619 130.695 111.221 121.616 112.975C107.704 115.664 93.3195 116.836 82.4112 117.335C76.9574 117.585 72.3735 117.667 69.1532 117.686C67.5431 117.695 66.2739 117.689 65.4074 117.681C64.9741 117.677 64.6415 117.672 64.4173 117.668C64.3062 117.666 64.2217 117.665 64.1648 117.664C64.14 117.615 64.1038 117.544 64.0567 117.452C63.9595 117.26 63.816 116.976 63.6309 116.603C63.2609 115.858 62.725 114.763 62.0615 113.359C60.7345 110.553 58.8974 106.518 56.8578 101.602C52.7783 91.7702 47.8897 78.4197 44.6499 64.3406C42.2024 53.7052 39.9057 43.7216 38.221 36.3969L36.2104 27.6548L35.6574 25.2497L35.5128 24.6211Z" stroke="white" stroke-width="0.293707"/>
<mask id="mask0_978_98230" style="mask-type:alpha" maskUnits="userSpaceOnUse" x="35" y="16" width="124" height="102">
<path d="M35.2653 24.393L35.2535 24.344L135.93 17.1349L135.954 17.2732C135.986 17.4502 136.032 17.7125 136.093 18.0534C136.215 18.7352 136.394 19.7318 136.625 20.9909C137.085 23.5091 137.75 27.0775 138.566 31.2783C140.199 39.6797 142.438 50.612 144.864 60.7332C147.152 70.2873 150.417 81.7938 153.108 90.9104C154.454 95.469 155.657 99.4306 156.524 102.253C156.957 103.664 157.306 104.79 157.547 105.563C157.667 105.95 157.761 106.248 157.824 106.45L157.869 106.595L157.828 106.601C157.762 106.612 157.681 106.625 157.585 106.64C157.48 106.657 157.357 106.677 157.217 106.699C156.682 106.786 155.897 106.913 154.899 107.076C152.903 107.402 150.053 107.874 146.635 108.456C139.8 109.619 130.695 111.221 121.616 112.975C107.704 115.664 93.3192 116.836 82.4109 117.335C76.9571 117.585 72.3732 117.667 69.1529 117.686C67.5427 117.695 66.2736 117.689 65.4071 117.681C64.9738 117.677 64.6412 117.672 64.417 117.668C64.3692 117.668 64.3262 117.667 64.2883 117.666C64.2382 117.665 64.1969 117.664 64.1645 117.664C64.1397 117.615 64.1035 117.544 64.0564 117.452C63.9592 117.26 63.8156 116.976 63.6306 116.603C63.2606 115.858 62.7247 114.763 62.0612 113.359C60.7342 110.553 58.8971 106.518 56.8575 101.602C52.778 91.7702 47.8894 78.4197 44.6496 64.3406C42.202 53.7048 39.8429 43.6636 38.0956 36.2813C37.222 32.5902 36.5014 29.5638 35.9992 27.4601C35.7481 26.4083 35.5515 25.5872 35.4178 25.029L35.2653 24.393Z" fill="#F1F7FF" stroke="white" stroke-width="0.293707"/>
</mask>
<g mask="url(#mask0_978_98230)">
<ellipse cx="99.3556" cy="61.1746" rx="21.2491" ry="22.4848" transform="rotate(-12.6078 99.3556 61.1746)" fill="url(#paint2_linear_978_98230)"/>
<path d="M86.3359 67.5175L89.5348 62.7019L96.6775 67.1384L108.156 49.6665L113.003 52.8002L98.5223 74.9998L86.3359 67.5175Z" fill="white"/>
<g filter="url(#filter8_f_978_98230)">
<path fill-rule="evenodd" clip-rule="evenodd" d="M32.2578 18.4297L33.597 26.8538C33.597 26.8538 34.5332 35.8013 48.8979 35.5626C85.9647 34.9476 143.374 26.8538 143.374 26.8538L134.158 7.53467L32.2578 18.4297Z" fill="#BFD4FE" fill-opacity="0.6"/>
</g>
</g>
<g filter="url(#filter9_iii_978_98230)">
<path fill-rule="evenodd" clip-rule="evenodd" d="M35.0508 24.1903C35.0508 24.1903 50.698 30.3044 63.0957 29.6974C77.8921 28.9729 89.9798 18.7192 89.9798 18.7192L35.0508 24.1903Z" fill="#E4F0FF"/>
</g>
<g filter="url(#filter10_di_978_98230)">
<path fill-rule="evenodd" clip-rule="evenodd" d="M59.5039 29.6971C59.5039 29.6971 75.2825 29.7884 82.7459 22.2761C90.2094 14.7637 91.8117 4.89512 91.8117 4.89512L171.113 0C171.113 0 167.546 5.04197 158.712 12.401C149.336 20.2136 140.11 23.4966 140.11 23.4966C140.11 23.4966 74.1207 31.3255 59.5039 29.6971Z" fill="#E4F0FF"/>
</g>
<path fill-rule="evenodd" clip-rule="evenodd" d="M58.8599 23.5366L69.9033 22.1725C70.8889 22.0746 71.77 22.7926 71.8679 23.7814C71.9658 24.7669 71.2479 25.648 70.259 25.7459L59.2157 27.1101C58.2301 27.208 57.349 26.49 57.2511 25.5012C57.1532 24.5124 57.8744 23.6345 58.8599 23.5366Z" fill="#94B2EC"/>
<mask id="mask1_978_98230" style="mask-type:alpha" maskUnits="userSpaceOnUse" x="48" y="2" width="21" height="24">
<path d="M48.125 9.79362L48.6307 3.46435C50.762 3.3004 55.1155 2.96492 55.4787 2.93466C55.9327 2.89682 63.1212 3.88052 63.4239 3.95618C63.666 4.01672 65.139 7.63873 65.8453 9.44216L68.3045 23.8571L57.3704 25.2191L54.6003 23.4785L54.1231 22.0467C54.1231 22.0467 55.1602 22.0972 56.2937 20.8076C57.4273 19.5181 57.6246 18.7437 57.6246 18.7437L51.2594 19.3299C51.2594 19.3299 50.2166 17.8384 49.9285 14.6329C49.6404 11.4274 49.9285 9.63759 49.9285 9.63759L48.125 9.79362Z" fill="#C4C4C4"/>
</mask>
<g mask="url(#mask1_978_98230)">
<g filter="url(#filter11_i_978_98230)">
<path fill-rule="evenodd" clip-rule="evenodd" d="M55.207 10.8303L62.9672 10.0697C62.9672 10.0697 63.4373 7.32867 64.6448 7.58648C66.159 7.91282 62.008 5.85688 60.559 6.02658C56.5581 6.48998 55.207 10.8303 55.207 10.8303Z" fill="#D3E4FF"/>
</g>
<g filter="url(#filter12_ii_978_98230)">
<path fill-rule="evenodd" clip-rule="evenodd" d="M65.4177 4.58847C69.1674 4.84302 72.2383 8.27287 72.5581 12.7274C72.9725 18.52 70.9982 24.417 68.3156 24.8021C67.4019 24.9326 60.3399 25.7941 59.2368 25.9345C58.7604 25.9932 65.1632 21.2352 65.2807 17.8738C65.7865 3.50828 56.4694 5.0323 58.7179 4.75164C59.8536 4.60805 63.4173 4.45141 65.4177 4.58847Z" fill="#D3E4FF"/>
</g>
<g filter="url(#filter13_i_978_98230)">
<path fill-rule="evenodd" clip-rule="evenodd" d="M59.3606 4.66921C62.921 4.22212 66.0669 8.5853 66.3868 14.4138C66.7066 20.239 64.0828 25.3266 60.5257 25.7704C56.9653 26.2175 53.8193 21.8543 53.4995 16.0259C53.1765 10.2007 55.8035 5.11629 59.3606 4.66921ZM59.3826 6.75704C62.225 6.38488 64.732 10.0211 64.9892 14.8762C65.2432 19.7348 63.1497 23.9753 60.3072 24.3475C57.4648 24.7196 54.9578 21.0834 54.7006 16.2283C54.5779 13.882 55.0027 11.6799 55.795 9.9879L55.9765 9.1323L56.2747 9.09803C57.0909 7.78077 58.1684 6.916 59.3826 6.75704Z" fill="#D3E4FF"/>
</g>
<path d="M65.9974 10.9869C66.2231 11.6575 66.4115 12.4182 66.51 13.2513C66.6775 14.6683 66.6243 15.8177 66.499 16.6891C66.5328 16.2059 66.5557 15.646 66.5557 15.0154C66.5557 13.3804 66.2546 11.9451 65.9974 10.9869Z" stroke="#F2F6FF" stroke-width="0.293707"/>
</g>
<g filter="url(#filter14_i_978_98230)">
<path d="M62.1965 10.1475L54.303 10.8307C54.303 10.8307 53.6042 12.0704 53.8951 15.6647C54.186 19.2589 56.0316 21.5516 56.0316 21.5516C56.1184 21.5184 58.7174 21.3323 60.5236 21.1395C61.5017 21.0934 64.0257 20.8249 64.0257 20.8249L63.6446 19.6827C63.6446 19.6827 62.63 17.3984 62.1965 14.5837C61.763 11.769 62.1965 10.1475 62.1965 10.1475Z" fill="#E3EFFF"/>
</g>
<path d="M201.922 150.728C201.922 150.728 171.019 158.102 156.205 158.488C140.678 158.89 90.6559 158.488 90.6559 158.488C81.3638 158.41 84.8937 155.606 85.6669 155.402L125.577 142.743L191.312 139.561L201.922 150.728Z" fill="#E6F1FF"/>
<path d="M101.57 155.402C94.9688 155.402 89.6172 150.863 89.6172 145.264C89.6172 139.666 94.9688 135.127 101.57 135.127C108.172 135.127 113.523 139.666 113.523 145.264C113.523 150.863 108.172 155.402 101.57 155.402Z" fill="#94B2EC"/>
<g filter="url(#filter15_i_978_98230)">
<path d="M159.896 122.971L150.834 129.579L148.82 137.193H187.945C192.787 138.916 202.961 140.956 204.918 135.325C206.874 129.694 204.486 125.604 203.048 124.264L170.252 125.987L159.896 122.971Z" fill="#7C95C5"/>
</g>
<path d="M101.569 135.127C102.497 135.127 103.422 135.219 104.332 135.402C99.0635 136.46 95.1421 140.473 95.1421 145.264C95.1421 150.056 96.3256 155.402 104.332 155.127C103.422 155.309 102.497 155.402 101.569 155.402C94.9675 155.402 89.6158 150.862 89.6158 145.264C89.6158 139.666 94.9675 135.127 101.569 135.127Z" fill="#7C95C5"/>
<path d="M195.514 128.393C197.834 128.393 199.715 133.392 199.715 139.56C199.715 139.704 199.712 139.848 199.71 139.993L203.191 142.723L201.923 150.729H195.514C193.195 150.729 191.314 145.73 191.314 139.562C191.314 133.394 193.195 128.393 195.514 128.393Z" fill="#7C95C5"/>
<g filter="url(#filter16_i_978_98230)">
<path d="M202.357 116.619C202.357 116.619 191.237 99.9756 177.891 99.1263C164.546 98.2771 138.412 98.4322 131.183 101.07C123.954 103.708 107.983 114.398 107.983 114.398C107.983 114.398 93.4524 119.813 91.5353 122.867C91.5353 122.867 86.8378 123.145 87.6373 128.211L86.9419 131.022C86.9419 131.022 83.8721 133.464 83.8721 137.073V147.531C83.8721 147.531 83.965 150.123 89.34 150.123H143.972C143.972 150.123 150.575 150.562 150.992 146.189C151.408 141.816 152.799 128.21 159.541 127.169C159.541 127.169 163.572 125.781 165.936 133.486L166.491 147.37L196.728 144.248C196.728 144.248 198.186 127.31 202.357 126.685C202.357 126.685 205.972 125.991 205.346 134.46L204.443 139.666C204.443 139.666 207.223 137.514 206.319 130.226C205.416 122.937 204.721 121.896 202.357 116.619Z" fill="#BFD4FE"/>
</g>
<path d="M180.067 101.996L184.146 114.677L194.711 113.566C194.711 113.566 196.842 113.751 196.194 111.715C195.545 109.679 187.296 102.737 180.067 101.996Z" fill="url(#paint3_linear_978_98230)"/>
<path d="M177.288 101.627L180.625 115.232L165.797 116.713C165.797 116.713 163.665 117.176 162.368 116.065C161.071 114.955 168.208 104.958 171.496 102.644C171.495 102.644 173.511 101.117 177.288 101.627Z" fill="url(#paint4_linear_978_98230)"/>
<path d="M167.836 100.886C167.836 100.886 138.18 100.145 128.913 102.644L109.538 114.306C109.538 114.306 147.123 114.235 155.047 113.843C155.047 113.843 158.105 114.584 160.515 110.789C162.924 106.994 167.836 100.886 167.836 100.886Z" fill="url(#paint5_linear_978_98230)"/>
<path d="M149.948 121.063C149.948 121.063 133.452 125.229 127.428 125.229L123.165 129.024C123.165 129.024 123.906 130.875 127.706 131.153C131.505 131.431 144.185 130.135 147.947 125.507C151.709 120.88 149.948 121.063 149.948 121.063Z" fill="white"/>
<path d="M93.1406 125.597C93.1406 125.597 90.7773 125.412 91.1018 123.885C91.1018 123.885 87.4411 124.348 88.4143 129.207C88.4143 129.207 89.5725 131.336 91.3334 130.317L92.3978 129.669L93.1406 125.597Z" fill="white"/>
<path d="M124.371 125.596C124.371 125.596 103.89 127.724 94.3442 125.596V129.483L103.704 131.184L120.108 129.39L124.371 125.596Z" fill="url(#paint6_linear_978_98230)"/>
<path d="M197.257 117.778C197.257 117.778 198.323 118.333 197.257 119.259H194.708C194.708 119.259 192.438 118.148 197.257 117.778Z" fill="#94B2EC"/>
<path d="M183.542 119.768L179.745 120.832C179.745 120.832 178.864 121.804 180.069 121.897C181.274 121.989 183.406 121.897 183.406 121.897C183.406 121.897 185.211 120.693 183.542 119.768Z" fill="#94B2EC"/>
<path d="M201.922 150.727C199.602 150.727 197.722 145.728 197.722 139.56C197.722 133.393 199.602 128.393 201.922 128.393C204.241 128.393 206.121 133.393 206.121 139.56C206.121 145.728 204.241 150.727 201.922 150.727Z" fill="#94B2EC"/>
<path d="M201.925 147.925C200.188 147.925 198.779 144.18 198.779 139.56C198.779 134.94 200.188 131.195 201.925 131.195C203.662 131.195 205.07 134.94 205.07 139.56C205.07 144.18 203.662 147.925 201.925 147.925Z" fill="url(#paint7_linear_978_98230)"/>
<path d="M167.988 106.165L177.391 115.556L172.784 116.015L165.775 109.014C166.484 108.035 167.239 107.06 167.988 106.165Z" fill="#ECF3F9"/>
<path d="M170.203 116.271L167.333 116.559L163.409 112.639C163.757 112.027 164.164 111.369 164.613 110.689L170.203 116.271Z" fill="#ECF3F9"/>
<path d="M185.732 103.625L195.57 113.451C195.293 113.543 195.001 113.582 194.71 113.566L192.696 113.778L181.039 102.135C182.658 102.438 184.234 102.938 185.732 103.625Z" fill="#ECF3F9"/>
<path d="M122.124 139.633L132.838 139.114C134.466 139.035 135.849 140.289 135.928 141.915C136.007 143.54 134.751 144.922 133.124 145.001L122.41 145.519C120.782 145.598 119.398 144.344 119.319 142.719C119.24 141.093 120.496 139.712 122.124 139.633Z" fill="#94B2EC"/>
<path d="M83.8677 139.377L89.2108 139.744C89.5994 139.768 89.9794 139.868 90.3289 140.04C90.6785 140.211 90.9907 140.449 91.2475 140.742C91.5043 141.034 91.7006 141.374 91.8253 141.742C91.9499 142.111 92.0002 142.5 91.9735 142.888C91.9468 143.276 91.8434 143.655 91.6694 144.002C91.4955 144.35 91.2543 144.66 90.9598 144.915C90.6653 145.169 90.3234 145.363 89.9536 145.484C89.5839 145.606 89.1936 145.653 88.8055 145.624L83.8677 145.285V139.377Z" fill="#94B2EC"/>
<path d="M143.971 150.128C143.971 150.128 150.575 150.568 150.991 146.194C151.344 142.493 152.394 132.178 156.797 128.465C163.865 129.187 169.395 135.598 169.395 143.403C169.395 151.692 163.159 158.412 155.466 158.412C150.018 158.412 145.304 155.039 143.015 150.128H143.971Z" fill="#94B2EC"/>
<path d="M159.56 154.05C155.573 154.05 152.34 149.324 152.34 143.493C152.34 137.663 155.573 132.936 159.56 132.936C163.548 132.936 166.781 137.663 166.781 143.493C166.781 149.324 163.548 154.05 159.56 154.05Z" fill="url(#paint8_linear_978_98230)"/>
<path d="M143.968 150.126C145.227 150.181 146.487 150.035 147.699 149.692C149.393 154.645 153.108 158.708 158.668 158.006C157.621 158.273 156.544 158.408 155.463 158.408C150.015 158.408 145.301 155.036 143.012 150.125L143.968 150.126Z" fill="#7C95C5"/>
<g filter="url(#filter17_i_978_98230)">
<path d="M159.968 141.442C159.672 141.442 159.431 139.633 159.431 137.402C159.431 135.171 159.672 133.362 159.968 133.362C160.264 133.362 160.504 135.171 160.504 137.402C160.504 139.633 160.264 141.442 159.968 141.442Z" fill="#BFD4FE"/>
</g>
<g filter="url(#filter18_i_978_98230)">
<path d="M161.069 142.586C160.778 142.302 161.46 141.131 162.594 139.971C163.728 138.811 164.883 138.101 165.175 138.385C165.467 138.669 164.784 139.84 163.65 141C162.517 142.161 161.361 142.87 161.069 142.586Z" fill="#BFD4FE"/>
</g>
<g filter="url(#filter19_i_978_98230)">
<path d="M162.566 147.091C161.433 145.931 160.75 144.76 161.042 144.476C161.334 144.192 162.489 144.901 163.623 146.062C164.757 147.222 165.439 148.393 165.147 148.677C164.856 148.961 163.7 148.252 162.566 147.091Z" fill="#BFD4FE"/>
</g>
<g filter="url(#filter20_i_978_98230)">
<path d="M159.917 153.625C159.621 153.625 159.381 151.816 159.381 149.585C159.381 147.354 159.621 145.545 159.917 145.545C160.213 145.545 160.453 147.354 160.453 149.585C160.453 151.816 160.213 153.625 159.917 153.625Z" fill="#BFD4FE"/>
</g>
<g filter="url(#filter21_i_978_98230)">
<path d="M154.706 148.602C154.414 148.317 155.097 147.146 156.231 145.986C157.364 144.826 158.52 144.116 158.812 144.401C159.103 144.685 158.421 145.856 157.287 147.016C156.153 148.176 154.998 148.886 154.706 148.602Z" fill="#BFD4FE"/>
</g>
<g filter="url(#filter22_i_978_98230)">
<path d="M156.254 140.927C155.12 139.767 154.438 138.596 154.73 138.311C155.021 138.027 156.177 138.737 157.311 139.897C158.444 141.057 159.127 142.228 158.835 142.512C158.543 142.797 157.388 142.087 156.254 140.927Z" fill="#BFD4FE"/>
</g>
<g filter="url(#filter23_i_978_98230)">
<path d="M201.933 138.088C201.809 138.088 201.709 136.75 201.709 135.098C201.709 133.447 201.809 132.108 201.933 132.108C202.056 132.108 202.156 133.447 202.156 135.098C202.156 136.75 202.056 138.088 201.933 138.088Z" fill="#BFD4FE"/>
</g>
<g filter="url(#filter24_i_978_98230)">
<path d="M202.433 138.968C202.25 138.874 202.468 138.085 202.92 137.206C203.372 136.327 203.887 135.691 204.07 135.785C204.254 135.879 204.036 136.668 203.584 137.547C203.132 138.426 202.617 139.062 202.433 138.968Z" fill="#BFD4FE"/>
</g>
<g filter="url(#filter25_i_978_98230)">
<path d="M202.904 142.055C202.452 141.176 202.234 140.388 202.418 140.294C202.601 140.199 203.116 140.836 203.568 141.715C204.02 142.594 204.238 143.382 204.055 143.477C203.871 143.571 203.356 142.934 202.904 142.055Z" fill="#BFD4FE"/>
</g>
<g filter="url(#filter26_i_978_98230)">
<path d="M201.913 147.102C201.79 147.102 201.69 145.763 201.69 144.112C201.69 142.461 201.79 141.122 201.913 141.122C202.037 141.122 202.137 142.461 202.137 144.112C202.137 145.763 202.037 147.102 201.913 147.102Z" fill="#BFD4FE"/>
</g>
<g filter="url(#filter27_i_978_98230)">
<path d="M199.781 143.422C199.598 143.328 199.815 142.539 200.267 141.66C200.719 140.781 201.234 140.145 201.418 140.239C201.601 140.333 201.384 141.122 200.932 142.001C200.48 142.88 199.965 143.516 199.781 143.422Z" fill="#BFD4FE"/>
</g>
<g filter="url(#filter28_i_978_98230)">
<path d="M200.271 137.499C199.819 136.62 199.602 135.831 199.785 135.737C199.969 135.643 200.484 136.28 200.936 137.159C201.388 138.037 201.605 138.826 201.422 138.92C201.238 139.014 200.723 138.378 200.271 137.499Z" fill="#BFD4FE"/>
</g>
<g filter="url(#filter29_i_978_98230)">
<path d="M159.889 144.409C159.578 144.409 159.325 144.036 159.325 143.576C159.325 143.116 159.578 142.743 159.889 142.743C160.201 142.743 160.453 143.116 160.453 143.576C160.453 144.036 160.201 144.409 159.889 144.409Z" fill="#BFD4FE"/>
</g>
<path fill-rule="evenodd" clip-rule="evenodd" d="M161.598 38.574C161.17 36.4219 159.271 34.7998 156.993 34.7998C154.715 34.7998 152.816 36.4218 152.387 38.5739C152.357 38.5734 152.327 38.5731 152.297 38.5731C149.704 38.5731 147.602 40.6755 147.602 43.2688C147.602 45.8622 149.704 47.9646 152.297 47.9646C153.153 47.9646 153.954 47.736 154.645 47.3365C155.336 47.736 156.137 47.9646 156.993 47.9646C157.848 47.9646 158.65 47.736 159.34 47.3365C160.031 47.736 160.833 47.9646 161.688 47.9646C164.281 47.9646 166.384 45.8623 166.384 43.2689C166.384 40.6755 164.281 38.5731 161.688 38.5731C161.658 38.5731 161.628 38.5734 161.598 38.574Z" fill="#E8F1FF"/>
<path fill-rule="evenodd" clip-rule="evenodd" d="M204.932 67.5051C204.353 64.5943 201.784 62.4004 198.703 62.4004C195.622 62.4004 193.053 64.5943 192.474 67.5051C192.433 67.5043 192.392 67.5039 192.352 67.5039C188.844 67.5039 186 70.3476 186 73.8554C186 77.3633 188.844 80.207 192.352 80.207C193.508 80.207 194.593 79.8977 195.527 79.3572C196.462 79.8977 197.546 80.207 198.703 80.207C199.86 80.207 200.945 79.8977 201.879 79.3572C202.813 79.8977 203.898 80.207 205.055 80.207C208.562 80.207 211.406 77.3633 211.406 73.8554C211.406 70.3476 208.562 67.5039 205.055 67.5039C205.014 67.5039 204.973 67.5043 204.932 67.5051Z" fill="#E8F1FF"/>
</g>
<defs>
<filter id="filter0_i_978_98230" x="93.9492" y="0.843262" width="12.9453" height="22.3389" filterUnits="userSpaceOnUse" color-interpolation-filters="sRGB">
<feFlood flood-opacity="0" result="BackgroundImageFix"/>
<feBlend mode="normal" in="SourceGraphic" in2="BackgroundImageFix" result="shape"/>
<feColorMatrix in="SourceAlpha" type="matrix" values="0 0 0 0 0 0 0 0 0 0 0 0 0 0 0 0 0 0 127 0" result="hardAlpha"/>
<feOffset dy="1.17483"/>
<feGaussianBlur stdDeviation="4.25876"/>
<feComposite in2="hardAlpha" operator="arithmetic" k2="-1" k3="1"/>
<feColorMatrix type="matrix" values="0 0 0 0 0.580392 0 0 0 0 0.698039 0 0 0 0 0.92549 0 0 0 1 0"/>
<feBlend mode="normal" in2="shape" result="effect1_innerShadow_978_98230"/>
</filter>
<filter id="filter1_ii_978_98230" x="100.066" y="-0.318134" width="15.1272" height="23.1612" filterUnits="userSpaceOnUse" color-interpolation-filters="sRGB">
<feFlood flood-opacity="0" result="BackgroundImageFix"/>
<feBlend mode="normal" in="SourceGraphic" in2="BackgroundImageFix" result="shape"/>
<feColorMatrix in="SourceAlpha" type="matrix" values="0 0 0 0 0 0 0 0 0 0 0 0 0 0 0 0 0 0 127 0" result="hardAlpha"/>
<feOffset dx="1.17483" dy="0.881122"/>
<feGaussianBlur stdDeviation="0.440561"/>
<feComposite in2="hardAlpha" operator="arithmetic" k2="-1" k3="1"/>
<feColorMatrix type="matrix" values="0 0 0 0 0.74902 0 0 0 0 0.831373 0 0 0 0 0.996078 0 0 0 1 0"/>
<feBlend mode="normal" in2="shape" result="effect1_innerShadow_978_98230"/>
<feColorMatrix in="SourceAlpha" type="matrix" values="0 0 0 0 0 0 0 0 0 0 0 0 0 0 0 0 0 0 127 0" result="hardAlpha"/>
<feOffset dx="0.293707" dy="-1.76224"/>
<feGaussianBlur stdDeviation="0.440561"/>
<feComposite in2="hardAlpha" operator="arithmetic" k2="-1" k3="1"/>
<feColorMatrix type="matrix" values="0 0 0 0 0.74902 0 0 0 0 0.831373 0 0 0 0 0.996078 0 0 0 1 0"/>
<feBlend mode="normal" in2="effect1_innerShadow_978_98230" result="effect2_innerShadow_978_98230"/>
</filter>
<filter id="filter2_i_978_98230" x="96.6172" y="2.85254" width="6.28906" height="5.23733" filterUnits="userSpaceOnUse" color-interpolation-filters="sRGB">
<feFlood flood-opacity="0" result="BackgroundImageFix"/>
<feBlend mode="normal" in="SourceGraphic" in2="BackgroundImageFix" result="shape"/>
<feColorMatrix in="SourceAlpha" type="matrix" values="0 0 0 0 0 0 0 0 0 0 0 0 0 0 0 0 0 0 127 0" result="hardAlpha"/>
<feOffset dy="1.17483"/>
<feGaussianBlur stdDeviation="0.587415"/>
<feComposite in2="hardAlpha" operator="arithmetic" k2="-1" k3="1"/>
<feColorMatrix type="matrix" values="0 0 0 0 0.74902 0 0 0 0 0.831373 0 0 0 0 0.996078 0 0 0 1 0"/>
<feBlend mode="normal" in2="shape" result="effect1_innerShadow_978_98230"/>
</filter>
<filter id="filter3_i_978_98230" x="50.3359" y="106.387" width="107.723" height="24.1157" filterUnits="userSpaceOnUse" color-interpolation-filters="sRGB">
<feFlood flood-opacity="0" result="BackgroundImageFix"/>
<feBlend mode="normal" in="SourceGraphic" in2="BackgroundImageFix" result="shape"/>
<feColorMatrix in="SourceAlpha" type="matrix" values="0 0 0 0 0 0 0 0 0 0 0 0 0 0 0 0 0 0 127 0" result="hardAlpha"/>
<feOffset dy="1.17483"/>
<feGaussianBlur stdDeviation="1.76224"/>
<feComposite in2="hardAlpha" operator="arithmetic" k2="-1" k3="1"/>
<feColorMatrix type="matrix" values="0 0 0 0 0.682353 0 0 0 0 0.780392 0 0 0 0 0.956863 0 0 0 1 0"/>
<feBlend mode="normal" in2="shape" result="effect1_innerShadow_978_98230"/>
</filter>
<filter id="filter4_i_978_98230" x="29.2812" y="24.1494" width="28.082" height="106.359" filterUnits="userSpaceOnUse" color-interpolation-filters="sRGB">
<feFlood flood-opacity="0" result="BackgroundImageFix"/>
<feBlend mode="normal" in="SourceGraphic" in2="BackgroundImageFix" result="shape"/>
<feColorMatrix in="SourceAlpha" type="matrix" values="0 0 0 0 0 0 0 0 0 0 0 0 0 0 0 0 0 0 127 0" result="hardAlpha"/>
<feOffset dy="1.17483"/>
<feGaussianBlur stdDeviation="6.31471"/>
<feComposite in2="hardAlpha" operator="arithmetic" k2="-1" k3="1"/>
<feColorMatrix type="matrix" values="0 0 0 0 0.580392 0 0 0 0 0.698039 0 0 0 0 0.92549 0 0 0 1 0"/>
<feBlend mode="normal" in2="shape" result="effect1_innerShadow_978_98230"/>
</filter>
<filter id="filter5_i_978_98230" x="26.668" y="12.665" width="8.38281" height="17.6128" filterUnits="userSpaceOnUse" color-interpolation-filters="sRGB">
<feFlood flood-opacity="0" result="BackgroundImageFix"/>
<feBlend mode="normal" in="SourceGraphic" in2="BackgroundImageFix" result="shape"/>
<feColorMatrix in="SourceAlpha" type="matrix" values="0 0 0 0 0 0 0 0 0 0 0 0 0 0 0 0 0 0 127 0" result="hardAlpha"/>
<feOffset dy="1.17483"/>
<feGaussianBlur stdDeviation="2.64337"/>
<feComposite in2="hardAlpha" operator="arithmetic" k2="-1" k3="1"/>
<feColorMatrix type="matrix" values="0 0 0 0 0.580392 0 0 0 0 0.698039 0 0 0 0 0.92549 0 0 0 1 0"/>
<feBlend mode="normal" in2="shape" result="effect1_innerShadow_978_98230"/>
</filter>
<filter id="filter6_i_978_98230" x="35.0195" y="18.6631" width="51.0312" height="6.71682" filterUnits="userSpaceOnUse" color-interpolation-filters="sRGB">
<feFlood flood-opacity="0" result="BackgroundImageFix"/>
<feBlend mode="normal" in="SourceGraphic" in2="BackgroundImageFix" result="shape"/>
<feColorMatrix in="SourceAlpha" type="matrix" values="0 0 0 0 0 0 0 0 0 0 0 0 0 0 0 0 0 0 127 0" result="hardAlpha"/>
<feOffset dy="1.17483"/>
<feGaussianBlur stdDeviation="2.49651"/>
<feComposite in2="hardAlpha" operator="arithmetic" k2="-1" k3="1"/>
<feColorMatrix type="matrix" values="0 0 0 0 0.580392 0 0 0 0 0.698039 0 0 0 0 0.92549 0 0 0 1 0"/>
<feBlend mode="normal" in2="shape" result="effect1_innerShadow_978_98230"/>
</filter>
<filter id="filter7_i_978_98230" x="32.8672" y="3.91602" width="101.371" height="20.7554" filterUnits="userSpaceOnUse" color-interpolation-filters="sRGB">
<feFlood flood-opacity="0" result="BackgroundImageFix"/>
<feBlend mode="normal" in="SourceGraphic" in2="BackgroundImageFix" result="shape"/>
<feColorMatrix in="SourceAlpha" type="matrix" values="0 0 0 0 0 0 0 0 0 0 0 0 0 0 0 0 0 0 127 0" result="hardAlpha"/>
<feOffset dy="1.17483"/>
<feGaussianBlur stdDeviation="2.93707"/>
<feComposite in2="hardAlpha" operator="arithmetic" k2="-1" k3="1"/>
<feColorMatrix type="matrix" values="0 0 0 0 0.74902 0 0 0 0 0.831373 0 0 0 0 0.996078 0 0 0 1 0"/>
<feBlend mode="normal" in2="shape" result="effect1_innerShadow_978_98230"/>
</filter>
<filter id="filter8_f_978_98230" x="26.3837" y="1.66052" width="122.865" height="39.781" filterUnits="userSpaceOnUse" color-interpolation-filters="sRGB">
<feFlood flood-opacity="0" result="BackgroundImageFix"/>
<feBlend mode="normal" in="SourceGraphic" in2="BackgroundImageFix" result="shape"/>
<feGaussianBlur stdDeviation="2.93707" result="effect1_foregroundBlur_978_98230"/>
</filter>
<filter id="filter9_iii_978_98230" x="35.0508" y="18.7192" width="54.9297" height="13.0765" filterUnits="userSpaceOnUse" color-interpolation-filters="sRGB">
<feFlood flood-opacity="0" result="BackgroundImageFix"/>
<feBlend mode="normal" in="SourceGraphic" in2="BackgroundImageFix" result="shape"/>
<feColorMatrix in="SourceAlpha" type="matrix" values="0 0 0 0 0 0 0 0 0 0 0 0 0 0 0 0 0 0 127 0" result="hardAlpha"/>
<feOffset dy="1.17483"/>
<feGaussianBlur stdDeviation="7.04897"/>
<feComposite in2="hardAlpha" operator="arithmetic" k2="-1" k3="1"/>
<feColorMatrix type="matrix" values="0 0 0 0 0.74902 0 0 0 0 0.831373 0 0 0 0 0.996078 0 0 0 1 0"/>
<feBlend mode="normal" in2="shape" result="effect1_innerShadow_978_98230"/>
<feColorMatrix in="SourceAlpha" type="matrix" values="0 0 0 0 0 0 0 0 0 0 0 0 0 0 0 0 0 0 127 0" result="hardAlpha"/>
<feOffset dy="2.05595"/>
<feGaussianBlur stdDeviation="3.67134"/>
<feComposite in2="hardAlpha" operator="arithmetic" k2="-1" k3="1"/>
<feColorMatrix type="matrix" values="0 0 0 0 0.580392 0 0 0 0 0.698039 0 0 0 0 0.92549 0 0 0 0.74 0"/>
<feBlend mode="normal" in2="effect1_innerShadow_978_98230" result="effect2_innerShadow_978_98230"/>
<feColorMatrix in="SourceAlpha" type="matrix" values="0 0 0 0 0 0 0 0 0 0 0 0 0 0 0 0 0 0 127 0" result="hardAlpha"/>
<feOffset dy="-0.293707"/>
<feComposite in2="hardAlpha" operator="arithmetic" k2="-1" k3="1"/>
<feColorMatrix type="matrix" values="0 0 0 0 0.886275 0 0 0 0 0.933333 0 0 0 0 1 0 0 0 1 0"/>
<feBlend mode="normal" in2="effect2_innerShadow_978_98230" result="effect3_innerShadow_978_98230"/>
</filter>
<filter id="filter10_di_978_98230" x="59.2102" y="-7.9301" width="121.302" height="37.85" filterUnits="userSpaceOnUse" color-interpolation-filters="sRGB">
<feFlood flood-opacity="0" result="BackgroundImageFix"/>
<feColorMatrix in="SourceAlpha" type="matrix" values="0 0 0 0 0 0 0 0 0 0 0 0 0 0 0 0 0 0 127 0" result="hardAlpha"/>
<feOffset dx="-0.293707" dy="-0.293707"/>
<feColorMatrix type="matrix" values="0 0 0 0 0.952941 0 0 0 0 0.968627 0 0 0 0 1 0 0 0 1 0"/>
<feBlend mode="normal" in2="BackgroundImageFix" result="effect1_dropShadow_978_98230"/>
<feBlend mode="normal" in="SourceGraphic" in2="effect1_dropShadow_978_98230" result="shape"/>
<feColorMatrix in="SourceAlpha" type="matrix" values="0 0 0 0 0 0 0 0 0 0 0 0 0 0 0 0 0 0 127 0" result="hardAlpha"/>
<feOffset dx="13.5105" dy="-7.9301"/>
<feGaussianBlur stdDeviation="4.69932"/>
<feComposite in2="hardAlpha" operator="arithmetic" k2="-1" k3="1"/>
<feColorMatrix type="matrix" values="0 0 0 0 0.74902 0 0 0 0 0.831373 0 0 0 0 0.996078 0 0 0 0.89 0"/>
<feBlend mode="normal" in2="shape" result="effect2_innerShadow_978_98230"/>
</filter>
<filter id="filter11_i_978_98230" x="55.207" y="6.0166" width="9.76562" height="5.98879" filterUnits="userSpaceOnUse" color-interpolation-filters="sRGB">
<feFlood flood-opacity="0" result="BackgroundImageFix"/>
<feBlend mode="normal" in="SourceGraphic" in2="BackgroundImageFix" result="shape"/>
<feColorMatrix in="SourceAlpha" type="matrix" values="0 0 0 0 0 0 0 0 0 0 0 0 0 0 0 0 0 0 127 0" result="hardAlpha"/>
<feOffset dy="1.17483"/>
<feGaussianBlur stdDeviation="0.587415"/>
<feComposite in2="hardAlpha" operator="arithmetic" k2="-1" k3="1"/>
<feColorMatrix type="matrix" values="0 0 0 0 0.74902 0 0 0 0 0.831373 0 0 0 0 0.996078 0 0 0 1 0"/>
<feBlend mode="normal" in2="shape" result="effect1_innerShadow_978_98230"/>
</filter>
<filter id="filter12_ii_978_98230" x="58.3672" y="3.65452" width="15.1272" height="23.1617" filterUnits="userSpaceOnUse" color-interpolation-filters="sRGB">
<feFlood flood-opacity="0" result="BackgroundImageFix"/>
<feBlend mode="normal" in="SourceGraphic" in2="BackgroundImageFix" result="shape"/>
<feColorMatrix in="SourceAlpha" type="matrix" values="0 0 0 0 0 0 0 0 0 0 0 0 0 0 0 0 0 0 127 0" result="hardAlpha"/>
<feOffset dx="1.17483" dy="0.881122"/>
<feGaussianBlur stdDeviation="0.440561"/>
<feComposite in2="hardAlpha" operator="arithmetic" k2="-1" k3="1"/>
<feColorMatrix type="matrix" values="0 0 0 0 0.74902 0 0 0 0 0.831373 0 0 0 0 0.996078 0 0 0 1 0"/>
<feBlend mode="normal" in2="shape" result="effect1_innerShadow_978_98230"/>
<feColorMatrix in="SourceAlpha" type="matrix" values="0 0 0 0 0 0 0 0 0 0 0 0 0 0 0 0 0 0 127 0" result="hardAlpha"/>
<feOffset dx="0.293707" dy="-1.76224"/>
<feGaussianBlur stdDeviation="0.440561"/>
<feComposite in2="hardAlpha" operator="arithmetic" k2="-1" k3="1"/>
<feColorMatrix type="matrix" values="0 0 0 0 0.74902 0 0 0 0 0.831373 0 0 0 0 0.996078 0 0 0 1 0"/>
<feBlend mode="normal" in2="effect1_innerShadow_978_98230" result="effect2_innerShadow_978_98230"/>
</filter>
<filter id="filter13_i_978_98230" x="53.4727" y="4.6377" width="12.9414" height="22.3389" filterUnits="userSpaceOnUse" color-interpolation-filters="sRGB">
<feFlood flood-opacity="0" result="BackgroundImageFix"/>
<feBlend mode="normal" in="SourceGraphic" in2="BackgroundImageFix" result="shape"/>
<feColorMatrix in="SourceAlpha" type="matrix" values="0 0 0 0 0 0 0 0 0 0 0 0 0 0 0 0 0 0 127 0" result="hardAlpha"/>
<feOffset dy="1.17483"/>
<feGaussianBlur stdDeviation="4.25876"/>
<feComposite in2="hardAlpha" operator="arithmetic" k2="-1" k3="1"/>
<feColorMatrix type="matrix" values="0 0 0 0 0.580392 0 0 0 0 0.698039 0 0 0 0 0.92549 0 0 0 1 0"/>
<feBlend mode="normal" in2="shape" result="effect1_innerShadow_978_98230"/>
</filter>
<filter id="filter14_i_978_98230" x="53.8242" y="10.1475" width="10.2031" height="12.5791" filterUnits="userSpaceOnUse" color-interpolation-filters="sRGB">
<feFlood flood-opacity="0" result="BackgroundImageFix"/>
<feBlend mode="normal" in="SourceGraphic" in2="BackgroundImageFix" result="shape"/>
<feColorMatrix in="SourceAlpha" type="matrix" values="0 0 0 0 0 0 0 0 0 0 0 0 0 0 0 0 0 0 127 0" result="hardAlpha"/>
<feOffset dy="1.17483"/>
<feGaussianBlur stdDeviation="16.1539"/>
<feComposite in2="hardAlpha" operator="arithmetic" k2="-1" k3="1"/>
<feColorMatrix type="matrix" values="0 0 0 0 0.694118 0 0 0 0 0.788235 0 0 0 0 0.964706 0 0 0 0.6 0"/>
<feBlend mode="normal" in2="shape" result="effect1_innerShadow_978_98230"/>
</filter>
<filter id="filter15_i_978_98230" x="148.82" y="122.971" width="56.8359" height="17.4303" filterUnits="userSpaceOnUse" color-interpolation-filters="sRGB">
<feFlood flood-opacity="0" result="BackgroundImageFix"/>
<feBlend mode="normal" in="SourceGraphic" in2="BackgroundImageFix" result="shape"/>
<feColorMatrix in="SourceAlpha" type="matrix" values="0 0 0 0 0 0 0 0 0 0 0 0 0 0 0 0 0 0 127 0" result="hardAlpha"/>
<feOffset dy="1.3839"/>
<feGaussianBlur stdDeviation="3.63273"/>
<feComposite in2="hardAlpha" operator="arithmetic" k2="-1" k3="1"/>
<feColorMatrix type="matrix" values="0 0 0 0 0.827451 0 0 0 0 0.894118 0 0 0 0 1 0 0 0 1 0"/>
<feBlend mode="multiply" in2="shape" result="effect1_innerShadow_978_98230"/>
</filter>
<filter id="filter16_i_978_98230" x="83.8711" y="98.6665" width="122.629" height="52.8522" filterUnits="userSpaceOnUse" color-interpolation-filters="sRGB">
<feFlood flood-opacity="0" result="BackgroundImageFix"/>
<feBlend mode="normal" in="SourceGraphic" in2="BackgroundImageFix" result="shape"/>
<feColorMatrix in="SourceAlpha" type="matrix" values="0 0 0 0 0 0 0 0 0 0 0 0 0 0 0 0 0 0 127 0" result="hardAlpha"/>
<feOffset dy="1.3839"/>
<feGaussianBlur stdDeviation="3.63273"/>
<feComposite in2="hardAlpha" operator="arithmetic" k2="-1" k3="1"/>
<feColorMatrix type="matrix" values="0 0 0 0 0.827451 0 0 0 0 0.894118 0 0 0 0 1 0 0 0 1 0"/>
<feBlend mode="multiply" in2="shape" result="effect1_innerShadow_978_98230"/>
</filter>
<filter id="filter17_i_978_98230" x="159.43" y="133.362" width="1.07422" height="9.46349" filterUnits="userSpaceOnUse" color-interpolation-filters="sRGB">
<feFlood flood-opacity="0" result="BackgroundImageFix"/>
<feBlend mode="normal" in="SourceGraphic" in2="BackgroundImageFix" result="shape"/>
<feColorMatrix in="SourceAlpha" type="matrix" values="0 0 0 0 0 0 0 0 0 0 0 0 0 0 0 0 0 0 127 0" result="hardAlpha"/>
<feOffset dy="1.3839"/>
<feGaussianBlur stdDeviation="3.63273"/>
<feComposite in2="hardAlpha" operator="arithmetic" k2="-1" k3="1"/>
<feColorMatrix type="matrix" values="0 0 0 0 0.827451 0 0 0 0 0.894118 0 0 0 0 1 0 0 0 1 0"/>
<feBlend mode="multiply" in2="shape" result="effect1_innerShadow_978_98230"/>
</filter>
<filter id="filter18_i_978_98230" x="161.004" y="138.322" width="4.23828" height="5.71056" filterUnits="userSpaceOnUse" color-interpolation-filters="sRGB">
<feFlood flood-opacity="0" result="BackgroundImageFix"/>
<feBlend mode="normal" in="SourceGraphic" in2="BackgroundImageFix" result="shape"/>
<feColorMatrix in="SourceAlpha" type="matrix" values="0 0 0 0 0 0 0 0 0 0 0 0 0 0 0 0 0 0 127 0" result="hardAlpha"/>
<feOffset dy="1.3839"/>
<feGaussianBlur stdDeviation="3.63273"/>
<feComposite in2="hardAlpha" operator="arithmetic" k2="-1" k3="1"/>
<feColorMatrix type="matrix" values="0 0 0 0 0.827451 0 0 0 0 0.894118 0 0 0 0 1 0 0 0 1 0"/>
<feBlend mode="multiply" in2="shape" result="effect1_innerShadow_978_98230"/>
</filter>
<filter id="filter19_i_978_98230" x="160.977" y="144.413" width="4.23828" height="5.71056" filterUnits="userSpaceOnUse" color-interpolation-filters="sRGB">
<feFlood flood-opacity="0" result="BackgroundImageFix"/>
<feBlend mode="normal" in="SourceGraphic" in2="BackgroundImageFix" result="shape"/>
<feColorMatrix in="SourceAlpha" type="matrix" values="0 0 0 0 0 0 0 0 0 0 0 0 0 0 0 0 0 0 127 0" result="hardAlpha"/>
<feOffset dy="1.3839"/>
<feGaussianBlur stdDeviation="3.63273"/>
<feComposite in2="hardAlpha" operator="arithmetic" k2="-1" k3="1"/>
<feColorMatrix type="matrix" values="0 0 0 0 0.827451 0 0 0 0 0.894118 0 0 0 0 1 0 0 0 1 0"/>
<feBlend mode="multiply" in2="shape" result="effect1_innerShadow_978_98230"/>
</filter>
<filter id="filter20_i_978_98230" x="159.379" y="145.545" width="1.07422" height="9.46349" filterUnits="userSpaceOnUse" color-interpolation-filters="sRGB">
<feFlood flood-opacity="0" result="BackgroundImageFix"/>
<feBlend mode="normal" in="SourceGraphic" in2="BackgroundImageFix" result="shape"/>
<feColorMatrix in="SourceAlpha" type="matrix" values="0 0 0 0 0 0 0 0 0 0 0 0 0 0 0 0 0 0 127 0" result="hardAlpha"/>
<feOffset dy="1.3839"/>
<feGaussianBlur stdDeviation="3.63273"/>
<feComposite in2="hardAlpha" operator="arithmetic" k2="-1" k3="1"/>
<feColorMatrix type="matrix" values="0 0 0 0 0.827451 0 0 0 0 0.894118 0 0 0 0 1 0 0 0 1 0"/>
<feBlend mode="multiply" in2="shape" result="effect1_innerShadow_978_98230"/>
</filter>
<filter id="filter21_i_978_98230" x="154.641" y="144.338" width="4.23828" height="5.71056" filterUnits="userSpaceOnUse" color-interpolation-filters="sRGB">
<feFlood flood-opacity="0" result="BackgroundImageFix"/>
<feBlend mode="normal" in="SourceGraphic" in2="BackgroundImageFix" result="shape"/>
<feColorMatrix in="SourceAlpha" type="matrix" values="0 0 0 0 0 0 0 0 0 0 0 0 0 0 0 0 0 0 127 0" result="hardAlpha"/>
<feOffset dy="1.3839"/>
<feGaussianBlur stdDeviation="3.63273"/>
<feComposite in2="hardAlpha" operator="arithmetic" k2="-1" k3="1"/>
<feColorMatrix type="matrix" values="0 0 0 0 0.827451 0 0 0 0 0.894118 0 0 0 0 1 0 0 0 1 0"/>
<feBlend mode="multiply" in2="shape" result="effect1_innerShadow_978_98230"/>
</filter>
<filter id="filter22_i_978_98230" x="154.664" y="138.249" width="4.23828" height="5.71056" filterUnits="userSpaceOnUse" color-interpolation-filters="sRGB">
<feFlood flood-opacity="0" result="BackgroundImageFix"/>
<feBlend mode="normal" in="SourceGraphic" in2="BackgroundImageFix" result="shape"/>
<feColorMatrix in="SourceAlpha" type="matrix" values="0 0 0 0 0 0 0 0 0 0 0 0 0 0 0 0 0 0 127 0" result="hardAlpha"/>
<feOffset dy="1.3839"/>
<feGaussianBlur stdDeviation="3.63273"/>
<feComposite in2="hardAlpha" operator="arithmetic" k2="-1" k3="1"/>
<feColorMatrix type="matrix" values="0 0 0 0 0.827451 0 0 0 0 0.894118 0 0 0 0 1 0 0 0 1 0"/>
<feBlend mode="multiply" in2="shape" result="effect1_innerShadow_978_98230"/>
</filter>
<filter id="filter23_i_978_98230" x="201.711" y="132.108" width="0.445312" height="7.36388" filterUnits="userSpaceOnUse" color-interpolation-filters="sRGB">
<feFlood flood-opacity="0" result="BackgroundImageFix"/>
<feBlend mode="normal" in="SourceGraphic" in2="BackgroundImageFix" result="shape"/>
<feColorMatrix in="SourceAlpha" type="matrix" values="0 0 0 0 0 0 0 0 0 0 0 0 0 0 0 0 0 0 127 0" result="hardAlpha"/>
<feOffset dy="1.3839"/>
<feGaussianBlur stdDeviation="3.63273"/>
<feComposite in2="hardAlpha" operator="arithmetic" k2="-1" k3="1"/>
<feColorMatrix type="matrix" values="0 0 0 0 0.827451 0 0 0 0 0.894118 0 0 0 0 1 0 0 0 1 0"/>
<feBlend mode="multiply" in2="shape" result="effect1_innerShadow_978_98230"/>
</filter>
<filter id="filter24_i_978_98230" x="202.367" y="135.775" width="1.76953" height="4.58556" filterUnits="userSpaceOnUse" color-interpolation-filters="sRGB">
<feFlood flood-opacity="0" result="BackgroundImageFix"/>
<feBlend mode="normal" in="SourceGraphic" in2="BackgroundImageFix" result="shape"/>
<feColorMatrix in="SourceAlpha" type="matrix" values="0 0 0 0 0 0 0 0 0 0 0 0 0 0 0 0 0 0 127 0" result="hardAlpha"/>
<feOffset dy="1.3839"/>
<feGaussianBlur stdDeviation="3.63273"/>
<feComposite in2="hardAlpha" operator="arithmetic" k2="-1" k3="1"/>
<feColorMatrix type="matrix" values="0 0 0 0 0.827451 0 0 0 0 0.894118 0 0 0 0 1 0 0 0 1 0"/>
<feBlend mode="multiply" in2="shape" result="effect1_innerShadow_978_98230"/>
</filter>
<filter id="filter25_i_978_98230" x="202.352" y="140.284" width="1.76953" height="4.58556" filterUnits="userSpaceOnUse" color-interpolation-filters="sRGB">
<feFlood flood-opacity="0" result="BackgroundImageFix"/>
<feBlend mode="normal" in="SourceGraphic" in2="BackgroundImageFix" result="shape"/>
<feColorMatrix in="SourceAlpha" type="matrix" values="0 0 0 0 0 0 0 0 0 0 0 0 0 0 0 0 0 0 127 0" result="hardAlpha"/>
<feOffset dy="1.3839"/>
<feGaussianBlur stdDeviation="3.63273"/>
<feComposite in2="hardAlpha" operator="arithmetic" k2="-1" k3="1"/>
<feColorMatrix type="matrix" values="0 0 0 0 0.827451 0 0 0 0 0.894118 0 0 0 0 1 0 0 0 1 0"/>
<feBlend mode="multiply" in2="shape" result="effect1_innerShadow_978_98230"/>
</filter>
<filter id="filter26_i_978_98230" x="201.691" y="141.122" width="0.445312" height="7.36388" filterUnits="userSpaceOnUse" color-interpolation-filters="sRGB">
<feFlood flood-opacity="0" result="BackgroundImageFix"/>
<feBlend mode="normal" in="SourceGraphic" in2="BackgroundImageFix" result="shape"/>
<feColorMatrix in="SourceAlpha" type="matrix" values="0 0 0 0 0 0 0 0 0 0 0 0 0 0 0 0 0 0 127 0" result="hardAlpha"/>
<feOffset dy="1.3839"/>
<feGaussianBlur stdDeviation="3.63273"/>
<feComposite in2="hardAlpha" operator="arithmetic" k2="-1" k3="1"/>
<feColorMatrix type="matrix" values="0 0 0 0 0.827451 0 0 0 0 0.894118 0 0 0 0 1 0 0 0 1 0"/>
<feBlend mode="multiply" in2="shape" result="effect1_innerShadow_978_98230"/>
</filter>
<filter id="filter27_i_978_98230" x="199.715" y="140.229" width="1.76953" height="4.58556" filterUnits="userSpaceOnUse" color-interpolation-filters="sRGB">
<feFlood flood-opacity="0" result="BackgroundImageFix"/>
<feBlend mode="normal" in="SourceGraphic" in2="BackgroundImageFix" result="shape"/>
<feColorMatrix in="SourceAlpha" type="matrix" values="0 0 0 0 0 0 0 0 0 0 0 0 0 0 0 0 0 0 127 0" result="hardAlpha"/>
<feOffset dy="1.3839"/>
<feGaussianBlur stdDeviation="3.63273"/>
<feComposite in2="hardAlpha" operator="arithmetic" k2="-1" k3="1"/>
<feColorMatrix type="matrix" values="0 0 0 0 0.827451 0 0 0 0 0.894118 0 0 0 0 1 0 0 0 1 0"/>
<feBlend mode="multiply" in2="shape" result="effect1_innerShadow_978_98230"/>
</filter>
<filter id="filter28_i_978_98230" x="199.719" y="135.728" width="1.76953" height="4.58556" filterUnits="userSpaceOnUse" color-interpolation-filters="sRGB">
<feFlood flood-opacity="0" result="BackgroundImageFix"/>
<feBlend mode="normal" in="SourceGraphic" in2="BackgroundImageFix" result="shape"/>
<feColorMatrix in="SourceAlpha" type="matrix" values="0 0 0 0 0 0 0 0 0 0 0 0 0 0 0 0 0 0 127 0" result="hardAlpha"/>
<feOffset dy="1.3839"/>
<feGaussianBlur stdDeviation="3.63273"/>
<feComposite in2="hardAlpha" operator="arithmetic" k2="-1" k3="1"/>
<feColorMatrix type="matrix" values="0 0 0 0 0.827451 0 0 0 0 0.894118 0 0 0 0 1 0 0 0 1 0"/>
<feBlend mode="multiply" in2="shape" result="effect1_innerShadow_978_98230"/>
</filter>
<filter id="filter29_i_978_98230" x="159.324" y="142.743" width="1.12891" height="3.04991" filterUnits="userSpaceOnUse" color-interpolation-filters="sRGB">
<feFlood flood-opacity="0" result="BackgroundImageFix"/>
<feBlend mode="normal" in="SourceGraphic" in2="BackgroundImageFix" result="shape"/>
<feColorMatrix in="SourceAlpha" type="matrix" values="0 0 0 0 0 0 0 0 0 0 0 0 0 0 0 0 0 0 127 0" result="hardAlpha"/>
<feOffset dy="1.3839"/>
<feGaussianBlur stdDeviation="3.63273"/>
<feComposite in2="hardAlpha" operator="arithmetic" k2="-1" k3="1"/>
<feColorMatrix type="matrix" values="0 0 0 0 0.827451 0 0 0 0 0.894118 0 0 0 0 1 0 0 0 1 0"/>
<feBlend mode="multiply" in2="shape" result="effect1_innerShadow_978_98230"/>
</filter>
<linearGradient id="paint0_linear_978_98230" x1="133.333" y1="133.333" x2="133.332" y2="176.783" gradientUnits="userSpaceOnUse">
<stop stop-color="#DDEAFF"/>
<stop offset="1" stop-color="#FEFFFF" stop-opacity="0"/>
</linearGradient>
<linearGradient id="paint1_linear_978_98230" x1="96.6904" y1="16.979" x2="94.4758" y2="39.3286" gradientUnits="userSpaceOnUse">
<stop stop-color="#DCEAFF"/>
<stop offset="1" stop-color="#F2F6FF"/>
</linearGradient>
<linearGradient id="paint2_linear_978_98230" x1="110.786" y1="46.0979" x2="89.3517" y2="56.4426" gradientUnits="userSpaceOnUse">
<stop stop-color="#254A84"/>
<stop offset="1" stop-color="#3266A4"/>
</linearGradient>
<linearGradient id="paint3_linear_978_98230" x1="200.944" y1="102.37" x2="190.084" y2="120.524" gradientUnits="userSpaceOnUse">
<stop stop-color="#DDEAFF"/>
<stop offset="0.931514" stop-color="#FEFFFF"/>
</linearGradient>
<linearGradient id="paint4_linear_978_98230" x1="185.869" y1="101.973" x2="172.409" y2="123.123" gradientUnits="userSpaceOnUse">
<stop stop-color="#DDEAFF"/>
<stop offset="0.931514" stop-color="#FEFFFF"/>
</linearGradient>
<linearGradient id="paint5_linear_978_98230" x1="184.439" y1="101.182" x2="179.908" y2="126.665" gradientUnits="userSpaceOnUse">
<stop stop-color="#DDEAFF"/>
<stop offset="0.931514" stop-color="#FEFFFF"/>
</linearGradient>
<linearGradient id="paint6_linear_978_98230" x1="132.923" y1="125.761" x2="131.404" y2="136.407" gradientUnits="userSpaceOnUse">
<stop stop-color="#DDEAFF"/>
<stop offset="0.931514" stop-color="#FEFFFF"/>
</linearGradient>
<linearGradient id="paint7_linear_978_98230" x1="206.862" y1="131.688" x2="194.003" y2="137.996" gradientUnits="userSpaceOnUse">
<stop stop-color="#DDEAFF"/>
<stop offset="0.931514" stop-color="#FEFFFF"/>
</linearGradient>
<linearGradient id="paint8_linear_978_98230" x1="170.894" y1="133.559" x2="150.504" y2="151.752" gradientUnits="userSpaceOnUse">
<stop stop-color="#DDEAFF"/>
<stop offset="0.931514" stop-color="#FEFFFF"/>
</linearGradient>
<clipPath id="clip0_978_98230">
<rect width="266.667" height="200" fill="white"/>
</clipPath>
</defs>
</svg>
