<svg width="106" height="106" viewBox="0 0 106 106" fill="none" xmlns="http://www.w3.org/2000/svg">
<mask id="mask0_33_643" style="mask-type:alpha" maskUnits="userSpaceOnUse" x="0" y="0" width="106" height="106">
<path d="M53 106C82.2711 106 106 82.2711 106 53C106 23.7289 82.2711 0 53 0C23.7289 0 0 23.7289 0 53C0 82.2711 23.7289 106 53 106Z" fill="#D5DBE4"/>
</mask>
<g mask="url(#mask0_33_643)">
<path d="M53 106C82.2711 106 106 82.2711 106 53C106 23.7289 82.2711 0 53 0C23.7289 0 0 23.7289 0 53C0 82.2711 23.7289 106 53 106Z" fill="#D5DBE4"/>
<path d="M66.7257 44.6908L56.5078 33.8008L63.3294 29.0369L72.4126 40.3608L66.7257 44.6908Z" fill="white"/>
<path d="M66.5171 43.6357L57.6692 34.2073L63.5712 30.082L71.4293 39.8838L66.5171 43.6357Z" fill="#2E2E2E"/>
<path d="M73.0254 45.4278C72.795 45.3493 72.584 45.2224 72.4068 45.0554C72.2295 44.8885 72.0902 44.6855 71.9981 44.4601C71.906 44.2347 71.8633 43.9922 71.8729 43.7489C71.8825 43.5056 71.9442 43.2672 72.0538 43.0498C72.7184 41.2054 71.9838 40.7031 71.9838 40.7031L65.6667 45.4774C65.6667 45.4774 68.2683 48.3087 69.1172 48.4884C69.9661 48.668 73.7874 46.5376 73.0254 45.4278Z" fill="#D38B74"/>
<path d="M65.6646 45.5034C65.6646 45.5034 62.3137 43.033 62.0044 42.6871C61.1703 41.7808 60.3912 40.8253 59.6714 39.8258C59.0849 38.9173 61.8754 39.0984 62.5426 40.0737C63.0316 40.7484 63.717 41.2558 64.5052 41.5265C65.0095 41.7695 67.7927 42.5751 68.3247 43.4988C68.8567 44.4224 65.6646 45.5034 65.6646 45.5034Z" fill="#D38B74"/>
<path d="M70.9973 39.4271C70.9484 39.4911 70.8824 39.54 70.8071 39.5684C70.7317 39.5967 70.6498 39.6034 70.5709 39.5875C70.4919 39.5717 70.4189 39.5341 70.3603 39.4789C70.3016 39.4236 70.2597 39.3531 70.2391 39.2752C69.9549 38.6389 70.1064 37.2689 70.9443 37.6537C71.7822 38.0386 70.9973 39.4271 70.9973 39.4271Z" fill="#DF967F"/>
<path d="M70.0656 37.5047C70.0656 37.5047 69.8249 38.5213 69.3572 38.0088C68.8894 37.4963 68.4843 35.7191 69.4175 35.8462C70.3508 35.9733 70.0656 37.5047 70.0656 37.5047Z" fill="#DF967F"/>
<path d="M68.6788 35.8557C68.6788 35.8557 68.5711 37.1032 67.982 36.6866C67.5367 36.3755 67.071 34.0677 67.9977 34.1943C68.9243 34.3209 68.6788 35.8557 68.6788 35.8557Z" fill="#DF967F"/>
<path d="M67.2402 48.8084L73.2953 44.7232L91.0937 69.5625C94.0605 72.2707 86.0598 77.2705 83.475 76.1875C76.4073 73.1947 65.3188 67.7115 59.2269 63.1424C49.9867 56.2076 57.7925 47.4368 60.8412 48.8387C63.8898 50.2407 69.5625 52.0062 69.5625 52.0062L67.2402 48.8084Z" fill="#73321D"/>
<path d="M72.1526 139.516C67.0314 141.059 61.7139 141.854 56.3652 141.875C54.6427 134.746 53.013 129.035 52.3372 129.897C51.7874 130.592 51.1911 135.462 50.6081 141.623C48.3945 141.409 46.1956 141.064 44.0229 140.589L42.731 140.285C41.2823 139.931 39.8557 139.523 38.4512 139.059C36.2616 138.333 34.1197 137.47 32.0382 136.475C31.9919 125.312 32.7007 114.036 35.2182 107.014C38.5307 97.8779 69.0919 111.996 69.0919 111.996C69.0919 111.996 70.7415 128.002 72.1526 139.516Z" fill="#2E2E2E"/>
<path d="M21.7701 115.805C21.7701 115.805 26.4076 117.222 28.3951 116.865C30.3826 116.507 29.3557 92.5775 29.4352 87.6021C29.4948 83.5608 31.9858 72.6362 31.9858 72.6362C31.8136 71.9737 34.7418 76.0415 35.0201 90.1262C35.1261 95.6448 34.298 116.745 34.298 116.745L41.7047 120.237L67.3302 120.972L71.0667 121.032C71.0667 121.032 70.4771 108.524 70.2585 104.237C70.1193 101.508 69.5959 96.632 69.7284 91.8819C69.7284 91.8819 69.6423 86.8733 70.1392 84.7202C70.1922 75.2001 70.7686 65.7727 70.7686 65.7727C71.0866 61.4532 71.3074 57.4142 71.4311 53.6556C70.3909 53.1057 69.1388 52.4565 68.1186 51.9795C65.0181 50.5087 60.6986 48.5212 57.9227 47.2492C56.2996 46.5006 54.7096 45.9574 54.7096 45.9574C54.7096 45.9574 43.6326 44.8973 42.7316 44.9503C41.5467 45.2761 40.3829 45.6743 39.2468 46.1429C35.3182 47.6335 27.7458 50.6677 26.5401 51.5356C24.7712 52.801 21.0347 82.8917 20.8625 84.9985C20.5643 88.7747 21.7701 115.805 21.7701 115.805Z" fill="#EAE0D5"/>
<path d="M42.7972 44.9241C43.6121 52.3971 51.9 52.3971 51.9 52.3971C51.9 52.3971 55.3317 49.3893 55.2125 47.17C55.2125 47.1236 55.2125 47.0706 55.2125 47.0242C55.1595 46.6135 54.6958 46.11 54.6494 45.2885C54.6494 45.1758 54.6494 45.0632 54.6494 44.9506V44.6193C54.6494 44.0496 54.6825 43.4865 54.7156 43.1022C54.7156 42.9631 54.7156 42.8438 54.7487 42.7577C54.7819 42.6716 54.7487 42.5391 54.7487 42.5391C54.7487 42.5391 53.4237 41.128 51.7145 39.4518C48.7465 36.517 44.6655 32.7606 44.6523 34.2512C44.6546 34.3474 44.668 34.443 44.692 34.5361C45.4208 37.9016 42.7972 44.9241 42.7972 44.9241Z" fill="#DFA692"/>
<path d="M48.4486 49.3232L51.9002 52.3906C51.9002 52.3906 47.9253 52.1322 47.1766 51.4631L48.4486 49.3232Z" fill="#959CA4"/>
<path d="M56.4846 46.6331C56.4846 46.6331 59.1346 52.8275 61.1221 66.6737C61.884 71.9737 63.2885 80.9506 64.3154 90.0865C65.1236 97.2945 66.9654 104.661 67.5484 110.2C68.1579 115.911 69.9864 132.725 69.9864 132.725L74.4185 129.929C75.081 129.346 75.9423 128.604 75.6839 127.763C74.4649 123.828 72.1263 110.809 70.7483 99.4675C70.682 98.9176 70.6157 98.381 70.5561 97.8377C70.5526 97.8091 70.5526 97.7802 70.5561 97.7516C70.2911 95.4859 70.0791 93.3129 69.8936 91.3187C69.794 89.8256 69.8585 88.326 70.0858 86.8469C70.7085 76.6642 71.0132 65.9251 71.0132 65.9251C71.3379 61.5327 71.5234 57.4252 71.6757 53.596C70.6091 53.1455 69.3239 52.1782 68.2175 51.6482C66.1174 50.6545 63.58 49.5282 61.248 48.4417C60.1284 47.9184 58.8299 47.6732 57.9355 47.2625L56.4846 46.6331Z" fill="#73321D"/>
<path d="M29.7529 87.8278C29.4084 92.4653 31.3628 118.011 29.415 118.369C27.4673 118.727 20.299 117.157 20.299 117.157C20.299 117.157 19.398 89.5835 19.6829 86.6817C19.8949 84.5816 23.2405 53.0267 24.9829 51.7613C26.0031 51.026 33.5954 48.3495 37.2855 46.8853C37.948 46.6137 40.1144 45.7127 40.7239 45.4808C41.5122 46.3553 48.3691 62.4607 49.025 75.0151C49.2237 78.8377 48.3227 86.9401 47.647 93.5055C46.9182 100.541 46.11 106.027 45.5204 111.91C44.361 123.503 43.5329 132.725 43.5329 132.725L31.9987 127.591C30.1305 126.657 27.5467 122.828 28.249 120.86C30.899 113.387 34.2711 100.627 34.2777 94.0752C34.2777 94.0752 32.9527 78.0228 31.9722 74.4983C30.9286 78.8855 30.1871 83.3392 29.7529 87.8278Z" fill="#73321D"/>
<path d="M55.6765 49.8663C55.6765 49.8663 55.968 54.1063 52.364 54.2057C48.76 54.3051 45.9312 50.8932 45.9312 50.8932L51.8937 52.4236L55.5175 49.3562L55.6765 49.8663Z" fill="#B3BAC4"/>
<path d="M54.9742 50.1249L51.9001 52.3907C51.9001 52.3907 54.5965 47.4749 54.6495 45.2887L54.9742 50.1249Z" fill="#959CA4"/>
<path d="M54.6498 45.2887L56.6174 46.6799L58.8169 53.2321L54.9678 50.1249L54.6498 45.2887Z" fill="white"/>
<path d="M64.4347 23.4323C64.4347 23.4323 66.6011 28.7323 65.1833 29.3352C64.0173 29.8586 65.8922 34.9996 66.1241 35.8343C66.356 36.6691 63.9842 37.0003 63.4741 37.4641C62.964 37.9278 60.8241 44.0891 58.8896 44.0891C56.9551 44.0891 48.7202 40.2002 46.64 37.5369C44.5597 34.8737 43.8045 23.7172 45.845 19.2586C47.8855 14.7999 60.5856 14.2236 64.4347 23.4323Z" fill="#DFA692"/>
<path d="M64.8387 24.5655C64.8387 24.5655 68.1512 19.4708 63.58 14.9592C59.0087 10.4476 49.0911 16.483 48.0245 16.642C46.9579 16.801 40.5846 18.1591 42.7973 27.6196C44.7848 36.2321 44.818 36.2917 44.818 36.2917C44.818 36.2917 47.2957 31.8 48.4551 31.1375C50.2704 30.0973 53.9274 30.7797 53.9274 30.7797C53.9274 30.7797 52.662 25.9236 55.4776 25.5526C58.2932 25.1816 62.1622 23.2471 64.8387 24.5655Z" fill="#604031"/>
<path d="M51.2838 27.825C51.1049 27.1625 50.6213 24.3203 48.0839 25.6917C45.5466 27.0631 48.8392 32.648 49.2433 32.7606C49.6474 32.8732 52.7546 33.4098 51.2838 27.825Z" fill="#DFA692"/>
<path d="M46.9185 37.9216C48.492 41.1697 51.256 43.6869 54.6366 44.9507V44.6195C54.6366 44.0497 54.6697 43.4866 54.7028 43.1024C54.7028 42.9632 54.7028 42.844 54.7359 42.7579C54.7691 42.6718 48.535 39.8363 46.9185 37.9216Z" fill="#CA8068"/>
<path d="M43.2745 43.5328C43.2745 43.5328 46.6731 47.8921 48.4486 49.3231L45.5403 54.2057L40.5251 45.5932L43.2745 43.5328Z" fill="white"/>
</g>
</svg>
