<svg width="32" height="33" viewBox="0 0 32 33" fill="none" xmlns="http://www.w3.org/2000/svg">
<g clip-path="url(#clip0)">
<path fill-rule="evenodd" clip-rule="evenodd" d="M15.1521 15.5448C18.7448 15.5448 21.6572 12.6324 21.6572 9.03972C21.6572 5.44708 18.7448 2.53467 15.1521 2.53467C11.5595 2.53467 8.64709 5.44708 8.64709 9.03972C8.64709 12.6324 11.5595 15.5448 15.1521 15.5448ZM15.8161 9.75092C15.7335 9.6683 15.6215 9.62189 15.5046 9.62189H14.8727C14.4849 9.62183 14.1115 9.47538 13.8271 9.21182C13.5427 8.94826 13.3683 8.58703 13.3388 8.20041C13.3093 7.81378 13.4268 7.43027 13.6679 7.1266C13.909 6.82292 14.2559 6.62148 14.6392 6.56257V5.9933C14.6392 5.84756 14.6971 5.70779 14.8001 5.60474C14.9032 5.50169 15.0429 5.4438 15.1887 5.4438C15.3344 5.4438 15.4742 5.50169 15.5772 5.60474C15.6803 5.70779 15.7382 5.84756 15.7382 5.9933V6.54279H16.0426C16.1883 6.54279 16.3281 6.60068 16.4311 6.70373C16.5342 6.80678 16.5921 6.94655 16.5921 7.09229C16.5921 7.23802 16.5342 7.37779 16.4311 7.48084C16.3281 7.58389 16.1883 7.64178 16.0426 7.64178H14.8727C14.7559 7.64178 14.6438 7.6882 14.5612 7.77082C14.4786 7.85344 14.4321 7.9655 14.4321 8.08234C14.4321 8.19918 14.4786 8.31124 14.5612 8.39386C14.6438 8.47648 14.7559 8.5229 14.8727 8.5229H15.5046C15.8924 8.52295 16.2658 8.6694 16.5502 8.93296C16.8346 9.19652 17.009 9.55775 17.0385 9.94437C17.0681 10.331 16.9505 10.7145 16.7094 11.0182C16.4683 11.3219 16.1214 11.5233 15.7382 11.5822V12.0377C15.7382 12.1835 15.6803 12.3232 15.5772 12.4263C15.4742 12.5293 15.3344 12.5872 15.1887 12.5872C15.0429 12.5872 14.9032 12.5293 14.8001 12.4263C14.6971 12.3232 14.6392 12.1835 14.6392 12.0377V11.602H14.2438C14.0981 11.602 13.9583 11.5441 13.8553 11.441C13.7522 11.338 13.6943 11.1982 13.6943 11.0525C13.6943 10.9068 13.7522 10.767 13.8553 10.6639C13.9583 10.5609 14.0981 10.503 14.2438 10.503H15.5046C15.6215 10.503 15.7335 10.4566 15.8161 10.374C15.8988 10.2913 15.9452 10.1793 15.9452 10.0624C15.9452 9.9456 15.8988 9.83354 15.8161 9.75092Z" fill="#173559"/>
<path fill-rule="evenodd" clip-rule="evenodd" d="M5.12824 26.6507L19.4142 26.8391L28.8797 21.3742C29.5449 20.9901 29.7737 20.1362 29.3897 19.471C29.0055 18.8056 28.1516 18.5768 27.4864 18.9609L20.0139 23.2751L11.2222 21.2349L11.685 19.2933L15.6181 20.1525C16.3772 20.2929 17.1319 19.8199 17.3281 19.0634C17.5328 18.2735 17.0579 17.4606 16.2687 17.252L9.31686 15.5795C8.07517 15.2807 6.76518 15.5109 5.69973 16.2151L1.85892 18.7536L1.86085 18.7687L1.85889 18.77V28.9873L4.67269 26.9136L5.12824 26.6507Z" fill="#173559"/>
<circle cx="26.6376" cy="26.9481" r="6.41931" fill="#F4F6F8"/>
<path d="M26.6371 21.5981C23.6843 21.5981 21.2877 23.9947 21.2877 26.9476C21.2877 29.9004 23.6843 32.297 26.6371 32.297C29.59 32.297 31.9866 29.9004 31.9866 26.9476C31.9866 23.9947 29.59 21.5981 26.6371 21.5981ZM25.1874 29.2425L23.267 27.322C23.0584 27.1134 23.0584 26.7764 23.267 26.5678C23.4756 26.3591 23.8126 26.3591 24.0213 26.5678L25.5673 28.1084L29.2477 24.428C29.4563 24.2194 29.7933 24.2194 30.0019 24.428C30.2106 24.6366 30.2106 24.9736 30.0019 25.1823L25.9417 29.2425C25.7384 29.4511 25.3961 29.4511 25.1874 29.2425Z" fill="#173559"/>
</g>
<defs>
<clipPath id="clip0">
<rect width="32" height="32" fill="white" transform="translate(0 0.353027)"/>
</clipPath>
</defs>
</svg>
