<svg width="32" height="27" viewBox="0 0 32 27" fill="none" xmlns="http://www.w3.org/2000/svg">
<path d="M16.0551 16.3384C17.6271 16.3384 18.6929 16.4824 20.0122 16.5545C21.7477 16.5545 21.5129 16.2664 21.6066 15.5686C21.6282 15.1725 21.6066 14.4048 21.6066 13.4139C21.6066 12.8645 21.5756 12.3906 21.1536 12.0457C20.6121 11.669 20.4241 10.9892 19.3201 9.60944C19.0083 9.23497 18.6115 9.22417 17.3131 9.19824C17.2253 9.19824 16.665 9.19824 16.0968 9.19824C15.5286 9.19824 14.9691 9.19824 14.8812 9.19824C13.585 9.22417 13.1853 9.23497 12.8735 9.60944C11.7695 10.9892 11.5816 11.669 11.0401 12.0457C10.6181 12.3921 10.5871 12.8659 10.5871 13.4139C10.5871 14.4048 10.5669 15.1725 10.5871 15.5686C10.68 16.2657 10.4431 16.5545 12.1807 16.5545C13.4748 16.4824 14.1856 16.3384 16.0551 16.3384Z" fill="#2E2E2E" stroke="#2E2E2E" stroke-width="0.353321" stroke-miterlimit="10"/>
<path d="M10.8816 11.5195L11.5139 11.549C11.5564 11.4892 11.6003 11.4266 11.6457 11.3581C11.6184 11.3559 11.5931 11.3432 11.5751 11.3226C11.5571 11.302 11.5478 11.2753 11.5492 11.248C11.5492 11.2386 11.5492 11.2307 11.5492 11.2235L11.5787 10.9174C11.5803 10.9006 11.5784 10.8837 11.5731 10.8677C11.5678 10.8518 11.5592 10.8371 11.5479 10.8246C11.5366 10.8121 11.5228 10.8021 11.5074 10.7953C11.492 10.7885 11.4753 10.7849 11.4585 10.7849H10.7506C10.7207 10.785 10.6919 10.7961 10.6698 10.8162C10.6477 10.8363 10.6339 10.8639 10.631 10.8937L10.5849 11.1687C10.5777 11.2119 10.58 11.256 10.5916 11.2982C10.6032 11.3403 10.6238 11.3795 10.652 11.4129C10.6803 11.4462 10.7154 11.4731 10.7551 11.4915C10.7947 11.5099 10.8379 11.5194 10.8816 11.5195Z" fill="#2E2E2E" stroke="#2E2E2E" stroke-width="0.353321" stroke-miterlimit="10"/>
<path d="M21.3156 11.5195L20.6826 11.549C20.6401 11.4892 20.5969 11.4266 20.5515 11.3582C20.5787 11.3558 20.6039 11.343 20.6219 11.3225C20.6399 11.3019 20.6492 11.2753 20.648 11.248V11.2257L20.6192 10.9196C20.6175 10.9029 20.6193 10.886 20.6245 10.87C20.6298 10.854 20.6383 10.8393 20.6496 10.8268C20.6608 10.8143 20.6746 10.8043 20.6899 10.7975C20.7053 10.7907 20.7219 10.7871 20.7387 10.7871H21.4466C21.4765 10.7872 21.5053 10.7983 21.5274 10.8184C21.5495 10.8385 21.5633 10.8661 21.5662 10.8958L21.6123 11.1709C21.6191 11.2139 21.6166 11.2578 21.6049 11.2997C21.5931 11.3416 21.5724 11.3805 21.5442 11.4136C21.516 11.4467 21.481 11.4733 21.4415 11.4916C21.4021 11.5099 21.3591 11.5194 21.3156 11.5195Z" fill="#2E2E2E" stroke="#2E2E2E" stroke-width="0.353321" stroke-miterlimit="10"/>
<path d="M12.1845 16.555C11.3268 16.555 10.9509 16.483 10.7781 16.3289V17.049C10.7781 17.0958 10.7967 17.1407 10.8298 17.1738C10.8628 17.2068 10.9077 17.2254 10.9545 17.2254H12.0088C12.0556 17.2254 12.1005 17.2068 12.1335 17.1738C12.1666 17.1407 12.1852 17.0958 12.1852 17.049V16.555H12.1845Z" fill="#2E2E2E" stroke="#2E2E2E" stroke-width="0.353321" stroke-miterlimit="10"/>
<path d="M20.0122 16.5549V17.0461C20.0122 17.0929 20.0308 17.1377 20.0639 17.1708C20.097 17.2039 20.1418 17.2225 20.1886 17.2225H21.2422C21.289 17.2225 21.3339 17.2039 21.367 17.1708C21.4 17.1377 21.4186 17.0929 21.4186 17.0461V16.3259C21.2465 16.4829 20.8699 16.5549 20.0122 16.5549Z" fill="#2E2E2E" stroke="#2E2E2E" stroke-width="0.353321" stroke-miterlimit="10"/>
<path d="M12.992 14.4946C12.9076 14.4747 12.8075 14.4513 12.6981 14.4256C12.1688 14.3018 11.4181 14.126 11.13 14.0413L11.1319 13.6505L11.1319 13.6505L11.1319 13.6494C11.1319 13.6386 11.1345 13.628 11.1393 13.6183C11.1442 13.6087 11.1513 13.6003 11.16 13.5939C11.1686 13.5875 11.1787 13.5832 11.1894 13.5814C11.2 13.5796 11.2109 13.5804 11.2213 13.5836L11.2215 13.5836L12.3348 13.9271L12.3348 13.9271C12.4739 13.97 12.5922 14.0073 12.6906 14.0612C12.7844 14.1126 12.8484 14.1732 12.8859 14.2573L12.8859 14.2573L12.8862 14.258C12.9225 14.3385 12.9593 14.4207 12.992 14.4946Z" fill="white" stroke="#2E2E2E" stroke-width="0.353321"/>
<mask id="path-7-inside-1_5268_262205" fill="white">
<path d="M21.1672 14.0817C21.1672 14.1077 21.1588 14.133 21.1434 14.154C21.128 14.175 21.1063 14.1905 21.0815 14.1983C20.7121 14.3136 19.2091 14.6535 18.9448 14.7204C18.9338 14.7235 18.9222 14.7235 18.9112 14.7202C18.9003 14.717 18.8905 14.7107 18.8829 14.7021C18.8754 14.6935 18.8705 14.683 18.8687 14.6717C18.8669 14.6604 18.8683 14.6488 18.8728 14.6383C18.9103 14.5498 18.9931 14.3625 19.0723 14.1854C19.1883 13.9268 19.4626 13.8419 19.7327 13.7583L20.8467 13.4148C20.8835 13.4034 20.9224 13.4008 20.9604 13.4072C20.9983 13.4137 21.0342 13.4289 21.0652 13.4517C21.0962 13.4746 21.1214 13.5044 21.1387 13.5388C21.156 13.5731 21.1651 13.6111 21.165 13.6496L21.1672 14.0817Z"/>
</mask>
<path d="M21.1672 14.0817C21.1672 14.1077 21.1588 14.133 21.1434 14.154C21.128 14.175 21.1063 14.1905 21.0815 14.1983C20.7121 14.3136 19.2091 14.6535 18.9448 14.7204C18.9338 14.7235 18.9222 14.7235 18.9112 14.7202C18.9003 14.717 18.8905 14.7107 18.8829 14.7021C18.8754 14.6935 18.8705 14.683 18.8687 14.6717C18.8669 14.6604 18.8683 14.6488 18.8728 14.6383C18.9103 14.5498 18.9931 14.3625 19.0723 14.1854C19.1883 13.9268 19.4626 13.8419 19.7327 13.7583L20.8467 13.4148C20.8835 13.4034 20.9224 13.4008 20.9604 13.4072C20.9983 13.4137 21.0342 13.4289 21.0652 13.4517C21.0962 13.4746 21.1214 13.5044 21.1387 13.5388C21.156 13.5731 21.1651 13.6111 21.165 13.6496L21.1672 14.0817Z" fill="white"/>
<path d="M21.1672 14.0817L21.5205 14.082L21.5205 14.0799L21.1672 14.0817ZM21.0815 14.1983L21.1867 14.5356L21.1875 14.5354L21.0815 14.1983ZM18.9448 14.7204L18.858 14.3778L18.8489 14.3804L18.9448 14.7204ZM18.8728 14.6383L19.1975 14.7778L19.1983 14.7759L18.8728 14.6383ZM19.0723 14.1854L18.7499 14.0408L18.7498 14.0411L19.0723 14.1854ZM19.7327 13.7583L19.6286 13.4207L19.6283 13.4208L19.7327 13.7583ZM20.8467 13.4148L20.9508 13.7525L20.9514 13.7523L20.8467 13.4148ZM21.165 13.6496L20.8117 13.6493L20.8117 13.6514L21.165 13.6496ZM20.8139 14.0813C20.8139 14.0322 20.8296 13.9844 20.8587 13.9449L21.4282 14.3632C21.4881 14.2817 21.5204 14.1832 21.5205 14.082L20.8139 14.0813ZM20.8587 13.9449C20.8877 13.9053 20.9287 13.876 20.9755 13.8613L21.1875 14.5354C21.284 14.505 21.3683 14.4447 21.4282 14.3632L20.8587 13.9449ZM20.9763 13.861C20.617 13.9731 19.151 14.3037 18.8581 14.3779L19.0316 15.0629C19.2672 15.0032 20.8071 14.654 21.1867 14.5356L20.9763 13.861ZM18.8489 14.3804C18.9021 14.3654 18.9585 14.3657 19.0115 14.3814L18.811 15.059C18.8859 15.0812 18.9656 15.0817 19.0408 15.0605L18.8489 14.3804ZM19.0115 14.3814C19.0646 14.3971 19.1121 14.4275 19.1486 14.4691L18.6173 14.9351C18.6689 14.9939 18.736 15.0368 18.811 15.059L19.0115 14.3814ZM19.1486 14.4691C19.185 14.5107 19.209 14.5618 19.2176 14.6164L18.5197 14.727C18.5319 14.8042 18.5658 14.8763 18.6173 14.9351L19.1486 14.4691ZM19.2176 14.6164C19.2263 14.671 19.2193 14.727 19.1975 14.7778L18.5482 14.4989C18.5174 14.5707 18.5075 14.6498 18.5197 14.727L19.2176 14.6164ZM19.1983 14.7759C19.2341 14.6912 19.3154 14.5073 19.3949 14.3296L18.7498 14.0411C18.6708 14.2178 18.5865 14.4083 18.5474 14.5008L19.1983 14.7759ZM19.3947 14.33C19.4124 14.2906 19.4435 14.255 19.5144 14.2161C19.5943 14.1723 19.6946 14.1399 19.8371 14.0959L19.6283 13.4208C19.5006 13.4603 19.3288 13.5121 19.175 13.5964C19.0122 13.6855 18.8482 13.8216 18.7499 14.0408L19.3947 14.33ZM19.8368 14.096L20.9508 13.7525L20.7426 13.0772L19.6286 13.4207L19.8368 14.096ZM20.9514 13.7523C20.9352 13.7573 20.9181 13.7584 20.9015 13.7556L21.0192 13.0589C20.9267 13.0432 20.8317 13.0496 20.7421 13.0774L20.9514 13.7523ZM20.9015 13.7556C20.8848 13.7528 20.8691 13.7461 20.8555 13.7361L21.2749 13.1674C21.1994 13.1117 21.1118 13.0745 21.0192 13.0589L20.9015 13.7556ZM20.8555 13.7361C20.8419 13.7261 20.8308 13.713 20.8232 13.6979L21.4542 13.3796C21.4119 13.2958 21.3505 13.2231 21.2749 13.1674L20.8555 13.7361ZM20.8232 13.6979C20.8156 13.6828 20.8117 13.6662 20.8117 13.6493L21.5183 13.6499C21.5184 13.556 21.4964 13.4635 21.4542 13.3796L20.8232 13.6979ZM20.8117 13.6514L20.8139 14.0834L21.5205 14.0799L21.5183 13.6478L20.8117 13.6514Z" fill="#2E2E2E" mask="url(#path-7-inside-1_5268_262205)"/>
<path d="M18.5979 9.75074L18.5978 9.75081L18.6027 9.7518C18.6896 9.76952 18.7699 9.81088 18.8348 9.87131C18.8626 9.90089 18.931 9.98746 19.0272 10.117C19.1229 10.2458 19.2388 10.4068 19.3538 10.5709C19.4688 10.735 19.5823 10.9012 19.6735 11.0404C19.7039 11.0868 19.731 11.129 19.7545 11.1664H12.4411C12.4648 11.1285 12.4922 11.0856 12.5229 11.0386C12.6139 10.899 12.7272 10.7325 12.842 10.5683C12.9568 10.4042 13.0725 10.2434 13.1682 10.1152C13.2668 9.98307 13.3349 9.89831 13.3605 9.8728C13.4255 9.81149 13.5063 9.76958 13.5939 9.75185L13.594 9.75192L13.599 9.75074C13.6827 9.73121 13.8759 9.71373 14.1368 9.70017C14.3912 9.68694 14.6938 9.67807 14.9849 9.67215C15.2758 9.66623 15.5542 9.66327 15.7599 9.66178C15.8627 9.66104 15.9474 9.66067 16.0062 9.66049L16.0743 9.66033L16.0921 9.66031L16.0966 9.6603L16.0977 9.6603L16.098 9.6603H16.0981L16.0981 9.48364L16.0981 9.6603H16.0981L16.0984 9.6603L16.0996 9.6603L16.1041 9.66031L16.1219 9.66033L16.1899 9.66049C16.2488 9.66067 16.3335 9.66104 16.4363 9.66178C16.6421 9.66327 16.9206 9.66623 17.2116 9.67215C17.5028 9.67807 17.8055 9.68694 18.06 9.70017C18.3209 9.71373 18.5141 9.73121 18.5979 9.75074ZM12.2392 11.2832L12.1895 11.3156L12.2392 11.2832Z" fill="white" stroke="#2E2E2E" stroke-width="0.353321"/>
<path d="M17.5655 15.7631L17.6218 15.7865L17.5655 15.7631ZM17.5655 15.7631L17.562 15.7633M17.5655 15.7631V15.7631ZM17.5655 15.7631L17.562 15.7633M17.562 15.7633V15.7633ZM17.445 15.6516H14.6703V15.2121H17.4149C17.4207 15.2693 17.4261 15.3387 17.4309 15.4099C17.4368 15.4972 17.4416 15.5847 17.445 15.6516Z" fill="white" stroke="#2E2E2E" stroke-width="0.353321"/>
<path d="M27.957 6.97024C25.5879 2.80227 20.952 3.62396e-05 15.9027 3.62396e-05C9.15723 3.62396e-05 3.3328 5.23376 2.21132 11.8113L0.367896 11.5838C0.0985933 11.554 -0.0901747 11.8499 0.0446196 12.0905L2.9447 17.2675C3.05693 17.4678 3.32737 17.4976 3.47873 17.3263L7.38605 12.8972C7.56768 12.6914 7.4446 12.3616 7.17501 12.332L5.7948 12.1554C6.74235 6.43108 11.3159 2.30638 17.1004 2.30638C21.243 2.30638 24.8068 4.23233 26.8875 7.60238C27.0409 7.85091 27.4947 7.88658 27.7434 7.73951C27.9879 7.59478 28.059 7.14977 27.957 6.97024Z" fill="#FFD942"/>
<path d="M4.095 19.3676C6.45979 23.5308 11.087 26.3298 16.127 26.3298C22.8599 26.3298 28.6735 21.1021 29.7929 14.5321L31.6329 14.7594C31.9018 14.7891 32.0902 14.4936 31.9556 14.2535L29.0609 9.08217C28.9489 8.88211 28.679 8.85232 28.5279 9.02347L24.6278 13.4475C24.4465 13.6531 24.5694 13.9825 24.8385 14.012L26.2161 14.1884C25.2703 19.9062 20.7052 24.0261 14.9315 24.0261C10.7966 24.0261 7.2394 22.1027 5.16252 18.7362C5.00945 18.488 4.5565 18.4523 4.30822 18.5992C4.06422 18.7438 3.99324 19.1883 4.095 19.3676Z" fill="#2E2E2E"/>
</svg>
