<svg width="33" height="34" viewBox="0 0 33 34" fill="none" xmlns="http://www.w3.org/2000/svg">
<path d="M2.86816 5.0038C2.63008 4.68213 2.6633 4.23465 2.94629 3.95166L3.59784 3.30011C3.88082 3.01713 4.3283 2.9839 4.64998 3.22199L6.18927 4.36128L7.1067 5.66069C7.33357 5.98201 7.29611 6.42002 7.01797 6.69816L6.34433 7.37179C6.06619 7.64993 5.62819 7.68739 5.30686 7.46052L4.00745 6.54309L2.86816 5.0038Z" fill="#173559"/>
<path fill-rule="evenodd" clip-rule="evenodd" d="M20.7747 16.8L28.4731 24.4219C29.5278 25.4661 29.5321 27.1691 28.4826 28.2186L27.8968 28.8044C26.8546 29.8466 25.1663 29.8508 24.1189 28.8138L16.4016 21.1731L18.142 19.4327L25.7297 27.0044C25.9639 27.2381 26.3431 27.2379 26.5771 27.0039C26.8114 26.7696 26.8112 26.3897 26.5766 26.1556L18.9898 18.5849L20.7747 16.8Z" fill="#173559"/>
<path d="M12.0674 10.275L12.9886 11.1962L10.7615 13.4233L9.84028 12.5021C9.22528 11.8871 9.22528 10.89 9.84028 10.275C10.4553 9.66005 11.4524 9.66005 12.0674 10.275Z" fill="#173559"/>
<path d="M15.407 11.4356L15.8219 11.8505L11.498 16.1743L11.0832 15.7594C10.0733 14.7496 10.0733 13.1123 11.0832 12.1025L11.75 11.4356C12.7599 10.4257 14.3972 10.4257 15.407 11.4356Z" fill="#173559"/>
<rect x="5.87476" y="7.09473" width="1.10393" height="8.95774" transform="rotate(-45 5.87476 7.09473)" fill="#173559"/>
<path fill-rule="evenodd" clip-rule="evenodd" d="M20.3507 4.55629C21.7628 3.1442 23.7939 2.72845 25.5705 3.30903L22.141 6.73851L25.5694 10.1669L28.9163 6.82004C29.3874 8.53821 28.948 10.4538 27.5981 11.8037C26.2671 13.1348 24.386 13.5806 22.6865 13.1411L6.83649 28.9911C5.88976 29.9378 4.35482 29.9378 3.40809 28.9911C2.46137 28.0443 2.46137 26.5094 3.40809 25.5627L19.1263 9.84444C18.5123 8.05178 18.9205 5.98651 20.3507 4.55629Z" fill="#173559"/>
<circle cx="26.5531" cy="26.9906" r="6.41931" fill="#F4F6F8"/>
<path d="M26.5525 21.6406C23.5997 21.6406 21.2031 24.0372 21.2031 26.99C21.2031 29.9429 23.5997 32.3395 26.5525 32.3395C29.5054 32.3395 31.902 29.9429 31.902 26.99C31.902 24.0372 29.5054 21.6406 26.5525 21.6406ZM25.1029 29.285L23.1824 27.3645C22.9738 27.1559 22.9738 26.8189 23.1824 26.6102C23.391 26.4016 23.7281 26.4016 23.9367 26.6102L25.4827 28.1509L29.1631 24.4705C29.3717 24.2618 29.7087 24.2618 29.9173 24.4705C30.126 24.6791 30.126 25.0161 29.9173 25.2247L25.8571 29.285C25.6538 29.4936 25.3115 29.4936 25.1029 29.285Z" fill="#173559"/>
</svg>
