<svg width="33" height="34" viewBox="0 0 33 34" fill="none" xmlns="http://www.w3.org/2000/svg">
<path d="M2.49235 28.0104C2.01899 27.5371 2.01899 26.7696 2.49235 26.2962L25.8005 2.98804C26.2739 2.51468 27.0414 2.51468 27.5147 2.98804C27.9881 3.4614 27.9881 4.22888 27.5147 4.70224L4.20655 28.0104C3.73319 28.4838 2.96572 28.4838 2.49235 28.0104Z" fill="#173559"/>
<path fill-rule="evenodd" clip-rule="evenodd" d="M12.0723 2.93896L9.00171 6.09041L5.44615 9.56516H9.48656C10.9147 9.56516 12.0724 8.40743 12.0724 6.9793V2.93896H12.0723ZM5.44604 10.7773V21.6118L11.9976 15.0602H11.5074C10.838 15.0602 10.2953 14.5175 10.2953 13.8481C10.2953 13.1787 10.838 12.636 11.5074 12.636H14.4218L24.1188 2.93896H13.2845V6.9793C13.2845 9.07687 11.5841 10.7773 9.48656 10.7773H5.44604ZM8.03191 28.3127C7.35749 28.3127 6.74337 28.0545 6.28301 27.6316L12.3898 21.5248H20.719C21.3884 21.5248 21.9311 20.9821 21.9311 20.3127C21.9311 19.6433 21.3884 19.1006 20.719 19.1006H14.814L18.8544 15.0602H20.7195C21.389 15.0602 21.9317 14.5175 21.9317 13.8481C21.9317 13.3439 21.6238 12.9115 21.1857 12.7289L26.7794 7.13523V25.7268C26.7794 27.155 25.6217 28.3127 24.1935 28.3127H8.03191Z" fill="#173559"/>
<circle cx="26.553" cy="26.9906" r="6.41931" fill="#F4F6F8"/>
<path d="M26.5524 21.6406C23.5995 21.6406 21.203 24.0372 21.203 26.99C21.203 29.9429 23.5995 32.3395 26.5524 32.3395C29.5053 32.3395 31.9019 29.9429 31.9019 26.99C31.9019 24.0372 29.5053 21.6406 26.5524 21.6406ZM25.1027 29.285L23.1823 27.3645C22.9737 27.1559 22.9737 26.8189 23.1823 26.6102C23.3909 26.4016 23.7279 26.4016 23.9366 26.6102L25.4825 28.1509L29.1629 24.4705C29.3716 24.2618 29.7086 24.2618 29.9172 24.4705C30.1258 24.6791 30.1258 25.0161 29.9172 25.2247L25.857 29.285C25.6537 29.4936 25.3114 29.4936 25.1027 29.285Z" fill="#173559"/>
</svg>
