<svg width="60" height="60" viewBox="0 0 60 60" fill="none" xmlns="http://www.w3.org/2000/svg">
<circle cx="30" cy="30" r="30" fill="#173559"/>
<path fill-rule="evenodd" clip-rule="evenodd" d="M41.5473 33.8828L32.1176 25.4709C31.2875 25.9432 29.946 27.0858 28.9321 27.9499C28.6239 28.2138 28.3351 28.4592 28.0839 28.6676C27.5776 29.0884 26.9651 29.3088 26.3112 29.3088H25.7932C24.721 29.3088 23.7589 28.7019 23.2798 27.7256C22.7359 26.6226 22.947 25.2954 23.8055 24.4207L27.421 20.7887C27.5974 20.6793 27.7762 20.5603 27.9573 20.4398L27.9574 20.4398L27.9843 20.4219C25.9538 19.9997 23.6462 19.9707 21.0681 20.3836C19.7772 20.564 17.5455 19.9153 15.89 19.2088C15.1065 18.8745 14 19.4858 14 20.3377V29.3698C14 30.194 14.5056 30.9338 15.2735 31.2332L16.4481 31.6911C16.5595 31.4074 16.727 31.1403 16.951 30.9067L17.748 30.0755C18.6668 29.1172 20.1885 29.0852 21.1469 30.0041C21.5838 30.423 21.8282 30.9673 21.8777 31.5264C22.6601 31.3209 23.5277 31.5151 24.1544 32.116C24.518 32.4647 24.7482 32.9001 24.8438 33.3586C25.7334 32.8934 26.8568 33.0212 27.6215 33.7544C28.0901 34.2037 28.3372 34.7971 28.36 35.3984L28.4091 35.4381C29.1325 35.3167 29.9022 35.5268 30.4724 36.0735C30.9375 36.5196 31.1845 37.1076 31.2103 37.7044L31.3904 37.85L32.5554 38.8592C32.5562 38.8609 32.5576 38.8621 32.5592 38.8634L32.5619 38.8658L33.1808 39.4014C33.5408 39.6943 34.0122 39.8632 34.4926 39.8632C35.0274 39.8632 35.4625 39.4199 35.4625 38.875C35.4625 38.5808 35.3343 38.3051 35.1129 38.1164L29.2197 33.1136C28.9451 32.8801 28.9076 32.4645 29.1368 32.1848C29.366 31.9064 29.7739 31.8668 30.0498 32.1017L37.3298 38.2826C37.5306 38.4515 37.7818 38.5439 38.042 38.5439H38.2324C38.8475 38.5439 39.346 38.0346 39.346 37.4092C39.346 37.0794 39.2101 36.7707 38.9692 36.5543L31.8096 30.4762C31.535 30.2427 31.4975 29.8271 31.728 29.5461C31.9585 29.2651 32.3664 29.2308 32.6396 29.4617L39.776 35.52C39.786 35.5279 39.796 35.5368 39.8052 35.545L39.8097 35.549L39.9158 35.6387C40.1178 35.8116 40.3742 35.9052 40.6371 35.9052H40.8107C41.431 35.9052 41.9373 35.3894 41.9373 34.7574C41.9371 34.4185 41.7959 34.1032 41.5473 33.8828ZM30.8355 39.1021C30.7521 39.2324 30.6549 39.3566 30.5438 39.4724L29.7462 40.3043L30.4561 40.9748C30.7332 41.2558 31.1424 41.24 31.3871 40.9907C31.7096 40.6621 31.8378 40.0328 31.6889 39.8428L30.8355 39.1021Z" fill="#FDCF33"/>
<path fill-rule="evenodd" clip-rule="evenodd" d="M41.0591 21.2626C40.9672 21.3431 40.8559 21.3959 40.7354 21.4143C38.1326 21.818 36.2563 21.1887 34.7516 20.6821L34.731 20.6752C33.8139 20.3681 33.022 20.1029 32.2213 20.1029C30.8607 20.1029 29.8068 20.8084 28.788 21.4903L28.7872 21.4909L28.7642 21.5062L28.7642 21.5062L28.7642 21.5062C28.5353 21.6592 28.3123 21.8081 28.0918 21.9447L24.7172 25.3829C24.2549 25.8539 24.141 26.5703 24.4336 27.1652C24.6913 27.6916 25.2106 28.0189 25.7881 28.0189H26.3061C26.6583 28.0189 26.9885 27.9001 27.2604 27.6758C27.5078 27.47 27.7927 27.2286 28.0969 26.9686C29.7558 25.5557 31.096 24.4461 31.9934 24.1031C32.0685 24.0741 32.1436 24.0609 32.2213 24.0609C32.3741 24.0609 32.5256 24.1163 32.6448 24.2218L42.0032 32.4847L44.9943 30.7709C45.6163 30.4145 46 29.7525 46 29.0356V20.0016C46 19.2183 45.1403 18.7391 44.474 19.151L41.0591 21.2626ZM18.5792 30.8726C19.0579 30.3733 19.8507 30.3566 20.3499 30.8353C20.8491 31.314 20.8658 32.1068 20.3871 32.606L19.5901 33.4372C19.1115 33.9365 18.3187 33.9531 17.8195 33.4745C17.3202 32.9958 17.3035 32.203 17.7822 31.7038L18.5792 30.8726ZM23.3573 32.9473C22.8581 32.4686 22.0653 32.4853 21.5866 32.9845L19.9329 34.7093C19.4542 35.2086 19.4709 36.0013 19.9701 36.48C20.4693 36.9587 21.2621 36.942 21.7408 36.4428L23.3945 34.718C23.8732 34.2187 23.8566 33.426 23.3573 32.9473ZM25.0539 34.6229C25.5325 34.1236 26.3253 34.107 26.8245 34.5856C27.3238 35.0643 27.3405 35.8571 26.8618 36.3563L24.67 38.6422C24.1914 39.1414 23.3986 39.1581 22.8994 38.6794C22.4001 38.2007 22.3834 37.408 22.8621 36.9087L25.0539 34.6229ZM29.6753 36.9049C29.1761 36.4262 28.3833 36.4429 27.9046 36.9422L25.8125 39.1241C25.3338 39.6234 25.3505 40.4161 25.8497 40.8948C26.349 41.3735 27.1417 41.3568 27.6204 40.8576L29.7125 38.6756C30.1912 38.1764 30.1745 37.3836 29.6753 36.9049Z" fill="white"/>
</svg>
