<svg width="20" height="20" viewBox="0 0 20 20" fill="none" xmlns="http://www.w3.org/2000/svg">
<path fill-rule="evenodd" clip-rule="evenodd" d="M9.99999 1.66675C14.6024 1.66675 18.3333 5.39771 18.3333 10.0001C18.3333 14.6025 14.6024 18.3334 9.99999 18.3334C5.39762 18.3334 1.66666 14.6025 1.66666 10.0001C1.66666 5.39771 5.39762 1.66675 9.99999 1.66675ZM10.8741 8.91908C11.2709 8.91908 11.3503 9.41599 11.1122 10.1614L10.636 12.2318C10.5567 12.5631 10.5567 12.7288 10.636 12.7288C10.9535 12.6459 11.2709 12.4803 11.509 12.2318L11.6678 12.5631C11.1122 13.2257 10.2392 13.7226 9.36616 13.8882C8.96933 13.8882 8.73124 13.6398 8.96933 12.5631L9.44553 10.6583L9.49017 10.4538C9.51994 10.2908 9.50505 10.2442 9.44553 10.2442C9.12807 10.2442 8.81061 10.4098 8.49315 10.5755L8.49314 10.5755L8.33441 10.2442C9.0487 9.58163 9.92173 9.08472 10.8741 8.91908ZM11.4572 6.6876C11.3757 6.35838 11.0496 6.11146 10.7235 6.11146L10.5864 6.11767C10.004 6.17109 9.58224 6.56414 9.58224 7.09912C9.58224 7.59294 9.8268 7.83986 10.3974 7.83986H10.479C10.9681 7.83986 11.4572 7.42834 11.4572 6.8522V6.6876Z" fill="#B3BAC4"/>
</svg>
