<svg width="20" height="17" viewBox="0 0 20 17" fill="none" xmlns="http://www.w3.org/2000/svg">
<path d="M8.67 9.02C8.45 9.01 8.23 9 8 9C5.58 9 3.32 9.67 1.39 10.82C0.51 11.34 0 12.32 0 13.35V15C0 15.55 0.45 16 1 16H9.26C8.47 14.87 8 13.49 8 12C8 10.93 8.25 9.93 8.67 9.02Z" fill="#FDCF33"/>
<path d="M8 8C10.2091 8 12 6.20914 12 4C12 1.79086 10.2091 0 8 0C5.79086 0 4 1.79086 4 4C4 6.20914 5.79086 8 8 8Z" fill="#FDCF33"/>
<path d="M18.7509 11.9998C18.7509 11.7798 18.7209 11.5798 18.6909 11.3698L19.5309 10.6398C19.7109 10.4798 19.7509 10.2198 19.6309 10.0098L19.0409 8.98977C18.9209 8.77977 18.6709 8.68977 18.4509 8.76977L17.3909 9.12977C17.0709 8.85977 16.7109 8.64977 16.3109 8.49977L16.0909 7.40977C16.0409 7.17977 15.8409 7.00977 15.6009 7.00977H14.4209C14.1809 7.00977 13.9809 7.17977 13.9309 7.40977L13.7109 8.49977C13.3109 8.64977 12.9509 8.85977 12.6309 9.12977L11.5709 8.76977C11.3409 8.68977 11.1009 8.78977 10.9809 8.98977L10.3909 10.0098C10.2709 10.2198 10.3109 10.4798 10.4909 10.6398L11.3309 11.3698C11.3009 11.5798 11.2709 11.7798 11.2709 11.9998C11.2709 12.2198 11.3009 12.4198 11.3309 12.6298L10.4909 13.3598C10.3109 13.5198 10.2709 13.7798 10.3909 13.9898L10.9809 15.0098C11.1009 15.2198 11.3509 15.3098 11.5709 15.2298L12.6309 14.8698C12.9509 15.1398 13.3109 15.3498 13.7109 15.4998L13.9309 16.5898C13.9809 16.8198 14.1809 16.9898 14.4209 16.9898H15.6009C15.8409 16.9898 16.0409 16.8198 16.0909 16.5898L16.3109 15.4998C16.7109 15.3498 17.0709 15.1398 17.3909 14.8698L18.4509 15.2298C18.6809 15.3098 18.9209 15.2098 19.0409 15.0098L19.6309 13.9898C19.7509 13.7798 19.7109 13.5198 19.5309 13.3598L18.6909 12.6298C18.7209 12.4198 18.7509 12.2198 18.7509 11.9998ZM15.0009 13.9998C13.9009 13.9998 13.0009 13.0998 13.0009 11.9998C13.0009 10.8998 13.9009 9.99977 15.0009 9.99977C16.1009 9.99977 17.0009 10.8998 17.0009 11.9998C17.0009 13.0998 16.1009 13.9998 15.0009 13.9998Z" fill="#FDCF33"/>
</svg>
