<svg width="50" height="12" viewBox="0 0 50 12" fill="none" xmlns="http://www.w3.org/2000/svg">
<path d="M50 0H0V4C0 8.41828 3.58172 12 8 12H50V0Z" fill="#E4E7EA"/>
<path d="M10.8662 5.92578L11.4551 5.11719L10.5703 4.85352L10.708 4.41406L11.5928 4.73926L11.5664 3.73145H12.0117L11.9824 4.75684L12.8555 4.43164L12.9902 4.87988L12.0908 5.14648L12.668 5.94043L12.3047 6.21289L11.7627 5.36914L11.2324 6.19238L10.8662 5.92578ZM15.1436 3.73438V8H14.5869V3.73438H15.1436ZM16.5146 3.73438V4.19727H13.2188V3.73438H16.5146ZM17.8535 5.63281L18.4922 5.17871C18.6152 5.09473 18.71 5.01074 18.7764 4.92676C18.8447 4.84082 18.8789 4.72363 18.8789 4.5752C18.8789 4.45996 18.834 4.35547 18.7441 4.26172C18.6543 4.16602 18.5273 4.11816 18.3633 4.11816C18.25 4.11816 18.1543 4.14453 18.0762 4.19727C17.998 4.25 17.9395 4.32031 17.9004 4.4082C17.8613 4.49414 17.8418 4.58887 17.8418 4.69238C17.8418 4.78027 17.8633 4.87109 17.9062 4.96484C17.9492 5.05859 18.0088 5.15625 18.085 5.25781C18.1611 5.35938 18.248 5.4668 18.3457 5.58008L20.3643 8H19.7139L18.0586 6.01953C17.9121 5.84766 17.7812 5.69043 17.666 5.54785C17.5508 5.40332 17.46 5.26367 17.3936 5.12891C17.3291 4.99414 17.2969 4.85449 17.2969 4.70996C17.2969 4.4873 17.3408 4.2998 17.4287 4.14746C17.5186 3.99316 17.6436 3.87598 17.8037 3.7959C17.9639 3.71582 18.1514 3.67578 18.3662 3.67578C18.5752 3.67578 18.7549 3.71777 18.9053 3.80176C19.0576 3.88379 19.1748 3.99316 19.2568 4.12988C19.3389 4.26465 19.3799 4.41309 19.3799 4.5752C19.3799 4.71191 19.3555 4.83496 19.3066 4.94434C19.2578 5.05176 19.1895 5.15039 19.1016 5.24023C19.0156 5.33008 18.915 5.41797 18.7998 5.50391L17.9531 6.13379C17.8125 6.2373 17.71 6.33594 17.6455 6.42969C17.5811 6.52344 17.5391 6.60645 17.5195 6.67871C17.502 6.75098 17.4932 6.80859 17.4932 6.85156C17.4932 6.99023 17.5234 7.11719 17.584 7.23242C17.6445 7.34766 17.7363 7.44043 17.8594 7.51074C17.9844 7.5791 18.1406 7.61328 18.3281 7.61328C18.4922 7.61328 18.6514 7.57617 18.8057 7.50195C18.9619 7.42578 19.1016 7.31836 19.2246 7.17969C19.3477 7.03906 19.4453 6.87207 19.5176 6.67871C19.5918 6.4834 19.6289 6.26758 19.6289 6.03125H20.1152C20.1152 6.22461 20.0967 6.40723 20.0596 6.5791C20.0225 6.75098 19.9648 6.91113 19.8867 7.05957C19.8105 7.20605 19.7129 7.33984 19.5938 7.46094C19.5762 7.47852 19.5625 7.49902 19.5527 7.52246C19.543 7.5459 19.5293 7.56641 19.5117 7.58398C19.3652 7.74219 19.1846 7.86133 18.9697 7.94141C18.7568 8.01953 18.543 8.05859 18.3281 8.05859C18.0449 8.05859 17.7998 8.00684 17.5928 7.90332C17.3877 7.7998 17.2295 7.65723 17.1182 7.47559C17.0068 7.29395 16.9512 7.08594 16.9512 6.85156C16.9512 6.67188 16.9893 6.51367 17.0654 6.37695C17.1436 6.24023 17.25 6.1123 17.3848 5.99316C17.5215 5.87402 17.6777 5.75391 17.8535 5.63281ZM23.4551 6.64355H24.0176C23.9883 6.91309 23.9111 7.1543 23.7861 7.36719C23.6611 7.58008 23.4844 7.74902 23.2559 7.87402C23.0273 7.99707 22.7422 8.05859 22.4004 8.05859C22.1504 8.05859 21.9229 8.01172 21.7178 7.91797C21.5146 7.82422 21.3398 7.69141 21.1934 7.51953C21.0469 7.3457 20.9336 7.1377 20.8535 6.89551C20.7754 6.65137 20.7363 6.37988 20.7363 6.08105V5.65625C20.7363 5.35742 20.7754 5.08691 20.8535 4.84473C20.9336 4.60059 21.0479 4.3916 21.1963 4.21777C21.3467 4.04395 21.5273 3.91016 21.7383 3.81641C21.9492 3.72266 22.1865 3.67578 22.4502 3.67578C22.7725 3.67578 23.0449 3.73633 23.2676 3.85742C23.4902 3.97852 23.6631 4.14648 23.7861 4.36133C23.9111 4.57422 23.9883 4.82129 24.0176 5.10254H23.4551C23.4277 4.90332 23.377 4.73242 23.3027 4.58984C23.2285 4.44531 23.123 4.33398 22.9863 4.25586C22.8496 4.17773 22.6709 4.13867 22.4502 4.13867C22.2607 4.13867 22.0938 4.1748 21.9492 4.24707C21.8066 4.31934 21.6865 4.42188 21.5889 4.55469C21.4932 4.6875 21.4209 4.84668 21.3721 5.03223C21.3232 5.21777 21.2988 5.42383 21.2988 5.65039V6.08105C21.2988 6.29004 21.3203 6.48633 21.3633 6.66992C21.4082 6.85352 21.4756 7.01465 21.5654 7.15332C21.6553 7.29199 21.7695 7.40137 21.9082 7.48145C22.0469 7.55957 22.2109 7.59863 22.4004 7.59863C22.6406 7.59863 22.832 7.56055 22.9746 7.48438C23.1172 7.4082 23.2246 7.29883 23.2969 7.15625C23.3711 7.01367 23.4238 6.84277 23.4551 6.64355ZM27.8555 4.1123L26.4434 8H25.8662L27.4922 3.73438H27.8643L27.8555 4.1123ZM29.0391 8L27.624 4.1123L27.6152 3.73438H27.9873L29.6191 8H29.0391ZM28.9658 6.4209V6.88379H26.5693V6.4209H28.9658ZM30.6504 5.43945V9.21875H30.1055V4.83008H30.6035L30.6504 5.43945ZM32.7861 6.38867V6.4502C32.7861 6.68066 32.7588 6.89453 32.7041 7.0918C32.6494 7.28711 32.5693 7.45703 32.4639 7.60156C32.3604 7.74609 32.2324 7.8584 32.0801 7.93848C31.9277 8.01855 31.7529 8.05859 31.5557 8.05859C31.3545 8.05859 31.1768 8.02539 31.0225 7.95898C30.8682 7.89258 30.7373 7.7959 30.6299 7.66895C30.5225 7.54199 30.4365 7.38965 30.3721 7.21191C30.3096 7.03418 30.2666 6.83398 30.2432 6.61133V6.2832C30.2666 6.04883 30.3105 5.83887 30.375 5.65332C30.4395 5.46777 30.5244 5.30957 30.6299 5.17871C30.7373 5.0459 30.8672 4.94531 31.0195 4.87695C31.1719 4.80664 31.3477 4.77148 31.5469 4.77148C31.7461 4.77148 31.9229 4.81055 32.0771 4.88867C32.2314 4.96484 32.3613 5.07422 32.4668 5.2168C32.5723 5.35938 32.6514 5.53027 32.7041 5.72949C32.7588 5.92676 32.7861 6.14648 32.7861 6.38867ZM32.2412 6.4502V6.38867C32.2412 6.23047 32.2246 6.08203 32.1914 5.94336C32.1582 5.80273 32.1064 5.67969 32.0361 5.57422C31.9678 5.4668 31.8799 5.38281 31.7725 5.32227C31.665 5.25977 31.5371 5.22852 31.3887 5.22852C31.252 5.22852 31.1328 5.25195 31.0312 5.29883C30.9316 5.3457 30.8467 5.40918 30.7764 5.48926C30.7061 5.56738 30.6484 5.65723 30.6035 5.75879C30.5605 5.8584 30.5283 5.96191 30.5068 6.06934V6.82812C30.5459 6.96484 30.6006 7.09375 30.6709 7.21484C30.7412 7.33398 30.835 7.43066 30.9521 7.50488C31.0693 7.57715 31.2168 7.61328 31.3945 7.61328C31.541 7.61328 31.667 7.58301 31.7725 7.52246C31.8799 7.45996 31.9678 7.375 32.0361 7.26758C32.1064 7.16016 32.1582 7.03711 32.1914 6.89844C32.2246 6.75781 32.2412 6.6084 32.2412 6.4502ZM34.0195 5.43945V9.21875H33.4746V4.83008H33.9727L34.0195 5.43945ZM36.1553 6.38867V6.4502C36.1553 6.68066 36.1279 6.89453 36.0732 7.0918C36.0186 7.28711 35.9385 7.45703 35.833 7.60156C35.7295 7.74609 35.6016 7.8584 35.4492 7.93848C35.2969 8.01855 35.1221 8.05859 34.9248 8.05859C34.7236 8.05859 34.5459 8.02539 34.3916 7.95898C34.2373 7.89258 34.1064 7.7959 33.999 7.66895C33.8916 7.54199 33.8057 7.38965 33.7412 7.21191C33.6787 7.03418 33.6357 6.83398 33.6123 6.61133V6.2832C33.6357 6.04883 33.6797 5.83887 33.7441 5.65332C33.8086 5.46777 33.8936 5.30957 33.999 5.17871C34.1064 5.0459 34.2363 4.94531 34.3887 4.87695C34.541 4.80664 34.7168 4.77148 34.916 4.77148C35.1152 4.77148 35.292 4.81055 35.4463 4.88867C35.6006 4.96484 35.7305 5.07422 35.8359 5.2168C35.9414 5.35938 36.0205 5.53027 36.0732 5.72949C36.1279 5.92676 36.1553 6.14648 36.1553 6.38867ZM35.6104 6.4502V6.38867C35.6104 6.23047 35.5938 6.08203 35.5605 5.94336C35.5273 5.80273 35.4756 5.67969 35.4053 5.57422C35.3369 5.4668 35.249 5.38281 35.1416 5.32227C35.0342 5.25977 34.9062 5.22852 34.7578 5.22852C34.6211 5.22852 34.502 5.25195 34.4004 5.29883C34.3008 5.3457 34.2158 5.40918 34.1455 5.48926C34.0752 5.56738 34.0176 5.65723 33.9727 5.75879C33.9297 5.8584 33.8975 5.96191 33.876 6.06934V6.82812C33.915 6.96484 33.9697 7.09375 34.04 7.21484C34.1104 7.33398 34.2041 7.43066 34.3213 7.50488C34.4385 7.57715 34.5859 7.61328 34.7637 7.61328C34.9102 7.61328 35.0361 7.58301 35.1416 7.52246C35.249 7.45996 35.3369 7.375 35.4053 7.26758C35.4756 7.16016 35.5273 7.03711 35.5605 6.89844C35.5938 6.75781 35.6104 6.6084 35.6104 6.4502ZM37.4355 3.5V8H36.8906V3.5H37.4355ZM39.1963 7.67188L40.0781 4.83008H40.6582L39.3867 8.48926C39.3574 8.56738 39.3184 8.65137 39.2695 8.74121C39.2227 8.83301 39.1621 8.91992 39.0879 9.00195C39.0137 9.08398 38.9238 9.15039 38.8184 9.20117C38.7148 9.25391 38.5908 9.28027 38.4463 9.28027C38.4033 9.28027 38.3486 9.27441 38.2822 9.2627C38.2158 9.25098 38.1689 9.24121 38.1416 9.2334L38.1387 8.79395C38.1543 8.7959 38.1787 8.79785 38.2119 8.7998C38.2471 8.80371 38.2715 8.80566 38.2852 8.80566C38.4082 8.80566 38.5127 8.78906 38.5986 8.75586C38.6846 8.72461 38.7568 8.6709 38.8154 8.59473C38.876 8.52051 38.9277 8.41797 38.9707 8.28711L39.1963 7.67188ZM38.5488 4.83008L39.3721 7.29102L39.5127 7.8623L39.123 8.06152L37.957 4.83008H38.5488ZM40.8398 7.71289C40.8398 7.62109 40.8682 7.54395 40.9248 7.48145C40.9834 7.41699 41.0674 7.38477 41.1768 7.38477C41.2861 7.38477 41.3691 7.41699 41.4258 7.48145C41.4844 7.54395 41.5137 7.62109 41.5137 7.71289C41.5137 7.80273 41.4844 7.87891 41.4258 7.94141C41.3691 8.00391 41.2861 8.03516 41.1768 8.03516C41.0674 8.03516 40.9834 8.00391 40.9248 7.94141C40.8682 7.87891 40.8398 7.80273 40.8398 7.71289Z" fill="#B3BAC4"/>
</svg>
