<svg width="98" height="12" viewBox="0 0 98 12" fill="none" xmlns="http://www.w3.org/2000/svg">
<path d="M97.9521 4C97.9521 1.79086 96.1613 0 93.9521 0H0.952148V4C0.952148 8.41828 4.53387 12 8.95215 12H97.9521V4Z" fill="#E4E7EA"/>
<path d="M9.94824 5.12012L9.06348 4.85645L9.19824 4.41406L10.083 4.74219L10.0566 3.73438H10.5049L10.4756 4.75684L11.3457 4.43457L11.4805 4.87988L10.5811 5.14648L11.1611 5.94043L10.7979 6.21582L10.2529 5.37207L9.72559 6.19531L9.35938 5.92871L9.94824 5.12012ZM13.3174 6.09863C12.835 5.95996 12.4834 5.79004 12.2627 5.58887C12.0439 5.38574 11.9346 5.13574 11.9346 4.83887C11.9346 4.50293 12.0684 4.22559 12.3359 4.00684C12.6055 3.78613 12.9551 3.67578 13.3848 3.67578C13.6777 3.67578 13.9385 3.73242 14.167 3.8457C14.3975 3.95898 14.5752 4.11523 14.7002 4.31445C14.8271 4.51367 14.8906 4.73145 14.8906 4.96777H14.3252C14.3252 4.70996 14.2432 4.50781 14.0791 4.36133C13.915 4.21289 13.6836 4.13867 13.3848 4.13867C13.1074 4.13867 12.8906 4.2002 12.7344 4.32324C12.5801 4.44434 12.5029 4.61328 12.5029 4.83008C12.5029 5.00391 12.5762 5.15137 12.7227 5.27246C12.8711 5.3916 13.1221 5.50098 13.4756 5.60059C13.8311 5.7002 14.1084 5.81055 14.3076 5.93164C14.5088 6.05078 14.6572 6.19043 14.7529 6.35059C14.8506 6.51074 14.8994 6.69922 14.8994 6.91602C14.8994 7.26172 14.7646 7.53906 14.4951 7.74805C14.2256 7.95508 13.8652 8.05859 13.4141 8.05859C13.1211 8.05859 12.8477 8.00293 12.5938 7.8916C12.3398 7.77832 12.1436 7.62402 12.0049 7.42871C11.8682 7.2334 11.7998 7.01172 11.7998 6.76367H12.3652C12.3652 7.02148 12.46 7.22559 12.6494 7.37598C12.8408 7.52441 13.0957 7.59863 13.4141 7.59863C13.7109 7.59863 13.9385 7.53809 14.0967 7.41699C14.2549 7.2959 14.334 7.13086 14.334 6.92188C14.334 6.71289 14.2607 6.55176 14.1143 6.43848C13.9678 6.32324 13.7021 6.20996 13.3174 6.09863ZM16.5752 7.20605L17.3135 4.83008H17.8936L16.6191 8.48926C16.4219 9.0166 16.1084 9.28027 15.6787 9.28027L15.5762 9.27148L15.374 9.2334V8.79395L15.5205 8.80566C15.7041 8.80566 15.8467 8.76855 15.9482 8.69434C16.0518 8.62012 16.1367 8.48438 16.2031 8.28711L16.3232 7.96484L15.1924 4.83008H15.7842L16.5752 7.20605ZM20.29 8C20.2588 7.9375 20.2334 7.82617 20.2139 7.66602C19.9619 7.92773 19.6611 8.05859 19.3115 8.05859C18.999 8.05859 18.7422 7.9707 18.541 7.79492C18.3418 7.61719 18.2422 7.39258 18.2422 7.12109C18.2422 6.79102 18.3672 6.53516 18.6172 6.35352C18.8691 6.16992 19.2227 6.07812 19.6777 6.07812H20.2051V5.8291C20.2051 5.63965 20.1484 5.48926 20.0352 5.37793C19.9219 5.26465 19.7549 5.20801 19.5342 5.20801C19.3408 5.20801 19.1787 5.25684 19.0479 5.35449C18.917 5.45215 18.8516 5.57031 18.8516 5.70898H18.3066C18.3066 5.55078 18.3623 5.39844 18.4736 5.25195C18.5869 5.10352 18.7393 4.98633 18.9307 4.90039C19.124 4.81445 19.3359 4.77148 19.5664 4.77148C19.9316 4.77148 20.2178 4.86328 20.4248 5.04688C20.6318 5.22852 20.7393 5.47949 20.7471 5.7998V7.25879C20.7471 7.5498 20.7842 7.78125 20.8584 7.95312V8H20.29ZM19.3906 7.58691C19.5605 7.58691 19.7217 7.54297 19.874 7.45508C20.0264 7.36719 20.1367 7.25293 20.2051 7.1123V6.46191H19.7803C19.1162 6.46191 18.7842 6.65625 18.7842 7.04492C18.7842 7.21484 18.8408 7.34766 18.9541 7.44336C19.0674 7.53906 19.2129 7.58691 19.3906 7.58691ZM23.1289 5.31641C23.0469 5.30273 22.958 5.2959 22.8623 5.2959C22.5068 5.2959 22.2656 5.44727 22.1387 5.75V8H21.5967V4.83008H22.124L22.1328 5.19629C22.3105 4.91309 22.5625 4.77148 22.8887 4.77148C22.9941 4.77148 23.0742 4.78516 23.1289 4.8125V5.31641ZM25.4697 8C25.4385 7.9375 25.4131 7.82617 25.3936 7.66602C25.1416 7.92773 24.8408 8.05859 24.4912 8.05859C24.1787 8.05859 23.9219 7.9707 23.7207 7.79492C23.5215 7.61719 23.4219 7.39258 23.4219 7.12109C23.4219 6.79102 23.5469 6.53516 23.7969 6.35352C24.0488 6.16992 24.4023 6.07812 24.8574 6.07812H25.3848V5.8291C25.3848 5.63965 25.3281 5.48926 25.2148 5.37793C25.1016 5.26465 24.9346 5.20801 24.7139 5.20801C24.5205 5.20801 24.3584 5.25684 24.2275 5.35449C24.0967 5.45215 24.0312 5.57031 24.0312 5.70898H23.4863C23.4863 5.55078 23.542 5.39844 23.6533 5.25195C23.7666 5.10352 23.9189 4.98633 24.1104 4.90039C24.3037 4.81445 24.5156 4.77148 24.7461 4.77148C25.1113 4.77148 25.3975 4.86328 25.6045 5.04688C25.8115 5.22852 25.9189 5.47949 25.9268 5.7998V7.25879C25.9268 7.5498 25.9639 7.78125 26.0381 7.95312V8H25.4697ZM24.5703 7.58691C24.7402 7.58691 24.9014 7.54297 25.0537 7.45508C25.2061 7.36719 25.3164 7.25293 25.3848 7.1123V6.46191H24.96C24.2959 6.46191 23.9639 6.65625 23.9639 7.04492C23.9639 7.21484 24.0205 7.34766 24.1338 7.44336C24.2471 7.53906 24.3926 7.58691 24.5703 7.58691ZM27.5117 4.0625V4.83008H28.1035V5.24902H27.5117V7.21484C27.5117 7.3418 27.5381 7.4375 27.5908 7.50195C27.6436 7.56445 27.7334 7.5957 27.8604 7.5957C27.9229 7.5957 28.0088 7.58398 28.1182 7.56055V8C27.9756 8.03906 27.8369 8.05859 27.7021 8.05859C27.46 8.05859 27.2773 7.98535 27.1543 7.83887C27.0312 7.69238 26.9697 7.48438 26.9697 7.21484V5.24902H26.3926V4.83008H26.9697V4.0625H27.5117ZM30.0957 6.38867C30.0957 5.90234 30.2109 5.51172 30.4414 5.2168C30.6719 4.91992 30.9736 4.77148 31.3467 4.77148C31.7178 4.77148 32.0117 4.89844 32.2285 5.15234V3.5H32.7705V8H32.2725L32.2461 7.66016C32.0293 7.92578 31.7275 8.05859 31.3408 8.05859C30.9736 8.05859 30.6738 7.9082 30.4414 7.60742C30.2109 7.30664 30.0957 6.91406 30.0957 6.42969V6.38867ZM30.6377 6.4502C30.6377 6.80957 30.7119 7.09082 30.8604 7.29395C31.0088 7.49707 31.2139 7.59863 31.4756 7.59863C31.8193 7.59863 32.0703 7.44434 32.2285 7.13574V5.67969C32.0664 5.38086 31.8174 5.23145 31.4814 5.23145C31.2158 5.23145 31.0088 5.33398 30.8604 5.53906C30.7119 5.74414 30.6377 6.04785 30.6377 6.4502ZM35.5713 8C35.54 7.9375 35.5146 7.82617 35.4951 7.66602C35.2432 7.92773 34.9424 8.05859 34.5928 8.05859C34.2803 8.05859 34.0234 7.9707 33.8223 7.79492C33.623 7.61719 33.5234 7.39258 33.5234 7.12109C33.5234 6.79102 33.6484 6.53516 33.8984 6.35352C34.1504 6.16992 34.5039 6.07812 34.959 6.07812H35.4863V5.8291C35.4863 5.63965 35.4297 5.48926 35.3164 5.37793C35.2031 5.26465 35.0361 5.20801 34.8154 5.20801C34.6221 5.20801 34.46 5.25684 34.3291 5.35449C34.1982 5.45215 34.1328 5.57031 34.1328 5.70898H33.5879C33.5879 5.55078 33.6436 5.39844 33.7549 5.25195C33.8682 5.10352 34.0205 4.98633 34.2119 4.90039C34.4053 4.81445 34.6172 4.77148 34.8477 4.77148C35.2129 4.77148 35.499 4.86328 35.7061 5.04688C35.9131 5.22852 36.0205 5.47949 36.0283 5.7998V7.25879C36.0283 7.5498 36.0654 7.78125 36.1396 7.95312V8H35.5713ZM34.6719 7.58691C34.8418 7.58691 35.0029 7.54297 35.1553 7.45508C35.3076 7.36719 35.418 7.25293 35.4863 7.1123V6.46191H35.0615C34.3975 6.46191 34.0654 6.65625 34.0654 7.04492C34.0654 7.21484 34.1221 7.34766 34.2354 7.44336C34.3486 7.53906 34.4941 7.58691 34.6719 7.58691ZM37.3906 4.83008L37.4082 5.22852C37.6504 4.92383 37.9668 4.77148 38.3574 4.77148C39.0273 4.77148 39.3652 5.14941 39.3711 5.90527V8H38.8291V5.90234C38.8271 5.67383 38.7744 5.50488 38.6709 5.39551C38.5693 5.28613 38.4102 5.23145 38.1934 5.23145C38.0176 5.23145 37.8633 5.27832 37.7305 5.37207C37.5977 5.46582 37.4941 5.58887 37.4199 5.74121V8H36.8779V4.83008H37.3906ZM42.8457 6.0166L42.3242 6.55859V8H41.7617V3.73438H42.3242V5.84375L44.2197 3.73438H44.8994L43.2207 5.61816L45.0312 8H44.3574L42.8457 6.0166ZM46.6777 8.05859C46.248 8.05859 45.8984 7.91797 45.6289 7.63672C45.3594 7.35352 45.2246 6.97559 45.2246 6.50293V6.40332C45.2246 6.08887 45.2842 5.80859 45.4033 5.5625C45.5244 5.31445 45.6924 5.12109 45.9072 4.98242C46.124 4.8418 46.3584 4.77148 46.6104 4.77148C47.0225 4.77148 47.3428 4.90723 47.5713 5.17871C47.7998 5.4502 47.9141 5.83887 47.9141 6.34473V6.57031H45.7666C45.7744 6.88281 45.8652 7.13574 46.0391 7.3291C46.2148 7.52051 46.4375 7.61621 46.707 7.61621C46.8984 7.61621 47.0605 7.57715 47.1934 7.49902C47.3262 7.4209 47.4424 7.31738 47.542 7.18848L47.873 7.44629C47.6074 7.85449 47.209 8.05859 46.6777 8.05859ZM46.6104 5.2168C46.3916 5.2168 46.208 5.29688 46.0596 5.45703C45.9111 5.61523 45.8193 5.83789 45.7842 6.125H47.3721V6.08398C47.3564 5.80859 47.2822 5.5957 47.1494 5.44531C47.0166 5.29297 46.8369 5.2168 46.6104 5.2168ZM49.2793 4.0625V4.83008H49.8711V5.24902H49.2793V7.21484C49.2793 7.3418 49.3057 7.4375 49.3584 7.50195C49.4111 7.56445 49.501 7.5957 49.6279 7.5957C49.6904 7.5957 49.7764 7.58398 49.8857 7.56055V8C49.7432 8.03906 49.6045 8.05859 49.4697 8.05859C49.2275 8.05859 49.0449 7.98535 48.9219 7.83887C48.7988 7.69238 48.7373 7.48438 48.7373 7.21484V5.24902H48.1602V4.83008H48.7373V4.0625H49.2793ZM51.8223 8.05859C51.3926 8.05859 51.043 7.91797 50.7734 7.63672C50.5039 7.35352 50.3691 6.97559 50.3691 6.50293V6.40332C50.3691 6.08887 50.4287 5.80859 50.5479 5.5625C50.6689 5.31445 50.8369 5.12109 51.0518 4.98242C51.2686 4.8418 51.5029 4.77148 51.7549 4.77148C52.167 4.77148 52.4873 4.90723 52.7158 5.17871C52.9443 5.4502 53.0586 5.83887 53.0586 6.34473V6.57031H50.9111C50.9189 6.88281 51.0098 7.13574 51.1836 7.3291C51.3594 7.52051 51.582 7.61621 51.8516 7.61621C52.043 7.61621 52.2051 7.57715 52.3379 7.49902C52.4707 7.4209 52.5869 7.31738 52.6865 7.18848L53.0176 7.44629C52.752 7.85449 52.3535 8.05859 51.8223 8.05859ZM51.7549 5.2168C51.5361 5.2168 51.3525 5.29688 51.2041 5.45703C51.0557 5.61523 50.9639 5.83789 50.9287 6.125H52.5166V6.08398C52.501 5.80859 52.4268 5.5957 52.2939 5.44531C52.1611 5.29297 51.9814 5.2168 51.7549 5.2168ZM54.2012 4.83008L54.2188 5.22852C54.4609 4.92383 54.7773 4.77148 55.168 4.77148C55.8379 4.77148 56.1758 5.14941 56.1816 5.90527V8H55.6396V5.90234C55.6377 5.67383 55.585 5.50488 55.4814 5.39551C55.3799 5.28613 55.2207 5.23145 55.0039 5.23145C54.8281 5.23145 54.6738 5.27832 54.541 5.37207C54.4082 5.46582 54.3047 5.58887 54.2305 5.74121V8H53.6885V4.83008H54.2012ZM57.7344 4.0625V4.83008H58.3262V5.24902H57.7344V7.21484C57.7344 7.3418 57.7607 7.4375 57.8135 7.50195C57.8662 7.56445 57.9561 7.5957 58.083 7.5957C58.1455 7.5957 58.2314 7.58398 58.3408 7.56055V8C58.1982 8.03906 58.0596 8.05859 57.9248 8.05859C57.6826 8.05859 57.5 7.98535 57.377 7.83887C57.2539 7.69238 57.1924 7.48438 57.1924 7.21484V5.24902H56.6152V4.83008H57.1924V4.0625H57.7344ZM60.9189 7.68652C60.708 7.93457 60.3984 8.05859 59.9902 8.05859C59.6523 8.05859 59.3945 7.96094 59.2168 7.76562C59.041 7.56836 58.9521 7.27734 58.9502 6.89258V4.83008H59.4922V6.87793C59.4922 7.3584 59.6875 7.59863 60.0781 7.59863C60.4922 7.59863 60.7676 7.44434 60.9043 7.13574V4.83008H61.4463V8H60.9307L60.9189 7.68652ZM64.2295 8C64.1982 7.9375 64.1729 7.82617 64.1533 7.66602C63.9014 7.92773 63.6006 8.05859 63.251 8.05859C62.9385 8.05859 62.6816 7.9707 62.4805 7.79492C62.2812 7.61719 62.1816 7.39258 62.1816 7.12109C62.1816 6.79102 62.3066 6.53516 62.5566 6.35352C62.8086 6.16992 63.1621 6.07812 63.6172 6.07812H64.1445V5.8291C64.1445 5.63965 64.0879 5.48926 63.9746 5.37793C63.8613 5.26465 63.6943 5.20801 63.4736 5.20801C63.2803 5.20801 63.1182 5.25684 62.9873 5.35449C62.8564 5.45215 62.791 5.57031 62.791 5.70898H62.2461C62.2461 5.55078 62.3018 5.39844 62.4131 5.25195C62.5264 5.10352 62.6787 4.98633 62.8701 4.90039C63.0635 4.81445 63.2754 4.77148 63.5059 4.77148C63.8711 4.77148 64.1572 4.86328 64.3643 5.04688C64.5713 5.22852 64.6787 5.47949 64.6865 5.7998V7.25879C64.6865 7.5498 64.7236 7.78125 64.7979 7.95312V8H64.2295ZM63.3301 7.58691C63.5 7.58691 63.6611 7.54297 63.8135 7.45508C63.9658 7.36719 64.0762 7.25293 64.1445 7.1123V6.46191H63.7197C63.0557 6.46191 62.7236 6.65625 62.7236 7.04492C62.7236 7.21484 62.7803 7.34766 62.8936 7.44336C63.0068 7.53906 63.1523 7.58691 63.3301 7.58691ZM66.0488 4.83008L66.0664 5.22852C66.3086 4.92383 66.625 4.77148 67.0156 4.77148C67.6855 4.77148 68.0234 5.14941 68.0293 5.90527V8H67.4873V5.90234C67.4854 5.67383 67.4326 5.50488 67.3291 5.39551C67.2275 5.28613 67.0684 5.23145 66.8516 5.23145C66.6758 5.23145 66.5215 5.27832 66.3887 5.37207C66.2559 5.46582 66.1523 5.58887 66.0781 5.74121V8H65.5361V4.83008H66.0488ZM70.4199 8V3.73438H71.8145C72.2773 3.73438 72.625 3.83008 72.8574 4.02148C73.0918 4.21289 73.209 4.49609 73.209 4.87109C73.209 5.07031 73.1523 5.24707 73.0391 5.40137C72.9258 5.55371 72.7715 5.67188 72.5762 5.75586C72.8066 5.82031 72.9883 5.94336 73.1211 6.125C73.2559 6.30469 73.3232 6.51953 73.3232 6.76953C73.3232 7.15234 73.1992 7.45312 72.9512 7.67188C72.7031 7.89062 72.3525 8 71.8994 8H70.4199ZM70.9824 6.00488V7.54004H71.9111C72.1729 7.54004 72.3789 7.47266 72.5293 7.33789C72.6816 7.20117 72.7578 7.01367 72.7578 6.77539C72.7578 6.26172 72.4785 6.00488 71.9199 6.00488H70.9824ZM70.9824 5.55371H71.832C72.0781 5.55371 72.2744 5.49219 72.4209 5.36914C72.5693 5.24609 72.6436 5.0791 72.6436 4.86816C72.6436 4.63379 72.5752 4.46387 72.4385 4.3584C72.3018 4.25098 72.0938 4.19727 71.8145 4.19727H70.9824V5.55371ZM75.3887 8.05859C74.959 8.05859 74.6094 7.91797 74.3398 7.63672C74.0703 7.35352 73.9355 6.97559 73.9355 6.50293V6.40332C73.9355 6.08887 73.9951 5.80859 74.1143 5.5625C74.2354 5.31445 74.4033 5.12109 74.6182 4.98242C74.835 4.8418 75.0693 4.77148 75.3213 4.77148C75.7334 4.77148 76.0537 4.90723 76.2822 5.17871C76.5107 5.4502 76.625 5.83887 76.625 6.34473V6.57031H74.4775C74.4854 6.88281 74.5762 7.13574 74.75 7.3291C74.9258 7.52051 75.1484 7.61621 75.418 7.61621C75.6094 7.61621 75.7715 7.57715 75.9043 7.49902C76.0371 7.4209 76.1533 7.31738 76.2529 7.18848L76.584 7.44629C76.3184 7.85449 75.9199 8.05859 75.3887 8.05859ZM75.3213 5.2168C75.1025 5.2168 74.9189 5.29688 74.7705 5.45703C74.6221 5.61523 74.5303 5.83789 74.4951 6.125H76.083V6.08398C76.0674 5.80859 75.9932 5.5957 75.8604 5.44531C75.7275 5.29297 75.5479 5.2168 75.3213 5.2168ZM78.7871 5.31641C78.7051 5.30273 78.6162 5.2959 78.5205 5.2959C78.165 5.2959 77.9238 5.44727 77.7969 5.75V8H77.2549V4.83008H77.7822L77.791 5.19629C77.9688 4.91309 78.2207 4.77148 78.5469 4.77148C78.6523 4.77148 78.7324 4.78516 78.7871 4.8125V5.31641ZM79.877 8H79.335V3.5H79.877V8ZM82.7041 8C82.6729 7.9375 82.6475 7.82617 82.6279 7.66602C82.376 7.92773 82.0752 8.05859 81.7256 8.05859C81.4131 8.05859 81.1562 7.9707 80.9551 7.79492C80.7559 7.61719 80.6562 7.39258 80.6562 7.12109C80.6562 6.79102 80.7812 6.53516 81.0312 6.35352C81.2832 6.16992 81.6367 6.07812 82.0918 6.07812H82.6191V5.8291C82.6191 5.63965 82.5625 5.48926 82.4492 5.37793C82.3359 5.26465 82.1689 5.20801 81.9482 5.20801C81.7549 5.20801 81.5928 5.25684 81.4619 5.35449C81.3311 5.45215 81.2656 5.57031 81.2656 5.70898H80.7207C80.7207 5.55078 80.7764 5.39844 80.8877 5.25195C81.001 5.10352 81.1533 4.98633 81.3447 4.90039C81.5381 4.81445 81.75 4.77148 81.9805 4.77148C82.3457 4.77148 82.6318 4.86328 82.8389 5.04688C83.0459 5.22852 83.1533 5.47949 83.1611 5.7998V7.25879C83.1611 7.5498 83.1982 7.78125 83.2725 7.95312V8H82.7041ZM81.8047 7.58691C81.9746 7.58691 82.1357 7.54297 82.2881 7.45508C82.4404 7.36719 82.5508 7.25293 82.6191 7.1123V6.46191H82.1943C81.5303 6.46191 81.1982 6.65625 81.1982 7.04492C81.1982 7.21484 81.2549 7.34766 81.3682 7.44336C81.4814 7.53906 81.627 7.58691 81.8047 7.58691ZM84.8955 6.53223L84.5557 6.88672V8H84.0137V3.5H84.5557V6.22168L84.8457 5.87305L85.833 4.83008H86.4922L85.2588 6.1543L86.6357 8H86L84.8955 6.53223ZM89.0088 7.68652C88.7979 7.93457 88.4883 8.05859 88.0801 8.05859C87.7422 8.05859 87.4844 7.96094 87.3066 7.76562C87.1309 7.56836 87.042 7.27734 87.04 6.89258V4.83008H87.582V6.87793C87.582 7.3584 87.7773 7.59863 88.168 7.59863C88.582 7.59863 88.8574 7.44434 88.9941 7.13574V4.83008H89.5361V8H89.0205L89.0088 7.68652Z" fill="#959CA4"/>
</svg>
