<svg width="50" height="12" viewBox="0 0 50 12" fill="none" xmlns="http://www.w3.org/2000/svg">
<path d="M50 4C50 1.79086 48.2091 0 46 0H0V4C0 8.41828 3.58172 12 8 12H50V4Z" fill="#E4E7EA"/>
<path d="M11.4551 5.12012L10.5703 4.85645L10.7051 4.41406L11.5898 4.74219L11.5635 3.73438H12.0117L11.9824 4.75684L12.8525 4.43457L12.9873 4.87988L12.0879 5.14648L12.668 5.94043L12.3047 6.21582L11.7598 5.37207L11.2324 6.19531L10.8662 5.92871L11.4551 5.12012ZM16.5146 4.19727H15.1436V8H14.584V4.19727H13.2158V3.73438H16.5146V4.19727ZM16.9482 6.85449C16.9482 6.64941 17.0049 6.46094 17.1182 6.28906C17.2334 6.11719 17.4521 5.91699 17.7744 5.68848C17.585 5.45801 17.458 5.27246 17.3936 5.13184C17.3291 4.99121 17.2969 4.85156 17.2969 4.71289C17.2969 4.38867 17.3926 4.13477 17.584 3.95117C17.7754 3.76758 18.0352 3.67578 18.3633 3.67578C18.6562 3.67578 18.8984 3.76172 19.0898 3.93359C19.2812 4.10352 19.377 4.31836 19.377 4.57812C19.377 4.75 19.333 4.90918 19.2451 5.05566C19.1592 5.2002 19.0078 5.35254 18.791 5.5127L18.4775 5.74414L19.4268 6.87793C19.5596 6.62402 19.626 6.3418 19.626 6.03125H20.1152C20.1152 6.5293 19.9951 6.94238 19.7549 7.27051L20.3643 8H19.7139L19.4297 7.66309C19.2852 7.79199 19.1152 7.89062 18.9199 7.95898C18.7266 8.02539 18.5293 8.05859 18.3281 8.05859C17.9121 8.05859 17.5781 7.94824 17.3262 7.72754C17.0742 7.50684 16.9482 7.21582 16.9482 6.85449ZM18.3281 7.61621C18.6152 7.61621 18.8779 7.50684 19.1162 7.28809L18.0762 6.04297L17.9795 6.11328C17.6533 6.35352 17.4902 6.60059 17.4902 6.85449C17.4902 7.08496 17.5645 7.26953 17.7129 7.4082C17.8633 7.54688 18.0684 7.61621 18.3281 7.61621ZM17.8389 4.69531C17.8389 4.88281 17.9541 5.11719 18.1846 5.39844L18.5303 5.15527C18.6631 5.06152 18.7539 4.97266 18.8027 4.88867C18.8516 4.80273 18.876 4.69922 18.876 4.57812C18.876 4.44727 18.8271 4.33887 18.7295 4.25293C18.6318 4.16504 18.5088 4.12109 18.3604 4.12109C18.2002 4.12109 18.0732 4.17578 17.9795 4.28516C17.8857 4.39258 17.8389 4.5293 17.8389 4.69531ZM24.0176 6.64648C23.9648 7.09766 23.7979 7.44629 23.5166 7.69238C23.2373 7.93652 22.8652 8.05859 22.4004 8.05859C21.8965 8.05859 21.4922 7.87793 21.1875 7.5166C20.8848 7.15527 20.7334 6.67188 20.7334 6.06641V5.65625C20.7334 5.25977 20.8037 4.91113 20.9443 4.61035C21.0869 4.30957 21.2881 4.0791 21.5479 3.91895C21.8076 3.75684 22.1084 3.67578 22.4502 3.67578C22.9033 3.67578 23.2666 3.80273 23.54 4.05664C23.8135 4.30859 23.9727 4.6582 24.0176 5.10547H23.4521C23.4033 4.76562 23.2969 4.51953 23.1328 4.36719C22.9707 4.21484 22.7432 4.13867 22.4502 4.13867C22.0908 4.13867 21.8086 4.27148 21.6035 4.53711C21.4004 4.80273 21.2988 5.18066 21.2988 5.6709V6.08398C21.2988 6.54688 21.3955 6.91504 21.5889 7.18848C21.7822 7.46191 22.0527 7.59863 22.4004 7.59863C22.7129 7.59863 22.9521 7.52832 23.1182 7.3877C23.2861 7.24512 23.3975 6.99805 23.4521 6.64648H24.0176ZM28.6318 6.88672H26.8447L26.4434 8H25.8633L27.4922 3.73438H27.9844L29.6162 8H29.0391L28.6318 6.88672ZM27.0146 6.42383H28.4648L27.7383 4.42871L27.0146 6.42383ZM32.7832 6.4502C32.7832 6.93262 32.6729 7.32129 32.4521 7.61621C32.2314 7.91113 31.9326 8.05859 31.5557 8.05859C31.1709 8.05859 30.8682 7.93652 30.6475 7.69238V9.21875H30.1055V4.83008H30.6006L30.627 5.18164C30.8477 4.9082 31.1543 4.77148 31.5469 4.77148C31.9277 4.77148 32.2285 4.91504 32.4492 5.20215C32.6719 5.48926 32.7832 5.88867 32.7832 6.40039V6.4502ZM32.2412 6.38867C32.2412 6.03125 32.165 5.74902 32.0127 5.54199C31.8604 5.33496 31.6514 5.23145 31.3857 5.23145C31.0576 5.23145 30.8115 5.37695 30.6475 5.66797V7.18262C30.8096 7.47168 31.0576 7.61621 31.3916 7.61621C31.6514 7.61621 31.8574 7.51367 32.0098 7.30859C32.1641 7.10156 32.2412 6.79492 32.2412 6.38867ZM36.1523 6.4502C36.1523 6.93262 36.042 7.32129 35.8213 7.61621C35.6006 7.91113 35.3018 8.05859 34.9248 8.05859C34.54 8.05859 34.2373 7.93652 34.0166 7.69238V9.21875H33.4746V4.83008H33.9697L33.9961 5.18164C34.2168 4.9082 34.5234 4.77148 34.916 4.77148C35.2969 4.77148 35.5977 4.91504 35.8184 5.20215C36.041 5.48926 36.1523 5.88867 36.1523 6.40039V6.4502ZM35.6104 6.38867C35.6104 6.03125 35.5342 5.74902 35.3818 5.54199C35.2295 5.33496 35.0205 5.23145 34.7549 5.23145C34.4268 5.23145 34.1807 5.37695 34.0166 5.66797V7.18262C34.1787 7.47168 34.4268 7.61621 34.7607 7.61621C35.0205 7.61621 35.2266 7.51367 35.3789 7.30859C35.5332 7.10156 35.6104 6.79492 35.6104 6.38867ZM37.4326 8H36.8906V3.5H37.4326V8ZM39.3398 7.20605L40.0781 4.83008H40.6582L39.3838 8.48926C39.1865 9.0166 38.873 9.28027 38.4434 9.28027L38.3408 9.27148L38.1387 9.2334V8.79395L38.2852 8.80566C38.4688 8.80566 38.6113 8.76855 38.7129 8.69434C38.8164 8.62012 38.9014 8.48438 38.9678 8.28711L39.0879 7.96484L37.957 4.83008H38.5488L39.3398 7.20605ZM40.8398 7.71582C40.8398 7.62207 40.8672 7.54395 40.9219 7.48145C40.9785 7.41895 41.0625 7.3877 41.1738 7.3877C41.2852 7.3877 41.3691 7.41895 41.4258 7.48145C41.4844 7.54395 41.5137 7.62207 41.5137 7.71582C41.5137 7.80566 41.4844 7.88086 41.4258 7.94141C41.3691 8.00195 41.2852 8.03223 41.1738 8.03223C41.0625 8.03223 40.9785 8.00195 40.9219 7.94141C40.8672 7.88086 40.8398 7.80566 40.8398 7.71582Z" fill="#959CA4"/>
</svg>
