<svg width="97" height="12" viewBox="0 0 97 12" fill="none" xmlns="http://www.w3.org/2000/svg">
<path d="M97 4C97 1.79086 95.2091 0 93 0H0V4C0 8.41828 3.58172 12 8 12H97V4Z" fill="#E4E7EA"/>
<path d="M11.4922 5.12012L10.6074 4.85645L10.7422 4.41406L11.627 4.74219L11.6006 3.73438H12.0488L12.0195 4.75684L12.8896 4.43457L13.0244 4.87988L12.125 5.14648L12.7051 5.94043L12.3418 6.21582L11.7969 5.37207L11.2695 6.19531L10.9033 5.92871L11.4922 5.12012ZM14.3394 8.06C14.2314 8.06 14.1274 8.042 14.0274 8.006C13.9274 7.97 13.8454 7.906 13.7814 7.814C13.7174 7.722 13.6854 7.594 13.6854 7.43V4.712H14.2194V7.364C14.2194 7.456 14.2394 7.522 14.2794 7.562C14.3194 7.602 14.3834 7.622 14.4714 7.622C14.5074 7.622 14.5454 7.618 14.5854 7.61C14.6254 7.602 14.6634 7.592 14.6994 7.58L14.7714 7.97C14.6954 8.006 14.6214 8.03 14.5494 8.042C14.4774 8.054 14.4074 8.06 14.3394 8.06ZM15.6647 8L14.6387 4.712H15.1787L16.0667 7.538H16.1387C16.2347 7.538 16.3287 7.516 16.4207 7.472C16.5127 7.424 16.5907 7.364 16.6547 7.292C16.7747 7.16 16.8627 6.994 16.9187 6.794C16.9747 6.59 17.0027 6.39 17.0027 6.194C17.0027 5.862 16.9267 5.602 16.7747 5.414C16.6267 5.222 16.4207 5.126 16.1567 5.126C16.0487 5.126 15.9567 5.14 15.8807 5.168L15.7487 4.742C15.8327 4.718 15.9107 4.702 15.9827 4.694C16.0587 4.686 16.1267 4.682 16.1867 4.682C16.5787 4.682 16.8927 4.796 17.1287 5.024C17.2687 5.16 17.3707 5.33 17.4347 5.534C17.5027 5.738 17.5367 5.964 17.5367 6.212C17.5367 6.524 17.4887 6.802 17.3927 7.046C17.2967 7.286 17.1767 7.478 17.0327 7.622C16.9167 7.738 16.7747 7.83 16.6067 7.898C16.4387 7.966 16.2247 8 15.9647 8H15.6647ZM14.7246 4.19V3.956L15.1626 3.764H15.9606V3.278H16.4046V3.764H16.8366V3.278H17.2746V4.19H14.7246ZM16.378 2.924V1.946H16.888V2.924H16.378ZM19.5113 8.06C19.0793 8.06 18.7553 7.948 18.5393 7.724C18.3273 7.496 18.2213 7.14 18.2213 6.656C18.2213 6.576 18.2233 6.49 18.2273 6.398C18.2353 6.302 18.2433 6.208 18.2513 6.116H19.5113V6.536H18.7553V6.656C18.7553 6.908 18.7833 7.106 18.8393 7.25C18.8953 7.39 18.9773 7.488 19.0853 7.544C19.1973 7.6 19.3353 7.628 19.4993 7.628C19.6793 7.628 19.8353 7.594 19.9673 7.526C20.0993 7.458 20.2013 7.334 20.2733 7.154C20.3453 6.974 20.3813 6.716 20.3813 6.38C20.3813 5.94 20.3053 5.616 20.1533 5.408C20.0053 5.2 19.7473 5.096 19.3793 5.096C19.1873 5.096 19.0033 5.122 18.8273 5.174C18.6553 5.222 18.4893 5.292 18.3293 5.384V4.886C18.4493 4.822 18.6073 4.768 18.8033 4.724C18.9993 4.676 19.2133 4.652 19.4453 4.652C19.7973 4.652 20.0813 4.724 20.2973 4.868C20.5173 5.008 20.6773 5.208 20.7773 5.468C20.8773 5.724 20.9273 6.028 20.9273 6.38C20.9273 6.732 20.8813 7.034 20.7893 7.286C20.6973 7.538 20.5473 7.73 20.3393 7.862C20.1353 7.994 19.8593 8.06 19.5113 8.06ZM22.9266 8.06C22.5746 8.06 22.2966 7.968 22.0926 7.784C21.8926 7.6 21.7926 7.308 21.7926 6.908V4.712H22.3266V6.878C22.3266 7.366 22.5646 7.61 23.0406 7.61C23.3206 7.61 23.5366 7.52 23.6886 7.34C23.8446 7.16 23.9226 6.918 23.9226 6.614V4.712H24.4566V8H24.0126L23.9886 7.514H23.9586C23.8866 7.674 23.7606 7.806 23.5806 7.91C23.4046 8.01 23.1866 8.06 22.9266 8.06ZM26.3003 8.06C26.1923 8.06 26.0883 8.042 25.9883 8.006C25.8883 7.97 25.8063 7.906 25.7423 7.814C25.6783 7.722 25.6463 7.594 25.6463 7.43V4.238C25.6463 4.014 25.6763 3.848 25.7363 3.74C25.8003 3.632 25.8743 3.548 25.9583 3.488L25.9523 3.464H24.9083L25.0463 3.044H26.7383V3.464C26.5903 3.464 26.4603 3.512 26.3483 3.608C26.2363 3.704 26.1803 3.88 26.1803 4.136V7.364C26.1803 7.456 26.2003 7.522 26.2403 7.562C26.2803 7.602 26.3443 7.622 26.4323 7.622C26.4683 7.622 26.5063 7.618 26.5463 7.61C26.5863 7.602 26.6243 7.592 26.6603 7.58L26.7323 7.97C26.6563 8.006 26.5823 8.03 26.5103 8.042C26.4383 8.054 26.3683 8.06 26.3003 8.06ZM28.3823 8.06C28.0063 8.06 27.7143 7.97 27.5063 7.79C27.3023 7.606 27.2003 7.332 27.2003 6.968V6.602C27.2003 6.402 27.2283 6.244 27.2843 6.128C27.3403 6.012 27.4003 5.912 27.4643 5.828C27.5323 5.736 27.5903 5.656 27.6383 5.588C27.6903 5.52 27.7163 5.438 27.7163 5.342C27.7163 5.258 27.6943 5.198 27.6503 5.162C27.6103 5.126 27.5583 5.108 27.4943 5.108C27.4463 5.108 27.3943 5.116 27.3383 5.132C27.2863 5.148 27.2343 5.168 27.1823 5.192L27.0623 4.808C27.1343 4.76 27.2223 4.726 27.3263 4.706C27.4343 4.686 27.5283 4.676 27.6083 4.676C27.8323 4.676 27.9903 4.734 28.0823 4.85C28.1743 4.962 28.2203 5.106 28.2203 5.282C28.2203 5.43 28.1943 5.552 28.1423 5.648C28.0943 5.744 28.0363 5.838 27.9683 5.93C27.9003 6.03 27.8443 6.126 27.8003 6.218C27.7563 6.31 27.7343 6.43 27.7343 6.578V6.932C27.7343 7.116 27.7643 7.258 27.8243 7.358C27.8843 7.458 27.9643 7.528 28.0643 7.568C28.1643 7.604 28.2703 7.622 28.3823 7.622C28.7943 7.622 29.0003 7.43 29.0003 7.046V4.712H29.5343V7.076C29.5343 7.384 29.4363 7.626 29.2403 7.802C29.0483 7.974 28.7623 8.06 28.3823 8.06ZM31.2495 8.06C31.1415 8.06 31.0375 8.042 30.9375 8.006C30.8375 7.97 30.7555 7.906 30.6915 7.814C30.6275 7.722 30.5955 7.594 30.5955 7.43V4.712H31.1295V7.364C31.1295 7.456 31.1495 7.522 31.1895 7.562C31.2295 7.602 31.2935 7.622 31.3815 7.622C31.4175 7.622 31.4555 7.618 31.4955 7.61C31.5355 7.602 31.5735 7.592 31.6095 7.58L31.6815 7.97C31.6055 8.006 31.5315 8.03 31.4595 8.042C31.3875 8.054 31.3175 8.06 31.2495 8.06ZM33.5306 8.06C33.0586 8.06 32.7206 7.952 32.5166 7.736C32.3126 7.52 32.2106 7.212 32.2106 6.812V4.712H32.7446V6.818C32.7446 7.35 33.0066 7.616 33.5306 7.616C33.8026 7.616 34.0026 7.55 34.1306 7.418C34.2626 7.286 34.3286 7.086 34.3286 6.818V3.53H34.8626V6.812C34.8626 7.212 34.7586 7.52 34.5506 7.736C34.3466 7.952 34.0066 8.06 33.5306 8.06ZM33.4554 4.28C33.2394 4.28 33.0834 4.188 32.9874 4.004L32.7834 4.262C32.5514 4.262 32.3694 4.206 32.2374 4.094C32.1054 3.978 32.0394 3.812 32.0394 3.596C32.0394 3.368 32.1074 3.2 32.2434 3.092C32.3754 2.98 32.5294 2.924 32.7054 2.924H33.9894V3.284H32.7834C32.6914 3.284 32.6154 3.31 32.5554 3.362C32.4914 3.414 32.4594 3.498 32.4594 3.614C32.4594 3.698 32.4814 3.768 32.5254 3.824C32.5694 3.88 32.6434 3.908 32.7474 3.908L32.9874 3.608H33.1374C33.1454 3.82 33.2274 3.926 33.3834 3.926C33.4514 3.926 33.5074 3.904 33.5514 3.86C33.5914 3.812 33.6114 3.752 33.6114 3.68V3.608H33.9954V3.692C33.9954 3.888 33.9474 4.036 33.8514 4.136C33.7514 4.232 33.6194 4.28 33.4554 4.28ZM36.9774 8.06C36.6254 8.06 36.3474 7.968 36.1434 7.784C35.9434 7.6 35.8434 7.308 35.8434 6.908V4.712H36.3774V6.878C36.3774 7.366 36.6154 7.61 37.0914 7.61C37.3714 7.61 37.5874 7.52 37.7394 7.34C37.8954 7.16 37.9734 6.918 37.9734 6.614V4.712H38.5074V8H38.0634L38.0394 7.514H38.0094C37.9374 7.674 37.8114 7.806 37.6314 7.91C37.4554 8.01 37.2374 8.06 36.9774 8.06ZM40.3511 8.06C40.2431 8.06 40.1391 8.042 40.0391 8.006C39.9391 7.97 39.8571 7.906 39.7931 7.814C39.7291 7.722 39.6971 7.594 39.6971 7.43V4.238C39.6971 4.014 39.7271 3.848 39.7871 3.74C39.8511 3.632 39.9251 3.548 40.0091 3.488L40.0031 3.464H38.9591L39.0971 3.044H40.7891V3.464C40.6411 3.464 40.5111 3.512 40.3991 3.608C40.2871 3.704 40.2311 3.88 40.2311 4.136V7.364C40.2311 7.456 40.2511 7.522 40.2911 7.562C40.3311 7.602 40.3951 7.622 40.4831 7.622C40.5191 7.622 40.5571 7.618 40.5971 7.61C40.6371 7.602 40.6751 7.592 40.7111 7.58L40.7831 7.97C40.7071 8.006 40.6331 8.03 40.5611 8.042C40.4891 8.054 40.4191 8.06 40.3511 8.06ZM42.6009 8.06C42.1289 8.06 41.7909 7.952 41.5869 7.736C41.3829 7.52 41.2809 7.212 41.2809 6.812V4.712H41.8149V6.818C41.8149 7.35 42.0769 7.616 42.6009 7.616C42.8729 7.616 43.0729 7.55 43.2009 7.418C43.3329 7.286 43.3989 7.086 43.3989 6.818V3.53H43.9329V6.812C43.9329 7.212 43.8289 7.52 43.6209 7.736C43.4169 7.952 43.0769 8.06 42.6009 8.06ZM46.0777 8.06C45.7417 8.06 45.4817 7.984 45.2977 7.832C45.1137 7.676 44.9857 7.466 44.9137 7.202C44.8417 6.934 44.8057 6.63 44.8057 6.29C44.8057 5.706 44.8877 5.288 45.0517 5.036C45.2197 4.78 45.4597 4.652 45.7717 4.652C45.9117 4.652 46.0297 4.676 46.1257 4.724C46.2257 4.772 46.2957 4.852 46.3357 4.964H46.3597C46.3997 4.848 46.4717 4.768 46.5757 4.724C46.6797 4.676 46.8017 4.652 46.9417 4.652C47.2017 4.652 47.4017 4.722 47.5417 4.862C47.6857 4.998 47.7577 5.208 47.7577 5.492V8H47.2237V5.498C47.2237 5.342 47.1897 5.236 47.1217 5.18C47.0537 5.124 46.9677 5.096 46.8637 5.096C46.7477 5.096 46.6617 5.124 46.6057 5.18C46.5537 5.236 46.5217 5.328 46.5097 5.456H46.1737C46.1577 5.316 46.1157 5.222 46.0477 5.174C45.9797 5.122 45.9037 5.096 45.8197 5.096C45.6597 5.096 45.5397 5.19 45.4597 5.378C45.3797 5.562 45.3397 5.868 45.3397 6.296C45.3397 6.572 45.3597 6.808 45.3997 7.004C45.4437 7.2 45.5237 7.352 45.6397 7.46C45.7557 7.564 45.9237 7.616 46.1437 7.616C46.2237 7.616 46.2897 7.612 46.3417 7.604C46.3937 7.596 46.4437 7.586 46.4917 7.574L46.5457 7.982C46.4857 8.01 46.4137 8.03 46.3297 8.042C46.2457 8.054 46.1617 8.06 46.0777 8.06ZM49.6582 8V5.666C49.6582 5.47 49.6122 5.326 49.5202 5.234C49.4322 5.142 49.2822 5.096 49.0702 5.096C48.9262 5.096 48.7902 5.116 48.6622 5.156C48.5382 5.192 48.4182 5.244 48.3022 5.312V4.832C48.3822 4.792 48.4962 4.752 48.6442 4.712C48.7922 4.672 48.9682 4.652 49.1722 4.652C49.4842 4.652 49.7322 4.722 49.9162 4.862C50.1002 5.002 50.1922 5.244 50.1922 5.588V8H49.6582ZM52.7497 8.06C52.4937 8.06 52.2717 8.01 52.0837 7.91C51.8997 7.806 51.7737 7.662 51.7057 7.478H51.6817L51.6517 8H51.2137V4.712H51.7477V6.614C51.7477 6.918 51.8257 7.16 51.9817 7.34C52.1377 7.52 52.3577 7.61 52.6417 7.61C53.1097 7.61 53.3437 7.366 53.3437 6.878V4.712H53.8777V6.914C53.8777 7.31 53.7777 7.6 53.5777 7.784C53.3817 7.968 53.1057 8.06 52.7497 8.06ZM54.8692 8V4.712H55.2412L55.3372 5.234H55.3612C55.4292 5.054 55.5532 4.912 55.7332 4.808C55.9132 4.704 56.1312 4.652 56.3872 4.652C56.7432 4.652 57.0232 4.744 57.2272 4.928C57.4312 5.112 57.5332 5.404 57.5332 5.804V8H56.9992V5.834C56.9992 5.346 56.7612 5.102 56.2852 5.102C56.0972 5.102 55.9372 5.146 55.8052 5.234C55.6732 5.322 55.5732 5.442 55.5052 5.594C55.4372 5.742 55.4032 5.91 55.4032 6.098V8H54.8692ZM54.9199 4.19V3.956L55.3579 3.764H56.9719V3.278H57.4759V3.956H57.4699V4.19H54.9199ZM56.9659 2.924V1.946H57.4759V2.924H56.9659ZM59.8275 8.06C59.3555 8.06 59.0175 7.952 58.8135 7.736C58.6095 7.52 58.5075 7.212 58.5075 6.812V4.712H59.0415V6.818C59.0415 7.35 59.3035 7.616 59.8275 7.616C60.0995 7.616 60.2995 7.55 60.4275 7.418C60.5595 7.286 60.6255 7.086 60.6255 6.818V4.712H61.1595V6.812C61.1595 7.212 61.0555 7.52 60.8475 7.736C60.6435 7.952 60.3035 8.06 59.8275 8.06ZM63.0526 8.06C62.8166 8.06 62.5966 8.038 62.3926 7.994C62.1926 7.946 62.0226 7.89 61.8826 7.826L62.0386 7.394C62.1666 7.446 62.3186 7.496 62.4946 7.544C62.6746 7.592 62.8646 7.616 63.0646 7.616C63.2766 7.616 63.4526 7.576 63.5926 7.496C63.7326 7.416 63.8026 7.3 63.8026 7.148C63.8026 7.012 63.7466 6.9 63.6346 6.812C63.5226 6.724 63.3426 6.642 63.0946 6.566C62.8426 6.486 62.6286 6.402 62.4526 6.314C62.2806 6.222 62.1486 6.114 62.0566 5.99C61.9686 5.862 61.9246 5.704 61.9246 5.516C61.9246 5.268 62.0266 5.062 62.2306 4.898C62.4346 4.734 62.7606 4.652 63.2086 4.652C63.4006 4.652 63.5806 4.67 63.7486 4.706C63.9206 4.738 64.0546 4.784 64.1506 4.844V5.294C64.0506 5.246 63.9126 5.2 63.7366 5.156C63.5606 5.112 63.3786 5.09 63.1906 5.09C62.9226 5.09 62.7326 5.132 62.6206 5.216C62.5126 5.296 62.4586 5.388 62.4586 5.492C62.4586 5.58 62.4826 5.654 62.5306 5.714C62.5826 5.774 62.6686 5.832 62.7886 5.888C62.9126 5.944 63.0786 6.008 63.2866 6.08C63.4786 6.144 63.6546 6.218 63.8146 6.302C63.9746 6.386 64.1006 6.492 64.1926 6.62C64.2886 6.744 64.3366 6.904 64.3366 7.1C64.3366 7.268 64.2946 7.426 64.2106 7.574C64.1306 7.718 63.9966 7.836 63.8086 7.928C63.6206 8.016 63.3686 8.06 63.0526 8.06ZM61.7812 4.19V3.956L62.2192 3.764H64.3312V4.19H61.7812ZM66.4263 8.06C65.9303 8.06 65.5783 7.95 65.3703 7.73C65.1623 7.506 65.0583 7.19 65.0583 6.782V4.712H65.5923V6.788C65.5923 7.068 65.6583 7.276 65.7903 7.412C65.9223 7.548 66.1343 7.616 66.4263 7.616C66.7183 7.616 66.9303 7.548 67.0623 7.412C67.1943 7.276 67.2603 7.068 67.2603 6.788V6.644H66.7923C66.5363 6.644 66.3603 6.59 66.2643 6.482C66.1723 6.374 66.1263 6.254 66.1263 6.122C66.1263 6.062 66.1343 6 66.1503 5.936C66.1663 5.872 66.1883 5.818 66.2163 5.774L66.6483 5.852C66.6243 5.9 66.6123 5.958 66.6123 6.026C66.6123 6.078 66.6263 6.126 66.6543 6.17C66.6863 6.214 66.7403 6.236 66.8163 6.236H67.2603V4.712H67.7943V6.236H68.1783V6.644H67.7943V6.782C67.7943 7.19 67.6903 7.506 67.4823 7.73C67.2743 7.95 66.9223 8.06 66.4263 8.06ZM67.0321 4.19C66.7801 4.19 66.6021 4.14 66.4981 4.04C66.3941 3.936 66.3421 3.82 66.3421 3.692C66.3421 3.632 66.3521 3.568 66.3721 3.5C66.3881 3.428 66.4101 3.37 66.4381 3.326L66.8881 3.404C66.8641 3.452 66.8521 3.514 66.8521 3.59C66.8521 3.642 66.8681 3.688 66.9001 3.728C66.9321 3.764 66.9861 3.782 67.0621 3.782H68.5801V4.19H67.0321ZM68.9142 8V4.712H69.2862L69.3822 5.234H69.4062C69.4742 5.054 69.5982 4.912 69.7782 4.808C69.9582 4.704 70.1762 4.652 70.4322 4.652C70.7882 4.652 71.0682 4.744 71.2722 4.928C71.4762 5.112 71.5782 5.404 71.5782 5.804V8H71.0442V5.834C71.0442 5.346 70.8062 5.102 70.3302 5.102C70.1422 5.102 69.9822 5.146 69.8502 5.234C69.7182 5.322 69.6182 5.442 69.5502 5.594C69.4822 5.742 69.4482 5.91 69.4482 6.098V8H68.9142ZM72.5224 8V6.86C72.5224 6.608 72.5784 6.426 72.6904 6.314C72.8024 6.198 72.9444 6.118 73.1164 6.074L73.1224 6.056L72.4624 5.804V5.606C72.4624 5.442 72.5164 5.288 72.6244 5.144C72.7324 4.996 72.8864 4.878 73.0864 4.79C73.2904 4.698 73.5324 4.652 73.8124 4.652C74.0564 4.652 74.2824 4.692 74.4904 4.772C74.6984 4.848 74.8644 4.97 74.9884 5.138C75.1164 5.302 75.1804 5.518 75.1804 5.786V8H74.6464V5.84C74.6464 5.572 74.5644 5.382 74.4004 5.27C74.2404 5.154 74.0424 5.096 73.8064 5.096C73.5624 5.096 73.3684 5.148 73.2244 5.252C73.0804 5.352 73.0084 5.48 73.0084 5.636L73.6564 5.96L73.6084 6.248C73.4604 6.248 73.3304 6.298 73.2184 6.398C73.1104 6.494 73.0564 6.648 73.0564 6.86V8H72.5224ZM74.6923 4.334C74.4923 4.334 74.3343 4.288 74.2183 4.196C74.1023 4.1 74.0443 3.966 74.0443 3.794C74.0443 3.618 74.1023 3.484 74.2183 3.392C74.3343 3.3 74.4923 3.254 74.6923 3.254C74.8923 3.254 75.0523 3.3 75.1723 3.392C75.2923 3.484 75.3523 3.618 75.3523 3.794C75.3523 3.966 75.2923 4.1 75.1723 4.196C75.0523 4.288 74.8923 4.334 74.6923 4.334ZM74.6923 4.052C74.7883 4.052 74.8623 4.028 74.9143 3.98C74.9623 3.932 74.9863 3.87 74.9863 3.794C74.9863 3.714 74.9623 3.652 74.9143 3.608C74.8623 3.56 74.7883 3.536 74.6923 3.536C74.6003 3.536 74.5303 3.56 74.4823 3.608C74.4303 3.652 74.4043 3.714 74.4043 3.794C74.4043 3.87 74.4303 3.932 74.4823 3.98C74.5303 4.028 74.6003 4.052 74.6923 4.052ZM77.0801 8V5.666C77.0801 5.47 77.0341 5.326 76.9421 5.234C76.8541 5.142 76.7041 5.096 76.4921 5.096C76.3481 5.096 76.2121 5.116 76.0841 5.156C75.9601 5.192 75.8401 5.244 75.7241 5.312V4.832C75.8041 4.792 75.9181 4.752 76.0661 4.712C76.2141 4.672 76.3901 4.652 76.5941 4.652C76.9061 4.652 77.1541 4.722 77.3381 4.862C77.5221 5.002 77.6141 5.244 77.6141 5.588V8H77.0801ZM78.6356 8V4.712H79.1696V6.134H79.1876L80.5556 4.712H81.1796V4.73L80.2136 5.708C80.5376 5.736 80.7836 5.85 80.9516 6.05C81.1236 6.246 81.2096 6.506 81.2096 6.83V8H80.6756V6.842C80.6756 6.618 80.6096 6.44 80.4776 6.308C80.3496 6.176 80.1336 6.104 79.8296 6.092L79.1696 6.764V8H78.6356ZM83.243 8.06C82.891 8.06 82.613 7.968 82.409 7.784C82.209 7.6 82.109 7.308 82.109 6.908V4.712H82.643V6.878C82.643 7.366 82.881 7.61 83.357 7.61C83.637 7.61 83.853 7.52 84.005 7.34C84.161 7.16 84.239 6.918 84.239 6.614V4.712H84.773V8H84.329L84.305 7.514H84.275C84.203 7.674 84.077 7.806 83.897 7.91C83.721 8.01 83.503 8.06 83.243 8.06ZM86.9107 8.06C86.5907 8.06 86.3387 7.986 86.1547 7.838C85.9747 7.686 85.8467 7.482 85.7707 7.226C85.6987 6.97 85.6627 6.688 85.6627 6.38C85.6627 5.928 85.7247 5.578 85.8487 5.33C85.9727 5.078 86.1447 4.902 86.3647 4.802C86.5887 4.702 86.8467 4.652 87.1387 4.652C87.6187 4.652 87.9667 4.756 88.1827 4.964C88.4027 5.172 88.5127 5.454 88.5127 5.81V8H87.9847V5.858C87.9847 5.61 87.9227 5.422 87.7987 5.294C87.6747 5.162 87.4607 5.096 87.1567 5.096C86.9727 5.096 86.8067 5.13 86.6587 5.198C86.5147 5.266 86.4007 5.392 86.3167 5.576C86.2367 5.76 86.1967 6.03 86.1967 6.386C86.1967 6.618 86.2187 6.828 86.2627 7.016C86.3107 7.2 86.3927 7.346 86.5087 7.454C86.6247 7.562 86.7867 7.616 86.9947 7.616C87.0547 7.616 87.1107 7.612 87.1627 7.604C87.2147 7.596 87.2647 7.584 87.3127 7.568L87.3667 7.982C87.3027 8.01 87.2287 8.03 87.1447 8.042C87.0647 8.054 86.9867 8.06 86.9107 8.06Z" fill="#959CA4"/>
</svg>
