<svg width="75" height="14" viewBox="0 0 75 14" fill="none" xmlns="http://www.w3.org/2000/svg">
<rect width="74" height="14" rx="3.5" fill="#DEEDFA"/>
<path fill-rule="evenodd" clip-rule="evenodd" d="M8.30246 3.31093C7.35264 2.6659 6.09194 2.79723 5.26885 3.70492C4.30622 4.76606 4.30622 6.48659 5.26885 7.54781L5.51465 7.81882L9.00011 11.0908L12.4854 7.81881L12.7314 7.5478C13.6937 6.48658 13.6937 4.76606 12.7314 3.70492C12.2964 3.22534 11.7393 2.96248 11.1704 2.91636C11.1498 2.94282 11.1276 2.96828 11.104 2.9926L7.71267 6.47952C7.37158 6.83021 6.84521 6.81191 6.52929 6.43838C6.20517 6.05514 6.22635 5.44556 6.57629 5.08576L8.30246 3.31093Z" fill="#3D82C3"/>
<path d="M18.4532 3.15723L20.2109 8.12012L21.9592 3.15723H23.8109V10H22.3963V8.12952L22.5373 4.90082L20.6903 10H19.7222L17.8799 4.90552L18.0209 8.12952V10H16.611V3.15723H18.4532ZM27.8997 10C27.837 9.87781 27.7916 9.72585 27.7634 9.54413C27.4344 9.91071 27.0067 10.094 26.4803 10.094C25.9822 10.094 25.5686 9.94987 25.2396 9.66162C24.9138 9.37337 24.7509 9.00993 24.7509 8.57129C24.7509 8.03239 24.9498 7.61881 25.3477 7.33057C25.7488 7.04232 26.3268 6.89663 27.0819 6.89349H27.707V6.60211C27.707 6.36713 27.6459 6.17914 27.5237 6.03815C27.4046 5.89716 27.2151 5.82666 26.955 5.82666C26.7263 5.82666 26.5461 5.88149 26.4146 5.99115C26.2861 6.10081 26.2219 6.2512 26.2219 6.44232H24.8636C24.8636 6.14781 24.9545 5.87522 25.1362 5.62457C25.318 5.37392 25.5749 5.1781 25.907 5.03711C26.2391 4.89298 26.6119 4.82092 27.0255 4.82092C27.6521 4.82092 28.1487 4.97915 28.5153 5.29559C28.885 5.60891 29.0699 6.05068 29.0699 6.62091V8.82507C29.073 9.30758 29.1404 9.67259 29.272 9.9201V10H27.8997ZM26.7764 9.05536C26.977 9.05536 27.1618 9.01149 27.331 8.92377C27.5002 8.83291 27.6255 8.71228 27.707 8.56189V7.68774H27.1994C26.5195 7.68774 26.1576 7.92273 26.1138 8.3927L26.1091 8.4726C26.1091 8.64178 26.1686 8.78121 26.2877 8.89087C26.4067 9.00053 26.5696 9.05536 26.7764 9.05536ZM32.9706 6.18854C32.7858 6.16347 32.6229 6.15094 32.4819 6.15094C31.968 6.15094 31.6312 6.32483 31.4714 6.67261V10H30.1132V4.91492H31.3962L31.4338 5.52118C31.7064 5.05434 32.084 4.82092 32.5665 4.82092C32.7169 4.82092 32.8579 4.84129 32.9894 4.88202L32.9706 6.18854ZM35.4756 7.96033L34.9868 8.4491V10H33.6286V2.78125H34.9868V6.7807L35.25 6.44232L36.5518 4.91492H38.1826L36.345 7.03448L38.3424 10H36.7821L35.4756 7.96033ZM41.0165 10.094C40.2709 10.094 39.663 9.86528 39.1931 9.40784C38.7262 8.9504 38.4928 8.341 38.4928 7.57965V7.44806C38.4928 6.93736 38.5915 6.48149 38.7889 6.08044C38.9863 5.67627 39.2651 5.36609 39.6254 5.1499C39.9889 4.93058 40.4024 4.82092 40.8662 4.82092C41.5617 4.82092 42.1084 5.04024 42.5063 5.47888C42.9074 5.91752 43.1079 6.53945 43.1079 7.34467V7.89923H39.8698C39.9137 8.23134 40.0453 8.49766 40.2646 8.69818C40.487 8.8987 40.7675 8.99896 41.1058 8.99896C41.6291 8.99896 42.0379 8.80941 42.3325 8.4303L42.9998 9.17755C42.7962 9.4658 42.5204 9.69139 42.1727 9.85431C41.8249 10.0141 41.4395 10.094 41.0165 10.094ZM40.8615 5.92065C40.592 5.92065 40.3727 6.01151 40.2035 6.19324C40.0374 6.37496 39.9309 6.63501 39.8839 6.97339H41.7732V6.8653C41.7669 6.56451 41.6855 6.33266 41.5288 6.16974C41.3722 6.00368 41.1497 5.92065 40.8615 5.92065ZM45.5095 3.66479V4.91492H46.3789V5.91125H45.5095V8.4491C45.5095 8.63708 45.5455 8.77181 45.6176 8.85327C45.6896 8.93473 45.8275 8.97546 46.0311 8.97546C46.1815 8.97546 46.3147 8.9645 46.4306 8.94257V9.9718C46.1643 10.0533 45.8901 10.094 45.6082 10.094C44.6557 10.094 44.17 9.61306 44.1512 8.65118V5.91125H43.4087V4.91492H44.1512V3.66479H45.5095ZM51.7131 7.50446C51.7131 8.28774 51.5345 8.91593 51.1773 9.38904C50.8233 9.85901 50.3439 10.094 49.7392 10.094C49.2254 10.094 48.8102 9.91541 48.4938 9.55823V11.9551H47.1356V4.91492H48.3951L48.4421 5.41309C48.7711 5.01831 49.2003 4.82092 49.7298 4.82092C50.3564 4.82092 50.8436 5.05277 51.1914 5.51648C51.5392 5.98018 51.7131 6.61934 51.7131 7.43396V7.50446ZM50.3549 7.40576C50.3549 6.93266 50.2703 6.56765 50.1011 6.31073C49.935 6.05381 49.6922 5.92535 49.3726 5.92535C48.9465 5.92535 48.6536 6.08828 48.4938 6.41412V8.49609C48.6598 8.83134 48.9559 8.99896 49.382 8.99896C50.0306 8.99896 50.3549 8.4679 50.3549 7.40576ZM53.9924 10H52.6295V2.78125H53.9924V10ZM58.0624 10C57.9997 9.87781 57.9543 9.72585 57.9261 9.54413C57.5971 9.91071 57.1694 10.094 56.6431 10.094C56.1449 10.094 55.7313 9.94987 55.4023 9.66162C55.0765 9.37337 54.9136 9.00993 54.9136 8.57129C54.9136 8.03239 55.1125 7.61881 55.5104 7.33057C55.9115 7.04232 56.4895 6.89663 57.2446 6.89349H57.8697V6.60211C57.8697 6.36713 57.8086 6.17914 57.6864 6.03815C57.5673 5.89716 57.3778 5.82666 57.1177 5.82666C56.889 5.82666 56.7089 5.88149 56.5773 5.99115C56.4488 6.10081 56.3846 6.2512 56.3846 6.44232H55.0264C55.0264 6.14781 55.1172 5.87522 55.299 5.62457C55.4807 5.37392 55.7376 5.1781 56.0697 5.03711C56.4018 4.89298 56.7747 4.82092 57.1882 4.82092C57.8149 4.82092 58.3115 4.97915 58.678 5.29559C59.0478 5.60891 59.2326 6.05068 59.2326 6.62091V8.82507C59.2357 9.30758 59.3031 9.67259 59.4347 9.9201V10H58.0624ZM56.9392 9.05536C57.1397 9.05536 57.3245 9.01149 57.4937 8.92377C57.6629 8.83291 57.7882 8.71228 57.8697 8.56189V7.68774H57.3621C56.6822 7.68774 56.3204 7.92273 56.2765 8.3927L56.2718 8.4726C56.2718 8.64178 56.3313 8.78121 56.4504 8.89087C56.5694 9.00053 56.7324 9.05536 56.9392 9.05536ZM62.3908 8.99896C62.6415 8.99896 62.8451 8.93003 63.0018 8.79218C63.1584 8.65432 63.2399 8.47103 63.2462 8.24231H64.5198C64.5166 8.58695 64.4227 8.9034 64.2378 9.19165C64.0529 9.47677 63.7992 9.69922 63.4764 9.85901C63.1569 10.0157 62.8028 10.094 62.4143 10.094C61.6874 10.094 61.1141 9.86371 60.6942 9.40314C60.2744 8.93943 60.0645 8.30027 60.0645 7.48566V7.39636C60.0645 6.61308 60.2728 5.98802 60.6895 5.52118C61.1062 5.05434 61.678 4.82092 62.4049 4.82092C63.0409 4.82092 63.5501 5.00264 63.9323 5.36609C64.3177 5.7264 64.5135 6.20734 64.5198 6.8089H63.2462C63.2399 6.54571 63.1584 6.33266 63.0018 6.16974C62.8451 6.00368 62.6383 5.92065 62.3814 5.92065C62.065 5.92065 61.8253 6.03658 61.6624 6.26843C61.5026 6.49715 61.4227 6.86999 61.4227 7.38696V7.52795C61.4227 8.05119 61.5026 8.42716 61.6624 8.65588C61.8221 8.8846 62.065 8.99896 62.3908 8.99896ZM67.6357 10.094C66.89 10.094 66.2822 9.86528 65.8122 9.40784C65.3454 8.9504 65.1119 8.341 65.1119 7.57965V7.44806C65.1119 6.93736 65.2106 6.48149 65.408 6.08044C65.6054 5.67627 65.8843 5.36609 66.2446 5.1499C66.608 4.93058 67.0216 4.82092 67.4853 4.82092C68.1809 4.82092 68.7276 5.04024 69.1255 5.47888C69.5265 5.91752 69.7271 6.53945 69.7271 7.34467V7.89923H66.489C66.5328 8.23134 66.6644 8.49766 66.8837 8.69818C67.1062 8.8987 67.3866 8.99896 67.725 8.99896C68.2482 8.99896 68.6571 8.80941 68.9516 8.4303L69.619 9.17755C69.4153 9.4658 69.1396 9.69139 68.7918 9.85431C68.444 10.0141 68.0587 10.094 67.6357 10.094ZM67.4806 5.92065C67.2111 5.92065 66.9918 6.01151 66.8226 6.19324C66.6566 6.37496 66.5501 6.63501 66.5031 6.97339H68.3923V6.8653C68.3861 6.56451 68.3046 6.33266 68.148 6.16974C67.9913 6.00368 67.7688 5.92065 67.4806 5.92065Z" fill="#3D82C3"/>
</svg>
