<svg width="64" height="56" viewBox="0 0 64 56" fill="none" xmlns="http://www.w3.org/2000/svg">
<g clip-path="url(#clip0)">
<path d="M0 4C2.55254 1.43928 6.01944 0 9.63506 0H561.365C564.981 0 568.448 1.43929 571 4H0Z" fill="url(#paint0_linear)"/>
<path d="M11 0H561L556.29 0.881883C551.546 1.77006 547.563 4.97558 545.68 9.41956L533.185 38.9207C528.799 49.2741 518.646 56 507.402 56H64.5959C53.352 56 43.1987 49.2741 38.8133 38.9207L26.3174 9.4193C24.4351 4.97547 20.4519 1.76999 15.7083 0.881696L11 0Z" fill="url(#paint1_linear)"/>
</g>
<defs>
<linearGradient id="paint0_linear" x1="5.31463e-07" y1="3.2381" x2="436.452" y2="3.2382" gradientUnits="userSpaceOnUse">
<stop stop-color="#DBB364"/>
<stop offset="1" stop-color="#CFB082"/>
</linearGradient>
<linearGradient id="paint1_linear" x1="11" y1="45.3333" x2="543.258" y2="45.3334" gradientUnits="userSpaceOnUse">
<stop stop-color="#FFEAC1"/>
<stop offset="1" stop-color="#EFCF9E"/>
</linearGradient>
<clipPath id="clip0">
<rect width="64" height="56" fill="white"/>
</clipPath>
</defs>
</svg>
