<svg width="385" height="385" viewBox="0 0 385 385" fill="none" xmlns="http://www.w3.org/2000/svg">
<g clip-path="url(#clip0_6591_67936)">
<path d="M384.154 192.025C384.172 230.005 372.925 267.138 351.837 298.725C330.748 330.313 300.766 354.937 265.681 369.483C230.596 384.028 191.986 387.842 154.734 380.442C117.482 373.042 83.2608 354.76 56.3998 327.909C29.5388 301.057 11.2443 266.843 3.83049 229.594C-3.58336 192.344 0.216445 153.732 14.7492 118.643C29.282 83.5528 53.895 53.5611 85.4749 32.4611C117.055 11.3612 154.183 0.10079 192.163 0.104264C243.082 0.104264 291.916 20.3319 327.921 56.3372C363.927 92.3425 384.154 141.176 384.154 192.096" fill="#FDCF33"/>
<path d="M265.18 60.8312C255.367 56.6371 245.215 53.2845 234.834 50.8096C224.436 48.5544 213.827 47.4169 203.187 47.4164C175.539 47.432 148.491 55.4792 125.332 70.5798C102.172 85.6804 83.8981 107.184 72.7314 132.476C64.8674 150.445 60.912 169.88 61.1275 189.493C61.1275 210.152 65.101 232.146 72.9072 249.57C80.4223 266.557 91.0553 281.984 104.255 295.053C130.484 320.938 165.862 335.437 202.712 335.403C211.969 335.341 221.199 334.405 230.28 332.608C240.58 330.53 250.711 327.692 260.591 324.116L265.127 322.516V250.22C247.774 265.886 228.206 273.815 207.108 273.815C196.403 273.895 185.796 271.764 175.953 267.556C166.524 263.517 157.987 257.654 150.833 250.304C143.679 242.954 138.049 234.261 134.267 224.727C130.258 214.952 128.237 201.431 128.237 189.863C128.152 178.963 130.201 168.153 134.267 158.04C138.009 148.526 143.628 139.864 150.79 132.569C157.952 125.274 166.51 119.496 175.953 115.58C190.916 109.384 207.377 107.746 223.267 110.875C239.158 114.003 253.77 121.756 265.268 133.162L265.18 60.8312Z" fill="#1D1D1B"/>
</g>
<defs>
<clipPath id="clip0_6591_67936">
<rect width="384" height="384" fill="white" transform="translate(0.154297 0.0339355)"/>
</clipPath>
</defs>
</svg>
