<svg width="40" height="40" viewBox="0 0 40 40" fill="none" xmlns="http://www.w3.org/2000/svg">
<g clip-path="url(#clip0_5270_17252)">
<path fill-rule="evenodd" clip-rule="evenodd" d="M17.5902 1.4681C19.1229 0.0518121 21.4869 0.0518134 23.0196 1.4681L25.2318 3.5123C25.4508 3.7147 25.7488 3.80878 26.0443 3.76884L29.0909 3.35723C31.2073 3.0713 33.175 4.49828 33.5607 6.59872L34.0538 9.28381C34.1102 9.5909 34.3068 9.85403 34.5853 9.99517L37.1086 11.274C39.0846 12.2754 39.8704 14.6921 38.8611 16.6642L37.6706 18.9905C37.5242 19.2766 37.5242 19.6156 37.6706 19.9017L38.8611 22.228C39.8704 24.2001 39.0846 26.6168 37.1086 27.6183L34.5853 28.8971C34.3068 29.0382 34.1102 29.3013 34.0538 29.6084L33.5607 32.2935C33.175 34.3939 31.2073 35.8209 29.0909 35.535L26.0443 35.1234C25.7488 35.0835 25.4508 35.1775 25.2318 35.3799L23.0196 37.4241C21.4869 38.8404 19.1229 38.8404 17.5902 37.4241L15.378 35.3799C15.159 35.1775 14.861 35.0835 14.5655 35.1234L11.5189 35.535C9.40252 35.8209 7.43482 34.394 7.04909 32.2935L6.55599 29.6084C6.4996 29.3013 6.303 29.0382 6.0245 28.8971L3.50122 27.6183C1.5252 26.6168 0.739435 24.2001 1.74866 22.228L2.93919 19.9017C3.08559 19.6156 3.08559 19.2766 2.93919 18.9905L1.74866 16.6642C0.739435 14.6921 1.5252 12.2754 3.50122 11.274L6.0245 9.99517C6.303 9.85403 6.4996 9.5909 6.55599 9.28381L7.04909 6.59873C7.43482 4.49829 9.40252 3.0713 11.5189 3.35723L14.5655 3.76884C14.861 3.80878 15.159 3.7147 15.378 3.5123L17.5902 1.4681ZM20.9836 3.67144C20.6004 3.31737 20.0094 3.31737 19.6262 3.67144L17.414 5.71564C16.5378 6.52526 15.346 6.90156 14.1638 6.74183L11.1172 6.33022C10.5881 6.25874 10.0962 6.61548 9.99975 7.14059L9.50665 9.82568C9.28107 11.054 8.49469 12.1066 7.38068 12.6711L4.8574 13.9499C4.36339 14.2003 4.16695 14.8045 4.41926 15.2975L5.60979 17.6238C6.19539 18.7681 6.19539 20.1241 5.60979 21.2684L4.41926 23.5947C4.16695 24.0878 4.36339 24.6919 4.8574 24.9423L7.38067 26.2211C8.49469 26.7857 9.28107 27.8382 9.50665 29.0666L9.99975 31.7516C10.0962 32.2767 10.5881 32.6335 11.1172 32.562L14.1638 32.1504C15.346 31.9907 16.5378 32.367 17.414 33.1766L19.6262 35.2208C20.0094 35.5749 20.6004 35.5749 20.9836 35.2208L23.1958 33.1766C24.0719 32.367 25.2638 31.9907 26.446 32.1504L29.4926 32.562C30.0217 32.6335 30.5136 32.2767 30.61 31.7516L31.1031 29.0666C31.3287 27.8382 32.1151 26.7857 33.2291 26.2211L35.7524 24.9423C36.2464 24.6919 36.4428 24.0878 36.1905 23.5947L35 21.2684C34.4144 20.1241 34.4144 18.7681 35 17.6238L36.1905 15.2975C36.4428 14.8045 36.2464 14.2003 35.7524 13.9499L33.2291 12.6711C32.1151 12.1066 31.3287 11.054 31.1031 9.82568L30.61 7.14059C30.5136 6.61548 30.0217 6.25874 29.4926 6.33022L26.446 6.74183C25.2638 6.90156 24.0719 6.52526 23.1958 5.71564L20.9836 3.67144ZM18.4288 14.4717C17.7622 15.4057 16.45 15.6327 15.4979 14.9787C14.5458 14.3247 14.3144 13.0374 14.9811 12.1034C15.6477 11.1694 16.96 10.9424 17.912 11.5964C18.8641 12.2504 19.0955 13.5377 18.4288 14.4717ZM22.9836 13.196C23.4697 12.515 24.4228 12.3469 25.1125 12.8207C25.8021 13.2944 25.9671 14.2305 25.4811 14.9115L17.5847 25.9745C17.0986 26.6555 16.1455 26.8235 15.4558 26.3498C14.7662 25.876 14.6011 24.9399 15.0872 24.2589L22.9836 13.196ZM23.1521 27.7813C24.1042 28.4353 25.4164 28.2083 26.083 27.2743C26.7497 26.3403 26.5183 25.053 25.5662 24.399C24.6142 23.745 23.3019 23.972 22.6353 24.906C21.9686 25.84 22.2 27.1273 23.1521 27.7813Z" fill="#573CC6"/>
</g>
<defs>
<clipPath id="clip0_5270_17252">
<rect width="40" height="40" rx="4" fill="white"/>
</clipPath>
</defs>
</svg>
