<svg width="24" height="24" viewBox="0 0 24 24" fill="none" xmlns="http://www.w3.org/2000/svg">
<path d="M24 12C24 18.6274 18.6274 24 12 24C9.58519 24 7.33697 23.2867 5.45455 22.0593C4.36364 22.4475 0.545455 23.4545 0.545455 23.4545C0.545455 23.4545 2.06057 19.6364 2.31814 19.0909C0.860729 17.1043 0 14.6527 0 12C0 5.37258 5.37258 0 12 0C18.6274 0 24 5.37258 24 12Z" fill="white"/>
<path d="M14.8627 17.2339C14.3449 17.2339 13.7641 17.1359 13.1554 16.947C11.693 16.4922 10.2516 15.5406 9.09706 14.2671C7.36878 12.3569 6.54313 10.4537 6.70406 8.7604C6.75304 8.34058 6.88598 7.8088 7.51572 7.38198C7.99852 6.99014 8.55129 6.76623 8.98511 6.77323C9.43992 6.78023 9.59386 6.94116 10.0627 7.61988C10.7834 8.61346 10.8323 9.10326 10.8044 9.38314C10.7554 9.84495 10.5035 10.0479 10.2726 10.2298C10.2166 10.2718 10.1606 10.3208 10.1116 10.3627C9.83176 10.7196 9.4889 11.2164 10.9583 12.7347C12.2108 13.9382 12.8895 14.0852 13.1764 14.0642C13.4003 14.0502 13.4842 13.9312 13.5192 13.8893L13.5262 13.8823C13.995 13.2245 14.149 13.0636 14.5968 12.9936C15.0306 12.9237 15.2545 13.0636 16.1781 13.6444C17.0108 14.1691 17.3956 14.519 17.3116 15.0718C17.2837 15.6735 16.8218 16.4922 16.3041 16.863C15.9472 17.1079 15.4504 17.2339 14.8627 17.2339Z" fill="#25D366"/>
</svg>
