<svg width="20" height="20" viewBox="0 0 20 20" fill="none" xmlns="http://www.w3.org/2000/svg">
<path d="M20 10C20 15.5228 15.5228 20 10 20C7.98766 20 6.11414 19.4056 4.54545 18.3828C3.63636 18.7062 0.454545 19.5455 0.454545 19.5455C0.454545 19.5455 1.71714 16.3636 1.93178 15.9091C0.717274 14.2536 0 12.2106 0 10C0 4.47715 4.47715 0 10 0C15.5228 0 20 4.47715 20 10Z" fill="white"/>
<path d="M12.3851 14.3614C11.9536 14.3614 11.4697 14.2797 10.9624 14.1223C9.7437 13.7433 8.54254 12.9503 7.58044 11.8891C6.14021 10.2972 5.45216 8.71123 5.58627 7.30015C5.62709 6.9503 5.73787 6.50715 6.26265 6.15146C6.66499 5.82493 7.12563 5.63834 7.48714 5.64418C7.86615 5.65001 7.99443 5.78412 8.3851 6.34972C8.98569 7.1777 9.0265 7.58587 9.00318 7.8191C8.96236 8.20394 8.75245 8.37304 8.56003 8.52464C8.51338 8.55963 8.46674 8.60044 8.42592 8.63543C8.19268 8.93281 7.90697 9.3468 9.13146 10.6121C10.1752 11.615 10.7408 11.7375 10.9799 11.72C11.1664 11.7083 11.2364 11.6092 11.2656 11.5742L11.2714 11.5684C11.6621 11.0203 11.7904 10.8862 12.1635 10.8278C12.525 10.7695 12.7116 10.8862 13.4813 11.3701C14.1752 11.8074 14.4959 12.099 14.4259 12.5596C14.4026 13.0611 14.0178 13.7433 13.5863 14.0523C13.2889 14.2564 12.8749 14.3614 12.3851 14.3614V14.3614Z" fill="#25D366"/>
</svg>
