<svg width="60" height="60" viewBox="0 0 60 60" fill="none" xmlns="http://www.w3.org/2000/svg">
<circle cx="30" cy="30" r="30" fill="#173559"/>
<path d="M46 30C46 38.8366 38.8366 46 30 46C26.7803 46 23.7826 45.049 21.2727 43.4125C19.8182 43.93 14.7273 45.2727 14.7273 45.2727C14.7273 45.2727 16.7474 40.1818 17.0909 39.4545C15.1476 36.8058 14 33.5369 14 30C14 21.1634 21.1634 14 30 14C38.8366 14 46 21.1634 46 30Z" fill="#25D366"/>
<path d="M33.817 36.9785C33.1267 36.9785 32.3523 36.8479 31.5407 36.596C29.5908 35.9896 27.6689 34.7208 26.1296 33.0228C23.8252 30.4759 22.7243 27.9382 22.9389 25.6805C23.0042 25.1208 23.1815 24.4117 24.0211 23.8426C24.6649 23.3202 25.4019 23.0216 25.9803 23.031C26.5867 23.0403 26.792 23.2549 27.417 24.1598C28.378 25.4846 28.4433 26.1377 28.406 26.5108C28.3407 27.1266 28.0048 27.3971 27.6969 27.6397C27.6223 27.6957 27.5477 27.761 27.4823 27.817C27.1092 28.2928 26.652 28.9552 28.6112 30.9796C30.2812 32.5843 31.1861 32.7802 31.5686 32.7522C31.8672 32.7336 31.9791 32.575 32.0258 32.519L32.0351 32.5097C32.6602 31.6327 32.8654 31.4181 33.4625 31.3248C34.0409 31.2315 34.3395 31.4181 35.571 32.1925C36.6812 32.8922 37.1943 33.3587 37.0823 34.0957C37.045 34.898 36.4293 35.9896 35.7389 36.484C35.2631 36.8105 34.6007 36.9785 33.817 36.9785Z" fill="white"/>
</svg>
