<svg fill="none" height="24" viewBox="0 0 24 24" width="24" xmlns="http://www.w3.org/2000/svg"><path d="m24 12c0 6.6274-5.3726 12-12 12-2.41481 0-4.66303-.7133-6.54545-1.9407-1.09091.3882-4.909095 1.3952-4.909095 1.3952s1.515115-3.8181 1.772685-4.3636c-1.457411-1.9866-2.31814-4.4382-2.31814-7.0909 0-6.62742 5.37258-12 12-12 6.6274 0 12 5.37258 12 12z" fill="#fff"/><path d="m14.8629 17.2339c-.5178 0-1.0985-.098-1.7073-.2869-1.4624-.4548-2.9038-1.4064-4.05829-2.6799-1.72828-1.9102-2.55394-3.8134-2.39301-5.50671.04898-.41983.18193-.95161.81167-1.37843.4828-.39184 1.03556-.61574 1.46938-.60874.45481.00699.60875.16793 1.07755.84664.7207.99359.7697 1.48338.7417 1.76327-.049.46181-.3009.66477-.5318.84667-.056.042-.1119.0909-.1609.1329-.2799.3569-.62276.8537.8466 2.372 1.2525 1.2035 1.9312 1.3505 2.2181 1.3295.2239-.014.3079-.133.3429-.175l.007-.0069c.4688-.6578.6227-.8187 1.0705-.8887.4338-.0699.6577.07 1.5814.6508.8326.5247 1.2174.8746 1.1335 1.4274-.028.6017-.4898 1.4204-1.0076 1.7912-.3568.2449-.8536.3709-1.4414.3709z" fill="#25d366"/></svg>