<svg width="48" height="49" viewBox="0 0 48 49" fill="none" xmlns="http://www.w3.org/2000/svg">
<path d="M0 46.4562V10.1204C0 9.66457 0.191289 9.22963 0.527282 8.92155L8.72244 0.508269C9.02245 0.233175 9.4147 0.0805664 9.82174 0.0805664H34.6506C35.5489 0.0805664 36.2772 0.808807 36.2772 1.70714V46.4562C36.2772 47.3545 35.5489 48.0827 34.6506 48.0827H1.62658C0.728245 48.0827 0 47.3545 0 46.4562Z" fill="black"/>
<path d="M1.81299 10.4133V45.3359C1.81299 45.7852 2.18061 46.1528 2.62993 46.1528H33.6466C34.0959 46.1528 34.4636 45.7852 34.4636 45.3359V2.82768C34.4636 2.37836 34.0959 2.01074 33.6466 2.01074H9.84062" fill="#F0CC00"/>
<path d="M7.37061 27.9887H30.1842C30.8253 27.9887 31.3441 27.4301 31.3441 26.7397C31.3441 26.0493 30.8253 25.4907 30.1842 25.4907H7.37061C6.72954 25.4907 6.21082 26.0493 6.21082 26.7397C6.21082 27.4301 6.72954 27.9887 7.37061 27.9887Z" fill="black"/>
<path d="M30.1842 30.999H7.37061C6.72954 30.999 6.21082 31.5576 6.21082 32.248C6.21082 32.9384 6.72954 33.497 7.37061 33.497H30.1842C30.8253 33.497 31.3441 32.9384 31.3441 32.248C31.3441 31.5576 30.8253 30.999 30.1842 30.999Z" fill="black"/>
<path d="M30.1842 36.5073H7.37061C6.72954 36.5073 6.21082 37.0659 6.21082 37.7563C6.21082 38.4466 6.72954 39.0053 7.37061 39.0053H30.1842C30.8253 39.0053 31.3441 38.4466 31.3441 37.7563C31.3441 37.0659 30.8253 36.5073 30.1842 36.5073Z" fill="black"/>
<path d="M41.6262 46.1208C41.1343 46.1208 40.6728 45.9295 40.3258 45.582L34.0013 39.258L27.676 45.5828C27.3297 45.9295 26.8682 46.1207 26.3764 46.1207C25.8846 46.1207 25.423 45.9295 25.076 45.582L20.5402 41.0462C20.1931 40.6994 20.0024 40.2376 20.0024 39.7464C20.0024 39.2552 20.1931 38.7934 20.5402 38.4466L26.865 32.1217L20.5402 25.7966C19.8237 25.0794 19.8237 23.9135 20.5402 23.1972L25.0768 18.6606C25.7932 17.9438 26.9596 17.944 27.676 18.6604L34.0013 24.9855L40.3266 18.6604C41.043 17.944 42.2093 17.944 42.9258 18.6604L47.4624 23.1974C48.1788 23.9135 48.1788 25.0794 47.4632 25.796L41.1375 32.1217L47.4624 38.4466C47.8094 38.7934 48.0001 39.2552 48.0001 39.7464C48.0001 40.2376 47.8094 40.6994 47.4624 41.0462L42.9258 45.5828C42.5795 45.9295 42.118 46.1208 41.6262 46.1208ZM23.2842 39.7464L26.3764 42.8388L32.7017 36.514C33.0479 36.1673 33.5094 35.9761 34.0013 35.9761C34.4931 35.9761 34.9546 36.1673 35.3017 36.5148L41.6261 42.8389L44.7184 39.7464L38.3935 33.4215C37.6771 32.7041 37.6771 31.5381 38.3935 30.8219L44.7184 24.497L41.6261 21.4044L35.3009 27.7295C34.5845 28.4459 33.4181 28.4459 32.7017 27.7295L26.3764 21.4044L23.2837 24.497L29.6086 30.8221C29.9553 31.1676 30.1467 31.6293 30.1467 32.1211C30.1471 32.613 29.9557 33.0749 29.6082 33.4221L23.2842 39.7464ZM27.5866 32.8435C27.587 32.8441 27.5878 32.8445 27.5882 32.8451L27.5866 32.8435Z" fill="#F0CC00"/>
<path d="M46.4518 24.7858C46.6107 24.6269 46.6107 24.367 46.4518 24.2081L41.9151 19.6714C41.7562 19.5125 41.4963 19.5125 41.3374 19.6714L34.2903 26.7185C34.1315 26.8773 33.8715 26.8773 33.7126 26.7185L26.6655 19.6714C26.5067 19.5125 26.2467 19.5125 26.0879 19.6714L21.5512 24.2081C21.3923 24.367 21.3923 24.6269 21.5512 24.7858L28.5983 31.8328C28.7571 31.9917 28.7571 32.2516 28.5983 32.4105L21.5512 39.4575C21.3923 39.6164 21.3923 39.8763 21.5512 40.0352L26.0879 44.5719C26.2467 44.7308 26.5067 44.7308 26.6655 44.5719L33.7126 37.5248C33.8715 37.366 34.1315 37.366 34.2903 37.5248L41.3374 44.5719C41.4963 44.7308 41.7562 44.7308 41.9151 44.5719L46.4518 40.0352C46.6107 39.8763 46.6107 39.6164 46.4518 39.4575L39.4047 32.4105C39.2459 32.2516 39.2459 31.9917 39.4047 31.8328L46.4518 24.7858Z" fill="black"/>
<path d="M2.12424 10.2896H10.3945C10.7082 10.2896 10.9625 10.0353 10.9625 9.72169V1.45138C10.9625 0.945423 10.3507 0.692033 9.99296 1.0498L1.72265 9.32011C1.36489 9.67788 1.61828 10.2896 2.12424 10.2896Z" fill="black"/>
</svg>
