<svg width="48" height="49" viewBox="0 0 48 49" fill="none" xmlns="http://www.w3.org/2000/svg">
<path d="M24.1962 41.2068C34.8287 39.8364 42.3411 30.0745 40.9758 19.4029C39.6104 8.73135 29.8842 1.19127 19.2518 2.56166C8.61931 3.93205 1.10685 13.694 2.47222 24.3655C3.83759 35.0371 13.5638 42.5772 24.1962 41.2068Z" fill="#F0CC00"/>
<path d="M47.1932 46.9368C46.062 48.2511 44.1617 48.4641 42.9487 47.4124L38.0218 43.024C36.8088 41.9724 36.7426 40.0543 37.8738 38.74C39.0051 37.4256 40.9054 37.2127 42.1183 38.2643L47.0453 42.6528C48.2582 43.7044 48.3245 45.6224 47.1932 46.9368Z" fill="black"/>
<path d="M37.123 34.8226L34.1431 38.0098L38.3375 41.9604L41.3175 38.7732L37.123 34.8226Z" fill="black"/>
<path d="M19.0436 0.690756C7.36726 2.19569 -0.883207 12.9163 0.616249 24.6359C2.11571 36.3555 12.7973 44.636 24.4736 43.131C36.1504 41.626 44.4004 30.9055 42.9009 19.1859C41.4015 7.46638 30.7204 -0.814233 19.0436 0.690756ZM24.1964 41.2069C13.5641 42.5772 3.83781 35.0371 2.47244 24.3655C1.10706 13.694 8.6197 3.93204 19.252 2.56167C29.8848 1.19123 39.6106 8.73133 40.976 19.4029C42.3414 30.0745 34.8293 39.8364 24.1964 41.2069Z" fill="black"/>
<path d="M21.6323 30.0126C26.2406 30.0126 28.4944 30.4403 32.3614 30.6535C37.4519 30.6535 36.7627 30.68 37.0365 28.6301C37.1006 27.4637 37.0419 25.2047 37.0419 22.2887C37.0419 20.6706 36.9524 19.2763 35.7128 18.2587C34.1259 17.1486 33.5742 15.1483 30.3377 11.0875C29.4227 9.98677 28.2606 9.9546 24.451 9.87817C24.1946 9.87281 23.4142 9.87012 21.7592 9.87012C20.1042 9.87012 19.3251 9.87281 19.0673 9.87817C15.2578 9.95458 14.0943 9.98678 13.1807 11.0875C9.94412 15.1497 9.39245 17.1486 7.80424 18.2587C6.56599 19.2776 6.47649 20.6705 6.47649 22.2887C6.47649 25.2047 6.41638 27.4637 6.4805 28.6301C6.75433 30.68 6.06642 30.6535 11.1557 30.6535C14.9385 30.4403 16.149 30.0126 21.6323 30.0126Z" fill="black"/>
<path d="M7.33385 16.7119L9.18922 16.7991C9.31478 16.6234 9.44168 16.4384 9.57392 16.2374C9.33482 16.1918 9.29741 16.0336 9.29208 15.9129C9.29074 15.8861 9.29074 15.862 9.29074 15.8405L9.37623 14.9409C9.39627 14.7331 9.23464 14.5508 9.02492 14.5508H6.94916C6.76884 14.5508 6.61656 14.6889 6.59786 14.8699L6.46295 15.681C6.37211 16.2213 6.78753 16.7119 7.33385 16.7119Z" fill="black"/>
<path d="M36.1832 16.7119L34.3278 16.7991C34.2023 16.6234 34.0754 16.4384 33.9431 16.2374C34.1822 16.1918 34.2196 16.0336 34.225 15.9129C34.2263 15.8861 34.2263 15.862 34.2263 15.8405L34.1408 14.9409C34.1208 14.7331 34.2824 14.5508 34.4921 14.5508H36.5679C36.7495 14.5508 36.9005 14.6889 36.9192 14.8699L37.0541 15.681C37.1436 16.2213 36.7282 16.7119 36.1832 16.7119Z" fill="black"/>
<path d="M11.1561 30.6532C8.64083 30.6532 7.5375 30.4454 7.03125 29.9883V32.0998C7.03125 32.3867 7.26233 32.6187 7.54819 32.6187H10.6391C10.925 32.6187 11.1561 32.3854 11.1561 32.0998L11.1561 30.6532Z" fill="black"/>
<path d="M32.3613 30.6536L32.36 32.0989C32.36 32.3858 32.5911 32.6177 32.8769 32.6177H35.9679C36.2537 32.6177 36.4848 32.3844 36.4848 32.0989V29.9873C35.9786 30.4445 34.8765 30.6536 32.3613 30.6536Z" fill="black"/>
<path d="M7.54359 24.2513C7.54359 24.4095 7.64377 24.5489 7.79471 24.5945C8.87666 24.9337 13.2873 25.9338 14.0594 26.1295C14.201 26.1657 14.3199 26.025 14.2638 25.8895C14.1542 25.6281 13.9111 25.0771 13.6787 24.5556C13.3408 23.7954 12.534 23.5461 11.7419 23.3007L8.47595 22.2885C8.01244 22.1451 7.54359 22.4923 7.54359 22.979L7.54359 24.2513Z" fill="#F0CC00"/>
<path d="M35.7488 24.2513C35.7488 24.4095 35.6486 24.5489 35.4977 24.5945C34.4157 24.9337 30.005 25.9338 29.233 26.1295C29.0914 26.1657 28.9725 26.025 29.0286 25.8895C29.1381 25.6281 29.3812 25.0771 29.6137 24.5556C29.9516 23.7954 30.7584 23.5461 31.5505 23.3007L34.8164 22.2885C35.2786 22.1451 35.7488 22.4923 35.7488 22.979L35.7488 24.2513Z" fill="#F0CC00"/>
<path d="M21.7577 10.7217C21.7577 10.7217 27.1358 10.7217 28.3313 11.0032C28.6839 11.0863 29.0192 11.2365 29.2743 11.4953C29.7044 11.9323 32.0393 15.2545 32.3599 15.9516C32.4133 16.0683 32.3265 16.201 32.1983 16.201H11.3198C11.1915 16.201 11.1034 16.0683 11.1581 15.9516C11.4787 15.2545 13.8136 11.9323 14.2437 11.4953C14.4989 11.2365 14.8328 11.0863 15.1868 11.0032C16.3796 10.7217 21.7577 10.7217 21.7577 10.7217Z" fill="#F0CC00"/>
</svg>
