<svg width="48" height="44" viewBox="0 0 48 44" fill="none" xmlns="http://www.w3.org/2000/svg">
<path d="M29.8731 3.42822C27.8227 3.42822 25.7697 3.81797 23.806 4.5966C15.3838 7.94059 11.2506 17.5136 14.5937 25.9375C16.2141 30.0172 19.3251 33.2228 23.3558 34.9622C27.3865 36.7034 31.8534 36.7682 35.9331 35.1488C40.0137 33.5285 43.2194 30.4175 44.9597 26.3868C46.6991 22.3562 46.7657 17.8893 45.1462 13.8088C43.5259 9.72907 40.4149 6.52347 36.3842 4.78316C34.2926 3.88104 32.0846 3.42822 29.8731 3.42822Z" fill="#F0CC00"/>
<path d="M17.2018 7.11128L0.598941 15.1107C0.199751 15.3037 0.0310012 15.7882 0.223932 16.1874L1.81935 19.4886C2.01228 19.8878 2.49674 20.0565 2.89593 19.8636L12.6744 15.1634C13.0736 14.9704 13.5607 14.4872 13.757 14.0896L17.2018 7.11128Z" fill="black"/>
<path d="M12.546 19.3593C12.5376 18.916 12.2041 18.7112 11.8049 18.9042L6.30199 21.51C5.90281 21.7031 5.7341 22.1876 5.92706 22.5868L7.52237 25.8871C7.71533 26.2863 8.19981 26.455 8.59898 26.2621L11.9154 24.7139C12.3146 24.5209 12.6343 24.0003 12.6259 23.557L12.546 19.3593Z" fill="black"/>
<path d="M15.1746 28.3213C14.9694 27.9282 14.475 27.7645 14.0758 27.9575L0.454811 34.5416C0.0556133 34.7346 -0.113074 35.2191 0.0799426 35.6182L1.6759 38.9187C1.86891 39.3179 2.35345 39.4866 2.75263 39.2936L16.5187 32.6383C16.9179 32.4453 17.0766 31.9658 16.8715 31.5727L15.1746 28.3213Z" fill="black"/>
<path d="M22.288 34.7667C21.9056 34.5423 21.2661 34.5166 20.8669 34.7096L12.6111 38.7013C12.2119 38.8943 12.0432 39.3788 12.2362 39.778L13.8315 43.0784C14.0244 43.4776 14.5089 43.6463 14.9081 43.4533L26.3455 37.9243C26.7446 37.7313 26.7584 37.3898 26.376 37.1654L22.288 34.7667Z" fill="black"/>
<path d="M29.8661 38.0032C27.4285 38.0032 24.9941 37.5048 22.6886 36.5095C18.2452 34.5909 14.8139 31.0572 13.0288 26.5585C9.34256 17.2728 13.899 6.71799 23.1847 3.0318C27.6842 1.24446 32.6085 1.31957 37.0519 3.23739C41.496 5.15521 44.9266 8.68968 46.7117 13.1884C48.4975 17.6871 48.4247 22.6113 46.5061 27.0547C44.5882 31.4987 41.0537 34.9293 36.555 36.7143C34.3906 37.5739 32.1268 38.0032 29.8661 38.0032ZM29.8727 3.42855C27.8224 3.42855 25.7693 3.81831 23.8057 4.59694C15.3834 7.94092 11.2503 17.5139 14.5934 25.9378C16.2137 30.0175 19.3248 33.2231 23.3555 34.9626C27.3862 36.7038 31.853 36.7686 35.9328 35.1491C40.0134 33.5288 43.219 30.4178 44.9594 26.3872C46.6988 22.3565 46.7654 17.8897 45.1459 13.8091C43.5256 9.7294 40.4145 6.5238 36.3838 4.78349C34.2923 3.88137 32.0843 3.42855 29.8727 3.42855Z" fill="black"/>
<path d="M24.5696 4.00873L22.3472 4.89091C21.8966 5.0698 21.5017 5.22322 21.272 4.79621L20.0823 2.58444C19.8117 2.08144 20.0402 1.45502 20.5711 1.24429L23.332 0.148347C23.8628 -0.0623746 24.4587 0.236819 24.6068 0.788433L25.258 3.21397C25.3837 3.68226 25.0203 3.82984 24.5696 4.00873Z" fill="black"/>
<path d="M42.7346 13.7555C42.4955 13.7681 42.2618 13.6365 42.1558 13.4055C42.017 13.1036 42.1494 12.7463 42.4515 12.6075L44.1777 11.8144C44.4798 11.6756 44.837 11.808 44.9757 12.11C45.1145 12.4119 44.9821 12.7693 44.6801 12.908L42.9538 13.7011C42.8827 13.7339 42.8083 13.7516 42.7346 13.7555Z" fill="black"/>
<path d="M14.6535 26.646C14.4145 26.6586 14.1807 26.5268 14.0748 26.296C13.936 25.994 14.0684 25.6366 14.3704 25.498L16.0967 24.7051C16.3989 24.5661 16.7561 24.6987 16.8947 25.0008C17.0335 25.3028 16.9011 25.6602 16.599 25.7987L14.8727 26.5917C14.8015 26.6245 14.7273 26.6421 14.6535 26.646Z" fill="black"/>
<path d="M30.8462 25.1556L28.5342 26.277L24.8604 23.6439L23.1997 24.4494L24.9333 28.0235L22.8738 29.0224L18.0532 19.084L22.305 17.0217C24.1917 16.1066 26.0613 16.6111 27.0538 18.6573C27.724 20.0391 27.59 21.3188 26.8389 22.274L30.8462 25.1556ZM22.3036 22.6354L24.2565 21.6882C25.0538 21.3015 25.3931 20.5461 24.9677 19.6692C24.5295 18.7657 23.7262 18.5645 22.929 18.9512L20.9761 19.8984L22.3036 22.6354Z" fill="black"/>
<path d="M37.2409 9.77712L42.0615 19.7156L40.0286 20.7016L37.3605 15.2009L37.3728 21.8585L36.0178 22.5158L30.7835 18.3909L33.4516 23.8917L31.3921 24.8906L26.5715 14.9521L28.392 14.0692L35.2775 19.264L35.4339 10.6536L37.2409 9.77712Z" fill="black"/>
<path d="M35.912 32.7833C35.8993 32.5442 36.031 32.3105 36.262 32.2045C36.5638 32.0658 36.9212 32.1981 37.06 32.5002L37.8531 34.2264C37.9919 34.5285 37.8595 34.8856 37.5574 35.0244C37.2556 35.1631 36.8982 35.0308 36.7594 34.7287L35.9663 33.0025C35.9335 32.9314 35.9159 32.857 35.912 32.7833Z" fill="black"/>
<path d="M22.9349 4.70761C22.9223 4.46855 23.0541 4.2348 23.2849 4.12883C23.587 3.99007 23.9443 4.12244 24.0829 4.42449L24.8759 6.15076C25.0148 6.45298 24.8822 6.81017 24.5802 6.94874C24.2781 7.0875 23.9208 6.95513 23.7822 6.65307L22.9893 4.92681C22.9565 4.85556 22.9388 4.78137 22.9349 4.70761Z" fill="black"/>
</svg>
