<svg width="48" height="49" viewBox="0 0 48 49" fill="none" xmlns="http://www.w3.org/2000/svg">
<path d="M47.5326 23.1461C47.9813 23.1461 48.1339 22.8476 47.8717 22.4827L31.9712 0.354234C31.709 -0.0106562 31.2799 -0.0106562 31.0178 0.354234L15.1172 22.4827C14.855 22.8476 15.0076 23.1461 15.4564 23.1461H23.0851C23.5338 23.1461 23.901 23.514 23.901 23.9637V47.2154C23.901 47.665 24.2681 48.0329 24.7168 48.0329H38.2721C38.7209 48.0329 39.088 47.665 39.088 47.2154V23.9637C39.088 23.514 39.4551 23.1461 39.9039 23.1461H47.5326Z" fill="black"/>
<path d="M17.4415 47.0586C26.5109 47.0586 33.863 39.6916 33.863 30.604C33.863 21.5164 26.5109 14.1494 17.4415 14.1494C8.37209 14.1494 1.0199 21.5164 1.0199 30.604C1.0199 39.6916 8.37209 47.0586 17.4415 47.0586Z" fill="#F0CC00"/>
<path d="M17.4412 48.0804C7.82399 48.0804 -0.00012207 40.2403 -0.00012207 30.6038C-0.00012207 20.9673 7.82399 13.1274 17.4412 13.1274C27.0584 13.1274 34.8825 20.9673 34.8825 30.6038C34.8825 40.2403 27.0584 48.0804 17.4412 48.0804ZM17.4412 15.1712C8.94861 15.1712 2.03956 22.0944 2.03956 30.6038C2.03956 39.1133 8.94861 46.0366 17.4412 46.0366C25.9338 46.0366 32.8428 39.1135 32.8428 30.6038C32.8428 22.0942 25.9338 15.1712 17.4412 15.1712Z" fill="#F0CC00"/>
<path d="M17.4408 46.7256C8.56892 46.7256 1.35132 39.4935 1.35132 30.6038C1.35132 21.714 8.56892 14.4819 17.4408 14.4819C26.3127 14.4819 33.5303 21.714 33.5303 30.6038C33.5303 39.4935 26.3127 46.7256 17.4408 46.7256ZM17.4408 16.1294C9.47572 16.1294 2.99546 22.6227 2.99546 30.6038C2.99546 38.5849 9.47571 45.0782 17.4408 45.0782C25.4059 45.0782 31.8862 38.5849 31.8862 30.6038C31.8862 22.6227 25.4059 16.1294 17.4408 16.1294Z" fill="black"/>
<path d="M15.6552 36.4496H13.0546L10.8723 32.4213H9.0043V36.4496H6.68774V25.248H11.4703C13.5924 25.248 15.072 26.5358 15.072 28.842C15.072 30.3994 14.3848 31.5077 13.2789 32.0468L15.6552 36.4496ZM8.98956 30.3695H11.1862C12.083 30.3695 12.7255 29.8304 12.7255 28.842C12.7255 27.8237 12.083 27.2847 11.1862 27.2847H8.98956V30.3695Z" fill="black"/>
<path d="M28.2696 25.248V36.4496H25.983V30.2497L23.0537 36.3298H21.5295L18.5851 30.2497V36.4496H16.2686V25.248H18.3162L22.2916 33.0352L26.2371 25.248H28.2696Z" fill="black"/>
</svg>
